<svg width="165" height="193" viewBox="0 0 165 193" fill="none" xmlns="http://www.w3.org/2000/svg">
    <path d="M0.596153 66.5873C0.596153 65.7253 0.79541 64.9113 0.919938 64.193C1.04447 63.4747 1.16893 62.4451 1.31836 61.5592C1.16893 62.4451 1.04447 63.3071 0.919938 64.193C0.79541 65.0789 0.695776 65.8211 0.596153 66.5873Z" fill="#263238"/>
    <path d="M7.67122 76.979C8.28923 75.2849 8.77205 73.5479 9.11569 71.7832C9.20384 71.297 9.39534 70.8334 9.67816 70.4214C9.96098 70.0095 10.3291 69.6579 10.7596 69.3889C11.406 69.2141 12.0631 69.0781 12.7271 68.9818C15.0185 68.3114 15.6661 65.2706 17.8329 64.3128C18.5361 64.0617 19.2754 63.9163 20.0247 63.8818C22.9827 63.727 25.7653 62.4838 27.7955 60.41C28.3328 59.6553 28.9415 58.95 29.6138 58.3029C29.9522 58.0202 30.3734 57.8454 30.8194 57.8025C31.2655 57.7596 31.7145 57.8508 32.1044 58.0635L30.2861 61.5832C29.8096 62.6684 29.1157 63.6528 28.2438 64.4804C27.7957 64.8935 27.2374 65.1793 26.6308 65.3061C26.0241 65.4329 25.3927 65.3957 24.8067 65.1987C24.4681 64.9733 24.0721 64.8409 23.6611 64.8156C23.5074 64.8384 23.36 64.8903 23.2274 64.9684C23.0948 65.0465 22.9798 65.1492 22.889 65.2705C22.2039 66.188 21.8782 67.3088 21.9693 68.4348C22.0605 69.5608 22.5627 70.6195 23.3872 71.4241C25.0859 73.0081 27.1517 74.1816 29.4145 74.848C30.1866 75.2135 31.0474 75.3707 31.9051 75.3029C33.4244 75.0396 34.2463 73.4593 34.6946 72.0466C35.3112 68.8042 36.4988 65.6866 38.2064 62.8283C38.9585 62.0687 39.5881 61.2051 40.0744 60.2663C40.4978 59.2128 40.3982 57.9917 41.0707 57.0579C41.7431 56.1241 43.2127 55.5255 43.3123 54.3522C43.2971 53.9339 43.151 53.5297 42.8934 53.1923C42.6357 52.8549 42.2783 52.5999 41.8677 52.4607C41.0956 52.1015 40.199 51.9818 39.3771 51.6705C39.0533 51.5508 38.7045 51.3114 38.7045 51.0001C38.7045 50.6888 39.4019 50.3058 39.6011 49.8508C39.8004 49.3959 39.2276 48.8452 39.0034 48.3424C38.5053 47.1931 39.7507 45.948 40.9711 45.5649C42.1915 45.1818 43.6361 44.7508 44.2089 43.6255C44.4318 43.0902 44.5662 42.5246 44.6074 41.9494C44.721 41.2269 45.0569 40.5535 45.5717 40.0159C46.0866 39.4783 46.7569 39.101 47.4966 38.9325C47.8591 38.8687 48.2317 38.883 48.5878 38.9744C48.9438 39.0658 49.2744 39.232 49.5555 39.461C49.8366 39.6901 50.0614 39.9762 50.2136 40.2989C50.3658 40.6216 50.4416 40.9726 50.4355 41.3269C50.1564 42.0752 49.7887 42.7903 49.3396 43.4579C48.9909 44.1762 49.0905 45.2536 49.8875 45.4931C51.1826 45.8762 52.3782 43.6255 53.499 44.3917C53.0506 45.8283 52.6273 47.2649 52.179 48.7255C53.8975 49.5396 55.9149 48.055 56.6372 46.3311C57.3595 44.6072 57.4094 42.7395 58.2562 41.1114C59.103 39.4832 61.4441 38.286 62.9384 39.4353C62.9384 41.5184 60.0992 42.3564 58.829 44.0325C58.5903 44.3278 58.4154 44.666 58.3148 45.0273C58.2143 45.3886 58.19 45.7655 58.2434 46.136C58.2968 46.5064 58.4268 46.8628 58.6257 47.1842C58.8247 47.5056 59.0885 47.7854 59.4018 48.0071C60.7716 48.7973 62.9136 47.4325 62.3906 46.0198C62.2162 45.517 61.7928 45.11 61.743 44.5832C61.6932 44.0564 62.266 43.41 62.789 42.979L65.2796 41.0156C65.7748 40.5475 66.3696 40.188 67.0231 39.9621C67.9139 39.8612 68.8147 40.0399 69.5911 40.4714C70.3676 40.9029 70.9784 41.5641 71.332 42.3564C72.0285 43.9049 72.9148 45.3678 73.9721 46.7142C74.8985 47.5632 76.1293 48.0368 77.4092 48.0368C78.6891 48.0368 79.9198 47.5632 80.8462 46.7142C81.2365 46.2446 81.5064 45.6934 81.6341 45.105C81.7617 44.5167 81.7436 43.9076 81.5812 43.3272C81.4187 42.7468 81.1166 42.2114 80.699 41.764C80.2814 41.3167 79.7602 40.9701 79.1775 40.7522C78.2559 40.5128 77.0604 40.5367 76.6868 39.7466C75.84 38.3578 78.3057 36.586 77.4589 35.1733C76.6121 33.7607 74.9684 34.5748 73.8227 34.2156C72.677 33.8564 71.855 32.6593 71.1328 31.6297C70.4105 30.6001 69.2647 29.5945 67.9696 29.8578C68.1417 29.1508 68.0985 28.411 67.8451 27.7268C67.77 27.5606 67.6606 27.4106 67.5236 27.2861C67.3865 27.1616 67.2247 27.0651 67.0478 27.0025C66.8708 26.9398 66.6826 26.9123 66.4943 26.9216C66.306 26.9308 66.1215 26.9767 65.9522 27.0564C66.0701 27.3201 66.132 27.6038 66.1343 27.8909C66.1366 28.1779 66.0792 28.4625 65.9656 28.7279C65.8519 28.9933 65.6841 29.2342 65.4723 29.4365C65.2604 29.6388 65.0087 29.7983 64.7318 29.9057C63.5836 30.3062 62.3434 30.3972 61.1452 30.1691C59.9497 30.0254 58.4304 29.5945 58.3308 28.4452C58.3308 28.0621 58.3308 27.679 58.3308 27.3198C57.8078 25.955 55.1428 27.8466 54.1216 26.7452C53.5239 26.1705 54.1216 25.1409 55.0182 24.9494C55.8447 24.8431 56.6823 24.8431 57.5089 24.9494C58.3557 24.9494 59.3769 24.5663 59.4018 23.7761C59.4267 22.986 58.53 22.4114 58.4304 21.6452C58.256 20.3283 60.5973 19.993 61.4192 21.0705C61.7414 21.6546 61.9343 22.2966 61.9858 22.9559C62.0372 23.6153 61.946 24.2777 61.7181 24.9015C61.4863 25.5241 61.4219 26.193 61.5308 26.8459C61.6396 27.4989 61.9182 28.1149 62.3407 28.6367C62.7641 29.2592 63.885 28.948 64.2586 28.2776C64.5456 27.5858 64.6731 26.8424 64.6322 26.0987C64.6115 25.72 64.7128 25.3443 64.9223 25.0229C65.1318 24.7016 65.4392 24.4502 65.8027 24.3029C66.3486 24.2518 66.8997 24.3088 67.4217 24.4705C69.5637 24.71 71.0581 22.0761 70.3856 20.1367C69.4846 18.2474 67.8873 16.7461 65.9023 15.9226C65.2636 15.4776 64.5241 15.1848 63.7447 15.0682C62.9653 14.9517 62.1683 15.0147 61.4192 15.2522C60.7965 15.6113 60.3482 16.186 59.7256 16.5451C58.5505 16.9707 57.2843 17.1105 56.0395 16.9522C54.0711 17.0088 52.1818 17.7099 50.6845 18.9395C50.1366 19.4184 49.6135 20.2085 50.0369 20.7832C50.4603 21.3578 51.8551 21.5254 51.631 22.2438C51.2688 22.3392 50.8898 22.3606 50.5185 22.3067C50.1472 22.2528 49.7917 22.1247 49.4749 21.9307C49.1582 21.7368 48.8873 21.4812 48.6796 21.1804C48.4718 20.8797 48.3318 20.5405 48.2687 20.1846C47.9176 20.3417 47.6142 20.5826 47.3874 20.8844C47.1607 21.1861 47.0182 21.5388 46.9735 21.9085C46.5653 21.5543 46.086 21.2841 45.5652 21.1144C45.0444 20.9447 44.493 20.8791 43.9449 20.9217C43.3967 20.9643 42.8634 21.1142 42.3777 21.3621C41.892 21.61 41.4643 21.9508 41.1205 22.3635C40.8491 22.8679 40.4865 23.322 40.0496 23.7043C39.5514 23.9916 38.6797 23.848 38.6299 23.2973C38.5808 23.133 38.5808 22.9587 38.6299 22.7944C38.9288 21.9804 39.2276 21.2142 39.5265 20.4001C38.3808 19.8015 37.0358 20.7114 36.2388 21.717C33.3497 25.3804 31.2576 23.1776 27.2476 23.7761C24.483 24.1592 23.2874 25.8353 21.7183 27.8705C16.9612 34.0959 10.6849 39.2198 6.37605 45.7325C5.91069 46.3942 5.4865 47.0817 5.10579 47.7917C5.10579 47.6241 5.10583 47.4565 5.30508 47.2649C6.99866 43.039 9.09984 38.9748 11.5814 35.1255C12.1293 34.3114 12.6525 33.4973 13.2253 32.7311C13.7982 31.9649 13.9226 31.7254 14.2713 31.2466C14.62 30.7677 15.2178 30.0015 15.691 29.4029C16.1642 28.8043 16.463 28.4212 16.8615 27.9423L17.6835 26.9606C17.9824 26.6015 18.3062 26.2184 18.6549 25.8592L19.676 24.7339L20.0247 24.3747C20.3734 23.9916 20.747 23.5846 21.1455 23.2015V23.0818C21.2596 22.9841 21.3677 22.8802 21.4693 22.7705C21.7682 22.4353 22.1169 22.124 22.4407 21.8128C22.7645 21.5015 23.5116 20.7832 24.0595 20.2804C24.6075 19.7776 24.9811 19.4423 25.4543 19.0353L26.8989 18.1733L28.1692 17.1437L29.7632 15.8987C31.2327 14.7733 32.7768 13.6959 34.3708 12.6663L35.5414 11.924C35.915 11.6606 36.3385 11.4452 36.737 11.2057L37.9324 10.4874L39.1528 9.81698C39.471 9.61816 39.8041 9.4421 40.1491 9.29021C40.306 9.1805 40.4728 9.08434 40.6473 9.00288L42.7643 7.92542L43.8602 7.42261C44.3085 7.18317 44.7817 6.99161 45.2549 6.77612H45.4542L46.7245 6.22542L48.5426 5.50711L50.6348 4.71698C51.4069 4.4536 52.1789 4.16627 52.9759 3.92683L55.4665 3.18457L57.9572 2.53809C59.5761 2.13105 61.195 1.74795 62.9384 1.43669C63.586 1.43669 64.2087 1.19726 64.8314 1.12542L65.6782 0.98175C66.8488 0.790201 68.0194 0.646551 69.2149 0.526833H69.6383L70.6845 0.407107L73.1751 0.239502C73.997 0.239502 74.8438 0.239502 75.6657 0.239502H78.3058C80.6304 0.239502 82.9218 0.335283 85.18 0.526833L86.7739 0.670489L88.4427 0.862043L90.0865 1.07753L91.7304 1.34091L93.1499 1.58034C94.3289 1.80382 95.4746 2.04326 96.587 2.29866L98.1811 2.68175L99.7751 3.08881L102.266 3.83105L104.358 4.50148L106.425 5.24372L108.293 5.98599L110.584 6.94374C111.232 7.23107 111.855 7.49443 112.477 7.8057L114.47 8.76345L116.338 9.74515C116.985 10.1043 117.608 10.4395 118.231 10.8226L119.974 11.8522L120.622 12.2592L122.44 13.4325L124.607 14.917L126.45 16.2578C129.932 18.9005 133.174 21.8243 136.138 24.9973C137.185 26.0987 138.156 27.224 139.127 28.3733C140.099 29.5226 140.721 30.3607 141.493 31.3902C142.266 32.4198 142.813 33.186 143.436 34.1198C142.805 33.194 142.158 32.2841 141.493 31.3902H140.896C139.777 31.4203 138.662 31.2498 137.608 30.8874C136.734 30.3556 135.902 29.7634 135.117 29.1156C132.975 27.655 129.464 27.3916 128.891 24.9494C128.846 24.147 128.755 23.3476 128.617 22.555C127.994 21.0944 125.952 20.879 124.283 20.9029C123.586 20.9029 122.764 20.9029 122.44 21.5733C122.342 21.7885 122.291 22.0208 122.291 22.2557C122.291 22.4906 122.342 22.723 122.44 22.9381C123.483 25.6978 125.478 28.0303 128.094 29.5466C130.236 30.7916 133.075 31.7494 133.623 34.0719C133.324 34.8621 131.83 34.7902 131.705 35.6283C131.581 36.4663 132.502 36.61 132.826 37.2086C133.15 37.8071 132.228 39.1001 131.207 39.0522C130.186 38.8836 129.254 38.3853 128.567 37.6395C126.136 35.8559 124.266 33.4612 123.162 30.7198C122.814 29.5705 122.714 28.2057 121.718 27.4156C121.409 27.2244 121.06 27.1013 120.696 27.0551C120.331 27.0088 119.961 27.0406 119.611 27.1482C119.261 27.2558 118.94 27.4364 118.671 27.6772C118.403 27.918 118.193 28.2129 118.056 28.5409C117.085 28.0142 115.566 27.6311 115.068 28.5409C114.957 28.9005 114.882 29.2692 114.844 29.6423C114.545 31.1508 112.353 31.8212 112.154 33.3536C111.954 34.886 114.246 35.9874 116.089 36.2508L121.07 37.017C121.802 37.0589 122.512 37.2727 123.137 37.6395C123.446 37.8308 123.677 38.1187 123.79 38.4547C123.904 38.7907 123.893 39.154 123.76 39.4832C123.515 39.8029 123.221 40.0853 122.888 40.3212C122.598 40.6726 122.41 41.0918 122.343 41.5359C122.276 41.9801 122.333 42.4334 122.507 42.8495C122.682 43.2657 122.968 43.6299 123.337 43.905C123.706 44.1801 124.144 44.3563 124.607 44.4156C125.254 44.4156 125.927 44.2001 126.574 44.1762C127.555 44.2674 128.491 44.6146 129.281 45.18C130.071 45.7455 130.685 46.5078 131.058 47.3846C131.758 49.1844 132.854 50.8178 134.27 52.1734C136.761 53.9931 141.195 53.5621 142.415 56.3635C142.752 57.5387 142.752 58.7798 142.415 59.9551C142.09 61.1402 142.251 62.3999 142.863 63.4748C143.586 64.4565 145.478 64.672 146.026 63.4748C146.177 62.966 146.177 62.4272 146.026 61.9184C145.728 60.1945 145.453 58.4466 145.155 56.7226C144.772 55.4572 144.924 54.0978 145.578 52.9396C146.227 52.3017 147.106 51.9284 148.034 51.8972C148.961 51.866 149.866 52.1792 150.559 52.772C151.906 54.0676 152.78 55.7477 153.05 57.5607C153.32 59.2062 153.797 60.8142 154.47 62.3494C154.719 63.81 154.943 65.2706 155.092 66.7551C155.242 68.2396 155.366 69.7959 155.416 71.3522C155.196 71.1737 154.988 70.9817 154.793 70.7776C154.021 70.0114 152.452 66.8029 151.057 68.3832C150.881 68.589 150.785 68.8471 150.785 69.1135C150.785 69.3799 150.881 69.6381 151.057 69.8438C151.481 70.3706 152.353 70.4903 152.676 71.0649C153 71.6396 152.527 72.5973 151.854 73.0283C151.128 73.38 150.471 73.8499 149.912 74.417C149.015 75.6382 149.912 77.5058 148.99 78.7508C148.069 79.9959 146.649 79.9001 145.279 80.0438H144.806C144.708 78.6788 144.121 77.3887 143.144 76.3933C142.168 75.3978 140.863 74.7587 139.451 74.5847C134.345 73.4832 127.645 77.5058 124.781 81.1452C121.568 85.2396 120.074 91.0339 115.167 93.117C111.655 94.6015 106.649 94.0748 104.956 97.3312C103.262 100.587 106.076 103.557 106.475 106.909C106.481 109.063 106.264 111.212 105.827 113.326C105.63 114.384 105.761 115.475 106.204 116.463C106.647 117.451 107.382 118.291 108.318 118.88C109.464 119.383 110.809 119.311 111.83 120.149C113.474 121.61 112.129 124.651 113.773 126.135C114.409 126.575 115.104 126.929 115.84 127.189C119.526 128.961 119.426 134.109 117.733 137.676L117.533 138.059C106.005 144.598 92.9317 148.199 79.551 148.521C66.1703 148.844 52.9253 145.878 41.0707 139.903C38.6963 138.69 36.4048 137.373 34.1965 135.952C30.7735 133.767 27.5416 131.316 24.5328 128.626C22.4387 126.784 20.4593 124.825 18.605 122.759C17.3099 121.323 16.1144 119.838 14.894 118.33C14.2713 117.54 13.6984 116.749 13.1256 115.935C11.4346 113.565 9.88785 111.103 8.49303 108.561C6.48199 104.854 4.81509 100.984 3.51173 96.9959C2.13268 92.9067 1.13249 88.7081 0.522934 84.4494C0.298782 82.7734 0.124527 81.0973 0 79.3973C0.403214 79.803 0.885727 80.1282 1.41998 80.3542C1.95424 80.5802 2.52972 80.7026 3.1133 80.7142C4.19159 80.651 5.21918 80.2524 6.04131 79.5787C6.86343 78.9049 7.43556 77.9925 7.67122 76.979Z" fill="url(#paint0_linear)"/>
    <path d="M96.6369 19.2507C98.0194 20.3466 99.2204 21.6383 100.199 23.0817C101.394 24.3507 103.511 25.2605 104.931 24.207C105.246 23.9284 105.501 23.5924 105.681 23.2184C105.861 22.8444 105.961 22.4398 105.977 22.0281C106.099 20.8388 105.81 19.6438 105.155 18.6281C104.482 17.5986 103.461 16.7605 102.888 15.6831C102.559 15.1633 102.447 14.5422 102.576 13.9462C102.706 13.3501 103.067 12.8239 103.586 12.4746C104.233 12.1873 105.006 12.307 105.578 11.9C106.575 11.2056 105.852 9.50563 104.682 9.12254C103.466 8.88256 102.212 8.88256 100.996 9.12254C96.4626 9.40986 93.15 6.58451 89.7627 4.33382C87.1227 2.5141 81.4939 0.359184 78.4553 2.22678C78.1483 2.39262 77.8845 2.62358 77.6843 2.9021C77.4841 3.18062 77.3525 3.49937 77.2997 3.83411C77.2469 4.16885 77.2742 4.51075 77.3795 4.83383C77.4848 5.15692 77.6652 5.45267 77.9073 5.6986C78.4054 6.0817 79.1277 6.15353 79.6009 6.58452C80.0741 7.0155 80.2485 7.87747 80.5972 8.54789C81.444 10.2958 83.9098 10.9422 84.7068 12.6901C85.1801 13.7436 84.9558 15.0845 85.703 15.9944C86.3736 16.6459 87.249 17.0667 88.1936 17.1915L94.1463 18.4126C95.0123 18.5818 95.8502 18.8637 96.6369 19.2507Z" fill="#263238"/>
    <path d="M44.0585 110.404C45.7076 113.364 46.6759 116.631 46.8979 119.982C47.1315 123.369 48.605 126.566 51.0572 129.009C53.7471 131.187 58.5291 131.068 60.1232 128.027C60.5965 126.264 60.8802 124.458 60.9699 122.639C61.943 120.462 63.0836 118.357 64.3821 116.342C65.0389 114.405 65.3258 112.368 65.2289 110.332C65.5776 99.2705 68.4169 87.7297 76.3371 79.6128C77.2434 78.5271 78.4403 77.6994 79.7991 77.2184C80.6295 77.0293 81.4986 77.0707 82.3054 77.3378C83.1123 77.6048 83.8237 78.0865 84.3571 78.7268C84.8536 79.5789 85.4377 80.381 86.1005 81.1212C86.5726 81.4189 87.1048 81.6174 87.6622 81.7038C88.2196 81.7901 88.7897 81.7623 89.3351 81.6221C89.8806 81.482 90.3892 81.2327 90.8275 80.8905C91.2658 80.5484 91.6242 80.1211 91.8788 79.6367C92.7985 77.6287 93.0676 75.4009 92.6509 73.2437C92.4268 70.562 92.1776 67.8564 91.9535 65.1747C91.9774 63.7467 91.5329 62.3477 90.6832 61.1761C89.3134 59.6677 86.8228 59.5958 85.1291 58.3747C82.9125 56.7944 82.6385 53.7775 81.2188 51.5029C79.7992 49.2282 75.4405 48.2705 74.7929 50.8325C70.1603 41.4226 59.8491 55.4057 53.8467 54.3522C52.1425 53.8084 50.362 53.5178 48.5665 53.4902C45.4283 53.8973 43.8094 57.2015 42.7384 60.0268L37.4333 74.1775C37.2154 75.1124 36.7972 75.9935 36.2055 76.7644C35.6137 77.5353 34.8612 78.1792 33.9962 78.655C32.5765 79.1818 30.9079 78.655 29.4634 79.2775C25.6527 80.5944 26.9726 86.317 29.9614 88.855C32.9501 91.393 37.4334 92.9733 38.8033 96.5648C39.8992 99.2944 39.0273 102.479 40.2228 105.161C41.3242 107.022 42.6087 108.778 44.0585 110.404Z" fill="#263238"/>
    <path d="M29.5631 113.469C30.8084 113.637 32.3028 113.038 33.2492 113.852C33.7194 114.394 34.0291 115.047 34.1458 115.744C34.4092 116.724 35.0388 117.576 35.9142 118.138C36.3486 118.407 36.8545 118.55 37.3713 118.55C37.8881 118.55 38.3939 118.407 38.8283 118.138C39.0316 117.994 39.2033 117.812 39.3334 117.604C39.4636 117.396 39.5497 117.165 39.5867 116.925C39.6237 116.684 39.6111 116.439 39.5493 116.204C39.4875 115.968 39.378 115.747 39.2269 115.552C38.8776 115.254 38.5117 114.974 38.131 114.714C36.4871 113.206 37.6079 110.428 36.3625 108.656C35.6153 107.603 34.4199 106.549 33.5979 105.472C32.776 104.394 32.7511 104.011 31.5805 103.796C26.4995 102.694 24.2081 112.751 29.5631 113.469Z" fill="#263238"/>
    <path d="M145.751 93.3805C145.712 91.2412 145.538 89.1063 145.228 86.9875C145.228 85.503 145.228 83.9467 145.228 82.4622C146.563 82.4076 147.889 82.2313 149.188 81.9354C149.469 81.9116 149.728 81.7826 149.911 81.5763C150.044 81.3423 150.105 81.0763 150.085 80.8101C150.085 79.134 151.878 78.0326 153.373 77.1946C154.166 76.7488 155 76.3722 155.863 76.0692C155.876 76.2446 155.876 76.4206 155.863 76.596C155.474 88.2486 152.15 99.6364 146.175 109.782C145.403 111.147 144.556 112.464 143.684 113.757C142.812 115.049 141.467 116.941 140.247 118.545C139.027 120.149 137.906 121.418 136.636 122.783C134.892 124.651 133.074 126.447 131.131 128.171C129.189 129.895 127.645 131.14 125.777 132.504C130.011 121.658 134.02 110.572 141.293 101.378C143.503 99.148 145.044 96.3844 145.751 93.3805Z" fill="url(#paint1_linear)"/>
    <path d="M155.889 72.5732C155.889 73.0282 155.889 73.4591 155.889 73.9141C155.915 73.4591 155.915 73.0042 155.889 72.5732Z" fill="#263238"/>
    <g opacity="0.6">
        <path opacity="0.6" d="M121.418 135.401C120.77 135.832 120.098 136.24 119.425 136.647L118.006 137.461L119.425 136.647C120.098 136.24 120.77 135.832 121.418 135.401Z" fill="#263238"/>
    </g>
    <path d="M29.9613 89.0465C26.8729 86.5085 25.6526 80.786 29.4633 79.4691C30.9079 78.9662 32.5765 79.4691 33.9961 78.8465C34.8612 78.3707 35.6136 77.7268 36.2054 76.9559C36.7972 76.185 37.2153 75.304 37.4332 74.3691L42.7383 60.2184C43.8093 57.393 45.4283 54.0888 48.5665 53.6817C50.3619 53.7093 52.1424 54 53.8467 54.5437C59.9238 55.5972 70.1603 41.6141 74.7929 51.024C75.4405 48.462 79.7742 49.4198 81.2188 51.6944C82.6634 53.9691 82.9125 56.986 85.1291 58.5662C86.8228 59.7874 89.3134 59.8592 90.6832 61.3676C91.5329 62.5392 91.9774 63.9382 91.9535 65.3662C92.1776 68.0479 92.4268 70.7536 92.6509 73.4353C93.0676 75.5924 92.7985 77.8202 91.8788 79.8282C91.6242 80.3126 91.2658 80.7399 90.8275 81.0821C90.3892 81.4242 89.8806 81.6735 89.3351 81.8137C88.7897 81.9538 88.2196 81.9816 87.6622 81.8953C87.1048 81.809 86.5726 81.6104 86.1005 81.3127C85.4377 80.5726 84.8536 79.7704 84.357 78.9184C83.8237 78.278 83.1123 77.7963 82.3054 77.5293C81.4986 77.2623 80.6295 77.2209 79.7991 77.4099C78.4403 77.8909 77.2434 78.7186 76.3371 79.8043C68.4168 87.9212 65.5776 99.462 65.2289 110.524C65.3258 112.56 65.0389 114.596 64.382 116.534C63.0835 118.549 61.943 120.653 60.9699 122.831C60.8801 124.65 60.5965 126.455 60.1231 128.218C58.6536 131.259 53.747 131.379 51.0571 129.2C48.605 126.758 47.1315 123.56 46.8978 120.173C46.6759 116.822 45.7075 113.556 44.0584 110.596C42.6189 109.03 41.3347 107.339 40.2228 105.544C39.0272 102.862 39.8991 99.6775 38.8032 96.9479C37.3337 93.1648 33.0248 91.5606 29.9613 89.0465Z" fill="url(#paint2_linear)"/>
    <g opacity="0.6">
        <path opacity="0.6" d="M155.838 70.8253C155.851 70.9608 155.851 71.0969 155.838 71.2324C155.838 71.6873 155.838 72.1183 155.838 72.5732C155.838 72.1183 155.838 71.6873 155.838 71.2324C155.851 71.0969 155.851 70.9608 155.838 70.8253Z" fill="#263238"/>
    </g>
    <g opacity="0.6">
        <path opacity="0.6" d="M155.914 74.9916C155.914 75.3507 155.914 75.7338 155.914 76.069C155.888 75.7338 155.888 75.3986 155.914 74.9916Z" fill="#263238"/>
    </g>
    <path d="M145.203 79.5887H145.677C147.046 79.4451 148.64 79.3972 149.387 78.2958C150.135 77.1944 149.387 75.1831 150.309 73.962C150.868 73.3948 151.526 72.925 152.252 72.5733C152.924 72.1423 153.472 71.2803 153.074 70.6099C152.675 69.9395 151.878 69.9155 151.455 69.3887C151.279 69.183 151.182 68.9249 151.182 68.6585C151.182 68.392 151.279 68.1339 151.455 67.9282C152.849 66.3479 154.419 69.5563 155.191 70.3225C155.385 70.5267 155.593 70.7186 155.813 70.8972C155.825 71.0326 155.825 71.1688 155.813 71.3042C155.813 71.7592 155.813 72.1901 155.813 72.6451C155.813 73.1 155.813 73.531 155.813 73.9859V75.0634C155.813 75.4225 155.813 75.8056 155.813 76.1408C154.95 76.4438 154.116 76.8205 153.323 77.2662C151.828 78.1042 150.135 79.2056 150.035 80.8817C150.055 81.1479 149.994 81.4139 149.861 81.6479C149.678 81.8542 149.419 81.9833 149.138 82.0071C147.839 82.3029 146.513 82.4793 145.178 82.5338" fill="url(#paint3_linear)"/>
    <path d="M145.328 82.5817C145.328 84.0662 145.328 85.6226 145.328 87.1071C145.638 89.2259 145.812 91.3608 145.852 93.5C145.123 96.4613 143.584 99.1813 141.393 101.378C134.121 110.596 130.111 121.682 125.877 132.504C125.105 133.103 124.283 133.654 123.386 134.204L121.443 135.497C120.796 135.928 120.123 136.335 119.451 136.742L118.031 137.557L118.23 137.173C119.924 133.606 120.024 128.458 116.337 126.686C115.602 126.427 114.907 126.072 114.27 125.633C112.626 124.148 113.971 121.107 112.328 119.647C111.406 118.809 109.961 118.88 108.816 118.378C107.88 117.789 107.144 116.948 106.702 115.96C106.259 114.972 106.128 113.881 106.325 112.823C106.761 110.71 106.978 108.56 106.973 106.406C106.574 103.149 103.909 99.8451 105.453 96.8282C106.998 93.8113 112.153 94.0986 115.665 92.6141C120.646 90.5789 122.066 84.7845 125.279 80.6423C128.143 77.0028 134.843 72.9803 139.949 74.0817C141.36 74.2557 142.666 74.8949 143.642 75.8903C144.618 76.8858 145.206 78.1759 145.304 79.5409" fill="url(#paint4_linear)"/>
    <path d="M151.032 52.3409C150.338 51.7482 149.434 51.435 148.506 51.4662C147.579 51.4974 146.699 51.8706 146.05 52.5085C145.397 53.6668 145.244 55.0262 145.627 56.2916C145.926 58.0155 146.2 59.7635 146.499 61.4874C146.649 61.9961 146.649 62.535 146.499 63.0437C145.951 64.1451 144.008 63.9296 143.335 63.0437C142.723 61.9689 142.563 60.7092 142.887 59.524C143.224 58.3488 143.224 57.1077 142.887 55.9325C141.667 53.1311 137.283 53.5381 134.743 51.7423C133.326 50.3868 132.23 48.7534 131.53 46.9536C131.158 46.0768 130.543 45.3145 129.753 44.749C128.963 44.1835 128.027 43.8364 127.047 43.7451C126.399 43.7451 125.726 44.0085 125.079 43.9846C124.616 43.9253 124.178 43.7491 123.809 43.474C123.44 43.1989 123.154 42.8347 122.979 42.4185C122.805 42.0023 122.748 41.5491 122.815 41.1049C122.882 40.6608 123.07 40.2416 123.36 39.8902C123.693 39.6543 123.987 39.3718 124.232 39.0522C124.365 38.723 124.376 38.3597 124.263 38.0237C124.149 37.6877 123.918 37.3998 123.609 37.2085C122.984 36.8417 122.274 36.6279 121.542 36.586L116.561 35.8198C114.718 35.5564 112.377 34.6466 112.626 32.9226C112.875 31.1987 115.116 30.7198 115.316 29.2114C115.354 28.8383 115.429 28.4695 115.54 28.11C116.038 27.1522 117.557 27.5353 118.528 28.11C118.665 27.782 118.875 27.487 119.144 27.2462C119.412 27.0054 119.733 26.8248 120.083 26.7172C120.433 26.6097 120.803 26.5779 121.168 26.6241C121.532 26.6703 121.881 26.7934 122.19 26.9846C123.186 27.7747 123.286 29.1395 123.634 30.2888C124.738 33.0302 126.609 35.4249 129.039 37.2085C129.726 37.9543 130.658 38.4526 131.679 38.6212C132.7 38.6212 133.771 37.6156 133.298 36.7776C132.825 35.9395 132.103 35.8437 132.177 35.1973C132.252 34.5508 133.796 34.4311 134.095 33.6409C133.522 31.2466 130.708 30.3607 128.566 29.1156C125.95 27.5994 123.955 25.2668 122.912 22.5071C122.814 22.292 122.763 22.0596 122.763 21.8247C122.763 21.5898 122.814 21.3575 122.912 21.1423C123.236 20.5677 124.058 20.4719 124.755 20.4719C126.424 20.4719 128.466 20.6635 129.089 22.124C129.227 22.9166 129.318 23.716 129.363 24.5184C129.936 26.9128 133.448 27.224 135.59 28.6846C136.374 29.3324 137.206 29.9246 138.08 30.4564C139.134 30.8188 140.249 30.9893 141.368 30.9593H141.966C142.646 31.8531 143.294 32.763 143.908 33.6888C144.556 34.6226 145.154 35.5564 145.727 36.5142C148.508 41.0586 150.779 45.8744 152.501 50.8804C153.099 52.6282 153.622 54.424 154.095 56.2198C154.568 58.0156 154.942 59.8592 155.266 61.7268C154.593 60.1916 154.116 58.5836 153.846 56.9381C153.447 55.1544 152.46 53.5422 151.032 52.3409Z" fill="url(#paint5_linear)"/>
    <path d="M85.7285 15.8986C84.9813 14.9648 85.2054 13.6479 84.7322 12.5944C83.9352 10.8225 81.4696 10.2 80.6227 8.45211C80.2741 7.78168 80.1993 6.9676 79.6264 6.48872C79.0536 6.00985 78.4309 5.9859 77.9328 5.6028C77.6908 5.35687 77.5103 5.06111 77.405 4.73803C77.2997 4.41494 77.2724 4.07303 77.3252 3.73829C77.378 3.40355 77.5096 3.0848 77.7098 2.80628C77.91 2.52776 78.1738 2.2968 78.4808 2.13096C81.5194 0.263353 87.1482 2.41828 89.7883 4.238C93.1755 6.63238 96.4881 9.38591 101.021 9.02675C102.237 8.78677 103.491 8.78677 104.707 9.02675C105.878 9.45774 106.6 11.1099 105.604 11.8042C105.031 12.2113 104.259 12.0916 103.611 12.3789C103.092 12.7282 102.732 13.2544 102.602 13.8504C102.472 14.4464 102.584 15.0675 102.914 15.5873C103.487 16.6648 104.508 17.5028 105.18 18.5324C105.836 19.548 106.125 20.743 106.002 21.9324C105.987 22.3441 105.886 22.7486 105.706 23.1227C105.527 23.4967 105.272 23.8327 104.956 24.1113C103.537 25.1648 101.42 24.255 100.224 22.9859C99.2459 21.5426 98.0449 20.2508 96.6624 19.155C95.8757 18.768 95.0378 18.4861 94.1718 18.3169L88.269 17C87.3191 16.9118 86.4261 16.5246 85.7285 15.8986Z" fill="url(#paint6_linear)"/>
    <g opacity="0.6">
        <path opacity="0.6" d="M0.249332 73.0043C0.249332 71.9508 0.249332 70.8973 0.249332 69.8438C0.249332 70.8973 0.249332 71.9508 0.249332 73.0043C0.249332 73.3634 0.249332 73.6986 0.249332 74.0338C0.249332 75.662 0.249351 77.2901 0.423828 78.8225C0.423828 77.2183 0.249332 75.5902 0.249332 74.0338C0.224407 73.5789 0.224407 73.2437 0.249332 73.0043Z" fill="#263238"/>
    </g>
    <g opacity="0.6">
        <path opacity="0.6" d="M5.12891 48.0549C4.75533 48.9887 4.40671 49.9225 4.08295 50.8802C4.40671 49.9225 4.75533 48.9887 5.12891 48.0549Z" fill="#263238"/>
    </g>
    <path d="M0.250252 73.0042C0.250252 71.9507 0.250252 70.8972 0.250252 69.8436C0.250252 68.7901 0.399788 67.7366 0.499413 66.707C0.599037 65.6774 0.698669 65.031 0.823204 64.3127C0.947739 63.5943 1.0722 62.5648 1.22164 61.6788C1.68626 59.0878 2.29312 56.5223 3.03976 53.9929C3.33864 53.0352 3.63753 52.0774 3.98622 51.1197C4.33491 50.1619 4.65865 49.2281 5.03224 48.2943C5.41295 47.5844 5.83713 46.8968 6.3025 46.2352C10.6113 39.7225 16.8878 34.5986 21.6449 28.3732C23.214 26.338 24.4095 24.662 27.1741 24.2789C31.2338 23.6803 33.2761 25.8831 36.1652 22.2197C36.9373 21.2141 38.3072 20.3042 39.4529 20.9028C39.154 21.6929 38.8552 22.4591 38.5563 23.2972C38.5072 23.4614 38.5072 23.6357 38.5563 23.8C38.5563 24.3507 39.4779 24.4944 39.976 24.207C40.4129 23.8247 40.7755 23.3706 41.0469 22.8662C41.3907 22.4535 41.8186 22.1128 42.3043 21.8648C42.79 21.6169 43.3233 21.467 43.8714 21.4244C44.4195 21.3818 44.9709 21.4474 45.4917 21.6171C46.0126 21.7868 46.4918 22.057 46.9 22.4113C46.9447 22.0415 47.0872 21.6889 47.314 21.3871C47.5407 21.0853 47.844 20.8444 48.1951 20.6873C48.2582 21.0432 48.3982 21.3824 48.606 21.6831C48.8137 21.9839 49.0847 22.2395 49.4015 22.4334C49.7182 22.6274 50.0736 22.7555 50.4449 22.8094C50.8162 22.8633 51.1953 22.8419 51.5575 22.7465C51.7817 22.0282 50.4367 21.8845 49.9635 21.2859C49.4902 20.6873 49.9635 19.9211 50.6111 19.4422C52.1084 18.2127 53.9975 17.5115 55.9658 17.4549C57.2107 17.6132 58.477 17.4734 59.6521 17.0479C60.2747 16.6887 60.723 16.1141 61.3457 15.7549C62.0948 15.5174 62.8918 15.4544 63.6712 15.5709C64.4507 15.6875 65.1901 15.9803 65.8288 16.4253C67.8138 17.2488 69.411 18.7501 70.3119 20.6394C70.9844 22.5788 69.49 25.2127 67.3481 24.9732C66.826 24.8115 66.2751 24.7545 65.7292 24.8056C65.3657 24.9529 65.0581 25.2043 64.8486 25.5257C64.6391 25.847 64.5379 26.2227 64.5586 26.6014C64.5995 27.3451 64.4719 28.0885 64.1849 28.7803C63.8113 29.4507 62.6906 29.762 62.2672 29.1394C61.8447 28.6176 61.566 28.0016 61.4571 27.3486C61.3483 26.6957 61.4128 26.0268 61.6446 25.4042C61.8726 24.7804 61.9637 24.118 61.9123 23.4586C61.8608 22.7993 61.6679 22.1573 61.3457 21.5732C60.5238 20.4957 58.1826 20.831 58.3569 22.1479C58.3569 22.9141 59.3781 23.4887 59.3283 24.2789C59.2785 25.069 58.2822 25.5 57.4354 25.4521C56.6088 25.3458 55.7713 25.3458 54.9447 25.4521C54.1228 25.6436 53.4504 26.6732 54.0481 27.2479C55.0693 28.3493 57.7343 26.4577 58.2573 27.8225C58.4068 28.1817 58.2573 28.5648 58.2573 28.9479C58.2573 30.0972 59.8761 30.5281 61.0716 30.6718C62.2697 30.8999 63.51 30.8089 64.6581 30.4084C64.935 30.301 65.1869 30.1415 65.3988 29.9392C65.6106 29.7369 65.7782 29.496 65.8919 29.2306C66.0056 28.9652 66.0631 28.6806 66.0608 28.3936C66.0585 28.1066 65.9966 27.8228 65.8787 27.5591C66.048 27.4794 66.2323 27.4335 66.4206 27.4243C66.6089 27.415 66.7973 27.4425 66.9743 27.5052C67.1512 27.5678 67.313 27.6643 67.4501 27.7888C67.5871 27.9133 67.6964 28.0633 67.7714 28.2296C68.0248 28.9137 68.0682 29.6535 67.8961 30.3605C69.1912 30.0972 70.3866 31.1267 71.0591 32.1324C71.7316 33.138 72.5037 34.3591 73.749 34.7183C74.9944 35.0774 76.7129 34.7183 77.3854 35.676C78.0579 36.6338 75.7665 38.8605 76.6133 40.2493C77.1115 41.0394 78.307 41.0155 79.104 41.2549C79.6867 41.4728 80.2078 41.8194 80.6253 42.2667C81.0429 42.714 81.3452 43.2496 81.5077 43.83C81.6701 44.4104 81.6882 45.0193 81.5606 45.6077C81.4329 46.1961 81.1629 46.7473 80.7727 47.2169C79.8463 48.0659 78.6155 48.5395 77.3356 48.5395C76.0557 48.5395 74.8249 48.0659 73.8985 47.2169C72.8411 45.8705 71.9548 44.4076 71.2584 42.8591C70.9047 42.0668 70.2942 41.4056 69.5177 40.9741C68.7412 40.5426 67.8404 40.3639 66.9496 40.4648C66.2961 40.6908 65.7013 41.0502 65.2062 41.5183L62.7155 43.4817C62.1925 43.9127 61.6197 44.4394 61.6695 45.0859C61.7193 45.7324 62.1426 46.0197 62.3169 46.5225C62.84 47.9352 60.6981 49.3 59.3283 48.5098C59.0151 48.2881 58.7512 48.0082 58.5522 47.6869C58.3533 47.3655 58.2233 47.0091 58.1699 46.6387C58.1165 46.2682 58.1408 45.8913 58.2414 45.53C58.3419 45.1687 58.5166 44.8305 58.7553 44.5352C60.0256 42.8591 62.9397 42.1408 62.865 39.938C61.3706 38.7887 59.0543 39.938 58.1825 41.6141C57.3108 43.2901 57.3108 45.1577 56.5636 46.8338C55.8164 48.5098 53.8239 49.9943 52.1054 49.2281C52.5537 47.7676 52.9772 46.331 53.4255 44.8944C52.3545 44.1282 51.1092 46.3789 49.814 45.9958C49.017 45.7563 48.9173 44.6789 49.266 43.9605C49.7151 43.293 50.0828 42.5779 50.3619 41.8296C50.3679 41.4753 50.2921 41.1242 50.14 40.8016C49.9878 40.4789 49.763 40.1928 49.4819 39.9637C49.2007 39.7347 48.8702 39.5685 48.5141 39.4771C48.1581 39.3857 47.7854 39.3714 47.423 39.4352C46.6833 39.6037 46.013 39.981 45.4981 40.5186C44.9833 41.0562 44.6475 41.7296 44.5339 42.4521C44.4927 43.0273 44.3582 43.5929 44.1353 44.1282C43.5625 45.2535 42.1179 45.5887 40.8975 46.0676C39.6771 46.5465 38.4069 47.6958 38.93 48.8451C39.1541 49.3479 39.7269 49.8267 39.5277 50.3535C39.3284 50.8803 38.6311 51 38.6311 51.5028C38.6311 52.0056 38.9797 52.0535 39.3035 52.1732C40.1254 52.4845 41.022 52.6042 41.7941 52.9634C42.2047 53.1026 42.5622 53.3576 42.8199 53.695C43.0776 54.0324 43.2235 54.4366 43.2387 54.8549C43.2387 56.0281 41.6695 56.6028 40.9971 57.5605C40.3246 58.5183 40.4243 59.7155 40.0009 60.769C39.5147 61.7078 38.885 62.5713 38.1329 63.331C36.4254 66.1893 35.2376 69.3068 34.621 72.5493C34.1727 73.9619 33.3508 75.5422 31.8315 75.8056C30.9738 75.8733 30.113 75.7161 29.3409 75.3507C27.0781 74.6843 25.0123 73.5108 23.3136 71.9267C22.4891 71.1222 21.9869 70.0634 21.8957 68.9374C21.8046 67.8114 22.1303 66.6907 22.8154 65.7732C22.9063 65.6519 23.0214 65.5492 23.154 65.4711C23.2865 65.3929 23.4339 65.341 23.5875 65.3183C23.9985 65.3435 24.3947 65.476 24.7333 65.7014C25.3193 65.8984 25.9507 65.9355 26.5573 65.8088C27.164 65.682 27.7223 65.3962 28.1704 64.9831C29.0422 64.1555 29.7362 63.1711 30.2127 62.0859L32.0308 58.5662C31.6409 58.3535 31.1921 58.2623 30.746 58.3052C30.2999 58.3481 29.8786 58.5229 29.5402 58.8056C28.8679 59.4526 28.2593 60.158 27.7221 60.9126C25.6918 62.9865 22.9093 64.2297 19.9513 64.3845C19.202 64.419 18.4627 64.5644 17.7595 64.8155C15.5927 65.7732 14.9451 68.8141 12.6537 69.4845C11.9897 69.5808 11.3325 69.7167 10.686 69.8915C10.2556 70.1606 9.88757 70.5121 9.60474 70.9241C9.32192 71.336 9.13043 71.7996 9.04228 72.2859C8.69865 74.0505 8.21569 75.7875 7.59768 77.4817C7.28039 78.327 6.72198 79.0695 5.98645 79.6242C5.25091 80.1788 4.36795 80.5233 3.43835 80.6183C2.85478 80.6066 2.2793 80.4843 1.74503 80.2583C1.21078 80.0323 0.728256 79.7071 0.32505 79.3014C0.32505 77.6972 0.150681 76.069 0.150681 74.5126C0.225403 73.5788 0.225349 73.2436 0.250252 73.0042Z" fill="url(#paint7_linear)"/>
    <path d="M31.5805 103.652C32.7511 103.868 32.9753 104.514 33.5979 105.328C34.2206 106.142 35.6153 107.459 36.3625 108.513C37.6079 110.285 36.4871 113.062 38.131 114.57C38.5117 114.831 38.8776 115.11 39.2269 115.409C39.378 115.603 39.4875 115.825 39.5493 116.06C39.6111 116.296 39.6237 116.541 39.5867 116.781C39.5497 117.021 39.4636 117.252 39.3334 117.461C39.2033 117.669 39.0316 117.85 38.8283 117.994C38.3939 118.263 37.8881 118.407 37.3713 118.407C36.8545 118.407 36.3486 118.263 35.9142 117.994C35.0388 117.432 34.4092 116.58 34.1458 115.6C34.0291 114.904 33.7194 114.25 33.2492 113.708C32.3028 112.894 30.7586 113.493 29.5631 113.325C24.2081 112.751 26.4995 102.694 31.5805 103.652Z" fill="url(#paint8_linear)"/>
    <g opacity="0.2">
        <path opacity="0.2" d="M29.9613 89.0465C26.8729 86.5085 25.6526 80.786 29.4633 79.4691C30.9079 78.9662 32.5765 79.4691 33.9961 78.8465C34.8612 78.3707 35.6136 77.7268 36.2054 76.9559C36.7972 76.185 37.2153 75.304 37.4332 74.3691L42.7383 60.2184C43.8093 57.393 45.4283 54.0888 48.5665 53.6817C50.3619 53.7093 52.1424 54 53.8467 54.5437C59.9238 55.5972 70.1603 41.6141 74.7929 51.024C75.4405 48.462 79.7742 49.4198 81.2188 51.6944C82.6634 53.9691 82.9125 56.986 85.1291 58.5662C86.8228 59.7874 89.3134 59.8592 90.6832 61.3676C91.5329 62.5392 91.9774 63.9382 91.9535 65.3662C92.1776 68.0479 92.4268 70.7536 92.6509 73.4353C93.0676 75.5924 92.7985 77.8202 91.8788 79.8282C91.6242 80.3126 91.2658 80.7399 90.8275 81.0821C90.3892 81.4242 89.8806 81.6735 89.3351 81.8137C88.7897 81.9538 88.2196 81.9816 87.6622 81.8953C87.1048 81.809 86.5726 81.6104 86.1005 81.3127C85.4377 80.5726 84.8536 79.7704 84.357 78.9184C83.8237 78.278 83.1123 77.7963 82.3054 77.5293C81.4986 77.2623 80.6295 77.2209 79.7991 77.4099C78.4403 77.8909 77.2434 78.7186 76.3371 79.8043C68.4168 87.9212 65.5776 99.462 65.2289 110.524C65.3258 112.56 65.0389 114.596 64.382 116.534C63.0835 118.549 61.943 120.653 60.9699 122.831C60.8801 124.65 60.5965 126.455 60.1231 128.218C58.6536 131.259 53.747 131.379 51.0571 129.2C48.605 126.758 47.1315 123.56 46.8978 120.173C46.6759 116.822 45.7075 113.556 44.0584 110.596C42.6189 109.03 41.3347 107.339 40.2228 105.544C39.0272 102.862 39.8991 99.6775 38.8032 96.9479C37.3337 93.1648 33.0248 91.5606 29.9613 89.0465Z" fill="black"/>
    </g>
    <g opacity="0.2">
        <path opacity="0.2" d="M125.779 132.409C125.007 133.007 124.185 133.558 123.289 134.109L121.346 135.402C120.698 135.833 120.026 136.24 119.353 136.647L117.934 137.461L118.133 137.078C119.827 133.51 119.926 128.362 116.24 126.59C115.504 126.331 114.809 125.976 114.173 125.537C112.529 124.052 113.874 121.011 112.23 119.551C111.309 118.713 109.864 118.785 108.718 118.282C107.782 117.693 107.047 116.852 106.604 115.864C106.161 114.877 106.03 113.786 106.228 112.727C106.664 110.614 106.881 108.464 106.875 106.31C106.477 103.054 103.812 99.7494 105.356 96.7325C106.9 93.7156 112.056 94.0029 115.567 92.5184C120.549 90.4832 121.969 84.6889 125.181 80.5466C128.046 76.9072 134.745 72.8846 139.851 73.986C141.263 74.1601 142.568 74.7992 143.545 75.7947C144.521 76.7901 145.108 78.0802 145.206 79.4452H145.679C147.049 79.3015 148.643 79.2536 149.391 78.1522C150.138 77.0508 149.391 75.0395 150.312 73.8184C150.871 73.2513 151.529 72.7814 152.255 72.4297C152.927 71.9987 153.475 71.1367 153.077 70.4663C152.678 69.7959 151.881 69.772 151.458 69.2452C151.282 69.0395 151.185 68.7813 151.185 68.5149C151.185 68.2485 151.282 67.9903 151.458 67.7846C152.853 66.2043 154.422 69.4128 155.194 70.179C155.388 70.3831 155.596 70.5751 155.816 70.7536C155.828 70.8891 155.828 71.0253 155.816 71.1607C155.816 71.6156 155.816 72.0466 155.816 72.5015C155.816 72.9565 155.816 73.3874 155.816 73.8424V74.9198C155.816 75.279 155.816 75.6621 155.816 75.9973C155.829 76.1727 155.829 76.3487 155.816 76.5241C155.428 88.1767 152.103 99.5646 146.128 109.71C145.356 111.075 144.509 112.392 143.637 113.685C142.765 114.978 141.42 116.869 140.2 118.473C138.98 120.078 137.859 121.347 136.589 122.711C134.845 124.579 133.027 126.375 131.084 128.099C129.142 129.823 127.597 131.068 125.729 132.433" fill="black"/>
    </g>
    <g opacity="0.2">
        <path opacity="0.2" d="M151.032 52.3409C150.338 51.7482 149.434 51.435 148.506 51.4662C147.579 51.4974 146.699 51.8706 146.05 52.5085C145.397 53.6668 145.244 55.0262 145.627 56.2916C145.926 58.0155 146.2 59.7635 146.499 61.4874C146.649 61.9961 146.649 62.535 146.499 63.0437C145.951 64.1451 144.008 63.9296 143.335 63.0437C142.723 61.9689 142.563 60.7092 142.887 59.524C143.224 58.3488 143.224 57.1077 142.887 55.9325C141.667 53.1311 137.283 53.5381 134.743 51.7423C133.326 50.3868 132.23 48.7534 131.53 46.9536C131.158 46.0768 130.543 45.3145 129.753 44.749C128.963 44.1835 128.027 43.8364 127.047 43.7451C126.399 43.7451 125.726 44.0085 125.079 43.9846C124.616 43.9253 124.178 43.7491 123.809 43.474C123.44 43.1989 123.154 42.8347 122.979 42.4185C122.805 42.0023 122.748 41.5491 122.815 41.1049C122.882 40.6608 123.07 40.2416 123.36 39.8902C123.693 39.6543 123.987 39.3718 124.232 39.0522C124.365 38.723 124.376 38.3597 124.263 38.0237C124.149 37.6877 123.918 37.3998 123.609 37.2085C122.984 36.8417 122.274 36.6279 121.542 36.586L116.561 35.8198C114.718 35.5564 112.377 34.6466 112.626 32.9226C112.875 31.1987 115.116 30.7198 115.316 29.2114C115.354 28.8383 115.429 28.4695 115.54 28.11C116.038 27.1522 117.557 27.5353 118.528 28.11C118.665 27.782 118.875 27.487 119.144 27.2462C119.412 27.0054 119.733 26.8248 120.083 26.7172C120.433 26.6097 120.803 26.5779 121.168 26.6241C121.532 26.6703 121.881 26.7934 122.19 26.9846C123.186 27.7747 123.286 29.1395 123.634 30.2888C124.738 33.0302 126.609 35.4249 129.039 37.2085C129.726 37.9543 130.658 38.4526 131.679 38.6212C132.7 38.6212 133.771 37.6156 133.298 36.7776C132.825 35.9395 132.103 35.8437 132.177 35.1973C132.252 34.5508 133.796 34.4311 134.095 33.6409C133.522 31.2466 130.708 30.3607 128.566 29.1156C125.95 27.5994 123.955 25.2668 122.912 22.5071C122.814 22.292 122.763 22.0596 122.763 21.8247C122.763 21.5898 122.814 21.3575 122.912 21.1423C123.236 20.5677 124.058 20.4719 124.755 20.4719C126.424 20.4719 128.466 20.6635 129.089 22.124C129.227 22.9166 129.318 23.716 129.363 24.5184C129.936 26.9128 133.448 27.224 135.59 28.6846C136.374 29.3324 137.206 29.9246 138.08 30.4564C139.134 30.8188 140.249 30.9893 141.368 30.9593H141.966C142.646 31.8531 143.294 32.763 143.908 33.6888C144.556 34.6226 145.154 35.5564 145.727 36.5142C148.508 41.0586 150.779 45.8744 152.501 50.8804C153.099 52.6282 153.622 54.424 154.095 56.2198C154.568 58.0156 154.942 59.8592 155.266 61.7268C154.593 60.1916 154.116 58.5836 153.846 56.9381C153.447 55.1544 152.46 53.5422 151.032 52.3409Z" fill="black"/>
    </g>
    <g opacity="0.2">
        <path opacity="0.2" d="M85.7285 15.8986C84.9813 14.9648 85.2054 13.6479 84.7322 12.5944C83.9352 10.8225 81.4696 10.2 80.6227 8.45211C80.2741 7.78168 80.1993 6.9676 79.6264 6.48872C79.0536 6.00985 78.4309 5.9859 77.9328 5.6028C77.6908 5.35687 77.5103 5.06111 77.405 4.73803C77.2997 4.41494 77.2724 4.07303 77.3252 3.73829C77.378 3.40355 77.5096 3.0848 77.7098 2.80628C77.91 2.52776 78.1738 2.2968 78.4808 2.13096C81.5194 0.263353 87.1482 2.41828 89.7883 4.238C93.1755 6.63238 96.4881 9.38591 101.021 9.02675C102.237 8.78677 103.491 8.78677 104.707 9.02675C105.878 9.45774 106.6 11.1099 105.604 11.8042C105.031 12.2113 104.259 12.0916 103.611 12.3789C103.092 12.7282 102.732 13.2544 102.602 13.8504C102.472 14.4464 102.584 15.0675 102.914 15.5873C103.487 16.6648 104.508 17.5028 105.18 18.5324C105.836 19.548 106.125 20.743 106.002 21.9324C105.987 22.3441 105.886 22.7486 105.706 23.1227C105.527 23.4967 105.272 23.8327 104.956 24.1113C103.537 25.1648 101.42 24.255 100.224 22.9859C99.2459 21.5426 98.0449 20.2508 96.6624 19.155C95.8757 18.768 95.0378 18.4861 94.1718 18.3169L88.269 17C87.3191 16.9118 86.4261 16.5246 85.7285 15.8986Z" fill="black"/>
    </g>
    <g opacity="0.2">
        <path opacity="0.2" d="M0.250252 73.0042C0.250252 71.9507 0.250252 70.8972 0.250252 69.8436C0.250252 68.7901 0.399788 67.7366 0.499413 66.707C0.599037 65.6774 0.698669 65.031 0.823204 64.3127C0.947739 63.5943 1.0722 62.5648 1.22164 61.6788C1.68626 59.0878 2.29312 56.5223 3.03976 53.9929C3.33864 53.0352 3.63753 52.0774 3.98622 51.1197C4.33491 50.1619 4.65865 49.2281 5.03224 48.2943C5.41295 47.5844 5.83713 46.8968 6.3025 46.2352C10.6113 39.7225 16.8878 34.5986 21.6449 28.3732C23.214 26.338 24.4095 24.662 27.1741 24.2789C31.2338 23.6803 33.2761 25.8831 36.1652 22.2197C36.9373 21.2141 38.3072 20.3042 39.4529 20.9028C39.154 21.6929 38.8552 22.4591 38.5563 23.2972C38.5072 23.4614 38.5072 23.6357 38.5563 23.8C38.5563 24.3507 39.4779 24.4944 39.976 24.207C40.4129 23.8247 40.7755 23.3706 41.0469 22.8662C41.3907 22.4535 41.8186 22.1128 42.3043 21.8648C42.79 21.6169 43.3233 21.467 43.8714 21.4244C44.4195 21.3818 44.9709 21.4474 45.4917 21.6171C46.0126 21.7868 46.4918 22.057 46.9 22.4113C46.9447 22.0415 47.0872 21.6889 47.314 21.3871C47.5407 21.0853 47.844 20.8444 48.1951 20.6873C48.2582 21.0432 48.3982 21.3824 48.606 21.6831C48.8137 21.9839 49.0847 22.2395 49.4015 22.4334C49.7182 22.6274 50.0736 22.7555 50.4449 22.8094C50.8162 22.8633 51.1953 22.8419 51.5575 22.7465C51.7817 22.0282 50.4367 21.8845 49.9635 21.2859C49.4902 20.6873 49.9635 19.9211 50.6111 19.4422C52.1084 18.2127 53.9975 17.5115 55.9658 17.4549C57.2107 17.6132 58.477 17.4734 59.6521 17.0479C60.2747 16.6887 60.723 16.1141 61.3457 15.7549C62.0948 15.5174 62.8918 15.4544 63.6712 15.5709C64.4507 15.6875 65.1901 15.9803 65.8288 16.4253C67.8138 17.2488 69.411 18.7501 70.3119 20.6394C70.9844 22.5788 69.49 25.2127 67.3481 24.9732C66.826 24.8115 66.2751 24.7545 65.7292 24.8056C65.3657 24.9529 65.0581 25.2043 64.8486 25.5257C64.6391 25.847 64.5379 26.2227 64.5586 26.6014C64.5995 27.3451 64.4719 28.0885 64.1849 28.7803C63.8113 29.4507 62.6906 29.762 62.2672 29.1394C61.8447 28.6176 61.566 28.0016 61.4571 27.3486C61.3483 26.6957 61.4128 26.0268 61.6446 25.4042C61.8726 24.7804 61.9637 24.118 61.9123 23.4586C61.8608 22.7993 61.6679 22.1573 61.3457 21.5732C60.5238 20.4957 58.1826 20.831 58.3569 22.1479C58.3569 22.9141 59.3781 23.4887 59.3283 24.2789C59.2785 25.069 58.2822 25.5 57.4354 25.4521C56.6088 25.3458 55.7713 25.3458 54.9447 25.4521C54.1228 25.6436 53.4504 26.6732 54.0481 27.2479C55.0693 28.3493 57.7343 26.4577 58.2573 27.8225C58.4068 28.1817 58.2573 28.5648 58.2573 28.9479C58.2573 30.0972 59.8761 30.5281 61.0716 30.6718C62.2697 30.8999 63.51 30.8089 64.6581 30.4084C64.935 30.301 65.1869 30.1415 65.3988 29.9392C65.6106 29.7369 65.7782 29.496 65.8919 29.2306C66.0056 28.9652 66.0631 28.6806 66.0608 28.3936C66.0585 28.1066 65.9966 27.8228 65.8787 27.5591C66.048 27.4794 66.2323 27.4335 66.4206 27.4243C66.6089 27.415 66.7973 27.4425 66.9743 27.5052C67.1512 27.5678 67.313 27.6643 67.4501 27.7888C67.5871 27.9133 67.6964 28.0633 67.7714 28.2296C68.0248 28.9137 68.0682 29.6535 67.8961 30.3605C69.1912 30.0972 70.3866 31.1267 71.0591 32.1324C71.7316 33.138 72.5037 34.3591 73.749 34.7183C74.9944 35.0774 76.7129 34.7183 77.3854 35.676C78.0579 36.6338 75.7665 38.8605 76.6133 40.2493C77.1115 41.0394 78.307 41.0155 79.104 41.2549C79.6867 41.4728 80.2078 41.8194 80.6253 42.2667C81.0429 42.714 81.3452 43.2496 81.5077 43.83C81.6701 44.4104 81.6882 45.0193 81.5606 45.6077C81.4329 46.1961 81.1629 46.7473 80.7727 47.2169C79.8463 48.0659 78.6155 48.5395 77.3356 48.5395C76.0557 48.5395 74.8249 48.0659 73.8985 47.2169C72.8411 45.8705 71.9548 44.4076 71.2584 42.8591C70.9047 42.0668 70.2942 41.4056 69.5177 40.9741C68.7412 40.5426 67.8404 40.3639 66.9496 40.4648C66.2961 40.6908 65.7013 41.0502 65.2062 41.5183L62.7155 43.4817C62.1925 43.9127 61.6197 44.4394 61.6695 45.0859C61.7193 45.7324 62.1426 46.0197 62.3169 46.5225C62.84 47.9352 60.6981 49.3 59.3283 48.5098C59.0151 48.2881 58.7512 48.0082 58.5522 47.6869C58.3533 47.3655 58.2233 47.0091 58.1699 46.6387C58.1165 46.2682 58.1408 45.8913 58.2414 45.53C58.3419 45.1687 58.5166 44.8305 58.7553 44.5352C60.0256 42.8591 62.9397 42.1408 62.865 39.938C61.3706 38.7887 59.0543 39.938 58.1825 41.6141C57.3108 43.2901 57.3108 45.1577 56.5636 46.8338C55.8164 48.5098 53.8239 49.9943 52.1054 49.2281C52.5537 47.7676 52.9772 46.331 53.4255 44.8944C52.3545 44.1282 51.1092 46.3789 49.814 45.9958C49.017 45.7563 48.9173 44.6789 49.266 43.9605C49.7151 43.293 50.0828 42.5779 50.3619 41.8296C50.3679 41.4753 50.2921 41.1242 50.14 40.8016C49.9878 40.4789 49.763 40.1928 49.4819 39.9637C49.2007 39.7347 48.8702 39.5685 48.5141 39.4771C48.1581 39.3857 47.7854 39.3714 47.423 39.4352C46.6833 39.6037 46.013 39.981 45.4981 40.5186C44.9833 41.0562 44.6475 41.7296 44.5339 42.4521C44.4927 43.0273 44.3582 43.5929 44.1353 44.1282C43.5625 45.2535 42.1179 45.5887 40.8975 46.0676C39.6771 46.5465 38.4069 47.6958 38.93 48.8451C39.1541 49.3479 39.7269 49.8267 39.5277 50.3535C39.3284 50.8803 38.6311 51 38.6311 51.5028C38.6311 52.0056 38.9797 52.0535 39.3035 52.1732C40.1254 52.4845 41.022 52.6042 41.7941 52.9634C42.2047 53.1026 42.5622 53.3576 42.8199 53.695C43.0776 54.0324 43.2235 54.4366 43.2387 54.8549C43.2387 56.0281 41.6695 56.6028 40.9971 57.5605C40.3246 58.5183 40.4243 59.7155 40.0009 60.769C39.5147 61.7078 38.885 62.5713 38.1329 63.331C36.4254 66.1893 35.2376 69.3068 34.621 72.5493C34.1727 73.9619 33.3508 75.5422 31.8315 75.8056C30.9738 75.8733 30.113 75.7161 29.3409 75.3507C27.0781 74.6843 25.0123 73.5108 23.3136 71.9267C22.4891 71.1222 21.9869 70.0634 21.8957 68.9374C21.8046 67.8114 22.1303 66.6907 22.8154 65.7732C22.9063 65.6519 23.0214 65.5492 23.154 65.4711C23.2865 65.3929 23.4339 65.341 23.5875 65.3183C23.9985 65.3435 24.3947 65.476 24.7333 65.7014C25.3193 65.8984 25.9507 65.9355 26.5573 65.8088C27.164 65.682 27.7223 65.3962 28.1704 64.9831C29.0422 64.1555 29.7362 63.1711 30.2127 62.0859L32.0308 58.5662C31.6409 58.3535 31.1921 58.2623 30.746 58.3052C30.2999 58.3481 29.8786 58.5229 29.5402 58.8056C28.8679 59.4526 28.2593 60.158 27.7221 60.9126C25.6918 62.9865 22.9093 64.2297 19.9513 64.3845C19.202 64.419 18.4627 64.5644 17.7595 64.8155C15.5927 65.7732 14.9451 68.8141 12.6537 69.4845C11.9897 69.5808 11.3325 69.7167 10.686 69.8915C10.2556 70.1606 9.88757 70.5121 9.60474 70.9241C9.32192 71.336 9.13043 71.7996 9.04228 72.2859C8.69865 74.0505 8.21569 75.7875 7.59768 77.4817C7.28039 78.327 6.72198 79.0695 5.98645 79.6242C5.25091 80.1788 4.36795 80.5233 3.43835 80.6183C2.85478 80.6066 2.2793 80.4843 1.74503 80.2583C1.21078 80.0323 0.728256 79.7071 0.32505 79.3014C0.32505 77.6972 0.150681 76.069 0.150681 74.5126C0.225403 73.5788 0.225349 73.2436 0.250252 73.0042Z" fill="black"/>
    </g>
    <g opacity="0.2">
        <path opacity="0.2" d="M31.5805 103.652C32.7511 103.868 32.9753 104.514 33.5979 105.328C34.2206 106.142 35.6153 107.459 36.3625 108.513C37.6079 110.285 36.4871 113.062 38.131 114.57C38.5117 114.831 38.8776 115.11 39.2269 115.409C39.378 115.603 39.4875 115.825 39.5493 116.06C39.6111 116.296 39.6237 116.541 39.5867 116.781C39.5497 117.021 39.4636 117.252 39.3334 117.461C39.2033 117.669 39.0316 117.85 38.8283 117.994C38.3939 118.263 37.8881 118.407 37.3713 118.407C36.8545 118.407 36.3486 118.263 35.9142 117.994C35.0388 117.432 34.4092 116.58 34.1458 115.6C34.0291 114.904 33.7194 114.25 33.2492 113.708C32.3028 112.894 30.7586 113.493 29.5631 113.325C24.2081 112.751 26.4995 102.694 31.5805 103.652Z" fill="black"/>
    </g>
    <path d="M73.0756 153.335H83.0879V187.168H73.0756V153.335Z" fill="#263238"/>
    <path d="M78.0815 155.49C97.2498 155.725 115.948 149.783 131.195 138.613C146.442 127.442 157.36 111.686 162.209 93.8566C167.058 76.0269 165.558 57.1498 157.948 40.235C150.339 23.3201 137.058 9.34121 120.223 0.526764L119.252 0L113.449 7.75775L115.466 9.14649L119.999 3.13662C136.15 11.8578 148.818 25.5036 156.002 41.9182C163.185 58.3328 164.476 76.5805 159.668 93.7786C154.861 110.977 144.23 126.145 129.456 136.887C114.681 147.629 96.6041 153.332 78.0815 153.096C58.825 153.08 40.1424 146.792 25.0807 135.258L28.5924 131.906L26.8489 130.206L21.3696 135.426L22.4406 136.264C38.107 148.682 57.7763 155.479 78.0815 155.49Z" fill="#263238"/>
    <path d="M41.0201 187.192H118.006V192.914H41.0201V187.192Z" fill="#263238"/>
    <defs>
        <linearGradient id="paint0_linear" x1="77.708" y1="0.239502" x2="77.708" y2="148.545" gradientUnits="userSpaceOnUse">
            <stop stop-color="#4A27F3"/>
            <stop offset="1" stop-color="#339DFA"/>
        </linearGradient>
        <linearGradient id="paint1_linear" x1="140.825" y1="76.0692" x2="140.825" y2="132.504" gradientUnits="userSpaceOnUse">
            <stop stop-color="#4A27F3"/>
            <stop offset="1" stop-color="#339DFA"/>
        </linearGradient>
        <linearGradient id="paint2_linear" x1="59.9638" y1="47.7516" x2="59.9638" y2="130.688" gradientUnits="userSpaceOnUse">
            <stop stop-color="#4A27F3"/>
            <stop offset="1" stop-color="#339DFA"/>
        </linearGradient>
        <linearGradient id="paint3_linear" x1="150.5" y1="67.4963" x2="150.5" y2="82.5338" gradientUnits="userSpaceOnUse">
            <stop stop-color="#4A27F3"/>
            <stop offset="1" stop-color="#339DFA"/>
        </linearGradient>
        <linearGradient id="paint4_linear" x1="125.414" y1="73.8966" x2="125.414" y2="137.557" gradientUnits="userSpaceOnUse">
            <stop stop-color="#4A27F3"/>
            <stop offset="1" stop-color="#339DFA"/>
        </linearGradient>
        <linearGradient id="paint5_linear" x1="133.936" y1="20.4719" x2="133.936" y2="63.7911" gradientUnits="userSpaceOnUse">
            <stop stop-color="#4A27F3"/>
            <stop offset="1" stop-color="#339DFA"/>
        </linearGradient>
        <linearGradient id="paint6_linear" x1="91.6866" y1="1.41211" x2="91.6866" y2="24.5729" gradientUnits="userSpaceOnUse">
            <stop stop-color="#4A27F3"/>
            <stop offset="1" stop-color="#339DFA"/>
        </linearGradient>
        <linearGradient id="paint7_linear" x1="40.8976" y1="15.514" x2="40.8976" y2="80.6183" gradientUnits="userSpaceOnUse">
            <stop stop-color="#4A27F3"/>
            <stop offset="1" stop-color="#339DFA"/>
        </linearGradient>
        <linearGradient id="paint8_linear" x1="33.052" y1="103.588" x2="33.052" y2="118.407" gradientUnits="userSpaceOnUse">
            <stop stop-color="#4A27F3"/>
            <stop offset="1" stop-color="#339DFA"/>
        </linearGradient>
    </defs>
</svg>
