<svg width="44" height="55" viewBox="0 0 44 55" fill="none" xmlns="http://www.w3.org/2000/svg">
    <path d="M14.8262 14.5324C14.8403 14.5972 14.8387 14.6042 14.8052 14.612C14.776 14.6188 14.7704 14.6284 14.7773 14.66C14.7841 14.6916 14.7786 14.7012 14.7494 14.708C14.7202 14.7148 14.7146 14.7244 14.7215 14.756C14.7284 14.7876 14.7228 14.7972 14.6936 14.804C14.6644 14.8108 14.6589 14.8204 14.6657 14.852C14.6726 14.8836 14.667 14.8932 14.6378 14.9C14.6043 14.9078 14.6024 14.9133 14.6185 14.9876C14.6346 15.0618 14.6327 15.0673 14.5992 15.0751C14.57 15.0819 14.5644 15.0915 14.5713 15.1231C14.5781 15.1547 14.5726 15.1643 14.5434 15.1711C14.5142 15.1779 14.5087 15.1875 14.5155 15.2191C14.5224 15.2507 14.5168 15.2603 14.4876 15.2671C14.4585 15.2739 14.4529 15.2835 14.4597 15.3151C14.4666 15.3467 14.461 15.3563 14.4318 15.3631C14.4027 15.3699 14.3971 15.3795 14.4039 15.4111C14.4108 15.4428 14.4052 15.4524 14.3761 15.4591C14.3425 15.467 14.3406 15.4724 14.3567 15.5467C14.3728 15.621 14.371 15.6264 14.3374 15.6342C14.3082 15.641 14.3027 15.6506 14.3095 15.6822C14.3164 15.7138 14.3108 15.7234 14.2816 15.7302C14.2525 15.737 14.2469 15.7466 14.2537 15.7782C14.2606 15.8098 14.255 15.8194 14.2259 15.8262C14.1967 15.833 14.1911 15.8426 14.198 15.8742C14.2048 15.9059 14.1992 15.9155 14.1701 15.9222C14.1365 15.9301 14.1346 15.9355 14.1507 16.0098C14.1669 16.0841 14.165 16.0895 14.1314 16.0973C14.1023 16.1041 14.0967 16.1137 14.1035 16.1453C14.1104 16.1769 14.1048 16.1865 14.0756 16.1933C14.0494 16.1994 14.0409 16.2097 14.0457 16.2318C14.0502 16.2524 14.0412 16.2678 14.0215 16.2757C14.0003 16.2839 13.9903 16.3012 13.9921 16.324C13.9944 16.3484 13.9854 16.3638 13.9665 16.3682C13.9432 16.3736 13.9412 16.3857 13.9559 16.4537C13.972 16.528 13.9701 16.5334 13.9366 16.5412C13.9074 16.548 13.9018 16.5576 13.9087 16.5892C13.9156 16.6208 13.91 16.6304 13.8808 16.6372C13.8516 16.644 13.8461 16.6536 13.8529 16.6852C13.8598 16.7168 13.8542 16.7264 13.825 16.7332C13.7959 16.74 13.7903 16.7496 13.7971 16.7812C13.804 16.8129 13.7984 16.8225 13.7693 16.8292C13.7401 16.836 13.7345 16.8456 13.7414 16.8773C13.7482 16.9089 13.7426 16.9185 13.7135 16.9253C13.6799 16.9331 13.678 16.9385 13.6941 17.0128C13.7103 17.0871 13.7084 17.0925 13.6748 17.1003C13.6457 17.1071 13.6401 17.1167 13.6469 17.1483C13.6538 17.1799 13.6482 17.1895 13.619 17.1963C13.5899 17.2031 13.5843 17.2127 13.5912 17.2443C13.598 17.276 13.5924 17.2856 13.5633 17.2924C13.5341 17.2991 13.5285 17.3087 13.535 17.3388C13.5412 17.3672 13.5348 17.3803 13.5125 17.3905C13.4844 17.402 13.4824 17.4141 13.4918 17.4784C13.5021 17.5474 13.5009 17.5559 13.4674 17.5638C13.4397 17.5702 13.4341 17.5798 13.4409 17.6114C13.4478 17.643 13.4422 17.6526 13.4131 17.6594C13.3839 17.6662 13.3783 17.6758 13.3852 17.7074C13.392 17.7391 13.3864 17.7487 13.3573 17.7555C13.3281 17.7622 13.3225 17.7718 13.3294 17.8035C13.3362 17.8351 13.3307 17.8447 13.3015 17.8515C13.268 17.8593 13.2664 17.8663 13.2805 17.9311C13.2945 17.9959 13.293 18.0029 13.2594 18.0107C13.2303 18.0175 13.2247 18.0271 13.2315 18.0587C13.2384 18.0903 13.2328 18.0999 13.2036 18.1067C13.1745 18.1135 13.1689 18.1231 13.1754 18.1532C13.1816 18.1816 13.1752 18.1947 13.1529 18.2049C13.1317 18.2131 13.1217 18.2304 13.1236 18.2532C13.1255 18.276 13.1154 18.2933 13.0957 18.3012C13.0759 18.3092 13.0659 18.3264 13.0678 18.3493C13.0697 18.3721 13.0596 18.3893 13.0399 18.3973C13.0132 18.4085 13.0112 18.4205 13.0206 18.4848C13.0299 18.549 13.0283 18.5627 13.0035 18.5685C12.9831 18.5732 12.9782 18.586 12.9843 18.6144C12.9912 18.6461 12.9856 18.6557 12.9565 18.6625C12.9273 18.6692 12.9217 18.6788 12.9286 18.7105C12.9354 18.7421 12.9298 18.7517 12.9007 18.7585C12.8715 18.7653 12.8659 18.7749 12.8728 18.8065C12.8796 18.8381 12.8741 18.8477 12.8449 18.8545C12.8114 18.8623 12.8095 18.8677 12.8256 18.942C12.8417 19.0163 12.8398 19.0217 12.8062 19.0295C12.7771 19.0363 12.7715 19.0459 12.7784 19.0775C12.7852 19.1092 12.7796 19.1188 12.7505 19.1256C12.7213 19.1323 12.7157 19.1419 12.7226 19.1736C12.7294 19.2052 12.7239 19.2148 12.6947 19.2216C12.6655 19.2284 12.6599 19.238 12.6668 19.2696C12.6736 19.3012 12.6681 19.3108 12.6389 19.3176C12.6054 19.3254 12.6035 19.3308 12.6196 19.4051C12.6357 19.4794 12.6338 19.4848 12.6003 19.4926C12.5711 19.4994 12.5655 19.509 12.5724 19.5406C12.5792 19.5723 12.5736 19.5819 12.5445 19.5887C12.5153 19.5954 12.5097 19.6051 12.5166 19.6367C12.5234 19.6683 12.5179 19.6779 12.4887 19.6847C12.4624 19.6908 12.454 19.7011 12.4591 19.7248C12.4642 19.7485 12.4557 19.7588 12.4295 19.7649C12.4003 19.7717 12.3947 19.7813 12.4016 19.8129C12.4085 19.8445 12.4029 19.8541 12.3723 19.8612C12.3518 19.866 12.3401 19.8754 12.3476 19.8819C12.3541 19.8904 12.3616 19.9252 12.3633 19.9613C12.3665 20.0187 12.3628 20.0295 12.3336 20.0363C12.3059 20.0427 12.3003 20.0523 12.3072 20.084C12.314 20.1156 12.3084 20.1252 12.2793 20.132C12.2501 20.1388 12.2445 20.1484 12.2514 20.18C12.2582 20.2116 12.2527 20.2212 12.2235 20.228C12.1943 20.2348 12.1888 20.2444 12.1953 20.2744C12.2014 20.3029 12.1951 20.316 12.1728 20.3261C12.1446 20.3377 12.1427 20.3498 12.152 20.414C12.1624 20.483 12.1612 20.4916 12.1276 20.4994C12.0999 20.5058 12.0943 20.5154 12.1012 20.5471C12.108 20.5787 12.1025 20.5883 12.0733 20.5951C12.0441 20.6019 12.0386 20.6115 12.0454 20.6431C12.0516 20.6715 12.0467 20.6843 12.0248 20.6894C12.0029 20.6945 11.998 20.7072 12.0042 20.7357C12.0111 20.7673 12.0055 20.7769 11.9763 20.7837C11.9428 20.7915 11.9409 20.7969 11.957 20.8712C11.9731 20.9455 11.9712 20.951 11.9377 20.9588C11.9085 20.9656 11.9029 20.9752 11.9098 21.0068C11.9166 21.0384 11.9111 21.048 11.8819 21.0548C11.8527 21.0616 11.8471 21.0712 11.854 21.1028C11.8609 21.1344 11.8553 21.144 11.8261 21.1508C11.7969 21.1576 11.7914 21.1672 11.7982 21.1988C11.8051 21.2304 11.7995 21.24 11.7703 21.2468C11.7412 21.2536 11.7356 21.2632 11.7424 21.2948C11.7493 21.3264 11.7437 21.336 11.7145 21.3428C11.681 21.3506 11.6795 21.3576 11.6935 21.4224C11.7076 21.4873 11.706 21.4943 11.6725 21.5021C11.6433 21.5089 11.6377 21.5185 11.6446 21.5501C11.6514 21.5817 11.6459 21.5913 11.6167 21.5981C11.5875 21.6049 11.5819 21.6145 11.5888 21.6461C11.5957 21.6777 11.5901 21.6873 11.5609 21.6941C11.5317 21.7009 11.5262 21.7105 11.533 21.7421C11.5399 21.7737 11.5343 21.7833 11.5051 21.7901C11.4716 21.7979 11.4697 21.8034 11.4858 21.8776C11.5019 21.9519 11.5 21.9574 11.4665 21.9652C11.4373 21.972 11.4317 21.9816 11.4386 22.0132C11.4455 22.0448 11.4399 22.0544 11.4107 22.0612C11.3801 22.0683 11.376 22.0776 11.3845 22.1171L11.3948 22.1645L11.5042 22.1391C11.6106 22.1143 11.6139 22.1152 11.6221 22.1531L11.6307 22.1926L11.7765 22.1587L11.9224 22.1247L11.9309 22.1642L11.9395 22.2038L12.1218 22.1613L12.3041 22.1189L12.3126 22.1584L12.3212 22.1979L12.4948 22.1575C12.6639 22.1181 12.6701 22.1183 12.6817 22.1505C12.6936 22.1843 12.6998 22.1845 12.8743 22.1488L13.0533 22.1121L13.0615 22.1501C13.0701 22.1896 13.0701 22.1896 13.2232 22.1539C13.3632 22.1213 13.377 22.1215 13.3828 22.1483C13.3914 22.1878 13.4445 22.1854 13.6428 22.1393L13.8018 22.1022L13.8172 22.1734C13.8302 22.2335 13.8282 22.2455 13.8035 22.2513C13.7816 22.2564 13.7767 22.2692 13.7829 22.2976C13.7897 22.3292 13.7841 22.3388 13.755 22.3456C13.7258 22.3524 13.7202 22.362 13.7271 22.3936C13.7339 22.4253 13.7283 22.4349 13.6992 22.4416C13.6656 22.4495 13.6641 22.4565 13.6781 22.5213C13.6922 22.5861 13.6906 22.5931 13.6571 22.6009C13.6279 22.6077 13.6224 22.6173 13.6292 22.6489C13.6361 22.6805 13.6305 22.6901 13.6013 22.6969C13.5678 22.7047 13.5659 22.7101 13.582 22.7844C13.5981 22.8587 13.5962 22.8642 13.5627 22.872C13.5335 22.8788 13.5279 22.8884 13.5348 22.92C13.5416 22.9516 13.5361 22.9612 13.5069 22.968C13.4734 22.9758 13.4715 22.9812 13.4876 23.0555C13.5037 23.1298 13.5018 23.1352 13.4683 23.143C13.4391 23.1498 13.4335 23.1594 13.4404 23.191C13.4472 23.2227 13.4416 23.2323 13.4125 23.239C13.3789 23.2469 13.377 23.2523 13.3932 23.3266C13.4093 23.4009 13.4074 23.4063 13.3738 23.4141C13.3403 23.4219 13.3384 23.4273 13.3545 23.5016C13.3706 23.5759 13.3687 23.5813 13.3352 23.5892C13.306 23.5959 13.3004 23.6055 13.3073 23.6372C13.3135 23.6656 13.3086 23.6784 13.2882 23.6831C13.2663 23.6882 13.2624 23.7057 13.2674 23.771C13.2737 23.8426 13.2699 23.8534 13.2393 23.8606C13.2072 23.868 13.2057 23.875 13.2214 23.9478C13.2375 24.022 13.2357 24.0275 13.2021 24.0353C13.1686 24.0431 13.1667 24.0485 13.1828 24.1228C13.1989 24.1971 13.197 24.2025 13.1635 24.2103C13.1299 24.2181 13.1284 24.2251 13.1424 24.29C13.1565 24.3548 13.1549 24.3618 13.1214 24.3696C13.0879 24.3774 13.086 24.3828 13.1017 24.4555C13.1168 24.5251 13.1145 24.5356 13.0878 24.5468C13.0582 24.5587 13.0574 24.5688 13.0756 24.6742C13.0952 24.7858 13.0948 24.7909 13.0612 24.7987C13.0277 24.8065 13.0262 24.8135 13.0419 24.8863C13.058 24.9605 13.0561 24.966 13.0226 24.9738C12.9876 24.9819 12.9868 24.9854 13.0118 25.1008C13.0351 25.2083 13.0346 25.2201 13.0084 25.2262C12.9836 25.2319 12.9816 25.244 12.9963 25.312L13.0135 25.391L12.7947 25.442L12.576 25.4929L12.5845 25.5324C12.5924 25.5688 12.5887 25.573 12.5202 25.5889C12.4517 25.6049 12.448 25.6091 12.4559 25.6454C12.4627 25.677 12.4571 25.6866 12.428 25.6934C12.3988 25.7002 12.3932 25.7098 12.4001 25.7414C12.4069 25.7731 12.4013 25.7827 12.3722 25.7894C12.343 25.7962 12.3374 25.8058 12.3443 25.8375C12.3511 25.8691 12.3456 25.8787 12.3164 25.8855C12.2872 25.8923 12.2817 25.9019 12.2885 25.9335C12.2954 25.9651 12.2898 25.9747 12.2606 25.9815C12.2315 25.9883 12.2259 25.9979 12.2331 26.0311C12.241 26.0674 12.2376 26.0732 12.2042 26.0743C12.1674 26.0746 12.1667 26.0781 12.1841 26.1587C12.1999 26.2314 12.1983 26.2451 12.1749 26.2505C12.1429 26.258 12.1417 26.3164 12.1729 26.4602C12.1942 26.5582 12.1934 26.5617 12.1584 26.5699L12.1219 26.5784L12.1562 26.7364L12.1905 26.8945L12.154 26.903L12.1176 26.9115L12.1604 27.1091L12.2032 27.3067L12.1668 27.3152L12.1303 27.3237L12.1797 27.5513C12.2283 27.7758 12.2294 27.7805 12.1968 27.7931C12.1658 27.8053 12.1661 27.8068 12.2289 28.1177C12.2911 28.4187 12.2924 28.4317 12.2647 28.4382C12.2355 28.4449 12.2386 28.4592 12.4652 29.5041C12.6924 30.5521 12.6948 30.5632 12.7239 30.5564C12.7516 30.5499 12.7555 30.5606 12.8216 30.8657L12.8902 31.1819L12.9266 31.1734L12.9631 31.1649L13.0083 31.3736C13.0659 31.6391 13.0884 31.7003 13.1248 31.6918C13.1511 31.6857 13.156 31.7012 13.1954 31.883L13.2382 32.0806L13.2747 32.0721C13.3067 32.0646 13.3125 32.0699 13.3238 32.1221C13.331 32.1553 13.347 32.208 13.3586 32.2402L13.3815 32.2963L14.3921 32.061L15.4042 31.8253L15.3956 31.7858C15.3888 31.7542 15.3798 31.748 15.3506 31.7548C15.3141 31.7633 15.3138 31.7617 15.2867 31.6368C15.2596 31.5119 15.2593 31.5104 15.2228 31.5188L15.1864 31.5273L15.1494 31.3566C15.1007 31.1321 15.0768 31.0713 15.0418 31.0794C15.017 31.0852 15.011 31.0717 14.9798 30.9278L14.9455 30.7697L14.9091 30.7782L14.8726 30.7867L14.8212 30.5496L14.7698 30.3125L14.7334 30.321L14.6969 30.3295L14.4279 29.0886L14.1588 27.8477L14.1953 27.8392L14.2318 27.8307L14.1804 27.5936L14.129 27.3565L14.1654 27.348L14.2019 27.3395L14.159 27.1419L14.1162 26.9443L14.1526 26.9358L14.1891 26.9273L14.1483 26.7392C14.1086 26.5558 14.1087 26.5492 14.1397 26.537C14.1708 26.5247 14.1704 26.5232 14.1056 26.2028L14.0393 25.8828L14.0028 25.8913C13.9693 25.8991 13.9653 25.8951 13.9492 25.8208C13.9331 25.7465 13.9292 25.7424 13.8956 25.7502C13.8621 25.758 13.8578 25.7524 13.8437 25.6876C13.8297 25.6228 13.8254 25.6171 13.7919 25.6249C13.7627 25.6317 13.7537 25.6255 13.7468 25.5939C13.74 25.5623 13.731 25.5561 13.7018 25.5629C13.6726 25.5697 13.6636 25.5635 13.6568 25.5319C13.6499 25.5002 13.6409 25.494 13.6118 25.5008C13.5768 25.509 13.5746 25.5061 13.5513 25.3987C13.528 25.2912 13.5288 25.2877 13.5638 25.2795C13.5988 25.2714 13.5995 25.2679 13.5745 25.1525C13.5495 25.0371 13.5503 25.0336 13.5853 25.0254C13.6188 25.0176 13.6207 25.0122 13.6046 24.9379C13.5885 24.8636 13.5904 24.8582 13.6239 24.8504C13.6575 24.8426 13.6594 24.8371 13.6433 24.7628C13.6271 24.6885 13.629 24.6831 13.6626 24.6753C13.6976 24.6672 13.6984 24.6637 13.6733 24.5483C13.6483 24.4329 13.6491 24.4294 13.6841 24.4212C13.7133 24.4144 13.7188 24.4048 13.7123 24.3748C13.7062 24.3463 13.7125 24.3332 13.7363 24.3227C13.7629 24.3115 13.7649 24.2994 13.7552 24.2336C13.7452 24.1662 13.7464 24.1576 13.78 24.1498C13.8121 24.1423 13.8136 24.1353 13.7978 24.0626C13.7817 23.9883 13.7836 23.9829 13.8172 23.9751C13.8507 23.9673 13.8522 23.9603 13.8385 23.8971C13.8252 23.8354 13.8275 23.8249 13.8556 23.8134C13.8823 23.8022 13.8843 23.7901 13.875 23.7258C13.866 23.6632 13.8676 23.6495 13.8943 23.6383C13.921 23.6271 13.9229 23.615 13.9133 23.5492C13.9043 23.4865 13.9059 23.4729 13.9307 23.4671C13.9511 23.4623 13.956 23.4496 13.9498 23.4211C13.943 23.3895 13.9486 23.3799 13.9777 23.3731C14.0113 23.3653 14.0132 23.3599 13.997 23.2856C13.9809 23.2113 13.9828 23.2059 14.0164 23.1981C14.0455 23.1913 14.0511 23.1817 14.0443 23.1501C14.0374 23.1184 14.043 23.1088 14.0721 23.1021C14.1057 23.0942 14.1076 23.0888 14.0915 23.0145C14.0754 22.9402 14.0773 22.9348 14.1108 22.927C14.14 22.9202 14.1455 22.9106 14.1387 22.879C14.1318 22.8474 14.1374 22.8378 14.1666 22.831C14.2001 22.8232 14.202 22.8178 14.1859 22.7435C14.1698 22.6692 14.1717 22.6637 14.2052 22.6559C14.2344 22.6491 14.24 22.6395 14.2331 22.6079C14.2269 22.5795 14.2318 22.5667 14.2537 22.5616C14.2785 22.5558 14.2853 22.5659 14.3 22.6339C14.3161 22.7082 14.3201 22.7122 14.3536 22.7044C14.3886 22.6963 14.3907 22.6991 14.4158 22.8145C14.4408 22.9299 14.4429 22.9327 14.4779 22.9245C14.5115 22.9167 14.5154 22.9208 14.5315 22.9951C14.5476 23.0694 14.5516 23.0734 14.5851 23.0656C14.6187 23.0578 14.6226 23.0619 14.6387 23.1362L14.6558 23.2152L14.736 23.1966L14.8163 23.1779L14.7991 23.0988C14.783 23.0245 14.7849 23.0191 14.8184 23.0113C14.8476 23.0045 14.8532 22.9949 14.8463 22.9633C14.8395 22.9317 14.8451 22.9221 14.8742 22.9153C14.9078 22.9075 14.9097 22.9021 14.8935 22.8278C14.8774 22.7535 14.8793 22.7481 14.9129 22.7402C14.942 22.7334 14.9476 22.7238 14.9408 22.6922C14.9339 22.6606 14.9395 22.651 14.9687 22.6442C14.9978 22.6374 15.0034 22.6278 14.9965 22.5962C14.9897 22.5646 14.9953 22.555 15.0244 22.5482C15.0536 22.5414 15.0592 22.5318 15.0523 22.5002C15.0455 22.4686 15.051 22.459 15.0788 22.4525C15.1065 22.4461 15.1095 22.4387 15.0964 22.4069C15.0831 22.3735 15.0864 22.3677 15.1225 22.3577C15.1572 22.3479 15.1583 22.346 15.1307 22.3458C15.0849 22.3465 15.0693 22.2887 15.1116 22.2788C15.1334 22.2737 15.1383 22.261 15.1322 22.2325C15.1253 22.2009 15.1309 22.1913 15.1601 22.1845C15.1892 22.1777 15.1948 22.1681 15.1879 22.1365C15.1811 22.1049 15.1867 22.0953 15.2158 22.0885C15.245 22.0817 15.2506 22.0721 15.2437 22.0405C15.2369 22.0089 15.2425 21.9993 15.2716 21.9925C15.2979 21.9864 15.3064 21.9761 15.3012 21.9524C15.2961 21.9287 15.3046 21.9184 15.3308 21.9123C15.36 21.9055 15.3656 21.8959 15.3587 21.8643C15.3519 21.8327 15.3574 21.8231 15.3866 21.8163C15.4158 21.8095 15.4214 21.7999 15.4145 21.7683C15.4076 21.7366 15.4132 21.727 15.4424 21.7202C15.4716 21.7135 15.4771 21.7039 15.4703 21.6722C15.4634 21.6406 15.469 21.631 15.4982 21.6242C15.5273 21.6174 15.5329 21.6078 15.5261 21.5762C15.5192 21.5446 15.5248 21.535 15.5539 21.5282C15.5831 21.5214 15.5887 21.5118 15.5818 21.4802C15.574 21.4438 15.5776 21.4397 15.6462 21.4237C15.7147 21.4077 15.7184 21.4036 15.7105 21.3672C15.7037 21.3356 15.7093 21.326 15.7384 21.3192C15.7676 21.3124 15.7732 21.3028 15.7663 21.2712C15.7595 21.2396 15.765 21.23 15.7942 21.2232C15.8234 21.2164 15.829 21.2068 15.8221 21.1752C15.8152 21.1436 15.8208 21.134 15.85 21.1272C15.8792 21.1204 15.8847 21.1108 15.8779 21.0792C15.871 21.0475 15.8766 21.0379 15.9058 21.0312C15.9349 21.0244 15.9405 21.0148 15.9337 20.9831C15.9258 20.9468 15.9295 20.9426 15.998 20.9266C16.0665 20.9107 16.0702 20.9065 16.0624 20.8702C16.0555 20.8385 16.0611 20.8289 16.0902 20.8221C16.1194 20.8154 16.125 20.8058 16.1181 20.7741C16.1113 20.7425 16.1169 20.7329 16.146 20.7261C16.1752 20.7193 16.1808 20.7097 16.1739 20.6781C16.166 20.6418 16.1712 20.6372 16.231 20.6233C16.2908 20.6094 16.2959 20.6049 16.288 20.5685C16.2812 20.5369 16.2868 20.5273 16.3159 20.5205C16.3451 20.5137 16.3507 20.5041 16.3438 20.4725C16.3359 20.4361 16.3396 20.432 16.4082 20.416C16.4767 20.4 16.4804 20.3959 16.4725 20.3595C16.4646 20.3232 16.4683 20.319 16.5369 20.303C16.6054 20.2871 16.6091 20.2829 16.6012 20.2465C16.5944 20.2149 16.5999 20.2053 16.6291 20.1985C16.6553 20.1924 16.6638 20.1821 16.6587 20.1584C16.6529 20.1315 16.6621 20.1244 16.7248 20.1098C16.7918 20.0942 16.797 20.0897 16.7895 20.0549C16.7826 20.0233 16.79 20.0149 16.839 19.9936C16.8697 19.9798 16.9018 19.9723 16.9115 19.975C16.9202 19.9796 16.923 19.964 16.9182 19.9419C16.9099 19.904 16.9136 19.8998 16.9822 19.8838C17.0492 19.8682 17.0544 19.8637 17.0468 19.8289C17.039 19.7926 17.0456 19.7877 17.1073 19.7683C17.1646 19.75 17.1737 19.7429 17.1716 19.7119C17.1695 19.6808 17.1801 19.6733 17.2359 19.6554C17.2933 19.637 17.3024 19.6299 17.3 19.5973C17.2978 19.5662 17.3055 19.5594 17.3624 19.5462C17.4207 19.5326 17.4259 19.5281 17.418 19.4917C17.4101 19.4554 17.4138 19.4512 17.4824 19.4352C17.5509 19.4193 17.5546 19.4151 17.5467 19.3787C17.5385 19.3408 17.5411 19.3385 17.6475 19.3138C17.754 19.289 17.7565 19.2867 17.7483 19.2488C17.7404 19.2124 17.7441 19.2082 17.8127 19.1923C17.8812 19.1763 17.8849 19.1721 17.877 19.1358C17.8688 19.0978 17.8714 19.0956 17.9778 19.0708C18.0843 19.046 18.0869 19.0437 18.0786 19.0058C18.0704 18.9679 18.073 18.9656 18.1794 18.9408C18.2859 18.916 18.2885 18.9138 18.2802 18.8758L18.2717 18.8363L18.4175 18.8024L18.5633 18.7684L18.5548 18.7289C18.5466 18.6909 18.5491 18.6887 18.6483 18.6656C18.7475 18.6425 18.75 18.6402 18.7418 18.6023L18.7332 18.5628L18.8995 18.5241C19.1051 18.4762 19.1541 18.4548 19.1455 18.4153C19.1397 18.3884 19.1521 18.3822 19.2761 18.3534C19.4526 18.3123 19.5012 18.2893 19.493 18.2514C19.4868 18.2229 19.501 18.218 19.7052 18.1704L19.924 18.1195L19.9154 18.08L19.9068 18.0404L20.9568 17.796C21.9733 17.5593 22.0072 17.5531 22.0133 17.5815C22.0212 17.6179 22.075 17.6186 22.215 17.586L22.3156 17.5626L22.2899 17.444C22.2649 17.3287 22.2627 17.3258 22.2277 17.334C22.1927 17.3421 22.1906 17.3393 22.1656 17.2239C22.1406 17.1085 22.1384 17.1057 22.1034 17.1138C22.0684 17.122 22.0663 17.1192 22.0413 17.0038C22.0162 16.8884 22.0141 16.8856 21.9791 16.8937C21.9456 16.9015 21.9413 16.8959 21.9272 16.8311C21.9132 16.7663 21.9147 16.7592 21.9483 16.7514C21.9818 16.7436 21.9837 16.7382 21.9676 16.6639C21.9515 16.5896 21.9534 16.5842 21.9869 16.5764C22.0161 16.5696 22.0216 16.56 22.0148 16.5284C22.0079 16.4968 22.0135 16.4872 22.0427 16.4804C22.0719 16.4736 22.0774 16.464 22.0706 16.4324C22.0637 16.4007 22.0693 16.3911 22.0985 16.3844C22.1276 16.3776 22.1332 16.368 22.1264 16.3363C22.1195 16.3047 22.1251 16.2951 22.1542 16.2883C22.1878 16.2805 22.1897 16.2751 22.1736 16.2008C22.1575 16.1265 22.1594 16.1211 22.1929 16.1133C22.2221 16.1065 22.2276 16.0969 22.2208 16.0653C22.2139 16.0337 22.2195 16.0241 22.2487 16.0173C22.2778 16.0105 22.2834 16.0009 22.2766 15.9693C22.2704 15.9408 22.2753 15.928 22.2972 15.9229C22.319 15.9179 22.3239 15.9051 22.3178 15.8766C22.3109 15.845 22.3165 15.8354 22.3457 15.8286C22.3748 15.8218 22.3804 15.8122 22.3735 15.7806C22.3667 15.749 22.3723 15.7394 22.4014 15.7326C22.435 15.7248 22.4365 15.7178 22.4225 15.653C22.4084 15.5882 22.41 15.5812 22.4435 15.5734C22.4727 15.5666 22.4782 15.557 22.4714 15.5254C22.4645 15.4937 22.4701 15.4841 22.4993 15.4774C22.5285 15.4706 22.534 15.461 22.5272 15.4293C22.5203 15.3977 22.5259 15.3881 22.5551 15.3813C22.5842 15.3745 22.5898 15.3649 22.5833 15.3349C22.5771 15.3065 22.5835 15.2934 22.6072 15.2828C22.6339 15.2716 22.6359 15.2596 22.6262 15.1937C22.6162 15.1263 22.6174 15.1177 22.651 15.1099C22.6787 15.1035 22.6842 15.0939 22.6774 15.0623C22.6705 15.0306 22.6761 15.021 22.7053 15.0142C22.7344 15.0075 22.74 14.9979 22.7332 14.9662C22.7263 14.9346 22.7319 14.925 22.7611 14.9182C22.7902 14.9114 22.7958 14.9018 22.7889 14.8702C22.7821 14.8386 22.7877 14.829 22.8168 14.8222C22.8504 14.8144 22.8523 14.809 22.8362 14.7347C22.8201 14.6604 22.8219 14.655 22.8555 14.6472C22.8846 14.6404 22.8902 14.6308 22.8834 14.5992C22.8765 14.5675 22.8821 14.5579 22.9113 14.5511C22.9404 14.5444 22.946 14.5348 22.9392 14.5031C22.9323 14.4715 22.9379 14.4619 22.967 14.4551C22.9962 14.4483 23.0018 14.4387 22.9949 14.4071C22.9881 14.3755 22.9937 14.3659 23.0243 14.3588C23.0593 14.3506 23.0601 14.3471 23.0382 14.2675L23.016 14.1863L22.8371 14.223C22.6687 14.2589 22.6563 14.2585 22.6501 14.23C22.6436 14.2 22.6331 14.2008 22.4975 14.2324L22.3516 14.2663L22.3431 14.2268L22.3345 14.1873L22.123 14.2365L21.9116 14.2857L21.903 14.2462L21.8944 14.2067L21.7122 14.2492L21.5299 14.2916L21.5213 14.2521L21.5127 14.2126L21.3669 14.2465L21.2211 14.2805L21.2125 14.241L21.2039 14.2014L20.9852 14.2524L20.7664 14.3033L20.7579 14.2638C20.7493 14.2243 20.7493 14.2243 20.6108 14.2565C20.4722 14.2888 20.4722 14.2888 20.4636 14.2493L20.4551 14.2097L20.2728 14.2522L20.0905 14.2946L20.0819 14.2551L20.0734 14.2156L19.8911 14.258L19.7088 14.3005L19.7002 14.261L19.6916 14.2214L19.5094 14.2639L19.3271 14.3063L19.3185 14.2668L19.3099 14.2273L19.1641 14.2613C19.0314 14.2922 19.0176 14.292 19.0118 14.2652C19.0035 14.2272 18.9501 14.2281 18.7809 14.2674C18.6643 14.2946 18.6504 14.2945 18.6446 14.2676C18.6364 14.2297 18.5757 14.2322 18.3613 14.2821L18.1965 14.3205L18.1879 14.281L18.1794 14.2415L18.0335 14.2754L17.8877 14.3094L17.8791 14.2699L17.8706 14.2303L17.6956 14.2711L17.5206 14.3118L17.512 14.2723L17.5034 14.2328L17.2847 14.2837L17.0659 14.3347L17.0574 14.2951L17.0488 14.2556L16.903 14.2896L16.7571 14.3235L16.7486 14.284L16.74 14.2445L16.5942 14.2784C16.4615 14.3093 16.4477 14.3092 16.4418 14.2824C16.4336 14.2444 16.3729 14.2469 16.1658 14.2952C16.0156 14.3301 16.0094 14.3299 15.9975 14.2962C15.9859 14.264 15.9797 14.2638 15.8066 14.2991C15.6382 14.335 15.6259 14.3345 15.6197 14.3061C15.6132 14.276 15.6012 14.2772 15.2118 14.3678L14.8108 14.4612L14.8262 14.5324Z" fill="white"/>
    <path d="M4.08237 54.9087C4.69642 54.9082 5.30238 54.7693 5.85514 54.5018C6.40815 54.2344 6.89375 53.8454 7.2759 53.3639C8.4584 52.0846 17.5975 43.0906 23.1977 37.6071C23.5853 37.2328 23.8951 36.7854 24.1094 36.2905C24.3236 35.7958 24.4381 35.2634 24.4461 34.7241C24.4541 34.1849 24.3556 33.6492 24.1562 33.1482C23.9568 32.6472 23.6604 32.1907 23.2841 31.8049C22.9079 31.4193 22.4592 31.1119 21.9639 30.9006C21.4686 30.6893 20.9365 30.5785 20.3982 30.5741C19.8599 30.5697 19.326 30.6722 18.8274 30.8754C18.3287 31.0788 17.8752 31.3789 17.4928 31.7586C17.4529 31.7978 13.4196 35.7475 9.41636 39.6931L8.16204 40.9298V21.7236C8.16204 14.2545 14.1772 8.17782 21.5713 8.17782C28.9653 8.17782 34.9805 14.2545 34.9805 21.7236V50.8195C34.9805 51.9039 35.4104 52.944 36.1758 53.7108C36.9411 54.4776 37.9792 54.9082 39.0615 54.9082C40.1439 54.9082 41.1819 54.4776 41.9473 53.7108C42.7126 52.944 43.1426 51.9039 43.1426 50.8195V21.7236C43.1426 9.74507 33.4658 0 21.5713 0C9.67693 0 3.8147e-06 9.74507 3.8147e-06 21.7236V50.8195C0.000495911 51.9039 0.430695 52.944 1.19623 53.711C1.96177 54.4778 2.99989 54.9085 4.08237 54.9087Z" fill="white"/>
    <path d="M21.573 28.9248C18.8653 28.9248 16.6705 26.7299 16.6705 24.0222C16.6705 21.3146 18.8653 19.1196 21.573 19.1196C24.2806 19.1196 26.4756 21.3146 26.4756 24.0222C26.4756 26.7299 24.2806 28.9248 21.573 28.9248Z" fill="#5DF888"/>
</svg>
