<svg width="20" height="22" viewBox="0 0 20 22" fill="none" xmlns="http://www.w3.org/2000/svg">
    <path d="M16 7.00111C16 5.40952 15.3679 3.88311 14.2426 2.75768C13.1174 1.63226 11.5913 1 10 1C8.4087 1 6.88258 1.63226 5.75736 2.75768C4.63214 3.88311 4 5.40952 4 7.00111C4 14.0024 1 16.0028 1 16.0028H19C19 16.0028 16 14.0024 16 7.00111Z" stroke="#C9CED6" stroke-width="2" stroke-linecap="round" stroke-linejoin="round"/>
    <path d="M11.7295 20.0034C11.5537 20.3066 11.3014 20.5582 10.9978 20.7331C10.6941 20.908 10.3499 21.0001 9.99953 21.0001C9.64915 21.0001 9.30492 20.908 9.0013 20.7331C8.69769 20.5582 8.44534 20.3066 8.26953 20.0034" stroke="#C9CED6" stroke-width="2" stroke-linecap="round" stroke-linejoin="round"/>
</svg>
