<svg width="294" height="115" viewBox="0 0 294 115" fill="none" xmlns="http://www.w3.org/2000/svg">
    <rect width="294" height="115" rx="7" fill="#EDEDF6"/>
    <rect width="294" height="112" rx="7" fill="white"/>
    <path d="M125.317 30.6816C125.317 31.2207 125.385 31.709 125.522 32.1465C125.659 32.5801 125.85 32.9492 126.096 33.2539C126.346 33.5586 126.645 33.7949 126.993 33.9629C127.344 34.127 127.731 34.209 128.153 34.209C128.52 34.209 128.848 34.1426 129.137 34.0098C129.43 33.877 129.682 33.7031 129.893 33.4883C130.104 33.2695 130.274 33.0234 130.403 32.75C130.532 32.4766 130.618 32.1992 130.661 31.918H131.774C131.751 32.168 131.696 32.4238 131.61 32.6855C131.528 32.9434 131.415 33.1953 131.27 33.4414C131.13 33.6836 130.96 33.9141 130.76 34.1328C130.561 34.3477 130.331 34.5352 130.069 34.6953C129.811 34.8555 129.522 34.9824 129.202 35.0762C128.881 35.1699 128.532 35.2168 128.153 35.2168C127.891 35.2168 127.61 35.1895 127.309 35.1348C127.012 35.0801 126.715 34.9883 126.419 34.8594C126.126 34.7305 125.842 34.5586 125.569 34.3438C125.299 34.125 125.061 33.8516 124.854 33.5234C124.647 33.1953 124.481 32.8086 124.356 32.3633C124.231 31.9141 124.169 31.3926 124.169 30.7988C124.169 30.2168 124.223 29.6973 124.333 29.2402C124.446 28.7832 124.598 28.3848 124.79 28.0449C124.985 27.7012 125.212 27.4102 125.469 27.1719C125.731 26.9336 126.01 26.7402 126.307 26.5918C126.604 26.4434 126.913 26.3359 127.233 26.2695C127.553 26.2031 127.872 26.1699 128.188 26.1699C128.579 26.1699 128.934 26.2109 129.255 26.293C129.579 26.3711 129.868 26.4805 130.122 26.6211C130.38 26.7578 130.604 26.918 130.796 27.1016C130.987 27.2852 131.147 27.4805 131.276 27.6875C131.409 27.8906 131.51 28.0996 131.581 28.3145C131.655 28.5293 131.7 28.7383 131.715 28.9414H130.59C130.516 28.6641 130.407 28.416 130.262 28.1973C130.118 27.9785 129.942 27.7949 129.735 27.6465C129.532 27.4941 129.301 27.3789 129.044 27.3008C128.79 27.2188 128.516 27.1777 128.223 27.1777C127.782 27.1777 127.381 27.2598 127.022 27.4238C126.667 27.5879 126.362 27.8223 126.108 28.127C125.854 28.4316 125.659 28.8008 125.522 29.2344C125.385 29.6641 125.317 30.1465 125.317 30.6816ZM133.224 28.7246H134.302V29.5859H134.326C134.396 29.4414 134.484 29.3047 134.589 29.1758C134.699 29.0469 134.828 28.9355 134.976 28.8418C135.128 28.7441 135.302 28.668 135.498 28.6133C135.697 28.5586 135.923 28.5312 136.177 28.5312C136.513 28.5312 136.835 28.5957 137.144 28.7246C137.453 28.8535 137.726 29.0469 137.964 29.3047C138.203 29.5625 138.392 29.8867 138.533 30.2773C138.673 30.6641 138.744 31.1152 138.744 31.6309C138.744 32.2754 138.677 32.8242 138.544 33.2773C138.416 33.7266 138.23 34.0938 137.988 34.3789C137.75 34.6641 137.46 34.8711 137.121 35C136.781 35.1289 136.402 35.1934 135.984 35.1934C135.777 35.1934 135.584 35.166 135.404 35.1113C135.224 35.0566 135.062 34.9863 134.918 34.9004C134.777 34.8105 134.656 34.7129 134.554 34.6074C134.453 34.498 134.376 34.3926 134.326 34.291H134.302V37.4727H133.224V28.7246ZM134.279 31.8945C134.279 32.2344 134.312 32.5488 134.378 32.8379C134.445 33.123 134.546 33.3711 134.683 33.582C134.824 33.793 134.998 33.959 135.205 34.0801C135.416 34.1973 135.664 34.2559 135.949 34.2559C136.246 34.2559 136.501 34.1973 136.716 34.0801C136.935 33.959 137.115 33.793 137.255 33.582C137.396 33.3711 137.5 33.123 137.566 32.8379C137.632 32.5488 137.666 32.2344 137.666 31.8945C137.666 31.5391 137.632 31.2129 137.566 30.916C137.5 30.6191 137.396 30.3633 137.255 30.1484C137.115 29.9336 136.935 29.7676 136.716 29.6504C136.501 29.5293 136.246 29.4688 135.949 29.4688C135.664 29.4688 135.416 29.5293 135.205 29.6504C134.998 29.7676 134.824 29.9336 134.683 30.1484C134.546 30.3633 134.445 30.6191 134.378 30.916C134.312 31.2129 134.279 31.5391 134.279 31.8945ZM145.426 32.9961C145.383 33.2695 145.289 33.5371 145.145 33.7988C145 34.0605 144.811 34.2949 144.577 34.502C144.342 34.709 144.065 34.875 143.745 35C143.428 35.1289 143.077 35.1934 142.69 35.1934C142.268 35.1934 141.877 35.125 141.518 34.9883C141.163 34.8477 140.854 34.6387 140.592 34.3613C140.334 34.0801 140.131 33.7285 139.983 33.3066C139.834 32.8848 139.76 32.3887 139.76 31.8184C139.76 31.4355 139.801 31.0898 139.883 30.7812C139.969 30.4688 140.082 30.1914 140.223 29.9492C140.368 29.7031 140.534 29.4922 140.721 29.3164C140.909 29.1367 141.106 28.9902 141.313 28.877C141.524 28.7598 141.739 28.6738 141.957 28.6191C142.176 28.5605 142.387 28.5312 142.59 28.5312C143.02 28.5312 143.413 28.5957 143.768 28.7246C144.123 28.8535 144.428 29.0508 144.682 29.3164C144.94 29.5781 145.139 29.9082 145.28 30.3066C145.424 30.7012 145.496 31.166 145.496 31.7012V32.2402H140.909C140.913 32.5449 140.955 32.8223 141.038 33.0723C141.12 33.3184 141.237 33.5293 141.389 33.7051C141.541 33.8809 141.725 34.0176 141.94 34.1152C142.159 34.209 142.405 34.2559 142.678 34.2559C142.955 34.2559 143.19 34.2168 143.381 34.1387C143.573 34.0605 143.733 33.9609 143.862 33.8398C143.991 33.7188 144.094 33.584 144.172 33.4355C144.254 33.2871 144.323 33.1406 144.377 32.9961H145.426ZM144.413 31.3789C144.405 31.0742 144.358 30.8027 144.272 30.5645C144.19 30.3262 144.073 30.127 143.92 29.9668C143.772 29.8027 143.592 29.6797 143.381 29.5977C143.17 29.5117 142.936 29.4688 142.678 29.4688C142.432 29.4688 142.205 29.5176 141.998 29.6152C141.791 29.709 141.61 29.8418 141.454 30.0137C141.297 30.1816 141.172 30.3828 141.079 30.6172C140.985 30.8477 140.928 31.1016 140.909 31.3789H144.413ZM152.115 35H147.263V36.5352H146.255V34.0625H147.081C147.253 33.6406 147.39 33.2109 147.491 32.7734C147.593 32.332 147.671 31.8887 147.726 31.4434C147.781 30.9941 147.816 30.543 147.831 30.0898C147.847 29.6367 147.855 29.1816 147.855 28.7246H152.238V34.0625H153.122V36.5352H152.115V35ZM151.159 34.0625V29.6621H148.886C148.859 30.0176 148.829 30.3828 148.798 30.7578C148.771 31.1328 148.732 31.5098 148.681 31.8887C148.634 32.2637 148.57 32.6348 148.488 33.002C148.409 33.3691 148.306 33.7227 148.177 34.0625H151.159ZM154.279 28.7246H155.358V31.2559H158.287V28.7246H159.371V35H158.287V32.1934H155.358V35H154.279V28.7246ZM166.183 35H165.099V32.5156H163.71C163.46 32.5156 163.241 32.5215 163.054 32.5332C162.87 32.541 162.714 32.5762 162.585 32.6387C162.456 32.7012 162.355 32.7988 162.28 32.9316C162.21 33.0645 162.165 33.2539 162.146 33.5L162.099 34.1738C162.095 34.1934 162.091 34.2324 162.087 34.291C162.083 34.3496 162.075 34.4199 162.064 34.502C162.052 34.5801 162.036 34.6641 162.017 34.7539C161.997 34.8438 161.974 34.9258 161.946 35H160.757C160.784 34.9648 160.81 34.9297 160.833 34.8945C160.86 34.8555 160.886 34.8027 160.909 34.7363C160.937 34.6699 160.96 34.584 160.98 34.4785C161.003 34.373 161.024 34.2383 161.044 34.0742L161.114 33.2715C161.138 33.0605 161.165 32.8887 161.196 32.7559C161.231 32.623 161.278 32.5137 161.337 32.4277C161.399 32.3379 161.48 32.2656 161.577 32.2109C161.675 32.1523 161.798 32.0938 161.946 32.0352C161.274 31.793 160.939 31.2969 160.939 30.5469C160.939 30.3594 160.962 30.1875 161.009 30.0312C161.056 29.8711 161.116 29.7285 161.19 29.6035C161.269 29.4785 161.355 29.3691 161.448 29.2754C161.546 29.1777 161.644 29.0977 161.741 29.0352C161.862 28.957 161.995 28.8984 162.14 28.8594C162.284 28.8164 162.429 28.7852 162.573 28.7656C162.722 28.7461 162.866 28.7344 163.007 28.7305C163.147 28.7266 163.276 28.7246 163.394 28.7246H166.183V35ZM165.099 29.6738H163.458C163.317 29.6738 163.196 29.6758 163.095 29.6797C162.993 29.6797 162.903 29.6836 162.825 29.6914C162.751 29.6992 162.683 29.7129 162.62 29.7324C162.558 29.752 162.493 29.7793 162.427 29.8145C162.29 29.8926 162.185 30.0078 162.11 30.1602C162.04 30.3125 162.005 30.4746 162.005 30.6465C162.005 30.8145 162.03 30.957 162.081 31.0742C162.132 31.1875 162.198 31.2812 162.28 31.3555C162.366 31.4297 162.46 31.4883 162.562 31.5312C162.667 31.5703 162.772 31.5996 162.878 31.6191C162.987 31.6348 163.093 31.6445 163.194 31.6484C163.296 31.6523 163.384 31.6543 163.458 31.6543H165.099V29.6738ZM173.006 35H171.922V32.5156H170.533C170.283 32.5156 170.064 32.5215 169.877 32.5332C169.693 32.541 169.537 32.5762 169.408 32.6387C169.279 32.7012 169.178 32.7988 169.103 32.9316C169.033 33.0645 168.988 33.2539 168.969 33.5L168.922 34.1738C168.918 34.1934 168.914 34.2324 168.91 34.291C168.906 34.3496 168.898 34.4199 168.887 34.502C168.875 34.5801 168.859 34.6641 168.84 34.7539C168.82 34.8438 168.797 34.9258 168.769 35H167.58C167.607 34.9648 167.633 34.9297 167.656 34.8945C167.684 34.8555 167.709 34.8027 167.732 34.7363C167.76 34.6699 167.783 34.584 167.803 34.4785C167.826 34.373 167.848 34.2383 167.867 34.0742L167.937 33.2715C167.961 33.0605 167.988 32.8887 168.019 32.7559C168.055 32.623 168.101 32.5137 168.16 32.4277C168.223 32.3379 168.303 32.2656 168.4 32.2109C168.498 32.1523 168.621 32.0938 168.769 32.0352C168.098 31.793 167.762 31.2969 167.762 30.5469C167.762 30.3594 167.785 30.1875 167.832 30.0312C167.879 29.8711 167.939 29.7285 168.014 29.6035C168.092 29.4785 168.178 29.3691 168.271 29.2754C168.369 29.1777 168.467 29.0977 168.564 29.0352C168.685 28.957 168.818 28.8984 168.963 28.8594C169.107 28.8164 169.252 28.7852 169.396 28.7656C169.545 28.7461 169.689 28.7344 169.83 28.7305C169.971 28.7266 170.1 28.7246 170.217 28.7246H173.006V35ZM171.922 29.6738H170.281C170.141 29.6738 170.019 29.6758 169.918 29.6797C169.816 29.6797 169.726 29.6836 169.648 29.6914C169.574 29.6992 169.506 29.7129 169.443 29.7324C169.381 29.752 169.316 29.7793 169.25 29.8145C169.113 29.8926 169.008 30.0078 168.934 30.1602C168.863 30.3125 168.828 30.4746 168.828 30.6465C168.828 30.8145 168.853 30.957 168.904 31.0742C168.955 31.1875 169.021 31.2812 169.103 31.3555C169.189 31.4297 169.283 31.4883 169.385 31.5312C169.49 31.5703 169.596 31.5996 169.701 31.6191C169.81 31.6348 169.916 31.6445 170.018 31.6484C170.119 31.6523 170.207 31.6543 170.281 31.6543H171.922V29.6738ZM182.193 29.6621H179.263V35H178.185V28.7246H183.277V35H182.193V29.6621ZM189.368 31.8535C189.368 31.5059 189.329 31.1875 189.251 30.8984C189.172 30.6055 189.055 30.3535 188.899 30.1426C188.743 29.9316 188.549 29.7676 188.319 29.6504C188.092 29.5293 187.829 29.4688 187.528 29.4688C187.227 29.4688 186.963 29.5293 186.737 29.6504C186.51 29.7676 186.319 29.9316 186.163 30.1426C186.006 30.3535 185.889 30.6055 185.811 30.8984C185.733 31.1875 185.694 31.5059 185.694 31.8535C185.694 32.2051 185.733 32.5293 185.811 32.8262C185.889 33.1191 186.006 33.3711 186.163 33.582C186.319 33.793 186.51 33.959 186.737 34.0801C186.963 34.1973 187.227 34.2559 187.528 34.2559C187.829 34.2559 188.092 34.1973 188.319 34.0801C188.549 33.959 188.743 33.793 188.899 33.582C189.055 33.3711 189.172 33.1191 189.251 32.8262C189.329 32.5293 189.368 32.2051 189.368 31.8535ZM190.446 31.8535C190.446 32.3691 190.379 32.834 190.247 33.248C190.114 33.6582 189.922 34.0078 189.672 34.2969C189.422 34.5859 189.116 34.8086 188.753 34.9648C188.393 35.1172 187.985 35.1934 187.528 35.1934C187.071 35.1934 186.663 35.1172 186.303 34.9648C185.944 34.8086 185.639 34.5859 185.389 34.2969C185.139 34.0078 184.948 33.6582 184.815 33.248C184.682 32.834 184.616 32.3691 184.616 31.8535C184.616 31.3457 184.682 30.8867 184.815 30.4766C184.948 30.0664 185.139 29.7168 185.389 29.4277C185.639 29.1387 185.944 28.918 186.303 28.7656C186.663 28.6094 187.071 28.5312 187.528 28.5312C187.985 28.5312 188.393 28.6094 188.753 28.7656C189.116 28.918 189.422 29.1387 189.672 29.4277C189.922 29.7168 190.114 30.0664 190.247 30.4766C190.379 30.8867 190.446 31.3457 190.446 31.8535ZM196.718 32.791C196.703 32.9434 196.671 33.1094 196.624 33.2891C196.581 33.4688 196.517 33.6484 196.431 33.8281C196.345 34.0039 196.234 34.1738 196.097 34.3379C195.964 34.502 195.8 34.6484 195.605 34.7773C195.414 34.9023 195.187 35.002 194.925 35.0762C194.664 35.1543 194.365 35.1934 194.029 35.1934C193.845 35.1934 193.652 35.1699 193.449 35.123C193.246 35.0801 193.046 35.0059 192.851 34.9004C192.66 34.7949 192.476 34.6602 192.3 34.4961C192.128 34.3281 191.976 34.1211 191.843 33.875C191.714 33.6289 191.611 33.3438 191.533 33.0195C191.455 32.6914 191.415 32.3164 191.415 31.8945C191.415 31.375 191.49 30.9082 191.638 30.4941C191.787 30.0762 191.984 29.7227 192.23 29.4336C192.48 29.1445 192.769 28.9219 193.097 28.7656C193.429 28.6094 193.777 28.5312 194.14 28.5312C194.468 28.5312 194.757 28.5664 195.007 28.6367C195.261 28.707 195.482 28.8008 195.669 28.918C195.857 29.0352 196.015 29.1719 196.144 29.3281C196.273 29.4805 196.376 29.6426 196.455 29.8145C196.537 29.9824 196.597 30.1543 196.636 30.3301C196.679 30.5059 196.706 30.6738 196.718 30.834H195.71C195.656 30.4082 195.507 30.0742 195.265 29.832C195.027 29.5898 194.691 29.4688 194.257 29.4688C193.96 29.4688 193.701 29.5293 193.478 29.6504C193.259 29.7715 193.076 29.9414 192.927 30.1602C192.783 30.375 192.673 30.6367 192.599 30.9453C192.529 31.25 192.494 31.5859 192.494 31.9531C192.494 32.3672 192.533 32.7246 192.611 33.0254C192.689 33.3223 192.8 33.5684 192.945 33.7637C193.089 33.9551 193.265 34.0977 193.472 34.1914C193.683 34.2812 193.921 34.3262 194.187 34.3262C194.374 34.3262 194.552 34.293 194.72 34.2266C194.888 34.1562 195.039 34.0566 195.171 33.9277C195.304 33.7949 195.417 33.6328 195.511 33.4414C195.605 33.25 195.671 33.0332 195.71 32.791H196.718ZM203.248 32.9961C203.205 33.2695 203.112 33.5371 202.967 33.7988C202.823 34.0605 202.633 34.2949 202.399 34.502C202.164 34.709 201.887 34.875 201.567 35C201.25 35.1289 200.899 35.1934 200.512 35.1934C200.09 35.1934 199.7 35.125 199.34 34.9883C198.985 34.8477 198.676 34.6387 198.414 34.3613C198.157 34.0801 197.953 33.7285 197.805 33.3066C197.657 32.8848 197.582 32.3887 197.582 31.8184C197.582 31.4355 197.623 31.0898 197.705 30.7812C197.791 30.4688 197.905 30.1914 198.045 29.9492C198.19 29.7031 198.356 29.4922 198.543 29.3164C198.731 29.1367 198.928 28.9902 199.135 28.877C199.346 28.7598 199.561 28.6738 199.78 28.6191C199.998 28.5605 200.209 28.5312 200.412 28.5312C200.842 28.5312 201.235 28.5957 201.59 28.7246C201.946 28.8535 202.25 29.0508 202.504 29.3164C202.762 29.5781 202.961 29.9082 203.102 30.3066C203.246 30.7012 203.319 31.166 203.319 31.7012V32.2402H198.731C198.735 32.5449 198.778 32.8223 198.86 33.0723C198.942 33.3184 199.059 33.5293 199.211 33.7051C199.364 33.8809 199.547 34.0176 199.762 34.1152C199.981 34.209 200.227 34.2559 200.5 34.2559C200.778 34.2559 201.012 34.2168 201.203 34.1387C201.395 34.0605 201.555 33.9609 201.684 33.8398C201.813 33.7188 201.916 33.584 201.994 33.4355C202.076 33.2871 202.145 33.1406 202.2 32.9961H203.248ZM202.235 31.3789C202.227 31.0742 202.18 30.8027 202.094 30.5645C202.012 30.3262 201.895 30.127 201.743 29.9668C201.594 29.8027 201.414 29.6797 201.203 29.5977C200.993 29.5117 200.758 29.4688 200.5 29.4688C200.254 29.4688 200.028 29.5176 199.821 29.6152C199.614 29.709 199.432 29.8418 199.276 30.0137C199.119 30.1816 198.994 30.3828 198.901 30.6172C198.807 30.8477 198.75 31.1016 198.731 31.3789H202.235ZM212.228 35H204.704V28.7246H205.782V34.0625H208.044V28.7246H209.122V34.0625H211.378V28.7246H212.456V34.0625H213.236V36.5352H212.228V35ZM214.328 30.6055C214.34 30.2227 214.412 29.9004 214.545 29.6387C214.678 29.373 214.857 29.1582 215.084 28.9941C215.311 28.8301 215.578 28.7129 215.887 28.6426C216.199 28.5684 216.539 28.5312 216.906 28.5312C217.211 28.5312 217.506 28.5625 217.791 28.625C218.08 28.6875 218.336 28.7891 218.559 28.9297C218.781 29.0664 218.959 29.2461 219.092 29.4688C219.229 29.6875 219.297 29.9551 219.297 30.2715V33.9219C219.297 34.0234 219.324 34.1113 219.379 34.1855C219.434 34.2559 219.522 34.291 219.643 34.291C219.697 34.291 219.754 34.2871 219.813 34.2793C219.871 34.2676 219.932 34.2559 219.994 34.2441V34.9883C219.904 35.0117 219.815 35.0332 219.725 35.0527C219.639 35.0723 219.535 35.082 219.414 35.082C219.227 35.082 219.065 35.0664 218.928 35.0352C218.795 35.0039 218.682 34.9531 218.588 34.8828C218.498 34.8086 218.428 34.7148 218.377 34.6016C218.326 34.4844 218.293 34.3418 218.277 34.1738C218.145 34.3184 218.004 34.4531 217.856 34.5781C217.707 34.6992 217.541 34.8066 217.357 34.9004C217.174 34.9902 216.969 35.0605 216.742 35.1113C216.516 35.166 216.26 35.1934 215.975 35.1934C215.732 35.1934 215.496 35.1543 215.266 35.0762C215.039 34.998 214.834 34.8828 214.65 34.7305C214.471 34.5781 214.326 34.3906 214.217 34.168C214.107 33.9414 214.053 33.6797 214.053 33.3828C214.053 33.0586 214.107 32.7793 214.217 32.5449C214.326 32.3066 214.469 32.1094 214.645 31.9531C214.82 31.793 215.022 31.6699 215.248 31.584C215.475 31.498 215.705 31.4414 215.94 31.4141L217.703 31.1973C217.871 31.1777 218.002 31.1133 218.096 31.0039C218.193 30.8906 218.242 30.7109 218.242 30.4648C218.242 30.0859 218.117 29.8145 217.867 29.6504C217.621 29.4824 217.266 29.3984 216.801 29.3984C216.324 29.3984 215.969 29.5 215.734 29.7031C215.5 29.9023 215.367 30.2031 215.336 30.6055H214.328ZM218.219 31.8066C218.133 31.8691 218.025 31.9219 217.897 31.9648C217.772 32.0039 217.633 32.0371 217.481 32.0645C217.328 32.0918 217.166 32.1172 216.994 32.1406C216.822 32.1602 216.65 32.1816 216.479 32.2051C216.283 32.2324 216.104 32.2715 215.94 32.3223C215.775 32.373 215.633 32.4395 215.512 32.5215C215.391 32.6035 215.297 32.7031 215.231 32.8203C215.164 32.9336 215.131 33.0684 215.131 33.2246C215.131 33.4043 215.158 33.5625 215.213 33.6992C215.272 33.8359 215.35 33.9512 215.447 34.0449C215.549 34.1387 215.67 34.209 215.811 34.2559C215.951 34.3027 216.106 34.3262 216.274 34.3262C216.379 34.3262 216.5 34.3145 216.637 34.291C216.774 34.2637 216.914 34.2246 217.059 34.1738C217.203 34.123 217.344 34.0586 217.481 33.9805C217.621 33.8984 217.746 33.8008 217.856 33.6875C217.965 33.5742 218.053 33.4453 218.119 33.3008C218.186 33.1562 218.219 32.9941 218.219 32.8145V31.8066ZM226.483 32.9961C226.44 33.2695 226.347 33.5371 226.202 33.7988C226.058 34.0605 225.868 34.2949 225.634 34.502C225.399 34.709 225.122 34.875 224.802 35C224.485 35.1289 224.134 35.1934 223.747 35.1934C223.325 35.1934 222.935 35.125 222.575 34.9883C222.22 34.8477 221.911 34.6387 221.649 34.3613C221.392 34.0801 221.188 33.7285 221.04 33.3066C220.892 32.8848 220.817 32.3887 220.817 31.8184C220.817 31.4355 220.858 31.0898 220.94 30.7812C221.026 30.4688 221.14 30.1914 221.28 29.9492C221.425 29.7031 221.591 29.4922 221.778 29.3164C221.966 29.1367 222.163 28.9902 222.37 28.877C222.581 28.7598 222.796 28.6738 223.015 28.6191C223.233 28.5605 223.444 28.5312 223.647 28.5312C224.077 28.5312 224.47 28.5957 224.825 28.7246C225.181 28.8535 225.485 29.0508 225.739 29.3164C225.997 29.5781 226.196 29.9082 226.337 30.3066C226.481 30.7012 226.554 31.166 226.554 31.7012V32.2402H221.966C221.97 32.5449 222.013 32.8223 222.095 33.0723C222.177 33.3184 222.294 33.5293 222.446 33.7051C222.599 33.8809 222.782 34.0176 222.997 34.1152C223.216 34.209 223.462 34.2559 223.735 34.2559C224.013 34.2559 224.247 34.2168 224.438 34.1387C224.63 34.0605 224.79 33.9609 224.919 33.8398C225.048 33.7188 225.151 33.584 225.229 33.4355C225.311 33.2871 225.38 33.1406 225.435 32.9961H226.483ZM225.47 31.3789C225.462 31.0742 225.415 30.8027 225.329 30.5645C225.247 30.3262 225.13 30.127 224.978 29.9668C224.829 29.8027 224.649 29.6797 224.438 29.5977C224.228 29.5117 223.993 29.4688 223.735 29.4688C223.489 29.4688 223.263 29.5176 223.056 29.6152C222.849 29.709 222.667 29.8418 222.511 30.0137C222.354 30.1816 222.229 30.3828 222.136 30.6172C222.042 30.8477 221.985 31.1016 221.966 31.3789H225.47ZM227.939 28.7246H229.51L231.168 33.8691H231.191L232.873 28.7246H234.349V35H233.342V29.9492H233.318L231.66 35H230.629L228.971 29.9492H228.947V35H227.939V28.7246ZM240.434 31.8535C240.434 31.5059 240.395 31.1875 240.317 30.8984C240.239 30.6055 240.122 30.3535 239.966 30.1426C239.809 29.9316 239.616 29.7676 239.385 29.6504C239.159 29.5293 238.895 29.4688 238.594 29.4688C238.294 29.4688 238.03 29.5293 237.803 29.6504C237.577 29.7676 237.385 29.9316 237.229 30.1426C237.073 30.3535 236.956 30.6055 236.878 30.8984C236.8 31.1875 236.76 31.5059 236.76 31.8535C236.76 32.2051 236.8 32.5293 236.878 32.8262C236.956 33.1191 237.073 33.3711 237.229 33.582C237.385 33.793 237.577 33.959 237.803 34.0801C238.03 34.1973 238.294 34.2559 238.594 34.2559C238.895 34.2559 239.159 34.1973 239.385 34.0801C239.616 33.959 239.809 33.793 239.966 33.582C240.122 33.3711 240.239 33.1191 240.317 32.8262C240.395 32.5293 240.434 32.2051 240.434 31.8535ZM241.512 31.8535C241.512 32.3691 241.446 32.834 241.313 33.248C241.18 33.6582 240.989 34.0078 240.739 34.2969C240.489 34.5859 240.182 34.8086 239.819 34.9648C239.46 35.1172 239.051 35.1934 238.594 35.1934C238.137 35.1934 237.729 35.1172 237.37 34.9648C237.01 34.8086 236.706 34.5859 236.456 34.2969C236.206 34.0078 236.014 33.6582 235.882 33.248C235.749 32.834 235.682 32.3691 235.682 31.8535C235.682 31.3457 235.749 30.8867 235.882 30.4766C236.014 30.0664 236.206 29.7168 236.456 29.4277C236.706 29.1387 237.01 28.918 237.37 28.7656C237.729 28.6094 238.137 28.5312 238.594 28.5312C239.051 28.5312 239.46 28.6094 239.819 28.7656C240.182 28.918 240.489 29.1387 240.739 29.4277C240.989 29.7168 241.18 30.0664 241.313 30.4766C241.446 30.8867 241.512 31.3457 241.512 31.8535ZM247.785 32.791C247.769 32.9434 247.738 33.1094 247.691 33.2891C247.648 33.4688 247.584 33.6484 247.498 33.8281C247.412 34.0039 247.3 34.1738 247.164 34.3379C247.031 34.502 246.867 34.6484 246.671 34.7773C246.48 34.9023 246.254 35.002 245.992 35.0762C245.73 35.1543 245.431 35.1934 245.095 35.1934C244.912 35.1934 244.718 35.1699 244.515 35.123C244.312 35.0801 244.113 35.0059 243.918 34.9004C243.726 34.7949 243.543 34.6602 243.367 34.4961C243.195 34.3281 243.043 34.1211 242.91 33.875C242.781 33.6289 242.677 33.3438 242.599 33.0195C242.521 32.6914 242.482 32.3164 242.482 31.8945C242.482 31.375 242.556 30.9082 242.705 30.4941C242.853 30.0762 243.05 29.7227 243.296 29.4336C243.546 29.1445 243.836 28.9219 244.164 28.7656C244.496 28.6094 244.843 28.5312 245.207 28.5312C245.535 28.5312 245.824 28.5664 246.074 28.6367C246.328 28.707 246.548 28.8008 246.736 28.918C246.923 29.0352 247.082 29.1719 247.211 29.3281C247.339 29.4805 247.443 29.6426 247.521 29.8145C247.603 29.9824 247.664 30.1543 247.703 30.3301C247.746 30.5059 247.773 30.6738 247.785 30.834H246.777C246.722 30.4082 246.574 30.0742 246.332 29.832C246.093 29.5898 245.757 29.4688 245.324 29.4688C245.027 29.4688 244.767 29.5293 244.545 29.6504C244.326 29.7715 244.142 29.9414 243.994 30.1602C243.849 30.375 243.74 30.6367 243.666 30.9453C243.595 31.25 243.56 31.5859 243.56 31.9531C243.56 32.3672 243.599 32.7246 243.677 33.0254C243.755 33.3223 243.867 33.5684 244.011 33.7637C244.156 33.9551 244.332 34.0977 244.539 34.1914C244.75 34.2812 244.988 34.3262 245.254 34.3262C245.441 34.3262 245.619 34.293 245.787 34.2266C245.955 34.1562 246.105 34.0566 246.238 33.9277C246.371 33.7949 246.484 33.6328 246.578 33.4414C246.671 33.25 246.738 33.0332 246.777 32.791H247.785ZM250.641 29.6621H248.479V28.7246H253.881V29.6621H251.719V35H250.641V29.6621ZM255.091 28.7246H256.169V31.0859H257.91C258.253 31.0859 258.56 31.1328 258.829 31.2266C259.099 31.3164 259.327 31.4473 259.515 31.6191C259.702 31.7871 259.845 31.9922 259.943 32.2344C260.044 32.4727 260.095 32.7422 260.095 33.043C260.095 33.3477 260.044 33.6211 259.943 33.8633C259.845 34.1016 259.702 34.3066 259.515 34.4785C259.327 34.6465 259.099 34.7754 258.829 34.8652C258.56 34.9551 258.253 35 257.91 35H255.091V28.7246ZM256.169 34.1387H257.699C257.886 34.1387 258.06 34.1191 258.22 34.0801C258.384 34.041 258.525 33.9785 258.642 33.8926C258.759 33.8027 258.851 33.6895 258.917 33.5527C258.984 33.4121 259.017 33.2422 259.017 33.043C259.017 32.8477 258.982 32.6816 258.911 32.5449C258.845 32.4082 258.749 32.2969 258.624 32.2109C258.503 32.1211 258.355 32.0566 258.179 32.0176C258.007 31.9746 257.814 31.9531 257.599 31.9531H256.169V34.1387Z" fill="black"/>
    <path d="M127.816 56.1045H134.127V64H133.069V57.0283H128.869V64H127.816V56.1045ZM135.731 58.2476H136.719V59.0371H136.74C136.805 58.9046 136.885 58.7793 136.982 58.6611C137.082 58.543 137.2 58.4409 137.337 58.355C137.476 58.2655 137.636 58.1956 137.815 58.1455C137.997 58.0954 138.205 58.0703 138.438 58.0703C138.746 58.0703 139.041 58.1294 139.324 58.2476C139.607 58.3657 139.857 58.543 140.076 58.7793C140.294 59.0156 140.468 59.3128 140.597 59.6709C140.726 60.0254 140.79 60.439 140.79 60.9116C140.79 61.5024 140.729 62.0055 140.608 62.4209C140.489 62.8327 140.319 63.1693 140.097 63.4307C139.879 63.6921 139.614 63.8818 139.302 64C138.991 64.1182 138.644 64.1772 138.26 64.1772C138.071 64.1772 137.893 64.1522 137.729 64.1021C137.564 64.0519 137.415 63.9875 137.283 63.9087C137.154 63.8263 137.043 63.7368 136.95 63.6401C136.857 63.5399 136.787 63.4432 136.74 63.3501H136.719V66.2666H135.731V58.2476ZM136.697 61.1533C136.697 61.4648 136.728 61.7531 136.789 62.0181C136.85 62.2795 136.943 62.5068 137.068 62.7002C137.197 62.8936 137.356 63.0457 137.546 63.1567C137.739 63.2642 137.967 63.3179 138.228 63.3179C138.5 63.3179 138.735 63.2642 138.932 63.1567C139.132 63.0457 139.297 62.8936 139.426 62.7002C139.555 62.5068 139.65 62.2795 139.711 62.0181C139.771 61.7531 139.802 61.4648 139.802 61.1533C139.802 60.8275 139.771 60.5285 139.711 60.2563C139.65 59.9842 139.555 59.7497 139.426 59.5527C139.297 59.3558 139.132 59.2036 138.932 59.0962C138.735 58.9852 138.5 58.9297 138.228 58.9297C137.967 58.9297 137.739 58.9852 137.546 59.0962C137.356 59.2036 137.197 59.3558 137.068 59.5527C136.943 59.7497 136.85 59.9842 136.789 60.2563C136.728 60.5285 136.697 60.8275 136.697 61.1533ZM142.017 58.2476H143.006V62.6572H143.027L145.852 58.2476H146.986V64H145.992V59.5903H145.97L143.151 64H142.017V58.2476ZM153.074 61.9751C153.059 62.1147 153.031 62.2669 152.988 62.4316C152.948 62.5964 152.889 62.7611 152.81 62.9258C152.732 63.0869 152.63 63.2427 152.504 63.3931C152.383 63.5435 152.232 63.6777 152.053 63.7959C151.878 63.9105 151.67 64.0018 151.43 64.0698C151.19 64.1414 150.916 64.1772 150.608 64.1772C150.44 64.1772 150.263 64.1558 150.077 64.1128C149.89 64.0734 149.708 64.0054 149.529 63.9087C149.353 63.812 149.185 63.6885 149.024 63.5381C148.866 63.3841 148.727 63.1943 148.605 62.9688C148.487 62.7432 148.392 62.4818 148.32 62.1846C148.249 61.8838 148.213 61.54 148.213 61.1533C148.213 60.6771 148.281 60.2492 148.417 59.8696C148.553 59.4865 148.734 59.1624 148.959 58.8975C149.189 58.6325 149.454 58.4284 149.754 58.2852C150.059 58.1419 150.377 58.0703 150.71 58.0703C151.011 58.0703 151.276 58.1025 151.505 58.167C151.738 58.2314 151.94 58.3174 152.112 58.4248C152.284 58.5322 152.429 58.6576 152.547 58.8008C152.665 58.9404 152.76 59.089 152.832 59.2466C152.907 59.4006 152.963 59.5581 152.998 59.7192C153.038 59.8804 153.063 60.0343 153.074 60.1812H152.15C152.1 59.7909 151.964 59.4847 151.742 59.2627C151.523 59.0407 151.215 58.9297 150.818 58.9297C150.546 58.9297 150.308 58.9852 150.103 59.0962C149.903 59.2072 149.735 59.363 149.599 59.5635C149.466 59.7604 149.366 60.0003 149.298 60.2832C149.233 60.5625 149.201 60.8704 149.201 61.207C149.201 61.5866 149.237 61.9142 149.309 62.1899C149.38 62.4621 149.482 62.6877 149.615 62.8667C149.747 63.0422 149.908 63.1729 150.098 63.2588C150.291 63.3411 150.51 63.3823 150.753 63.3823C150.925 63.3823 151.088 63.3519 151.242 63.291C151.396 63.2266 151.534 63.1353 151.656 63.0171C151.777 62.8953 151.881 62.7467 151.967 62.5713C152.053 62.3958 152.114 62.1971 152.15 61.9751H153.074ZM153.56 58.2476H154.645L156.175 62.9312H156.197L157.728 58.2476H158.813L156.616 64.231C156.505 64.5317 156.403 64.7931 156.31 65.0151C156.217 65.2371 156.125 65.4251 156.036 65.5791C155.946 65.7367 155.855 65.8638 155.762 65.9604C155.672 66.0571 155.572 66.1323 155.461 66.186C155.354 66.2433 155.232 66.2809 155.096 66.2988C154.963 66.3203 154.809 66.3311 154.634 66.3311C154.491 66.3311 154.378 66.3239 154.295 66.3096C154.217 66.2988 154.147 66.2845 154.086 66.2666V65.375C154.15 65.3965 154.235 65.418 154.338 65.4395C154.442 65.4609 154.551 65.4717 154.666 65.4717C154.849 65.4717 154.996 65.4269 155.107 65.3374C155.221 65.2515 155.309 65.1279 155.37 64.9668L155.692 64.1558L153.56 58.2476ZM161.302 59.1069H159.32V58.2476H164.272V59.1069H162.29V64H161.302V59.1069ZM169.904 61.9751C169.889 62.1147 169.861 62.2669 169.818 62.4316C169.778 62.5964 169.719 62.7611 169.64 62.9258C169.562 63.0869 169.46 63.2427 169.334 63.3931C169.213 63.5435 169.062 63.6777 168.883 63.7959C168.708 63.9105 168.5 64.0018 168.26 64.0698C168.02 64.1414 167.746 64.1772 167.438 64.1772C167.27 64.1772 167.093 64.1558 166.907 64.1128C166.72 64.0734 166.538 64.0054 166.359 63.9087C166.183 63.812 166.015 63.6885 165.854 63.5381C165.696 63.3841 165.557 63.1943 165.435 62.9688C165.317 62.7432 165.222 62.4818 165.15 62.1846C165.079 61.8838 165.043 61.54 165.043 61.1533C165.043 60.6771 165.111 60.2492 165.247 59.8696C165.383 59.4865 165.564 59.1624 165.789 58.8975C166.019 58.6325 166.284 58.4284 166.584 58.2852C166.889 58.1419 167.207 58.0703 167.54 58.0703C167.841 58.0703 168.106 58.1025 168.335 58.167C168.568 58.2314 168.77 58.3174 168.942 58.4248C169.114 58.5322 169.259 58.6576 169.377 58.8008C169.495 58.9404 169.59 59.089 169.662 59.2466C169.737 59.4006 169.793 59.5581 169.828 59.7192C169.868 59.8804 169.893 60.0343 169.904 60.1812H168.98C168.93 59.7909 168.794 59.4847 168.572 59.2627C168.353 59.0407 168.045 58.9297 167.648 58.9297C167.376 58.9297 167.138 58.9852 166.933 59.0962C166.733 59.2072 166.565 59.363 166.429 59.5635C166.296 59.7604 166.196 60.0003 166.128 60.2832C166.063 60.5625 166.031 60.8704 166.031 61.207C166.031 61.5866 166.067 61.9142 166.139 62.1899C166.21 62.4621 166.312 62.6877 166.445 62.8667C166.577 63.0422 166.738 63.1729 166.928 63.2588C167.121 63.3411 167.34 63.3823 167.583 63.3823C167.755 63.3823 167.918 63.3519 168.072 63.291C168.226 63.2266 168.364 63.1353 168.486 63.0171C168.607 62.8953 168.711 62.7467 168.797 62.5713C168.883 62.3958 168.944 62.1971 168.98 61.9751H169.904ZM172.522 59.1069H170.54V58.2476H175.492V59.1069H173.51V64H172.522V59.1069ZM176.601 58.2476H179.05C179.752 58.2476 180.277 58.3783 180.624 58.6396C180.975 58.901 181.151 59.2806 181.151 59.7783C181.151 60.0433 181.086 60.2671 180.957 60.4497C180.828 60.6323 180.658 60.7935 180.447 60.9331C180.751 61.0477 180.993 61.2124 181.172 61.4272C181.351 61.6421 181.441 61.9196 181.441 62.2598C181.441 62.5283 181.396 62.77 181.306 62.9849C181.217 63.1997 181.081 63.3823 180.898 63.5327C180.715 63.6831 180.483 63.7995 180.2 63.8818C179.921 63.9606 179.589 64 179.206 64H176.601V58.2476ZM177.589 63.2104H179.093C179.355 63.2104 179.571 63.1908 179.743 63.1514C179.919 63.1084 180.058 63.0475 180.162 62.9688C180.266 62.89 180.339 62.7951 180.382 62.6841C180.425 62.5731 180.447 62.4478 180.447 62.3081C180.447 62.1685 180.425 62.0431 180.382 61.9321C180.339 61.8175 180.266 61.7227 180.162 61.6475C180.058 61.5687 179.919 61.5096 179.743 61.4702C179.571 61.4272 179.355 61.4058 179.093 61.4058H177.589V63.2104ZM177.589 60.6807H179.083C179.416 60.6807 179.679 60.6144 179.872 60.4819C180.066 60.3494 180.162 60.1436 180.162 59.8643C180.162 59.7067 180.135 59.576 180.082 59.4722C180.028 59.3647 179.956 59.2788 179.867 59.2144C179.777 59.1499 179.675 59.1051 179.561 59.0801C179.45 59.0514 179.335 59.0371 179.217 59.0371H177.589V60.6807ZM182.738 58.2476H183.726V62.6572H183.747L186.573 58.2476H187.706V64H186.712V59.5903H186.691L183.871 64H182.738V58.2476ZM194.17 62.1631C194.13 62.4137 194.044 62.659 193.912 62.8989C193.78 63.1388 193.606 63.3537 193.391 63.5435C193.176 63.7332 192.922 63.8854 192.628 64C192.338 64.1182 192.016 64.1772 191.662 64.1772C191.275 64.1772 190.917 64.1146 190.587 63.9893C190.261 63.8604 189.979 63.6688 189.739 63.4146C189.502 63.1567 189.316 62.8345 189.18 62.4478C189.044 62.061 188.976 61.6063 188.976 61.0835C188.976 60.7326 189.014 60.4157 189.089 60.1328C189.168 59.8464 189.271 59.5921 189.4 59.3701C189.533 59.1445 189.685 58.9512 189.857 58.79C190.029 58.6253 190.21 58.491 190.399 58.3872C190.593 58.2798 190.79 58.201 190.99 58.1509C191.191 58.0972 191.384 58.0703 191.57 58.0703C191.964 58.0703 192.324 58.1294 192.65 58.2476C192.976 58.3657 193.255 58.5465 193.488 58.79C193.724 59.0299 193.907 59.3325 194.036 59.6978C194.168 60.0594 194.234 60.4855 194.234 60.9761V61.4702H190.029C190.032 61.7495 190.072 62.0037 190.147 62.2329C190.222 62.4585 190.329 62.6519 190.469 62.813C190.609 62.9741 190.777 63.0994 190.974 63.189C191.175 63.2749 191.4 63.3179 191.651 63.3179C191.905 63.3179 192.12 63.2821 192.295 63.2104C192.471 63.1388 192.618 63.0475 192.736 62.9365C192.854 62.8255 192.949 62.702 193.02 62.5659C193.096 62.4299 193.158 62.2956 193.208 62.1631H194.17ZM193.241 60.6807C193.233 60.4014 193.19 60.1525 193.112 59.9341C193.037 59.7157 192.929 59.533 192.789 59.3862C192.653 59.2358 192.489 59.123 192.295 59.0479C192.102 58.9691 191.887 58.9297 191.651 58.9297C191.425 58.9297 191.218 58.9744 191.028 59.064C190.838 59.1499 190.671 59.2716 190.528 59.4292C190.385 59.5832 190.27 59.7676 190.184 59.9824C190.099 60.1937 190.047 60.4264 190.029 60.6807H193.241Z" fill="#858585"/>
    <path d="M228.126 60.0522C228.126 60.3924 228.092 60.7326 228.024 61.0728C227.956 61.4093 227.853 61.7316 227.713 62.0396C227.573 62.3439 227.398 62.6286 227.187 62.8936C226.979 63.1549 226.732 63.3841 226.445 63.5811C226.159 63.7744 225.835 63.9248 225.473 64.0322C225.115 64.1432 224.718 64.1987 224.281 64.1987C223.844 64.1987 223.445 64.1432 223.083 64.0322C222.721 63.9248 222.397 63.7744 222.111 63.5811C221.828 63.3841 221.581 63.1549 221.37 62.8936C221.158 62.6286 220.983 62.3439 220.843 62.0396C220.704 61.7316 220.6 61.4093 220.532 61.0728C220.464 60.7326 220.43 60.3924 220.43 60.0522C220.43 59.4399 220.516 58.8796 220.688 58.3711C220.863 57.8626 221.115 57.4258 221.445 57.0605C221.774 56.6953 222.177 56.4124 222.653 56.2119C223.13 56.0078 223.672 55.9058 224.281 55.9058C224.886 55.9058 225.427 56.0078 225.903 56.2119C226.383 56.4124 226.785 56.6953 227.111 57.0605C227.441 57.4258 227.691 57.8626 227.863 58.3711C228.039 58.8796 228.126 59.4399 228.126 60.0522ZM227.074 60.0522C227.074 59.5832 227.011 59.1517 226.886 58.7578C226.76 58.3604 226.578 58.0202 226.338 57.7373C226.102 57.4508 225.81 57.2288 225.462 57.0713C225.115 56.9102 224.721 56.8296 224.281 56.8296C223.837 56.8296 223.441 56.9102 223.094 57.0713C222.746 57.2288 222.453 57.4508 222.213 57.7373C221.977 58.0202 221.796 58.3604 221.67 58.7578C221.545 59.1517 221.482 59.5832 221.482 60.0522C221.482 60.5321 221.54 60.9707 221.654 61.3682C221.769 61.762 221.943 62.1004 222.175 62.3833C222.408 62.6662 222.698 62.8864 223.045 63.0439C223.396 63.1979 223.808 63.2749 224.281 63.2749C224.75 63.2749 225.16 63.1979 225.511 63.0439C225.862 62.8864 226.152 62.6662 226.381 62.3833C226.614 62.1004 226.787 61.762 226.902 61.3682C227.016 60.9707 227.074 60.5321 227.074 60.0522ZM230.927 59.1069H228.945V58.2476H233.898V59.1069H231.916V64H230.927V59.1069ZM239.529 61.9751C239.515 62.1147 239.486 62.2669 239.443 62.4316C239.404 62.5964 239.345 62.7611 239.266 62.9258C239.187 63.0869 239.085 63.2427 238.96 63.3931C238.838 63.5435 238.688 63.6777 238.509 63.7959C238.333 63.9105 238.125 64.0018 237.886 64.0698C237.646 64.1414 237.372 64.1772 237.064 64.1772C236.895 64.1772 236.718 64.1558 236.532 64.1128C236.346 64.0734 236.163 64.0054 235.984 63.9087C235.809 63.812 235.64 63.6885 235.479 63.5381C235.322 63.3841 235.182 63.1943 235.06 62.9688C234.942 62.7432 234.847 62.4818 234.776 62.1846C234.704 61.8838 234.668 61.54 234.668 61.1533C234.668 60.6771 234.736 60.2492 234.872 59.8696C235.008 59.4865 235.189 59.1624 235.415 58.8975C235.644 58.6325 235.909 58.4284 236.21 58.2852C236.514 58.1419 236.833 58.0703 237.166 58.0703C237.467 58.0703 237.732 58.1025 237.961 58.167C238.193 58.2314 238.396 58.3174 238.568 58.4248C238.74 58.5322 238.885 58.6576 239.003 58.8008C239.121 58.9404 239.216 59.089 239.287 59.2466C239.363 59.4006 239.418 59.5581 239.454 59.7192C239.493 59.8804 239.518 60.0343 239.529 60.1812H238.605C238.555 59.7909 238.419 59.4847 238.197 59.2627C237.979 59.0407 237.671 58.9297 237.273 58.9297C237.001 58.9297 236.763 58.9852 236.559 59.0962C236.358 59.2072 236.19 59.363 236.054 59.5635C235.921 59.7604 235.821 60.0003 235.753 60.2832C235.689 60.5625 235.657 60.8704 235.657 61.207C235.657 61.5866 235.692 61.9142 235.764 62.1899C235.836 62.4621 235.938 62.6877 236.07 62.8667C236.203 63.0422 236.364 63.1729 236.553 63.2588C236.747 63.3411 236.965 63.3823 237.209 63.3823C237.381 63.3823 237.544 63.3519 237.698 63.291C237.852 63.2266 237.989 63.1353 238.111 63.0171C238.233 62.8953 238.337 62.7467 238.423 62.5713C238.509 62.3958 238.569 62.1971 238.605 61.9751H239.529ZM240.015 58.2476H241.1L242.631 62.9312H242.652L244.183 58.2476H245.268L243.071 64.231C242.96 64.5317 242.858 64.7931 242.765 65.0151C242.672 65.2371 242.581 65.4251 242.491 65.5791C242.402 65.7367 242.31 65.8638 242.217 65.9604C242.128 66.0571 242.027 66.1323 241.916 66.186C241.809 66.2433 241.687 66.2809 241.551 66.2988C241.419 66.3203 241.265 66.3311 241.089 66.3311C240.946 66.3311 240.833 66.3239 240.751 66.3096C240.672 66.2988 240.602 66.2845 240.541 66.2666V65.375C240.606 65.3965 240.69 65.418 240.794 65.4395C240.898 65.4609 241.007 65.4717 241.122 65.4717C241.304 65.4717 241.451 65.4269 241.562 65.3374C241.677 65.2515 241.764 65.1279 241.825 64.9668L242.147 64.1558L240.015 58.2476ZM247.757 59.1069H245.775V58.2476H250.728V59.1069H248.746V64H247.757V59.1069ZM256.359 61.9751C256.345 62.1147 256.316 62.2669 256.273 62.4316C256.234 62.5964 256.175 62.7611 256.096 62.9258C256.017 63.0869 255.915 63.2427 255.79 63.3931C255.668 63.5435 255.518 63.6777 255.339 63.7959C255.163 63.9105 254.955 64.0018 254.716 64.0698C254.476 64.1414 254.202 64.1772 253.894 64.1772C253.725 64.1772 253.548 64.1558 253.362 64.1128C253.176 64.0734 252.993 64.0054 252.814 63.9087C252.639 63.812 252.47 63.6885 252.309 63.5381C252.152 63.3841 252.012 63.1943 251.89 62.9688C251.772 62.7432 251.677 62.4818 251.606 62.1846C251.534 61.8838 251.498 61.54 251.498 61.1533C251.498 60.6771 251.566 60.2492 251.702 59.8696C251.838 59.4865 252.019 59.1624 252.245 58.8975C252.474 58.6325 252.739 58.4284 253.04 58.2852C253.344 58.1419 253.663 58.0703 253.996 58.0703C254.297 58.0703 254.562 58.1025 254.791 58.167C255.023 58.2314 255.226 58.3174 255.398 58.4248C255.57 58.5322 255.715 58.6576 255.833 58.8008C255.951 58.9404 256.046 59.089 256.117 59.2466C256.193 59.4006 256.248 59.5581 256.284 59.7192C256.323 59.8804 256.348 60.0343 256.359 60.1812H255.435C255.385 59.7909 255.249 59.4847 255.027 59.2627C254.809 59.0407 254.501 58.9297 254.103 58.9297C253.831 58.9297 253.593 58.9852 253.389 59.0962C253.188 59.2072 253.02 59.363 252.884 59.5635C252.751 59.7604 252.651 60.0003 252.583 60.2832C252.519 60.5625 252.487 60.8704 252.487 61.207C252.487 61.5866 252.522 61.9142 252.594 62.1899C252.666 62.4621 252.768 62.6877 252.9 62.8667C253.033 63.0422 253.194 63.1729 253.383 63.2588C253.577 63.3411 253.795 63.3823 254.039 63.3823C254.211 63.3823 254.374 63.3519 254.528 63.291C254.682 63.2266 254.819 63.1353 254.941 63.0171C255.063 62.8953 255.167 62.7467 255.253 62.5713C255.339 62.3958 255.399 62.1971 255.435 61.9751H256.359ZM258.977 59.1069H256.995V58.2476H261.948V59.1069H259.966V64H258.977V59.1069ZM263.057 58.2476H265.506C266.208 58.2476 266.732 58.3783 267.08 58.6396C267.43 58.901 267.606 59.2806 267.606 59.7783C267.606 60.0433 267.541 60.2671 267.413 60.4497C267.284 60.6323 267.114 60.7935 266.902 60.9331C267.207 61.0477 267.448 61.2124 267.627 61.4272C267.806 61.6421 267.896 61.9196 267.896 62.2598C267.896 62.5283 267.851 62.77 267.762 62.9849C267.672 63.1997 267.536 63.3823 267.353 63.5327C267.171 63.6831 266.938 63.7995 266.655 63.8818C266.376 63.9606 266.045 64 265.662 64H263.057V58.2476ZM264.045 63.2104H265.549C265.81 63.2104 266.027 63.1908 266.199 63.1514C266.374 63.1084 266.514 63.0475 266.618 62.9688C266.721 62.89 266.795 62.7951 266.838 62.6841C266.881 62.5731 266.902 62.4478 266.902 62.3081C266.902 62.1685 266.881 62.0431 266.838 61.9321C266.795 61.8175 266.721 61.7227 266.618 61.6475C266.514 61.5687 266.374 61.5096 266.199 61.4702C266.027 61.4272 265.81 61.4058 265.549 61.4058H264.045V63.2104ZM264.045 60.6807H265.538C265.871 60.6807 266.134 60.6144 266.328 60.4819C266.521 60.3494 266.618 60.1436 266.618 59.8643C266.618 59.7067 266.591 59.576 266.537 59.4722C266.483 59.3647 266.412 59.2788 266.322 59.2144C266.233 59.1499 266.131 59.1051 266.016 59.0801C265.905 59.0514 265.791 59.0371 265.672 59.0371H264.045V60.6807ZM269.193 58.2476H270.181V62.6572H270.203L273.028 58.2476H274.161V64H273.168V59.5903H273.146L270.326 64H269.193V58.2476ZM280.625 62.1631C280.586 62.4137 280.5 62.659 280.367 62.8989C280.235 63.1388 280.061 63.3537 279.846 63.5435C279.632 63.7332 279.377 63.8854 279.084 64C278.794 64.1182 278.471 64.1772 278.117 64.1772C277.73 64.1772 277.372 64.1146 277.043 63.9893C276.717 63.8604 276.434 63.6688 276.194 63.4146C275.958 63.1567 275.772 62.8345 275.636 62.4478C275.499 62.061 275.431 61.6063 275.431 61.0835C275.431 60.7326 275.469 60.4157 275.544 60.1328C275.623 59.8464 275.727 59.5921 275.856 59.3701C275.988 59.1445 276.14 58.9512 276.312 58.79C276.484 58.6253 276.665 58.491 276.855 58.3872C277.048 58.2798 277.245 58.201 277.446 58.1509C277.646 58.0972 277.839 58.0703 278.026 58.0703C278.42 58.0703 278.779 58.1294 279.105 58.2476C279.431 58.3657 279.71 58.5465 279.943 58.79C280.179 59.0299 280.362 59.3325 280.491 59.6978C280.623 60.0594 280.69 60.4855 280.69 60.9761V61.4702H276.484C276.488 61.7495 276.527 62.0037 276.602 62.2329C276.678 62.4585 276.785 62.6519 276.925 62.813C277.064 62.9741 277.233 63.0994 277.429 63.189C277.63 63.2749 277.856 63.3179 278.106 63.3179C278.36 63.3179 278.575 63.2821 278.751 63.2104C278.926 63.1388 279.073 63.0475 279.191 62.9365C279.309 62.8255 279.404 62.702 279.476 62.5659C279.551 62.4299 279.614 62.2956 279.664 62.1631H280.625ZM279.696 60.6807C279.689 60.4014 279.646 60.1525 279.567 59.9341C279.492 59.7157 279.385 59.533 279.245 59.3862C279.109 59.2358 278.944 59.123 278.751 59.0479C278.557 58.9691 278.343 58.9297 278.106 58.9297C277.881 58.9297 277.673 58.9744 277.483 59.064C277.293 59.1499 277.127 59.2716 276.984 59.4292C276.84 59.5832 276.726 59.7676 276.64 59.9824C276.554 60.1937 276.502 60.4264 276.484 60.6807H279.696Z" fill="#858585"/>
    <path d="M148.259 79.5091C148.259 78.4365 148.567 77.5688 149.184 76.9059C149.805 76.2384 150.611 75.9047 151.601 75.9047C153.125 75.9047 154.17 76.5791 154.736 77.9279C155.058 78.692 155.219 79.6979 155.219 80.9454C155.219 82.1561 155.065 83.1666 154.756 83.9768C154.167 85.5189 153.085 86.29 151.511 86.29C150.761 86.29 150.086 86.0691 149.488 85.6271C148.889 85.1806 148.546 84.5315 148.459 83.6799H150.42C150.466 83.9745 150.59 84.2139 150.793 84.398C150.995 84.5821 151.265 84.6742 151.601 84.6742C152.25 84.6742 152.706 84.3151 152.968 83.597C153.111 83.2011 153.201 82.6234 153.237 81.8638C153.058 82.0894 152.867 82.262 152.664 82.3817C152.296 82.6027 151.843 82.7131 151.304 82.7131C150.508 82.7131 149.801 82.4392 149.184 81.8914C148.567 81.339 148.259 80.5449 148.259 79.5091ZM151.732 81.1111C152.004 81.1111 152.259 81.0329 152.498 80.8764C152.945 80.591 153.168 80.0961 153.168 79.3918C153.168 78.8255 153.035 78.3767 152.768 78.0453C152.505 77.7138 152.144 77.5481 151.684 77.5481C151.348 77.5481 151.06 77.6425 150.821 77.8312C150.443 78.1258 150.254 78.6253 150.254 79.3296C150.254 79.9235 150.374 80.37 150.613 80.6692C150.857 80.9638 151.23 81.1111 151.732 81.1111ZM158.043 83.3208C158.122 83.7489 158.271 84.0804 158.492 84.3151C158.713 84.5453 159.035 84.6604 159.459 84.6604C159.947 84.6604 160.317 84.4901 160.571 84.1494C160.828 83.8042 160.957 83.3714 160.957 82.8512C160.957 82.3403 160.838 81.9098 160.598 81.56C160.359 81.2055 159.986 81.0283 159.48 81.0283C159.24 81.0283 159.033 81.0582 158.858 81.1181C158.55 81.2285 158.317 81.4334 158.161 81.7326L156.393 81.6497L157.097 76.1187H162.615V77.7898H158.52L158.161 79.9787C158.465 79.7808 158.702 79.6496 158.872 79.5851C159.157 79.4792 159.505 79.4263 159.915 79.4263C160.743 79.4263 161.466 79.7048 162.083 80.2618C162.7 80.8188 163.008 81.629 163.008 82.6924C163.008 83.6177 162.711 84.444 162.117 85.1714C161.524 85.8987 160.635 86.2624 159.452 86.2624C158.499 86.2624 157.716 86.0069 157.104 85.4959C156.492 84.9849 156.151 84.2599 156.082 83.3208H158.043ZM166.475 79.7025C166.778 79.7025 167.036 79.5966 167.248 79.3849C167.464 79.1685 167.572 78.9084 167.572 78.6046C167.572 78.3007 167.464 78.043 167.248 77.8312C167.036 77.6148 166.778 77.5067 166.475 77.5067C166.171 77.5067 165.911 77.6148 165.694 77.8312C165.483 78.043 165.377 78.3007 165.377 78.6046C165.377 78.9084 165.483 79.1685 165.694 79.3849C165.911 79.5966 166.171 79.7025 166.475 79.7025ZM169.043 78.6046C169.043 79.3135 168.792 79.9189 168.291 80.4206C167.793 80.9224 167.188 81.1733 166.475 81.1733C165.766 81.1733 165.16 80.9224 164.658 80.4206C164.157 79.9189 163.906 79.3135 163.906 78.6046C163.906 77.8956 164.157 77.2903 164.658 76.7885C165.16 76.2867 165.766 76.0359 166.475 76.0359C167.183 76.0359 167.789 76.2867 168.291 76.7885C168.792 77.2903 169.043 77.8956 169.043 78.6046ZM174.284 83.6315C174.284 83.3277 174.176 83.0699 173.96 82.8582C173.748 82.6418 173.49 82.5336 173.186 82.5336C172.883 82.5336 172.622 82.6418 172.406 82.8582C172.194 83.0699 172.088 83.3277 172.088 83.6315C172.088 83.9354 172.194 84.1955 172.406 84.4118C172.622 84.6236 172.883 84.7295 173.186 84.7295C173.49 84.7295 173.748 84.6236 173.96 84.4118C174.176 84.1955 174.284 83.9354 174.284 83.6315ZM175.755 83.6315C175.755 84.3405 175.504 84.9458 175.002 85.4476C174.501 85.9494 173.895 86.2002 173.186 86.2002C172.477 86.2002 171.872 85.9494 171.37 85.4476C170.869 84.9458 170.618 84.3405 170.618 83.6315C170.618 82.918 170.869 82.3126 171.37 81.8155C171.872 81.3137 172.477 81.0628 173.186 81.0628C173.895 81.0628 174.501 81.3137 175.002 81.8155C175.504 82.3172 175.755 82.9226 175.755 83.6315ZM172.088 75.9875H173.138L167.559 86.2624H166.488L172.088 75.9875Z" fill="#A6ACBE"/>
    <path d="M244.912 83.3208C244.99 83.7489 245.14 84.0804 245.361 84.3151C245.582 84.5453 245.904 84.6604 246.328 84.6604C246.816 84.6604 247.186 84.4901 247.439 84.1494C247.697 83.8042 247.826 83.3714 247.826 82.8512C247.826 82.3403 247.706 81.9098 247.467 81.56C247.228 81.2055 246.855 81.0283 246.348 81.0283C246.109 81.0283 245.902 81.0582 245.727 81.1181C245.418 81.2285 245.186 81.4334 245.029 81.7326L243.262 81.6497L243.966 76.1187H249.483V77.7898H245.389L245.029 79.9787C245.333 79.7808 245.57 79.6496 245.741 79.5851C246.026 79.4792 246.374 79.4263 246.783 79.4263C247.612 79.4263 248.335 79.7048 248.952 80.2618C249.568 80.8188 249.877 81.629 249.877 82.6924C249.877 83.6177 249.58 84.444 248.986 85.1714C248.392 85.8987 247.504 86.2624 246.321 86.2624C245.368 86.2624 244.585 86.0069 243.973 85.4959C243.361 84.9849 243.02 84.2599 242.951 83.3208H244.912ZM253.343 79.7025C253.647 79.7025 253.905 79.5966 254.117 79.3849C254.333 79.1685 254.441 78.9084 254.441 78.6046C254.441 78.3007 254.333 78.043 254.117 77.8312C253.905 77.6148 253.647 77.5067 253.343 77.5067C253.039 77.5067 252.779 77.6148 252.563 77.8312C252.351 78.043 252.245 78.3007 252.245 78.6046C252.245 78.9084 252.351 79.1685 252.563 79.3849C252.779 79.5966 253.039 79.7025 253.343 79.7025ZM255.912 78.6046C255.912 79.3135 255.661 79.9189 255.159 80.4206C254.662 80.9224 254.057 81.1733 253.343 81.1733C252.634 81.1733 252.029 80.9224 251.527 80.4206C251.025 79.9189 250.775 79.3135 250.775 78.6046C250.775 77.8956 251.025 77.2903 251.527 76.7885C252.029 76.2867 252.634 76.0359 253.343 76.0359C254.052 76.0359 254.658 76.2867 255.159 76.7885C255.661 77.2903 255.912 77.8956 255.912 78.6046ZM261.153 83.6315C261.153 83.3277 261.045 83.0699 260.828 82.8582C260.617 82.6418 260.359 82.5336 260.055 82.5336C259.751 82.5336 259.491 82.6418 259.275 82.8582C259.063 83.0699 258.957 83.3277 258.957 83.6315C258.957 83.9354 259.063 84.1955 259.275 84.4118C259.491 84.6236 259.751 84.7295 260.055 84.7295C260.359 84.7295 260.617 84.6236 260.828 84.4118C261.045 84.1955 261.153 83.9354 261.153 83.6315ZM262.624 83.6315C262.624 84.3405 262.373 84.9458 261.871 85.4476C261.369 85.9494 260.764 86.2002 260.055 86.2002C259.346 86.2002 258.741 85.9494 258.239 85.4476C257.737 84.9458 257.486 84.3405 257.486 83.6315C257.486 82.918 257.737 82.3126 258.239 81.8155C258.741 81.3137 259.346 81.0628 260.055 81.0628C260.764 81.0628 261.369 81.3137 261.871 81.8155C262.373 82.3172 262.624 82.9226 262.624 83.6315ZM258.957 75.9875H260.007L254.427 86.2624H253.357L258.957 75.9875Z" fill="#A6ACBE"/>
    <rect x="111" y="54" width="12" height="12" fill="url(#paint0_linear)"/>
    <rect x="204" y="54" width="12" height="12" fill="url(#paint1_linear)"/>
    <path d="M36.5234 62C36.5469 61.0859 36.7432 60.251 37.1123 59.4951C37.4697 58.6455 38.3135 57.7461 39.6436 56.7969C40.7979 55.9707 41.5449 55.3789 41.8848 55.0215C42.4062 54.4648 42.667 53.8555 42.667 53.1934C42.667 52.6543 42.5176 52.2061 42.2188 51.8486C41.9199 51.4912 41.4922 51.3125 40.9355 51.3125C40.1738 51.3125 39.6553 51.5967 39.3799 52.165C39.2217 52.4932 39.1279 53.0146 39.0986 53.7295H36.6641C36.7051 52.6455 36.9014 51.7695 37.2529 51.1016C37.9209 49.8301 39.1074 49.1943 40.8125 49.1943C42.1602 49.1943 43.2324 49.5693 44.0293 50.3193C44.8262 51.0635 45.2246 52.0508 45.2246 53.2812C45.2246 54.2246 44.9434 55.0625 44.3809 55.7949C44.0117 56.2812 43.4053 56.8232 42.5615 57.4209L41.5596 58.1328C40.9326 58.5781 40.502 58.9004 40.2676 59.0996C40.0391 59.2988 39.8457 59.5303 39.6875 59.7939H45.251V62H36.5234ZM47.2285 53.2109V51.5059C48.0195 51.4707 48.5732 51.418 48.8896 51.3477C49.3936 51.2363 49.8037 51.0137 50.1201 50.6797C50.3369 50.4512 50.501 50.1465 50.6123 49.7656C50.6768 49.5371 50.709 49.3672 50.709 49.2559H52.792V62H50.2256V53.2109H47.2285ZM59.1201 55.751C59.1201 57.2158 59.2402 58.3379 59.4805 59.1172C59.7207 59.8906 60.2129 60.2773 60.957 60.2773C61.7012 60.2773 62.1875 59.8906 62.416 59.1172C62.6504 58.3379 62.7676 57.2158 62.7676 55.751C62.7676 54.2158 62.6504 53.0791 62.416 52.3408C62.1875 51.6025 61.7012 51.2334 60.957 51.2334C60.2129 51.2334 59.7207 51.6025 59.4805 52.3408C59.2402 53.0791 59.1201 54.2158 59.1201 55.751ZM60.957 49.168C62.5801 49.168 63.7168 49.7393 64.3672 50.8818C65.0234 52.0244 65.3516 53.6475 65.3516 55.751C65.3516 57.8545 65.0234 59.4746 64.3672 60.6113C63.7168 61.748 62.5801 62.3164 60.957 62.3164C59.334 62.3164 58.1943 61.748 57.5381 60.6113C56.8877 59.4746 56.5625 57.8545 56.5625 55.751C56.5625 53.6475 56.8877 52.0244 57.5381 50.8818C58.1943 49.7393 59.334 49.168 60.957 49.168ZM69.1396 55.751C69.1396 57.2158 69.2598 58.3379 69.5 59.1172C69.7402 59.8906 70.2324 60.2773 70.9766 60.2773C71.7207 60.2773 72.207 59.8906 72.4355 59.1172C72.6699 58.3379 72.7871 57.2158 72.7871 55.751C72.7871 54.2158 72.6699 53.0791 72.4355 52.3408C72.207 51.6025 71.7207 51.2334 70.9766 51.2334C70.2324 51.2334 69.7402 51.6025 69.5 52.3408C69.2598 53.0791 69.1396 54.2158 69.1396 55.751ZM70.9766 49.168C72.5996 49.168 73.7363 49.7393 74.3867 50.8818C75.043 52.0244 75.3711 53.6475 75.3711 55.751C75.3711 57.8545 75.043 59.4746 74.3867 60.6113C73.7363 61.748 72.5996 62.3164 70.9766 62.3164C69.3535 62.3164 68.2139 61.748 67.5576 60.6113C66.9072 59.4746 66.582 57.8545 66.582 55.751C66.582 53.6475 66.9072 52.0244 67.5576 50.8818C68.2139 49.7393 69.3535 49.168 70.9766 49.168Z" fill="#3A7CF8"/>
    <path opacity="0.253397" fill-rule="evenodd" clip-rule="evenodd" d="M34.35 86.854C34.35 86.854 34.8647 84.0109 36.8888 90.6965C38.9128 97.3821 61.8002 112.015 69.4616 100.164C77.1229 88.3139 87.9545 101.612 95.4366 98.0551C102.919 94.4986 104.104 89.8048 98.5269 78.4949C92.9499 67.185 106.669 53.4034 92.9935 44.5432C79.3185 35.683 89.9052 37.8597 89.9052 37.8597L89.8355 74.0329L71.5302 90.6286L34.35 86.854Z" fill="url(#paint2_linear)"/>
    <path opacity="0.518059" fill-rule="evenodd" clip-rule="evenodd" d="M88.6711 47.9619C88.6711 47.9619 87.0995 47.8001 90.482 46.7439C93.8644 45.6877 99.48 35.1771 92.3952 32.0523C85.3105 28.9275 91.3791 23.8035 88.7509 20.5635C86.1227 17.3234 83.4957 16.9072 77.9822 19.6503C72.4687 22.3934 60.8566 13.5803 57.4386 19.863C54.0205 26.1458 60.0443 18.6236 60.0443 18.6236L76.4356 23.616L87.091 31.3574L88.6711 47.9619Z" fill="url(#paint3_linear)"/>
    <circle cx="56" cy="56" r="36.2785" stroke="url(#paint4_linear)" stroke-width="7.44304"/>
    <path d="M59.2489 19.8673C68.3402 20.6847 76.7892 24.8993 82.9108 31.6703C89.0324 38.4413 92.3766 47.2711 92.2763 56.3985C92.176 65.526 88.6387 74.2802 82.3698 80.915C76.101 87.5499 67.5614 91.5778 58.4543 92.1954C49.3472 92.8129 40.3421 89.9747 33.2349 84.2468C26.1278 78.5189 21.4411 70.3223 20.1096 61.292C18.7781 52.2616 20.8996 43.0612 26.0511 35.5258C31.2026 27.9904 39.0054 22.6739 47.9031 20.6366" stroke="url(#paint5_linear)" stroke-width="7.44304" stroke-linecap="round"/>
    <defs>
        <linearGradient id="paint0_linear" x1="117" y1="54" x2="117" y2="66" gradientUnits="userSpaceOnUse">
            <stop stop-color="#2C4DDC"/>
            <stop offset="1" stop-color="#339DFA"/>
        </linearGradient>
        <linearGradient id="paint1_linear" x1="210" y1="54" x2="210" y2="66" gradientUnits="userSpaceOnUse">
            <stop stop-color="#FD3C72"/>
            <stop offset="1" stop-color="#FFD00D"/>
        </linearGradient>
        <linearGradient id="paint2_linear" x1="37.1097" y1="52.5389" x2="144.352" y2="92.19" gradientUnits="userSpaceOnUse">
            <stop stop-color="#4A27F3"/>
            <stop offset="1" stop-color="#339DFA"/>
        </linearGradient>
        <linearGradient id="paint3_linear" x1="69.3317" y1="47.3522" x2="81.2706" y2="-0.946801" gradientUnits="userSpaceOnUse">
            <stop stop-color="#4A27F3"/>
            <stop offset="1" stop-color="#339DFA"/>
        </linearGradient>
        <linearGradient id="paint4_linear" x1="56" y1="16" x2="56" y2="96" gradientUnits="userSpaceOnUse">
            <stop stop-color="#FD3C72"/>
            <stop offset="1" stop-color="#FFD00D"/>
        </linearGradient>
        <linearGradient id="paint5_linear" x1="60" y1="3.40741" x2="64.5135" y2="145.126" gradientUnits="userSpaceOnUse">
            <stop stop-color="#281AC8"/>
            <stop offset="1" stop-color="#339DFA"/>
        </linearGradient>
    </defs>
</svg>
