<svg width="294" height="115" viewBox="0 0 294 115" fill="none" xmlns="http://www.w3.org/2000/svg">
    <rect width="294" height="115" rx="7" fill="#EDEDF7"/>
    <rect width="294" height="112" rx="7" fill="white"/>
    <path d="M104.287 43.1146C105.325 43.1146 106.137 42.8267 106.721 42.251C107.305 41.6667 107.598 40.9732 107.598 40.1708C107.598 39.473 107.318 38.8319 106.76 38.2475C106.202 37.6631 105.352 37.3709 104.209 37.3709C103.075 37.3709 102.255 37.6631 101.749 38.2475C101.243 38.8319 100.99 39.5166 100.99 40.3016C100.99 41.1826 101.318 41.8716 101.972 42.3688C102.626 42.866 103.398 43.1146 104.287 43.1146ZM104.431 52.3907C105.522 52.3907 106.424 52.0985 107.14 51.5141C107.864 50.921 108.226 50.0401 108.226 48.8713C108.226 47.6589 107.855 46.7387 107.114 46.1107C106.372 45.4827 105.421 45.1687 104.261 45.1687C103.136 45.1687 102.216 45.4914 101.501 46.1368C100.794 46.7736 100.441 47.6589 100.441 48.7928C100.441 49.7697 100.764 50.6157 101.409 51.331C102.063 52.0375 103.071 52.3907 104.431 52.3907ZM101.082 44.0173C100.428 43.7382 99.9176 43.4111 99.5513 43.0361C98.8622 42.3383 98.5177 41.4312 98.5177 40.3147C98.5177 38.9191 99.0236 37.7198 100.035 36.7167C101.047 35.7137 102.482 35.2121 104.34 35.2121C106.137 35.2121 107.545 35.6875 108.566 36.6382C109.586 37.5803 110.097 38.6836 110.097 39.9484C110.097 41.1171 109.8 42.0635 109.207 42.7875C108.875 43.1974 108.361 43.5986 107.663 43.9911C108.439 44.3488 109.05 44.7587 109.495 45.221C110.323 46.0932 110.738 47.2271 110.738 48.6227C110.738 50.2712 110.184 51.6711 109.076 52.8225C107.968 53.9651 106.403 54.5364 104.379 54.5364C102.556 54.5364 101.012 54.0436 99.7475 53.058C98.4915 52.0636 97.8635 50.6245 97.8635 48.7404C97.8635 47.6327 98.1339 46.6776 98.6747 45.8752C99.2155 45.064 100.018 44.4447 101.082 44.0173ZM119.144 54.5103C116.928 54.5103 115.319 53.9041 114.316 52.6917C113.321 51.4705 112.824 49.9877 112.824 48.2433H115.284C115.389 49.4557 115.615 50.3366 115.964 50.8861C116.575 51.8718 117.678 52.3646 119.274 52.3646C120.513 52.3646 121.507 52.0331 122.257 51.3702C123.007 50.7073 123.383 49.8525 123.383 48.8059C123.383 47.515 122.986 46.6122 122.192 46.0976C121.407 45.583 120.312 45.3257 118.908 45.3257C118.751 45.3257 118.59 45.33 118.424 45.3387C118.267 45.3387 118.106 45.3431 117.94 45.3518V43.2716C118.184 43.2977 118.389 43.3152 118.555 43.3239C118.72 43.3326 118.899 43.337 119.091 43.337C119.972 43.337 120.696 43.1974 121.263 42.9183C122.257 42.4299 122.755 41.5576 122.755 40.3016C122.755 39.3683 122.423 38.6487 121.76 38.1428C121.097 37.6369 120.325 37.384 119.444 37.384C117.874 37.384 116.788 37.9073 116.187 38.954C115.855 39.5297 115.668 40.3496 115.624 41.4137H113.295C113.295 40.0181 113.574 38.8319 114.133 37.855C115.092 36.1105 116.78 35.2383 119.196 35.2383C121.106 35.2383 122.584 35.6657 123.631 36.5205C124.678 37.3666 125.201 38.5964 125.201 40.21C125.201 41.3614 124.892 42.2947 124.272 43.0099C123.888 43.4547 123.391 43.8036 122.781 44.0566C123.766 44.327 124.534 44.8503 125.083 45.6266C125.642 46.3941 125.921 47.3362 125.921 48.4526C125.921 50.2407 125.332 51.6973 124.154 52.8225C122.977 53.9477 121.307 54.5103 119.144 54.5103ZM145.631 44.8939C146.887 44.8939 147.96 45.3387 148.849 46.2284C149.739 47.1181 150.184 48.1909 150.184 49.447C150.184 50.703 149.739 51.7758 148.849 52.6655C147.96 53.5552 146.887 54 145.631 54C144.366 54 143.289 53.5552 142.399 52.6655C141.509 51.7758 141.065 50.703 141.065 49.447C141.065 48.1909 141.509 47.1181 142.399 46.2284C143.289 45.3387 144.366 44.8939 145.631 44.8939ZM143.734 35.343H145.186L134.706 54.4972H133.254L143.734 35.343ZM132.783 43.0884C133.533 43.0884 134.17 42.8267 134.693 42.3034C135.225 41.7713 135.491 41.1346 135.491 40.3932C135.491 39.6518 135.225 39.0194 134.693 38.4961C134.17 37.964 133.533 37.698 132.783 37.698C132.041 37.698 131.405 37.9597 130.873 38.483C130.349 39.0063 130.088 39.6431 130.088 40.3932C130.088 41.1346 130.349 41.7713 130.873 42.3034C131.405 42.8267 132.041 43.0884 132.783 43.0884ZM132.783 35.8271C134.047 35.8271 135.125 36.2763 136.014 37.1747C136.904 38.0643 137.349 39.1372 137.349 40.3932C137.349 41.6492 136.904 42.7221 136.014 43.6117C135.125 44.5014 134.047 44.9462 132.783 44.9462C131.527 44.9462 130.454 44.5014 129.564 43.6117C128.675 42.7221 128.23 41.6492 128.23 40.3932C128.23 39.1372 128.675 38.0643 129.564 37.1747C130.454 36.2763 131.527 35.8271 132.783 35.8271ZM145.631 52.1421C146.372 52.1421 147.004 51.8805 147.528 51.3571C148.06 50.8251 148.326 50.1884 148.326 49.447C148.326 48.7056 148.06 48.0732 147.528 47.5499C147.004 47.0178 146.372 46.7518 145.631 46.7518C144.881 46.7518 144.24 47.0178 143.707 47.5499C143.184 48.0732 142.922 48.7056 142.922 49.447C142.922 50.1884 143.184 50.8251 143.707 51.3571C144.24 51.8805 144.881 52.1421 145.631 52.1421Z" fill="black"/>
    <path d="M97.2168 79.8457V76.9922H97.9961C98.0781 76.8047 98.1543 76.6152 98.2246 76.4238C98.2949 76.2285 98.3594 76.0098 98.418 75.7676C98.4805 75.5215 98.5371 75.2402 98.5879 74.9238C98.6426 74.6074 98.6934 74.2324 98.7402 73.7988C98.7949 73.3418 98.8379 72.8926 98.8691 72.4512C98.9004 72.0059 98.9238 71.5898 98.9395 71.2031C98.959 70.8164 98.9707 70.4668 98.9746 70.1543C98.9824 69.8418 98.9883 69.5859 98.9922 69.3867H104.406V76.9922H105.379V79.8457H104.301V78H98.2949V79.8457H97.2168ZM100.07 70.3945C100.07 70.9531 100.047 71.5098 100 72.0645C99.957 72.6191 99.9043 73.1777 99.8418 73.7402C99.7988 74.1855 99.7539 74.5645 99.707 74.877C99.6641 75.1855 99.6172 75.4609 99.5664 75.7031C99.5195 75.9414 99.4648 76.1621 99.4023 76.3652C99.3438 76.5645 99.2754 76.7734 99.1973 76.9922H103.223V70.3945H100.07ZM111.669 75.9961C111.626 76.2695 111.532 76.5371 111.388 76.7988C111.243 77.0605 111.054 77.2949 110.819 77.502C110.585 77.709 110.307 77.875 109.987 78C109.671 78.1289 109.319 78.1934 108.932 78.1934C108.511 78.1934 108.12 78.125 107.761 77.9883C107.405 77.8477 107.097 77.6387 106.835 77.3613C106.577 77.0801 106.374 76.7285 106.225 76.3066C106.077 75.8848 106.003 75.3887 106.003 74.8184C106.003 74.4355 106.044 74.0898 106.126 73.7812C106.212 73.4688 106.325 73.1914 106.466 72.9492C106.61 72.7031 106.776 72.4922 106.964 72.3164C107.151 72.1367 107.349 71.9902 107.556 71.877C107.766 71.7598 107.981 71.6738 108.2 71.6191C108.419 71.5605 108.63 71.5312 108.833 71.5312C109.263 71.5312 109.655 71.5957 110.011 71.7246C110.366 71.8535 110.671 72.0508 110.925 72.3164C111.182 72.5781 111.382 72.9082 111.522 73.3066C111.667 73.7012 111.739 74.166 111.739 74.7012V75.2402H107.151C107.155 75.5449 107.198 75.8223 107.28 76.0723C107.362 76.3184 107.479 76.5293 107.632 76.7051C107.784 76.8809 107.968 77.0176 108.182 77.1152C108.401 77.209 108.647 77.2559 108.921 77.2559C109.198 77.2559 109.432 77.2168 109.624 77.1387C109.815 77.0605 109.975 76.9609 110.104 76.8398C110.233 76.7188 110.337 76.584 110.415 76.4355C110.497 76.2871 110.565 76.1406 110.62 75.9961H111.669ZM110.655 74.3789C110.647 74.0742 110.6 73.8027 110.515 73.5645C110.432 73.3262 110.315 73.127 110.163 72.9668C110.015 72.8027 109.835 72.6797 109.624 72.5977C109.413 72.5117 109.179 72.4688 108.921 72.4688C108.675 72.4688 108.448 72.5176 108.241 72.6152C108.034 72.709 107.852 72.8418 107.696 73.0137C107.54 73.1816 107.415 73.3828 107.321 73.6172C107.227 73.8477 107.171 74.1016 107.151 74.3789H110.655ZM117.349 72.6621H114.947L114.9 74.168C114.877 74.9297 114.818 75.5664 114.724 76.0781C114.631 76.5859 114.502 76.9941 114.338 77.3027C114.177 77.6113 113.982 77.8301 113.752 77.959C113.521 78.0879 113.258 78.1523 112.961 78.1523C112.851 78.1523 112.756 78.1348 112.674 78.0996C112.595 78.0684 112.535 78.0352 112.492 78V77.0508C112.644 77.1094 112.779 77.1387 112.896 77.1387C112.978 77.1387 113.056 77.125 113.131 77.0977C113.209 77.0703 113.281 77.0176 113.347 76.9395C113.418 76.8613 113.482 76.752 113.541 76.6113C113.599 76.4668 113.65 76.2793 113.693 76.0488C113.74 75.8184 113.777 75.5391 113.804 75.2109C113.836 74.8828 113.857 74.4922 113.869 74.0391L113.922 71.7246H118.427V78H117.349V72.6621ZM120.124 73.6055C120.135 73.2227 120.208 72.9004 120.34 72.6387C120.473 72.373 120.653 72.1582 120.88 71.9941C121.106 71.8301 121.374 71.7129 121.682 71.6426C121.995 71.5684 122.335 71.5312 122.702 71.5312C123.006 71.5312 123.301 71.5625 123.587 71.625C123.876 71.6875 124.131 71.7891 124.354 71.9297C124.577 72.0664 124.755 72.2461 124.887 72.4688C125.024 72.6875 125.092 72.9551 125.092 73.2715V76.9219C125.092 77.0234 125.12 77.1113 125.174 77.1855C125.229 77.2559 125.317 77.291 125.438 77.291C125.493 77.291 125.549 77.2871 125.608 77.2793C125.667 77.2676 125.727 77.2559 125.79 77.2441V77.9883C125.7 78.0117 125.61 78.0332 125.52 78.0527C125.434 78.0723 125.331 78.082 125.21 78.082C125.022 78.082 124.86 78.0664 124.723 78.0352C124.59 78.0039 124.477 77.9531 124.383 77.8828C124.294 77.8086 124.223 77.7148 124.173 77.6016C124.122 77.4844 124.089 77.3418 124.073 77.1738C123.94 77.3184 123.799 77.4531 123.651 77.5781C123.503 77.6992 123.337 77.8066 123.153 77.9004C122.969 77.9902 122.764 78.0605 122.538 78.1113C122.311 78.166 122.055 78.1934 121.77 78.1934C121.528 78.1934 121.292 78.1543 121.061 78.0762C120.835 77.998 120.63 77.8828 120.446 77.7305C120.266 77.5781 120.122 77.3906 120.012 77.168C119.903 76.9414 119.848 76.6797 119.848 76.3828C119.848 76.0586 119.903 75.7793 120.012 75.5449C120.122 75.3066 120.264 75.1094 120.44 74.9531C120.616 74.793 120.817 74.6699 121.044 74.584C121.27 74.498 121.501 74.4414 121.735 74.4141L123.499 74.1973C123.667 74.1777 123.798 74.1133 123.891 74.0039C123.989 73.8906 124.038 73.7109 124.038 73.4648C124.038 73.0859 123.913 72.8145 123.663 72.6504C123.417 72.4824 123.061 72.3984 122.596 72.3984C122.12 72.3984 121.764 72.5 121.53 72.7031C121.296 72.9023 121.163 73.2031 121.131 73.6055H120.124ZM124.014 74.8066C123.928 74.8691 123.821 74.9219 123.692 74.9648C123.567 75.0039 123.428 75.0371 123.276 75.0645C123.124 75.0918 122.962 75.1172 122.79 75.1406C122.618 75.1602 122.446 75.1816 122.274 75.2051C122.079 75.2324 121.899 75.2715 121.735 75.3223C121.571 75.373 121.428 75.4395 121.307 75.5215C121.186 75.6035 121.092 75.7031 121.026 75.8203C120.96 75.9336 120.926 76.0684 120.926 76.2246C120.926 76.4043 120.954 76.5625 121.008 76.6992C121.067 76.8359 121.145 76.9512 121.243 77.0449C121.344 77.1387 121.465 77.209 121.606 77.2559C121.747 77.3027 121.901 77.3262 122.069 77.3262C122.174 77.3262 122.296 77.3145 122.432 77.291C122.569 77.2637 122.71 77.2246 122.854 77.1738C122.999 77.123 123.139 77.0586 123.276 76.9805C123.417 76.8984 123.542 76.8008 123.651 76.6875C123.76 76.5742 123.848 76.4453 123.915 76.3008C123.981 76.1562 124.014 75.9941 124.014 75.8145V74.8066ZM133.978 74.8535C133.978 74.5059 133.939 74.1875 133.861 73.8984C133.783 73.6055 133.666 73.3535 133.509 73.1426C133.357 72.9316 133.166 72.7676 132.935 72.6504C132.709 72.5293 132.445 72.4688 132.144 72.4688C131.843 72.4688 131.578 72.5293 131.347 72.6504C131.121 72.7676 130.929 72.9316 130.773 73.1426C130.621 73.3535 130.505 73.6055 130.427 73.8984C130.349 74.1875 130.31 74.5059 130.31 74.8535C130.31 75.2051 130.349 75.5293 130.427 75.8262C130.505 76.1191 130.621 76.3711 130.773 76.582C130.929 76.793 131.121 76.959 131.347 77.0801C131.578 77.1973 131.843 77.2559 132.144 77.2559C132.445 77.2559 132.709 77.1973 132.935 77.0801C133.166 76.959 133.357 76.793 133.509 76.582C133.666 76.3711 133.783 76.1191 133.861 75.8262C133.939 75.5293 133.978 75.2051 133.978 74.8535ZM126.935 71.7246H128.013V74.3789H129.226C129.269 73.9375 129.367 73.541 129.519 73.1895C129.671 72.8379 129.873 72.5391 130.123 72.293C130.373 72.0469 130.667 71.8594 131.007 71.7305C131.347 71.5977 131.726 71.5312 132.144 71.5312C132.601 71.5312 133.009 71.6094 133.369 71.7656C133.728 71.918 134.033 72.1387 134.283 72.4277C134.537 72.7168 134.73 73.0664 134.863 73.4766C134.996 73.8867 135.062 74.3457 135.062 74.8535C135.062 75.3691 134.996 75.834 134.863 76.248C134.73 76.6582 134.537 77.0078 134.283 77.2969C134.033 77.5859 133.728 77.8086 133.369 77.9648C133.009 78.1172 132.601 78.1934 132.144 78.1934C131.718 78.1934 131.332 78.127 130.984 77.9941C130.64 77.8574 130.343 77.6621 130.093 77.4082C129.843 77.1504 129.644 76.8398 129.496 76.4766C129.347 76.1094 129.257 75.6973 129.226 75.2402H128.013V78H126.935V71.7246ZM138.065 72.6621H135.903V71.7246H141.305V72.6621H139.143V78H138.065V72.6621ZM145.401 79.8457V76.9922H146.18C146.262 76.8047 146.338 76.6152 146.408 76.4238C146.479 76.2285 146.543 76.0098 146.602 75.7676C146.664 75.5215 146.721 75.2402 146.772 74.9238C146.826 74.6074 146.877 74.2324 146.924 73.7988C146.979 73.3418 147.022 72.8926 147.053 72.4512C147.084 72.0059 147.108 71.5898 147.123 71.2031C147.143 70.8164 147.154 70.4668 147.158 70.1543C147.166 69.8418 147.172 69.5859 147.176 69.3867H152.59V76.9922H153.563V79.8457H152.485V78H146.479V79.8457H145.401ZM148.254 70.3945C148.254 70.9531 148.231 71.5098 148.184 72.0645C148.141 72.6191 148.088 73.1777 148.026 73.7402C147.983 74.1855 147.938 74.5645 147.891 74.877C147.848 75.1855 147.801 75.4609 147.75 75.7031C147.703 75.9414 147.649 76.1621 147.586 76.3652C147.528 76.5645 147.459 76.7734 147.381 76.9922H151.406V70.3945H148.254ZM158.892 74.8535C158.892 74.5059 158.853 74.1875 158.774 73.8984C158.696 73.6055 158.579 73.3535 158.423 73.1426C158.267 72.9316 158.073 72.7676 157.843 72.6504C157.616 72.5293 157.353 72.4688 157.052 72.4688C156.751 72.4688 156.487 72.5293 156.261 72.6504C156.034 72.7676 155.843 72.9316 155.687 73.1426C155.53 73.3535 155.413 73.6055 155.335 73.8984C155.257 74.1875 155.218 74.5059 155.218 74.8535C155.218 75.2051 155.257 75.5293 155.335 75.8262C155.413 76.1191 155.53 76.3711 155.687 76.582C155.843 76.793 156.034 76.959 156.261 77.0801C156.487 77.1973 156.751 77.2559 157.052 77.2559C157.353 77.2559 157.616 77.1973 157.843 77.0801C158.073 76.959 158.267 76.793 158.423 76.582C158.579 76.3711 158.696 76.1191 158.774 75.8262C158.853 75.5293 158.892 75.2051 158.892 74.8535ZM159.97 74.8535C159.97 75.3691 159.903 75.834 159.771 76.248C159.638 76.6582 159.446 77.0078 159.196 77.2969C158.946 77.5859 158.64 77.8086 158.276 77.9648C157.917 78.1172 157.509 78.1934 157.052 78.1934C156.595 78.1934 156.187 78.1172 155.827 77.9648C155.468 77.8086 155.163 77.5859 154.913 77.2969C154.663 77.0078 154.472 76.6582 154.339 76.248C154.206 75.834 154.14 75.3691 154.14 74.8535C154.14 74.3457 154.206 73.8867 154.339 73.4766C154.472 73.0664 154.663 72.7168 154.913 72.4277C155.163 72.1387 155.468 71.918 155.827 71.7656C156.187 71.6094 156.595 71.5312 157.052 71.5312C157.509 71.5312 157.917 71.6094 158.276 71.7656C158.64 71.918 158.946 72.1387 159.196 72.4277C159.446 72.7168 159.638 73.0664 159.771 73.4766C159.903 73.8867 159.97 74.3457 159.97 74.8535ZM161.309 71.7246H162.879L164.537 76.8691H164.56L166.242 71.7246H167.719V78H166.711V72.9492H166.687L165.029 78H163.998L162.34 72.9492H162.316V78H161.309V71.7246ZM169.409 73.6055C169.421 73.2227 169.493 72.9004 169.626 72.6387C169.759 72.373 169.938 72.1582 170.165 71.9941C170.391 71.8301 170.659 71.7129 170.968 71.6426C171.28 71.5684 171.62 71.5312 171.987 71.5312C172.292 71.5312 172.587 71.5625 172.872 71.625C173.161 71.6875 173.417 71.7891 173.639 71.9297C173.862 72.0664 174.04 72.2461 174.173 72.4688C174.309 72.6875 174.378 72.9551 174.378 73.2715V76.9219C174.378 77.0234 174.405 77.1113 174.46 77.1855C174.514 77.2559 174.602 77.291 174.723 77.291C174.778 77.291 174.835 77.2871 174.893 77.2793C174.952 77.2676 175.012 77.2559 175.075 77.2441V77.9883C174.985 78.0117 174.895 78.0332 174.805 78.0527C174.72 78.0723 174.616 78.082 174.495 78.082C174.307 78.082 174.145 78.0664 174.009 78.0352C173.876 78.0039 173.762 77.9531 173.669 77.8828C173.579 77.8086 173.509 77.7148 173.458 77.6016C173.407 77.4844 173.374 77.3418 173.358 77.1738C173.225 77.3184 173.085 77.4531 172.936 77.5781C172.788 77.6992 172.622 77.8066 172.438 77.9004C172.255 77.9902 172.05 78.0605 171.823 78.1113C171.596 78.166 171.341 78.1934 171.055 78.1934C170.813 78.1934 170.577 78.1543 170.346 78.0762C170.12 77.998 169.915 77.8828 169.731 77.7305C169.552 77.5781 169.407 77.3906 169.298 77.168C169.188 76.9414 169.134 76.6797 169.134 76.3828C169.134 76.0586 169.188 75.7793 169.298 75.5449C169.407 75.3066 169.55 75.1094 169.725 74.9531C169.901 74.793 170.102 74.6699 170.329 74.584C170.555 74.498 170.786 74.4414 171.02 74.4141L172.784 74.1973C172.952 74.1777 173.083 74.1133 173.177 74.0039C173.274 73.8906 173.323 73.7109 173.323 73.4648C173.323 73.0859 173.198 72.8145 172.948 72.6504C172.702 72.4824 172.346 72.3984 171.882 72.3984C171.405 72.3984 171.05 72.5 170.815 72.7031C170.581 72.9023 170.448 73.2031 170.417 73.6055H169.409ZM173.3 74.8066C173.214 74.8691 173.106 74.9219 172.977 74.9648C172.852 75.0039 172.714 75.0371 172.561 75.0645C172.409 75.0918 172.247 75.1172 172.075 75.1406C171.903 75.1602 171.731 75.1816 171.559 75.2051C171.364 75.2324 171.184 75.2715 171.02 75.3223C170.856 75.373 170.714 75.4395 170.593 75.5215C170.471 75.6035 170.378 75.7031 170.311 75.8203C170.245 75.9336 170.212 76.0684 170.212 76.2246C170.212 76.4043 170.239 76.5625 170.294 76.6992C170.352 76.8359 170.43 76.9512 170.528 77.0449C170.63 77.1387 170.751 77.209 170.891 77.2559C171.032 77.3027 171.186 77.3262 171.354 77.3262C171.46 77.3262 171.581 77.3145 171.718 77.291C171.854 77.2637 171.995 77.2246 172.139 77.1738C172.284 77.123 172.425 77.0586 172.561 76.9805C172.702 76.8984 172.827 76.8008 172.936 76.6875C173.046 76.5742 173.134 76.4453 173.2 76.3008C173.266 76.1562 173.3 75.9941 173.3 75.8145V74.8066ZM176.22 71.7246H177.299V77.0625H179.56V71.7246H180.638V77.0625H182.894V71.7246H183.972V78H176.22V71.7246ZM185.68 71.7246H186.758V74.2559H189.688V71.7246H190.772V78H189.688V75.1934H186.758V78H185.68V71.7246ZM197.824 75.9961C197.781 76.2695 197.687 76.5371 197.542 76.7988C197.398 77.0605 197.208 77.2949 196.974 77.502C196.74 77.709 196.462 77.875 196.142 78C195.826 78.1289 195.474 78.1934 195.087 78.1934C194.665 78.1934 194.275 78.125 193.915 77.9883C193.56 77.8477 193.251 77.6387 192.99 77.3613C192.732 77.0801 192.529 76.7285 192.38 76.3066C192.232 75.8848 192.158 75.3887 192.158 74.8184C192.158 74.4355 192.199 74.0898 192.281 73.7812C192.367 73.4688 192.48 73.1914 192.621 72.9492C192.765 72.7031 192.931 72.4922 193.119 72.3164C193.306 72.1367 193.503 71.9902 193.71 71.877C193.921 71.7598 194.136 71.6738 194.355 71.6191C194.574 71.5605 194.785 71.5312 194.988 71.5312C195.417 71.5312 195.81 71.5957 196.165 71.7246C196.521 71.8535 196.826 72.0508 197.08 72.3164C197.337 72.5781 197.537 72.9082 197.677 73.3066C197.822 73.7012 197.894 74.166 197.894 74.7012V75.2402H193.306C193.31 75.5449 193.353 75.8223 193.435 76.0723C193.517 76.3184 193.634 76.5293 193.787 76.7051C193.939 76.8809 194.122 77.0176 194.337 77.1152C194.556 77.209 194.802 77.2559 195.076 77.2559C195.353 77.2559 195.587 77.2168 195.779 77.1387C195.97 77.0605 196.13 76.9609 196.259 76.8398C196.388 76.7188 196.492 76.584 196.57 76.4355C196.652 76.2871 196.72 76.1406 196.775 75.9961H197.824ZM196.81 74.3789C196.802 74.0742 196.755 73.8027 196.669 73.5645C196.587 73.3262 196.47 73.127 196.318 72.9668C196.169 72.8027 195.99 72.6797 195.779 72.5977C195.568 72.5117 195.333 72.4688 195.076 72.4688C194.83 72.4688 194.603 72.5176 194.396 72.6152C194.189 72.709 194.007 72.8418 193.851 73.0137C193.695 73.1816 193.57 73.3828 193.476 73.6172C193.382 73.8477 193.326 74.1016 193.306 74.3789H196.81ZM204.623 75.9961C204.58 76.2695 204.487 76.5371 204.342 76.7988C204.198 77.0605 204.008 77.2949 203.774 77.502C203.539 77.709 203.262 77.875 202.942 78C202.625 78.1289 202.274 78.1934 201.887 78.1934C201.465 78.1934 201.075 78.125 200.715 77.9883C200.36 77.8477 200.051 77.6387 199.789 77.3613C199.532 77.0801 199.328 76.7285 199.18 76.3066C199.032 75.8848 198.957 75.3887 198.957 74.8184C198.957 74.4355 198.998 74.0898 199.08 73.7812C199.166 73.4688 199.28 73.1914 199.42 72.9492C199.565 72.7031 199.731 72.4922 199.918 72.3164C200.106 72.1367 200.303 71.9902 200.51 71.877C200.721 71.7598 200.936 71.6738 201.155 71.6191C201.373 71.5605 201.584 71.5312 201.787 71.5312C202.217 71.5312 202.61 71.5957 202.965 71.7246C203.321 71.8535 203.625 72.0508 203.879 72.3164C204.137 72.5781 204.336 72.9082 204.477 73.3066C204.621 73.7012 204.694 74.166 204.694 74.7012V75.2402H200.106C200.11 75.5449 200.153 75.8223 200.235 76.0723C200.317 76.3184 200.434 76.5293 200.586 76.7051C200.739 76.8809 200.922 77.0176 201.137 77.1152C201.356 77.209 201.602 77.2559 201.875 77.2559C202.153 77.2559 202.387 77.2168 202.578 77.1387C202.77 77.0605 202.93 76.9609 203.059 76.8398C203.188 76.7188 203.291 76.584 203.369 76.4355C203.451 76.2871 203.52 76.1406 203.575 75.9961H204.623ZM203.61 74.3789C203.602 74.0742 203.555 73.8027 203.469 73.5645C203.387 73.3262 203.27 73.127 203.118 72.9668C202.969 72.8027 202.789 72.6797 202.578 72.5977C202.368 72.5117 202.133 72.4688 201.875 72.4688C201.629 72.4688 201.403 72.5176 201.196 72.6152C200.989 72.709 200.807 72.8418 200.651 73.0137C200.494 73.1816 200.369 73.3828 200.276 73.6172C200.182 73.8477 200.125 74.1016 200.106 74.3789H203.61ZM211.836 72.9961H213.389C213.635 72.9961 213.848 72.959 214.027 72.8848C214.207 72.8066 214.356 72.7051 214.473 72.5801C214.59 72.4512 214.676 72.3086 214.731 72.1523C214.789 71.9922 214.818 71.8301 214.818 71.666C214.818 71.3965 214.766 71.168 214.66 70.9805C214.555 70.793 214.41 70.6406 214.227 70.5234C214.043 70.4023 213.824 70.3145 213.57 70.2598C213.32 70.2051 213.047 70.1777 212.75 70.1777C212.379 70.1777 212.051 70.2305 211.766 70.3359C211.484 70.4375 211.248 70.5762 211.057 70.752C210.869 70.9238 210.729 71.125 210.635 71.3555C210.545 71.5859 210.504 71.8281 210.512 72.082H209.428C209.428 71.7148 209.471 71.3867 209.557 71.0977C209.647 70.8086 209.77 70.5566 209.926 70.3418C210.082 70.127 210.266 69.9453 210.477 69.7969C210.688 69.6484 210.916 69.5273 211.162 69.4336C211.412 69.3398 211.674 69.2734 211.947 69.2344C212.225 69.1914 212.504 69.1699 212.785 69.1699C213.246 69.1699 213.666 69.2207 214.045 69.3223C214.428 69.4199 214.756 69.5684 215.029 69.7676C215.303 69.9629 215.516 70.209 215.668 70.5059C215.82 70.7988 215.897 71.1406 215.897 71.5312C215.897 71.9766 215.809 72.3535 215.633 72.6621C215.461 72.9668 215.162 73.1973 214.736 73.3535V73.3828C214.959 73.4453 215.162 73.5371 215.346 73.6582C215.533 73.7754 215.693 73.9238 215.826 74.1035C215.963 74.2793 216.068 74.4883 216.143 74.7305C216.221 74.9727 216.26 75.25 216.26 75.5625C216.26 76 216.164 76.3848 215.973 76.7168C215.781 77.0488 215.525 77.3262 215.205 77.5488C214.885 77.7715 214.512 77.9375 214.086 78.0469C213.664 78.1602 213.223 78.2168 212.762 78.2168C212.27 78.2168 211.811 78.1699 211.385 78.0762C210.959 77.9863 210.584 77.8359 210.26 77.625C209.94 77.4141 209.682 77.1367 209.486 76.793C209.291 76.4453 209.18 76.0195 209.152 75.5156H210.283C210.303 75.7617 210.359 75.9883 210.453 76.1953C210.551 76.4023 210.693 76.582 210.881 76.7344C211.072 76.8828 211.313 77 211.602 77.0859C211.895 77.168 212.246 77.209 212.656 77.209C213.027 77.209 213.363 77.1777 213.664 77.1152C213.969 77.0527 214.227 76.9531 214.438 76.8164C214.652 76.6797 214.816 76.5039 214.93 76.2891C215.047 76.0703 215.106 75.8086 215.106 75.5039C215.106 75.2773 215.068 75.0703 214.994 74.8828C214.924 74.6953 214.815 74.5332 214.666 74.3965C214.518 74.2598 214.332 74.1543 214.109 74.0801C213.887 74.002 213.623 73.9629 213.318 73.9629H211.836V72.9961ZM217.64 73.6055C217.651 73.2227 217.724 72.9004 217.856 72.6387C217.989 72.373 218.169 72.1582 218.395 71.9941C218.622 71.8301 218.89 71.7129 219.198 71.6426C219.511 71.5684 219.851 71.5312 220.218 71.5312C220.522 71.5312 220.817 71.5625 221.103 71.625C221.392 71.6875 221.647 71.7891 221.87 71.9297C222.093 72.0664 222.27 72.2461 222.403 72.4688C222.54 72.6875 222.608 72.9551 222.608 73.2715V76.9219C222.608 77.0234 222.636 77.1113 222.69 77.1855C222.745 77.2559 222.833 77.291 222.954 77.291C223.009 77.291 223.065 77.2871 223.124 77.2793C223.183 77.2676 223.243 77.2559 223.306 77.2441V77.9883C223.216 78.0117 223.126 78.0332 223.036 78.0527C222.95 78.0723 222.847 78.082 222.726 78.082C222.538 78.082 222.376 78.0664 222.239 78.0352C222.106 78.0039 221.993 77.9531 221.899 77.8828C221.81 77.8086 221.739 77.7148 221.688 77.6016C221.638 77.4844 221.604 77.3418 221.589 77.1738C221.456 77.3184 221.315 77.4531 221.167 77.5781C221.019 77.6992 220.853 77.8066 220.669 77.9004C220.485 77.9902 220.28 78.0605 220.054 78.1113C219.827 78.166 219.571 78.1934 219.286 78.1934C219.044 78.1934 218.808 78.1543 218.577 78.0762C218.351 77.998 218.145 77.8828 217.962 77.7305C217.782 77.5781 217.638 77.3906 217.528 77.168C217.419 76.9414 217.364 76.6797 217.364 76.3828C217.364 76.0586 217.419 75.7793 217.528 75.5449C217.638 75.3066 217.78 75.1094 217.956 74.9531C218.132 74.793 218.333 74.6699 218.56 74.584C218.786 74.498 219.017 74.4414 219.251 74.4141L221.015 74.1973C221.183 74.1777 221.313 74.1133 221.407 74.0039C221.505 73.8906 221.554 73.7109 221.554 73.4648C221.554 73.0859 221.429 72.8145 221.179 72.6504C220.933 72.4824 220.577 72.3984 220.112 72.3984C219.636 72.3984 219.28 72.5 219.046 72.7031C218.811 72.9023 218.679 73.2031 218.647 73.6055H217.64ZM221.53 74.8066C221.444 74.8691 221.337 74.9219 221.208 74.9648C221.083 75.0039 220.944 75.0371 220.792 75.0645C220.64 75.0918 220.478 75.1172 220.306 75.1406C220.134 75.1602 219.962 75.1816 219.79 75.2051C219.595 75.2324 219.415 75.2715 219.251 75.3223C219.087 75.373 218.944 75.4395 218.823 75.5215C218.702 75.6035 218.608 75.7031 218.542 75.8203C218.476 75.9336 218.442 76.0684 218.442 76.2246C218.442 76.4043 218.47 76.5625 218.524 76.6992C218.583 76.8359 218.661 76.9512 218.759 77.0449C218.86 77.1387 218.981 77.209 219.122 77.2559C219.263 77.3027 219.417 77.3262 219.585 77.3262C219.69 77.3262 219.811 77.3145 219.948 77.291C220.085 77.2637 220.226 77.2246 220.37 77.1738C220.515 77.123 220.655 77.0586 220.792 76.9805C220.933 76.8984 221.058 76.8008 221.167 76.6875C221.276 76.5742 221.364 76.4453 221.431 76.3008C221.497 76.1562 221.53 75.9941 221.53 75.8145V74.8066ZM229.683 78H224.832V79.5352H223.824V77.0625H224.65C224.822 76.6406 224.959 76.2109 225.06 75.7734C225.162 75.332 225.24 74.8887 225.295 74.4434C225.349 73.9941 225.385 73.543 225.4 73.0898C225.416 72.6367 225.424 72.1816 225.424 71.7246H229.806V77.0625H230.691V79.5352H229.683V78ZM228.728 77.0625V72.6621H226.455C226.428 73.0176 226.398 73.3828 226.367 73.7578C226.34 74.1328 226.301 74.5098 226.25 74.8887C226.203 75.2637 226.139 75.6348 226.056 76.002C225.978 76.3691 225.875 76.7227 225.746 77.0625H228.728ZM231.837 73.6055C231.848 73.2227 231.921 72.9004 232.053 72.6387C232.186 72.373 232.366 72.1582 232.592 71.9941C232.819 71.8301 233.087 71.7129 233.395 71.6426C233.708 71.5684 234.048 71.5312 234.415 71.5312C234.719 71.5312 235.014 71.5625 235.3 71.625C235.589 71.6875 235.844 71.7891 236.067 71.9297C236.29 72.0664 236.467 72.2461 236.6 72.4688C236.737 72.6875 236.805 72.9551 236.805 73.2715V76.9219C236.805 77.0234 236.833 77.1113 236.887 77.1855C236.942 77.2559 237.03 77.291 237.151 77.291C237.206 77.291 237.262 77.2871 237.321 77.2793C237.38 77.2676 237.44 77.2559 237.503 77.2441V77.9883C237.413 78.0117 237.323 78.0332 237.233 78.0527C237.147 78.0723 237.044 78.082 236.923 78.082C236.735 78.082 236.573 78.0664 236.436 78.0352C236.303 78.0039 236.19 77.9531 236.096 77.8828C236.007 77.8086 235.936 77.7148 235.885 77.6016C235.835 77.4844 235.801 77.3418 235.786 77.1738C235.653 77.3184 235.512 77.4531 235.364 77.5781C235.216 77.6992 235.05 77.8066 234.866 77.9004C234.682 77.9902 234.477 78.0605 234.251 78.1113C234.024 78.166 233.768 78.1934 233.483 78.1934C233.241 78.1934 233.005 78.1543 232.774 78.0762C232.548 77.998 232.342 77.8828 232.159 77.7305C231.979 77.5781 231.835 77.3906 231.725 77.168C231.616 76.9414 231.561 76.6797 231.561 76.3828C231.561 76.0586 231.616 75.7793 231.725 75.5449C231.835 75.3066 231.977 75.1094 232.153 74.9531C232.329 74.793 232.53 74.6699 232.757 74.584C232.983 74.498 233.214 74.4414 233.448 74.4141L235.212 74.1973C235.38 74.1777 235.51 74.1133 235.604 74.0039C235.702 73.8906 235.751 73.7109 235.751 73.4648C235.751 73.0859 235.626 72.8145 235.376 72.6504C235.13 72.4824 234.774 72.3984 234.309 72.3984C233.833 72.3984 233.477 72.5 233.243 72.7031C233.009 72.9023 232.876 73.2031 232.844 73.6055H231.837ZM235.727 74.8066C235.641 74.8691 235.534 74.9219 235.405 74.9648C235.28 75.0039 235.141 75.0371 234.989 75.0645C234.837 75.0918 234.675 75.1172 234.503 75.1406C234.331 75.1602 234.159 75.1816 233.987 75.2051C233.792 75.2324 233.612 75.2715 233.448 75.3223C233.284 75.373 233.141 75.4395 233.02 75.5215C232.899 75.6035 232.805 75.7031 232.739 75.8203C232.673 75.9336 232.639 76.0684 232.639 76.2246C232.639 76.4043 232.667 76.5625 232.721 76.6992C232.78 76.8359 232.858 76.9512 232.956 77.0449C233.057 77.1387 233.178 77.209 233.319 77.2559C233.46 77.3027 233.614 77.3262 233.782 77.3262C233.887 77.3262 234.009 77.3145 234.145 77.291C234.282 77.2637 234.423 77.2246 234.567 77.1738C234.712 77.123 234.852 77.0586 234.989 76.9805C235.13 76.8984 235.255 76.8008 235.364 76.6875C235.473 76.5742 235.561 76.4453 235.628 76.3008C235.694 76.1562 235.727 75.9941 235.727 75.8145V74.8066ZM238.648 71.7246H239.726V74.2559H242.656V71.7246H243.74V78H242.656V75.1934H239.726V78H238.648V71.7246ZM245.448 71.7246H246.526V76.5352H246.549L249.631 71.7246H250.868V78H249.784V73.1895H249.76L246.684 78H245.448V71.7246ZM257.919 75.9961C257.876 76.2695 257.783 76.5371 257.638 76.7988C257.494 77.0605 257.304 77.2949 257.07 77.502C256.835 77.709 256.558 77.875 256.238 78C255.921 78.1289 255.57 78.1934 255.183 78.1934C254.761 78.1934 254.37 78.125 254.011 77.9883C253.656 77.8477 253.347 77.6387 253.085 77.3613C252.827 77.0801 252.624 76.7285 252.476 76.3066C252.327 75.8848 252.253 75.3887 252.253 74.8184C252.253 74.4355 252.294 74.0898 252.376 73.7812C252.462 73.4688 252.576 73.1914 252.716 72.9492C252.861 72.7031 253.027 72.4922 253.214 72.3164C253.402 72.1367 253.599 71.9902 253.806 71.877C254.017 71.7598 254.232 71.6738 254.451 71.6191C254.669 71.5605 254.88 71.5312 255.083 71.5312C255.513 71.5312 255.906 71.5957 256.261 71.7246C256.617 71.8535 256.921 72.0508 257.175 72.3164C257.433 72.5781 257.632 72.9082 257.773 73.3066C257.917 73.7012 257.99 74.166 257.99 74.7012V75.2402H253.402C253.406 75.5449 253.449 75.8223 253.531 76.0723C253.613 76.3184 253.73 76.5293 253.882 76.7051C254.035 76.8809 254.218 77.0176 254.433 77.1152C254.652 77.209 254.898 77.2559 255.171 77.2559C255.449 77.2559 255.683 77.2168 255.874 77.1387C256.066 77.0605 256.226 76.9609 256.355 76.8398C256.484 76.7188 256.587 76.584 256.665 76.4355C256.747 76.2871 256.816 76.1406 256.87 75.9961H257.919ZM256.906 74.3789C256.898 74.0742 256.851 73.8027 256.765 73.5645C256.683 73.3262 256.566 73.127 256.413 72.9668C256.265 72.8027 256.085 72.6797 255.874 72.5977C255.663 72.5117 255.429 72.4688 255.171 72.4688C254.925 72.4688 254.699 72.5176 254.492 72.6152C254.285 72.709 254.103 72.8418 253.947 73.0137C253.79 73.1816 253.665 73.3828 253.572 73.6172C253.478 73.8477 253.421 74.1016 253.402 74.3789H256.906Z" fill="#A6ACBE"/>
    <circle cx="56" cy="56" r="25" fill="#4CB8FF" fill-opacity="0.07"/>
    <path d="M61.479 49.478V62.978H53.229C52.6323 62.978 52.06 62.741 51.638 62.319C51.2161 61.8971 50.979 61.3248 50.979 60.728V51.728C50.979 51.1313 51.2161 50.559 51.638 50.137C52.06 49.7151 52.6323 49.478 53.229 49.478H61.479Z" stroke="#4CB8FF" stroke-width="1.48861" stroke-linecap="square"/>
    <path d="M50.979 60.728C50.979 60.1313 51.2161 59.559 51.638 59.137C52.06 58.7151 52.6323 58.478 53.229 58.478H61.479" stroke="#4CB8FF" stroke-width="1.48861" stroke-linecap="square"/>
</svg>
