<svg width="298" height="117" viewBox="0 0 298 117" fill="none" xmlns="http://www.w3.org/2000/svg">
    <rect width="294" height="115" rx="7" fill="#EDEDF6"/>
    <rect width="294" height="112" rx="7" fill="white"/>
    <path d="M98.9528 41.5435V40.1204C100.293 39.9898 101.228 39.7733 101.758 39.4708C102.287 39.1614 102.682 38.4361 102.944 37.2949H104.408V52H102.428V41.5435H98.9528ZM114.385 52.4022C112.639 52.4022 111.37 51.9244 110.58 50.9688C109.796 50.0063 109.404 48.8376 109.404 47.4627H111.343C111.425 48.4183 111.604 49.1126 111.879 49.5457C112.36 50.3226 113.23 50.711 114.488 50.711C115.464 50.711 116.248 50.4497 116.839 49.9273C117.43 49.4048 117.726 48.7311 117.726 47.9061C117.726 46.8886 117.413 46.1771 116.787 45.7715C116.169 45.3659 115.306 45.1631 114.199 45.1631C114.075 45.1631 113.948 45.1665 113.818 45.1734C113.694 45.1734 113.567 45.1768 113.436 45.1837V43.5441C113.628 43.5647 113.79 43.5784 113.921 43.5853C114.051 43.5922 114.192 43.5956 114.343 43.5956C115.038 43.5956 115.608 43.4856 116.055 43.2656C116.839 42.8806 117.231 42.1932 117.231 41.2032C117.231 40.4676 116.97 39.9004 116.447 39.5017C115.925 39.103 115.316 38.9036 114.622 38.9036C113.384 38.9036 112.529 39.3161 112.054 40.1411C111.793 40.5948 111.645 41.241 111.611 42.0797H109.775C109.775 40.9798 109.995 40.0448 110.435 39.2748C111.191 37.8999 112.522 37.2124 114.426 37.2124C115.932 37.2124 117.097 37.5493 117.922 38.223C118.747 38.8899 119.159 39.8592 119.159 41.131C119.159 42.0385 118.915 42.7741 118.427 43.3378C118.125 43.6884 117.733 43.9634 117.251 44.1628C118.028 44.3759 118.633 44.7884 119.066 45.4002C119.506 46.0052 119.726 46.7477 119.726 47.6277C119.726 49.037 119.262 50.1851 118.334 51.0719C117.406 51.9588 116.09 52.4022 114.385 52.4022ZM123.671 48.432C123.726 49.4563 124.121 50.1644 124.856 50.5563C125.235 50.7625 125.661 50.8657 126.135 50.8657C127.022 50.8657 127.778 50.4979 128.404 49.7623C129.029 49.0198 129.473 47.5177 129.734 45.2559C129.322 45.909 128.809 46.3696 128.198 46.6377C127.593 46.8989 126.939 47.0296 126.238 47.0296C124.815 47.0296 123.688 46.5861 122.856 45.6993C122.031 44.8125 121.618 43.6712 121.618 42.2757C121.618 40.9351 122.027 39.7561 122.846 38.7386C123.664 37.7212 124.87 37.2124 126.465 37.2124C128.617 37.2124 130.102 38.1818 130.92 40.1204C131.374 41.186 131.601 42.5197 131.601 44.1215C131.601 45.9296 131.329 47.5314 130.786 48.927C129.885 51.2507 128.359 52.4125 126.207 52.4125C124.764 52.4125 123.667 52.0344 122.918 51.2782C122.168 50.5219 121.794 49.5732 121.794 48.432H123.671ZM126.486 45.4002C127.221 45.4002 127.892 45.1596 128.497 44.6784C129.108 44.1903 129.414 43.3413 129.414 42.1313C129.414 41.0451 129.139 40.2373 128.589 39.708C128.046 39.1717 127.352 38.9036 126.506 38.9036C125.599 38.9036 124.877 39.2095 124.341 39.8214C123.811 40.4264 123.547 41.2376 123.547 42.255C123.547 43.2175 123.781 43.984 124.248 44.5546C124.716 45.1184 125.461 45.4002 126.486 45.4002Z" fill="black"/>
    <path d="M102.771 74.4492C102.658 74.5078 102.523 74.5625 102.367 74.6133C102.215 74.6641 102.045 74.709 101.857 74.748C101.67 74.7832 101.471 74.8125 101.26 74.8359C101.049 74.8594 100.832 74.8711 100.609 74.8711C100.199 74.8711 99.8105 74.832 99.4434 74.7539C99.0762 74.6719 98.752 74.5312 98.4707 74.332C98.1934 74.1289 97.9727 73.8594 97.8086 73.5234C97.6445 73.1836 97.5625 72.7559 97.5625 72.2402V69.3867H98.7168V72.1172C98.7168 72.4727 98.7637 72.7637 98.8574 72.9902C98.9551 73.2168 99.0938 73.3945 99.2734 73.5234C99.457 73.6523 99.6797 73.7422 99.9414 73.793C100.203 73.8398 100.502 73.8633 100.838 73.8633C101.025 73.8633 101.215 73.8516 101.406 73.8281C101.602 73.8047 101.785 73.7734 101.957 73.7344C102.133 73.6953 102.291 73.6504 102.432 73.5996C102.576 73.5488 102.689 73.4961 102.771 73.4414V69.3867H103.926V78H102.771V74.4492ZM105.716 73.6055C105.727 73.2227 105.8 72.9004 105.932 72.6387C106.065 72.373 106.245 72.1582 106.472 71.9941C106.698 71.8301 106.966 71.7129 107.274 71.6426C107.587 71.5684 107.927 71.5312 108.294 71.5312C108.599 71.5312 108.893 71.5625 109.179 71.625C109.468 71.6875 109.724 71.7891 109.946 71.9297C110.169 72.0664 110.347 72.2461 110.479 72.4688C110.616 72.6875 110.684 72.9551 110.684 73.2715V76.9219C110.684 77.0234 110.712 77.1113 110.766 77.1855C110.821 77.2559 110.909 77.291 111.03 77.291C111.085 77.291 111.141 77.2871 111.2 77.2793C111.259 77.2676 111.319 77.2559 111.382 77.2441V77.9883C111.292 78.0117 111.202 78.0332 111.112 78.0527C111.026 78.0723 110.923 78.082 110.802 78.082C110.614 78.082 110.452 78.0664 110.315 78.0352C110.182 78.0039 110.069 77.9531 109.975 77.8828C109.886 77.8086 109.815 77.7148 109.765 77.6016C109.714 77.4844 109.681 77.3418 109.665 77.1738C109.532 77.3184 109.391 77.4531 109.243 77.5781C109.095 77.6992 108.929 77.8066 108.745 77.9004C108.561 77.9902 108.356 78.0605 108.13 78.1113C107.903 78.166 107.647 78.1934 107.362 78.1934C107.12 78.1934 106.884 78.1543 106.653 78.0762C106.427 77.998 106.222 77.8828 106.038 77.7305C105.858 77.5781 105.714 77.3906 105.604 77.168C105.495 76.9414 105.44 76.6797 105.44 76.3828C105.44 76.0586 105.495 75.7793 105.604 75.5449C105.714 75.3066 105.856 75.1094 106.032 74.9531C106.208 74.793 106.409 74.6699 106.636 74.584C106.862 74.498 107.093 74.4414 107.327 74.4141L109.091 74.1973C109.259 74.1777 109.39 74.1133 109.483 74.0039C109.581 73.8906 109.63 73.7109 109.63 73.4648C109.63 73.0859 109.505 72.8145 109.255 72.6504C109.009 72.4824 108.653 72.3984 108.188 72.3984C107.712 72.3984 107.356 72.5 107.122 72.7031C106.888 72.9023 106.755 73.2031 106.724 73.6055H105.716ZM109.606 74.8066C109.52 74.8691 109.413 74.9219 109.284 74.9648C109.159 75.0039 109.02 75.0371 108.868 75.0645C108.716 75.0918 108.554 75.1172 108.382 75.1406C108.21 75.1602 108.038 75.1816 107.866 75.2051C107.671 75.2324 107.491 75.2715 107.327 75.3223C107.163 75.373 107.02 75.4395 106.899 75.5215C106.778 75.6035 106.684 75.7031 106.618 75.8203C106.552 75.9336 106.518 76.0684 106.518 76.2246C106.518 76.4043 106.546 76.5625 106.6 76.6992C106.659 76.8359 106.737 76.9512 106.835 77.0449C106.936 77.1387 107.057 77.209 107.198 77.2559C107.339 77.3027 107.493 77.3262 107.661 77.3262C107.766 77.3262 107.888 77.3145 108.024 77.291C108.161 77.2637 108.302 77.2246 108.446 77.1738C108.591 77.123 108.731 77.0586 108.868 76.9805C109.009 76.8984 109.134 76.8008 109.243 76.6875C109.352 76.5742 109.44 76.4453 109.507 76.3008C109.573 76.1562 109.606 75.9941 109.606 75.8145V74.8066ZM117.461 75.791C117.445 75.9434 117.414 76.1094 117.367 76.2891C117.324 76.4688 117.26 76.6484 117.174 76.8281C117.088 77.0039 116.976 77.1738 116.84 77.3379C116.707 77.502 116.543 77.6484 116.347 77.7773C116.156 77.9023 115.929 78.002 115.668 78.0762C115.406 78.1543 115.107 78.1934 114.771 78.1934C114.588 78.1934 114.394 78.1699 114.191 78.123C113.988 78.0801 113.789 78.0059 113.594 77.9004C113.402 77.7949 113.219 77.6602 113.043 77.4961C112.871 77.3281 112.719 77.1211 112.586 76.875C112.457 76.6289 112.353 76.3438 112.275 76.0195C112.197 75.6914 112.158 75.3164 112.158 74.8945C112.158 74.375 112.232 73.9082 112.381 73.4941C112.529 73.0762 112.726 72.7227 112.972 72.4336C113.222 72.1445 113.511 71.9219 113.84 71.7656C114.172 71.6094 114.519 71.5312 114.883 71.5312C115.211 71.5312 115.5 71.5664 115.75 71.6367C116.004 71.707 116.224 71.8008 116.412 71.918C116.599 72.0352 116.758 72.1719 116.886 72.3281C117.015 72.4805 117.119 72.6426 117.197 72.8145C117.279 72.9824 117.34 73.1543 117.379 73.3301C117.422 73.5059 117.449 73.6738 117.461 73.834H116.453C116.398 73.4082 116.25 73.0742 116.008 72.832C115.769 72.5898 115.433 72.4688 115 72.4688C114.703 72.4688 114.443 72.5293 114.22 72.6504C114.002 72.7715 113.818 72.9414 113.67 73.1602C113.525 73.375 113.416 73.6367 113.342 73.9453C113.271 74.25 113.236 74.5859 113.236 74.9531C113.236 75.3672 113.275 75.7246 113.353 76.0254C113.431 76.3223 113.543 76.5684 113.687 76.7637C113.832 76.9551 114.008 77.0977 114.215 77.1914C114.426 77.2812 114.664 77.3262 114.929 77.3262C115.117 77.3262 115.295 77.293 115.463 77.2266C115.631 77.1562 115.781 77.0566 115.914 76.9277C116.047 76.7949 116.16 76.6328 116.254 76.4414C116.347 76.25 116.414 76.0332 116.453 75.791H117.461ZM124.647 71.7246H125.725V78H124.647V71.7246ZM118.647 71.7246H119.725V74.0859H121.612C121.952 74.0859 122.256 74.1328 122.526 74.2266C122.799 74.3164 123.03 74.4473 123.217 74.6191C123.405 74.7871 123.548 74.9922 123.645 75.2344C123.747 75.4727 123.798 75.7422 123.798 76.043C123.798 76.3477 123.747 76.6211 123.645 76.8633C123.548 77.1016 123.405 77.3066 123.217 77.4785C123.03 77.6465 122.799 77.7754 122.526 77.8652C122.256 77.9551 121.952 78 121.612 78H118.647V71.7246ZM119.725 77.1387H121.395C121.583 77.1387 121.756 77.1191 121.917 77.0801C122.081 77.041 122.221 76.9785 122.339 76.8926C122.456 76.8027 122.548 76.6895 122.614 76.5527C122.68 76.4121 122.714 76.2422 122.714 76.043C122.714 75.8477 122.678 75.6816 122.608 75.5449C122.542 75.4082 122.446 75.2969 122.321 75.2109C122.2 75.1211 122.051 75.0566 121.876 75.0176C121.704 74.9746 121.512 74.9531 121.301 74.9531H119.725V77.1387ZM134.907 72.6621H131.977V78H130.899V71.7246H135.991V78H134.907V72.6621ZM137.64 71.7246H138.718V72.5859H138.741C138.812 72.4414 138.9 72.3047 139.005 72.1758C139.115 72.0469 139.243 71.9355 139.392 71.8418C139.544 71.7441 139.718 71.668 139.913 71.6133C140.113 71.5586 140.339 71.5312 140.593 71.5312C140.929 71.5312 141.251 71.5957 141.56 71.7246C141.868 71.8535 142.142 72.0469 142.38 72.3047C142.618 72.5625 142.808 72.8867 142.949 73.2773C143.089 73.6641 143.159 74.1152 143.159 74.6309C143.159 75.2754 143.093 75.8242 142.96 76.2773C142.831 76.7266 142.646 77.0938 142.404 77.3789C142.165 77.6641 141.876 77.8711 141.536 78C141.197 78.1289 140.818 78.1934 140.4 78.1934C140.193 78.1934 139.999 78.166 139.82 78.1113C139.64 78.0566 139.478 77.9863 139.333 77.9004C139.193 77.8105 139.072 77.7129 138.97 77.6074C138.868 77.498 138.792 77.3926 138.741 77.291H138.718V80.4727H137.64V71.7246ZM138.695 74.8945C138.695 75.2344 138.728 75.5488 138.794 75.8379C138.861 76.123 138.962 76.3711 139.099 76.582C139.24 76.793 139.413 76.959 139.62 77.0801C139.831 77.1973 140.079 77.2559 140.365 77.2559C140.661 77.2559 140.917 77.1973 141.132 77.0801C141.351 76.959 141.531 76.793 141.671 76.582C141.812 76.3711 141.915 76.123 141.982 75.8379C142.048 75.5488 142.081 75.2344 142.081 74.8945C142.081 74.5391 142.048 74.2129 141.982 73.916C141.915 73.6191 141.812 73.3633 141.671 73.1484C141.531 72.9336 141.351 72.7676 141.132 72.6504C140.917 72.5293 140.661 72.4688 140.365 72.4688C140.079 72.4688 139.831 72.5293 139.62 72.6504C139.413 72.7676 139.24 72.9336 139.099 73.1484C138.962 73.3633 138.861 73.6191 138.794 73.916C138.728 74.2129 138.695 74.5391 138.695 74.8945ZM148.881 74.8535C148.881 74.5059 148.842 74.1875 148.764 73.8984C148.686 73.6055 148.569 73.3535 148.412 73.1426C148.256 72.9316 148.063 72.7676 147.832 72.6504C147.606 72.5293 147.342 72.4688 147.041 72.4688C146.74 72.4688 146.477 72.5293 146.25 72.6504C146.024 72.7676 145.832 72.9316 145.676 73.1426C145.52 73.3535 145.403 73.6055 145.324 73.8984C145.246 74.1875 145.207 74.5059 145.207 74.8535C145.207 75.2051 145.246 75.5293 145.324 75.8262C145.403 76.1191 145.52 76.3711 145.676 76.582C145.832 76.793 146.024 76.959 146.25 77.0801C146.477 77.1973 146.74 77.2559 147.041 77.2559C147.342 77.2559 147.606 77.1973 147.832 77.0801C148.063 76.959 148.256 76.793 148.412 76.582C148.569 76.3711 148.686 76.1191 148.764 75.8262C148.842 75.5293 148.881 75.2051 148.881 74.8535ZM149.959 74.8535C149.959 75.3691 149.893 75.834 149.76 76.248C149.627 76.6582 149.436 77.0078 149.186 77.2969C148.936 77.5859 148.629 77.8086 148.266 77.9648C147.906 78.1172 147.498 78.1934 147.041 78.1934C146.584 78.1934 146.176 78.1172 145.817 77.9648C145.457 77.8086 145.153 77.5859 144.903 77.2969C144.653 77.0078 144.461 76.6582 144.328 76.248C144.195 75.834 144.129 75.3691 144.129 74.8535C144.129 74.3457 144.195 73.8867 144.328 73.4766C144.461 73.0664 144.653 72.7168 144.903 72.4277C145.153 72.1387 145.457 71.918 145.817 71.7656C146.176 71.6094 146.584 71.5312 147.041 71.5312C147.498 71.5312 147.906 71.6094 148.266 71.7656C148.629 71.918 148.936 72.1387 149.186 72.4277C149.436 72.7168 149.627 73.0664 149.76 73.4766C149.893 73.8867 149.959 74.3457 149.959 74.8535ZM151.298 71.7246H153.97C154.735 71.7246 155.308 71.8672 155.687 72.1523C156.069 72.4375 156.261 72.8516 156.261 73.3945C156.261 73.6836 156.19 73.9277 156.05 74.127C155.909 74.3262 155.724 74.502 155.493 74.6543C155.825 74.7793 156.089 74.959 156.284 75.1934C156.48 75.4277 156.577 75.7305 156.577 76.1016C156.577 76.3945 156.528 76.6582 156.431 76.8926C156.333 77.127 156.185 77.3262 155.985 77.4902C155.786 77.6543 155.532 77.7812 155.224 77.8711C154.919 77.957 154.558 78 154.14 78H151.298V71.7246ZM152.376 77.1387H154.017C154.302 77.1387 154.538 77.1172 154.726 77.0742C154.917 77.0273 155.069 76.9609 155.183 76.875C155.296 76.7891 155.376 76.6855 155.423 76.5645C155.47 76.4434 155.493 76.3066 155.493 76.1543C155.493 76.002 155.47 75.8652 155.423 75.7441C155.376 75.6191 155.296 75.5156 155.183 75.4336C155.069 75.3477 154.917 75.2832 154.726 75.2402C154.538 75.1934 154.302 75.1699 154.017 75.1699H152.376V77.1387ZM152.376 74.3789H154.005C154.368 74.3789 154.655 74.3066 154.866 74.1621C155.077 74.0176 155.183 73.793 155.183 73.4883C155.183 73.3164 155.153 73.1738 155.095 73.0605C155.036 72.9434 154.958 72.8496 154.86 72.7793C154.763 72.709 154.651 72.6602 154.526 72.6328C154.405 72.6016 154.28 72.5859 154.151 72.5859H152.376V74.3789ZM163.336 75.9961C163.293 76.2695 163.199 76.5371 163.055 76.7988C162.91 77.0605 162.721 77.2949 162.486 77.502C162.252 77.709 161.975 77.875 161.654 78C161.338 78.1289 160.986 78.1934 160.6 78.1934C160.178 78.1934 159.787 78.125 159.428 77.9883C159.072 77.8477 158.764 77.6387 158.502 77.3613C158.244 77.0801 158.041 76.7285 157.893 76.3066C157.744 75.8848 157.67 75.3887 157.67 74.8184C157.67 74.4355 157.711 74.0898 157.793 73.7812C157.879 73.4688 157.992 73.1914 158.133 72.9492C158.277 72.7031 158.443 72.4922 158.631 72.3164C158.818 72.1367 159.016 71.9902 159.223 71.877C159.434 71.7598 159.648 71.6738 159.867 71.6191C160.086 71.5605 160.297 71.5312 160.5 71.5312C160.93 71.5312 161.322 71.5957 161.678 71.7246C162.033 71.8535 162.338 72.0508 162.592 72.3164C162.85 72.5781 163.049 72.9082 163.189 73.3066C163.334 73.7012 163.406 74.166 163.406 74.7012V75.2402H158.818C158.822 75.5449 158.865 75.8223 158.947 76.0723C159.029 76.3184 159.146 76.5293 159.299 76.7051C159.451 76.8809 159.635 77.0176 159.85 77.1152C160.068 77.209 160.314 77.2559 160.588 77.2559C160.865 77.2559 161.1 77.2168 161.291 77.1387C161.482 77.0605 161.643 76.9609 161.771 76.8398C161.9 76.7188 162.004 76.584 162.082 76.4355C162.164 76.2871 162.232 76.1406 162.287 75.9961H163.336ZM162.322 74.3789C162.314 74.0742 162.268 73.8027 162.182 73.5645C162.1 73.3262 161.982 73.127 161.83 72.9668C161.682 72.8027 161.502 72.6797 161.291 72.5977C161.08 72.5117 160.846 72.4688 160.588 72.4688C160.342 72.4688 160.115 72.5176 159.908 72.6152C159.701 72.709 159.519 72.8418 159.363 73.0137C159.207 73.1816 159.082 73.3828 158.988 73.6172C158.894 73.8477 158.838 74.1016 158.818 74.3789H162.322ZM170.024 78H165.173V79.5352H164.165V77.0625H164.991C165.163 76.6406 165.3 76.2109 165.401 75.7734C165.503 75.332 165.581 74.8887 165.636 74.4434C165.69 73.9941 165.725 73.543 165.741 73.0898C165.757 72.6367 165.764 72.1816 165.764 71.7246H170.147V77.0625H171.032V79.5352H170.024V78ZM169.069 77.0625V72.6621H166.796C166.768 73.0176 166.739 73.3828 166.708 73.7578C166.68 74.1328 166.641 74.5098 166.591 74.8887C166.544 75.2637 166.479 75.6348 166.397 76.002C166.319 76.3691 166.216 76.7227 166.087 77.0625H169.069ZM177.533 75.9961C177.49 76.2695 177.396 76.5371 177.252 76.7988C177.107 77.0605 176.918 77.2949 176.683 77.502C176.449 77.709 176.172 77.875 175.851 78C175.535 78.1289 175.183 78.1934 174.797 78.1934C174.375 78.1934 173.984 78.125 173.625 77.9883C173.269 77.8477 172.961 77.6387 172.699 77.3613C172.441 77.0801 172.238 76.7285 172.09 76.3066C171.941 75.8848 171.867 75.3887 171.867 74.8184C171.867 74.4355 171.908 74.0898 171.99 73.7812C172.076 73.4688 172.189 73.1914 172.33 72.9492C172.474 72.7031 172.64 72.4922 172.828 72.3164C173.015 72.1367 173.213 71.9902 173.42 71.877C173.631 71.7598 173.845 71.6738 174.064 71.6191C174.283 71.5605 174.494 71.5312 174.697 71.5312C175.127 71.5312 175.519 71.5957 175.875 71.7246C176.23 71.8535 176.535 72.0508 176.789 72.3164C177.047 72.5781 177.246 72.9082 177.386 73.3066C177.531 73.7012 177.603 74.166 177.603 74.7012V75.2402H173.015C173.019 75.5449 173.062 75.8223 173.144 76.0723C173.226 76.3184 173.343 76.5293 173.496 76.7051C173.648 76.8809 173.832 77.0176 174.047 77.1152C174.265 77.209 174.511 77.2559 174.785 77.2559C175.062 77.2559 175.297 77.2168 175.488 77.1387C175.679 77.0605 175.84 76.9609 175.968 76.8398C176.097 76.7188 176.201 76.584 176.279 76.4355C176.361 76.2871 176.429 76.1406 176.484 75.9961H177.533ZM176.519 74.3789C176.511 74.0742 176.465 73.8027 176.379 73.5645C176.297 73.3262 176.179 73.127 176.027 72.9668C175.879 72.8027 175.699 72.6797 175.488 72.5977C175.277 72.5117 175.043 72.4688 174.785 72.4688C174.539 72.4688 174.312 72.5176 174.105 72.6152C173.898 72.709 173.716 72.8418 173.56 73.0137C173.404 73.1816 173.279 73.3828 173.185 73.6172C173.091 73.8477 173.035 74.1016 173.015 74.3789H176.519ZM178.989 71.7246H180.067V74.2559H182.997V71.7246H184.081V78H182.997V75.1934H180.067V78H178.989V71.7246ZM185.789 71.7246H186.867V74.2559H189.796V71.7246H190.88V78H189.796V75.1934H186.867V78H185.789V71.7246ZM198.588 71.7246H199.666V78H198.588V71.7246ZM192.588 71.7246H193.666V74.0859H195.553C195.893 74.0859 196.198 74.1328 196.467 74.2266C196.741 74.3164 196.971 74.4473 197.159 74.6191C197.346 74.7871 197.489 74.9922 197.586 75.2344C197.688 75.4727 197.739 75.7422 197.739 76.043C197.739 76.3477 197.688 76.6211 197.586 76.8633C197.489 77.1016 197.346 77.3066 197.159 77.4785C196.971 77.6465 196.741 77.7754 196.467 77.8652C196.198 77.9551 195.893 78 195.553 78H192.588V71.7246ZM193.666 77.1387H195.336C195.524 77.1387 195.698 77.1191 195.858 77.0801C196.022 77.041 196.162 76.9785 196.28 76.8926C196.397 76.8027 196.489 76.6895 196.555 76.5527C196.621 76.4121 196.655 76.2422 196.655 76.043C196.655 75.8477 196.619 75.6816 196.549 75.5449C196.483 75.4082 196.387 75.2969 196.262 75.2109C196.141 75.1211 195.993 75.0566 195.817 75.0176C195.645 74.9746 195.453 74.9531 195.243 74.9531H193.666V77.1387ZM206.724 75.9961C206.681 76.2695 206.587 76.5371 206.443 76.7988C206.298 77.0605 206.109 77.2949 205.874 77.502C205.64 77.709 205.363 77.875 205.042 78C204.726 78.1289 204.374 78.1934 203.988 78.1934C203.566 78.1934 203.175 78.125 202.816 77.9883C202.46 77.8477 202.152 77.6387 201.89 77.3613C201.632 77.0801 201.429 76.7285 201.28 76.3066C201.132 75.8848 201.058 75.3887 201.058 74.8184C201.058 74.4355 201.099 74.0898 201.181 73.7812C201.267 73.4688 201.38 73.1914 201.521 72.9492C201.665 72.7031 201.831 72.4922 202.019 72.3164C202.206 72.1367 202.404 71.9902 202.611 71.877C202.821 71.7598 203.036 71.6738 203.255 71.6191C203.474 71.5605 203.685 71.5312 203.888 71.5312C204.318 71.5312 204.71 71.5957 205.066 71.7246C205.421 71.8535 205.726 72.0508 205.98 72.3164C206.238 72.5781 206.437 72.9082 206.577 73.3066C206.722 73.7012 206.794 74.166 206.794 74.7012V75.2402H202.206C202.21 75.5449 202.253 75.8223 202.335 76.0723C202.417 76.3184 202.534 76.5293 202.687 76.7051C202.839 76.8809 203.023 77.0176 203.238 77.1152C203.456 77.209 203.702 77.2559 203.976 77.2559C204.253 77.2559 204.488 77.2168 204.679 77.1387C204.87 77.0605 205.03 76.9609 205.159 76.8398C205.288 76.7188 205.392 76.584 205.47 76.4355C205.552 76.2871 205.62 76.1406 205.675 75.9961H206.724ZM205.71 74.3789C205.702 74.0742 205.655 73.8027 205.57 73.5645C205.488 73.3262 205.37 73.127 205.218 72.9668C205.07 72.8027 204.89 72.6797 204.679 72.5977C204.468 72.5117 204.234 72.4688 203.976 72.4688C203.73 72.4688 203.503 72.5176 203.296 72.6152C203.089 72.709 202.907 72.8418 202.751 73.0137C202.595 73.1816 202.47 73.3828 202.376 73.6172C202.282 73.8477 202.226 74.1016 202.206 74.3789H205.71ZM211.64 71.7246H212.718V74.2559H215.647V71.7246H216.731V78H215.647V75.1934H212.718V78H211.64V71.7246ZM218.428 73.6055C218.439 73.2227 218.512 72.9004 218.644 72.6387C218.777 72.373 218.957 72.1582 219.183 71.9941C219.41 71.8301 219.678 71.7129 219.986 71.6426C220.299 71.5684 220.639 71.5312 221.006 71.5312C221.31 71.5312 221.605 71.5625 221.89 71.625C222.18 71.6875 222.435 71.7891 222.658 71.9297C222.881 72.0664 223.058 72.2461 223.191 72.4688C223.328 72.6875 223.396 72.9551 223.396 73.2715V76.9219C223.396 77.0234 223.424 77.1113 223.478 77.1855C223.533 77.2559 223.621 77.291 223.742 77.291C223.797 77.291 223.853 77.2871 223.912 77.2793C223.971 77.2676 224.031 77.2559 224.094 77.2441V77.9883C224.004 78.0117 223.914 78.0332 223.824 78.0527C223.738 78.0723 223.635 78.082 223.514 78.082C223.326 78.082 223.164 78.0664 223.027 78.0352C222.894 78.0039 222.781 77.9531 222.687 77.8828C222.598 77.8086 222.527 77.7148 222.476 77.6016C222.426 77.4844 222.392 77.3418 222.377 77.1738C222.244 77.3184 222.103 77.4531 221.955 77.5781C221.806 77.6992 221.64 77.8066 221.457 77.9004C221.273 77.9902 221.068 78.0605 220.842 78.1113C220.615 78.166 220.359 78.1934 220.074 78.1934C219.832 78.1934 219.596 78.1543 219.365 78.0762C219.139 77.998 218.933 77.8828 218.75 77.7305C218.57 77.5781 218.426 77.3906 218.316 77.168C218.207 76.9414 218.152 76.6797 218.152 76.3828C218.152 76.0586 218.207 75.7793 218.316 75.5449C218.426 75.3066 218.568 75.1094 218.744 74.9531C218.92 74.793 219.121 74.6699 219.348 74.584C219.574 74.498 219.805 74.4414 220.039 74.4141L221.803 74.1973C221.971 74.1777 222.101 74.1133 222.195 74.0039C222.293 73.8906 222.342 73.7109 222.342 73.4648C222.342 73.0859 222.217 72.8145 221.967 72.6504C221.721 72.4824 221.365 72.3984 220.9 72.3984C220.424 72.3984 220.068 72.5 219.834 72.7031C219.599 72.9023 219.467 73.2031 219.435 73.6055H218.428ZM222.318 74.8066C222.232 74.8691 222.125 74.9219 221.996 74.9648C221.871 75.0039 221.732 75.0371 221.58 75.0645C221.428 75.0918 221.265 75.1172 221.094 75.1406C220.922 75.1602 220.75 75.1816 220.578 75.2051C220.383 75.2324 220.203 75.2715 220.039 75.3223C219.875 75.373 219.732 75.4395 219.611 75.5215C219.49 75.6035 219.396 75.7031 219.33 75.8203C219.264 75.9336 219.23 76.0684 219.23 76.2246C219.23 76.4043 219.258 76.5625 219.312 76.6992C219.371 76.8359 219.449 76.9512 219.547 77.0449C219.648 77.1387 219.769 77.209 219.91 77.2559C220.051 77.3027 220.205 77.3262 220.373 77.3262C220.478 77.3262 220.599 77.3145 220.736 77.291C220.873 77.2637 221.014 77.2246 221.158 77.1738C221.303 77.123 221.443 77.0586 221.58 76.9805C221.721 76.8984 221.846 76.8008 221.955 76.6875C222.064 76.5742 222.152 76.4453 222.219 76.3008C222.285 76.1562 222.318 75.9941 222.318 75.8145V74.8066ZM232.923 72.6621H230.521L230.474 74.168C230.451 74.9297 230.392 75.5664 230.298 76.0781C230.205 76.5859 230.076 76.9941 229.912 77.3027C229.752 77.6113 229.556 77.8301 229.326 77.959C229.095 78.0879 228.832 78.1523 228.535 78.1523C228.425 78.1523 228.33 78.1348 228.248 78.0996C228.17 78.0684 228.109 78.0352 228.066 78V77.0508C228.218 77.1094 228.353 77.1387 228.47 77.1387C228.552 77.1387 228.63 77.125 228.705 77.0977C228.783 77.0703 228.855 77.0176 228.921 76.9395C228.992 76.8613 229.056 76.752 229.115 76.6113C229.173 76.4668 229.224 76.2793 229.267 76.0488C229.314 75.8184 229.351 75.5391 229.379 75.2109C229.41 74.8828 229.431 74.4922 229.443 74.0391L229.496 71.7246H234.002V78H232.923V72.6621ZM241.053 75.9961C241.01 76.2695 240.916 76.5371 240.772 76.7988C240.627 77.0605 240.438 77.2949 240.204 77.502C239.969 77.709 239.692 77.875 239.372 78C239.055 78.1289 238.704 78.1934 238.317 78.1934C237.895 78.1934 237.504 78.125 237.145 77.9883C236.79 77.8477 236.481 77.6387 236.219 77.3613C235.961 77.0801 235.758 76.7285 235.61 76.3066C235.461 75.8848 235.387 75.3887 235.387 74.8184C235.387 74.4355 235.428 74.0898 235.51 73.7812C235.596 73.4688 235.709 73.1914 235.85 72.9492C235.995 72.7031 236.161 72.4922 236.348 72.3164C236.536 72.1367 236.733 71.9902 236.94 71.877C237.151 71.7598 237.366 71.6738 237.584 71.6191C237.803 71.5605 238.014 71.5312 238.217 71.5312C238.647 71.5312 239.04 71.5957 239.395 71.7246C239.75 71.8535 240.055 72.0508 240.309 72.3164C240.567 72.5781 240.766 72.9082 240.907 73.3066C241.051 73.7012 241.124 74.166 241.124 74.7012V75.2402H236.536C236.54 75.5449 236.583 75.8223 236.665 76.0723C236.747 76.3184 236.864 76.5293 237.016 76.7051C237.168 76.8809 237.352 77.0176 237.567 77.1152C237.786 77.209 238.032 77.2559 238.305 77.2559C238.583 77.2559 238.817 77.2168 239.008 77.1387C239.2 77.0605 239.36 76.9609 239.489 76.8398C239.618 76.7188 239.721 76.584 239.799 76.4355C239.881 76.2871 239.95 76.1406 240.004 75.9961H241.053ZM240.04 74.3789C240.032 74.0742 239.985 73.8027 239.899 73.5645C239.817 73.3262 239.7 73.127 239.547 72.9668C239.399 72.8027 239.219 72.6797 239.008 72.5977C238.797 72.5117 238.563 72.4688 238.305 72.4688C238.059 72.4688 237.833 72.5176 237.625 72.6152C237.418 72.709 237.237 72.8418 237.081 73.0137C236.924 73.1816 236.799 73.3828 236.706 73.6172C236.612 73.8477 236.555 74.1016 236.536 74.3789H240.04ZM242.509 71.7246H243.587V74.7598L246.757 71.7246H248.169L245.222 74.4961L248.216 78H246.827L244.378 75.1523L243.587 75.8145V78H242.509V71.7246ZM249.203 71.7246H250.281V77.0625H253.211V71.7246H254.295V77.0625H255.069V79.5352H254.061V78H249.203V71.7246ZM256.179 71.7246H257.257V76.5352H257.28L260.362 71.7246H261.599V78H260.515V73.1895H260.491L257.415 78H256.179V71.7246ZM268.41 78H267.326V75.5156H265.938C265.688 75.5156 265.469 75.5215 265.281 75.5332C265.098 75.541 264.941 75.5762 264.812 75.6387C264.684 75.7012 264.582 75.7988 264.508 75.9316C264.438 76.0645 264.393 76.2539 264.373 76.5L264.326 77.1738C264.322 77.1934 264.318 77.2324 264.314 77.291C264.311 77.3496 264.303 77.4199 264.291 77.502C264.279 77.5801 264.264 77.6641 264.244 77.7539C264.225 77.8438 264.201 77.9258 264.174 78H262.984C263.012 77.9648 263.037 77.9297 263.061 77.8945C263.088 77.8555 263.113 77.8027 263.137 77.7363C263.164 77.6699 263.188 77.584 263.207 77.4785C263.23 77.373 263.252 77.2383 263.271 77.0742L263.342 76.2715C263.365 76.0605 263.393 75.8887 263.424 75.7559C263.459 75.623 263.506 75.5137 263.564 75.4277C263.627 75.3379 263.707 75.2656 263.805 75.2109C263.902 75.1523 264.025 75.0938 264.174 75.0352C263.502 74.793 263.166 74.2969 263.166 73.5469C263.166 73.3594 263.189 73.1875 263.236 73.0312C263.283 72.8711 263.344 72.7285 263.418 72.6035C263.496 72.4785 263.582 72.3691 263.676 72.2754C263.773 72.1777 263.871 72.0977 263.969 72.0352C264.09 71.957 264.223 71.8984 264.367 71.8594C264.512 71.8164 264.656 71.7852 264.801 71.7656C264.949 71.7461 265.094 71.7344 265.234 71.7305C265.375 71.7266 265.504 71.7246 265.621 71.7246H268.41V78ZM267.326 72.6738H265.686C265.545 72.6738 265.424 72.6758 265.322 72.6797C265.221 72.6797 265.131 72.6836 265.053 72.6914C264.979 72.6992 264.91 72.7129 264.848 72.7324C264.785 72.752 264.721 72.7793 264.654 72.8145C264.518 72.8926 264.412 73.0078 264.338 73.1602C264.268 73.3125 264.232 73.4746 264.232 73.6465C264.232 73.8145 264.258 73.957 264.309 74.0742C264.359 74.1875 264.426 74.2812 264.508 74.3555C264.594 74.4297 264.688 74.4883 264.789 74.5312C264.895 74.5703 265 74.5996 265.105 74.6191C265.215 74.6348 265.32 74.6445 265.422 74.6484C265.523 74.6523 265.611 74.6543 265.686 74.6543H267.326V72.6738ZM272.268 75.6621L270.792 78H269.456L271.653 74.7832L269.567 71.7246H270.921L272.409 73.9102L273.827 71.7246H275.122L273.001 74.7832L275.222 78H273.862L272.268 75.6621Z" fill="#A6ACBE"/>
    <circle cx="55.9316" cy="56" r="25" fill="#4CB8FF" fill-opacity="0.07"/>
    <g clip-path="url(#clip0)">
        <path d="M55.6938 63.3296C59.836 63.3296 63.1938 59.9717 63.1938 55.8296C63.1938 51.6875 59.836 48.3296 55.6938 48.3296C51.5517 48.3296 48.1938 51.6875 48.1938 55.8296C48.1938 59.9717 51.5517 63.3296 55.6938 63.3296Z" stroke="#4CB8FF" stroke-width="1.50852" stroke-linecap="square"/>
        <path d="M55.6938 50.5796V55.8296L58.6938 58.8296" stroke="#4CB8FF" stroke-width="1.50852" stroke-linecap="square"/>
    </g>
    <defs>
        <clipPath id="clip0">
            <rect width="18" height="18" fill="white" transform="translate(46.6934 46.8296)"/>
        </clipPath>
    </defs>
</svg>
