<svg width="298" height="117" viewBox="0 0 298 117" fill="none" xmlns="http://www.w3.org/2000/svg">
    <rect width="294" height="115" rx="7" fill="#EDEDF6"/>
    <rect width="294" height="112" rx="7" fill="white"/>
    <path d="M97.66 52C97.7287 50.7282 97.99 49.6213 98.4437 48.6795C98.9043 47.7377 99.798 46.8818 101.125 46.1118L103.105 44.9671C103.992 44.4515 104.614 44.0115 104.971 43.6472C105.535 43.0766 105.817 42.4235 105.817 41.6879C105.817 40.8285 105.559 40.1479 105.043 39.6461C104.528 39.1373 103.84 38.883 102.981 38.883C101.709 38.883 100.829 39.3642 100.341 40.3267C100.08 40.8423 99.9355 41.5573 99.908 42.4716H98.0209C98.0415 41.186 98.2787 40.1376 98.7324 39.3264C99.5368 37.8965 100.956 37.1815 102.991 37.1815C104.683 37.1815 105.917 37.6387 106.693 38.553C107.477 39.4673 107.869 40.4848 107.869 41.6054C107.869 42.7878 107.453 43.7984 106.621 44.6371C106.14 45.1253 105.277 45.7165 104.033 46.4108L102.62 47.1946C101.946 47.5658 101.417 47.9198 101.032 48.2567C100.345 48.8548 99.9115 49.5182 99.7327 50.2469H107.797V52H97.66ZM111.576 48.2361C111.7 49.2948 112.191 50.0269 113.051 50.4326C113.491 50.6388 113.999 50.7419 114.577 50.7419C115.677 50.7419 116.491 50.3913 117.021 49.6901C117.55 48.9889 117.815 48.212 117.815 47.3595C117.815 46.3283 117.499 45.5309 116.866 44.9671C116.24 44.4034 115.488 44.1215 114.608 44.1215C113.968 44.1215 113.418 44.2453 112.958 44.4928C112.504 44.7403 112.116 45.084 111.793 45.524L110.184 45.4312L111.308 37.4805H118.98V39.2748H112.7L112.071 43.3791C112.415 43.1178 112.741 42.9219 113.051 42.7913C113.601 42.5644 114.237 42.451 114.958 42.451C116.313 42.451 117.461 42.8875 118.403 43.7606C119.344 44.6337 119.815 45.7405 119.815 47.0811C119.815 48.4767 119.382 49.7073 118.516 50.7729C117.657 51.8384 116.282 52.3712 114.391 52.3712C113.188 52.3712 112.123 52.0344 111.194 51.3606C110.273 50.68 109.758 49.6385 109.648 48.2361H111.576Z" fill="black"/>
    <path d="M97.8906 69.3867H99.0391V72.9375H103.621V69.3867H104.775V78H103.621V73.9453H99.0391V78H97.8906V69.3867ZM111.927 75.9961C111.884 76.2695 111.79 76.5371 111.645 76.7988C111.501 77.0605 111.311 77.2949 111.077 77.502C110.843 77.709 110.565 77.875 110.245 78C109.929 78.1289 109.577 78.1934 109.19 78.1934C108.768 78.1934 108.378 78.125 108.018 77.9883C107.663 77.8477 107.354 77.6387 107.093 77.3613C106.835 77.0801 106.632 76.7285 106.483 76.3066C106.335 75.8848 106.261 75.3887 106.261 74.8184C106.261 74.4355 106.302 74.0898 106.384 73.7812C106.47 73.4688 106.583 73.1914 106.724 72.9492C106.868 72.7031 107.034 72.4922 107.222 72.3164C107.409 72.1367 107.606 71.9902 107.813 71.877C108.024 71.7598 108.239 71.6738 108.458 71.6191C108.677 71.5605 108.888 71.5312 109.091 71.5312C109.52 71.5312 109.913 71.5957 110.268 71.7246C110.624 71.8535 110.929 72.0508 111.182 72.3164C111.44 72.5781 111.64 72.9082 111.78 73.3066C111.925 73.7012 111.997 74.166 111.997 74.7012V75.2402H107.409C107.413 75.5449 107.456 75.8223 107.538 76.0723C107.62 76.3184 107.737 76.5293 107.89 76.7051C108.042 76.8809 108.225 77.0176 108.44 77.1152C108.659 77.209 108.905 77.2559 109.179 77.2559C109.456 77.2559 109.69 77.2168 109.882 77.1387C110.073 77.0605 110.233 76.9609 110.362 76.8398C110.491 76.7188 110.595 76.584 110.673 76.4355C110.755 76.2871 110.823 76.1406 110.878 75.9961H111.927ZM110.913 74.3789C110.905 74.0742 110.858 73.8027 110.772 73.5645C110.69 73.3262 110.573 73.127 110.421 72.9668C110.272 72.8027 110.093 72.6797 109.882 72.5977C109.671 72.5117 109.436 72.4688 109.179 72.4688C108.932 72.4688 108.706 72.5176 108.499 72.6152C108.292 72.709 108.11 72.8418 107.954 73.0137C107.798 73.1816 107.673 73.3828 107.579 73.6172C107.485 73.8477 107.429 74.1016 107.409 74.3789H110.913ZM117.39 72.6621H114.461V78H113.383V71.7246H118.474V78H117.39V72.6621ZM120.124 71.7246H121.202V72.5859H121.225C121.296 72.4414 121.383 72.3047 121.489 72.1758C121.598 72.0469 121.727 71.9355 121.876 71.8418C122.028 71.7441 122.202 71.668 122.397 71.6133C122.596 71.5586 122.823 71.5312 123.077 71.5312C123.413 71.5312 123.735 71.5957 124.044 71.7246C124.352 71.8535 124.626 72.0469 124.864 72.3047C125.102 72.5625 125.292 72.8867 125.432 73.2773C125.573 73.6641 125.643 74.1152 125.643 74.6309C125.643 75.2754 125.577 75.8242 125.444 76.2773C125.315 76.7266 125.13 77.0938 124.887 77.3789C124.649 77.6641 124.36 77.8711 124.02 78C123.68 78.1289 123.301 78.1934 122.883 78.1934C122.676 78.1934 122.483 78.166 122.303 78.1113C122.124 78.0566 121.962 77.9863 121.817 77.9004C121.676 77.8105 121.555 77.7129 121.454 77.6074C121.352 77.498 121.276 77.3926 121.225 77.291H121.202V80.4727H120.124V71.7246ZM121.178 74.8945C121.178 75.2344 121.212 75.5488 121.278 75.8379C121.344 76.123 121.446 76.3711 121.583 76.582C121.723 76.793 121.897 76.959 122.104 77.0801C122.315 77.1973 122.563 77.2559 122.848 77.2559C123.145 77.2559 123.401 77.1973 123.616 77.0801C123.835 76.959 124.014 76.793 124.155 76.582C124.296 76.3711 124.399 76.123 124.465 75.8379C124.532 75.5488 124.565 75.2344 124.565 74.8945C124.565 74.5391 124.532 74.2129 124.465 73.916C124.399 73.6191 124.296 73.3633 124.155 73.1484C124.014 72.9336 123.835 72.7676 123.616 72.6504C123.401 72.5293 123.145 72.4688 122.848 72.4688C122.563 72.4688 122.315 72.5293 122.104 72.6504C121.897 72.7676 121.723 72.9336 121.583 73.1484C121.446 73.3633 121.344 73.6191 121.278 73.916C121.212 74.2129 121.178 74.5391 121.178 74.8945ZM131.365 74.8535C131.365 74.5059 131.326 74.1875 131.248 73.8984C131.169 73.6055 131.052 73.3535 130.896 73.1426C130.74 72.9316 130.546 72.7676 130.316 72.6504C130.089 72.5293 129.826 72.4688 129.525 72.4688C129.224 72.4688 128.96 72.5293 128.734 72.6504C128.507 72.7676 128.316 72.9316 128.16 73.1426C128.003 73.3535 127.886 73.6055 127.808 73.8984C127.73 74.1875 127.691 74.5059 127.691 74.8535C127.691 75.2051 127.73 75.5293 127.808 75.8262C127.886 76.1191 128.003 76.3711 128.16 76.582C128.316 76.793 128.507 76.959 128.734 77.0801C128.96 77.1973 129.224 77.2559 129.525 77.2559C129.826 77.2559 130.089 77.1973 130.316 77.0801C130.546 76.959 130.74 76.793 130.896 76.582C131.052 76.3711 131.169 76.1191 131.248 75.8262C131.326 75.5293 131.365 75.2051 131.365 74.8535ZM132.443 74.8535C132.443 75.3691 132.376 75.834 132.244 76.248C132.111 76.6582 131.919 77.0078 131.669 77.2969C131.419 77.5859 131.113 77.8086 130.75 77.9648C130.39 78.1172 129.982 78.1934 129.525 78.1934C129.068 78.1934 128.66 78.1172 128.3 77.9648C127.941 77.8086 127.636 77.5859 127.386 77.2969C127.136 77.0078 126.945 76.6582 126.812 76.248C126.679 75.834 126.613 75.3691 126.613 74.8535C126.613 74.3457 126.679 73.8867 126.812 73.4766C126.945 73.0664 127.136 72.7168 127.386 72.4277C127.636 72.1387 127.941 71.918 128.3 71.7656C128.66 71.6094 129.068 71.5312 129.525 71.5312C129.982 71.5312 130.39 71.6094 130.75 71.7656C131.113 71.918 131.419 72.1387 131.669 72.4277C131.919 72.7168 132.111 73.0664 132.244 73.4766C132.376 73.8867 132.443 74.3457 132.443 74.8535ZM133.782 71.7246H136.454C137.219 71.7246 137.791 71.8672 138.17 72.1523C138.553 72.4375 138.745 72.8516 138.745 73.3945C138.745 73.6836 138.674 73.9277 138.534 74.127C138.393 74.3262 138.207 74.502 137.977 74.6543C138.309 74.7793 138.573 74.959 138.768 75.1934C138.963 75.4277 139.061 75.7305 139.061 76.1016C139.061 76.3945 139.012 76.6582 138.914 76.8926C138.817 77.127 138.668 77.3262 138.469 77.4902C138.27 77.6543 138.016 77.7812 137.707 77.8711C137.403 77.957 137.041 78 136.623 78H133.782V71.7246ZM134.86 77.1387H136.5C136.786 77.1387 137.022 77.1172 137.209 77.0742C137.401 77.0273 137.553 76.9609 137.666 76.875C137.78 76.7891 137.86 76.6855 137.907 76.5645C137.954 76.4434 137.977 76.3066 137.977 76.1543C137.977 76.002 137.954 75.8652 137.907 75.7441C137.86 75.6191 137.78 75.5156 137.666 75.4336C137.553 75.3477 137.401 75.2832 137.209 75.2402C137.022 75.1934 136.786 75.1699 136.5 75.1699H134.86V77.1387ZM134.86 74.3789H136.489C136.852 74.3789 137.139 74.3066 137.35 74.1621C137.561 74.0176 137.666 73.793 137.666 73.4883C137.666 73.3164 137.637 73.1738 137.579 73.0605C137.52 72.9434 137.442 72.8496 137.344 72.7793C137.246 72.709 137.135 72.6602 137.01 72.6328C136.889 72.6016 136.764 72.5859 136.635 72.5859H134.86V74.3789ZM145.82 75.9961C145.777 76.2695 145.683 76.5371 145.538 76.7988C145.394 77.0605 145.204 77.2949 144.97 77.502C144.736 77.709 144.458 77.875 144.138 78C143.822 78.1289 143.47 78.1934 143.083 78.1934C142.661 78.1934 142.271 78.125 141.911 77.9883C141.556 77.8477 141.247 77.6387 140.986 77.3613C140.728 77.0801 140.525 76.7285 140.376 76.3066C140.228 75.8848 140.154 75.3887 140.154 74.8184C140.154 74.4355 140.195 74.0898 140.277 73.7812C140.363 73.4688 140.476 73.1914 140.616 72.9492C140.761 72.7031 140.927 72.4922 141.115 72.3164C141.302 72.1367 141.499 71.9902 141.706 71.877C141.917 71.7598 142.132 71.6738 142.351 71.6191C142.57 71.5605 142.781 71.5312 142.984 71.5312C143.413 71.5312 143.806 71.5957 144.161 71.7246C144.517 71.8535 144.822 72.0508 145.075 72.3164C145.333 72.5781 145.533 72.9082 145.673 73.3066C145.818 73.7012 145.89 74.166 145.89 74.7012V75.2402H141.302C141.306 75.5449 141.349 75.8223 141.431 76.0723C141.513 76.3184 141.63 76.5293 141.783 76.7051C141.935 76.8809 142.118 77.0176 142.333 77.1152C142.552 77.209 142.798 77.2559 143.072 77.2559C143.349 77.2559 143.583 77.2168 143.775 77.1387C143.966 77.0605 144.126 76.9609 144.255 76.8398C144.384 76.7188 144.488 76.584 144.566 76.4355C144.648 76.2871 144.716 76.1406 144.771 75.9961H145.82ZM144.806 74.3789C144.798 74.0742 144.751 73.8027 144.665 73.5645C144.583 73.3262 144.466 73.127 144.314 72.9668C144.165 72.8027 143.986 72.6797 143.775 72.5977C143.564 72.5117 143.329 72.4688 143.072 72.4688C142.825 72.4688 142.599 72.5176 142.392 72.6152C142.185 72.709 142.003 72.8418 141.847 73.0137C141.691 73.1816 141.566 73.3828 141.472 73.6172C141.378 73.8477 141.322 74.1016 141.302 74.3789H144.806ZM152.508 78H147.656V79.5352H146.649V77.0625H147.475C147.647 76.6406 147.783 76.2109 147.885 75.7734C147.986 75.332 148.065 74.8887 148.119 74.4434C148.174 73.9941 148.209 73.543 148.225 73.0898C148.24 72.6367 148.248 72.1816 148.248 71.7246H152.631V77.0625H153.516V79.5352H152.508V78ZM151.553 77.0625V72.6621H149.279C149.252 73.0176 149.223 73.3828 149.192 73.7578C149.164 74.1328 149.125 74.5098 149.074 74.8887C149.028 75.2637 148.963 75.6348 148.881 76.002C148.803 76.3691 148.699 76.7227 148.57 77.0625H151.553ZM160.017 75.9961C159.974 76.2695 159.88 76.5371 159.735 76.7988C159.591 77.0605 159.401 77.2949 159.167 77.502C158.933 77.709 158.655 77.875 158.335 78C158.019 78.1289 157.667 78.1934 157.28 78.1934C156.858 78.1934 156.468 78.125 156.108 77.9883C155.753 77.8477 155.444 77.6387 155.183 77.3613C154.925 77.0801 154.722 76.7285 154.573 76.3066C154.425 75.8848 154.351 75.3887 154.351 74.8184C154.351 74.4355 154.392 74.0898 154.474 73.7812C154.56 73.4688 154.673 73.1914 154.814 72.9492C154.958 72.7031 155.124 72.4922 155.312 72.3164C155.499 72.1367 155.696 71.9902 155.903 71.877C156.114 71.7598 156.329 71.6738 156.548 71.6191C156.767 71.5605 156.978 71.5312 157.181 71.5312C157.61 71.5312 158.003 71.5957 158.358 71.7246C158.714 71.8535 159.019 72.0508 159.272 72.3164C159.53 72.5781 159.73 72.9082 159.87 73.3066C160.015 73.7012 160.087 74.166 160.087 74.7012V75.2402H155.499C155.503 75.5449 155.546 75.8223 155.628 76.0723C155.71 76.3184 155.827 76.5293 155.98 76.7051C156.132 76.8809 156.315 77.0176 156.53 77.1152C156.749 77.209 156.995 77.2559 157.269 77.2559C157.546 77.2559 157.78 77.2168 157.972 77.1387C158.163 77.0605 158.323 76.9609 158.452 76.8398C158.581 76.7188 158.685 76.584 158.763 76.4355C158.845 76.2871 158.913 76.1406 158.968 75.9961H160.017ZM159.003 74.3789C158.995 74.0742 158.948 73.8027 158.862 73.5645C158.78 73.3262 158.663 73.127 158.511 72.9668C158.362 72.8027 158.183 72.6797 157.972 72.5977C157.761 72.5117 157.526 72.4688 157.269 72.4688C157.022 72.4688 156.796 72.5176 156.589 72.6152C156.382 72.709 156.2 72.8418 156.044 73.0137C155.888 73.1816 155.763 73.3828 155.669 73.6172C155.575 73.8477 155.519 74.1016 155.499 74.3789H159.003ZM161.473 71.7246H162.551V74.2559H165.48V71.7246H166.564V78H165.48V75.1934H162.551V78H161.473V71.7246ZM168.272 71.7246H169.35V74.2559H172.28V71.7246H173.364V78H172.28V75.1934H169.35V78H168.272V71.7246ZM181.072 71.7246H182.15V78H181.072V71.7246ZM175.072 71.7246H176.15V74.0859H178.037C178.377 74.0859 178.681 74.1328 178.951 74.2266C179.224 74.3164 179.455 74.4473 179.642 74.6191C179.83 74.7871 179.972 74.9922 180.07 75.2344C180.172 75.4727 180.222 75.7422 180.222 76.043C180.222 76.3477 180.172 76.6211 180.07 76.8633C179.972 77.1016 179.83 77.3066 179.642 77.4785C179.455 77.6465 179.224 77.7754 178.951 77.8652C178.681 77.9551 178.377 78 178.037 78H175.072V71.7246ZM176.15 77.1387H177.82C178.007 77.1387 178.181 77.1191 178.341 77.0801C178.506 77.041 178.646 76.9785 178.763 76.8926C178.881 76.8027 178.972 76.6895 179.039 76.5527C179.105 76.4121 179.138 76.2422 179.138 76.043C179.138 75.8477 179.103 75.6816 179.033 75.5449C178.966 75.4082 178.871 75.2969 178.746 75.2109C178.625 75.1211 178.476 75.0566 178.3 75.0176C178.129 74.9746 177.937 74.9531 177.726 74.9531H176.15V77.1387ZM189.208 75.9961C189.165 76.2695 189.071 76.5371 188.926 76.7988C188.782 77.0605 188.592 77.2949 188.358 77.502C188.124 77.709 187.846 77.875 187.526 78C187.21 78.1289 186.858 78.1934 186.471 78.1934C186.049 78.1934 185.659 78.125 185.299 77.9883C184.944 77.8477 184.635 77.6387 184.374 77.3613C184.116 77.0801 183.913 76.7285 183.764 76.3066C183.616 75.8848 183.542 75.3887 183.542 74.8184C183.542 74.4355 183.583 74.0898 183.665 73.7812C183.751 73.4688 183.864 73.1914 184.004 72.9492C184.149 72.7031 184.315 72.4922 184.503 72.3164C184.69 72.1367 184.887 71.9902 185.094 71.877C185.305 71.7598 185.52 71.6738 185.739 71.6191C185.958 71.5605 186.169 71.5312 186.372 71.5312C186.801 71.5312 187.194 71.5957 187.549 71.7246C187.905 71.8535 188.21 72.0508 188.463 72.3164C188.721 72.5781 188.92 72.9082 189.061 73.3066C189.206 73.7012 189.278 74.166 189.278 74.7012V75.2402H184.69C184.694 75.5449 184.737 75.8223 184.819 76.0723C184.901 76.3184 185.018 76.5293 185.17 76.7051C185.323 76.8809 185.506 77.0176 185.721 77.1152C185.94 77.209 186.186 77.2559 186.46 77.2559C186.737 77.2559 186.971 77.2168 187.163 77.1387C187.354 77.0605 187.514 76.9609 187.643 76.8398C187.772 76.7188 187.876 76.584 187.954 76.4355C188.036 76.2871 188.104 76.1406 188.159 75.9961H189.208ZM188.194 74.3789C188.186 74.0742 188.139 73.8027 188.053 73.5645C187.971 73.3262 187.854 73.127 187.702 72.9668C187.553 72.8027 187.374 72.6797 187.163 72.5977C186.952 72.5117 186.717 72.4688 186.46 72.4688C186.213 72.4688 185.987 72.5176 185.78 72.6152C185.573 72.709 185.391 72.8418 185.235 73.0137C185.079 73.1816 184.954 73.3828 184.86 73.6172C184.766 73.8477 184.71 74.1016 184.69 74.3789H188.194ZM193.467 71.7246H194.651L196.321 76.834H196.344L198.014 71.7246H199.198L196.801 78.252C196.68 78.5801 196.569 78.8652 196.467 79.1074C196.366 79.3496 196.266 79.5547 196.168 79.7227C196.071 79.8945 195.971 80.0332 195.869 80.1387C195.772 80.2441 195.662 80.3262 195.541 80.3848C195.424 80.4473 195.291 80.4883 195.143 80.5078C194.998 80.5312 194.83 80.543 194.639 80.543C194.483 80.543 194.36 80.5352 194.27 80.5195C194.184 80.5078 194.108 80.4922 194.041 80.4727V79.5C194.112 79.5234 194.203 79.5469 194.317 79.5703C194.43 79.5938 194.549 79.6055 194.674 79.6055C194.873 79.6055 195.034 79.5566 195.155 79.459C195.28 79.3652 195.375 79.2305 195.442 79.0547L195.793 78.1699L193.467 71.7246ZM200.185 71.7246H201.263V72.5859H201.286C201.357 72.4414 201.445 72.3047 201.55 72.1758C201.659 72.0469 201.788 71.9355 201.937 71.8418C202.089 71.7441 202.263 71.668 202.458 71.6133C202.657 71.5586 202.884 71.5312 203.138 71.5312C203.474 71.5312 203.796 71.5957 204.105 71.7246C204.413 71.8535 204.687 72.0469 204.925 72.3047C205.163 72.5625 205.353 72.8867 205.493 73.2773C205.634 73.6641 205.704 74.1152 205.704 74.6309C205.704 75.2754 205.638 75.8242 205.505 76.2773C205.376 76.7266 205.191 77.0938 204.948 77.3789C204.71 77.6641 204.421 77.8711 204.081 78C203.741 78.1289 203.363 78.1934 202.945 78.1934C202.738 78.1934 202.544 78.166 202.364 78.1113C202.185 78.0566 202.023 77.9863 201.878 77.9004C201.738 77.8105 201.616 77.7129 201.515 77.6074C201.413 77.498 201.337 77.3926 201.286 77.291H201.263V80.4727H200.185V71.7246ZM201.239 74.8945C201.239 75.2344 201.273 75.5488 201.339 75.8379C201.405 76.123 201.507 76.3711 201.644 76.582C201.784 76.793 201.958 76.959 202.165 77.0801C202.376 77.1973 202.624 77.2559 202.909 77.2559C203.206 77.2559 203.462 77.1973 203.677 77.0801C203.896 76.959 204.075 76.793 204.216 76.582C204.357 76.3711 204.46 76.123 204.527 75.8379C204.593 75.5488 204.626 75.2344 204.626 74.8945C204.626 74.5391 204.593 74.2129 204.527 73.916C204.46 73.6191 204.357 73.3633 204.216 73.1484C204.075 72.9336 203.896 72.7676 203.677 72.6504C203.462 72.5293 203.206 72.4688 202.909 72.4688C202.624 72.4688 202.376 72.5293 202.165 72.6504C201.958 72.7676 201.784 72.9336 201.644 73.1484C201.507 73.3633 201.405 73.6191 201.339 73.916C201.273 74.2129 201.239 74.5391 201.239 74.8945ZM211.426 74.8535C211.426 74.5059 211.387 74.1875 211.309 73.8984C211.231 73.6055 211.113 73.3535 210.957 73.1426C210.801 72.9316 210.607 72.7676 210.377 72.6504C210.15 72.5293 209.887 72.4688 209.586 72.4688C209.285 72.4688 209.022 72.5293 208.795 72.6504C208.568 72.7676 208.377 72.9316 208.221 73.1426C208.065 73.3535 207.947 73.6055 207.869 73.8984C207.791 74.1875 207.752 74.5059 207.752 74.8535C207.752 75.2051 207.791 75.5293 207.869 75.8262C207.947 76.1191 208.065 76.3711 208.221 76.582C208.377 76.793 208.568 76.959 208.795 77.0801C209.022 77.1973 209.285 77.2559 209.586 77.2559C209.887 77.2559 210.15 77.1973 210.377 77.0801C210.607 76.959 210.801 76.793 210.957 76.582C211.113 76.3711 211.231 76.1191 211.309 75.8262C211.387 75.5293 211.426 75.2051 211.426 74.8535ZM212.504 74.8535C212.504 75.3691 212.438 75.834 212.305 76.248C212.172 76.6582 211.981 77.0078 211.731 77.2969C211.481 77.5859 211.174 77.8086 210.811 77.9648C210.451 78.1172 210.043 78.1934 209.586 78.1934C209.129 78.1934 208.721 78.1172 208.361 77.9648C208.002 77.8086 207.697 77.5859 207.447 77.2969C207.197 77.0078 207.006 76.6582 206.873 76.248C206.74 75.834 206.674 75.3691 206.674 74.8535C206.674 74.3457 206.74 73.8867 206.873 73.4766C207.006 73.0664 207.197 72.7168 207.447 72.4277C207.697 72.1387 208.002 71.918 208.361 71.7656C208.721 71.6094 209.129 71.5312 209.586 71.5312C210.043 71.5312 210.451 71.6094 210.811 71.7656C211.174 71.918 211.481 72.1387 211.731 72.4277C211.981 72.7168 212.172 73.0664 212.305 73.4766C212.438 73.8867 212.504 74.3457 212.504 74.8535ZM213.843 71.7246H214.921V74.7598L218.091 71.7246H219.503L216.556 74.4961L219.55 78H218.161L215.712 75.1523L214.921 75.8145V78H213.843V71.7246ZM220.537 71.7246H221.615V76.5352H221.639L224.721 71.7246H225.957V78H224.873V73.1895H224.849L221.773 78H220.537V71.7246Z" fill="#A6ACBE"/>
    <circle cx="56" cy="56" r="25" fill="#FFB800" fill-opacity="0.07"/>
    <path d="M53.5981 64.0981H61.0981M52.8481 49.8481H61.8481V56.5981C61.8481 59.0834 59.8334 61.0981 57.3481 61.0981C54.8629 61.0981 52.8481 59.0834 52.8481 56.5981V49.8481Z" stroke="#FFB800" stroke-width="1.50852" stroke-linecap="round" stroke-linejoin="round"/>
    <path d="M57.3481 61.0981V64.0981" stroke="#FFB800" stroke-width="1.50852" stroke-linecap="round" stroke-linejoin="round"/>
    <path d="M52.8481 52.0981V56.5981H52.0981C50.8555 56.5981 49.8481 55.5908 49.8481 54.3481C49.8481 53.1055 50.8555 52.0981 52.0981 52.0981H52.8481ZM61.8481 56.5981V52.0981H62.5981C63.8408 52.0981 64.8481 53.1055 64.8481 54.3481C64.8481 55.5908 63.8408 56.5981 62.5981 56.5981H61.8481Z" stroke="#FFB800" stroke-width="1.50852" stroke-linecap="round" stroke-linejoin="round"/>
</svg>
