<svg width="294" height="465" viewBox="0 0 294 465" fill="none" xmlns="http://www.w3.org/2000/svg">
    <rect width="294" height="465" rx="7" fill="#EDEDF6"/>
    <rect width="294" height="462" rx="7" fill="white"/>
    <path d="M24.8906 23.3867H26.0391V27.582L30.2402 23.3867H31.8457L28.2598 26.8613L31.9453 32H30.4688L27.4336 27.6582L26.0391 29V32H24.8906V23.3867ZM32.9032 27.6055C32.9149 27.2227 32.9872 26.9004 33.12 26.6387C33.2528 26.373 33.4325 26.1582 33.6591 25.9941C33.8856 25.8301 34.1532 25.7129 34.4618 25.6426C34.7743 25.5684 35.1141 25.5312 35.4813 25.5312C35.786 25.5312 36.0809 25.5625 36.3661 25.625C36.6552 25.6875 36.911 25.7891 37.1337 25.9297C37.3563 26.0664 37.5341 26.2461 37.6669 26.4688C37.8036 26.6875 37.872 26.9551 37.872 27.2715V30.9219C37.872 31.0234 37.8993 31.1113 37.954 31.1855C38.0087 31.2559 38.0966 31.291 38.2177 31.291C38.2723 31.291 38.329 31.2871 38.3876 31.2793C38.4462 31.2676 38.5067 31.2559 38.5692 31.2441V31.9883C38.4794 32.0117 38.3895 32.0332 38.2997 32.0527C38.2137 32.0723 38.1102 32.082 37.9891 32.082C37.8016 32.082 37.6395 32.0664 37.5028 32.0352C37.37 32.0039 37.2567 31.9531 37.163 31.8828C37.0731 31.8086 37.0028 31.7148 36.952 31.6016C36.9012 31.4844 36.868 31.3418 36.8524 31.1738C36.7196 31.3184 36.579 31.4531 36.4305 31.5781C36.2821 31.6992 36.1161 31.8066 35.9325 31.9004C35.7489 31.9902 35.5438 32.0605 35.3173 32.1113C35.0907 32.166 34.8348 32.1934 34.5497 32.1934C34.3075 32.1934 34.0712 32.1543 33.8407 32.0762C33.6141 31.998 33.4091 31.8828 33.2255 31.7305C33.0458 31.5781 32.9012 31.3906 32.7919 31.168C32.6825 30.9414 32.6278 30.6797 32.6278 30.3828C32.6278 30.0586 32.6825 29.7793 32.7919 29.5449C32.9012 29.3066 33.0438 29.1094 33.2196 28.9531C33.3954 28.793 33.5966 28.6699 33.8231 28.584C34.0497 28.498 34.2802 28.4414 34.5145 28.4141L36.2782 28.1973C36.4462 28.1777 36.577 28.1133 36.6708 28.0039C36.7684 27.8906 36.8173 27.7109 36.8173 27.4648C36.8173 27.0859 36.6923 26.8145 36.4423 26.6504C36.1962 26.4824 35.8407 26.3984 35.3759 26.3984C34.8993 26.3984 34.5438 26.5 34.3095 26.7031C34.0751 26.9023 33.9423 27.2031 33.911 27.6055H32.9032ZM36.7938 28.8066C36.7079 28.8691 36.6005 28.9219 36.4716 28.9648C36.3466 29.0039 36.2079 29.0371 36.0555 29.0645C35.9032 29.0918 35.7411 29.1172 35.5692 29.1406C35.3973 29.1602 35.2255 29.1816 35.0536 29.2051C34.8583 29.2324 34.6786 29.2715 34.5145 29.3223C34.3505 29.373 34.2079 29.4395 34.0868 29.5215C33.9657 29.6035 33.872 29.7031 33.8055 29.8203C33.7391 29.9336 33.7059 30.0684 33.7059 30.2246C33.7059 30.4043 33.7333 30.5625 33.788 30.6992C33.8466 30.8359 33.9247 30.9512 34.0223 31.0449C34.1239 31.1387 34.245 31.209 34.3856 31.2559C34.5262 31.3027 34.6805 31.3262 34.8485 31.3262C34.954 31.3262 35.0751 31.3145 35.2118 31.291C35.3485 31.2637 35.4891 31.2246 35.6337 31.1738C35.7782 31.123 35.9188 31.0586 36.0555 30.9805C36.1962 30.8984 36.3212 30.8008 36.4305 30.6875C36.5399 30.5742 36.6278 30.4453 36.6942 30.3008C36.7606 30.1562 36.7938 29.9941 36.7938 29.8145V28.8066ZM43.4939 29.4688C43.2595 29.5312 43.0017 29.584 42.7205 29.627C42.4431 29.6699 42.1834 29.6914 41.9412 29.6914C41.1013 29.6914 40.4783 29.5312 40.072 29.2109C39.6658 28.8867 39.4627 28.377 39.4627 27.6816V25.7246H40.5408V27.4648C40.5408 27.6992 40.5681 27.9023 40.6228 28.0742C40.6814 28.2461 40.7752 28.3887 40.9041 28.502C41.033 28.6113 41.2029 28.6934 41.4138 28.748C41.6248 28.8027 41.8845 28.8301 42.1931 28.8301C42.2752 28.8301 42.3728 28.8223 42.4861 28.8066C42.6033 28.791 42.7224 28.7715 42.8435 28.748C42.9646 28.7246 43.0818 28.6992 43.1951 28.6719C43.3123 28.6406 43.4119 28.6094 43.4939 28.5781V25.7246H44.5779V32H43.4939V29.4688ZM51.6354 29.9961C51.5924 30.2695 51.4987 30.5371 51.3541 30.7988C51.2096 31.0605 51.0202 31.2949 50.7858 31.502C50.5514 31.709 50.2741 31.875 49.9538 32C49.6373 32.1289 49.2858 32.1934 48.8991 32.1934C48.4772 32.1934 48.0866 32.125 47.7272 31.9883C47.3717 31.8477 47.0631 31.6387 46.8014 31.3613C46.5436 31.0801 46.3405 30.7285 46.192 30.3066C46.0436 29.8848 45.9694 29.3887 45.9694 28.8184C45.9694 28.4355 46.0104 28.0898 46.0924 27.7812C46.1784 27.4688 46.2916 27.1914 46.4323 26.9492C46.5768 26.7031 46.7428 26.4922 46.9303 26.3164C47.1178 26.1367 47.3151 25.9902 47.5221 25.877C47.733 25.7598 47.9479 25.6738 48.1666 25.6191C48.3854 25.5605 48.5963 25.5312 48.7995 25.5312C49.2291 25.5312 49.6217 25.5957 49.9772 25.7246C50.3327 25.8535 50.6373 26.0508 50.8913 26.3164C51.1491 26.5781 51.3483 26.9082 51.4889 27.3066C51.6334 27.7012 51.7057 28.166 51.7057 28.7012V29.2402H47.1178C47.1217 29.5449 47.1647 29.8223 47.2467 30.0723C47.3288 30.3184 47.4459 30.5293 47.5983 30.7051C47.7506 30.8809 47.9342 31.0176 48.1491 31.1152C48.3678 31.209 48.6139 31.2559 48.8873 31.2559C49.1647 31.2559 49.3991 31.2168 49.5905 31.1387C49.7819 31.0605 49.942 30.9609 50.0709 30.8398C50.1998 30.7188 50.3034 30.584 50.3815 30.4355C50.4635 30.2871 50.5319 30.1406 50.5866 29.9961H51.6354ZM50.6217 28.3789C50.6139 28.0742 50.567 27.8027 50.4811 27.5645C50.3991 27.3262 50.2819 27.127 50.1295 26.9668C49.9811 26.8027 49.8014 26.6797 49.5905 26.5977C49.3795 26.5117 49.1452 26.4688 48.8873 26.4688C48.6413 26.4688 48.4147 26.5176 48.2077 26.6152C48.0006 26.709 47.819 26.8418 47.6627 27.0137C47.5065 27.1816 47.3815 27.3828 47.2877 27.6172C47.194 27.8477 47.1373 28.1016 47.1178 28.3789H50.6217ZM58.0249 29.791C58.0093 29.9434 57.978 30.1094 57.9312 30.2891C57.8882 30.4688 57.8237 30.6484 57.7378 30.8281C57.6519 31.0039 57.5405 31.1738 57.4038 31.3379C57.271 31.502 57.107 31.6484 56.9116 31.7773C56.7202 31.9023 56.4937 32.002 56.232 32.0762C55.9702 32.1543 55.6714 32.1934 55.3355 32.1934C55.1519 32.1934 54.9585 32.1699 54.7554 32.123C54.5523 32.0801 54.353 32.0059 54.1577 31.9004C53.9663 31.7949 53.7827 31.6602 53.607 31.4961C53.4351 31.3281 53.2827 31.1211 53.1499 30.875C53.021 30.6289 52.9175 30.3438 52.8394 30.0195C52.7612 29.6914 52.7222 29.3164 52.7222 28.8945C52.7222 28.375 52.7964 27.9082 52.9448 27.4941C53.0933 27.0762 53.2905 26.7227 53.5366 26.4336C53.7866 26.1445 54.0757 25.9219 54.4038 25.7656C54.7359 25.6094 55.0835 25.5312 55.4468 25.5312C55.7749 25.5312 56.064 25.5664 56.314 25.6367C56.5679 25.707 56.7886 25.8008 56.9761 25.918C57.1636 26.0352 57.3218 26.1719 57.4507 26.3281C57.5796 26.4805 57.6831 26.6426 57.7612 26.8145C57.8433 26.9824 57.9038 27.1543 57.9429 27.3301C57.9859 27.5059 58.0132 27.6738 58.0249 27.834H57.0171C56.9624 27.4082 56.814 27.0742 56.5718 26.832C56.3335 26.5898 55.9976 26.4688 55.564 26.4688C55.2671 26.4688 55.0073 26.5293 54.7847 26.6504C54.5659 26.7715 54.3823 26.9414 54.2339 27.1602C54.0894 27.375 53.98 27.6367 53.9058 27.9453C53.8355 28.25 53.8003 28.5859 53.8003 28.9531C53.8003 29.3672 53.8394 29.7246 53.9175 30.0254C53.9956 30.3223 54.107 30.5684 54.2515 30.7637C54.396 30.9551 54.5718 31.0977 54.7788 31.1914C54.9898 31.2812 55.228 31.3262 55.4937 31.3262C55.6812 31.3262 55.8589 31.293 56.0269 31.2266C56.1948 31.1562 56.3452 31.0566 56.478 30.9277C56.6109 30.7949 56.7241 30.6328 56.8179 30.4414C56.9116 30.25 56.978 30.0332 57.0171 29.791H58.0249ZM60.8812 26.6621H58.7191V25.7246H64.1215V26.6621H61.9594V32H60.8812V26.6621ZM65.3313 25.7246H68.0032C68.7688 25.7246 69.3411 25.8672 69.72 26.1523C70.1028 26.4375 70.2942 26.8516 70.2942 27.3945C70.2942 27.6836 70.2239 27.9277 70.0833 28.127C69.9427 28.3262 69.7571 28.502 69.5266 28.6543C69.8587 28.7793 70.1223 28.959 70.3177 29.1934C70.513 29.4277 70.6106 29.7305 70.6106 30.1016C70.6106 30.3945 70.5618 30.6582 70.4641 30.8926C70.3665 31.127 70.218 31.3262 70.0188 31.4902C69.8196 31.6543 69.5657 31.7812 69.2571 31.8711C68.9524 31.957 68.5911 32 68.1731 32H65.3313V25.7246ZM66.4095 31.1387H68.0501C68.3352 31.1387 68.5716 31.1172 68.7591 31.0742C68.9505 31.0273 69.1028 30.9609 69.2161 30.875C69.3294 30.7891 69.4095 30.6855 69.4563 30.5645C69.5032 30.4434 69.5266 30.3066 69.5266 30.1543C69.5266 30.002 69.5032 29.8652 69.4563 29.7441C69.4095 29.6191 69.3294 29.5156 69.2161 29.4336C69.1028 29.3477 68.9505 29.2832 68.7591 29.2402C68.5716 29.1934 68.3352 29.1699 68.0501 29.1699H66.4095V31.1387ZM66.4095 28.3789H68.0384C68.4016 28.3789 68.6888 28.3066 68.8997 28.1621C69.1106 28.0176 69.2161 27.793 69.2161 27.4883C69.2161 27.3164 69.1868 27.1738 69.1282 27.0605C69.0696 26.9434 68.9915 26.8496 68.8938 26.7793C68.7962 26.709 68.6848 26.6602 68.5598 26.6328C68.4388 26.6016 68.3138 26.5859 68.1848 26.5859H66.4095V28.3789ZM76.4084 28.8535C76.4084 28.5059 76.3693 28.1875 76.2912 27.8984C76.213 27.6055 76.0959 27.3535 75.9396 27.1426C75.7834 26.9316 75.59 26.7676 75.3595 26.6504C75.133 26.5293 74.8693 26.4688 74.5685 26.4688C74.2677 26.4688 74.0041 26.5293 73.7775 26.6504C73.5509 26.7676 73.3595 26.9316 73.2033 27.1426C73.047 27.3535 72.9298 27.6055 72.8517 27.8984C72.7736 28.1875 72.7345 28.5059 72.7345 28.8535C72.7345 29.2051 72.7736 29.5293 72.8517 29.8262C72.9298 30.1191 73.047 30.3711 73.2033 30.582C73.3595 30.793 73.5509 30.959 73.7775 31.0801C74.0041 31.1973 74.2677 31.2559 74.5685 31.2559C74.8693 31.2559 75.133 31.1973 75.3595 31.0801C75.59 30.959 75.7834 30.793 75.9396 30.582C76.0959 30.3711 76.213 30.1191 76.2912 29.8262C76.3693 29.5293 76.4084 29.2051 76.4084 28.8535ZM77.4865 28.8535C77.4865 29.3691 77.4201 29.834 77.2873 30.248C77.1545 30.6582 76.963 31.0078 76.713 31.2969C76.463 31.5859 76.1564 31.8086 75.7931 31.9648C75.4338 32.1172 75.0255 32.1934 74.5685 32.1934C74.1115 32.1934 73.7033 32.1172 73.3439 31.9648C72.9845 31.8086 72.6798 31.5859 72.4298 31.2969C72.1798 31.0078 71.9884 30.6582 71.8556 30.248C71.7228 29.834 71.6564 29.3691 71.6564 28.8535C71.6564 28.3457 71.7228 27.8867 71.8556 27.4766C71.9884 27.0664 72.1798 26.7168 72.4298 26.4277C72.6798 26.1387 72.9845 25.918 73.3439 25.7656C73.7033 25.6094 74.1115 25.5312 74.5685 25.5312C75.0255 25.5312 75.4338 25.6094 75.7931 25.7656C76.1564 25.918 76.463 26.1387 76.713 26.4277C76.963 26.7168 77.1545 27.0664 77.2873 27.4766C77.4201 27.8867 77.4865 28.3457 77.4865 28.8535ZM82.3847 23.3867H83.5331V30.9922H86.58V23.3867H87.7343V30.9922H90.7812V23.3867H91.9355V32H82.3847V23.3867ZM93.7371 25.7246H94.8152V28.7598L97.9852 25.7246H99.3973L96.45 28.4961L99.4441 32H98.0555L95.6062 29.1523L94.8152 29.8145V32H93.7371V25.7246ZM104.814 28.8535C104.814 28.5059 104.775 28.1875 104.697 27.8984C104.619 27.6055 104.502 27.3535 104.345 27.1426C104.189 26.9316 103.996 26.7676 103.765 26.6504C103.539 26.5293 103.275 26.4688 102.974 26.4688C102.674 26.4688 102.41 26.5293 102.183 26.6504C101.957 26.7676 101.765 26.9316 101.609 27.1426C101.453 27.3535 101.336 27.6055 101.257 27.8984C101.179 28.1875 101.14 28.5059 101.14 28.8535C101.14 29.2051 101.179 29.5293 101.257 29.8262C101.336 30.1191 101.453 30.3711 101.609 30.582C101.765 30.793 101.957 30.959 102.183 31.0801C102.41 31.1973 102.674 31.2559 102.974 31.2559C103.275 31.2559 103.539 31.1973 103.765 31.0801C103.996 30.959 104.189 30.793 104.345 30.582C104.502 30.3711 104.619 30.1191 104.697 29.8262C104.775 29.5293 104.814 29.2051 104.814 28.8535ZM105.892 28.8535C105.892 29.3691 105.826 29.834 105.693 30.248C105.56 30.6582 105.369 31.0078 105.119 31.2969C104.869 31.5859 104.562 31.8086 104.199 31.9648C103.84 32.1172 103.431 32.1934 102.974 32.1934C102.517 32.1934 102.109 32.1172 101.75 31.9648C101.39 31.8086 101.086 31.5859 100.836 31.2969C100.586 31.0078 100.394 30.6582 100.261 30.248C100.129 29.834 100.062 29.3691 100.062 28.8535C100.062 28.3457 100.129 27.8867 100.261 27.4766C100.394 27.0664 100.586 26.7168 100.836 26.4277C101.086 26.1387 101.39 25.918 101.75 25.7656C102.109 25.6094 102.517 25.5312 102.974 25.5312C103.431 25.5312 103.84 25.6094 104.199 25.7656C104.562 25.918 104.869 26.1387 105.119 26.4277C105.369 26.7168 105.56 27.0664 105.693 27.4766C105.826 27.8867 105.892 28.3457 105.892 28.8535ZM111.456 26.6621H109.053L109.006 28.168C108.983 28.9297 108.924 29.5664 108.831 30.0781C108.737 30.5859 108.608 30.9941 108.444 31.3027C108.284 31.6113 108.088 31.8301 107.858 31.959C107.628 32.0879 107.364 32.1523 107.067 32.1523C106.958 32.1523 106.862 32.1348 106.78 32.0996C106.702 32.0684 106.641 32.0352 106.598 32V31.0508C106.751 31.1094 106.885 31.1387 107.003 31.1387C107.085 31.1387 107.163 31.125 107.237 31.0977C107.315 31.0703 107.387 31.0176 107.454 30.9395C107.524 30.8613 107.588 30.752 107.647 30.6113C107.706 30.4668 107.756 30.2793 107.799 30.0488C107.846 29.8184 107.883 29.5391 107.911 29.2109C107.942 28.8828 107.963 28.4922 107.975 28.0391L108.028 25.7246H112.534V32H111.456V26.6621ZM120.242 25.7246H121.32V32H120.242V25.7246ZM114.242 25.7246H115.32V28.0859H117.206C117.546 28.0859 117.851 28.1328 118.121 28.2266C118.394 28.3164 118.624 28.4473 118.812 28.6191C118.999 28.7871 119.142 28.9922 119.24 29.2344C119.341 29.4727 119.392 29.7422 119.392 30.043C119.392 30.3477 119.341 30.6211 119.24 30.8633C119.142 31.1016 118.999 31.3066 118.812 31.4785C118.624 31.6465 118.394 31.7754 118.121 31.8652C117.851 31.9551 117.546 32 117.206 32H114.242V25.7246ZM115.32 31.1387H116.99C117.177 31.1387 117.351 31.1191 117.511 31.0801C117.675 31.041 117.816 30.9785 117.933 30.8926C118.05 30.8027 118.142 30.6895 118.208 30.5527C118.275 30.4121 118.308 30.2422 118.308 30.043C118.308 29.8477 118.273 29.6816 118.203 29.5449C118.136 29.4082 118.04 29.2969 117.915 29.2109C117.794 29.1211 117.646 29.0566 117.47 29.0176C117.298 28.9746 117.107 28.9531 116.896 28.9531H115.32V31.1387ZM130.501 26.6621H127.571V32H126.493V25.7246H131.585V32H130.501V26.6621ZM137.676 28.8535C137.676 28.5059 137.637 28.1875 137.559 27.8984C137.481 27.6055 137.363 27.3535 137.207 27.1426C137.051 26.9316 136.857 26.7676 136.627 26.6504C136.4 26.5293 136.137 26.4688 135.836 26.4688C135.535 26.4688 135.272 26.5293 135.045 26.6504C134.818 26.7676 134.627 26.9316 134.471 27.1426C134.315 27.3535 134.197 27.6055 134.119 27.8984C134.041 28.1875 134.002 28.5059 134.002 28.8535C134.002 29.2051 134.041 29.5293 134.119 29.8262C134.197 30.1191 134.315 30.3711 134.471 30.582C134.627 30.793 134.818 30.959 135.045 31.0801C135.272 31.1973 135.535 31.2559 135.836 31.2559C136.137 31.2559 136.4 31.1973 136.627 31.0801C136.857 30.959 137.051 30.793 137.207 30.582C137.363 30.3711 137.481 30.1191 137.559 29.8262C137.637 29.5293 137.676 29.2051 137.676 28.8535ZM138.754 28.8535C138.754 29.3691 138.688 29.834 138.555 30.248C138.422 30.6582 138.231 31.0078 137.981 31.2969C137.731 31.5859 137.424 31.8086 137.061 31.9648C136.701 32.1172 136.293 32.1934 135.836 32.1934C135.379 32.1934 134.971 32.1172 134.611 31.9648C134.252 31.8086 133.947 31.5859 133.697 31.2969C133.447 31.0078 133.256 30.6582 133.123 30.248C132.99 29.834 132.924 29.3691 132.924 28.8535C132.924 28.3457 132.99 27.8867 133.123 27.4766C133.256 27.0664 133.447 26.7168 133.697 26.4277C133.947 26.1387 134.252 25.918 134.611 25.7656C134.971 25.6094 135.379 25.5312 135.836 25.5312C136.293 25.5312 136.701 25.6094 137.061 25.7656C137.424 25.918 137.731 26.1387 137.981 26.4277C138.231 26.7168 138.422 27.0664 138.555 27.4766C138.688 27.8867 138.754 28.3457 138.754 28.8535ZM151.627 27.6934C151.627 28.0645 151.59 28.4355 151.515 28.8066C151.441 29.1738 151.328 29.5254 151.176 29.8613C151.023 30.1934 150.832 30.5039 150.601 30.793C150.375 31.0781 150.105 31.3281 149.793 31.543C149.48 31.7539 149.127 31.918 148.732 32.0352C148.342 32.1562 147.908 32.2168 147.431 32.2168C146.955 32.2168 146.519 32.1562 146.125 32.0352C145.73 31.918 145.377 31.7539 145.064 31.543C144.756 31.3281 144.486 31.0781 144.256 30.793C144.025 30.5039 143.834 30.1934 143.681 29.8613C143.529 29.5254 143.416 29.1738 143.342 28.8066C143.267 28.4355 143.23 28.0645 143.23 27.6934C143.23 27.0254 143.324 26.4141 143.512 25.8594C143.703 25.3047 143.978 24.8281 144.338 24.4297C144.697 24.0312 145.137 23.7227 145.656 23.5039C146.176 23.2812 146.767 23.1699 147.431 23.1699C148.092 23.1699 148.681 23.2812 149.201 23.5039C149.724 23.7227 150.164 24.0312 150.519 24.4297C150.879 24.8281 151.152 25.3047 151.34 25.8594C151.531 26.4141 151.627 27.0254 151.627 27.6934ZM150.478 27.6934C150.478 27.1816 150.41 26.7109 150.273 26.2812C150.137 25.8477 149.937 25.4766 149.676 25.168C149.418 24.8555 149.099 24.6133 148.721 24.4414C148.342 24.2656 147.912 24.1777 147.431 24.1777C146.947 24.1777 146.515 24.2656 146.137 24.4414C145.758 24.6133 145.437 24.8555 145.176 25.168C144.918 25.4766 144.721 25.8477 144.584 26.2812C144.447 26.7109 144.379 27.1816 144.379 27.6934C144.379 28.2168 144.441 28.6953 144.566 29.1289C144.691 29.5586 144.881 29.9277 145.135 30.2363C145.389 30.5449 145.705 30.7852 146.084 30.957C146.467 31.125 146.916 31.209 147.431 31.209C147.943 31.209 148.39 31.125 148.773 30.957C149.156 30.7852 149.473 30.5449 149.723 30.2363C149.976 29.9277 150.166 29.5586 150.291 29.1289C150.416 28.6953 150.478 28.2168 150.478 27.6934ZM153.012 25.7246H154.091V31.0625H157.02V25.7246H158.104V31.0625H158.878V33.5352H157.87V32H153.012V25.7246ZM165.332 29.9961C165.289 30.2695 165.195 30.5371 165.05 30.7988C164.906 31.0605 164.716 31.2949 164.482 31.502C164.248 31.709 163.97 31.875 163.65 32C163.334 32.1289 162.982 32.1934 162.595 32.1934C162.173 32.1934 161.783 32.125 161.423 31.9883C161.068 31.8477 160.759 31.6387 160.498 31.3613C160.24 31.0801 160.037 30.7285 159.888 30.3066C159.74 29.8848 159.666 29.3887 159.666 28.8184C159.666 28.4355 159.707 28.0898 159.789 27.7812C159.875 27.4688 159.988 27.1914 160.129 26.9492C160.273 26.7031 160.439 26.4922 160.627 26.3164C160.814 26.1367 161.011 25.9902 161.218 25.877C161.429 25.7598 161.644 25.6738 161.863 25.6191C162.082 25.5605 162.293 25.5312 162.496 25.5312C162.925 25.5312 163.318 25.5957 163.673 25.7246C164.029 25.8535 164.334 26.0508 164.587 26.3164C164.845 26.5781 165.045 26.9082 165.185 27.3066C165.33 27.7012 165.402 28.166 165.402 28.7012V29.2402H160.814C160.818 29.5449 160.861 29.8223 160.943 30.0723C161.025 30.3184 161.142 30.5293 161.295 30.7051C161.447 30.8809 161.63 31.0176 161.845 31.1152C162.064 31.209 162.31 31.2559 162.584 31.2559C162.861 31.2559 163.095 31.2168 163.287 31.1387C163.478 31.0605 163.638 30.9609 163.767 30.8398C163.896 30.7188 164 30.584 164.078 30.4355C164.16 30.2871 164.228 30.1406 164.283 29.9961H165.332ZM164.318 28.3789C164.31 28.0742 164.263 27.8027 164.177 27.5645C164.095 27.3262 163.978 27.127 163.826 26.9668C163.677 26.8027 163.498 26.6797 163.287 26.5977C163.076 26.5117 162.841 26.4688 162.584 26.4688C162.337 26.4688 162.111 26.5176 161.904 26.6152C161.697 26.709 161.515 26.8418 161.359 27.0137C161.203 27.1816 161.078 27.3828 160.984 27.6172C160.89 27.8477 160.834 28.1016 160.814 28.3789H164.318ZM166.788 25.7246H167.866V28.2559H170.795V25.7246H171.879V32H170.795V29.1934H167.866V32H166.788V25.7246ZM173.587 25.7246H174.665V28.7598L177.835 25.7246H179.247L176.3 28.4961L179.294 32H177.906L175.456 29.1523L174.665 29.8145V32H173.587V25.7246ZM180.27 27.6055C180.281 27.2227 180.354 26.9004 180.487 26.6387C180.619 26.373 180.799 26.1582 181.026 25.9941C181.252 25.8301 181.52 25.7129 181.828 25.6426C182.141 25.5684 182.481 25.5312 182.848 25.5312C183.153 25.5312 183.447 25.5625 183.733 25.625C184.022 25.6875 184.278 25.7891 184.5 25.9297C184.723 26.0664 184.901 26.2461 185.033 26.4688C185.17 26.6875 185.239 26.9551 185.239 27.2715V30.9219C185.239 31.0234 185.266 31.1113 185.321 31.1855C185.375 31.2559 185.463 31.291 185.584 31.291C185.639 31.291 185.696 31.2871 185.754 31.2793C185.813 31.2676 185.873 31.2559 185.936 31.2441V31.9883C185.846 32.0117 185.756 32.0332 185.666 32.0527C185.58 32.0723 185.477 32.082 185.356 32.082C185.168 32.082 185.006 32.0664 184.869 32.0352C184.737 32.0039 184.623 31.9531 184.53 31.8828C184.44 31.8086 184.369 31.7148 184.319 31.6016C184.268 31.4844 184.235 31.3418 184.219 31.1738C184.086 31.3184 183.946 31.4531 183.797 31.5781C183.649 31.6992 183.483 31.8066 183.299 31.9004C183.115 31.9902 182.91 32.0605 182.684 32.1113C182.457 32.166 182.201 32.1934 181.916 32.1934C181.674 32.1934 181.438 32.1543 181.207 32.0762C180.981 31.998 180.776 31.8828 180.592 31.7305C180.412 31.5781 180.268 31.3906 180.158 31.168C180.049 30.9414 179.994 30.6797 179.994 30.3828C179.994 30.0586 180.049 29.7793 180.158 29.5449C180.268 29.3066 180.41 29.1094 180.586 28.9531C180.762 28.793 180.963 28.6699 181.19 28.584C181.416 28.498 181.647 28.4414 181.881 28.4141L183.645 28.1973C183.813 28.1777 183.944 28.1133 184.037 28.0039C184.135 27.8906 184.184 27.7109 184.184 27.4648C184.184 27.0859 184.059 26.8145 183.809 26.6504C183.563 26.4824 183.207 26.3984 182.742 26.3984C182.266 26.3984 181.91 26.5 181.676 26.7031C181.442 26.9023 181.309 27.2031 181.278 27.6055H180.27ZM184.16 28.8066C184.074 28.8691 183.967 28.9219 183.838 28.9648C183.713 29.0039 183.574 29.0371 183.422 29.0645C183.27 29.0918 183.108 29.1172 182.936 29.1406C182.764 29.1602 182.592 29.1816 182.42 29.2051C182.225 29.2324 182.045 29.2715 181.881 29.3223C181.717 29.373 181.574 29.4395 181.453 29.5215C181.332 29.6035 181.239 29.7031 181.172 29.8203C181.106 29.9336 181.072 30.0684 181.072 30.2246C181.072 30.4043 181.1 30.5625 181.155 30.6992C181.213 30.8359 181.291 30.9512 181.389 31.0449C181.49 31.1387 181.612 31.209 181.752 31.2559C181.893 31.3027 182.047 31.3262 182.215 31.3262C182.321 31.3262 182.442 31.3145 182.578 31.291C182.715 31.2637 182.856 31.2246 183 31.1738C183.145 31.123 183.285 31.0586 183.422 30.9805C183.563 30.8984 183.688 30.8008 183.797 30.6875C183.906 30.5742 183.994 30.4453 184.061 30.3008C184.127 30.1562 184.16 29.9941 184.16 29.8145V28.8066ZM187.081 25.7246H188.651L190.31 30.8691H190.333L192.015 25.7246H193.491V32H192.484V26.9492H192.46L190.802 32H189.771L188.112 26.9492H188.089V32H187.081V25.7246Z" fill="black"/>
    <line x1="3.25346e-08" y1="55.6278" x2="294" y2="55.6279" stroke="#EEF0F7" stroke-width="0.744304"/>
    <path d="M53.8647 280.693C53.8647 281.064 53.8276 281.436 53.7534 281.807C53.6792 282.174 53.5659 282.525 53.4136 282.861C53.2612 283.193 53.0698 283.504 52.8394 283.793C52.6128 284.078 52.3433 284.328 52.0308 284.543C51.7183 284.754 51.3647 284.918 50.9702 285.035C50.5796 285.156 50.146 285.217 49.6694 285.217C49.1929 285.217 48.7573 285.156 48.3628 285.035C47.9683 284.918 47.6147 284.754 47.3022 284.543C46.9937 284.328 46.7241 284.078 46.4937 283.793C46.2632 283.504 46.0718 283.193 45.9194 282.861C45.7671 282.525 45.6538 282.174 45.5796 281.807C45.5054 281.436 45.4683 281.064 45.4683 280.693C45.4683 280.025 45.562 279.414 45.7495 278.859C45.9409 278.305 46.2163 277.828 46.5757 277.43C46.9351 277.031 47.3745 276.723 47.894 276.504C48.4136 276.281 49.0054 276.17 49.6694 276.17C50.3296 276.17 50.9194 276.281 51.439 276.504C51.9624 276.723 52.4019 277.031 52.7573 277.43C53.1167 277.828 53.3901 278.305 53.5776 278.859C53.769 279.414 53.8647 280.025 53.8647 280.693ZM52.7163 280.693C52.7163 280.182 52.6479 279.711 52.5112 279.281C52.3745 278.848 52.1753 278.477 51.9136 278.168C51.6558 277.855 51.3374 277.613 50.9585 277.441C50.5796 277.266 50.1499 277.178 49.6694 277.178C49.1851 277.178 48.7534 277.266 48.3745 277.441C47.9956 277.613 47.6753 277.855 47.4136 278.168C47.1558 278.477 46.9585 278.848 46.8218 279.281C46.6851 279.711 46.6167 280.182 46.6167 280.693C46.6167 281.217 46.6792 281.695 46.8042 282.129C46.9292 282.559 47.1187 282.928 47.3726 283.236C47.6265 283.545 47.9429 283.785 48.3218 283.957C48.7046 284.125 49.1538 284.209 49.6694 284.209C50.1812 284.209 50.6284 284.125 51.0112 283.957C51.394 283.785 51.7104 283.545 51.9604 283.236C52.2144 282.928 52.4038 282.559 52.5288 282.129C52.6538 281.695 52.7163 281.217 52.7163 280.693ZM56.9203 279.662H54.7582V278.725H60.1605V279.662H57.9984V285H56.9203V279.662ZM65.595 279.662H63.1926L63.1458 281.168C63.1223 281.93 63.0637 282.566 62.97 283.078C62.8762 283.586 62.7473 283.994 62.5833 284.303C62.4231 284.611 62.2278 284.83 61.9973 284.959C61.7669 285.088 61.5032 285.152 61.2063 285.152C61.0969 285.152 61.0012 285.135 60.9192 285.1C60.8411 285.068 60.7805 285.035 60.7376 285V284.051C60.8899 284.109 61.0247 284.139 61.1419 284.139C61.2239 284.139 61.302 284.125 61.3762 284.098C61.4544 284.07 61.5266 284.018 61.593 283.939C61.6633 283.861 61.7278 283.752 61.7864 283.611C61.845 283.467 61.8958 283.279 61.9387 283.049C61.9856 282.818 62.0227 282.539 62.0501 282.211C62.0813 281.883 62.1028 281.492 62.1145 281.039L62.1672 278.725H66.6731V285H65.595V279.662ZM68.381 278.725H69.4591V283.535H69.4826L72.5646 278.725H73.8009V285H72.7169V280.189H72.6935L69.6173 285H68.381V278.725ZM79.2881 282.469C79.0537 282.531 78.7959 282.584 78.5147 282.627C78.2373 282.67 77.9776 282.691 77.7354 282.691C76.8955 282.691 76.2725 282.531 75.8662 282.211C75.46 281.887 75.2569 281.377 75.2569 280.682V278.725H76.335V280.465C76.335 280.699 76.3623 280.902 76.417 281.074C76.4756 281.246 76.5694 281.389 76.6983 281.502C76.8272 281.611 76.9971 281.693 77.208 281.748C77.419 281.803 77.6787 281.83 77.9873 281.83C78.0694 281.83 78.167 281.822 78.2803 281.807C78.3975 281.791 78.5166 281.771 78.6377 281.748C78.7588 281.725 78.876 281.699 78.9893 281.672C79.1065 281.641 79.2061 281.609 79.2881 281.578V278.725H80.3721V285H79.2881V282.469ZM82.0858 278.725H83.164V281.256H86.0937V278.725H87.1776V285H86.0937V282.193H83.164V285H82.0858V278.725ZM88.8855 278.725H89.9637V283.535H89.9871L93.0691 278.725H94.3055V285H93.2215V280.189H93.198L90.1219 285H88.8855V278.725ZM96.0133 278.725H97.0915V281.76L100.261 278.725H101.673L98.7262 281.496L101.72 285H100.332L97.8825 282.152L97.0915 282.814V285H96.0133V278.725ZM102.708 278.725H103.786V283.535H103.809L106.891 278.725H108.127V285H107.043V280.189H107.02L103.944 285H102.708V278.725Z" fill="#A6ACBE"/>
    <path d="M216.808 284C216.847 283.277 216.995 282.648 217.253 282.113C217.515 281.578 218.023 281.092 218.777 280.654L219.902 280.004C220.406 279.711 220.759 279.461 220.962 279.254C221.283 278.93 221.443 278.559 221.443 278.141C221.443 277.652 221.296 277.266 221.003 276.98C220.71 276.691 220.32 276.547 219.831 276.547C219.109 276.547 218.609 276.82 218.331 277.367C218.183 277.66 218.101 278.066 218.085 278.586H217.013C217.025 277.855 217.16 277.26 217.417 276.799C217.874 275.986 218.681 275.58 219.837 275.58C220.798 275.58 221.499 275.84 221.941 276.359C222.386 276.879 222.609 277.457 222.609 278.094C222.609 278.766 222.372 279.34 221.9 279.816C221.626 280.094 221.136 280.43 220.429 280.824L219.626 281.27C219.243 281.48 218.943 281.682 218.724 281.873C218.333 282.213 218.087 282.59 217.986 283.004H222.568V284H216.808ZM226.479 275.609C227.565 275.609 228.35 276.057 228.834 276.951C229.209 277.643 229.397 278.59 229.397 279.793C229.397 280.934 229.227 281.877 228.887 282.623C228.395 283.693 227.59 284.229 226.473 284.229C225.465 284.229 224.715 283.791 224.223 282.916C223.813 282.186 223.608 281.205 223.608 279.975C223.608 279.021 223.731 278.203 223.977 277.52C224.438 276.246 225.272 275.609 226.479 275.609ZM226.467 283.268C227.014 283.268 227.449 283.025 227.774 282.541C228.098 282.057 228.26 281.154 228.26 279.834C228.26 278.881 228.143 278.098 227.908 277.484C227.674 276.867 227.219 276.559 226.543 276.559C225.922 276.559 225.467 276.852 225.178 277.438C224.893 278.02 224.75 278.879 224.75 280.016C224.75 280.871 224.842 281.559 225.026 282.078C225.307 282.871 225.787 283.268 226.467 283.268Z" fill="black"/>
    <path d="M237.043 275.252C236.43 276.443 236.031 277.32 235.848 277.883C235.57 278.738 235.432 279.727 235.432 280.848C235.432 281.98 235.59 283.016 235.906 283.953C236.102 284.531 236.486 285.363 237.061 286.449H236.352C235.781 285.559 235.428 284.99 235.291 284.744C235.154 284.498 235.006 284.164 234.846 283.742C234.627 283.164 234.475 282.547 234.389 281.891C234.346 281.551 234.324 281.227 234.324 280.918C234.324 279.762 234.506 278.732 234.869 277.83C235.1 277.256 235.58 276.396 236.311 275.252H237.043ZM240.725 284.229C239.733 284.229 239.013 283.957 238.563 283.414C238.118 282.867 237.895 282.203 237.895 281.422H238.997C239.044 281.965 239.145 282.359 239.302 282.605C239.575 283.047 240.069 283.268 240.784 283.268C241.339 283.268 241.784 283.119 242.12 282.822C242.456 282.525 242.624 282.143 242.624 281.674C242.624 281.096 242.446 280.691 242.091 280.461C241.739 280.23 241.249 280.115 240.62 280.115C240.55 280.115 240.477 280.117 240.403 280.121C240.333 280.121 240.261 280.123 240.186 280.127V279.195C240.296 279.207 240.388 279.215 240.462 279.219C240.536 279.223 240.616 279.225 240.702 279.225C241.097 279.225 241.421 279.162 241.675 279.037C242.12 278.818 242.343 278.428 242.343 277.865C242.343 277.447 242.194 277.125 241.897 276.898C241.6 276.672 241.255 276.559 240.86 276.559C240.157 276.559 239.671 276.793 239.401 277.262C239.253 277.52 239.169 277.887 239.149 278.363H238.106C238.106 277.738 238.231 277.207 238.481 276.77C238.911 275.988 239.667 275.598 240.749 275.598C241.604 275.598 242.266 275.789 242.735 276.172C243.204 276.551 243.438 277.102 243.438 277.824C243.438 278.34 243.3 278.758 243.022 279.078C242.85 279.277 242.628 279.434 242.354 279.547C242.796 279.668 243.14 279.902 243.386 280.25C243.636 280.594 243.761 281.016 243.761 281.516C243.761 282.316 243.497 282.969 242.97 283.473C242.442 283.977 241.694 284.229 240.725 284.229ZM244.783 284C244.822 283.277 244.97 282.648 245.228 282.113C245.49 281.578 245.998 281.092 246.752 280.654L247.877 280.004C248.381 279.711 248.734 279.461 248.937 279.254C249.258 278.93 249.418 278.559 249.418 278.141C249.418 277.652 249.271 277.266 248.978 276.98C248.685 276.691 248.295 276.547 247.806 276.547C247.084 276.547 246.584 276.82 246.306 277.367C246.158 277.66 246.076 278.066 246.06 278.586H244.988C245 277.855 245.135 277.26 245.392 276.799C245.849 275.986 246.656 275.58 247.812 275.58C248.773 275.58 249.474 275.84 249.916 276.359C250.361 276.879 250.584 277.457 250.584 278.094C250.584 278.766 250.347 279.34 249.875 279.816C249.601 280.094 249.111 280.43 248.404 280.824L247.601 281.27C247.218 281.48 246.918 281.682 246.699 281.873C246.308 282.213 246.062 282.59 245.961 283.004H250.543V284H244.783ZM259.387 279.922C259.95 279.922 260.43 280.121 260.829 280.52C261.227 280.918 261.426 281.398 261.426 281.961C261.426 282.523 261.227 283.004 260.829 283.402C260.43 283.801 259.95 284 259.387 284C258.821 284 258.338 283.801 257.94 283.402C257.542 283.004 257.342 282.523 257.342 281.961C257.342 281.398 257.542 280.918 257.94 280.52C258.338 280.121 258.821 279.922 259.387 279.922ZM258.538 275.645H259.188L254.495 284.223H253.844L258.538 275.645ZM253.633 279.113C253.969 279.113 254.255 278.996 254.489 278.762C254.727 278.523 254.846 278.238 254.846 277.906C254.846 277.574 254.727 277.291 254.489 277.057C254.255 276.818 253.969 276.699 253.633 276.699C253.301 276.699 253.016 276.816 252.778 277.051C252.544 277.285 252.426 277.57 252.426 277.906C252.426 278.238 252.544 278.523 252.778 278.762C253.016 278.996 253.301 279.113 253.633 279.113ZM253.633 275.861C254.2 275.861 254.682 276.062 255.081 276.465C255.479 276.863 255.678 277.344 255.678 277.906C255.678 278.469 255.479 278.949 255.081 279.348C254.682 279.746 254.2 279.945 253.633 279.945C253.071 279.945 252.59 279.746 252.192 279.348C251.794 278.949 251.594 278.469 251.594 277.906C251.594 277.344 251.794 276.863 252.192 276.465C252.59 276.062 253.071 275.861 253.633 275.861ZM259.387 283.168C259.719 283.168 260.003 283.051 260.237 282.816C260.475 282.578 260.594 282.293 260.594 281.961C260.594 281.629 260.475 281.346 260.237 281.111C260.003 280.873 259.719 280.754 259.387 280.754C259.051 280.754 258.764 280.873 258.526 281.111C258.292 281.346 258.174 281.629 258.174 281.961C258.174 282.293 258.292 282.578 258.526 282.816C258.764 283.051 259.051 283.168 259.387 283.168ZM262.419 286.449C263.041 285.238 263.441 284.355 263.621 283.801C263.894 282.961 264.031 281.977 264.031 280.848C264.031 279.719 263.873 278.686 263.556 277.748C263.361 277.17 262.976 276.338 262.402 275.252H263.111C263.712 276.213 264.076 276.807 264.201 277.033C264.33 277.256 264.468 277.564 264.617 277.959C264.804 278.447 264.937 278.93 265.015 279.406C265.097 279.883 265.138 280.342 265.138 280.783C265.138 281.939 264.955 282.971 264.587 283.877C264.357 284.459 263.878 285.316 263.152 286.449H262.419Z" fill="#A6ACBE"/>
    <circle cx="27.9995" cy="280" r="4" fill="#339DFA"/>
    <path d="M46.7515 317.846C46.7944 317.881 46.8511 317.918 46.9214 317.957C46.9917 317.992 47.0679 318.025 47.1499 318.057C47.2319 318.084 47.3159 318.107 47.4019 318.127C47.4917 318.143 47.5776 318.15 47.6597 318.15C47.8354 318.15 47.9858 318.127 48.1108 318.08C48.2397 318.029 48.3491 317.965 48.439 317.887C48.5327 317.805 48.6089 317.713 48.6675 317.611C48.7261 317.506 48.7729 317.396 48.8081 317.283L45.2749 310.387H46.6167L49.4644 316.094L51.6206 310.387H52.9214L50.2144 316.826C50.0269 317.256 49.8511 317.623 49.687 317.928C49.5269 318.229 49.3511 318.475 49.1597 318.666C48.9722 318.857 48.7573 318.996 48.5151 319.082C48.2769 319.172 47.9878 319.217 47.6479 319.217C47.4722 319.217 47.3003 319.193 47.1323 319.146C46.9644 319.1 46.8354 319.039 46.7456 318.965L46.7515 317.846ZM59.1469 319H54.2953V320.535H53.2875V318.062H54.1137C54.2855 317.641 54.4222 317.211 54.5238 316.773C54.6254 316.332 54.7035 315.889 54.7582 315.443C54.8129 314.994 54.848 314.543 54.8637 314.09C54.8793 313.637 54.8871 313.182 54.8871 312.725H59.2699V318.062H60.1547V320.535H59.1469V319ZM58.1918 318.062V313.662H55.9183C55.891 314.018 55.8617 314.383 55.8304 314.758C55.8031 315.133 55.764 315.51 55.7133 315.889C55.6664 316.264 55.6019 316.635 55.5199 317.002C55.4418 317.369 55.3383 317.723 55.2094 318.062H58.1918ZM61.3001 314.605C61.3118 314.223 61.384 313.9 61.5169 313.639C61.6497 313.373 61.8294 313.158 62.0559 312.994C62.2825 312.83 62.5501 312.713 62.8587 312.643C63.1712 312.568 63.511 312.531 63.8782 312.531C64.1829 312.531 64.4778 312.562 64.7629 312.625C65.052 312.688 65.3079 312.789 65.5305 312.93C65.7532 313.066 65.9309 313.246 66.0637 313.469C66.2004 313.688 66.2688 313.955 66.2688 314.271V317.922C66.2688 318.023 66.2962 318.111 66.3508 318.186C66.4055 318.256 66.4934 318.291 66.6145 318.291C66.6692 318.291 66.7258 318.287 66.7844 318.279C66.843 318.268 66.9036 318.256 66.9661 318.244V318.988C66.8762 319.012 66.7864 319.033 66.6965 319.053C66.6106 319.072 66.5071 319.082 66.386 319.082C66.1985 319.082 66.0364 319.066 65.8997 319.035C65.7669 319.004 65.6536 318.953 65.5598 318.883C65.47 318.809 65.3997 318.715 65.3489 318.602C65.2981 318.484 65.2649 318.342 65.2493 318.174C65.1165 318.318 64.9758 318.453 64.8274 318.578C64.679 318.699 64.5129 318.807 64.3294 318.9C64.1458 318.99 63.9407 319.061 63.7141 319.111C63.4876 319.166 63.2317 319.193 62.9465 319.193C62.7044 319.193 62.468 319.154 62.2376 319.076C62.011 318.998 61.8059 318.883 61.6223 318.73C61.4426 318.578 61.2981 318.391 61.1887 318.168C61.0794 317.941 61.0247 317.68 61.0247 317.383C61.0247 317.059 61.0794 316.779 61.1887 316.545C61.2981 316.307 61.4407 316.109 61.6165 315.953C61.7922 315.793 61.9934 315.67 62.22 315.584C62.4465 315.498 62.677 315.441 62.9114 315.414L64.6751 315.197C64.843 315.178 64.9739 315.113 65.0676 315.004C65.1653 314.891 65.2141 314.711 65.2141 314.465C65.2141 314.086 65.0891 313.814 64.8391 313.65C64.593 313.482 64.2376 313.398 63.7727 313.398C63.2962 313.398 62.9407 313.5 62.7063 313.703C62.4719 313.902 62.3391 314.203 62.3079 314.605H61.3001ZM65.1907 315.807C65.1047 315.869 64.9973 315.922 64.8684 315.965C64.7434 316.004 64.6047 316.037 64.4524 316.064C64.3001 316.092 64.1379 316.117 63.9661 316.141C63.7942 316.16 63.6223 316.182 63.4504 316.205C63.2551 316.232 63.0754 316.271 62.9114 316.322C62.7473 316.373 62.6047 316.439 62.4837 316.521C62.3626 316.604 62.2688 316.703 62.2024 316.82C62.136 316.934 62.1028 317.068 62.1028 317.225C62.1028 317.404 62.1301 317.562 62.1848 317.699C62.2434 317.836 62.3215 317.951 62.4192 318.045C62.5208 318.139 62.6419 318.209 62.7825 318.256C62.9231 318.303 63.0774 318.326 63.2454 318.326C63.3508 318.326 63.4719 318.314 63.6087 318.291C63.7454 318.264 63.886 318.225 64.0305 318.174C64.1751 318.123 64.3157 318.059 64.4524 317.98C64.593 317.898 64.718 317.801 64.8274 317.688C64.9368 317.574 65.0247 317.445 65.0911 317.301C65.1575 317.156 65.1907 316.994 65.1907 316.814V315.807ZM68.0529 312.725H69.131V313.586H69.1544C69.2247 313.441 69.3126 313.305 69.4181 313.176C69.5275 313.047 69.6564 312.936 69.8048 312.842C69.9572 312.744 70.131 312.668 70.3263 312.613C70.5255 312.559 70.7521 312.531 71.006 312.531C71.3419 312.531 71.6642 312.596 71.9728 312.725C72.2814 312.854 72.5548 313.047 72.7931 313.305C73.0314 313.562 73.2208 313.887 73.3615 314.277C73.5021 314.664 73.5724 315.115 73.5724 315.631C73.5724 316.275 73.506 316.824 73.3732 317.277C73.2443 317.727 73.0587 318.094 72.8165 318.379C72.5783 318.664 72.2892 318.871 71.9494 319C71.6095 319.129 71.2306 319.193 70.8126 319.193C70.6056 319.193 70.4122 319.166 70.2326 319.111C70.0529 319.057 69.8908 318.986 69.7462 318.9C69.6056 318.811 69.4845 318.713 69.3829 318.607C69.2814 318.498 69.2052 318.393 69.1544 318.291H69.131V321.473H68.0529V312.725ZM69.1076 315.895C69.1076 316.234 69.1408 316.549 69.2072 316.838C69.2736 317.123 69.3751 317.371 69.5119 317.582C69.6525 317.793 69.8263 317.959 70.0333 318.08C70.2443 318.197 70.4923 318.256 70.7775 318.256C71.0744 318.256 71.3302 318.197 71.5451 318.08C71.7638 317.959 71.9435 317.793 72.0841 317.582C72.2247 317.371 72.3283 317.123 72.3947 316.838C72.4611 316.549 72.4943 316.234 72.4943 315.895C72.4943 315.539 72.4611 315.213 72.3947 314.916C72.3283 314.619 72.2247 314.363 72.0841 314.148C71.9435 313.934 71.7638 313.768 71.5451 313.65C71.3302 313.529 71.0744 313.469 70.7775 313.469C70.4923 313.469 70.2443 313.529 70.0333 313.65C69.8263 313.768 69.6525 313.934 69.5119 314.148C69.3751 314.363 69.2736 314.619 69.2072 314.916C69.1408 315.213 69.1076 315.539 69.1076 315.895ZM74.9112 312.725H75.9893V315.256H78.919V312.725H80.0029V319H78.919V316.193H75.9893V319H74.9112V312.725ZM81.7108 312.725H82.789V317.535H82.8124L85.8944 312.725H87.1308V319H86.0468V314.189H86.0233L82.9472 319H81.7108V312.725ZM88.8387 312.725H89.9168V315.76L93.0867 312.725H94.4988L91.5515 315.496L94.5457 319H93.157L90.7078 316.152L89.9168 316.814V319H88.8387V312.725ZM95.5329 312.725H96.611V317.535H96.6344L99.7165 312.725H100.953V319H99.8688V314.189H99.8454L96.7692 319H95.5329V312.725Z" fill="#A6ACBE"/>
    <path d="M216.808 318C216.847 317.277 216.995 316.648 217.253 316.113C217.515 315.578 218.023 315.092 218.777 314.654L219.902 314.004C220.406 313.711 220.759 313.461 220.962 313.254C221.283 312.93 221.443 312.559 221.443 312.141C221.443 311.652 221.296 311.266 221.003 310.98C220.71 310.691 220.32 310.547 219.831 310.547C219.109 310.547 218.609 310.82 218.331 311.367C218.183 311.66 218.101 312.066 218.085 312.586H217.013C217.025 311.855 217.16 311.26 217.417 310.799C217.874 309.986 218.681 309.58 219.837 309.58C220.798 309.58 221.499 309.84 221.941 310.359C222.386 310.879 222.609 311.457 222.609 312.094C222.609 312.766 222.372 313.34 221.9 313.816C221.626 314.094 221.136 314.43 220.429 314.824L219.626 315.27C219.243 315.48 218.943 315.682 218.724 315.873C218.333 316.213 218.087 316.59 217.986 317.004H222.568V318H216.808ZM226.479 309.609C227.565 309.609 228.35 310.057 228.834 310.951C229.209 311.643 229.397 312.59 229.397 313.793C229.397 314.934 229.227 315.877 228.887 316.623C228.395 317.693 227.59 318.229 226.473 318.229C225.465 318.229 224.715 317.791 224.223 316.916C223.813 316.186 223.608 315.205 223.608 313.975C223.608 313.021 223.731 312.203 223.977 311.52C224.438 310.246 225.272 309.609 226.479 309.609ZM226.467 317.268C227.014 317.268 227.449 317.025 227.774 316.541C228.098 316.057 228.26 315.154 228.26 313.834C228.26 312.881 228.143 312.098 227.908 311.484C227.674 310.867 227.219 310.559 226.543 310.559C225.922 310.559 225.467 310.852 225.178 311.438C224.893 312.02 224.75 312.879 224.75 314.016C224.75 314.871 224.842 315.559 225.026 316.078C225.307 316.871 225.787 317.268 226.467 317.268Z" fill="black"/>
    <path d="M237.043 309.252C236.43 310.443 236.031 311.32 235.848 311.883C235.57 312.738 235.432 313.727 235.432 314.848C235.432 315.98 235.59 317.016 235.906 317.953C236.102 318.531 236.486 319.363 237.061 320.449H236.352C235.781 319.559 235.428 318.99 235.291 318.744C235.154 318.498 235.006 318.164 234.846 317.742C234.627 317.164 234.475 316.547 234.389 315.891C234.346 315.551 234.324 315.227 234.324 314.918C234.324 313.762 234.506 312.732 234.869 311.83C235.1 311.256 235.58 310.396 236.311 309.252H237.043ZM240.725 318.229C239.733 318.229 239.013 317.957 238.563 317.414C238.118 316.867 237.895 316.203 237.895 315.422H238.997C239.044 315.965 239.145 316.359 239.302 316.605C239.575 317.047 240.069 317.268 240.784 317.268C241.339 317.268 241.784 317.119 242.12 316.822C242.456 316.525 242.624 316.143 242.624 315.674C242.624 315.096 242.446 314.691 242.091 314.461C241.739 314.23 241.249 314.115 240.62 314.115C240.55 314.115 240.477 314.117 240.403 314.121C240.333 314.121 240.261 314.123 240.186 314.127V313.195C240.296 313.207 240.388 313.215 240.462 313.219C240.536 313.223 240.616 313.225 240.702 313.225C241.097 313.225 241.421 313.162 241.675 313.037C242.12 312.818 242.343 312.428 242.343 311.865C242.343 311.447 242.194 311.125 241.897 310.898C241.6 310.672 241.255 310.559 240.86 310.559C240.157 310.559 239.671 310.793 239.401 311.262C239.253 311.52 239.169 311.887 239.149 312.363H238.106C238.106 311.738 238.231 311.207 238.481 310.77C238.911 309.988 239.667 309.598 240.749 309.598C241.604 309.598 242.266 309.789 242.735 310.172C243.204 310.551 243.438 311.102 243.438 311.824C243.438 312.34 243.3 312.758 243.022 313.078C242.85 313.277 242.628 313.434 242.354 313.547C242.796 313.668 243.14 313.902 243.386 314.25C243.636 314.594 243.761 315.016 243.761 315.516C243.761 316.316 243.497 316.969 242.97 317.473C242.442 317.977 241.694 318.229 240.725 318.229ZM244.783 318C244.822 317.277 244.97 316.648 245.228 316.113C245.49 315.578 245.998 315.092 246.752 314.654L247.877 314.004C248.381 313.711 248.734 313.461 248.937 313.254C249.258 312.93 249.418 312.559 249.418 312.141C249.418 311.652 249.271 311.266 248.978 310.98C248.685 310.691 248.295 310.547 247.806 310.547C247.084 310.547 246.584 310.82 246.306 311.367C246.158 311.66 246.076 312.066 246.06 312.586H244.988C245 311.855 245.135 311.26 245.392 310.799C245.849 309.986 246.656 309.58 247.812 309.58C248.773 309.58 249.474 309.84 249.916 310.359C250.361 310.879 250.584 311.457 250.584 312.094C250.584 312.766 250.347 313.34 249.875 313.816C249.601 314.094 249.111 314.43 248.404 314.824L247.601 315.27C247.218 315.48 246.918 315.682 246.699 315.873C246.308 316.213 246.062 316.59 245.961 317.004H250.543V318H244.783ZM259.387 313.922C259.95 313.922 260.43 314.121 260.829 314.52C261.227 314.918 261.426 315.398 261.426 315.961C261.426 316.523 261.227 317.004 260.829 317.402C260.43 317.801 259.95 318 259.387 318C258.821 318 258.338 317.801 257.94 317.402C257.542 317.004 257.342 316.523 257.342 315.961C257.342 315.398 257.542 314.918 257.94 314.52C258.338 314.121 258.821 313.922 259.387 313.922ZM258.538 309.645H259.188L254.495 318.223H253.844L258.538 309.645ZM253.633 313.113C253.969 313.113 254.255 312.996 254.489 312.762C254.727 312.523 254.846 312.238 254.846 311.906C254.846 311.574 254.727 311.291 254.489 311.057C254.255 310.818 253.969 310.699 253.633 310.699C253.301 310.699 253.016 310.816 252.778 311.051C252.544 311.285 252.426 311.57 252.426 311.906C252.426 312.238 252.544 312.523 252.778 312.762C253.016 312.996 253.301 313.113 253.633 313.113ZM253.633 309.861C254.2 309.861 254.682 310.062 255.081 310.465C255.479 310.863 255.678 311.344 255.678 311.906C255.678 312.469 255.479 312.949 255.081 313.348C254.682 313.746 254.2 313.945 253.633 313.945C253.071 313.945 252.59 313.746 252.192 313.348C251.794 312.949 251.594 312.469 251.594 311.906C251.594 311.344 251.794 310.863 252.192 310.465C252.59 310.062 253.071 309.861 253.633 309.861ZM259.387 317.168C259.719 317.168 260.003 317.051 260.237 316.816C260.475 316.578 260.594 316.293 260.594 315.961C260.594 315.629 260.475 315.346 260.237 315.111C260.003 314.873 259.719 314.754 259.387 314.754C259.051 314.754 258.764 314.873 258.526 315.111C258.292 315.346 258.174 315.629 258.174 315.961C258.174 316.293 258.292 316.578 258.526 316.816C258.764 317.051 259.051 317.168 259.387 317.168ZM262.419 320.449C263.041 319.238 263.441 318.355 263.621 317.801C263.894 316.961 264.031 315.977 264.031 314.848C264.031 313.719 263.873 312.686 263.556 311.748C263.361 311.17 262.976 310.338 262.402 309.252H263.111C263.712 310.213 264.076 310.807 264.201 311.033C264.33 311.256 264.468 311.564 264.617 311.959C264.804 312.447 264.937 312.93 265.015 313.406C265.097 313.883 265.138 314.342 265.138 314.783C265.138 315.939 264.955 316.971 264.587 317.877C264.357 318.459 263.878 319.316 263.152 320.449H262.419Z" fill="#A6ACBE"/>
    <circle cx="27.9995" cy="314.238" r="4" fill="#FFCC00"/>
    <path d="M45.1694 344.387H52.1772V345.395H49.2476V353H48.0933V345.395H45.1694V344.387ZM53.1879 346.725H54.266V347.586H54.2894C54.3597 347.441 54.4476 347.305 54.5531 347.176C54.6625 347.047 54.7914 346.936 54.9398 346.842C55.0922 346.744 55.266 346.668 55.4613 346.613C55.6605 346.559 55.8871 346.531 56.141 346.531C56.4769 346.531 56.7992 346.596 57.1078 346.725C57.4164 346.854 57.6898 347.047 57.9281 347.305C58.1664 347.562 58.3558 347.887 58.4965 348.277C58.6371 348.664 58.7074 349.115 58.7074 349.631C58.7074 350.275 58.641 350.824 58.5082 351.277C58.3793 351.727 58.1937 352.094 57.9515 352.379C57.7133 352.664 57.4242 352.871 57.0844 353C56.7445 353.129 56.3656 353.193 55.9476 353.193C55.7406 353.193 55.5472 353.166 55.3676 353.111C55.1879 353.057 55.0258 352.986 54.8812 352.9C54.7406 352.811 54.6195 352.713 54.5179 352.607C54.4164 352.498 54.3402 352.393 54.2894 352.291H54.266V355.473H53.1879V346.725ZM54.2426 349.895C54.2426 350.234 54.2758 350.549 54.3422 350.838C54.4086 351.123 54.5101 351.371 54.6469 351.582C54.7875 351.793 54.9613 351.959 55.1683 352.08C55.3793 352.197 55.6273 352.256 55.9125 352.256C56.2094 352.256 56.4652 352.197 56.6801 352.08C56.8988 351.959 57.0785 351.793 57.2191 351.582C57.3597 351.371 57.4633 351.123 57.5297 350.838C57.5961 350.549 57.6293 350.234 57.6293 349.895C57.6293 349.539 57.5961 349.213 57.5297 348.916C57.4633 348.619 57.3597 348.363 57.2191 348.148C57.0785 347.934 56.8988 347.768 56.6801 347.65C56.4652 347.529 56.2094 347.469 55.9125 347.469C55.6273 347.469 55.3793 347.529 55.1683 347.65C54.9613 347.768 54.7875 347.934 54.6469 348.148C54.5101 348.363 54.4086 348.619 54.3422 348.916C54.2758 349.213 54.2426 349.539 54.2426 349.895ZM64.429 349.854C64.429 349.506 64.3899 349.188 64.3118 348.898C64.2337 348.605 64.1165 348.354 63.9602 348.143C63.804 347.932 63.6106 347.768 63.3801 347.65C63.1536 347.529 62.8899 347.469 62.5891 347.469C62.2883 347.469 62.0247 347.529 61.7981 347.65C61.5715 347.768 61.3801 347.932 61.2239 348.143C61.0676 348.354 60.9504 348.605 60.8723 348.898C60.7942 349.188 60.7551 349.506 60.7551 349.854C60.7551 350.205 60.7942 350.529 60.8723 350.826C60.9504 351.119 61.0676 351.371 61.2239 351.582C61.3801 351.793 61.5715 351.959 61.7981 352.08C62.0247 352.197 62.2883 352.256 62.5891 352.256C62.8899 352.256 63.1536 352.197 63.3801 352.08C63.6106 351.959 63.804 351.793 63.9602 351.582C64.1165 351.371 64.2337 351.119 64.3118 350.826C64.3899 350.529 64.429 350.205 64.429 349.854ZM65.5071 349.854C65.5071 350.369 65.4407 350.834 65.3079 351.248C65.1751 351.658 64.9837 352.008 64.7337 352.297C64.4837 352.586 64.177 352.809 63.8137 352.965C63.4544 353.117 63.0462 353.193 62.5891 353.193C62.1321 353.193 61.7239 353.117 61.3645 352.965C61.0051 352.809 60.7004 352.586 60.4504 352.297C60.2004 352.008 60.009 351.658 59.8762 351.248C59.7434 350.834 59.677 350.369 59.677 349.854C59.677 349.346 59.7434 348.887 59.8762 348.477C60.009 348.066 60.2004 347.717 60.4504 347.428C60.7004 347.139 61.0051 346.918 61.3645 346.766C61.7239 346.609 62.1321 346.531 62.5891 346.531C63.0462 346.531 63.4544 346.609 63.8137 346.766C64.177 346.918 64.4837 347.139 64.7337 347.428C64.9837 347.717 65.1751 348.066 65.3079 348.477C65.4407 348.887 65.5071 349.346 65.5071 349.854ZM72.1896 350.996C72.1466 351.27 72.0529 351.537 71.9083 351.799C71.7638 352.061 71.5744 352.295 71.34 352.502C71.1056 352.709 70.8283 352.875 70.5079 353C70.1915 353.129 69.84 353.193 69.4533 353.193C69.0314 353.193 68.6408 353.125 68.2814 352.988C67.9259 352.848 67.6173 352.639 67.3556 352.361C67.0978 352.08 66.8947 351.729 66.7462 351.307C66.5978 350.885 66.5236 350.389 66.5236 349.818C66.5236 349.436 66.5646 349.09 66.6466 348.781C66.7326 348.469 66.8458 348.191 66.9865 347.949C67.131 347.703 67.297 347.492 67.4845 347.316C67.672 347.137 67.8693 346.99 68.0763 346.877C68.2872 346.76 68.5021 346.674 68.7208 346.619C68.9396 346.561 69.1505 346.531 69.3537 346.531C69.7833 346.531 70.1759 346.596 70.5314 346.725C70.8869 346.854 71.1915 347.051 71.4454 347.316C71.7033 347.578 71.9025 347.908 72.0431 348.307C72.1876 348.701 72.2599 349.166 72.2599 349.701V350.24H67.672C67.6759 350.545 67.7189 350.822 67.8009 351.072C67.8829 351.318 68.0001 351.529 68.1525 351.705C68.3048 351.881 68.4884 352.018 68.7033 352.115C68.922 352.209 69.1681 352.256 69.4415 352.256C69.7189 352.256 69.9533 352.217 70.1447 352.139C70.3361 352.061 70.4962 351.961 70.6251 351.84C70.754 351.719 70.8576 351.584 70.9357 351.436C71.0177 351.287 71.0861 351.141 71.1408 350.996H72.1896ZM71.1759 349.379C71.1681 349.074 71.1212 348.803 71.0353 348.564C70.9533 348.326 70.8361 348.127 70.6837 347.967C70.5353 347.803 70.3556 347.68 70.1447 347.598C69.9337 347.512 69.6994 347.469 69.4415 347.469C69.1954 347.469 68.9689 347.518 68.7619 347.615C68.5548 347.709 68.3732 347.842 68.2169 348.014C68.0607 348.182 67.9357 348.383 67.8419 348.617C67.7482 348.848 67.6915 349.102 67.672 349.379H71.1759ZM77.4248 350.469C77.1904 350.531 76.9326 350.584 76.6514 350.627C76.374 350.67 76.1143 350.691 75.8721 350.691C75.0322 350.691 74.4092 350.531 74.0029 350.211C73.5967 349.887 73.3936 349.377 73.3936 348.682V346.725H74.4717V348.465C74.4717 348.699 74.499 348.902 74.5537 349.074C74.6123 349.246 74.7061 349.389 74.835 349.502C74.9639 349.611 75.1338 349.693 75.3447 349.748C75.5557 349.803 75.8154 349.83 76.124 349.83C76.2061 349.83 76.3037 349.822 76.417 349.807C76.5342 349.791 76.6533 349.771 76.7744 349.748C76.8955 349.725 77.0127 349.699 77.126 349.672C77.2432 349.641 77.3428 349.609 77.4248 349.578V346.725H78.5088V353H77.4248V350.469ZM80.2226 346.725H81.3007V349.256H84.2304V346.725H85.3144V353H84.2304V350.193H81.3007V353H80.2226V346.725ZM87.0222 346.725H88.1004V351.535H88.1238L91.2058 346.725H92.4422V353H91.3582V348.189H91.3347L88.2586 353H87.0222V346.725ZM94.1501 346.725H95.2282V349.76L98.3981 346.725H99.8102L96.8629 349.496L99.8571 353H98.4684L96.0192 350.152L95.2282 350.814V353H94.1501V346.725ZM100.844 346.725H101.922V351.535H101.946L105.028 346.725H106.264V353H105.18V348.189H105.157L102.081 353H100.844V346.725Z" fill="#A6ACBE"/>
    <path d="M217.581 347.059V346.25C218.343 346.176 218.874 346.053 219.175 345.881C219.476 345.705 219.701 345.293 219.849 344.645H220.681V353H219.556V347.059H217.581ZM224.715 350.861C224.785 351.463 225.065 351.879 225.553 352.109C225.803 352.227 226.092 352.285 226.42 352.285C227.045 352.285 227.508 352.086 227.809 351.688C228.11 351.289 228.26 350.848 228.26 350.363C228.26 349.777 228.08 349.324 227.721 349.004C227.365 348.684 226.938 348.523 226.438 348.523C226.074 348.523 225.762 348.594 225.5 348.734C225.242 348.875 225.022 349.07 224.838 349.32L223.924 349.268L224.563 344.75H228.922V345.77H225.354L224.996 348.102C225.192 347.953 225.377 347.842 225.553 347.768C225.865 347.639 226.227 347.574 226.637 347.574C227.406 347.574 228.059 347.822 228.594 348.318C229.129 348.814 229.397 349.443 229.397 350.205C229.397 350.998 229.151 351.697 228.658 352.303C228.17 352.908 227.389 353.211 226.315 353.211C225.631 353.211 225.026 353.02 224.498 352.637C223.975 352.25 223.682 351.658 223.619 350.861H224.715Z" fill="black"/>
    <path d="M237.043 344.252C236.43 345.443 236.031 346.32 235.848 346.883C235.57 347.738 235.432 348.727 235.432 349.848C235.432 350.98 235.59 352.016 235.906 352.953C236.102 353.531 236.486 354.363 237.061 355.449H236.352C235.781 354.559 235.428 353.99 235.291 353.744C235.154 353.498 235.006 353.164 234.846 352.742C234.627 352.164 234.475 351.547 234.389 350.891C234.346 350.551 234.324 350.227 234.324 349.918C234.324 348.762 234.506 347.732 234.869 346.83C235.1 346.256 235.58 345.396 236.311 344.252H237.043ZM237.983 353C238.022 352.277 238.171 351.648 238.429 351.113C238.69 350.578 239.198 350.092 239.952 349.654L241.077 349.004C241.581 348.711 241.934 348.461 242.138 348.254C242.458 347.93 242.618 347.559 242.618 347.141C242.618 346.652 242.472 346.266 242.179 345.98C241.886 345.691 241.495 345.547 241.007 345.547C240.284 345.547 239.784 345.82 239.507 346.367C239.358 346.66 239.276 347.066 239.261 347.586H238.188C238.2 346.855 238.335 346.26 238.593 345.799C239.05 344.986 239.856 344.58 241.013 344.58C241.973 344.58 242.675 344.84 243.116 345.359C243.561 345.879 243.784 346.457 243.784 347.094C243.784 347.766 243.548 348.34 243.075 348.816C242.802 349.094 242.311 349.43 241.604 349.824L240.802 350.27C240.419 350.48 240.118 350.682 239.899 350.873C239.509 351.213 239.263 351.59 239.161 352.004H243.743V353H237.983ZM248.375 350.029V346.227L245.685 350.029H248.375ZM248.392 353V350.949H244.713V349.918L248.556 344.586H249.447V350.029H250.683V350.949H249.447V353H248.392ZM259.387 348.922C259.95 348.922 260.43 349.121 260.829 349.52C261.227 349.918 261.426 350.398 261.426 350.961C261.426 351.523 261.227 352.004 260.829 352.402C260.43 352.801 259.95 353 259.387 353C258.821 353 258.338 352.801 257.94 352.402C257.542 352.004 257.342 351.523 257.342 350.961C257.342 350.398 257.542 349.918 257.94 349.52C258.338 349.121 258.821 348.922 259.387 348.922ZM258.538 344.645H259.188L254.495 353.223H253.844L258.538 344.645ZM253.633 348.113C253.969 348.113 254.255 347.996 254.489 347.762C254.727 347.523 254.846 347.238 254.846 346.906C254.846 346.574 254.727 346.291 254.489 346.057C254.255 345.818 253.969 345.699 253.633 345.699C253.301 345.699 253.016 345.816 252.778 346.051C252.544 346.285 252.426 346.57 252.426 346.906C252.426 347.238 252.544 347.523 252.778 347.762C253.016 347.996 253.301 348.113 253.633 348.113ZM253.633 344.861C254.2 344.861 254.682 345.062 255.081 345.465C255.479 345.863 255.678 346.344 255.678 346.906C255.678 347.469 255.479 347.949 255.081 348.348C254.682 348.746 254.2 348.945 253.633 348.945C253.071 348.945 252.59 348.746 252.192 348.348C251.794 347.949 251.594 347.469 251.594 346.906C251.594 346.344 251.794 345.863 252.192 345.465C252.59 345.062 253.071 344.861 253.633 344.861ZM259.387 352.168C259.719 352.168 260.003 352.051 260.237 351.816C260.475 351.578 260.594 351.293 260.594 350.961C260.594 350.629 260.475 350.346 260.237 350.111C260.003 349.873 259.719 349.754 259.387 349.754C259.051 349.754 258.764 349.873 258.526 350.111C258.292 350.346 258.174 350.629 258.174 350.961C258.174 351.293 258.292 351.578 258.526 351.816C258.764 352.051 259.051 352.168 259.387 352.168ZM262.419 355.449C263.041 354.238 263.441 353.355 263.621 352.801C263.894 351.961 264.031 350.977 264.031 349.848C264.031 348.719 263.873 347.686 263.556 346.748C263.361 346.17 262.976 345.338 262.402 344.252H263.111C263.712 345.213 264.076 345.807 264.201 346.033C264.33 346.256 264.468 346.564 264.617 346.959C264.804 347.447 264.937 347.93 265.015 348.406C265.097 348.883 265.138 349.342 265.138 349.783C265.138 350.939 264.955 351.971 264.587 352.877C264.357 353.459 263.878 354.316 263.152 355.449H262.419Z" fill="#A6ACBE"/>
    <circle cx="27.9995" cy="348.477" r="4" fill="#FF4C61"/>
    <path d="M45.2163 389.846V386.992H45.9956C46.0776 386.805 46.1538 386.615 46.2241 386.424C46.2944 386.229 46.3589 386.01 46.4175 385.768C46.48 385.521 46.5366 385.24 46.5874 384.924C46.6421 384.607 46.6929 384.232 46.7397 383.799C46.7944 383.342 46.8374 382.893 46.8687 382.451C46.8999 382.006 46.9233 381.59 46.939 381.203C46.9585 380.816 46.9702 380.467 46.9741 380.154C46.9819 379.842 46.9878 379.586 46.9917 379.387H52.4058V386.992H53.3784V389.846H52.3003V388H46.2944V389.846H45.2163ZM48.0698 380.395C48.0698 380.953 48.0464 381.51 47.9995 382.064C47.9565 382.619 47.9038 383.178 47.8413 383.74C47.7983 384.186 47.7534 384.564 47.7065 384.877C47.6636 385.186 47.6167 385.461 47.5659 385.703C47.519 385.941 47.4644 386.162 47.4019 386.365C47.3433 386.564 47.2749 386.773 47.1968 386.992H51.2222V380.395H48.0698ZM54.3246 381.725H56.9965C57.7621 381.725 58.3344 381.867 58.7133 382.152C59.0961 382.438 59.2875 382.852 59.2875 383.395C59.2875 383.684 59.2172 383.928 59.0765 384.127C58.9359 384.326 58.7504 384.502 58.5199 384.654C58.8519 384.779 59.1156 384.959 59.3109 385.193C59.5062 385.428 59.6039 385.73 59.6039 386.102C59.6039 386.395 59.5551 386.658 59.4574 386.893C59.3597 387.127 59.2113 387.326 59.0121 387.49C58.8129 387.654 58.559 387.781 58.2504 387.871C57.9457 387.957 57.5844 388 57.1664 388H54.3246V381.725ZM55.4027 387.139H57.0433C57.3285 387.139 57.5648 387.117 57.7523 387.074C57.9437 387.027 58.0961 386.961 58.2094 386.875C58.3226 386.789 58.4027 386.686 58.4496 386.564C58.4965 386.443 58.5199 386.307 58.5199 386.154C58.5199 386.002 58.4965 385.865 58.4496 385.744C58.4027 385.619 58.3226 385.516 58.2094 385.434C58.0961 385.348 57.9437 385.283 57.7523 385.24C57.5648 385.193 57.3285 385.17 57.0433 385.17H55.4027V387.139ZM55.4027 384.379H57.0316C57.3949 384.379 57.682 384.307 57.8929 384.162C58.1039 384.018 58.2094 383.793 58.2094 383.488C58.2094 383.316 58.1801 383.174 58.1215 383.061C58.0629 382.943 57.9847 382.85 57.8871 382.779C57.7894 382.709 57.6781 382.66 57.5531 382.633C57.432 382.602 57.307 382.586 57.1781 382.586H55.4027V384.379ZM65.4016 384.854C65.4016 384.506 65.3626 384.188 65.2844 383.898C65.2063 383.605 65.0891 383.354 64.9329 383.143C64.7766 382.932 64.5833 382.768 64.3528 382.65C64.1262 382.529 63.8626 382.469 63.5618 382.469C63.261 382.469 62.9973 382.529 62.7708 382.65C62.5442 382.768 62.3528 382.932 62.1965 383.143C62.0403 383.354 61.9231 383.605 61.845 383.898C61.7669 384.188 61.7278 384.506 61.7278 384.854C61.7278 385.205 61.7669 385.529 61.845 385.826C61.9231 386.119 62.0403 386.371 62.1965 386.582C62.3528 386.793 62.5442 386.959 62.7708 387.08C62.9973 387.197 63.261 387.256 63.5618 387.256C63.8626 387.256 64.1262 387.197 64.3528 387.08C64.5833 386.959 64.7766 386.793 64.9329 386.582C65.0891 386.371 65.2063 386.119 65.2844 385.826C65.3626 385.529 65.4016 385.205 65.4016 384.854ZM66.4797 384.854C66.4797 385.369 66.4133 385.834 66.2805 386.248C66.1477 386.658 65.9563 387.008 65.7063 387.297C65.4563 387.586 65.1497 387.809 64.7864 387.965C64.427 388.117 64.0188 388.193 63.5618 388.193C63.1047 388.193 62.6965 388.117 62.3372 387.965C61.9778 387.809 61.6731 387.586 61.4231 387.297C61.1731 387.008 60.9817 386.658 60.8489 386.248C60.7161 385.834 60.6497 385.369 60.6497 384.854C60.6497 384.346 60.7161 383.887 60.8489 383.477C60.9817 383.066 61.1731 382.717 61.4231 382.428C61.6731 382.139 61.9778 381.918 62.3372 381.766C62.6965 381.609 63.1047 381.531 63.5618 381.531C64.0188 381.531 64.427 381.609 64.7864 381.766C65.1497 381.918 65.4563 382.139 65.7063 382.428C65.9563 382.717 66.1477 383.066 66.2805 383.477C66.4133 383.887 66.4797 384.346 66.4797 384.854ZM73.1622 385.996C73.1193 386.27 73.0255 386.537 72.881 386.799C72.7365 387.061 72.547 387.295 72.3126 387.502C72.0783 387.709 71.8009 387.875 71.4806 388C71.1642 388.129 70.8126 388.193 70.4259 388.193C70.004 388.193 69.6134 388.125 69.254 387.988C68.8986 387.848 68.59 387.639 68.3283 387.361C68.0704 387.08 67.8673 386.729 67.7189 386.307C67.5704 385.885 67.4962 385.389 67.4962 384.818C67.4962 384.436 67.5372 384.09 67.6193 383.781C67.7052 383.469 67.8185 383.191 67.9591 382.949C68.1037 382.703 68.2697 382.492 68.4572 382.316C68.6447 382.137 68.8419 381.99 69.049 381.877C69.2599 381.76 69.4747 381.674 69.6935 381.619C69.9122 381.561 70.1232 381.531 70.3263 381.531C70.756 381.531 71.1486 381.596 71.504 381.725C71.8595 381.854 72.1642 382.051 72.4181 382.316C72.6759 382.578 72.8751 382.908 73.0158 383.307C73.1603 383.701 73.2326 384.166 73.2326 384.701V385.24H68.6447C68.6486 385.545 68.6915 385.822 68.7736 386.072C68.8556 386.318 68.9728 386.529 69.1251 386.705C69.2775 386.881 69.4611 387.018 69.6759 387.115C69.8947 387.209 70.1408 387.256 70.4142 387.256C70.6915 387.256 70.9259 387.217 71.1173 387.139C71.3087 387.061 71.4689 386.961 71.5978 386.84C71.7267 386.719 71.8302 386.584 71.9083 386.436C71.9904 386.287 72.0587 386.141 72.1134 385.996H73.1622ZM72.1486 384.379C72.1408 384.074 72.0939 383.803 72.0079 383.564C71.9259 383.326 71.8087 383.127 71.6564 382.967C71.5079 382.803 71.3283 382.68 71.1173 382.598C70.9064 382.512 70.672 382.469 70.4142 382.469C70.1681 382.469 69.9415 382.518 69.7345 382.615C69.5275 382.709 69.3458 382.842 69.1896 383.014C69.0333 383.182 68.9083 383.383 68.8146 383.617C68.7208 383.848 68.6642 384.102 68.6447 384.379H72.1486ZM78.3975 385.469C78.1631 385.531 77.9053 385.584 77.624 385.627C77.3467 385.67 77.0869 385.691 76.8447 385.691C76.0049 385.691 75.3819 385.531 74.9756 385.211C74.5694 384.887 74.3662 384.377 74.3662 383.682V381.725H75.4444V383.465C75.4444 383.699 75.4717 383.902 75.5264 384.074C75.585 384.246 75.6787 384.389 75.8076 384.502C75.9365 384.611 76.1065 384.693 76.3174 384.748C76.5283 384.803 76.7881 384.83 77.0967 384.83C77.1787 384.83 77.2764 384.822 77.3897 384.807C77.5069 384.791 77.626 384.771 77.7471 384.748C77.8682 384.725 77.9854 384.699 78.0987 384.672C78.2158 384.641 78.3154 384.609 78.3975 384.578V381.725H79.4815V388H78.3975V385.469ZM81.1952 381.725H82.2733V384.256H85.203V381.725H86.287V388H85.203V385.193H82.2733V388H81.1952V381.725ZM87.9949 381.725H89.073V386.535H89.0965L92.1785 381.725H93.4148V388H92.3308V383.189H92.3074L89.2312 388H87.9949V381.725ZM95.1227 381.725H96.2008V384.76L99.3708 381.725H100.783L97.8356 384.496L100.83 388H99.4411L96.9919 385.152L96.2008 385.814V388H95.1227V381.725ZM101.817 381.725H102.895V386.535H102.918L106.001 381.725H107.237V388H106.153V383.189H106.129L103.053 388H101.817V381.725Z" fill="#A6ACBE"/>
    <path d="M229.508 378.75V379.67C229.238 379.932 228.879 380.387 228.43 381.035C227.985 381.684 227.59 382.383 227.246 383.133C226.906 383.863 226.649 384.529 226.473 385.131C226.36 385.518 226.213 386.141 226.033 387H224.867C225.133 385.398 225.719 383.805 226.625 382.219C227.16 381.289 227.723 380.486 228.313 379.811H223.672V378.75H229.508Z" fill="black"/>
    <path d="M237.043 378.252C236.43 379.443 236.031 380.32 235.848 380.883C235.57 381.738 235.432 382.727 235.432 383.848C235.432 384.98 235.59 386.016 235.906 386.953C236.102 387.531 236.486 388.363 237.061 389.449H236.352C235.781 388.559 235.428 387.99 235.291 387.744C235.154 387.498 235.006 387.164 234.846 386.742C234.627 386.164 234.475 385.547 234.389 384.891C234.346 384.551 234.324 384.227 234.324 383.918C234.324 382.762 234.506 381.732 234.869 380.83C235.1 380.256 235.58 379.396 236.311 378.252H237.043ZM238.757 381.059V380.25C239.518 380.176 240.05 380.053 240.35 379.881C240.651 379.705 240.876 379.293 241.024 378.645H241.856V387H240.731V381.059H238.757ZM244.783 387C244.822 386.277 244.97 385.648 245.228 385.113C245.49 384.578 245.998 384.092 246.752 383.654L247.877 383.004C248.381 382.711 248.734 382.461 248.937 382.254C249.258 381.93 249.418 381.559 249.418 381.141C249.418 380.652 249.271 380.266 248.978 379.98C248.685 379.691 248.295 379.547 247.806 379.547C247.084 379.547 246.584 379.82 246.306 380.367C246.158 380.66 246.076 381.066 246.06 381.586H244.988C245 380.855 245.135 380.26 245.392 379.799C245.849 378.986 246.656 378.58 247.812 378.58C248.773 378.58 249.474 378.84 249.916 379.359C250.361 379.879 250.584 380.457 250.584 381.094C250.584 381.766 250.347 382.34 249.875 382.816C249.601 383.094 249.111 383.43 248.404 383.824L247.601 384.27C247.218 384.48 246.918 384.682 246.699 384.873C246.308 385.213 246.062 385.59 245.961 386.004H250.543V387H244.783ZM259.387 382.922C259.95 382.922 260.43 383.121 260.829 383.52C261.227 383.918 261.426 384.398 261.426 384.961C261.426 385.523 261.227 386.004 260.829 386.402C260.43 386.801 259.95 387 259.387 387C258.821 387 258.338 386.801 257.94 386.402C257.542 386.004 257.342 385.523 257.342 384.961C257.342 384.398 257.542 383.918 257.94 383.52C258.338 383.121 258.821 382.922 259.387 382.922ZM258.538 378.645H259.188L254.495 387.223H253.844L258.538 378.645ZM253.633 382.113C253.969 382.113 254.255 381.996 254.489 381.762C254.727 381.523 254.846 381.238 254.846 380.906C254.846 380.574 254.727 380.291 254.489 380.057C254.255 379.818 253.969 379.699 253.633 379.699C253.301 379.699 253.016 379.816 252.778 380.051C252.544 380.285 252.426 380.57 252.426 380.906C252.426 381.238 252.544 381.523 252.778 381.762C253.016 381.996 253.301 382.113 253.633 382.113ZM253.633 378.861C254.2 378.861 254.682 379.062 255.081 379.465C255.479 379.863 255.678 380.344 255.678 380.906C255.678 381.469 255.479 381.949 255.081 382.348C254.682 382.746 254.2 382.945 253.633 382.945C253.071 382.945 252.59 382.746 252.192 382.348C251.794 381.949 251.594 381.469 251.594 380.906C251.594 380.344 251.794 379.863 252.192 379.465C252.59 379.062 253.071 378.861 253.633 378.861ZM259.387 386.168C259.719 386.168 260.003 386.051 260.237 385.816C260.475 385.578 260.594 385.293 260.594 384.961C260.594 384.629 260.475 384.346 260.237 384.111C260.003 383.873 259.719 383.754 259.387 383.754C259.051 383.754 258.764 383.873 258.526 384.111C258.292 384.346 258.174 384.629 258.174 384.961C258.174 385.293 258.292 385.578 258.526 385.816C258.764 386.051 259.051 386.168 259.387 386.168ZM262.419 389.449C263.041 388.238 263.441 387.355 263.621 386.801C263.894 385.961 264.031 384.977 264.031 383.848C264.031 382.719 263.873 381.686 263.556 380.748C263.361 380.17 262.976 379.338 262.402 378.252H263.111C263.712 379.213 264.076 379.807 264.201 380.033C264.33 380.256 264.468 380.564 264.617 380.959C264.804 381.447 264.937 381.93 265.015 382.406C265.097 382.883 265.138 383.342 265.138 383.783C265.138 384.939 264.955 385.971 264.587 386.877C264.357 387.459 263.878 388.316 263.152 389.449H262.419Z" fill="#A6ACBE"/>
    <circle cx="27.9995" cy="382.714" r="4" fill="#33D69F"/>
    <circle cx="147" cy="164" r="68" stroke="#339DFA" stroke-width="11.1646"/>
    <path d="M203.54 201.779C196.068 212.961 185.448 221.677 173.023 226.824C160.597 231.971 146.925 233.317 133.734 230.693C120.543 228.07 108.427 221.593 98.9168 212.083C89.4068 202.573 82.9304 190.457 80.3066 177.266C77.6828 164.075 79.0295 150.403 84.1762 137.978C89.323 125.552 98.0387 114.932 109.221 107.46C120.404 99.9881 133.551 96 147 96" stroke="#FFCC00" stroke-width="11.1646"/>
    <path d="M80.3066 177.266C77.6828 164.075 79.0295 150.403 84.1762 137.978C89.323 125.552 98.0387 114.932 109.221 107.46C120.404 99.9881 133.551 96 147 96" stroke="#71F05A" stroke-width="11.1646"/>
    <path d="M94.0716 121.308C84.5886 133.065 79.2899 147.645 79.0116 162.747C78.7332 177.849 83.491 192.614 92.5342 204.712" stroke="#FD3C72" stroke-width="11.1646"/>
    <g filter="url(#filter0_d)">
        <circle cx="146.668" cy="163.787" r="38" fill="white"/>
    </g>
    <g clip-path="url(#clip0)">
        <path d="M158.567 160.32L147.317 155.07C147.116 154.977 146.884 154.977 146.683 155.07L135.433 160.32C135.168 160.443 135 160.708 135 161V168.5H136.5V162.178L138 162.878V170C138 170.338 138.226 170.634 138.553 170.724L146.803 172.974C146.867 172.991 146.933 173 147 173C147.067 173 147.133 172.991 147.197 172.974L155.447 170.724C155.774 170.634 156 170.338 156 170V162.878L158.567 161.68C158.832 161.557 159 161.291 159 161C159 160.708 158.832 160.443 158.567 160.32ZM154.5 169.427L147 171.472L139.5 169.427V163.578L146.683 166.93C146.783 166.977 146.892 167 147 167C147.108 167 147.217 166.977 147.317 166.93L154.5 163.578C154.5 163.578 154.5 169.427 154.5 169.427ZM147 165.422L137.523 161L147 156.578L156.477 161L147 165.422Z" fill="#969CBA"/>
    </g>
    <defs>
        <filter id="filter0_d" x="93.7824" y="118.344" width="105.772" height="105.772" filterUnits="userSpaceOnUse" color-interpolation-filters="sRGB">
            <feFlood flood-opacity="0" result="BackgroundImageFix"/>
            <feColorMatrix in="SourceAlpha" type="matrix" values="0 0 0 0 0 0 0 0 0 0 0 0 0 0 0 0 0 0 127 0"/>
            <feOffset dy="7.44304"/>
            <feGaussianBlur stdDeviation="7.44304"/>
            <feColorMatrix type="matrix" values="0 0 0 0 0 0 0 0 0 0 0 0 0 0 0 0 0 0 0.05 0"/>
            <feBlend mode="normal" in2="BackgroundImageFix" result="effect1_dropShadow"/>
            <feBlend mode="normal" in="SourceGraphic" in2="effect1_dropShadow" result="shape"/>
        </filter>
        <clipPath id="clip0">
            <rect width="24" height="24" fill="white" transform="translate(135 152)"/>
        </clipPath>
    </defs>
</svg>
