<svg width="294" height="115" viewBox="0 0 294 115" fill="none" xmlns="http://www.w3.org/2000/svg">
    <rect width="294" height="115" rx="7" fill="#EDEDF6"/>
    <rect width="294" height="112" rx="7" fill="white"/>
    <path d="M36.5229 62.0005C36.5464 61.0864 36.7427 60.2515 37.1118 59.4956C37.4692 58.646 38.313 57.7466 39.6431 56.7974C40.7974 55.9712 41.5444 55.3794 41.8843 55.022C42.4058 54.4653 42.6665 53.856 42.6665 53.1938C42.6665 52.6548 42.5171 52.2065 42.2183 51.8491C41.9194 51.4917 41.4917 51.313 40.9351 51.313C40.1733 51.313 39.6548 51.5972 39.3794 52.1655C39.2212 52.4937 39.1274 53.0151 39.0981 53.73H36.6636C36.7046 52.646 36.9009 51.77 37.2524 51.1021C37.9204 49.8306 39.1069 49.1948 40.812 49.1948C42.1597 49.1948 43.2319 49.5698 44.0288 50.3198C44.8257 51.064 45.2241 52.0513 45.2241 53.2817C45.2241 54.2251 44.9429 55.063 44.3804 55.7954C44.0112 56.2817 43.4048 56.8237 42.561 57.4214L41.5591 58.1333C40.9321 58.5786 40.5015 58.9009 40.2671 59.1001C40.0386 59.2993 39.8452 59.5308 39.687 59.7944H45.2505V62.0005H36.5229ZM47.228 53.2114V51.5063C48.019 51.4712 48.5728 51.4185 48.8892 51.3481C49.3931 51.2368 49.8032 51.0142 50.1196 50.6802C50.3364 50.4517 50.5005 50.147 50.6118 49.7661C50.6763 49.5376 50.7085 49.3677 50.7085 49.2563H52.7915V62.0005H50.2251V53.2114H47.228ZM59.1196 55.7515C59.1196 57.2163 59.2397 58.3384 59.48 59.1177C59.7202 59.8911 60.2124 60.2778 60.9565 60.2778C61.7007 60.2778 62.187 59.8911 62.4155 59.1177C62.6499 58.3384 62.7671 57.2163 62.7671 55.7515C62.7671 54.2163 62.6499 53.0796 62.4155 52.3413C62.187 51.603 61.7007 51.2339 60.9565 51.2339C60.2124 51.2339 59.7202 51.603 59.48 52.3413C59.2397 53.0796 59.1196 54.2163 59.1196 55.7515ZM60.9565 49.1685C62.5796 49.1685 63.7163 49.7397 64.3667 50.8823C65.0229 52.0249 65.3511 53.6479 65.3511 55.7515C65.3511 57.855 65.0229 59.4751 64.3667 60.6118C63.7163 61.7485 62.5796 62.3169 60.9565 62.3169C59.3335 62.3169 58.1938 61.7485 57.5376 60.6118C56.8872 59.4751 56.562 57.855 56.562 55.7515C56.562 53.6479 56.8872 52.0249 57.5376 50.8823C58.1938 49.7397 59.3335 49.1685 60.9565 49.1685ZM69.1392 55.7515C69.1392 57.2163 69.2593 58.3384 69.4995 59.1177C69.7397 59.8911 70.2319 60.2778 70.9761 60.2778C71.7202 60.2778 72.2065 59.8911 72.4351 59.1177C72.6694 58.3384 72.7866 57.2163 72.7866 55.7515C72.7866 54.2163 72.6694 53.0796 72.4351 52.3413C72.2065 51.603 71.7202 51.2339 70.9761 51.2339C70.2319 51.2339 69.7397 51.603 69.4995 52.3413C69.2593 53.0796 69.1392 54.2163 69.1392 55.7515ZM70.9761 49.1685C72.5991 49.1685 73.7358 49.7397 74.3862 50.8823C75.0425 52.0249 75.3706 53.6479 75.3706 55.7515C75.3706 57.855 75.0425 59.4751 74.3862 60.6118C73.7358 61.7485 72.5991 62.3169 70.9761 62.3169C69.353 62.3169 68.2134 61.7485 67.5571 60.6118C66.9067 59.4751 66.5815 57.855 66.5815 55.7515C66.5815 53.6479 66.9067 52.0249 67.5571 50.8823C68.2134 49.7397 69.353 49.1685 70.9761 49.1685Z" fill="#3A7CF8"/>
    <path opacity="0.253397" fill-rule="evenodd" clip-rule="evenodd" d="M34.3495 86.8545C34.3495 86.8545 34.8642 84.0114 36.8883 90.697C38.9124 97.3826 61.7997 112.015 69.4611 100.165C77.1224 88.3144 87.954 101.612 95.4361 98.0556C102.918 94.4991 104.103 89.8053 98.5264 78.4954C92.9494 67.1855 106.668 53.4039 92.9931 44.5437C79.318 35.6835 89.9047 37.8602 89.9047 37.8602L89.835 74.0334L71.5297 90.6291L34.3495 86.8545Z" fill="url(#paint0_linear)"/>
    <path opacity="0.518059" fill-rule="evenodd" clip-rule="evenodd" d="M88.6706 47.9624C88.6706 47.9624 87.099 47.8006 90.4815 46.7444C93.8639 45.6882 99.4795 35.1775 92.3947 32.0528C85.31 28.928 91.3786 23.804 88.7504 20.5639C86.1223 17.3239 83.4952 16.9077 77.9817 19.6508C72.4682 22.3939 60.8562 13.5807 57.4381 19.8635C54.02 26.1463 60.0438 18.6241 60.0438 18.6241L76.4351 23.6165L87.0905 31.3579L88.6706 47.9624Z" fill="url(#paint1_linear)"/>
    <circle cx="55.9995" cy="56.0005" r="36.2785" stroke="url(#paint2_linear)" stroke-width="7.44304"/>
    <path d="M59.2484 19.8678C64.3234 20.3241 69.2453 21.8444 73.6936 24.3296C78.142 26.8148 82.0168 30.2092 85.0659 34.2917C88.115 38.3742 90.2699 43.0532 91.3902 48.024C92.5106 52.9948 92.5712 58.1458 91.5682 63.1416C90.5652 68.1374 88.5211 72.8658 85.5689 77.019C82.6168 81.1721 78.8229 84.6568 74.4343 87.2461C70.0458 89.8353 65.161 91.471 60.0981 92.0467C55.0353 92.6224 49.908 92.1251 45.0501 90.5872" stroke="url(#paint3_linear)" stroke-width="7.44304" stroke-linecap="round"/>
    <path d="M128.471 26.3867H129.619V30.582L133.82 26.3867H135.426L131.84 29.8613L135.525 35H134.049L131.014 30.6582L129.619 32V35H128.471V26.3867ZM140.878 31.8535C140.878 31.5059 140.839 31.1875 140.761 30.8984C140.683 30.6055 140.565 30.3535 140.409 30.1426C140.253 29.9316 140.06 29.7676 139.829 29.6504C139.602 29.5293 139.339 29.4688 139.038 29.4688C138.737 29.4688 138.474 29.5293 138.247 29.6504C138.02 29.7676 137.829 29.9316 137.673 30.1426C137.517 30.3535 137.399 30.6055 137.321 30.8984C137.243 31.1875 137.204 31.5059 137.204 31.8535C137.204 32.2051 137.243 32.5293 137.321 32.8262C137.399 33.1191 137.517 33.3711 137.673 33.582C137.829 33.793 138.02 33.959 138.247 34.0801C138.474 34.1973 138.737 34.2559 139.038 34.2559C139.339 34.2559 139.602 34.1973 139.829 34.0801C140.06 33.959 140.253 33.793 140.409 33.582C140.565 33.3711 140.683 33.1191 140.761 32.8262C140.839 32.5293 140.878 32.2051 140.878 31.8535ZM141.956 31.8535C141.956 32.3691 141.89 32.834 141.757 33.248C141.624 33.6582 141.433 34.0078 141.183 34.2969C140.933 34.5859 140.626 34.8086 140.263 34.9648C139.903 35.1172 139.495 35.1934 139.038 35.1934C138.581 35.1934 138.173 35.1172 137.813 34.9648C137.454 34.8086 137.149 34.5859 136.899 34.2969C136.649 34.0078 136.458 33.6582 136.325 33.248C136.192 32.834 136.126 32.3691 136.126 31.8535C136.126 31.3457 136.192 30.8867 136.325 30.4766C136.458 30.0664 136.649 29.7168 136.899 29.4277C137.149 29.1387 137.454 28.918 137.813 28.7656C138.173 28.6094 138.581 28.5312 139.038 28.5312C139.495 28.5312 139.903 28.6094 140.263 28.7656C140.626 28.918 140.933 29.1387 141.183 29.4277C141.433 29.7168 141.624 30.0664 141.757 30.4766C141.89 30.8867 141.956 31.3457 141.956 31.8535ZM147.519 29.6621H145.117L145.07 31.168C145.047 31.9297 144.988 32.5664 144.894 33.0781C144.801 33.5859 144.672 33.9941 144.508 34.3027C144.347 34.6113 144.152 34.8301 143.922 34.959C143.691 35.0879 143.428 35.1523 143.131 35.1523C143.021 35.1523 142.926 35.1348 142.844 35.0996C142.765 35.0684 142.705 35.0352 142.662 35V34.0508C142.814 34.1094 142.949 34.1387 143.066 34.1387C143.148 34.1387 143.226 34.125 143.301 34.0977C143.379 34.0703 143.451 34.0176 143.517 33.9395C143.588 33.8613 143.652 33.752 143.711 33.6113C143.769 33.4668 143.82 33.2793 143.863 33.0488C143.91 32.8184 143.947 32.5391 143.974 32.2109C144.006 31.8828 144.027 31.4922 144.039 31.0391L144.092 28.7246H148.597V35H147.519V29.6621ZM150.305 28.7246H151.384V33.5352H151.407L154.489 28.7246H155.725V35H154.641V30.1895H154.618L151.542 35H150.305V28.7246ZM161.212 32.4688C160.978 32.5312 160.72 32.584 160.439 32.627C160.162 32.6699 159.902 32.6914 159.66 32.6914C158.82 32.6914 158.197 32.5312 157.791 32.2109C157.384 31.8867 157.181 31.377 157.181 30.6816V28.7246H158.259V30.4648C158.259 30.6992 158.287 30.9023 158.341 31.0742C158.4 31.2461 158.494 31.3887 158.623 31.502C158.752 31.6113 158.921 31.6934 159.132 31.748C159.343 31.8027 159.603 31.8301 159.912 31.8301C159.994 31.8301 160.091 31.8223 160.205 31.8066C160.322 31.791 160.441 31.7715 160.562 31.748C160.683 31.7246 160.8 31.6992 160.914 31.6719C161.031 31.6406 161.13 31.6094 161.212 31.5781V28.7246H162.296V35H161.212V32.4688ZM169.354 32.9961C169.311 33.2695 169.217 33.5371 169.073 33.7988C168.928 34.0605 168.739 34.2949 168.504 34.502C168.27 34.709 167.993 34.875 167.672 35C167.356 35.1289 167.004 35.1934 166.618 35.1934C166.196 35.1934 165.805 35.125 165.446 34.9883C165.09 34.8477 164.782 34.6387 164.52 34.3613C164.262 34.0801 164.059 33.7285 163.911 33.3066C163.762 32.8848 163.688 32.3887 163.688 31.8184C163.688 31.4355 163.729 31.0898 163.811 30.7812C163.897 30.4688 164.01 30.1914 164.151 29.9492C164.295 29.7031 164.461 29.4922 164.649 29.3164C164.836 29.1367 165.034 28.9902 165.241 28.877C165.452 28.7598 165.666 28.6738 165.885 28.6191C166.104 28.5605 166.315 28.5312 166.518 28.5312C166.948 28.5312 167.34 28.5957 167.696 28.7246C168.051 28.8535 168.356 29.0508 168.61 29.3164C168.868 29.5781 169.067 29.9082 169.207 30.3066C169.352 30.7012 169.424 31.166 169.424 31.7012V32.2402H164.836C164.84 32.5449 164.883 32.8223 164.965 33.0723C165.047 33.3184 165.165 33.5293 165.317 33.7051C165.469 33.8809 165.653 34.0176 165.868 34.1152C166.086 34.209 166.332 34.2559 166.606 34.2559C166.883 34.2559 167.118 34.2168 167.309 34.1387C167.5 34.0605 167.661 33.9609 167.79 33.8398C167.918 33.7188 168.022 33.584 168.1 33.4355C168.182 33.2871 168.25 33.1406 168.305 32.9961H169.354ZM168.34 31.3789C168.332 31.0742 168.286 30.8027 168.2 30.5645C168.118 30.3262 168 30.127 167.848 29.9668C167.7 29.8027 167.52 29.6797 167.309 29.5977C167.098 29.5117 166.864 29.4688 166.606 29.4688C166.36 29.4688 166.133 29.5176 165.926 29.6152C165.719 29.709 165.538 29.8418 165.381 30.0137C165.225 30.1816 165.1 30.3828 165.006 30.6172C164.913 30.8477 164.856 31.1016 164.836 31.3789H168.34ZM175.744 32.791C175.728 32.9434 175.697 33.1094 175.65 33.2891C175.607 33.4688 175.542 33.6484 175.456 33.8281C175.37 34.0039 175.259 34.1738 175.122 34.3379C174.99 34.502 174.826 34.6484 174.63 34.7773C174.439 34.9023 174.212 35.002 173.951 35.0762C173.689 35.1543 173.39 35.1934 173.054 35.1934C172.87 35.1934 172.677 35.1699 172.474 35.123C172.271 35.0801 172.072 35.0059 171.876 34.9004C171.685 34.7949 171.501 34.6602 171.326 34.4961C171.154 34.3281 171.001 34.1211 170.869 33.875C170.74 33.6289 170.636 33.3438 170.558 33.0195C170.48 32.6914 170.441 32.3164 170.441 31.8945C170.441 31.375 170.515 30.9082 170.663 30.4941C170.812 30.0762 171.009 29.7227 171.255 29.4336C171.505 29.1445 171.794 28.9219 172.122 28.7656C172.454 28.6094 172.802 28.5312 173.165 28.5312C173.494 28.5312 173.783 28.5664 174.033 28.6367C174.286 28.707 174.507 28.8008 174.695 28.918C174.882 29.0352 175.04 29.1719 175.169 29.3281C175.298 29.4805 175.402 29.6426 175.48 29.8145C175.562 29.9824 175.622 30.1543 175.661 30.3301C175.704 30.5059 175.732 30.6738 175.744 30.834H174.736C174.681 30.4082 174.533 30.0742 174.29 29.832C174.052 29.5898 173.716 29.4688 173.283 29.4688C172.986 29.4688 172.726 29.5293 172.503 29.6504C172.285 29.7715 172.101 29.9414 171.952 30.1602C171.808 30.375 171.699 30.6367 171.624 30.9453C171.554 31.25 171.519 31.5859 171.519 31.9531C171.519 32.3672 171.558 32.7246 171.636 33.0254C171.714 33.3223 171.826 33.5684 171.97 33.7637C172.115 33.9551 172.29 34.0977 172.497 34.1914C172.708 34.2812 172.947 34.3262 173.212 34.3262C173.4 34.3262 173.577 34.293 173.745 34.2266C173.913 34.1562 174.064 34.0566 174.197 33.9277C174.329 33.7949 174.443 33.6328 174.536 33.4414C174.63 33.25 174.697 33.0332 174.736 32.791H175.744ZM178.6 29.6621H176.438V28.7246H181.84V29.6621H179.678V35H178.6V29.6621ZM183.05 28.7246H185.722C186.487 28.7246 187.06 28.8672 187.439 29.1523C187.821 29.4375 188.013 29.8516 188.013 30.3945C188.013 30.6836 187.942 30.9277 187.802 31.127C187.661 31.3262 187.476 31.502 187.245 31.6543C187.577 31.7793 187.841 31.959 188.036 32.1934C188.232 32.4277 188.329 32.7305 188.329 33.1016C188.329 33.3945 188.28 33.6582 188.183 33.8926C188.085 34.127 187.937 34.3262 187.737 34.4902C187.538 34.6543 187.284 34.7812 186.976 34.8711C186.671 34.957 186.31 35 185.892 35H183.05V28.7246ZM184.128 34.1387H185.769C186.054 34.1387 186.29 34.1172 186.478 34.0742C186.669 34.0273 186.821 33.9609 186.935 33.875C187.048 33.7891 187.128 33.6855 187.175 33.5645C187.222 33.4434 187.245 33.3066 187.245 33.1543C187.245 33.002 187.222 32.8652 187.175 32.7441C187.128 32.6191 187.048 32.5156 186.935 32.4336C186.821 32.3477 186.669 32.2832 186.478 32.2402C186.29 32.1934 186.054 32.1699 185.769 32.1699H184.128V34.1387ZM184.128 31.3789H185.757C186.12 31.3789 186.407 31.3066 186.618 31.1621C186.829 31.0176 186.935 30.793 186.935 30.4883C186.935 30.3164 186.905 30.1738 186.847 30.0605C186.788 29.9434 186.71 29.8496 186.612 29.7793C186.515 29.709 186.403 29.6602 186.278 29.6328C186.157 29.6016 186.032 29.5859 185.903 29.5859H184.128V31.3789ZM194.127 31.8535C194.127 31.5059 194.088 31.1875 194.01 30.8984C193.932 30.6055 193.814 30.3535 193.658 30.1426C193.502 29.9316 193.309 29.7676 193.078 29.6504C192.852 29.5293 192.588 29.4688 192.287 29.4688C191.986 29.4688 191.723 29.5293 191.496 29.6504C191.27 29.7676 191.078 29.9316 190.922 30.1426C190.766 30.3535 190.648 30.6055 190.57 30.8984C190.492 31.1875 190.453 31.5059 190.453 31.8535C190.453 32.2051 190.492 32.5293 190.57 32.8262C190.648 33.1191 190.766 33.3711 190.922 33.582C191.078 33.793 191.27 33.959 191.496 34.0801C191.723 34.1973 191.986 34.2559 192.287 34.2559C192.588 34.2559 192.852 34.1973 193.078 34.0801C193.309 33.959 193.502 33.793 193.658 33.582C193.814 33.3711 193.932 33.1191 194.01 32.8262C194.088 32.5293 194.127 32.2051 194.127 31.8535ZM195.205 31.8535C195.205 32.3691 195.139 32.834 195.006 33.248C194.873 33.6582 194.682 34.0078 194.432 34.2969C194.182 34.5859 193.875 34.8086 193.512 34.9648C193.152 35.1172 192.744 35.1934 192.287 35.1934C191.83 35.1934 191.422 35.1172 191.062 34.9648C190.703 34.8086 190.398 34.5859 190.148 34.2969C189.898 34.0078 189.707 33.6582 189.574 33.248C189.441 32.834 189.375 32.3691 189.375 31.8535C189.375 31.3457 189.441 30.8867 189.574 30.4766C189.707 30.0664 189.898 29.7168 190.148 29.4277C190.398 29.1387 190.703 28.918 191.062 28.7656C191.422 28.6094 191.83 28.5312 192.287 28.5312C192.744 28.5312 193.152 28.6094 193.512 28.7656C193.875 28.918 194.182 29.1387 194.432 29.4277C194.682 29.7168 194.873 30.0664 195.006 30.4766C195.139 30.8867 195.205 31.3457 195.205 31.8535ZM200.965 33.8457C201.008 33.8809 201.064 33.918 201.135 33.957C201.205 33.9922 201.281 34.0254 201.363 34.0566C201.445 34.084 201.529 34.1074 201.615 34.127C201.705 34.1426 201.791 34.1504 201.873 34.1504C202.049 34.1504 202.199 34.127 202.324 34.0801C202.453 34.0293 202.562 33.9648 202.652 33.8867C202.746 33.8047 202.822 33.7129 202.881 33.6113C202.939 33.5059 202.986 33.3965 203.021 33.2832L199.488 26.3867H200.83L203.677 32.0938L205.834 26.3867H207.135L204.427 32.8262C204.24 33.2559 204.064 33.623 203.9 33.9277C203.74 34.2285 203.564 34.4746 203.373 34.666C203.185 34.8574 202.97 34.9961 202.728 35.082C202.49 35.1719 202.201 35.2168 201.861 35.2168C201.685 35.2168 201.513 35.1934 201.345 35.1465C201.177 35.0996 201.049 35.0391 200.959 34.9648L200.965 33.8457ZM211.907 32.4688C211.673 32.5312 211.415 32.584 211.133 32.627C210.856 32.6699 210.596 32.6914 210.354 32.6914C209.514 32.6914 208.891 32.5312 208.485 32.2109C208.079 31.8867 207.876 31.377 207.876 30.6816V28.7246H208.954V30.4648C208.954 30.6992 208.981 30.9023 209.036 31.0742C209.094 31.2461 209.188 31.3887 209.317 31.502C209.446 31.6113 209.616 31.6934 209.827 31.748C210.038 31.8027 210.298 31.8301 210.606 31.8301C210.688 31.8301 210.786 31.8223 210.899 31.8066C211.016 31.791 211.135 31.7715 211.256 31.748C211.378 31.7246 211.495 31.6992 211.608 31.6719C211.725 31.6406 211.825 31.6094 211.907 31.5781V28.7246H212.991V35H211.907V32.4688ZM214.693 30.6055C214.705 30.2227 214.777 29.9004 214.91 29.6387C215.042 29.373 215.222 29.1582 215.449 28.9941C215.675 28.8301 215.943 28.7129 216.251 28.6426C216.564 28.5684 216.904 28.5312 217.271 28.5312C217.576 28.5312 217.871 28.5625 218.156 28.625C218.445 28.6875 218.701 28.7891 218.923 28.9297C219.146 29.0664 219.324 29.2461 219.457 29.4688C219.593 29.6875 219.662 29.9551 219.662 30.2715V33.9219C219.662 34.0234 219.689 34.1113 219.744 34.1855C219.798 34.2559 219.886 34.291 220.007 34.291C220.062 34.291 220.119 34.2871 220.177 34.2793C220.236 34.2676 220.296 34.2559 220.359 34.2441V34.9883C220.269 35.0117 220.179 35.0332 220.089 35.0527C220.003 35.0723 219.9 35.082 219.779 35.082C219.591 35.082 219.429 35.0664 219.292 35.0352C219.16 35.0039 219.046 34.9531 218.953 34.8828C218.863 34.8086 218.792 34.7148 218.742 34.6016C218.691 34.4844 218.658 34.3418 218.642 34.1738C218.509 34.3184 218.369 34.4531 218.22 34.5781C218.072 34.6992 217.906 34.8066 217.722 34.9004C217.539 34.9902 217.334 35.0605 217.107 35.1113C216.88 35.166 216.625 35.1934 216.339 35.1934C216.097 35.1934 215.861 35.1543 215.63 35.0762C215.404 34.998 215.199 34.8828 215.015 34.7305C214.835 34.5781 214.691 34.3906 214.582 34.168C214.472 33.9414 214.417 33.6797 214.417 33.3828C214.417 33.0586 214.472 32.7793 214.582 32.5449C214.691 32.3066 214.834 32.1094 215.009 31.9531C215.185 31.793 215.386 31.6699 215.613 31.584C215.839 31.498 216.07 31.4414 216.304 31.4141L218.068 31.1973C218.236 31.1777 218.367 31.1133 218.46 31.0039C218.558 30.8906 218.607 30.7109 218.607 30.4648C218.607 30.0859 218.482 29.8145 218.232 29.6504C217.986 29.4824 217.63 29.3984 217.166 29.3984C216.689 29.3984 216.334 29.5 216.099 29.7031C215.865 29.9023 215.732 30.2031 215.701 30.6055H214.693ZM218.584 31.8066C218.498 31.8691 218.39 31.9219 218.261 31.9648C218.136 32.0039 217.998 32.0371 217.845 32.0645C217.693 32.0918 217.531 32.1172 217.359 32.1406C217.187 32.1602 217.015 32.1816 216.843 32.2051C216.648 32.2324 216.468 32.2715 216.304 32.3223C216.14 32.373 215.998 32.4395 215.876 32.5215C215.755 32.6035 215.662 32.7031 215.595 32.8203C215.529 32.9336 215.496 33.0684 215.496 33.2246C215.496 33.4043 215.523 33.5625 215.578 33.6992C215.636 33.8359 215.714 33.9512 215.812 34.0449C215.914 34.1387 216.035 34.209 216.175 34.2559C216.316 34.3027 216.47 34.3262 216.638 34.3262C216.744 34.3262 216.865 34.3145 217.001 34.291C217.138 34.2637 217.279 34.2246 217.423 34.1738C217.568 34.123 217.709 34.0586 217.845 33.9805C217.986 33.8984 218.111 33.8008 218.22 33.6875C218.33 33.5742 218.417 33.4453 218.484 33.3008C218.55 33.1562 218.584 32.9941 218.584 32.8145V31.8066ZM229.028 35H221.504V28.7246H222.582V34.0625H224.844V28.7246H225.922V34.0625H228.178V28.7246H229.256V34.0625H230.036V36.5352H229.028V35ZM231.14 28.7246H232.218V33.5352H232.241L235.324 28.7246H236.56V35H235.476V30.1895H235.452L232.376 35H231.14V28.7246ZM240.406 32.6621L238.93 35H237.594L239.791 31.7832L237.705 28.7246H239.059L240.547 30.9102L241.965 28.7246H243.26L241.139 31.7832L243.36 35H242L240.406 32.6621ZM249.321 32.791C249.306 32.9434 249.274 33.1094 249.228 33.2891C249.185 33.4688 249.12 33.6484 249.034 33.8281C248.948 34.0039 248.837 34.1738 248.7 34.3379C248.567 34.502 248.403 34.6484 248.208 34.7773C248.017 34.9023 247.79 35.002 247.528 35.0762C247.267 35.1543 246.968 35.1934 246.632 35.1934C246.448 35.1934 246.255 35.1699 246.052 35.123C245.849 35.0801 245.649 35.0059 245.454 34.9004C245.263 34.7949 245.079 34.6602 244.903 34.4961C244.731 34.3281 244.579 34.1211 244.446 33.875C244.317 33.6289 244.214 33.3438 244.136 33.0195C244.058 32.6914 244.019 32.3164 244.019 31.8945C244.019 31.375 244.093 30.9082 244.241 30.4941C244.39 30.0762 244.587 29.7227 244.833 29.4336C245.083 29.1445 245.372 28.9219 245.7 28.7656C246.032 28.6094 246.38 28.5312 246.743 28.5312C247.071 28.5312 247.36 28.5664 247.61 28.6367C247.864 28.707 248.085 28.8008 248.272 28.918C248.46 29.0352 248.618 29.1719 248.747 29.3281C248.876 29.4805 248.98 29.6426 249.058 29.8145C249.14 29.9824 249.2 30.1543 249.239 30.3301C249.282 30.5059 249.31 30.6738 249.321 30.834H248.314C248.259 30.4082 248.11 30.0742 247.868 29.832C247.63 29.5898 247.294 29.4688 246.86 29.4688C246.564 29.4688 246.304 29.5293 246.081 29.6504C245.862 29.7715 245.679 29.9414 245.53 30.1602C245.386 30.375 245.276 30.6367 245.202 30.9453C245.132 31.25 245.097 31.5859 245.097 31.9531C245.097 32.3672 245.136 32.7246 245.214 33.0254C245.292 33.3223 245.403 33.5684 245.548 33.7637C245.692 33.9551 245.868 34.0977 246.075 34.1914C246.286 34.2812 246.524 34.3262 246.79 34.3262C246.978 34.3262 247.155 34.293 247.323 34.2266C247.491 34.1562 247.642 34.0566 247.774 33.9277C247.907 33.7949 248.021 33.6328 248.114 33.4414C248.208 33.25 248.274 33.0332 248.314 32.791H249.321ZM255.611 35H254.527V32.5156H253.139C252.889 32.5156 252.67 32.5215 252.482 32.5332C252.299 32.541 252.143 32.5762 252.014 32.6387C251.885 32.7012 251.783 32.7988 251.709 32.9316C251.639 33.0645 251.594 33.2539 251.574 33.5L251.527 34.1738C251.523 34.1934 251.519 34.2324 251.516 34.291C251.512 34.3496 251.504 34.4199 251.492 34.502C251.48 34.5801 251.465 34.6641 251.445 34.7539C251.426 34.8438 251.402 34.9258 251.375 35H250.185C250.213 34.9648 250.238 34.9297 250.262 34.8945C250.289 34.8555 250.314 34.8027 250.338 34.7363C250.365 34.6699 250.389 34.584 250.408 34.4785C250.432 34.373 250.453 34.2383 250.473 34.0742L250.543 33.2715C250.566 33.0605 250.594 32.8887 250.625 32.7559C250.66 32.623 250.707 32.5137 250.766 32.4277C250.828 32.3379 250.908 32.2656 251.006 32.2109C251.103 32.1523 251.226 32.0938 251.375 32.0352C250.703 31.793 250.367 31.2969 250.367 30.5469C250.367 30.3594 250.391 30.1875 250.437 30.0312C250.484 29.8711 250.545 29.7285 250.619 29.6035C250.697 29.4785 250.783 29.3691 250.877 29.2754C250.975 29.1777 251.072 29.0977 251.17 29.0352C251.291 28.957 251.424 28.8984 251.568 28.8594C251.713 28.8164 251.857 28.7852 252.002 28.7656C252.15 28.7461 252.295 28.7344 252.435 28.7305C252.576 28.7266 252.705 28.7246 252.822 28.7246H255.611V35ZM254.527 29.6738H252.887C252.746 29.6738 252.625 29.6758 252.523 29.6797C252.422 29.6797 252.332 29.6836 252.254 29.6914C252.18 29.6992 252.111 29.7129 252.049 29.7324C251.986 29.752 251.922 29.7793 251.855 29.8145C251.719 29.8926 251.613 30.0078 251.539 30.1602C251.469 30.3125 251.434 30.4746 251.434 30.6465C251.434 30.8145 251.459 30.957 251.51 31.0742C251.56 31.1875 251.627 31.2812 251.709 31.3555C251.795 31.4297 251.889 31.4883 251.99 31.5312C252.096 31.5703 252.201 31.5996 252.307 31.6191C252.416 31.6348 252.521 31.6445 252.623 31.6484C252.725 31.6523 252.812 31.6543 252.887 31.6543H254.527V29.6738Z" fill="black"/>
    <path d="M135.816 56.1045H137.331L139.565 62.7485H139.587L141.821 56.1045H143.336V64H142.348V57.356H142.326L140.103 64H139.05L136.826 57.356H136.805V64H135.816V56.1045ZM144.987 59.9717C144.998 59.6208 145.064 59.3254 145.186 59.0854C145.308 58.842 145.473 58.645 145.68 58.4946C145.888 58.3442 146.133 58.2368 146.416 58.1724C146.703 58.1043 147.014 58.0703 147.351 58.0703C147.63 58.0703 147.9 58.099 148.162 58.1562C148.427 58.2135 148.661 58.3066 148.865 58.4355C149.069 58.5609 149.232 58.7256 149.354 58.9297C149.479 59.1302 149.542 59.3755 149.542 59.6655V63.0117C149.542 63.1048 149.567 63.1854 149.617 63.2534C149.667 63.3179 149.748 63.3501 149.859 63.3501C149.909 63.3501 149.961 63.3465 150.015 63.3394C150.068 63.3286 150.124 63.3179 150.181 63.3071V63.9893C150.099 64.0107 150.017 64.0304 149.934 64.0483C149.855 64.0662 149.761 64.0752 149.65 64.0752C149.478 64.0752 149.329 64.0609 149.204 64.0322C149.082 64.0036 148.978 63.957 148.892 63.8926C148.81 63.8245 148.745 63.7386 148.699 63.6348C148.652 63.5273 148.622 63.3966 148.608 63.2427C148.486 63.3752 148.357 63.4987 148.221 63.6133C148.085 63.7243 147.933 63.8228 147.764 63.9087C147.596 63.991 147.408 64.0555 147.2 64.1021C146.993 64.1522 146.758 64.1772 146.497 64.1772C146.275 64.1772 146.058 64.1414 145.847 64.0698C145.639 63.9982 145.451 63.8926 145.283 63.7529C145.118 63.6133 144.986 63.4414 144.885 63.2373C144.785 63.0296 144.735 62.7897 144.735 62.5176C144.735 62.2204 144.785 61.9644 144.885 61.7495C144.986 61.5311 145.116 61.3503 145.277 61.207C145.439 61.0602 145.623 60.9474 145.831 60.8687C146.038 60.7899 146.25 60.738 146.464 60.7129L148.081 60.5142C148.235 60.4963 148.355 60.4372 148.441 60.3369C148.531 60.2331 148.575 60.0684 148.575 59.8428C148.575 59.4954 148.461 59.2466 148.232 59.0962C148.006 58.9422 147.68 58.8652 147.254 58.8652C146.817 58.8652 146.491 58.9583 146.277 59.1445C146.062 59.3271 145.94 59.6029 145.911 59.9717H144.987ZM148.554 61.0728C148.475 61.13 148.377 61.1784 148.258 61.2178C148.144 61.2536 148.017 61.284 147.877 61.3091C147.737 61.3341 147.589 61.3574 147.431 61.3789C147.274 61.3968 147.116 61.4165 146.959 61.438C146.78 61.4631 146.615 61.4989 146.464 61.5454C146.314 61.592 146.183 61.6528 146.072 61.728C145.961 61.8032 145.875 61.8945 145.815 62.002C145.754 62.1058 145.723 62.2293 145.723 62.3726C145.723 62.5373 145.748 62.6823 145.798 62.8076C145.852 62.9329 145.924 63.0386 146.013 63.1245C146.106 63.2104 146.217 63.2749 146.346 63.3179C146.475 63.3608 146.617 63.3823 146.771 63.3823C146.867 63.3823 146.978 63.3716 147.104 63.3501C147.229 63.325 147.358 63.2892 147.49 63.2427C147.623 63.1961 147.752 63.137 147.877 63.0654C148.006 62.9902 148.121 62.9007 148.221 62.7969C148.321 62.693 148.402 62.5749 148.463 62.4424C148.523 62.3099 148.554 62.1613 148.554 61.9966V61.0728ZM155.104 59.1069H152.902L152.859 60.4873C152.837 61.1855 152.783 61.7692 152.698 62.2383C152.612 62.7038 152.493 63.078 152.343 63.3608C152.196 63.6437 152.017 63.8442 151.806 63.9624C151.595 64.0806 151.353 64.1396 151.081 64.1396C150.981 64.1396 150.893 64.1235 150.818 64.0913C150.746 64.0627 150.691 64.0322 150.651 64V63.1299C150.791 63.1836 150.914 63.2104 151.022 63.2104C151.097 63.2104 151.169 63.1979 151.237 63.1729C151.308 63.1478 151.374 63.0994 151.435 63.0278C151.5 62.9562 151.559 62.856 151.613 62.7271C151.666 62.5946 151.713 62.4227 151.752 62.2114C151.795 62.0002 151.829 61.7441 151.854 61.4434C151.883 61.1426 151.903 60.7845 151.913 60.3691L151.962 58.2476H156.092V64H155.104V59.1069ZM157.658 58.2476H158.646V60.4121H160.241C160.556 60.4121 160.837 60.4551 161.084 60.541C161.331 60.6234 161.541 60.7433 161.713 60.9009C161.885 61.0549 162.015 61.2428 162.105 61.4648C162.198 61.6833 162.245 61.9303 162.245 62.2061C162.245 62.4854 162.198 62.736 162.105 62.958C162.015 63.1764 161.885 63.3644 161.713 63.522C161.541 63.6759 161.331 63.7941 161.084 63.8765C160.837 63.9588 160.556 64 160.241 64H157.658V58.2476ZM158.646 63.2104H160.048C160.22 63.2104 160.379 63.1925 160.526 63.1567C160.676 63.1209 160.805 63.0636 160.913 62.9849C161.02 62.9025 161.104 62.7987 161.165 62.6733C161.226 62.5444 161.256 62.3887 161.256 62.2061C161.256 62.027 161.224 61.8748 161.16 61.7495C161.099 61.6242 161.011 61.5221 160.896 61.4434C160.785 61.361 160.649 61.3019 160.488 61.2661C160.331 61.2267 160.153 61.207 159.956 61.207H158.646V63.2104ZM166.732 61.6797C166.517 61.737 166.281 61.7853 166.023 61.8247C165.769 61.8641 165.531 61.8838 165.309 61.8838C164.539 61.8838 163.968 61.737 163.595 61.4434C163.223 61.1462 163.037 60.6789 163.037 60.0415V58.2476H164.025V59.8428C164.025 60.0576 164.05 60.2438 164.1 60.4014C164.154 60.5589 164.24 60.6896 164.358 60.7935C164.476 60.8937 164.632 60.9689 164.825 61.019C165.019 61.0692 165.257 61.0942 165.54 61.0942C165.615 61.0942 165.704 61.0871 165.808 61.0728C165.916 61.0584 166.025 61.0405 166.136 61.019C166.247 60.9976 166.354 60.9743 166.458 60.9492C166.565 60.9206 166.657 60.8919 166.732 60.8633V58.2476H167.726V64H166.732V61.6797ZM169.297 58.2476H170.285V62.6572H170.306L173.132 58.2476H174.265V64H173.271V59.5903H173.25L170.43 64H169.297V58.2476ZM175.83 58.2476H176.819V61.0298L179.724 58.2476H181.019L178.317 60.7881L181.062 64H179.789L177.544 61.3896L176.819 61.9966V64H175.83V58.2476ZM181.967 58.2476H182.955V62.6572H182.977L185.802 58.2476H186.935V64H185.941V59.5903H185.92L183.1 64H181.967V58.2476Z" fill="#858585"/>
    <path d="M220.199 65.6919V63.0762H220.913C220.988 62.9043 221.058 62.7306 221.123 62.5552C221.187 62.3761 221.246 62.1756 221.3 61.9536C221.357 61.728 221.409 61.4702 221.456 61.1802C221.506 60.8901 221.552 60.5464 221.595 60.1489C221.645 59.73 221.685 59.3182 221.713 58.9136C221.742 58.5054 221.764 58.124 221.778 57.7695C221.796 57.415 221.806 57.0946 221.81 56.8081C221.817 56.5216 221.823 56.2871 221.826 56.1045H226.789V63.0762H227.681V65.6919H226.692V64H221.187V65.6919H220.199ZM222.814 57.0283C222.814 57.5404 222.793 58.0506 222.75 58.5591C222.711 59.0675 222.662 59.5796 222.605 60.0952C222.566 60.5034 222.524 60.8507 222.481 61.1372C222.442 61.4201 222.399 61.6725 222.353 61.8945C222.31 62.113 222.259 62.3153 222.202 62.5015C222.148 62.6841 222.086 62.8757 222.014 63.0762H225.704V57.0283H222.814ZM233.446 62.1631C233.407 62.4137 233.321 62.659 233.189 62.8989C233.056 63.1388 232.882 63.3537 232.668 63.5435C232.453 63.7332 232.199 63.8854 231.905 64C231.615 64.1182 231.293 64.1772 230.938 64.1772C230.551 64.1772 230.193 64.1146 229.864 63.9893C229.538 63.8604 229.255 63.6688 229.015 63.4146C228.779 63.1567 228.593 62.8345 228.457 62.4478C228.321 62.061 228.253 61.6063 228.253 61.0835C228.253 60.7326 228.29 60.4157 228.365 60.1328C228.444 59.8464 228.548 59.5921 228.677 59.3701C228.809 59.1445 228.962 58.9512 229.133 58.79C229.305 58.6253 229.486 58.491 229.676 58.3872C229.869 58.2798 230.066 58.201 230.267 58.1509C230.467 58.0972 230.661 58.0703 230.847 58.0703C231.241 58.0703 231.601 58.1294 231.926 58.2476C232.252 58.3657 232.532 58.5465 232.764 58.79C233.001 59.0299 233.183 59.3325 233.312 59.6978C233.445 60.0594 233.511 60.4855 233.511 60.9761V61.4702H229.305C229.309 61.7495 229.348 62.0037 229.423 62.2329C229.499 62.4585 229.606 62.6519 229.746 62.813C229.885 62.9741 230.054 63.0994 230.251 63.189C230.451 63.2749 230.677 63.3179 230.927 63.3179C231.182 63.3179 231.396 63.2821 231.572 63.2104C231.747 63.1388 231.894 63.0475 232.012 62.9365C232.131 62.8255 232.225 62.702 232.297 62.5659C232.372 62.4299 232.435 62.2956 232.485 62.1631H233.446ZM232.517 60.6807C232.51 60.4014 232.467 60.1525 232.388 59.9341C232.313 59.7157 232.206 59.533 232.066 59.3862C231.93 59.2358 231.765 59.123 231.572 59.0479C231.379 58.9691 231.164 58.9297 230.927 58.9297C230.702 58.9297 230.494 58.9744 230.304 59.064C230.115 59.1499 229.948 59.2716 229.805 59.4292C229.662 59.5832 229.547 59.7676 229.461 59.9824C229.375 60.1937 229.323 60.4264 229.305 60.6807H232.517ZM234.781 58.2476H237.23C237.932 58.2476 238.457 58.3783 238.804 58.6396C239.155 58.901 239.33 59.2806 239.33 59.7783C239.33 60.0433 239.266 60.2671 239.137 60.4497C239.008 60.6323 238.838 60.7935 238.627 60.9331C238.931 61.0477 239.173 61.2124 239.352 61.4272C239.531 61.6421 239.62 61.9196 239.62 62.2598C239.62 62.5283 239.576 62.77 239.486 62.9849C239.397 63.1997 239.261 63.3823 239.078 63.5327C238.895 63.6831 238.663 63.7995 238.38 63.8818C238.1 63.9606 237.769 64 237.386 64H234.781V58.2476ZM235.769 63.2104H237.273C237.535 63.2104 237.751 63.1908 237.923 63.1514C238.099 63.1084 238.238 63.0475 238.342 62.9688C238.446 62.89 238.519 62.7951 238.562 62.6841C238.605 62.5731 238.627 62.4478 238.627 62.3081C238.627 62.1685 238.605 62.0431 238.562 61.9321C238.519 61.8175 238.446 61.7227 238.342 61.6475C238.238 61.5687 238.099 61.5096 237.923 61.4702C237.751 61.4272 237.535 61.4058 237.273 61.4058H235.769V63.2104ZM235.769 60.6807H237.262C237.595 60.6807 237.859 60.6144 238.052 60.4819C238.245 60.3494 238.342 60.1436 238.342 59.8643C238.342 59.7067 238.315 59.576 238.262 59.4722C238.208 59.3647 238.136 59.2788 238.047 59.2144C237.957 59.1499 237.855 59.1051 237.741 59.0801C237.63 59.0514 237.515 59.0371 237.397 59.0371H235.769V60.6807ZM244.935 61.1157C244.935 60.797 244.899 60.5052 244.828 60.2402C244.756 59.9717 244.649 59.7407 244.505 59.5474C244.362 59.354 244.185 59.2036 243.974 59.0962C243.766 58.9852 243.524 58.9297 243.248 58.9297C242.973 58.9297 242.731 58.9852 242.523 59.0962C242.316 59.2036 242.14 59.354 241.997 59.5474C241.854 59.7407 241.746 59.9717 241.675 60.2402C241.603 60.5052 241.567 60.797 241.567 61.1157C241.567 61.438 241.603 61.7352 241.675 62.0073C241.746 62.2759 241.854 62.5068 241.997 62.7002C242.14 62.8936 242.316 63.0457 242.523 63.1567C242.731 63.2642 242.973 63.3179 243.248 63.3179C243.524 63.3179 243.766 63.2642 243.974 63.1567C244.185 63.0457 244.362 62.8936 244.505 62.7002C244.649 62.5068 244.756 62.2759 244.828 62.0073C244.899 61.7352 244.935 61.438 244.935 61.1157ZM245.923 61.1157C245.923 61.5884 245.862 62.0145 245.741 62.394C245.619 62.77 245.443 63.0905 245.214 63.3555C244.985 63.6204 244.704 63.8245 244.371 63.9678C244.042 64.1074 243.667 64.1772 243.248 64.1772C242.83 64.1772 242.455 64.1074 242.126 63.9678C241.796 63.8245 241.517 63.6204 241.288 63.3555C241.059 63.0905 240.883 62.77 240.762 62.394C240.64 62.0145 240.579 61.5884 240.579 61.1157C240.579 60.6502 240.64 60.2295 240.762 59.8535C240.883 59.4775 241.059 59.1571 241.288 58.8921C241.517 58.6271 241.796 58.4248 242.126 58.2852C242.455 58.1419 242.83 58.0703 243.248 58.0703C243.667 58.0703 244.042 58.1419 244.371 58.2852C244.704 58.4248 244.985 58.6271 245.214 58.8921C245.443 59.1571 245.619 59.4775 245.741 59.8535C245.862 60.2295 245.923 60.6502 245.923 61.1157ZM250.615 61.6797C250.4 61.737 250.164 61.7853 249.906 61.8247C249.652 61.8641 249.413 61.8838 249.191 61.8838C248.422 61.8838 247.85 61.737 247.478 61.4434C247.106 61.1462 246.919 60.6789 246.919 60.0415V58.2476H247.908V59.8428C247.908 60.0576 247.933 60.2438 247.983 60.4014C248.037 60.5589 248.123 60.6896 248.241 60.7935C248.359 60.8937 248.515 60.9689 248.708 61.019C248.901 61.0692 249.14 61.0942 249.422 61.0942C249.498 61.0942 249.587 61.0871 249.691 61.0728C249.798 61.0584 249.908 61.0405 250.019 61.019C250.13 60.9976 250.237 60.9743 250.341 60.9492C250.448 60.9206 250.54 60.8919 250.615 60.8633V58.2476H251.608V64H250.615V61.6797ZM253.179 58.2476H254.168V61.0298L257.073 58.2476H258.368L255.666 60.7881L258.411 64H257.138L254.893 61.3896L254.168 61.9966V64H253.179V58.2476ZM259.316 58.2476H260.304V62.6572H260.326L263.151 58.2476H264.284V64H263.29V59.5903H263.269L260.449 64H259.316V58.2476Z" fill="#858585"/>
    <path d="M150.29 83.3477C150.368 83.7715 150.516 84.0996 150.734 84.332C150.953 84.5599 151.272 84.6738 151.691 84.6738C152.174 84.6738 152.541 84.5052 152.792 84.168C153.047 83.8262 153.175 83.3978 153.175 82.8828C153.175 82.377 153.056 81.9508 152.819 81.6045C152.582 81.2536 152.213 81.0781 151.712 81.0781C151.475 81.0781 151.27 81.1077 151.097 81.167C150.791 81.2764 150.561 81.4792 150.406 81.7754L148.656 81.6934L149.354 76.2178H154.815V77.8721H150.762L150.406 80.0391C150.707 79.8431 150.942 79.7132 151.11 79.6494C151.393 79.5446 151.737 79.4922 152.143 79.4922C152.963 79.4922 153.678 79.7679 154.289 80.3193C154.9 80.8708 155.205 81.6729 155.205 82.7256C155.205 83.6416 154.911 84.4596 154.323 85.1797C153.735 85.8997 152.856 86.2598 151.685 86.2598C150.741 86.2598 149.966 86.0068 149.36 85.501C148.754 84.9951 148.417 84.2773 148.349 83.3477H150.29ZM158.056 82.958C158.056 83.3545 158.119 83.6826 158.247 83.9424C158.484 84.4209 158.915 84.6602 159.539 84.6602C159.922 84.6602 160.255 84.5303 160.537 84.2705C160.824 84.0062 160.968 83.6279 160.968 83.1357C160.968 82.484 160.703 82.0488 160.175 81.8301C159.874 81.707 159.4 81.6455 158.753 81.6455V80.251C159.386 80.2419 159.828 80.1803 160.079 80.0664C160.512 79.875 160.729 79.4876 160.729 78.9043C160.729 78.526 160.617 78.2184 160.394 77.9814C160.175 77.7445 159.865 77.626 159.464 77.626C159.004 77.626 158.664 77.7718 158.445 78.0635C158.231 78.3551 158.129 78.7448 158.138 79.2324H156.319C156.338 78.7402 156.422 78.2731 156.572 77.8311C156.732 77.4437 156.982 77.0859 157.324 76.7578C157.579 76.5254 157.882 76.3477 158.233 76.2246C158.584 76.1016 159.015 76.04 159.525 76.04C160.473 76.04 161.237 76.2861 161.815 76.7783C162.399 77.266 162.69 77.9222 162.69 78.7471C162.69 79.3304 162.517 79.8226 162.171 80.2236C161.952 80.4743 161.724 80.6452 161.487 80.7363C161.665 80.7363 161.92 80.889 162.253 81.1943C162.75 81.6546 162.998 82.2835 162.998 83.0811C162.998 83.9196 162.706 84.6579 162.123 85.2959C161.544 85.9294 160.685 86.2461 159.546 86.2461C158.142 86.2461 157.167 85.7881 156.62 84.8721C156.333 84.3844 156.174 83.7464 156.142 82.958H158.056ZM166.43 79.7656C166.73 79.7656 166.986 79.6608 167.195 79.4512C167.41 79.237 167.517 78.9795 167.517 78.6787C167.517 78.3779 167.41 78.1227 167.195 77.9131C166.986 77.6989 166.73 77.5918 166.43 77.5918C166.129 77.5918 165.871 77.6989 165.657 77.9131C165.448 78.1227 165.343 78.3779 165.343 78.6787C165.343 78.9795 165.448 79.237 165.657 79.4512C165.871 79.6608 166.129 79.7656 166.43 79.7656ZM168.973 78.6787C168.973 79.3805 168.724 79.9798 168.228 80.4766C167.735 80.9733 167.136 81.2217 166.43 81.2217C165.728 81.2217 165.129 80.9733 164.632 80.4766C164.135 79.9798 163.887 79.3805 163.887 78.6787C163.887 77.9769 164.135 77.3776 164.632 76.8809C165.129 76.3841 165.728 76.1357 166.43 76.1357C167.132 76.1357 167.731 76.3841 168.228 76.8809C168.724 77.3776 168.973 77.9769 168.973 78.6787ZM174.161 83.6553C174.161 83.3545 174.054 83.0993 173.84 82.8896C173.63 82.6755 173.375 82.5684 173.074 82.5684C172.773 82.5684 172.516 82.6755 172.302 82.8896C172.092 83.0993 171.987 83.3545 171.987 83.6553C171.987 83.9561 172.092 84.2135 172.302 84.4277C172.516 84.6374 172.773 84.7422 173.074 84.7422C173.375 84.7422 173.63 84.6374 173.84 84.4277C174.054 84.2135 174.161 83.9561 174.161 83.6553ZM175.617 83.6553C175.617 84.3571 175.369 84.9564 174.872 85.4531C174.375 85.9499 173.776 86.1982 173.074 86.1982C172.372 86.1982 171.773 85.9499 171.276 85.4531C170.78 84.9564 170.531 84.3571 170.531 83.6553C170.531 82.9489 170.78 82.3496 171.276 81.8574C171.773 81.3607 172.372 81.1123 173.074 81.1123C173.776 81.1123 174.375 81.3607 174.872 81.8574C175.369 82.3542 175.617 82.9535 175.617 83.6553ZM171.987 76.0879H173.026L167.503 86.2598H166.443L171.987 76.0879Z" fill="#A6ACBE"/>
    <path d="M240.709 83.8672H239.588V86H237.681V83.8672H233.757V82.165L237.4 76.1494H239.588V82.3428H240.709V83.8672ZM237.681 82.3428V78.0635L235.199 82.3428H237.681ZM248.563 77.7422C248.272 78.0293 247.866 78.542 247.347 79.2803C246.827 80.014 246.392 80.7728 246.041 81.5566C245.763 82.1719 245.512 82.9238 245.289 83.8125C245.066 84.7012 244.954 85.4303 244.954 86H242.931C242.99 84.2227 243.573 82.3747 244.681 80.4561C245.396 79.2666 245.995 78.4372 246.479 77.9678H241.536L241.563 76.2178H248.563V77.7422ZM251.838 79.7656C252.139 79.7656 252.394 79.6608 252.604 79.4512C252.818 79.237 252.925 78.9795 252.925 78.6787C252.925 78.3779 252.818 78.1227 252.604 77.9131C252.394 77.6989 252.139 77.5918 251.838 77.5918C251.537 77.5918 251.28 77.6989 251.065 77.9131C250.856 78.1227 250.751 78.3779 250.751 78.6787C250.751 78.9795 250.856 79.237 251.065 79.4512C251.28 79.6608 251.537 79.7656 251.838 79.7656ZM254.381 78.6787C254.381 79.3805 254.132 79.9798 253.636 80.4766C253.144 80.9733 252.544 81.2217 251.838 81.2217C251.136 81.2217 250.537 80.9733 250.04 80.4766C249.543 79.9798 249.295 79.3805 249.295 78.6787C249.295 77.9769 249.543 77.3776 250.04 76.8809C250.537 76.3841 251.136 76.1357 251.838 76.1357C252.54 76.1357 253.139 76.3841 253.636 76.8809C254.132 77.3776 254.381 77.9769 254.381 78.6787ZM259.569 83.6553C259.569 83.3545 259.462 83.0993 259.248 82.8896C259.038 82.6755 258.783 82.5684 258.482 82.5684C258.182 82.5684 257.924 82.6755 257.71 82.8896C257.5 83.0993 257.396 83.3545 257.396 83.6553C257.396 83.9561 257.5 84.2135 257.71 84.4277C257.924 84.6374 258.182 84.7422 258.482 84.7422C258.783 84.7422 259.038 84.6374 259.248 84.4277C259.462 84.2135 259.569 83.9561 259.569 83.6553ZM261.025 83.6553C261.025 84.3571 260.777 84.9564 260.28 85.4531C259.784 85.9499 259.184 86.1982 258.482 86.1982C257.781 86.1982 257.181 85.9499 256.685 85.4531C256.188 84.9564 255.939 84.3571 255.939 83.6553C255.939 82.9489 256.188 82.3496 256.685 81.8574C257.181 81.3607 257.781 81.1123 258.482 81.1123C259.184 81.1123 259.784 81.3607 260.28 81.8574C260.777 82.3542 261.025 82.9535 261.025 83.6553ZM257.396 76.0879H258.435L252.911 86.2598H251.852L257.396 76.0879Z" fill="#A6ACBE"/>
    <rect x="119" y="54" width="12" height="12" fill="url(#paint4_linear)"/>
    <rect x="204" y="54" width="12" height="12" fill="url(#paint5_linear)"/>
    <defs>
        <linearGradient id="paint0_linear" x1="37.1092" y1="52.5393" x2="144.351" y2="92.1904" gradientUnits="userSpaceOnUse">
            <stop stop-color="#4A27F3"/>
            <stop offset="1" stop-color="#339DFA"/>
        </linearGradient>
        <linearGradient id="paint1_linear" x1="69.3312" y1="47.3527" x2="81.2701" y2="-0.946313" gradientUnits="userSpaceOnUse">
            <stop stop-color="#4A27F3"/>
            <stop offset="1" stop-color="#339DFA"/>
        </linearGradient>
        <linearGradient id="paint2_linear" x1="55.9995" y1="16.0005" x2="55.9995" y2="96.0005" gradientUnits="userSpaceOnUse">
            <stop stop-color="#FD3C72"/>
            <stop offset="1" stop-color="#FFD00D"/>
        </linearGradient>
        <linearGradient id="paint3_linear" x1="59.9995" y1="3.4079" x2="64.513" y2="145.126" gradientUnits="userSpaceOnUse">
            <stop stop-color="#281AC8"/>
            <stop offset="1" stop-color="#339DFA"/>
        </linearGradient>
        <linearGradient id="paint4_linear" x1="125" y1="54" x2="125" y2="66" gradientUnits="userSpaceOnUse">
            <stop stop-color="#2C4DDC"/>
            <stop offset="1" stop-color="#339DFA"/>
        </linearGradient>
        <linearGradient id="paint5_linear" x1="210" y1="54" x2="210" y2="66" gradientUnits="userSpaceOnUse">
            <stop stop-color="#FD3C72"/>
            <stop offset="1" stop-color="#FFD00D"/>
        </linearGradient>
    </defs>
</svg>
