<svg width="294" height="115" viewBox="0 0 294 115" fill="none" xmlns="http://www.w3.org/2000/svg">
    <rect width="294" height="115" rx="7" fill="#EDEDF6"/>
    <rect width="294" height="112" rx="7" fill="white"/>
    <path d="M129.291 26.3867H130.44V30.582L134.641 26.3867H136.246L132.66 29.8613L136.346 35H134.869L131.834 30.6582L130.44 32V35H129.291V26.3867ZM141.698 31.8535C141.698 31.5059 141.659 31.1875 141.581 30.8984C141.503 30.6055 141.386 30.3535 141.229 30.1426C141.073 29.9316 140.88 29.7676 140.649 29.6504C140.423 29.5293 140.159 29.4688 139.858 29.4688C139.558 29.4688 139.294 29.5293 139.067 29.6504C138.841 29.7676 138.649 29.9316 138.493 30.1426C138.337 30.3535 138.22 30.6055 138.142 30.8984C138.063 31.1875 138.024 31.5059 138.024 31.8535C138.024 32.2051 138.063 32.5293 138.142 32.8262C138.22 33.1191 138.337 33.3711 138.493 33.582C138.649 33.793 138.841 33.959 139.067 34.0801C139.294 34.1973 139.558 34.2559 139.858 34.2559C140.159 34.2559 140.423 34.1973 140.649 34.0801C140.88 33.959 141.073 33.793 141.229 33.582C141.386 33.3711 141.503 33.1191 141.581 32.8262C141.659 32.5293 141.698 32.2051 141.698 31.8535ZM142.776 31.8535C142.776 32.3691 142.71 32.834 142.577 33.248C142.444 33.6582 142.253 34.0078 142.003 34.2969C141.753 34.5859 141.446 34.8086 141.083 34.9648C140.724 35.1172 140.315 35.1934 139.858 35.1934C139.401 35.1934 138.993 35.1172 138.634 34.9648C138.274 34.8086 137.97 34.5859 137.72 34.2969C137.47 34.0078 137.278 33.6582 137.145 33.248C137.013 32.834 136.946 32.3691 136.946 31.8535C136.946 31.3457 137.013 30.8867 137.145 30.4766C137.278 30.0664 137.47 29.7168 137.72 29.4277C137.97 29.1387 138.274 28.918 138.634 28.7656C138.993 28.6094 139.401 28.5312 139.858 28.5312C140.315 28.5312 140.724 28.6094 141.083 28.7656C141.446 28.918 141.753 29.1387 142.003 29.4277C142.253 29.7168 142.444 30.0664 142.577 30.4766C142.71 30.8867 142.776 31.3457 142.776 31.8535ZM148.34 29.6621H145.937L145.89 31.168C145.867 31.9297 145.808 32.5664 145.715 33.0781C145.621 33.5859 145.492 33.9941 145.328 34.3027C145.168 34.6113 144.972 34.8301 144.742 34.959C144.512 35.0879 144.248 35.1523 143.951 35.1523C143.842 35.1523 143.746 35.1348 143.664 35.0996C143.586 35.0684 143.525 35.0352 143.482 35V34.0508C143.635 34.1094 143.769 34.1387 143.887 34.1387C143.969 34.1387 144.047 34.125 144.121 34.0977C144.199 34.0703 144.271 34.0176 144.338 33.9395C144.408 33.8613 144.472 33.752 144.531 33.6113C144.59 33.4668 144.64 33.2793 144.683 33.0488C144.73 32.8184 144.767 32.5391 144.795 32.2109C144.826 31.8828 144.847 31.4922 144.859 31.0391L144.912 28.7246H149.418V35H148.34V29.6621ZM151.126 28.7246H152.204V33.5352H152.227L155.309 28.7246H156.546V35H155.462V30.1895H155.438L152.362 35H151.126V28.7246ZM162.033 32.4688C161.798 32.5312 161.541 32.584 161.259 32.627C160.982 32.6699 160.722 32.6914 160.48 32.6914C159.64 32.6914 159.017 32.5312 158.611 32.2109C158.205 31.8867 158.002 31.377 158.002 30.6816V28.7246H159.08V30.4648C159.08 30.6992 159.107 30.9023 159.162 31.0742C159.22 31.2461 159.314 31.3887 159.443 31.502C159.572 31.6113 159.742 31.6934 159.953 31.748C160.164 31.8027 160.423 31.8301 160.732 31.8301C160.814 31.8301 160.912 31.8223 161.025 31.8066C161.142 31.791 161.261 31.7715 161.382 31.748C161.504 31.7246 161.621 31.6992 161.734 31.6719C161.851 31.6406 161.951 31.6094 162.033 31.5781V28.7246H163.117V35H162.033V32.4688ZM170.174 32.9961C170.131 33.2695 170.038 33.5371 169.893 33.7988C169.749 34.0605 169.559 34.2949 169.325 34.502C169.09 34.709 168.813 34.875 168.493 35C168.176 35.1289 167.825 35.1934 167.438 35.1934C167.016 35.1934 166.625 35.125 166.266 34.9883C165.911 34.8477 165.602 34.6387 165.34 34.3613C165.082 34.0801 164.879 33.7285 164.731 33.3066C164.582 32.8848 164.508 32.3887 164.508 31.8184C164.508 31.4355 164.549 31.0898 164.631 30.7812C164.717 30.4688 164.831 30.1914 164.971 29.9492C165.116 29.7031 165.282 29.4922 165.469 29.3164C165.657 29.1367 165.854 28.9902 166.061 28.877C166.272 28.7598 166.487 28.6738 166.706 28.6191C166.924 28.5605 167.135 28.5312 167.338 28.5312C167.768 28.5312 168.161 28.5957 168.516 28.7246C168.872 28.8535 169.176 29.0508 169.43 29.3164C169.688 29.5781 169.887 29.9082 170.028 30.3066C170.172 30.7012 170.245 31.166 170.245 31.7012V32.2402H165.657C165.661 32.5449 165.704 32.8223 165.786 33.0723C165.868 33.3184 165.985 33.5293 166.137 33.7051C166.29 33.8809 166.473 34.0176 166.688 34.1152C166.907 34.209 167.153 34.2559 167.426 34.2559C167.704 34.2559 167.938 34.2168 168.129 34.1387C168.321 34.0605 168.481 33.9609 168.61 33.8398C168.739 33.7188 168.842 33.584 168.92 33.4355C169.002 33.2871 169.071 33.1406 169.125 32.9961H170.174ZM169.161 31.3789C169.153 31.0742 169.106 30.8027 169.02 30.5645C168.938 30.3262 168.821 30.127 168.668 29.9668C168.52 29.8027 168.34 29.6797 168.129 29.5977C167.918 29.5117 167.684 29.4688 167.426 29.4688C167.18 29.4688 166.954 29.5176 166.747 29.6152C166.54 29.709 166.358 29.8418 166.202 30.0137C166.045 30.1816 165.92 30.3828 165.827 30.6172C165.733 30.8477 165.676 31.1016 165.657 31.3789H169.161ZM176.564 32.791C176.548 32.9434 176.517 33.1094 176.47 33.2891C176.427 33.4688 176.363 33.6484 176.277 33.8281C176.191 34.0039 176.079 34.1738 175.943 34.3379C175.81 34.502 175.646 34.6484 175.451 34.7773C175.259 34.9023 175.033 35.002 174.771 35.0762C174.509 35.1543 174.21 35.1934 173.874 35.1934C173.691 35.1934 173.497 35.1699 173.294 35.123C173.091 35.0801 172.892 35.0059 172.697 34.9004C172.505 34.7949 172.322 34.6602 172.146 34.4961C171.974 34.3281 171.822 34.1211 171.689 33.875C171.56 33.6289 171.456 33.3438 171.378 33.0195C171.3 32.6914 171.261 32.3164 171.261 31.8945C171.261 31.375 171.335 30.9082 171.484 30.4941C171.632 30.0762 171.829 29.7227 172.076 29.4336C172.326 29.1445 172.615 28.9219 172.943 28.7656C173.275 28.6094 173.622 28.5312 173.986 28.5312C174.314 28.5312 174.603 28.5664 174.853 28.6367C175.107 28.707 175.327 28.8008 175.515 28.918C175.702 29.0352 175.861 29.1719 175.99 29.3281C176.119 29.4805 176.222 29.6426 176.3 29.8145C176.382 29.9824 176.443 30.1543 176.482 30.3301C176.525 30.5059 176.552 30.6738 176.564 30.834H175.556C175.501 30.4082 175.353 30.0742 175.111 29.832C174.872 29.5898 174.536 29.4688 174.103 29.4688C173.806 29.4688 173.546 29.5293 173.324 29.6504C173.105 29.7715 172.921 29.9414 172.773 30.1602C172.628 30.375 172.519 30.6367 172.445 30.9453C172.374 31.25 172.339 31.5859 172.339 31.9531C172.339 32.3672 172.378 32.7246 172.456 33.0254C172.535 33.3223 172.646 33.5684 172.79 33.7637C172.935 33.9551 173.111 34.0977 173.318 34.1914C173.529 34.2812 173.767 34.3262 174.033 34.3262C174.22 34.3262 174.398 34.293 174.566 34.2266C174.734 34.1562 174.884 34.0566 175.017 33.9277C175.15 33.7949 175.263 33.6328 175.357 33.4414C175.451 33.25 175.517 33.0332 175.556 32.791H176.564ZM179.42 29.6621H177.258V28.7246H182.66V29.6621H180.498V35H179.42V29.6621ZM183.87 28.7246H186.542C187.308 28.7246 187.88 28.8672 188.259 29.1523C188.642 29.4375 188.833 29.8516 188.833 30.3945C188.833 30.6836 188.763 30.9277 188.622 31.127C188.482 31.3262 188.296 31.502 188.066 31.6543C188.398 31.7793 188.661 31.959 188.857 32.1934C189.052 32.4277 189.15 32.7305 189.15 33.1016C189.15 33.3945 189.101 33.6582 189.003 33.8926C188.905 34.127 188.757 34.3262 188.558 34.4902C188.359 34.6543 188.105 34.7812 187.796 34.8711C187.491 34.957 187.13 35 186.712 35H183.87V28.7246ZM184.948 34.1387H186.589C186.874 34.1387 187.11 34.1172 187.298 34.0742C187.489 34.0273 187.642 33.9609 187.755 33.875C187.868 33.7891 187.948 33.6855 187.995 33.5645C188.042 33.4434 188.066 33.3066 188.066 33.1543C188.066 33.002 188.042 32.8652 187.995 32.7441C187.948 32.6191 187.868 32.5156 187.755 32.4336C187.642 32.3477 187.489 32.2832 187.298 32.2402C187.11 32.1934 186.874 32.1699 186.589 32.1699H184.948V34.1387ZM184.948 31.3789H186.577C186.941 31.3789 187.228 31.3066 187.439 31.1621C187.65 31.0176 187.755 30.793 187.755 30.4883C187.755 30.3164 187.726 30.1738 187.667 30.0605C187.609 29.9434 187.53 29.8496 187.433 29.7793C187.335 29.709 187.224 29.6602 187.099 29.6328C186.978 29.6016 186.853 29.5859 186.724 29.5859H184.948V31.3789ZM194.947 31.8535C194.947 31.5059 194.908 31.1875 194.83 30.8984C194.752 30.6055 194.635 30.3535 194.479 30.1426C194.322 29.9316 194.129 29.7676 193.898 29.6504C193.672 29.5293 193.408 29.4688 193.107 29.4688C192.807 29.4688 192.543 29.5293 192.316 29.6504C192.09 29.7676 191.898 29.9316 191.742 30.1426C191.586 30.3535 191.469 30.6055 191.391 30.8984C191.312 31.1875 191.273 31.5059 191.273 31.8535C191.273 32.2051 191.312 32.5293 191.391 32.8262C191.469 33.1191 191.586 33.3711 191.742 33.582C191.898 33.793 192.09 33.959 192.316 34.0801C192.543 34.1973 192.807 34.2559 193.107 34.2559C193.408 34.2559 193.672 34.1973 193.898 34.0801C194.129 33.959 194.322 33.793 194.479 33.582C194.635 33.3711 194.752 33.1191 194.83 32.8262C194.908 32.5293 194.947 32.2051 194.947 31.8535ZM196.025 31.8535C196.025 32.3691 195.959 32.834 195.826 33.248C195.693 33.6582 195.502 34.0078 195.252 34.2969C195.002 34.5859 194.695 34.8086 194.332 34.9648C193.973 35.1172 193.564 35.1934 193.107 35.1934C192.65 35.1934 192.242 35.1172 191.883 34.9648C191.523 34.8086 191.219 34.5859 190.969 34.2969C190.719 34.0078 190.527 33.6582 190.395 33.248C190.262 32.834 190.195 32.3691 190.195 31.8535C190.195 31.3457 190.262 30.8867 190.395 30.4766C190.527 30.0664 190.719 29.7168 190.969 29.4277C191.219 29.1387 191.523 28.918 191.883 28.7656C192.242 28.6094 192.65 28.5312 193.107 28.5312C193.564 28.5312 193.973 28.6094 194.332 28.7656C194.695 28.918 195.002 29.1387 195.252 29.4277C195.502 29.7168 195.693 30.0664 195.826 30.4766C195.959 30.8867 196.025 31.3457 196.025 31.8535ZM201.785 33.8457C201.828 33.8809 201.885 33.918 201.955 33.957C202.025 33.9922 202.101 34.0254 202.183 34.0566C202.265 34.084 202.349 34.1074 202.435 34.127C202.525 34.1426 202.611 34.1504 202.693 34.1504C202.869 34.1504 203.019 34.127 203.144 34.0801C203.273 34.0293 203.383 33.9648 203.472 33.8867C203.566 33.8047 203.642 33.7129 203.701 33.6113C203.76 33.5059 203.806 33.3965 203.842 33.2832L200.308 26.3867H201.65L204.498 32.0938L206.654 26.3867H207.955L205.248 32.8262C205.06 33.2559 204.885 33.623 204.72 33.9277C204.56 34.2285 204.385 34.4746 204.193 34.666C204.006 34.8574 203.791 34.9961 203.549 35.082C203.31 35.1719 203.021 35.2168 202.681 35.2168C202.506 35.2168 202.334 35.1934 202.166 35.1465C201.998 35.0996 201.869 35.0391 201.779 34.9648L201.785 33.8457ZM212.727 32.4688C212.493 32.5312 212.235 32.584 211.954 32.627C211.676 32.6699 211.417 32.6914 211.174 32.6914C210.335 32.6914 209.712 32.5312 209.305 32.2109C208.899 31.8867 208.696 31.377 208.696 30.6816V28.7246H209.774V30.4648C209.774 30.6992 209.801 30.9023 209.856 31.0742C209.915 31.2461 210.008 31.3887 210.137 31.502C210.266 31.6113 210.436 31.6934 210.647 31.748C210.858 31.8027 211.118 31.8301 211.426 31.8301C211.508 31.8301 211.606 31.8223 211.719 31.8066C211.837 31.791 211.956 31.7715 212.077 31.748C212.198 31.7246 212.315 31.6992 212.428 31.6719C212.546 31.6406 212.645 31.6094 212.727 31.5781V28.7246H213.811V35H212.727V32.4688ZM215.525 28.7246H216.603V33.5352H216.626L219.709 28.7246H220.945V35H219.861V30.1895H219.837L216.761 35H215.525V28.7246ZM224.323 29.6621H222.161V28.7246H227.563V29.6621H225.401V35H224.323V29.6621ZM234.116 32.9961C234.074 33.2695 233.98 33.5371 233.835 33.7988C233.691 34.0605 233.501 34.2949 233.267 34.502C233.033 34.709 232.755 34.875 232.435 35C232.118 35.1289 231.767 35.1934 231.38 35.1934C230.958 35.1934 230.568 35.125 230.208 34.9883C229.853 34.8477 229.544 34.6387 229.283 34.3613C229.025 34.0801 228.822 33.7285 228.673 33.3066C228.525 32.8848 228.45 32.3887 228.45 31.8184C228.45 31.4355 228.491 31.0898 228.574 30.7812C228.659 30.4688 228.773 30.1914 228.913 29.9492C229.058 29.7031 229.224 29.4922 229.411 29.3164C229.599 29.1367 229.796 28.9902 230.003 28.877C230.214 28.7598 230.429 28.6738 230.648 28.6191C230.866 28.5605 231.077 28.5312 231.281 28.5312C231.71 28.5312 232.103 28.5957 232.458 28.7246C232.814 28.8535 233.118 29.0508 233.372 29.3164C233.63 29.5781 233.829 29.9082 233.97 30.3066C234.115 30.7012 234.187 31.166 234.187 31.7012V32.2402H229.599C229.603 32.5449 229.646 32.8223 229.728 33.0723C229.81 33.3184 229.927 33.5293 230.079 33.7051C230.232 33.8809 230.415 34.0176 230.63 34.1152C230.849 34.209 231.095 34.2559 231.368 34.2559C231.646 34.2559 231.88 34.2168 232.072 34.1387C232.263 34.0605 232.423 33.9609 232.552 33.8398C232.681 33.7188 232.784 33.584 232.863 33.4355C232.945 33.2871 233.013 33.1406 233.068 32.9961H234.116ZM233.103 31.3789C233.095 31.0742 233.048 30.8027 232.962 30.5645C232.88 30.3262 232.763 30.127 232.611 29.9668C232.462 29.8027 232.283 29.6797 232.072 29.5977C231.861 29.5117 231.626 29.4688 231.368 29.4688C231.122 29.4688 230.896 29.5176 230.689 29.6152C230.482 29.709 230.3 29.8418 230.144 30.0137C229.988 30.1816 229.863 30.3828 229.769 30.6172C229.675 30.8477 229.618 31.1016 229.599 31.3789H233.103ZM239.797 29.6621H237.395L237.348 31.168C237.324 31.9297 237.266 32.5664 237.172 33.0781C237.078 33.5859 236.949 33.9941 236.785 34.3027C236.625 34.6113 236.43 34.8301 236.199 34.959C235.969 35.0879 235.705 35.1523 235.408 35.1523C235.299 35.1523 235.203 35.1348 235.121 35.0996C235.043 35.0684 234.983 35.0352 234.94 35V34.0508C235.092 34.1094 235.227 34.1387 235.344 34.1387C235.426 34.1387 235.504 34.125 235.578 34.0977C235.656 34.0703 235.729 34.0176 235.795 33.9395C235.865 33.8613 235.93 33.752 235.988 33.6113C236.047 33.4668 236.098 33.2793 236.141 33.0488C236.188 32.8184 236.225 32.5391 236.252 32.2109C236.283 31.8828 236.305 31.4922 236.317 31.0391L236.369 28.7246H240.875V35H239.797V29.6621ZM247.927 32.9961C247.884 33.2695 247.79 33.5371 247.646 33.7988C247.501 34.0605 247.312 34.2949 247.077 34.502C246.843 34.709 246.565 34.875 246.245 35C245.929 35.1289 245.577 35.1934 245.19 35.1934C244.769 35.1934 244.378 35.125 244.019 34.9883C243.663 34.8477 243.355 34.6387 243.093 34.3613C242.835 34.0801 242.632 33.7285 242.483 33.3066C242.335 32.8848 242.261 32.3887 242.261 31.8184C242.261 31.4355 242.302 31.0898 242.384 30.7812C242.47 30.4688 242.583 30.1914 242.724 29.9492C242.868 29.7031 243.034 29.4922 243.222 29.3164C243.409 29.1367 243.606 28.9902 243.814 28.877C244.024 28.7598 244.239 28.6738 244.458 28.6191C244.677 28.5605 244.888 28.5312 245.091 28.5312C245.521 28.5312 245.913 28.5957 246.269 28.7246C246.624 28.8535 246.929 29.0508 247.183 29.3164C247.44 29.5781 247.64 29.9082 247.78 30.3066C247.925 30.7012 247.997 31.166 247.997 31.7012V32.2402H243.409C243.413 32.5449 243.456 32.8223 243.538 33.0723C243.62 33.3184 243.737 33.5293 243.89 33.7051C244.042 33.8809 244.226 34.0176 244.44 34.1152C244.659 34.209 244.905 34.2559 245.179 34.2559C245.456 34.2559 245.69 34.2168 245.882 34.1387C246.073 34.0605 246.233 33.9609 246.362 33.8398C246.491 33.7188 246.595 33.584 246.673 33.4355C246.755 33.2871 246.823 33.1406 246.878 32.9961H247.927ZM246.913 31.3789C246.905 31.0742 246.858 30.8027 246.772 30.5645C246.69 30.3262 246.573 30.127 246.421 29.9668C246.272 29.8027 246.093 29.6797 245.882 29.5977C245.671 29.5117 245.437 29.4688 245.179 29.4688C244.933 29.4688 244.706 29.5176 244.499 29.6152C244.292 29.709 244.11 29.8418 243.954 30.0137C243.798 30.1816 243.673 30.3828 243.579 30.6172C243.485 30.8477 243.429 31.1016 243.409 31.3789H246.913ZM251.076 26.2871C251.127 26.5371 251.232 26.7363 251.393 26.8848C251.553 27.0293 251.789 27.1016 252.101 27.1016C252.418 27.1016 252.656 27.0312 252.816 26.8906C252.976 26.7461 253.08 26.5449 253.127 26.2871H254.129C254.125 26.5215 254.074 26.7344 253.976 26.9258C253.879 27.1133 253.74 27.2734 253.56 27.4062C253.385 27.5391 253.172 27.6426 252.922 27.7168C252.676 27.7871 252.402 27.8223 252.101 27.8223C251.801 27.8223 251.527 27.7871 251.281 27.7168C251.035 27.6465 250.824 27.5449 250.648 27.4121C250.473 27.2793 250.334 27.1191 250.232 26.9316C250.135 26.7402 250.084 26.5254 250.08 26.2871H251.076ZM249.383 28.7246H250.461V33.5352H250.484L253.566 28.7246H254.803V35H253.719V30.1895H253.695L250.619 35H249.383V28.7246Z" fill="black"/>
    <path d="M135.816 56.1045H137.331L139.565 62.7485H139.587L141.821 56.1045H143.336V64H142.348V57.356H142.326L140.103 64H139.05L136.826 57.356H136.805V64H135.816V56.1045ZM144.397 58.2476H145.482L147.012 62.9312H147.034L148.565 58.2476H149.65L147.453 64.231C147.342 64.5317 147.24 64.7931 147.147 65.0151C147.054 65.2371 146.962 65.4251 146.873 65.5791C146.783 65.7367 146.692 65.8638 146.599 65.9604C146.509 66.0571 146.409 66.1323 146.298 66.186C146.191 66.2433 146.069 66.2809 145.933 66.2988C145.8 66.3203 145.646 66.3311 145.471 66.3311C145.328 66.3311 145.215 66.3239 145.132 66.3096C145.054 66.2988 144.984 66.2845 144.923 66.2666V65.375C144.987 65.3965 145.072 65.418 145.175 65.4395C145.279 65.4609 145.388 65.4717 145.503 65.4717C145.686 65.4717 145.832 65.4269 145.943 65.3374C146.058 65.2515 146.146 65.1279 146.207 64.9668L146.529 64.1558L144.397 58.2476ZM154.679 60.6001H155.179L157.064 58.2476H158.257L155.995 60.9761L158.343 64H157.123L155.179 61.3843H154.679V64H153.691V61.3843H153.186L151.226 64H150.007L152.375 60.9761L150.125 58.2476H151.323L153.186 60.6001H153.691V58.2476H154.679V60.6001ZM162.766 61.6797C162.551 61.737 162.314 61.7853 162.057 61.8247C161.802 61.8641 161.564 61.8838 161.342 61.8838C160.572 61.8838 160.001 61.737 159.629 61.4434C159.256 61.1462 159.07 60.6789 159.07 60.0415V58.2476H160.059V59.8428C160.059 60.0576 160.084 60.2438 160.134 60.4014C160.187 60.5589 160.273 60.6896 160.392 60.7935C160.51 60.8937 160.665 60.9689 160.859 61.019C161.052 61.0692 161.29 61.0942 161.573 61.0942C161.648 61.0942 161.738 61.0871 161.842 61.0728C161.949 61.0584 162.058 61.0405 162.169 61.019C162.28 60.9976 162.388 60.9743 162.492 60.9492C162.599 60.9206 162.69 60.8919 162.766 60.8633V58.2476H163.759V64H162.766V61.6797ZM165.33 58.2476H166.318V62.6572H166.34L169.165 58.2476H170.298V64H169.305V59.5903H169.283L166.463 64H165.33V58.2476ZM171.864 58.2476H172.852V60.5679H175.538V58.2476H176.531V64H175.538V61.4272H172.852V64H171.864V58.2476ZM183.597 58.2476H184.585V64H183.597V58.2476ZM178.097 58.2476H179.085V60.4121H180.815C181.126 60.4121 181.406 60.4551 181.653 60.541C181.903 60.6234 182.115 60.7433 182.286 60.9009C182.458 61.0549 182.589 61.2428 182.679 61.4648C182.772 61.6833 182.818 61.9303 182.818 62.2061C182.818 62.4854 182.772 62.736 182.679 62.958C182.589 63.1764 182.458 63.3644 182.286 63.522C182.115 63.6759 181.903 63.7941 181.653 63.8765C181.406 63.9588 181.126 64 180.815 64H178.097V58.2476ZM179.085 63.2104H180.616C180.788 63.2104 180.947 63.1925 181.094 63.1567C181.244 63.1209 181.373 63.0636 181.481 62.9849C181.588 62.9025 181.672 62.7987 181.733 62.6733C181.794 62.5444 181.825 62.3887 181.825 62.2061C181.825 62.027 181.792 61.8748 181.728 61.7495C181.667 61.6242 181.579 61.5221 181.465 61.4434C181.354 61.361 181.218 61.3019 181.056 61.2661C180.899 61.2267 180.723 61.207 180.53 61.207H179.085V63.2104Z" fill="#858585"/>
    <path d="M225.983 59.4883H226.692L229.469 56.1045H230.86L227.681 59.8643L230.86 64H229.416L226.692 60.3799H225.983V64H224.931V60.3799H224.222L221.488 64H220.054L223.298 59.9072L220.102 56.1045H221.466L224.222 59.4883H224.931V56.1045H225.983V59.4883ZM236.648 62.1631C236.608 62.4137 236.522 62.659 236.39 62.8989C236.257 63.1388 236.084 63.3537 235.869 63.5435C235.654 63.7332 235.4 63.8854 235.106 64C234.816 64.1182 234.494 64.1772 234.139 64.1772C233.753 64.1772 233.395 64.1146 233.065 63.9893C232.739 63.8604 232.456 63.6688 232.216 63.4146C231.98 63.1567 231.794 62.8345 231.658 62.4478C231.522 62.061 231.454 61.6063 231.454 61.0835C231.454 60.7326 231.491 60.4157 231.567 60.1328C231.645 59.8464 231.749 59.5921 231.878 59.3701C232.011 59.1445 232.163 58.9512 232.335 58.79C232.506 58.6253 232.687 58.491 232.877 58.3872C233.07 58.2798 233.267 58.201 233.468 58.1509C233.668 58.0972 233.862 58.0703 234.048 58.0703C234.442 58.0703 234.802 58.1294 235.128 58.2476C235.453 58.3657 235.733 58.5465 235.965 58.79C236.202 59.0299 236.384 59.3325 236.513 59.6978C236.646 60.0594 236.712 60.4855 236.712 60.9761V61.4702H232.506C232.51 61.7495 232.549 62.0037 232.625 62.2329C232.7 62.4585 232.807 62.6519 232.947 62.813C233.087 62.9741 233.255 63.0994 233.452 63.189C233.652 63.2749 233.878 63.3179 234.129 63.3179C234.383 63.3179 234.598 63.2821 234.773 63.2104C234.949 63.1388 235.095 63.0475 235.214 62.9365C235.332 62.8255 235.427 62.702 235.498 62.5659C235.573 62.4299 235.636 62.2956 235.686 62.1631H236.648ZM235.718 60.6807C235.711 60.4014 235.668 60.1525 235.589 59.9341C235.514 59.7157 235.407 59.533 235.267 59.3862C235.131 59.2358 234.966 59.123 234.773 59.0479C234.58 58.9691 234.365 58.9297 234.129 58.9297C233.903 58.9297 233.695 58.9744 233.506 59.064C233.316 59.1499 233.149 59.2716 233.006 59.4292C232.863 59.5832 232.748 59.7676 232.662 59.9824C232.576 60.1937 232.524 60.4264 232.506 60.6807H235.718ZM237.982 58.2476H238.97V60.5679H241.656V58.2476H242.65V64H241.656V61.4272H238.97V64H237.982V58.2476ZM251.112 64H244.215V58.2476H245.204V63.1406H247.277V58.2476H248.265V63.1406H250.333V58.2476H251.321V63.1406H252.036V65.4072H251.112V64ZM253.048 58.2476H254.036V62.6572H254.058L256.883 58.2476H258.016V64H257.023V59.5903H257.001L254.181 64H253.048V58.2476ZM259.582 58.2476H260.57V60.5679H263.256V58.2476H264.249V64H263.256V61.4272H260.57V64H259.582V58.2476ZM271.315 58.2476H272.303V64H271.315V58.2476ZM265.815 58.2476H266.803V60.4121H268.533C268.844 60.4121 269.123 60.4551 269.37 60.541C269.621 60.6234 269.832 60.7433 270.004 60.9009C270.176 61.0549 270.307 61.2428 270.396 61.4648C270.489 61.6833 270.536 61.9303 270.536 62.2061C270.536 62.4854 270.489 62.736 270.396 62.958C270.307 63.1764 270.176 63.3644 270.004 63.522C269.832 63.6759 269.621 63.7941 269.37 63.8765C269.123 63.9588 268.844 64 268.533 64H265.815V58.2476ZM266.803 63.2104H268.334C268.506 63.2104 268.665 63.1925 268.812 63.1567C268.962 63.1209 269.091 63.0636 269.199 62.9849C269.306 62.9025 269.39 62.7987 269.451 62.6733C269.512 62.5444 269.542 62.3887 269.542 62.2061C269.542 62.027 269.51 61.8748 269.446 61.7495C269.385 61.6242 269.297 61.5221 269.182 61.4434C269.071 61.361 268.935 61.3019 268.774 61.2661C268.617 61.2267 268.441 61.207 268.248 61.207H266.803V63.2104Z" fill="#858585"/>
    <path d="M150.263 82.958C150.263 83.3545 150.326 83.6826 150.454 83.9424C150.691 84.4209 151.122 84.6602 151.746 84.6602C152.129 84.6602 152.462 84.5303 152.744 84.2705C153.031 84.0062 153.175 83.6279 153.175 83.1357C153.175 82.484 152.91 82.0488 152.382 81.8301C152.081 81.707 151.607 81.6455 150.96 81.6455V80.251C151.593 80.2419 152.035 80.1803 152.286 80.0664C152.719 79.875 152.936 79.4876 152.936 78.9043C152.936 78.526 152.824 78.2184 152.601 77.9814C152.382 77.7445 152.072 77.626 151.671 77.626C151.211 77.626 150.871 77.7718 150.652 78.0635C150.438 78.3551 150.336 78.7448 150.345 79.2324H148.526C148.545 78.7402 148.629 78.2731 148.779 77.8311C148.939 77.4437 149.189 77.0859 149.531 76.7578C149.786 76.5254 150.09 76.3477 150.44 76.2246C150.791 76.1016 151.222 76.04 151.732 76.04C152.68 76.04 153.444 76.2861 154.022 76.7783C154.606 77.266 154.897 77.9222 154.897 78.7471C154.897 79.3304 154.724 79.8226 154.378 80.2236C154.159 80.4743 153.931 80.6452 153.694 80.7363C153.872 80.7363 154.127 80.889 154.46 81.1943C154.957 81.6546 155.205 82.2835 155.205 83.0811C155.205 83.9196 154.913 84.6579 154.33 85.2959C153.751 85.9294 152.892 86.2461 151.753 86.2461C150.349 86.2461 149.374 85.7881 148.827 84.8721C148.54 84.3844 148.381 83.7464 148.349 82.958H150.263ZM156.21 86C156.228 85.2891 156.381 84.6396 156.668 84.0518C156.946 83.391 157.602 82.6914 158.637 81.9531C159.535 81.3105 160.116 80.8503 160.38 80.5723C160.785 80.1393 160.988 79.6654 160.988 79.1504C160.988 78.7311 160.872 78.3825 160.64 78.1045C160.407 77.8265 160.075 77.6875 159.642 77.6875C159.049 77.6875 158.646 77.9085 158.432 78.3506C158.309 78.6058 158.236 79.0114 158.213 79.5674H156.319C156.351 78.7243 156.504 78.043 156.777 77.5234C157.297 76.5345 158.22 76.04 159.546 76.04C160.594 76.04 161.428 76.3317 162.048 76.915C162.668 77.4938 162.978 78.2617 162.978 79.2188C162.978 79.9525 162.759 80.6042 162.321 81.1738C162.034 81.5521 161.562 81.9736 160.906 82.4385L160.127 82.9922C159.639 83.3385 159.304 83.5892 159.122 83.7441C158.944 83.8991 158.794 84.0791 158.671 84.2842H162.998V86H156.21ZM166.43 79.7656C166.73 79.7656 166.986 79.6608 167.195 79.4512C167.41 79.237 167.517 78.9795 167.517 78.6787C167.517 78.3779 167.41 78.1227 167.195 77.9131C166.986 77.6989 166.73 77.5918 166.43 77.5918C166.129 77.5918 165.871 77.6989 165.657 77.9131C165.448 78.1227 165.343 78.3779 165.343 78.6787C165.343 78.9795 165.448 79.237 165.657 79.4512C165.871 79.6608 166.129 79.7656 166.43 79.7656ZM168.973 78.6787C168.973 79.3805 168.724 79.9798 168.228 80.4766C167.735 80.9733 167.136 81.2217 166.43 81.2217C165.728 81.2217 165.129 80.9733 164.632 80.4766C164.135 79.9798 163.887 79.3805 163.887 78.6787C163.887 77.9769 164.135 77.3776 164.632 76.8809C165.129 76.3841 165.728 76.1357 166.43 76.1357C167.132 76.1357 167.731 76.3841 168.228 76.8809C168.724 77.3776 168.973 77.9769 168.973 78.6787ZM174.161 83.6553C174.161 83.3545 174.054 83.0993 173.84 82.8896C173.63 82.6755 173.375 82.5684 173.074 82.5684C172.773 82.5684 172.516 82.6755 172.302 82.8896C172.092 83.0993 171.987 83.3545 171.987 83.6553C171.987 83.9561 172.092 84.2135 172.302 84.4277C172.516 84.6374 172.773 84.7422 173.074 84.7422C173.375 84.7422 173.63 84.6374 173.84 84.4277C174.054 84.2135 174.161 83.9561 174.161 83.6553ZM175.617 83.6553C175.617 84.3571 175.369 84.9564 174.872 85.4531C174.375 85.9499 173.776 86.1982 173.074 86.1982C172.372 86.1982 171.773 85.9499 171.276 85.4531C170.78 84.9564 170.531 84.3571 170.531 83.6553C170.531 82.9489 170.78 82.3496 171.276 81.8574C171.773 81.3607 172.372 81.1123 173.074 81.1123C173.776 81.1123 174.375 81.3607 174.872 81.8574C175.369 82.3542 175.617 82.9535 175.617 83.6553ZM171.987 76.0879H173.026L167.503 86.2598H166.443L171.987 76.0879Z" fill="#A6ACBE"/>
    <path d="M235.78 82.8623C235.78 83.3955 235.924 83.8307 236.211 84.168C236.498 84.5052 236.863 84.6738 237.305 84.6738C237.738 84.6738 238.077 84.512 238.323 84.1885C238.574 83.8604 238.699 83.4365 238.699 82.917C238.699 82.3382 238.558 81.8962 238.275 81.5908C237.993 81.2809 237.646 81.126 237.236 81.126C236.904 81.126 236.61 81.2262 236.354 81.4268C235.972 81.723 235.78 82.2015 235.78 82.8623ZM238.521 78.583C238.521 78.4235 238.46 78.248 238.337 78.0566C238.127 77.7467 237.811 77.5918 237.387 77.5918C236.753 77.5918 236.302 77.9473 236.033 78.6582C235.887 79.0501 235.787 79.6289 235.732 80.3945C235.974 80.1074 236.254 79.8978 236.573 79.7656C236.892 79.6335 237.257 79.5674 237.667 79.5674C238.547 79.5674 239.267 79.8659 239.827 80.4629C240.392 81.0599 240.675 81.8232 240.675 82.7529C240.675 83.6781 240.399 84.4938 239.848 85.2002C239.296 85.9066 238.439 86.2598 237.277 86.2598C236.029 86.2598 235.108 85.738 234.516 84.6943C234.055 83.8786 233.825 82.8258 233.825 81.5361C233.825 80.7796 233.857 80.1644 233.921 79.6904C234.035 78.8473 234.256 78.1455 234.584 77.585C234.867 77.1064 235.236 76.7214 235.691 76.4297C236.152 76.138 236.701 75.9922 237.339 75.9922C238.259 75.9922 238.993 76.2292 239.54 76.7031C240.087 77.1725 240.395 77.7992 240.463 78.583H238.521ZM243.573 83.1221C243.573 83.6097 243.699 83.988 243.949 84.2568C244.204 84.5257 244.555 84.6602 245.002 84.6602C245.449 84.6602 245.797 84.5257 246.048 84.2568C246.303 83.988 246.431 83.6097 246.431 83.1221C246.431 82.6162 246.301 82.2334 246.041 81.9736C245.786 81.7093 245.439 81.5771 245.002 81.5771C244.564 81.5771 244.216 81.7093 243.956 81.9736C243.701 82.2334 243.573 82.6162 243.573 83.1221ZM241.55 83.252C241.55 82.696 241.675 82.1924 241.926 81.7412C242.181 81.29 242.552 80.9505 243.04 80.7227C242.562 80.4036 242.249 80.0596 242.104 79.6904C241.962 79.3167 241.892 78.9681 241.892 78.6445C241.892 77.9245 242.163 77.3115 242.705 76.8057C243.247 76.2952 244.013 76.04 245.002 76.04C245.991 76.04 246.757 76.2952 247.299 76.8057C247.841 77.3115 248.112 77.9245 248.112 78.6445C248.112 78.9681 248.039 79.3167 247.894 79.6904C247.752 80.0596 247.442 80.3809 246.964 80.6543C247.451 80.9277 247.818 81.29 248.064 81.7412C248.311 82.1924 248.434 82.696 248.434 83.252C248.434 84.0859 248.124 84.7969 247.504 85.3848C246.889 85.9681 246.027 86.2598 244.92 86.2598C243.812 86.2598 242.974 85.9681 242.404 85.3848C241.835 84.7969 241.55 84.0859 241.55 83.252ZM243.751 78.8633C243.751 79.2233 243.86 79.5173 244.079 79.7451C244.302 79.973 244.61 80.0869 245.002 80.0869C245.398 80.0869 245.704 79.973 245.918 79.7451C246.137 79.5173 246.246 79.2233 246.246 78.8633C246.246 78.4714 246.137 78.166 245.918 77.9473C245.704 77.724 245.398 77.6123 245.002 77.6123C244.61 77.6123 244.302 77.724 244.079 77.9473C243.86 78.166 243.751 78.4714 243.751 78.8633ZM251.838 79.7656C252.139 79.7656 252.394 79.6608 252.604 79.4512C252.818 79.237 252.925 78.9795 252.925 78.6787C252.925 78.3779 252.818 78.1227 252.604 77.9131C252.394 77.6989 252.139 77.5918 251.838 77.5918C251.537 77.5918 251.28 77.6989 251.065 77.9131C250.856 78.1227 250.751 78.3779 250.751 78.6787C250.751 78.9795 250.856 79.237 251.065 79.4512C251.28 79.6608 251.537 79.7656 251.838 79.7656ZM254.381 78.6787C254.381 79.3805 254.132 79.9798 253.636 80.4766C253.144 80.9733 252.544 81.2217 251.838 81.2217C251.136 81.2217 250.537 80.9733 250.04 80.4766C249.543 79.9798 249.295 79.3805 249.295 78.6787C249.295 77.9769 249.543 77.3776 250.04 76.8809C250.537 76.3841 251.136 76.1357 251.838 76.1357C252.54 76.1357 253.139 76.3841 253.636 76.8809C254.132 77.3776 254.381 77.9769 254.381 78.6787ZM259.569 83.6553C259.569 83.3545 259.462 83.0993 259.248 82.8896C259.038 82.6755 258.783 82.5684 258.482 82.5684C258.182 82.5684 257.924 82.6755 257.71 82.8896C257.5 83.0993 257.396 83.3545 257.396 83.6553C257.396 83.9561 257.5 84.2135 257.71 84.4277C257.924 84.6374 258.182 84.7422 258.482 84.7422C258.783 84.7422 259.038 84.6374 259.248 84.4277C259.462 84.2135 259.569 83.9561 259.569 83.6553ZM261.025 83.6553C261.025 84.3571 260.777 84.9564 260.28 85.4531C259.784 85.9499 259.184 86.1982 258.482 86.1982C257.781 86.1982 257.181 85.9499 256.685 85.4531C256.188 84.9564 255.939 84.3571 255.939 83.6553C255.939 82.9489 256.188 82.3496 256.685 81.8574C257.181 81.3607 257.781 81.1123 258.482 81.1123C259.184 81.1123 259.784 81.3607 260.28 81.8574C260.777 82.3542 261.025 82.9535 261.025 83.6553ZM257.396 76.0879H258.435L252.911 86.2598H251.852L257.396 76.0879Z" fill="#A6ACBE"/>
    <rect x="119" y="54" width="12" height="12" fill="url(#paint0_linear)"/>
    <rect x="204" y="54" width="12" height="12" fill="url(#paint1_linear)"/>
    <path d="M41.5332 62C41.5566 61.0859 41.7529 60.251 42.1221 59.4951C42.4795 58.6455 43.3232 57.7461 44.6533 56.7969C45.8076 55.9707 46.5547 55.3789 46.8945 55.0215C47.416 54.4648 47.6768 53.8555 47.6768 53.1934C47.6768 52.6543 47.5273 52.2061 47.2285 51.8486C46.9297 51.4912 46.502 51.3125 45.9453 51.3125C45.1836 51.3125 44.665 51.5967 44.3896 52.165C44.2314 52.4932 44.1377 53.0146 44.1084 53.7295H41.6738C41.7148 52.6455 41.9111 51.7695 42.2627 51.1016C42.9307 49.8301 44.1172 49.1943 45.8223 49.1943C47.1699 49.1943 48.2422 49.5693 49.0391 50.3193C49.8359 51.0635 50.2344 52.0508 50.2344 53.2812C50.2344 54.2246 49.9531 55.0625 49.3906 55.7949C49.0215 56.2812 48.415 56.8232 47.5713 57.4209L46.5693 58.1328C45.9424 58.5781 45.5117 58.9004 45.2773 59.0996C45.0488 59.2988 44.8555 59.5303 44.6973 59.7939H50.2607V62H41.5332ZM52.2383 53.2109V51.5059C53.0293 51.4707 53.583 51.418 53.8994 51.3477C54.4033 51.2363 54.8135 51.0137 55.1299 50.6797C55.3467 50.4512 55.5107 50.1465 55.6221 49.7656C55.6865 49.5371 55.7188 49.3672 55.7188 49.2559H57.8018V62H55.2354V53.2109H52.2383ZM64.1299 55.751C64.1299 57.2158 64.25 58.3379 64.4902 59.1172C64.7305 59.8906 65.2227 60.2773 65.9668 60.2773C66.7109 60.2773 67.1973 59.8906 67.4258 59.1172C67.6602 58.3379 67.7773 57.2158 67.7773 55.751C67.7773 54.2158 67.6602 53.0791 67.4258 52.3408C67.1973 51.6025 66.7109 51.2334 65.9668 51.2334C65.2227 51.2334 64.7305 51.6025 64.4902 52.3408C64.25 53.0791 64.1299 54.2158 64.1299 55.751ZM65.9668 49.168C67.5898 49.168 68.7266 49.7393 69.377 50.8818C70.0332 52.0244 70.3613 53.6475 70.3613 55.751C70.3613 57.8545 70.0332 59.4746 69.377 60.6113C68.7266 61.748 67.5898 62.3164 65.9668 62.3164C64.3438 62.3164 63.2041 61.748 62.5479 60.6113C61.8975 59.4746 61.5723 57.8545 61.5723 55.751C61.5723 53.6475 61.8975 52.0244 62.5479 50.8818C63.2041 49.7393 64.3438 49.168 65.9668 49.168Z" fill="#3A7CF8"/>
    <path opacity="0.253397" fill-rule="evenodd" clip-rule="evenodd" d="M34.35 86.854C34.35 86.854 34.8647 84.0109 36.8888 90.6965C38.9128 97.3821 61.8002 112.015 69.4616 100.164C77.1229 88.3139 87.9545 101.612 95.4366 98.0551C102.919 94.4986 104.104 89.8048 98.5269 78.4949C92.9499 67.185 106.669 53.4034 92.9935 44.5432C79.3185 35.683 89.9052 37.8597 89.9052 37.8597L89.8355 74.0329L71.5302 90.6286L34.35 86.854Z" fill="url(#paint2_linear)"/>
    <path opacity="0.518059" fill-rule="evenodd" clip-rule="evenodd" d="M88.6711 47.9619C88.6711 47.9619 87.0995 47.8001 90.482 46.7439C93.8644 45.6877 99.48 35.1771 92.3952 32.0523C85.3105 28.9275 91.3791 23.8035 88.7509 20.5635C86.1227 17.3234 83.4957 16.9072 77.9822 19.6503C72.4687 22.3934 60.8566 13.5803 57.4386 19.863C54.0205 26.1458 60.0443 18.6236 60.0443 18.6236L76.4356 23.616L87.091 31.3574L88.6711 47.9619Z" fill="url(#paint3_linear)"/>
    <circle cx="56" cy="56" r="36.2785" stroke="url(#paint4_linear)" stroke-width="7.44304"/>
    <path d="M59.2489 19.8673C65.3514 20.416 71.2155 22.5014 76.2943 25.9289C81.3731 29.3565 85.501 34.0145 88.293 39.4685C91.085 44.9225 92.4502 50.9949 92.2612 57.1191C92.0722 63.2433 90.3352 69.2199 87.2121 74.4914" stroke="url(#paint5_linear)" stroke-width="7.44304" stroke-linecap="round"/>
    <defs>
        <linearGradient id="paint0_linear" x1="125" y1="54" x2="125" y2="66" gradientUnits="userSpaceOnUse">
            <stop stop-color="#2C4DDC"/>
            <stop offset="1" stop-color="#339DFA"/>
        </linearGradient>
        <linearGradient id="paint1_linear" x1="210" y1="54" x2="210" y2="66" gradientUnits="userSpaceOnUse">
            <stop stop-color="#FD3C72"/>
            <stop offset="1" stop-color="#FFD00D"/>
        </linearGradient>
        <linearGradient id="paint2_linear" x1="37.1097" y1="52.5389" x2="144.352" y2="92.19" gradientUnits="userSpaceOnUse">
            <stop stop-color="#4A27F3"/>
            <stop offset="1" stop-color="#339DFA"/>
        </linearGradient>
        <linearGradient id="paint3_linear" x1="69.3317" y1="47.3522" x2="81.2706" y2="-0.946801" gradientUnits="userSpaceOnUse">
            <stop stop-color="#4A27F3"/>
            <stop offset="1" stop-color="#339DFA"/>
        </linearGradient>
        <linearGradient id="paint4_linear" x1="56" y1="16" x2="56" y2="96" gradientUnits="userSpaceOnUse">
            <stop stop-color="#FD3C72"/>
            <stop offset="1" stop-color="#FFD00D"/>
        </linearGradient>
        <linearGradient id="paint5_linear" x1="60" y1="3.40741" x2="64.5135" y2="145.126" gradientUnits="userSpaceOnUse">
            <stop stop-color="#281AC8"/>
            <stop offset="1" stop-color="#339DFA"/>
        </linearGradient>
    </defs>
</svg>
