<svg width="620" height="320" viewBox="0 0 620 320" fill="none" xmlns="http://www.w3.org/2000/svg">
    <rect width="620" height="282.361" rx="7.46988" fill="#EDEDF6"/>
    <rect width="620" height="320" rx="7" fill="white"/>
    <path d="M509.126 28.0522C509.126 28.3924 509.092 28.7326 509.024 29.0728C508.956 29.4093 508.853 29.7316 508.713 30.0396C508.573 30.3439 508.398 30.6286 508.187 30.8936C507.979 31.1549 507.732 31.3841 507.445 31.5811C507.159 31.7744 506.835 31.9248 506.473 32.0322C506.115 32.1432 505.718 32.1987 505.281 32.1987C504.844 32.1987 504.445 32.1432 504.083 32.0322C503.721 31.9248 503.397 31.7744 503.111 31.5811C502.828 31.3841 502.581 31.1549 502.37 30.8936C502.158 30.6286 501.983 30.3439 501.843 30.0396C501.704 29.7316 501.6 29.4093 501.532 29.0728C501.464 28.7326 501.43 28.3924 501.43 28.0522C501.43 27.4399 501.516 26.8796 501.688 26.3711C501.863 25.8626 502.115 25.4258 502.445 25.0605C502.774 24.6953 503.177 24.4124 503.653 24.2119C504.13 24.0078 504.672 23.9058 505.281 23.9058C505.886 23.9058 506.427 24.0078 506.903 24.2119C507.383 24.4124 507.785 24.6953 508.111 25.0605C508.441 25.4258 508.691 25.8626 508.863 26.3711C509.039 26.8796 509.126 27.4399 509.126 28.0522ZM508.074 28.0522C508.074 27.5832 508.011 27.1517 507.886 26.7578C507.76 26.3604 507.578 26.0202 507.338 25.7373C507.102 25.4508 506.81 25.2288 506.462 25.0713C506.115 24.9102 505.721 24.8296 505.281 24.8296C504.837 24.8296 504.441 24.9102 504.094 25.0713C503.746 25.2288 503.453 25.4508 503.213 25.7373C502.977 26.0202 502.796 26.3604 502.67 26.7578C502.545 27.1517 502.482 27.5832 502.482 28.0522C502.482 28.5321 502.54 28.9707 502.654 29.3682C502.769 29.762 502.943 30.1004 503.175 30.3833C503.408 30.6662 503.698 30.8864 504.045 31.0439C504.396 31.1979 504.808 31.2749 505.281 31.2749C505.75 31.2749 506.16 31.1979 506.511 31.0439C506.862 30.8864 507.152 30.6662 507.381 30.3833C507.614 30.1004 507.787 29.762 507.902 29.3682C508.016 28.9707 508.074 28.5321 508.074 28.0522ZM510.397 26.2476H511.385V31.1406H514.07V26.2476H515.064V31.1406H515.773V33.4072H514.849V32H510.397V26.2476ZM521.689 30.1631C521.65 30.4137 521.564 30.659 521.431 30.8989C521.299 31.1388 521.125 31.3537 520.91 31.5435C520.696 31.7332 520.441 31.8854 520.148 32C519.858 32.1182 519.535 32.1772 519.181 32.1772C518.794 32.1772 518.436 32.1146 518.107 31.9893C517.781 31.8604 517.498 31.6688 517.258 31.4146C517.022 31.1567 516.836 30.8345 516.699 30.4478C516.563 30.061 516.495 29.6063 516.495 29.0835C516.495 28.7326 516.533 28.4157 516.608 28.1328C516.687 27.8464 516.791 27.5921 516.92 27.3701C517.052 27.1445 517.204 26.9512 517.376 26.79C517.548 26.6253 517.729 26.491 517.919 26.3872C518.112 26.2798 518.309 26.201 518.51 26.1509C518.71 26.0972 518.903 26.0703 519.09 26.0703C519.484 26.0703 519.843 26.1294 520.169 26.2476C520.495 26.3657 520.774 26.5465 521.007 26.79C521.243 27.0299 521.426 27.3325 521.555 27.6978C521.687 28.0594 521.754 28.4855 521.754 28.9761V29.4702H517.548C517.552 29.7495 517.591 30.0037 517.666 30.2329C517.741 30.4585 517.849 30.6519 517.989 30.813C518.128 30.9741 518.296 31.0994 518.493 31.189C518.694 31.2749 518.92 31.3179 519.17 31.3179C519.424 31.3179 519.639 31.2821 519.815 31.2104C519.99 31.1388 520.137 31.0475 520.255 30.9365C520.373 30.8255 520.468 30.702 520.54 30.5659C520.615 30.4299 520.678 30.2956 520.728 30.1631H521.689ZM520.76 28.6807C520.753 28.4014 520.71 28.1525 520.631 27.9341C520.556 27.7157 520.449 27.533 520.309 27.3862C520.173 27.2358 520.008 27.123 519.815 27.0479C519.621 26.9691 519.407 26.9297 519.17 26.9297C518.945 26.9297 518.737 26.9744 518.547 27.064C518.357 27.1499 518.191 27.2716 518.048 27.4292C517.904 27.5832 517.79 27.7676 517.704 27.9824C517.618 28.1937 517.566 28.4264 517.548 28.6807H520.76ZM523.024 26.2476H524.012V28.5679H526.698V26.2476H527.691V32H526.698V29.4272H524.012V32H523.024V26.2476ZM529.257 26.2476H530.245V29.0298L533.151 26.2476H534.445L531.744 28.7881L534.488 32H533.215L530.97 29.3896L530.245 29.9966V32H529.257V26.2476ZM535.393 26.2476H536.382V30.6572H536.403L539.228 26.2476H540.362V32H539.368V27.5903H539.346L536.527 32H535.393V26.2476Z" fill="#A6ACBE"/>
    <circle cx="493" cy="28" r="4" fill="url(#paint0_linear)"/>
    <path d="M573.199 33.6919V31.0762H573.913C573.988 30.9043 574.058 30.7306 574.123 30.5552C574.187 30.3761 574.246 30.1756 574.3 29.9536C574.357 29.728 574.409 29.4702 574.456 29.1802C574.506 28.8901 574.552 28.5464 574.595 28.1489C574.645 27.73 574.685 27.3182 574.713 26.9136C574.742 26.5054 574.764 26.124 574.778 25.7695C574.796 25.415 574.806 25.0946 574.81 24.8081C574.817 24.5216 574.823 24.2871 574.826 24.1045H579.789V31.0762H580.681V33.6919H579.692V32H574.187V33.6919H573.199ZM575.814 25.0283C575.814 25.5404 575.793 26.0506 575.75 26.5591C575.711 27.0675 575.662 27.5796 575.605 28.0952C575.566 28.5034 575.524 28.8507 575.481 29.1372C575.442 29.4201 575.399 29.6725 575.353 29.8945C575.31 30.113 575.259 30.3153 575.202 30.5015C575.148 30.6841 575.086 30.8757 575.014 31.0762H578.704V25.0283H575.814ZM581.548 26.2476H582.987L584.507 30.9634H584.529L586.07 26.2476H587.424V32H586.5V27.3701H586.479L584.959 32H584.013L582.493 27.3701H582.472V32H581.548V26.2476Z" fill="#A6ACBE"/>
    <circle cx="565" cy="28" r="4" fill="#5DF888"/>
    <path d="M29.4492 28.4492L28.1367 24.6172L26.6836 28.4492H29.4492ZM24.2109 32L27.4395 23.252H28.8398L31.9629 32H30.6855L29.7773 29.3633H26.3906L25.4297 32H24.2109ZM33.0555 25.7246H34.1337V28.7598L37.3036 25.7246H38.7157L35.7684 28.4961L38.7626 32H37.3739L34.9247 29.1523L34.1337 29.8145V32H33.0555V25.7246ZM41.4197 26.6621H39.2576V25.7246H44.6599V26.6621H42.4978V32H41.4197V26.6621ZM45.8698 25.7246H46.9479V30.5352H46.9713L50.0534 25.7246H51.2897V32H50.2057V27.1895H50.1823L47.1061 32H45.8698V25.7246ZM52.9976 25.7246H55.6695C56.4351 25.7246 57.0073 25.8672 57.3862 26.1523C57.7691 26.4375 57.9605 26.8516 57.9605 27.3945C57.9605 27.6836 57.8902 27.9277 57.7495 28.127C57.6089 28.3262 57.4234 28.502 57.1929 28.6543C57.5249 28.7793 57.7886 28.959 57.9839 29.1934C58.1792 29.4277 58.2769 29.7305 58.2769 30.1016C58.2769 30.3945 58.228 30.6582 58.1304 30.8926C58.0327 31.127 57.8843 31.3262 57.6851 31.4902C57.4859 31.6543 57.232 31.7812 56.9234 31.8711C56.6187 31.957 56.2573 32 55.8394 32H52.9976V25.7246ZM54.0757 31.1387H55.7163C56.0015 31.1387 56.2378 31.1172 56.4253 31.0742C56.6167 31.0273 56.7691 30.9609 56.8823 30.875C56.9956 30.7891 57.0757 30.6855 57.1226 30.5645C57.1695 30.4434 57.1929 30.3066 57.1929 30.1543C57.1929 30.002 57.1695 29.8652 57.1226 29.7441C57.0757 29.6191 56.9956 29.5156 56.8823 29.4336C56.7691 29.3477 56.6167 29.2832 56.4253 29.2402C56.2378 29.1934 56.0015 29.1699 55.7163 29.1699H54.0757V31.1387ZM54.0757 28.3789H55.7046C56.0679 28.3789 56.355 28.3066 56.5659 28.1621C56.7769 28.0176 56.8823 27.793 56.8823 27.4883C56.8823 27.3164 56.853 27.1738 56.7945 27.0605C56.7359 26.9434 56.6577 26.8496 56.5601 26.7793C56.4624 26.709 56.3511 26.6602 56.2261 26.6328C56.105 26.6016 55.98 26.5859 55.8511 26.5859H54.0757V28.3789ZM59.6918 25.7246H60.7699V28.2559H63.6996V25.7246H64.7836V32H63.6996V29.1934H60.7699V32H59.6918V25.7246ZM70.8743 28.8535C70.8743 28.5059 70.8352 28.1875 70.7571 27.8984C70.679 27.6055 70.5618 27.3535 70.4055 27.1426C70.2493 26.9316 70.0559 26.7676 69.8255 26.6504C69.5989 26.5293 69.3352 26.4688 69.0345 26.4688C68.7337 26.4688 68.47 26.5293 68.2434 26.6504C68.0169 26.7676 67.8255 26.9316 67.6692 27.1426C67.513 27.3535 67.3958 27.6055 67.3177 27.8984C67.2395 28.1875 67.2005 28.5059 67.2005 28.8535C67.2005 29.2051 67.2395 29.5293 67.3177 29.8262C67.3958 30.1191 67.513 30.3711 67.6692 30.582C67.8255 30.793 68.0169 30.959 68.2434 31.0801C68.47 31.1973 68.7337 31.2559 69.0345 31.2559C69.3352 31.2559 69.5989 31.1973 69.8255 31.0801C70.0559 30.959 70.2493 30.793 70.4055 30.582C70.5618 30.3711 70.679 30.1191 70.7571 29.8262C70.8352 29.5293 70.8743 29.2051 70.8743 28.8535ZM71.9524 28.8535C71.9524 29.3691 71.886 29.834 71.7532 30.248C71.6204 30.6582 71.429 31.0078 71.179 31.2969C70.929 31.5859 70.6223 31.8086 70.2591 31.9648C69.8997 32.1172 69.4915 32.1934 69.0345 32.1934C68.5774 32.1934 68.1692 32.1172 67.8098 31.9648C67.4505 31.8086 67.1458 31.5859 66.8958 31.2969C66.6458 31.0078 66.4544 30.6582 66.3216 30.248C66.1888 29.834 66.1223 29.3691 66.1223 28.8535C66.1223 28.3457 66.1888 27.8867 66.3216 27.4766C66.4544 27.0664 66.6458 26.7168 66.8958 26.4277C67.1458 26.1387 67.4505 25.918 67.8098 25.7656C68.1692 25.6094 68.5774 25.5312 69.0345 25.5312C69.4915 25.5312 69.8997 25.6094 70.2591 25.7656C70.6223 25.918 70.929 26.1387 71.179 26.4277C71.429 26.7168 71.6204 27.0664 71.7532 27.4766C71.886 27.8867 71.9524 28.3457 71.9524 28.8535ZM78.2248 29.791C78.2091 29.9434 78.1779 30.1094 78.131 30.2891C78.088 30.4688 78.0236 30.6484 77.9377 30.8281C77.8517 31.0039 77.7404 31.1738 77.6037 31.3379C77.4709 31.502 77.3068 31.6484 77.1115 31.7773C76.9201 31.9023 76.6935 32.002 76.4318 32.0762C76.1701 32.1543 75.8713 32.1934 75.5353 32.1934C75.3517 32.1934 75.1584 32.1699 74.9552 32.123C74.7521 32.0801 74.5529 32.0059 74.3576 31.9004C74.1662 31.7949 73.9826 31.6602 73.8068 31.4961C73.6349 31.3281 73.4826 31.1211 73.3498 30.875C73.2209 30.6289 73.1173 30.3438 73.0392 30.0195C72.9611 29.6914 72.922 29.3164 72.922 28.8945C72.922 28.375 72.9963 27.9082 73.1447 27.4941C73.2931 27.0762 73.4904 26.7227 73.7365 26.4336C73.9865 26.1445 74.2755 25.9219 74.6037 25.7656C74.9357 25.6094 75.2834 25.5312 75.6466 25.5312C75.9748 25.5312 76.2638 25.5664 76.5138 25.6367C76.7677 25.707 76.9884 25.8008 77.1759 25.918C77.3634 26.0352 77.5216 26.1719 77.6505 26.3281C77.7795 26.4805 77.883 26.6426 77.9611 26.8145C78.0431 26.9824 78.1037 27.1543 78.1427 27.3301C78.1857 27.5059 78.213 27.6738 78.2248 27.834H77.217C77.1623 27.4082 77.0138 27.0742 76.7716 26.832C76.5334 26.5898 76.1974 26.4688 75.7638 26.4688C75.467 26.4688 75.2072 26.5293 74.9845 26.6504C74.7658 26.7715 74.5822 26.9414 74.4338 27.1602C74.2892 27.375 74.1798 27.6367 74.1056 27.9453C74.0353 28.25 74.0002 28.5859 74.0002 28.9531C74.0002 29.3672 74.0392 29.7246 74.1173 30.0254C74.1955 30.3223 74.3068 30.5684 74.4513 30.7637C74.5959 30.9551 74.7716 31.0977 74.9787 31.1914C75.1896 31.2812 75.4279 31.3262 75.6935 31.3262C75.881 31.3262 76.0588 31.293 76.2267 31.2266C76.3947 31.1562 76.5451 31.0566 76.6779 30.9277C76.8107 30.7949 76.924 30.6328 77.0177 30.4414C77.1115 30.25 77.1779 30.0332 77.217 29.791H78.2248ZM81.0811 26.6621H78.919V25.7246H84.3213V26.6621H82.1592V32H81.0811V26.6621ZM85.5312 25.7246H86.6093V28.0859H88.3495C88.6933 28.0859 88.9999 28.1328 89.2695 28.2266C89.539 28.3164 89.7675 28.4473 89.955 28.6191C90.1425 28.7871 90.2851 28.9922 90.3827 29.2344C90.4843 29.4727 90.5351 29.7422 90.5351 30.043C90.5351 30.3477 90.4843 30.6211 90.3827 30.8633C90.2851 31.1016 90.1425 31.3066 89.955 31.4785C89.7675 31.6465 89.539 31.7754 89.2695 31.8652C88.9999 31.9551 88.6933 32 88.3495 32H85.5312V25.7246ZM86.6093 31.1387H88.1386C88.3261 31.1387 88.4999 31.1191 88.6601 31.0801C88.8241 31.041 88.9648 30.9785 89.082 30.8926C89.1991 30.8027 89.2909 30.6895 89.3573 30.5527C89.4238 30.4121 89.457 30.2422 89.457 30.043C89.457 29.8477 89.4218 29.6816 89.3515 29.5449C89.2851 29.4082 89.1894 29.2969 89.0644 29.2109C88.9433 29.1211 88.7948 29.0566 88.6191 29.0176C88.4472 28.9746 88.2538 28.9531 88.039 28.9531H86.6093V31.1387ZM94.4548 25.7246H95.6384L97.3083 30.834H97.3317L99.0016 25.7246H100.185L97.7887 32.252C97.6677 32.5801 97.5563 32.8652 97.4548 33.1074C97.3532 33.3496 97.2536 33.5547 97.1559 33.7227C97.0583 33.8945 96.9587 34.0332 96.8571 34.1387C96.7595 34.2441 96.6501 34.3262 96.529 34.3848C96.4118 34.4473 96.279 34.4883 96.1305 34.5078C95.986 34.5312 95.818 34.543 95.6266 34.543C95.4704 34.543 95.3473 34.5352 95.2575 34.5195C95.1716 34.5078 95.0954 34.4922 95.029 34.4727V33.5C95.0993 33.5234 95.1911 33.5469 95.3044 33.5703C95.4177 33.5938 95.5368 33.6055 95.6618 33.6055C95.861 33.6055 96.0212 33.5566 96.1423 33.459C96.2673 33.3652 96.363 33.2305 96.4294 33.0547L96.7809 32.1699L94.4548 25.7246ZM105.01 29.4688C104.776 29.5312 104.518 29.584 104.237 29.627C103.96 29.6699 103.7 29.6914 103.458 29.6914C102.618 29.6914 101.995 29.5312 101.588 29.2109C101.182 28.8867 100.979 28.377 100.979 27.6816V25.7246H102.057V27.4648C102.057 27.6992 102.085 27.9023 102.139 28.0742C102.198 28.2461 102.292 28.3887 102.42 28.502C102.549 28.6113 102.719 28.6934 102.93 28.748C103.141 28.8027 103.401 28.8301 103.71 28.8301C103.792 28.8301 103.889 28.8223 104.003 28.8066C104.12 28.791 104.239 28.7715 104.36 28.748C104.481 28.7246 104.598 28.6992 104.711 28.6719C104.829 28.6406 104.928 28.6094 105.01 28.5781V25.7246H106.094V32H105.01V29.4688ZM107.808 25.7246H108.886V30.5352H108.91L111.992 25.7246H113.228V32H112.144V27.1895H112.121L109.044 32H107.808V25.7246ZM116.606 26.6621H114.444V25.7246H119.846V26.6621H117.684V32H116.606V26.6621ZM126.4 29.9961C126.357 30.2695 126.263 30.5371 126.118 30.7988C125.974 31.0605 125.784 31.2949 125.55 31.502C125.316 31.709 125.038 31.875 124.718 32C124.402 32.1289 124.05 32.1934 123.663 32.1934C123.241 32.1934 122.851 32.125 122.491 31.9883C122.136 31.8477 121.827 31.6387 121.566 31.3613C121.308 31.0801 121.105 30.7285 120.956 30.3066C120.808 29.8848 120.734 29.3887 120.734 28.8184C120.734 28.4355 120.775 28.0898 120.857 27.7812C120.943 27.4688 121.056 27.1914 121.196 26.9492C121.341 26.7031 121.507 26.4922 121.695 26.3164C121.882 26.1367 122.079 25.9902 122.286 25.877C122.497 25.7598 122.712 25.6738 122.931 25.6191C123.15 25.5605 123.361 25.5312 123.564 25.5312C123.993 25.5312 124.386 25.5957 124.741 25.7246C125.097 25.8535 125.402 26.0508 125.655 26.3164C125.913 26.5781 126.113 26.9082 126.253 27.3066C126.398 27.7012 126.47 28.166 126.47 28.7012V29.2402H121.882C121.886 29.5449 121.929 29.8223 122.011 30.0723C122.093 30.3184 122.21 30.5293 122.363 30.7051C122.515 30.8809 122.698 31.0176 122.913 31.1152C123.132 31.209 123.378 31.2559 123.652 31.2559C123.929 31.2559 124.163 31.2168 124.355 31.1387C124.546 31.0605 124.706 30.9609 124.835 30.8398C124.964 30.7188 125.068 30.584 125.146 30.4355C125.228 30.2871 125.296 30.1406 125.351 29.9961H126.4ZM125.386 28.3789C125.378 28.0742 125.331 27.8027 125.245 27.5645C125.163 27.3262 125.046 27.127 124.894 26.9668C124.745 26.8027 124.566 26.6797 124.355 26.5977C124.144 26.5117 123.909 26.4688 123.652 26.4688C123.405 26.4688 123.179 26.5176 122.972 26.6152C122.765 26.709 122.583 26.8418 122.427 27.0137C122.271 27.1816 122.146 27.3828 122.052 27.6172C121.958 27.8477 121.902 28.1016 121.882 28.3789H125.386ZM132.08 26.6621H129.678L129.631 28.168C129.607 28.9297 129.549 29.5664 129.455 30.0781C129.361 30.5859 129.232 30.9941 129.068 31.3027C128.908 31.6113 128.713 31.8301 128.482 31.959C128.252 32.0879 127.988 32.1523 127.691 32.1523C127.582 32.1523 127.486 32.1348 127.404 32.0996C127.326 32.0684 127.266 32.0352 127.223 32V31.0508C127.375 31.1094 127.51 31.1387 127.627 31.1387C127.709 31.1387 127.787 31.125 127.861 31.0977C127.94 31.0703 128.012 31.0176 128.078 30.9395C128.149 30.8613 128.213 30.752 128.272 30.6113C128.33 30.4668 128.381 30.2793 128.424 30.0488C128.471 29.8184 128.508 29.5391 128.535 29.2109C128.566 28.8828 128.588 28.4922 128.6 28.0391L128.652 25.7246H133.158V32H132.08V26.6621ZM140.21 29.9961C140.167 30.2695 140.073 30.5371 139.929 30.7988C139.784 31.0605 139.595 31.2949 139.36 31.502C139.126 31.709 138.849 31.875 138.528 32C138.212 32.1289 137.86 32.1934 137.474 32.1934C137.052 32.1934 136.661 32.125 136.302 31.9883C135.946 31.8477 135.638 31.6387 135.376 31.3613C135.118 31.0801 134.915 30.7285 134.767 30.3066C134.618 29.8848 134.544 29.3887 134.544 28.8184C134.544 28.4355 134.585 28.0898 134.667 27.7812C134.753 27.4688 134.866 27.1914 135.007 26.9492C135.151 26.7031 135.317 26.4922 135.505 26.3164C135.692 26.1367 135.89 25.9902 136.097 25.877C136.308 25.7598 136.522 25.6738 136.741 25.6191C136.96 25.5605 137.171 25.5312 137.374 25.5312C137.804 25.5312 138.196 25.5957 138.552 25.7246C138.907 25.8535 139.212 26.0508 139.466 26.3164C139.724 26.5781 139.923 26.9082 140.063 27.3066C140.208 27.7012 140.28 28.166 140.28 28.7012V29.2402H135.692C135.696 29.5449 135.739 29.8223 135.821 30.0723C135.903 30.3184 136.02 30.5293 136.173 30.7051C136.325 30.8809 136.509 31.0176 136.724 31.1152C136.942 31.209 137.188 31.2559 137.462 31.2559C137.739 31.2559 137.974 31.2168 138.165 31.1387C138.356 31.0605 138.517 30.9609 138.645 30.8398C138.774 30.7188 138.878 30.584 138.956 30.4355C139.038 30.2871 139.106 30.1406 139.161 29.9961H140.21ZM139.196 28.3789C139.188 28.0742 139.142 27.8027 139.056 27.5645C138.974 27.3262 138.856 27.127 138.704 26.9668C138.556 26.8027 138.376 26.6797 138.165 26.5977C137.954 26.5117 137.72 26.4688 137.462 26.4688C137.216 26.4688 136.989 26.5176 136.782 26.6152C136.575 26.709 136.394 26.8418 136.237 27.0137C136.081 27.1816 135.956 27.3828 135.862 27.6172C135.769 27.8477 135.712 28.1016 135.692 28.3789H139.196ZM143.359 23.2871C143.41 23.5371 143.515 23.7363 143.676 23.8848C143.836 24.0293 144.072 24.1016 144.385 24.1016C144.701 24.1016 144.939 24.0312 145.099 23.8906C145.26 23.7461 145.363 23.5449 145.41 23.2871H146.412C146.408 23.5215 146.357 23.7344 146.26 23.9258C146.162 24.1133 146.023 24.2734 145.844 24.4062C145.668 24.5391 145.455 24.6426 145.205 24.7168C144.959 24.7871 144.685 24.8223 144.385 24.8223C144.084 24.8223 143.81 24.7871 143.564 24.7168C143.318 24.6465 143.107 24.5449 142.931 24.4121C142.756 24.2793 142.617 24.1191 142.515 23.9316C142.418 23.7402 142.367 23.5254 142.363 23.2871H143.359ZM141.666 25.7246H142.744V30.5352H142.767L145.849 25.7246H147.086V32H146.002V27.1895H145.978L142.902 32H141.666V25.7246ZM156.261 26.6621H153.332V32H152.254V25.7246H157.345V32H156.261V26.6621ZM163.436 28.8535C163.436 28.5059 163.397 28.1875 163.319 27.8984C163.241 27.6055 163.124 27.3535 162.967 27.1426C162.811 26.9316 162.618 26.7676 162.387 26.6504C162.161 26.5293 161.897 26.4688 161.596 26.4688C161.295 26.4688 161.032 26.5293 160.805 26.6504C160.579 26.7676 160.387 26.9316 160.231 27.1426C160.075 27.3535 159.958 27.6055 159.879 27.8984C159.801 28.1875 159.762 28.5059 159.762 28.8535C159.762 29.2051 159.801 29.5293 159.879 29.8262C159.958 30.1191 160.075 30.3711 160.231 30.582C160.387 30.793 160.579 30.959 160.805 31.0801C161.032 31.1973 161.295 31.2559 161.596 31.2559C161.897 31.2559 162.161 31.1973 162.387 31.0801C162.618 30.959 162.811 30.793 162.967 30.582C163.124 30.3711 163.241 30.1191 163.319 29.8262C163.397 29.5293 163.436 29.2051 163.436 28.8535ZM164.514 28.8535C164.514 29.3691 164.448 29.834 164.315 30.248C164.182 30.6582 163.991 31.0078 163.741 31.2969C163.491 31.5859 163.184 31.8086 162.821 31.9648C162.461 32.1172 162.053 32.1934 161.596 32.1934C161.139 32.1934 160.731 32.1172 160.372 31.9648C160.012 31.8086 159.708 31.5859 159.458 31.2969C159.208 31.0078 159.016 30.6582 158.883 30.248C158.75 29.834 158.684 29.3691 158.684 28.8535C158.684 28.3457 158.75 27.8867 158.883 27.4766C159.016 27.0664 159.208 26.7168 159.458 26.4277C159.708 26.1387 160.012 25.918 160.372 25.7656C160.731 25.6094 161.139 25.5312 161.596 25.5312C162.053 25.5312 162.461 25.6094 162.821 25.7656C163.184 25.918 163.491 26.1387 163.741 26.4277C163.991 26.7168 164.182 27.0664 164.315 27.4766C164.448 27.8867 164.514 28.3457 164.514 28.8535ZM173.696 28.8535C173.696 28.5059 173.656 28.1875 173.578 27.8984C173.5 27.6055 173.383 27.3535 173.227 27.1426C173.071 26.9316 172.877 26.7676 172.647 26.6504C172.42 26.5293 172.156 26.4688 171.856 26.4688C171.555 26.4688 171.291 26.5293 171.065 26.6504C170.838 26.7676 170.647 26.9316 170.49 27.1426C170.334 27.3535 170.217 27.6055 170.139 27.8984C170.061 28.1875 170.022 28.5059 170.022 28.8535C170.022 29.2051 170.061 29.5293 170.139 29.8262C170.217 30.1191 170.334 30.3711 170.49 30.582C170.647 30.793 170.838 30.959 171.065 31.0801C171.291 31.1973 171.555 31.2559 171.856 31.2559C172.156 31.2559 172.42 31.1973 172.647 31.0801C172.877 30.959 173.071 30.793 173.227 30.582C173.383 30.3711 173.5 30.1191 173.578 29.8262C173.656 29.5293 173.696 29.2051 173.696 28.8535ZM174.774 28.8535C174.774 29.3691 174.707 29.834 174.574 30.248C174.442 30.6582 174.25 31.0078 174 31.2969C173.75 31.5859 173.444 31.8086 173.08 31.9648C172.721 32.1172 172.313 32.1934 171.856 32.1934C171.399 32.1934 170.99 32.1172 170.631 31.9648C170.272 31.8086 169.967 31.5859 169.717 31.2969C169.467 31.0078 169.276 30.6582 169.143 30.248C169.01 29.834 168.944 29.3691 168.944 28.8535C168.944 28.3457 169.01 27.8867 169.143 27.4766C169.276 27.0664 169.467 26.7168 169.717 26.4277C169.967 26.1387 170.272 25.918 170.631 25.7656C170.99 25.6094 171.399 25.5312 171.856 25.5312C172.313 25.5312 172.721 25.6094 173.08 25.7656C173.444 25.918 173.75 26.1387 174 26.4277C174.25 26.7168 174.442 27.0664 174.574 27.4766C174.707 27.8867 174.774 28.3457 174.774 28.8535ZM176.112 25.7246H177.191V31.0625H180.12V25.7246H181.204V31.0625H181.978V33.5352H180.97V32H176.112V25.7246ZM188.432 29.9961C188.389 30.2695 188.295 30.5371 188.15 30.7988C188.006 31.0605 187.816 31.2949 187.582 31.502C187.348 31.709 187.07 31.875 186.75 32C186.434 32.1289 186.082 32.1934 185.695 32.1934C185.273 32.1934 184.883 32.125 184.523 31.9883C184.168 31.8477 183.859 31.6387 183.598 31.3613C183.34 31.0801 183.137 30.7285 182.988 30.3066C182.84 29.8848 182.766 29.3887 182.766 28.8184C182.766 28.4355 182.807 28.0898 182.889 27.7812C182.975 27.4688 183.088 27.1914 183.229 26.9492C183.373 26.7031 183.539 26.4922 183.727 26.3164C183.914 26.1367 184.111 25.9902 184.318 25.877C184.529 25.7598 184.744 25.6738 184.963 25.6191C185.182 25.5605 185.393 25.5312 185.596 25.5312C186.025 25.5312 186.418 25.5957 186.773 25.7246C187.129 25.8535 187.434 26.0508 187.688 26.3164C187.945 26.5781 188.145 26.9082 188.285 27.3066C188.43 27.7012 188.502 28.166 188.502 28.7012V29.2402H183.914C183.918 29.5449 183.961 29.8223 184.043 30.0723C184.125 30.3184 184.242 30.5293 184.395 30.7051C184.547 30.8809 184.73 31.0176 184.945 31.1152C185.164 31.209 185.41 31.2559 185.684 31.2559C185.961 31.2559 186.195 31.2168 186.387 31.1387C186.578 31.0605 186.738 30.9609 186.867 30.8398C186.996 30.7188 187.1 30.584 187.178 30.4355C187.26 30.2871 187.328 30.1406 187.383 29.9961H188.432ZM187.418 28.3789C187.41 28.0742 187.363 27.8027 187.277 27.5645C187.195 27.3262 187.078 27.127 186.926 26.9668C186.777 26.8027 186.598 26.6797 186.387 26.5977C186.176 26.5117 185.941 26.4688 185.684 26.4688C185.438 26.4688 185.211 26.5176 185.004 26.6152C184.797 26.709 184.615 26.8418 184.459 27.0137C184.303 27.1816 184.178 27.3828 184.084 27.6172C183.99 27.8477 183.934 28.1016 183.914 28.3789H187.418ZM189.888 25.7246H190.966V28.2559H193.895V25.7246H194.979V32H193.895V29.1934H190.966V32H189.888V25.7246ZM196.687 25.7246H197.765V28.7598L200.935 25.7246H202.347L199.4 28.4961L202.394 32H201.006L198.556 29.1523L197.765 29.8145V32H196.687V25.7246ZM203.37 27.6055C203.381 27.2227 203.454 26.9004 203.587 26.6387C203.719 26.373 203.899 26.1582 204.126 25.9941C204.352 25.8301 204.62 25.7129 204.928 25.6426C205.241 25.5684 205.581 25.5312 205.948 25.5312C206.253 25.5312 206.548 25.5625 206.833 25.625C207.122 25.6875 207.378 25.7891 207.6 25.9297C207.823 26.0664 208.001 26.2461 208.133 26.4688C208.27 26.6875 208.339 26.9551 208.339 27.2715V30.9219C208.339 31.0234 208.366 31.1113 208.421 31.1855C208.475 31.2559 208.563 31.291 208.684 31.291C208.739 31.291 208.796 31.2871 208.854 31.2793C208.913 31.2676 208.973 31.2559 209.036 31.2441V31.9883C208.946 32.0117 208.856 32.0332 208.766 32.0527C208.68 32.0723 208.577 32.082 208.456 32.082C208.268 32.082 208.106 32.0664 207.969 32.0352C207.837 32.0039 207.723 31.9531 207.63 31.8828C207.54 31.8086 207.469 31.7148 207.419 31.6016C207.368 31.4844 207.335 31.3418 207.319 31.1738C207.186 31.3184 207.046 31.4531 206.897 31.5781C206.749 31.6992 206.583 31.8066 206.399 31.9004C206.215 31.9902 206.01 32.0605 205.784 32.1113C205.557 32.166 205.301 32.1934 205.016 32.1934C204.774 32.1934 204.538 32.1543 204.307 32.0762C204.081 31.998 203.876 31.8828 203.692 31.7305C203.512 31.5781 203.368 31.3906 203.258 31.168C203.149 30.9414 203.094 30.6797 203.094 30.3828C203.094 30.0586 203.149 29.7793 203.258 29.5449C203.368 29.3066 203.51 29.1094 203.686 28.9531C203.862 28.793 204.063 28.6699 204.29 28.584C204.516 28.498 204.747 28.4414 204.981 28.4141L206.745 28.1973C206.913 28.1777 207.044 28.1133 207.137 28.0039C207.235 27.8906 207.284 27.7109 207.284 27.4648C207.284 27.0859 207.159 26.8145 206.909 26.6504C206.663 26.4824 206.307 26.3984 205.842 26.3984C205.366 26.3984 205.01 26.5 204.776 26.7031C204.542 26.9023 204.409 27.2031 204.378 27.6055H203.37ZM207.26 28.8066C207.174 28.8691 207.067 28.9219 206.938 28.9648C206.813 29.0039 206.674 29.0371 206.522 29.0645C206.37 29.0918 206.208 29.1172 206.036 29.1406C205.864 29.1602 205.692 29.1816 205.52 29.2051C205.325 29.2324 205.145 29.2715 204.981 29.3223C204.817 29.373 204.674 29.4395 204.553 29.5215C204.432 29.6035 204.339 29.7031 204.272 29.8203C204.206 29.9336 204.173 30.0684 204.173 30.2246C204.173 30.4043 204.2 30.5625 204.255 30.6992C204.313 30.8359 204.391 30.9512 204.489 31.0449C204.59 31.1387 204.712 31.209 204.852 31.2559C204.993 31.3027 205.147 31.3262 205.315 31.3262C205.421 31.3262 205.542 31.3145 205.678 31.291C205.815 31.2637 205.956 31.2246 206.1 31.1738C206.245 31.123 206.385 31.0586 206.522 30.9805C206.663 30.8984 206.788 30.8008 206.897 30.6875C207.006 30.5742 207.094 30.4453 207.161 30.3008C207.227 30.1562 207.26 29.9941 207.26 29.8145V28.8066ZM210.181 25.7246H211.751L213.41 30.8691H213.433L215.115 25.7246H216.591V32H215.584V26.9492H215.56L213.902 32H212.871L211.212 26.9492H211.189V32H210.181V25.7246ZM221.753 25.7246H222.831V30.5352H222.855L225.937 25.7246H227.173V32H226.089V27.1895H226.066L222.99 32H221.753V25.7246ZM236.349 26.6621H233.419V32H232.341V25.7246H237.433V32H236.349V26.6621ZM239.082 25.7246H240.16V26.5859H240.184C240.254 26.4414 240.342 26.3047 240.447 26.1758C240.557 26.0469 240.685 25.9355 240.834 25.8418C240.986 25.7441 241.16 25.668 241.355 25.6133C241.555 25.5586 241.781 25.5312 242.035 25.5312C242.371 25.5312 242.693 25.5957 243.002 25.7246C243.31 25.8535 243.584 26.0469 243.822 26.3047C244.06 26.5625 244.25 26.8867 244.391 27.2773C244.531 27.6641 244.601 28.1152 244.601 28.6309C244.601 29.2754 244.535 29.8242 244.402 30.2773C244.273 30.7266 244.088 31.0938 243.846 31.3789C243.607 31.6641 243.318 31.8711 242.978 32C242.639 32.1289 242.26 32.1934 241.842 32.1934C241.635 32.1934 241.441 32.166 241.262 32.1113C241.082 32.0566 240.92 31.9863 240.775 31.9004C240.635 31.8105 240.514 31.7129 240.412 31.6074C240.31 31.498 240.234 31.3926 240.184 31.291H240.16V34.4727H239.082V25.7246ZM240.137 28.8945C240.137 29.2344 240.17 29.5488 240.236 29.8379C240.303 30.123 240.404 30.3711 240.541 30.582C240.682 30.793 240.855 30.959 241.062 31.0801C241.273 31.1973 241.521 31.2559 241.807 31.2559C242.103 31.2559 242.359 31.1973 242.574 31.0801C242.793 30.959 242.973 30.793 243.113 30.582C243.254 30.3711 243.357 30.123 243.424 29.8379C243.49 29.5488 243.523 29.2344 243.523 28.8945C243.523 28.5391 243.49 28.2129 243.424 27.916C243.357 27.6191 243.254 27.3633 243.113 27.1484C242.973 26.9336 242.793 26.7676 242.574 26.6504C242.359 26.5293 242.103 26.4688 241.807 26.4688C241.521 26.4688 241.273 26.5293 241.062 26.6504C240.855 26.7676 240.682 26.9336 240.541 27.1484C240.404 27.3633 240.303 27.6191 240.236 27.916C240.17 28.2129 240.137 28.5391 240.137 28.8945ZM250.323 28.8535C250.323 28.5059 250.284 28.1875 250.206 27.8984C250.128 27.6055 250.011 27.3535 249.854 27.1426C249.698 26.9316 249.505 26.7676 249.274 26.6504C249.048 26.5293 248.784 26.4688 248.483 26.4688C248.182 26.4688 247.919 26.5293 247.692 26.6504C247.466 26.7676 247.274 26.9316 247.118 27.1426C246.962 27.3535 246.845 27.6055 246.766 27.8984C246.688 28.1875 246.649 28.5059 246.649 28.8535C246.649 29.2051 246.688 29.5293 246.766 29.8262C246.845 30.1191 246.962 30.3711 247.118 30.582C247.274 30.793 247.466 30.959 247.692 31.0801C247.919 31.1973 248.182 31.2559 248.483 31.2559C248.784 31.2559 249.048 31.1973 249.274 31.0801C249.505 30.959 249.698 30.793 249.854 30.582C250.011 30.3711 250.128 30.1191 250.206 29.8262C250.284 29.5293 250.323 29.2051 250.323 28.8535ZM251.401 28.8535C251.401 29.3691 251.335 29.834 251.202 30.248C251.069 30.6582 250.878 31.0078 250.628 31.2969C250.378 31.5859 250.071 31.8086 249.708 31.9648C249.348 32.1172 248.94 32.1934 248.483 32.1934C248.026 32.1934 247.618 32.1172 247.259 31.9648C246.899 31.8086 246.595 31.5859 246.345 31.2969C246.095 31.0078 245.903 30.6582 245.77 30.248C245.637 29.834 245.571 29.3691 245.571 28.8535C245.571 28.3457 245.637 27.8867 245.77 27.4766C245.903 27.0664 246.095 26.7168 246.345 26.4277C246.595 26.1387 246.899 25.918 247.259 25.7656C247.618 25.6094 248.026 25.5312 248.483 25.5312C248.94 25.5312 249.348 25.6094 249.708 25.7656C250.071 25.918 250.378 26.1387 250.628 26.4277C250.878 26.7168 251.069 27.0664 251.202 27.4766C251.335 27.8867 251.401 28.3457 251.401 28.8535ZM252.74 25.7246H255.412C256.177 25.7246 256.75 25.8672 257.129 26.1523C257.511 26.4375 257.703 26.8516 257.703 27.3945C257.703 27.6836 257.633 27.9277 257.492 28.127C257.351 28.3262 257.166 28.502 256.935 28.6543C257.267 28.7793 257.531 28.959 257.726 29.1934C257.922 29.4277 258.019 29.7305 258.019 30.1016C258.019 30.3945 257.97 30.6582 257.873 30.8926C257.775 31.127 257.627 31.3262 257.427 31.4902C257.228 31.6543 256.974 31.7812 256.666 31.8711C256.361 31.957 256 32 255.582 32H252.74V25.7246ZM253.818 31.1387H255.459C255.744 31.1387 255.98 31.1172 256.168 31.0742C256.359 31.0273 256.511 30.9609 256.625 30.875C256.738 30.7891 256.818 30.6855 256.865 30.5645C256.912 30.4434 256.935 30.3066 256.935 30.1543C256.935 30.002 256.912 29.8652 256.865 29.7441C256.818 29.6191 256.738 29.5156 256.625 29.4336C256.511 29.3477 256.359 29.2832 256.168 29.2402C255.98 29.1934 255.744 29.1699 255.459 29.1699H253.818V31.1387ZM253.818 28.3789H255.447C255.81 28.3789 256.097 28.3066 256.308 28.1621C256.519 28.0176 256.625 27.793 256.625 27.4883C256.625 27.3164 256.595 27.1738 256.537 27.0605C256.478 26.9434 256.4 26.8496 256.302 26.7793C256.205 26.709 256.093 26.6602 255.968 26.6328C255.847 26.6016 255.722 26.5859 255.593 26.5859H253.818V28.3789ZM264.778 29.9961C264.735 30.2695 264.641 30.5371 264.497 30.7988C264.352 31.0605 264.163 31.2949 263.928 31.502C263.694 31.709 263.417 31.875 263.096 32C262.78 32.1289 262.428 32.1934 262.042 32.1934C261.62 32.1934 261.229 32.125 260.87 31.9883C260.514 31.8477 260.206 31.6387 259.944 31.3613C259.686 31.0801 259.483 30.7285 259.335 30.3066C259.186 29.8848 259.112 29.3887 259.112 28.8184C259.112 28.4355 259.153 28.0898 259.235 27.7812C259.321 27.4688 259.434 27.1914 259.575 26.9492C259.719 26.7031 259.885 26.4922 260.073 26.3164C260.26 26.1367 260.458 25.9902 260.665 25.877C260.876 25.7598 261.09 25.6738 261.309 25.6191C261.528 25.5605 261.739 25.5312 261.942 25.5312C262.372 25.5312 262.764 25.5957 263.12 25.7246C263.475 25.8535 263.78 26.0508 264.034 26.3164C264.292 26.5781 264.491 26.9082 264.631 27.3066C264.776 27.7012 264.848 28.166 264.848 28.7012V29.2402H260.26C260.264 29.5449 260.307 29.8223 260.389 30.0723C260.471 30.3184 260.588 30.5293 260.741 30.7051C260.893 30.8809 261.077 31.0176 261.292 31.1152C261.51 31.209 261.756 31.2559 262.03 31.2559C262.307 31.2559 262.542 31.2168 262.733 31.1387C262.924 31.0605 263.085 30.9609 263.213 30.8398C263.342 30.7188 263.446 30.584 263.524 30.4355C263.606 30.2871 263.674 30.1406 263.729 29.9961H264.778ZM263.764 28.3789C263.756 28.0742 263.71 27.8027 263.624 27.5645C263.542 27.3262 263.424 27.127 263.272 26.9668C263.124 26.8027 262.944 26.6797 262.733 26.5977C262.522 26.5117 262.288 26.4688 262.03 26.4688C261.784 26.4688 261.557 26.5176 261.35 26.6152C261.143 26.709 260.961 26.8418 260.805 27.0137C260.649 27.1816 260.524 27.3828 260.43 27.6172C260.336 27.8477 260.28 28.1016 260.26 28.3789H263.764ZM266.175 25.7246H267.253V26.5859H267.277C267.347 26.4414 267.435 26.3047 267.54 26.1758C267.65 26.0469 267.779 25.9355 267.927 25.8418C268.08 25.7441 268.253 25.668 268.449 25.6133C268.648 25.5586 268.874 25.5312 269.128 25.5312C269.464 25.5312 269.787 25.5957 270.095 25.7246C270.404 25.8535 270.677 26.0469 270.915 26.3047C271.154 26.5625 271.343 26.8867 271.484 27.2773C271.624 27.6641 271.695 28.1152 271.695 28.6309C271.695 29.2754 271.628 29.8242 271.496 30.2773C271.367 30.7266 271.181 31.0938 270.939 31.3789C270.701 31.6641 270.412 31.8711 270.072 32C269.732 32.1289 269.353 32.1934 268.935 32.1934C268.728 32.1934 268.535 32.166 268.355 32.1113C268.175 32.0566 268.013 31.9863 267.869 31.9004C267.728 31.8105 267.607 31.7129 267.505 31.6074C267.404 31.498 267.328 31.3926 267.277 31.291H267.253V34.4727H266.175V25.7246ZM267.23 28.8945C267.23 29.2344 267.263 29.5488 267.33 29.8379C267.396 30.123 267.497 30.3711 267.634 30.582C267.775 30.793 267.949 30.959 268.156 31.0801C268.367 31.1973 268.615 31.2559 268.9 31.2559C269.197 31.2559 269.453 31.1973 269.667 31.0801C269.886 30.959 270.066 30.793 270.206 30.582C270.347 30.3711 270.451 30.123 270.517 29.8379C270.583 29.5488 270.617 29.2344 270.617 28.8945C270.617 28.5391 270.583 28.2129 270.517 27.916C270.451 27.6191 270.347 27.3633 270.206 27.1484C270.066 26.9336 269.886 26.7676 269.667 26.6504C269.453 26.5293 269.197 26.4688 268.9 26.4688C268.615 26.4688 268.367 26.5293 268.156 26.6504C267.949 26.7676 267.775 26.9336 267.634 27.1484C267.497 27.3633 267.396 27.6191 267.33 27.916C267.263 28.2129 267.23 28.5391 267.23 28.8945ZM273.034 25.7246H274.112V28.7598L277.282 25.7246H278.694L275.746 28.4961L278.741 32H277.352L274.903 29.1523L274.112 29.8145V32H273.034V25.7246ZM279.716 27.6055C279.728 27.2227 279.8 26.9004 279.933 26.6387C280.066 26.373 280.245 26.1582 280.472 25.9941C280.698 25.8301 280.966 25.7129 281.275 25.6426C281.587 25.5684 281.927 25.5312 282.294 25.5312C282.599 25.5312 282.894 25.5625 283.179 25.625C283.468 25.6875 283.724 25.7891 283.946 25.9297C284.169 26.0664 284.347 26.2461 284.48 26.4688C284.616 26.6875 284.685 26.9551 284.685 27.2715V30.9219C284.685 31.0234 284.712 31.1113 284.767 31.1855C284.821 31.2559 284.909 31.291 285.03 31.291C285.085 31.291 285.142 31.2871 285.2 31.2793C285.259 31.2676 285.32 31.2559 285.382 31.2441V31.9883C285.292 32.0117 285.202 32.0332 285.113 32.0527C285.027 32.0723 284.923 32.082 284.802 32.082C284.614 32.082 284.452 32.0664 284.316 32.0352C284.183 32.0039 284.07 31.9531 283.976 31.8828C283.886 31.8086 283.816 31.7148 283.765 31.6016C283.714 31.4844 283.681 31.3418 283.665 31.1738C283.532 31.3184 283.392 31.4531 283.243 31.5781C283.095 31.6992 282.929 31.8066 282.745 31.9004C282.562 31.9902 282.357 32.0605 282.13 32.1113C281.904 32.166 281.648 32.1934 281.363 32.1934C281.12 32.1934 280.884 32.1543 280.654 32.0762C280.427 31.998 280.222 31.8828 280.038 31.7305C279.859 31.5781 279.714 31.3906 279.605 31.168C279.495 30.9414 279.441 30.6797 279.441 30.3828C279.441 30.0586 279.495 29.7793 279.605 29.5449C279.714 29.3066 279.857 29.1094 280.032 28.9531C280.208 28.793 280.409 28.6699 280.636 28.584C280.863 28.498 281.093 28.4414 281.327 28.4141L283.091 28.1973C283.259 28.1777 283.39 28.1133 283.484 28.0039C283.581 27.8906 283.63 27.7109 283.63 27.4648C283.63 27.0859 283.505 26.8145 283.255 26.6504C283.009 26.4824 282.654 26.3984 282.189 26.3984C281.712 26.3984 281.357 26.5 281.122 26.7031C280.888 26.9023 280.755 27.2031 280.724 27.6055H279.716ZM283.607 28.8066C283.521 28.8691 283.413 28.9219 283.284 28.9648C283.159 29.0039 283.021 29.0371 282.868 29.0645C282.716 29.0918 282.554 29.1172 282.382 29.1406C282.21 29.1602 282.038 29.1816 281.866 29.2051C281.671 29.2324 281.491 29.2715 281.327 29.3223C281.163 29.373 281.021 29.4395 280.9 29.5215C280.779 29.6035 280.685 29.7031 280.618 29.8203C280.552 29.9336 280.519 30.0684 280.519 30.2246C280.519 30.4043 280.546 30.5625 280.601 30.6992C280.659 30.8359 280.738 30.9512 280.835 31.0449C280.937 31.1387 281.058 31.209 281.198 31.2559C281.339 31.3027 281.493 31.3262 281.661 31.3262C281.767 31.3262 281.888 31.3145 282.025 31.291C282.161 31.2637 282.302 31.2246 282.446 31.1738C282.591 31.123 282.732 31.0586 282.868 30.9805C283.009 30.8984 283.134 30.8008 283.243 30.6875C283.353 30.5742 283.441 30.4453 283.507 30.3008C283.573 30.1562 283.607 29.9941 283.607 29.8145V28.8066ZM286.527 25.7246H288.098L289.756 30.8691H289.779L291.461 25.7246H292.938V32H291.93V26.9492H291.906L290.248 32H289.217L287.559 26.9492H287.535V32H286.527V25.7246ZM297.525 33.8457V30.9922H298.305C298.387 30.8047 298.463 30.6152 298.533 30.4238C298.603 30.2285 298.668 30.0098 298.726 29.7676C298.789 29.5215 298.846 29.2402 298.896 28.9238C298.951 28.6074 299.002 28.2324 299.049 27.7988C299.103 27.3418 299.146 26.8926 299.178 26.4512C299.209 26.0059 299.232 25.5898 299.248 25.2031C299.267 24.8164 299.279 24.4668 299.283 24.1543C299.291 23.8418 299.297 23.5859 299.301 23.3867H304.715V30.9922H305.687V33.8457H304.609V32H298.603V33.8457H297.525ZM300.379 24.3945C300.379 24.9531 300.355 25.5098 300.308 26.0645C300.265 26.6191 300.213 27.1777 300.15 27.7402C300.107 28.1855 300.062 28.5645 300.015 28.877C299.973 29.1855 299.926 29.4609 299.875 29.7031C299.828 29.9414 299.773 30.1621 299.711 30.3652C299.652 30.5645 299.584 30.7734 299.506 30.9922H303.531V24.3945H300.379ZM306.733 23.3867H308.385L310.823 30.6348H310.846L313.284 23.3867H314.936V32H313.858V24.752H313.835L311.409 32H310.26L307.835 24.752H307.811V32H306.733V23.3867Z" fill="black"/>
    <line x1="3.26519e-08" y1="55.6265" x2="620" y2="55.6266" stroke="#EEF0F7" stroke-width="0.746988"/>
    <line x1="46" y1="246.627" x2="588" y2="246.627" stroke="#EDEFF5" stroke-width="0.746988" stroke-dasharray="3.73 3.73"/>
    <path d="M29.3589 245.727C29.4233 246.278 29.6794 246.659 30.127 246.871C30.3561 246.978 30.6211 247.032 30.9219 247.032C31.4948 247.032 31.9191 246.849 32.1948 246.484C32.4705 246.119 32.6084 245.714 32.6084 245.27C32.6084 244.733 32.4437 244.318 32.1143 244.024C31.7884 243.73 31.3963 243.583 30.938 243.583C30.605 243.583 30.3185 243.648 30.0786 243.777C29.8423 243.906 29.64 244.085 29.4717 244.314L28.6338 244.266L29.2192 240.125H33.2153V241.059H29.9443L29.6167 243.197C29.7957 243.061 29.9658 242.959 30.127 242.891C30.4134 242.772 30.7446 242.713 31.1206 242.713C31.826 242.713 32.424 242.941 32.9146 243.396C33.4051 243.85 33.6504 244.427 33.6504 245.125C33.6504 245.852 33.4248 246.493 32.9736 247.048C32.526 247.603 31.8099 247.88 30.8252 247.88C30.1986 247.88 29.6436 247.705 29.1602 247.354C28.6803 247 28.4118 246.457 28.3545 245.727H29.3589Z" fill="#A6ACBE"/>
    <line x1="46" y1="206.627" x2="588" y2="206.627" stroke="#EDEFF5" stroke-width="0.746988" stroke-dasharray="3.73 3.73"/>
    <path d="M23.4629 202.241V201.5C24.1611 201.431 24.6481 201.319 24.9238 201.161C25.1995 201 25.4054 200.622 25.5415 200.028H26.3042V207.687H25.2729V202.241H23.4629ZM31.6188 199.996C32.6142 199.996 33.334 200.406 33.778 201.226C34.1217 201.859 34.2936 202.728 34.2936 203.831C34.2936 204.876 34.1378 205.741 33.8263 206.425C33.3751 207.406 32.6375 207.896 31.6134 207.896C30.6896 207.896 30.0021 207.495 29.5509 206.693C29.1749 206.024 28.987 205.125 28.987 203.997C28.987 203.123 29.0997 202.373 29.3253 201.747C29.7479 200.579 30.5123 199.996 31.6188 199.996ZM31.608 207.016C32.1093 207.016 32.5086 206.794 32.8058 206.35C33.103 205.906 33.2516 205.078 33.2516 203.868C33.2516 202.994 33.1442 202.277 32.9293 201.714C32.7145 201.149 32.2973 200.866 31.6779 200.866C31.1085 200.866 30.6914 201.134 30.4264 201.671C30.165 202.205 30.0343 202.993 30.0343 204.035C30.0343 204.819 30.1185 205.449 30.2868 205.925C30.5446 206.652 30.985 207.016 31.608 207.016Z" fill="#A6ACBE"/>
    <line x1="46" y1="166.627" x2="588" y2="166.627" stroke="#EDEFF5" stroke-width="0.746988" stroke-dasharray="3.73 3.73"/>
    <path d="M23.4629 162.241V161.5C24.1611 161.431 24.6481 161.319 24.9238 161.161C25.1995 161 25.4054 160.622 25.5415 160.028H26.3042V167.687H25.2729V162.241H23.4629ZM30.0021 165.727C30.0665 166.278 30.3226 166.659 30.7702 166.871C30.9993 166.978 31.2643 167.032 31.5651 167.032C32.138 167.032 32.5623 166.849 32.838 166.484C33.1137 166.119 33.2516 165.714 33.2516 165.27C33.2516 164.733 33.0869 164.318 32.7575 164.024C32.4316 163.73 32.0395 163.583 31.5812 163.583C31.2482 163.583 30.9617 163.648 30.7218 163.777C30.4855 163.906 30.2832 164.085 30.1149 164.314L29.277 164.266L29.8624 160.125H33.8585V161.059H30.5875L30.2599 163.197C30.4389 163.061 30.609 162.959 30.7702 162.891C31.0566 162.772 31.3878 162.713 31.7638 162.713C32.4692 162.713 33.0672 162.941 33.5578 163.396C34.0483 163.85 34.2936 164.427 34.2936 165.125C34.2936 165.852 34.068 166.493 33.6168 167.048C33.1692 167.603 32.4531 167.88 31.4684 167.88C30.8418 167.88 30.2868 167.705 29.8034 167.354C29.3235 167 29.055 166.457 28.9977 165.727H30.0021Z" fill="#A6ACBE"/>
    <line x1="46" y1="126.627" x2="588" y2="126.627" stroke="#EDEFF5" stroke-width="0.746988" stroke-dasharray="3.73 3.73"/>
    <path d="M22.7539 127.687C22.7897 127.025 22.9258 126.448 23.1621 125.958C23.402 125.467 23.8675 125.021 24.5586 124.62L25.5898 124.024C26.0518 123.755 26.3758 123.526 26.562 123.336C26.8556 123.039 27.0024 122.699 27.0024 122.316C27.0024 121.868 26.8682 121.514 26.5996 121.252C26.3311 120.987 25.973 120.855 25.5254 120.855C24.863 120.855 24.4046 121.106 24.1504 121.607C24.0143 121.875 23.9391 122.248 23.9248 122.724H22.9419C22.9526 122.055 23.0762 121.508 23.3125 121.086C23.7314 120.341 24.4709 119.969 25.5308 119.969C26.4116 119.969 27.0544 120.207 27.459 120.683C27.8672 121.159 28.0713 121.689 28.0713 122.273C28.0713 122.889 27.8547 123.415 27.4214 123.852C27.1707 124.106 26.7214 124.414 26.0732 124.776L25.3374 125.184C24.9865 125.377 24.7108 125.562 24.5103 125.737C24.1522 126.049 23.9266 126.394 23.8335 126.774H28.0337V127.687H22.7539ZM31.6188 119.996C32.6142 119.996 33.334 120.406 33.778 121.226C34.1217 121.859 34.2936 122.728 34.2936 123.831C34.2936 124.876 34.1378 125.741 33.8263 126.425C33.3751 127.406 32.6375 127.896 31.6134 127.896C30.6896 127.896 30.0021 127.495 29.5509 126.693C29.1749 126.024 28.987 125.125 28.987 123.997C28.987 123.123 29.0997 122.373 29.3253 121.747C29.7479 120.579 30.5123 119.996 31.6188 119.996ZM31.608 127.016C32.1093 127.016 32.5086 126.794 32.8058 126.35C33.103 125.906 33.2516 125.078 33.2516 123.868C33.2516 122.994 33.1442 122.277 32.9293 121.714C32.7145 121.149 32.2973 120.866 31.6779 120.866C31.1085 120.866 30.6914 121.134 30.4264 121.671C30.165 122.205 30.0343 122.993 30.0343 124.035C30.0343 124.819 30.1185 125.449 30.2868 125.925C30.5446 126.652 30.985 127.016 31.608 127.016Z" fill="#A6ACBE"/>
    <line x1="46" y1="86.6265" x2="588" y2="86.6265" stroke="#EDEFF5" stroke-width="0.746988" stroke-dasharray="3.73 3.73"/>
    <path d="M22.7534 87.687C22.7892 87.0246 22.9253 86.4481 23.1616 85.9575C23.4015 85.467 23.867 85.0212 24.5581 84.6201L25.5894 84.0239C26.0513 83.7554 26.3753 83.5262 26.5615 83.3364C26.8551 83.0392 27.002 82.6991 27.002 82.3159C27.002 81.8683 26.8677 81.5138 26.5991 81.2524C26.3306 80.9875 25.9725 80.855 25.5249 80.855C24.8625 80.855 24.4041 81.1056 24.1499 81.6069C24.0138 81.8755 23.9386 82.2479 23.9243 82.7241H22.9414C22.9521 82.0545 23.0757 81.5085 23.312 81.0859C23.731 80.3411 24.4704 79.9688 25.5303 79.9688C26.4111 79.9688 27.0539 80.2069 27.4585 80.6831C27.8667 81.1593 28.0708 81.6893 28.0708 82.2729C28.0708 82.8888 27.8542 83.4152 27.4209 83.8521C27.1702 84.1063 26.7209 84.4142 26.0728 84.7759L25.3369 85.1841C24.986 85.3774 24.7103 85.5618 24.5098 85.7373C24.1517 86.0488 23.9261 86.3944 23.833 86.7739H28.0332V87.687H22.7534ZM30.0016 85.7266C30.0661 86.278 30.3221 86.6593 30.7697 86.8706C30.9988 86.978 31.2638 87.0317 31.5646 87.0317C32.1375 87.0317 32.5618 86.8491 32.8375 86.4839C33.1133 86.1187 33.2511 85.714 33.2511 85.27C33.2511 84.7329 33.0864 84.3175 32.757 84.0239C32.4311 83.7303 32.039 83.5835 31.5807 83.5835C31.2477 83.5835 30.9612 83.6479 30.7213 83.7769C30.485 83.9058 30.2827 84.0848 30.1144 84.314L29.2765 84.2656L29.862 80.1245H33.858V81.0591H30.5871L30.2594 83.1968C30.4385 83.0607 30.6085 82.9587 30.7697 82.8906C31.0561 82.7725 31.3873 82.7134 31.7633 82.7134C32.4687 82.7134 33.0667 82.9408 33.5573 83.3955C34.0478 83.8503 34.2931 84.4268 34.2931 85.125C34.2931 85.8519 34.0675 86.4928 33.6163 87.0479C33.1688 87.6029 32.4526 87.8804 31.4679 87.8804C30.8413 87.8804 30.2863 87.7049 29.8029 87.354C29.3231 86.9995 29.0545 86.457 28.9972 85.7266H30.0016Z" fill="#A6ACBE"/>
    <path d="M67.6954 290.001H66.6895V286.809H64.8205C64.6129 286.809 64.4376 286.813 64.2946 286.82C64.155 286.823 64.0342 286.833 63.932 286.85C63.8333 286.864 63.7482 286.884 63.6767 286.912C63.6086 286.935 63.5422 286.968 63.4776 287.009C63.3993 287.06 63.3312 287.118 63.2733 287.182C63.2154 287.244 63.1644 287.322 63.1201 287.417C63.0793 287.512 63.0452 287.63 63.018 287.769C62.9908 287.909 62.9703 288.081 62.9567 288.285L62.9056 289.102C62.8988 289.201 62.8903 289.291 62.8801 289.373C62.8699 289.451 62.8563 289.524 62.8393 289.592C62.8222 289.661 62.8018 289.729 62.778 289.797C62.7576 289.861 62.7303 289.929 62.6963 290.001H61.5423C61.5831 289.957 61.6223 289.907 61.6597 289.853C61.6971 289.798 61.7312 289.734 61.7618 289.659C61.7925 289.581 61.8197 289.489 61.8435 289.383C61.8674 289.278 61.8861 289.152 61.8997 289.005L61.9865 287.984C62.0001 287.814 62.0205 287.65 62.0478 287.494C62.075 287.337 62.1244 287.191 62.1959 287.055C62.2674 286.918 62.3712 286.796 62.5074 286.687C62.6469 286.578 62.8359 286.488 63.0742 286.416C62.9652 286.375 62.8376 286.321 62.6912 286.253C62.5448 286.185 62.4035 286.084 62.2674 285.952C62.1346 285.819 62.0205 285.645 61.9252 285.431C61.8333 285.213 61.7874 284.937 61.7874 284.604C61.7874 284.365 61.8146 284.149 61.8691 283.955C61.9235 283.761 61.995 283.589 62.0835 283.439C62.172 283.286 62.2725 283.157 62.3848 283.051C62.5005 282.942 62.618 282.854 62.7371 282.786C62.8631 282.714 63.0078 282.658 63.1712 282.617C63.338 282.576 63.5065 282.547 63.6767 282.53C63.8469 282.513 64.0103 282.503 64.1669 282.5C64.3269 282.496 64.4665 282.495 64.5856 282.495H67.6954V290.001ZM66.6895 283.383H64.3916C64.3031 283.383 64.2129 283.385 64.121 283.388C64.029 283.388 63.9371 283.393 63.8452 283.404C63.7533 283.414 63.6648 283.431 63.5797 283.455C63.4946 283.475 63.4163 283.506 63.3448 283.547C63.2427 283.604 63.1559 283.676 63.0844 283.761C63.0129 283.846 62.9533 283.94 62.9056 284.042C62.8614 284.144 62.8291 284.25 62.8086 284.358C62.7882 284.467 62.778 284.575 62.778 284.68C62.778 284.752 62.7831 284.832 62.7933 284.92C62.8035 285.005 62.8257 285.095 62.8597 285.191C62.8937 285.283 62.9414 285.375 63.0027 285.467C63.0639 285.555 63.1456 285.637 63.2478 285.712C63.3363 285.78 63.4248 285.832 63.5133 285.87C63.6052 285.904 63.7022 285.93 63.8044 285.947C63.9065 285.96 64.0154 285.967 64.1312 285.967C64.2503 285.967 64.3814 285.965 64.5244 285.962H66.6895V283.383ZM69.2706 284.532H70.2102V286.738H72.7634V284.532H73.7081V290.001H72.7634V287.555H70.2102V290.001H69.2706V284.532ZM75.1965 284.532H77.525C78.1922 284.532 78.6909 284.656 79.0211 284.905C79.3547 285.153 79.5216 285.514 79.5216 285.987C79.5216 286.239 79.4603 286.452 79.3377 286.626C79.2152 286.799 79.0535 286.952 78.8526 287.085C79.142 287.194 79.3718 287.351 79.542 287.555C79.7122 287.759 79.7973 288.023 79.7973 288.347C79.7973 288.602 79.7547 288.832 79.6696 289.036C79.5845 289.24 79.4552 289.414 79.2816 289.557C79.1079 289.7 78.8867 289.81 78.6177 289.889C78.3522 289.964 78.0373 290.001 77.673 290.001H75.1965V284.532ZM76.136 289.25H77.5658C77.8143 289.25 78.0203 289.232 78.1837 289.194C78.3505 289.153 78.4833 289.095 78.582 289.021C78.6807 288.946 78.7505 288.855 78.7913 288.75C78.8322 288.644 78.8526 288.525 78.8526 288.392C78.8526 288.26 78.8322 288.141 78.7913 288.035C78.7505 287.926 78.6807 287.836 78.582 287.764C78.4833 287.689 78.3505 287.633 78.1837 287.596C78.0203 287.555 77.8143 287.535 77.5658 287.535H76.136V289.25ZM76.136 286.845H77.5556C77.8722 286.845 78.1224 286.782 78.3062 286.656C78.4901 286.53 78.582 286.335 78.582 286.069C78.582 285.919 78.5564 285.795 78.5054 285.696C78.4543 285.594 78.3862 285.512 78.3011 285.451C78.216 285.39 78.119 285.347 78.0101 285.324C77.9045 285.296 77.7956 285.283 77.6833 285.283H76.136V286.845Z" fill="#A6ACBE"/>
    <rect x="63.4932" y="156" width="4" height="114" rx="2" fill="url(#paint1_linear)"/>
    <rect x="73.2026" y="174" width="4" height="96" rx="2" fill="url(#paint2_linear)"/>
    <path d="M119.415 286.247C119.415 285.9 119.362 285.59 119.256 285.318C119.151 285.042 118.989 284.809 118.771 284.618C118.557 284.428 118.283 284.283 117.949 284.184C117.615 284.082 117.222 284.031 116.769 284.031V288.458C117.222 288.458 117.615 288.409 117.949 288.31C118.283 288.208 118.557 288.063 118.771 287.876C118.989 287.686 119.151 287.454 119.256 287.182C119.362 286.906 119.415 286.595 119.415 286.247ZM115.764 289.316C115.198 289.316 114.691 289.252 114.242 289.122C113.792 288.989 113.411 288.794 113.098 288.535C112.785 288.276 112.545 287.956 112.378 287.575C112.211 287.19 112.128 286.748 112.128 286.247C112.128 285.747 112.211 285.306 112.378 284.925C112.545 284.54 112.785 284.218 113.098 283.96C113.411 283.701 113.792 283.507 114.242 283.378C114.691 283.245 115.198 283.178 115.764 283.178V282.341H116.769V283.178C117.335 283.178 117.842 283.245 118.291 283.378C118.741 283.507 119.122 283.701 119.435 283.96C119.748 284.218 119.988 284.54 120.155 284.925C120.325 285.306 120.41 285.747 120.41 286.247C120.41 286.748 120.325 287.19 120.155 287.575C119.988 287.956 119.748 288.276 119.435 288.535C119.122 288.794 118.741 288.989 118.291 289.122C117.842 289.252 117.335 289.316 116.769 289.316V290.154H115.764V289.316ZM113.118 286.247C113.118 286.595 113.171 286.906 113.277 287.182C113.382 287.454 113.542 287.686 113.757 287.876C113.975 288.063 114.249 288.208 114.579 288.31C114.912 288.409 115.307 288.458 115.764 288.458V284.031C115.307 284.031 114.912 284.082 114.579 284.184C114.249 284.283 113.975 284.428 113.757 284.618C113.542 284.809 113.382 285.042 113.277 285.318C113.171 285.59 113.118 285.9 113.118 286.247ZM126.193 288.254C126.156 288.492 126.074 288.726 125.948 288.954C125.822 289.182 125.657 289.386 125.453 289.566C125.249 289.747 125.007 289.892 124.728 290C124.452 290.113 124.146 290.169 123.809 290.169C123.441 290.169 123.1 290.109 122.787 289.99C122.477 289.868 122.209 289.686 121.98 289.444C121.756 289.199 121.579 288.892 121.449 288.525C121.32 288.157 121.255 287.725 121.255 287.228C121.255 286.894 121.291 286.593 121.363 286.324C121.437 286.052 121.536 285.81 121.659 285.599C121.785 285.384 121.929 285.201 122.093 285.047C122.256 284.891 122.428 284.763 122.609 284.664C122.792 284.562 122.98 284.487 123.17 284.44C123.361 284.389 123.545 284.363 123.722 284.363C124.096 284.363 124.438 284.419 124.748 284.532C125.058 284.644 125.323 284.816 125.545 285.047C125.769 285.275 125.943 285.563 126.066 285.91C126.191 286.254 126.254 286.659 126.254 287.126V287.595H122.256C122.26 287.861 122.297 288.103 122.369 288.32C122.44 288.535 122.542 288.719 122.675 288.872C122.808 289.025 122.968 289.144 123.155 289.229C123.346 289.311 123.56 289.352 123.798 289.352C124.04 289.352 124.244 289.318 124.411 289.25C124.578 289.182 124.717 289.095 124.83 288.989C124.942 288.884 125.032 288.766 125.1 288.637C125.172 288.508 125.231 288.38 125.279 288.254H126.193ZM125.31 286.845C125.303 286.579 125.262 286.343 125.187 286.135C125.116 285.927 125.014 285.754 124.881 285.614C124.751 285.471 124.595 285.364 124.411 285.292C124.227 285.218 124.023 285.18 123.798 285.18C123.584 285.18 123.386 285.223 123.206 285.308C123.026 285.389 122.867 285.505 122.731 285.655C122.595 285.801 122.486 285.977 122.404 286.181C122.323 286.382 122.273 286.603 122.256 286.845H125.31ZM127.462 284.532H129.791C130.458 284.532 130.956 284.656 131.287 284.904C131.62 285.153 131.787 285.514 131.787 285.987C131.787 286.239 131.726 286.452 131.603 286.625C131.481 286.799 131.319 286.952 131.118 287.085C131.408 287.194 131.637 287.35 131.808 287.555C131.978 287.759 132.063 288.023 132.063 288.346C132.063 288.601 132.02 288.831 131.935 289.035C131.85 289.24 131.721 289.413 131.547 289.556C131.373 289.699 131.152 289.81 130.883 289.888C130.618 289.963 130.303 290 129.939 290H127.462V284.532ZM128.402 289.25H129.831C130.08 289.25 130.286 289.231 130.449 289.194C130.616 289.153 130.749 289.095 130.848 289.02C130.946 288.945 131.016 288.855 131.057 288.749C131.098 288.644 131.118 288.525 131.118 288.392C131.118 288.259 131.098 288.14 131.057 288.035C131.016 287.926 130.946 287.835 130.848 287.764C130.749 287.689 130.616 287.633 130.449 287.595C130.286 287.555 130.08 287.534 129.831 287.534H128.402V289.25ZM128.402 286.845H129.821C130.138 286.845 130.388 286.782 130.572 286.656C130.756 286.53 130.848 286.334 130.848 286.069C130.848 285.919 130.822 285.795 130.771 285.696C130.72 285.594 130.652 285.512 130.567 285.451C130.482 285.389 130.385 285.347 130.276 285.323C130.17 285.296 130.061 285.282 129.949 285.282H128.402V286.845Z" fill="#A6ACBE"/>
    <rect x="114.288" y="182" width="4" height="88" rx="2" fill="url(#paint3_linear)"/>
    <rect x="123.998" y="228" width="4" height="42" rx="2" fill="url(#paint4_linear)"/>
    <path d="M163.369 282.494H164.809L166.933 288.811H166.954L169.078 282.494H170.518V290H169.578V283.684H169.558L167.444 290H166.443L164.329 283.684H164.309V290H163.369V282.494ZM172.088 286.171C172.098 285.837 172.161 285.556 172.277 285.328C172.393 285.097 172.549 284.909 172.747 284.766C172.944 284.623 173.177 284.521 173.446 284.46C173.719 284.395 174.015 284.363 174.335 284.363C174.6 284.363 174.857 284.39 175.106 284.445C175.358 284.499 175.581 284.588 175.775 284.71C175.969 284.829 176.124 284.986 176.239 285.18C176.359 285.371 176.418 285.604 176.418 285.88V289.061C176.418 289.149 176.442 289.226 176.49 289.291C176.537 289.352 176.614 289.383 176.719 289.383C176.767 289.383 176.816 289.379 176.868 289.372C176.919 289.362 176.971 289.352 177.026 289.342V289.99C176.948 290.011 176.869 290.029 176.791 290.046C176.716 290.063 176.626 290.072 176.52 290.072C176.357 290.072 176.216 290.058 176.096 290.031C175.981 290.004 175.882 289.96 175.8 289.898C175.722 289.834 175.661 289.752 175.616 289.653C175.572 289.551 175.543 289.427 175.53 289.28C175.414 289.406 175.291 289.524 175.162 289.633C175.033 289.738 174.888 289.832 174.728 289.914C174.568 289.992 174.389 290.053 174.192 290.098C173.994 290.145 173.771 290.169 173.523 290.169C173.312 290.169 173.106 290.135 172.905 290.067C172.708 289.999 172.529 289.898 172.369 289.766C172.212 289.633 172.086 289.469 171.991 289.275C171.896 289.078 171.848 288.85 171.848 288.591C171.848 288.309 171.896 288.065 171.991 287.861C172.086 287.653 172.211 287.481 172.364 287.345C172.517 287.206 172.692 287.098 172.89 287.023C173.087 286.949 173.288 286.899 173.492 286.875L175.029 286.686C175.176 286.669 175.29 286.613 175.371 286.518C175.456 286.419 175.499 286.263 175.499 286.048C175.499 285.718 175.39 285.481 175.172 285.338C174.958 285.192 174.648 285.119 174.243 285.119C173.828 285.119 173.518 285.207 173.313 285.384C173.109 285.558 172.993 285.82 172.966 286.171H172.088ZM175.479 287.218C175.404 287.272 175.31 287.318 175.198 287.355C175.089 287.389 174.968 287.418 174.835 287.442C174.702 287.466 174.561 287.488 174.411 287.509C174.262 287.526 174.112 287.544 173.962 287.565C173.792 287.589 173.635 287.623 173.492 287.667C173.349 287.711 173.225 287.769 173.119 287.84C173.014 287.912 172.932 287.999 172.874 288.101C172.816 288.2 172.788 288.317 172.788 288.453C172.788 288.61 172.811 288.748 172.859 288.867C172.91 288.986 172.978 289.086 173.063 289.168C173.152 289.25 173.257 289.311 173.38 289.352C173.502 289.393 173.637 289.413 173.783 289.413C173.875 289.413 173.981 289.403 174.1 289.383C174.219 289.359 174.342 289.325 174.468 289.28C174.593 289.236 174.716 289.18 174.835 289.112C174.958 289.04 175.067 288.955 175.162 288.857C175.257 288.758 175.334 288.646 175.392 288.52C175.45 288.394 175.479 288.252 175.479 288.096V287.218ZM177.973 284.532H178.913V285.282H178.933C178.994 285.156 179.071 285.037 179.163 284.925C179.258 284.812 179.37 284.715 179.5 284.634C179.633 284.549 179.784 284.482 179.954 284.435C180.128 284.387 180.325 284.363 180.547 284.363C180.839 284.363 181.12 284.419 181.389 284.532C181.658 284.644 181.896 284.812 182.104 285.037C182.312 285.262 182.477 285.544 182.599 285.885C182.722 286.222 182.783 286.615 182.783 287.064C182.783 287.626 182.725 288.104 182.61 288.499C182.497 288.891 182.335 289.211 182.124 289.459C181.917 289.708 181.665 289.888 181.369 290C181.072 290.113 180.742 290.169 180.378 290.169C180.198 290.169 180.029 290.145 179.873 290.098C179.716 290.05 179.575 289.989 179.449 289.914C179.326 289.835 179.221 289.75 179.132 289.658C179.044 289.563 178.977 289.471 178.933 289.383H178.913V292.155H177.973V284.532ZM178.892 287.294C178.892 287.59 178.921 287.864 178.979 288.116C179.037 288.365 179.125 288.581 179.244 288.765C179.367 288.949 179.518 289.093 179.699 289.199C179.883 289.301 180.099 289.352 180.347 289.352C180.606 289.352 180.829 289.301 181.016 289.199C181.207 289.093 181.364 288.949 181.486 288.765C181.609 288.581 181.699 288.365 181.757 288.116C181.815 287.864 181.844 287.59 181.844 287.294C181.844 286.984 181.815 286.7 181.757 286.441C181.699 286.183 181.609 285.96 181.486 285.772C181.364 285.585 181.207 285.441 181.016 285.338C180.829 285.233 180.606 285.18 180.347 285.18C180.099 285.18 179.883 285.233 179.699 285.338C179.518 285.441 179.367 285.585 179.244 285.772C179.125 285.96 179.037 286.183 178.979 286.441C178.921 286.7 178.892 286.984 178.892 287.294Z" fill="#A6ACBE"/>
    <rect x="165.085" y="125" width="4" height="145" rx="2" fill="url(#paint5_linear)"/>
    <rect x="174.794" y="190" width="4" height="80" rx="2" fill="url(#paint6_linear)"/>
    <path d="M218.882 286.907L217.738 283.567L216.472 286.907H218.882ZM214.317 290.001L217.13 282.377H218.351L221.072 290.001H219.959L219.168 287.703H216.216L215.379 290.001H214.317ZM225.517 285.349H222.964V290.001H222.025V284.532H226.462V290.001H225.517V285.349ZM227.899 284.532H228.839V285.283H228.859C228.921 285.157 228.997 285.038 229.089 284.925C229.184 284.813 229.297 284.716 229.426 284.634C229.559 284.549 229.71 284.483 229.881 284.435C230.054 284.387 230.252 284.364 230.473 284.364C230.766 284.364 231.047 284.42 231.316 284.532C231.584 284.644 231.823 284.813 232.03 285.038C232.238 285.262 232.403 285.545 232.526 285.885C232.648 286.222 232.71 286.615 232.71 287.065C232.71 287.627 232.652 288.105 232.536 288.5C232.424 288.891 232.262 289.211 232.051 289.46C231.843 289.708 231.591 289.889 231.295 290.001C230.999 290.113 230.669 290.169 230.304 290.169C230.124 290.169 229.956 290.146 229.799 290.098C229.642 290.05 229.501 289.989 229.375 289.914C229.253 289.836 229.147 289.751 229.059 289.659C228.97 289.564 228.904 289.472 228.859 289.383H228.839V292.156H227.899V284.532ZM228.819 287.295C228.819 287.591 228.847 287.865 228.905 288.117C228.963 288.365 229.052 288.581 229.171 288.765C229.293 288.949 229.445 289.094 229.625 289.199C229.809 289.301 230.025 289.352 230.274 289.352C230.533 289.352 230.756 289.301 230.943 289.199C231.133 289.094 231.29 288.949 231.413 288.765C231.535 288.581 231.625 288.365 231.683 288.117C231.741 287.865 231.77 287.591 231.77 287.295C231.77 286.985 231.741 286.701 231.683 286.442C231.625 286.183 231.535 285.96 231.413 285.773C231.29 285.586 231.133 285.441 230.943 285.339C230.756 285.233 230.533 285.181 230.274 285.181C230.025 285.181 229.809 285.233 229.625 285.339C229.445 285.441 229.293 285.586 229.171 285.773C229.052 285.96 228.963 286.183 228.905 286.442C228.847 286.701 228.819 286.985 228.819 287.295Z" fill="#A6ACBE"/>
    <rect x="215.879" y="222" width="4" height="48" rx="2" fill="url(#paint7_linear)"/>
    <rect x="225.59" y="228" width="4" height="42" rx="2" fill="url(#paint8_linear)"/>
    <path d="M263.465 282.495H264.905L267.029 288.811H267.049L269.174 282.495H270.614V290.001H269.674V283.684H269.654L267.54 290.001H266.539L264.425 283.684H264.404V290.001H263.465V282.495ZM272.184 286.171C272.194 285.838 272.257 285.557 272.373 285.329C272.488 285.097 272.645 284.91 272.842 284.767C273.04 284.624 273.273 284.522 273.542 284.461C273.814 284.396 274.11 284.364 274.43 284.364C274.696 284.364 274.953 284.391 275.202 284.445C275.453 284.5 275.676 284.588 275.87 284.711C276.064 284.83 276.219 284.987 276.335 285.181C276.454 285.371 276.514 285.604 276.514 285.88V289.061C276.514 289.15 276.538 289.227 276.585 289.291C276.633 289.352 276.71 289.383 276.815 289.383C276.863 289.383 276.912 289.38 276.963 289.373C277.014 289.363 277.067 289.352 277.122 289.342V289.991C277.043 290.011 276.965 290.03 276.887 290.047C276.812 290.064 276.722 290.072 276.616 290.072C276.453 290.072 276.311 290.059 276.192 290.032C276.076 290.004 275.978 289.96 275.896 289.899C275.818 289.834 275.756 289.752 275.712 289.654C275.668 289.552 275.639 289.427 275.625 289.281C275.51 289.407 275.387 289.524 275.258 289.633C275.128 289.739 274.984 289.832 274.824 289.914C274.664 289.992 274.485 290.054 274.287 290.098C274.09 290.146 273.867 290.169 273.619 290.169C273.407 290.169 273.202 290.135 273.001 290.067C272.803 289.999 272.625 289.899 272.465 289.766C272.308 289.633 272.182 289.47 272.087 289.276C271.991 289.078 271.944 288.85 271.944 288.592C271.944 288.309 271.991 288.066 272.087 287.861C272.182 287.654 272.306 287.482 272.459 287.346C272.613 287.206 272.788 287.099 272.985 287.024C273.183 286.949 273.384 286.9 273.588 286.876L275.125 286.687C275.271 286.67 275.385 286.614 275.467 286.518C275.552 286.42 275.595 286.263 275.595 286.049C275.595 285.718 275.486 285.482 275.268 285.339C275.053 285.192 274.744 285.119 274.339 285.119C273.923 285.119 273.613 285.208 273.409 285.385C273.205 285.558 273.089 285.821 273.062 286.171H272.184ZM275.574 287.218C275.499 287.272 275.406 287.318 275.293 287.356C275.184 287.39 275.064 287.419 274.931 287.443C274.798 287.467 274.657 287.489 274.507 287.509C274.357 287.526 274.207 287.545 274.058 287.565C273.887 287.589 273.731 287.623 273.588 287.667C273.445 287.712 273.321 287.769 273.215 287.841C273.11 287.912 273.028 287.999 272.97 288.101C272.912 288.2 272.883 288.318 272.883 288.454C272.883 288.61 272.907 288.748 272.955 288.867C273.006 288.987 273.074 289.087 273.159 289.169C273.247 289.25 273.353 289.312 273.476 289.352C273.598 289.393 273.733 289.414 273.879 289.414C273.971 289.414 274.076 289.404 274.196 289.383C274.315 289.359 274.437 289.325 274.563 289.281C274.689 289.237 274.812 289.181 274.931 289.112C275.053 289.041 275.162 288.956 275.258 288.857C275.353 288.758 275.43 288.646 275.487 288.52C275.545 288.394 275.574 288.253 275.574 288.096V287.218ZM279.595 282.408C279.64 282.626 279.732 282.799 279.871 282.929C280.011 283.055 280.217 283.118 280.489 283.118C280.765 283.118 280.972 283.056 281.112 282.934C281.252 282.808 281.342 282.632 281.383 282.408H282.256C282.252 282.612 282.208 282.798 282.123 282.964C282.038 283.128 281.917 283.267 281.761 283.383C281.607 283.499 281.422 283.589 281.204 283.654C280.989 283.715 280.751 283.746 280.489 283.746C280.227 283.746 279.989 283.715 279.774 283.654C279.56 283.592 279.376 283.504 279.223 283.388C279.069 283.272 278.949 283.133 278.86 282.97C278.775 282.803 278.731 282.615 278.727 282.408H279.595ZM278.12 284.532H279.059V288.724H279.08L281.766 284.532H282.843V290.001H281.898V285.809H281.878L279.197 290.001H278.12V284.532Z" fill="#A6ACBE"/>
    <rect x="266.675" y="204" width="4" height="66" rx="2" fill="url(#paint9_linear)"/>
    <rect x="276.384" y="230" width="4" height="40" rx="2" fill="url(#paint10_linear)"/>
    <path d="M315.756 282.494H316.757V288.565H316.777L320.596 282.494H321.756V290H320.75V283.893H320.729L316.915 290H315.756V282.494ZM329.469 287.258C329.469 286.955 329.435 286.677 329.367 286.426C329.298 286.17 329.196 285.951 329.06 285.767C328.927 285.583 328.761 285.44 328.56 285.338C328.362 285.232 328.133 285.18 327.87 285.18C327.608 285.18 327.377 285.232 327.176 285.338C326.978 285.44 326.812 285.583 326.676 285.767C326.543 285.951 326.442 286.17 326.374 286.426C326.306 286.677 326.272 286.955 326.272 287.258C326.272 287.564 326.306 287.847 326.374 288.106C326.442 288.361 326.543 288.58 326.676 288.764C326.812 288.948 326.978 289.093 327.176 289.198C327.377 289.3 327.608 289.351 327.87 289.351C328.133 289.351 328.362 289.3 328.56 289.198C328.761 289.093 328.927 288.948 329.06 288.764C329.196 288.58 329.298 288.361 329.367 288.106C329.435 287.847 329.469 287.564 329.469 287.258ZM323.331 284.531H324.27V286.844H325.327C325.365 286.46 325.45 286.114 325.583 285.808C325.716 285.501 325.891 285.241 326.109 285.026C326.327 284.812 326.584 284.649 326.88 284.536C327.176 284.42 327.506 284.363 327.87 284.363C328.269 284.363 328.624 284.431 328.938 284.567C329.251 284.7 329.516 284.892 329.734 285.144C329.956 285.396 330.124 285.7 330.24 286.058C330.356 286.415 330.413 286.815 330.413 287.258C330.413 287.707 330.356 288.112 330.24 288.473C330.124 288.831 329.956 289.135 329.734 289.387C329.516 289.639 329.251 289.833 328.938 289.969C328.624 290.102 328.269 290.169 327.87 290.169C327.499 290.169 327.162 290.111 326.859 289.995C326.56 289.876 326.301 289.706 326.083 289.484C325.865 289.26 325.692 288.989 325.562 288.672C325.433 288.352 325.355 287.993 325.327 287.595H324.27V290H323.331V284.531ZM331.575 284.531H332.515V286.737H335.068V284.531H336.012V290H335.068V287.554H332.515V290H331.575V284.531Z" fill="#A6ACBE"/>
    <rect x="317.472" y="214" width="4" height="56" rx="2" fill="url(#paint11_linear)"/>
    <rect x="327.181" y="246" width="4" height="24" rx="2" fill="url(#paint12_linear)"/>
    <path d="M368.043 282.494H369.044V288.565H369.064L372.884 282.494H374.043V290H373.037V283.893H373.016L369.202 290H368.043V282.494ZM381.756 287.258C381.756 286.955 381.722 286.677 381.654 286.426C381.586 286.17 381.483 285.951 381.347 285.767C381.215 285.583 381.048 285.44 380.847 285.338C380.649 285.232 380.42 285.18 380.158 285.18C379.895 285.18 379.664 285.232 379.463 285.338C379.266 285.44 379.099 285.583 378.963 285.767C378.83 285.951 378.729 286.17 378.661 286.426C378.593 286.677 378.559 286.955 378.559 287.258C378.559 287.564 378.593 287.847 378.661 288.106C378.729 288.361 378.83 288.58 378.963 288.764C379.099 288.948 379.266 289.093 379.463 289.198C379.664 289.3 379.895 289.351 380.158 289.351C380.42 289.351 380.649 289.3 380.847 289.198C381.048 289.093 381.215 288.948 381.347 288.764C381.483 288.58 381.586 288.361 381.654 288.106C381.722 287.847 381.756 287.564 381.756 287.258ZM375.618 284.531H376.558V286.844H377.615C377.652 286.46 377.737 286.114 377.87 285.808C378.003 285.501 378.178 285.241 378.396 285.026C378.614 284.812 378.871 284.649 379.167 284.536C379.463 284.42 379.793 284.363 380.158 284.363C380.556 284.363 380.912 284.431 381.225 284.567C381.538 284.7 381.803 284.892 382.021 285.144C382.243 285.396 382.411 285.7 382.527 286.058C382.643 286.415 382.7 286.815 382.7 287.258C382.7 287.707 382.643 288.112 382.527 288.473C382.411 288.831 382.243 289.135 382.021 289.387C381.803 289.639 381.538 289.833 381.225 289.969C380.912 290.102 380.556 290.169 380.158 290.169C379.786 290.169 379.449 290.111 379.146 289.995C378.847 289.876 378.588 289.706 378.37 289.484C378.152 289.26 377.979 288.989 377.849 288.672C377.72 288.352 377.642 287.993 377.615 287.595H376.558V290H375.618V284.531ZM387.544 285.348H385.45L385.409 286.66C385.389 287.324 385.338 287.879 385.256 288.325C385.174 288.768 385.062 289.123 384.919 289.392C384.78 289.661 384.609 289.852 384.408 289.964C384.208 290.077 383.978 290.133 383.719 290.133C383.624 290.133 383.54 290.117 383.469 290.087C383.401 290.06 383.348 290.031 383.311 290V289.173C383.443 289.224 383.561 289.249 383.663 289.249C383.734 289.249 383.803 289.237 383.867 289.214C383.935 289.19 383.998 289.144 384.056 289.076C384.117 289.008 384.174 288.912 384.225 288.79C384.276 288.664 384.32 288.5 384.357 288.3C384.398 288.099 384.431 287.855 384.454 287.569C384.482 287.283 384.5 286.943 384.511 286.548L384.557 284.531H388.483V290H387.544V285.348Z" fill="#A6ACBE"/>
    <rect x="368.265" y="164" width="4" height="106" rx="2" fill="url(#paint13_linear)"/>
    <rect x="377.976" y="180" width="4" height="90" rx="2" fill="url(#paint14_linear)"/>
    <path d="M417.23 286.238C417.23 286.708 417.289 287.133 417.408 287.515C417.528 287.893 417.694 288.214 417.909 288.48C418.127 288.745 418.387 288.951 418.69 289.098C418.996 289.241 419.333 289.312 419.701 289.312C420.021 289.312 420.307 289.254 420.559 289.138C420.814 289.023 421.034 288.871 421.218 288.684C421.402 288.493 421.55 288.279 421.662 288.041C421.774 287.802 421.849 287.561 421.887 287.316H422.857C422.836 287.533 422.789 287.756 422.714 287.984C422.642 288.209 422.544 288.429 422.418 288.643C422.295 288.854 422.147 289.055 421.973 289.246C421.8 289.433 421.599 289.596 421.371 289.736C421.146 289.876 420.894 289.986 420.615 290.068C420.336 290.15 420.031 290.19 419.701 290.19C419.473 290.19 419.228 290.167 418.966 290.119C418.707 290.071 418.448 289.991 418.19 289.879C417.934 289.767 417.688 289.617 417.449 289.43C417.214 289.239 417.007 289.001 416.826 288.715C416.646 288.429 416.501 288.092 416.392 287.704C416.283 287.312 416.229 286.858 416.229 286.34C416.229 285.833 416.276 285.38 416.372 284.982C416.471 284.584 416.603 284.236 416.77 283.94C416.94 283.641 417.138 283.387 417.362 283.179C417.591 282.972 417.834 282.803 418.093 282.674C418.351 282.544 418.62 282.451 418.899 282.393C419.179 282.335 419.456 282.306 419.732 282.306C420.072 282.306 420.382 282.342 420.661 282.413C420.944 282.481 421.196 282.577 421.417 282.699C421.642 282.819 421.837 282.958 422.004 283.118C422.171 283.278 422.31 283.448 422.423 283.629C422.539 283.806 422.627 283.988 422.688 284.175C422.753 284.362 422.792 284.544 422.806 284.721H421.825C421.761 284.48 421.665 284.264 421.539 284.073C421.413 283.882 421.26 283.722 421.08 283.593C420.903 283.46 420.702 283.36 420.477 283.292C420.256 283.22 420.018 283.184 419.762 283.184C419.378 283.184 419.029 283.256 418.716 283.399C418.406 283.542 418.14 283.746 417.919 284.012C417.698 284.277 417.528 284.599 417.408 284.977C417.289 285.351 417.23 285.772 417.23 286.238ZM428.829 288.255C428.791 288.493 428.71 288.727 428.584 288.955C428.458 289.183 428.293 289.387 428.088 289.567C427.884 289.748 427.642 289.893 427.363 290.001C427.087 290.114 426.781 290.17 426.444 290.17C426.076 290.17 425.736 290.11 425.423 289.991C425.113 289.869 424.844 289.687 424.616 289.445C424.391 289.2 424.214 288.893 424.085 288.526C423.955 288.158 423.891 287.726 423.891 287.229C423.891 286.895 423.927 286.594 423.998 286.325C424.073 286.053 424.172 285.811 424.294 285.6C424.42 285.385 424.565 285.201 424.728 285.048C424.892 284.892 425.064 284.764 425.244 284.665C425.428 284.563 425.615 284.488 425.806 284.441C425.996 284.39 426.18 284.364 426.357 284.364C426.732 284.364 427.074 284.42 427.384 284.533C427.693 284.645 427.959 284.817 428.18 285.048C428.405 285.276 428.578 285.564 428.701 285.911C428.827 286.255 428.89 286.66 428.89 287.127V287.596H424.892C424.895 287.862 424.933 288.104 425.004 288.321C425.075 288.536 425.178 288.72 425.31 288.873C425.443 289.026 425.603 289.145 425.79 289.23C425.981 289.312 426.195 289.353 426.434 289.353C426.675 289.353 426.88 289.319 427.047 289.251C427.213 289.183 427.353 289.096 427.465 288.99C427.578 288.885 427.668 288.767 427.736 288.638C427.807 288.509 427.867 288.381 427.915 288.255H428.829ZM427.945 286.846C427.938 286.58 427.898 286.344 427.823 286.136C427.751 285.928 427.649 285.755 427.516 285.615C427.387 285.472 427.23 285.365 427.047 285.293C426.863 285.219 426.658 285.181 426.434 285.181C426.219 285.181 426.022 285.224 425.841 285.309C425.661 285.39 425.503 285.506 425.367 285.656C425.23 285.802 425.121 285.978 425.04 286.182C424.958 286.383 424.909 286.604 424.892 286.846H427.945ZM430.097 284.533H431.037V286.738H433.59V284.533H434.535V290.001H433.59V287.556H431.037V290.001H430.097V284.533Z" fill="#A6ACBE"/>
    <rect x="419.061" y="156" width="4" height="114" rx="2" fill="url(#paint15_linear)"/>
    <rect x="428.77" y="198" width="4" height="72" rx="2" fill="url(#paint16_linear)"/>
    <path d="M475.088 286.248C475.088 286.571 475.056 286.895 474.991 287.218C474.927 287.538 474.828 287.844 474.695 288.137C474.562 288.427 474.395 288.697 474.195 288.949C473.997 289.198 473.762 289.415 473.49 289.603C473.218 289.787 472.91 289.929 472.566 290.032C472.225 290.137 471.847 290.19 471.432 290.19C471.017 290.19 470.637 290.137 470.293 290.032C469.95 289.929 469.641 289.787 469.369 289.603C469.1 289.415 468.865 289.198 468.664 288.949C468.464 288.697 468.297 288.427 468.164 288.137C468.031 287.844 467.933 287.538 467.868 287.218C467.803 286.895 467.771 286.571 467.771 286.248C467.771 285.666 467.853 285.133 468.016 284.65C468.183 284.166 468.423 283.751 468.736 283.404C469.049 283.056 469.432 282.787 469.885 282.597C470.338 282.403 470.853 282.306 471.432 282.306C472.007 282.306 472.521 282.403 472.974 282.597C473.43 282.787 473.813 283.056 474.123 283.404C474.436 283.751 474.675 284.166 474.838 284.65C475.005 285.133 475.088 285.666 475.088 286.248ZM474.087 286.248C474.087 285.802 474.028 285.392 473.909 285.017C473.79 284.639 473.616 284.316 473.388 284.047C473.163 283.775 472.886 283.564 472.555 283.414C472.225 283.261 471.851 283.184 471.432 283.184C471.01 283.184 470.634 283.261 470.304 283.414C469.973 283.564 469.694 283.775 469.466 284.047C469.241 284.316 469.07 284.639 468.95 285.017C468.831 285.392 468.772 285.802 468.772 286.248C468.772 286.704 468.826 287.121 468.935 287.499C469.044 287.873 469.209 288.195 469.43 288.464C469.652 288.733 469.927 288.942 470.258 289.092C470.591 289.238 470.983 289.312 471.432 289.312C471.878 289.312 472.268 289.238 472.601 289.092C472.935 288.942 473.211 288.733 473.429 288.464C473.65 288.195 473.815 287.873 473.924 287.499C474.033 287.121 474.087 286.704 474.087 286.248ZM476.296 284.532H477.235V287.177L479.998 284.532H481.229L478.66 286.947L481.269 290.001H480.059L477.925 287.519L477.235 288.096V290.001H476.296V284.532ZM483.585 285.349H481.701V284.532H486.409V285.349H484.525V290.001H483.585V285.349Z" fill="#A6ACBE"/>
    <rect x="469.854" y="198" width="4" height="72" rx="2" fill="url(#paint17_linear)"/>
    <rect x="479.564" y="204" width="4" height="66" rx="2" fill="url(#paint18_linear)"/>
    <path d="M518.186 282.495H519.187V285.589H523.18V282.495H524.186V290.001H523.18V286.467H519.187V290.001H518.186V282.495ZM529.581 287.259C529.581 286.956 529.547 286.678 529.479 286.427C529.411 286.171 529.309 285.952 529.173 285.768C529.036 285.584 528.868 285.441 528.667 285.339C528.47 285.233 528.24 285.181 527.978 285.181C527.716 285.181 527.486 285.233 527.288 285.339C527.091 285.441 526.924 285.584 526.788 285.768C526.652 285.952 526.55 286.171 526.482 286.427C526.413 286.678 526.379 286.956 526.379 287.259C526.379 287.565 526.413 287.848 526.482 288.107C526.55 288.362 526.652 288.581 526.788 288.765C526.924 288.949 527.091 289.094 527.288 289.199C527.486 289.301 527.716 289.352 527.978 289.352C528.24 289.352 528.47 289.301 528.667 289.199C528.868 289.094 529.036 288.949 529.173 288.765C529.309 288.581 529.411 288.362 529.479 288.107C529.547 287.848 529.581 287.565 529.581 287.259ZM530.521 287.259C530.521 287.708 530.463 288.113 530.347 288.474C530.231 288.832 530.064 289.136 529.847 289.388C529.629 289.64 529.361 289.834 529.045 289.97C528.732 290.103 528.376 290.169 527.978 290.169C527.579 290.169 527.224 290.103 526.91 289.97C526.597 289.834 526.332 289.64 526.114 289.388C525.896 289.136 525.729 288.832 525.613 288.474C525.498 288.113 525.44 287.708 525.44 287.259C525.44 286.816 525.498 286.416 525.613 286.059C525.729 285.701 525.896 285.397 526.114 285.145C526.332 284.893 526.597 284.701 526.91 284.568C527.224 284.432 527.579 284.364 527.978 284.364C528.376 284.364 528.732 284.432 529.045 284.568C529.361 284.701 529.629 284.893 529.847 285.145C530.064 285.397 530.231 285.701 530.347 286.059C530.463 286.416 530.521 286.816 530.521 287.259ZM536.135 290.001H535.19V287.836H533.98C533.762 287.836 533.572 287.841 533.408 287.851C533.248 287.858 533.112 287.889 533 287.943C532.887 287.998 532.799 288.083 532.734 288.198C532.673 288.314 532.634 288.479 532.617 288.694L532.576 289.281C532.572 289.298 532.569 289.332 532.566 289.383C532.562 289.434 532.555 289.495 532.545 289.567C532.535 289.635 532.521 289.708 532.504 289.787C532.487 289.865 532.467 289.936 532.443 290.001H531.406C531.43 289.97 531.452 289.94 531.473 289.909C531.497 289.875 531.519 289.829 531.539 289.771C531.563 289.713 531.584 289.638 531.601 289.547C531.621 289.455 531.64 289.337 531.657 289.194L531.718 288.495C531.738 288.311 531.762 288.161 531.789 288.045C531.82 287.929 531.861 287.834 531.912 287.759C531.966 287.681 532.036 287.618 532.121 287.57C532.206 287.519 532.314 287.468 532.443 287.417C531.858 287.206 531.565 286.774 531.565 286.12C531.565 285.957 531.585 285.807 531.626 285.671C531.667 285.531 531.72 285.407 531.784 285.298C531.852 285.189 531.927 285.094 532.009 285.012C532.094 284.927 532.179 284.857 532.264 284.803C532.37 284.735 532.486 284.684 532.612 284.65C532.738 284.612 532.864 284.585 532.989 284.568C533.119 284.551 533.245 284.541 533.367 284.537C533.49 284.534 533.602 284.532 533.704 284.532H536.135V290.001ZM535.19 285.359H533.761C533.638 285.359 533.532 285.361 533.444 285.364C533.355 285.364 533.277 285.368 533.209 285.375C533.144 285.381 533.085 285.393 533.03 285.41C532.976 285.427 532.92 285.451 532.862 285.482C532.743 285.55 532.651 285.65 532.586 285.783C532.525 285.916 532.494 286.057 532.494 286.207C532.494 286.353 532.516 286.478 532.561 286.58C532.605 286.678 532.663 286.76 532.734 286.825C532.809 286.889 532.891 286.941 532.979 286.978C533.071 287.012 533.163 287.038 533.255 287.055C533.35 287.068 533.442 287.077 533.531 287.08C533.619 287.084 533.696 287.085 533.761 287.085H535.19V285.359Z" fill="#A6ACBE"/>
    <rect x="520.65" y="168" width="4" height="102" rx="2" fill="url(#paint19_linear)"/>
    <rect x="530.36" y="222" width="4" height="48" rx="2" fill="url(#paint20_linear)"/>
    <path d="M568.396 291.609V289.122H569.075C569.147 288.959 569.213 288.794 569.274 288.627C569.336 288.457 569.392 288.266 569.443 288.055C569.497 287.84 569.547 287.595 569.591 287.32C569.639 287.044 569.683 286.717 569.724 286.339C569.771 285.941 569.809 285.549 569.836 285.165C569.863 284.777 569.884 284.414 569.897 284.077C569.914 283.74 569.924 283.435 569.928 283.163C569.935 282.891 569.94 282.668 569.943 282.494H574.661V289.122H575.509V291.609H574.57V290H569.336V291.609H568.396ZM570.883 283.372C570.883 283.859 570.862 284.344 570.821 284.828C570.784 285.311 570.738 285.798 570.684 286.288C570.646 286.676 570.607 287.006 570.566 287.279C570.529 287.548 570.488 287.788 570.444 287.999C570.403 288.206 570.355 288.399 570.301 288.576C570.25 288.749 570.19 288.932 570.122 289.122H573.63V283.372H570.883ZM580.991 288.254C580.953 288.492 580.872 288.726 580.746 288.954C580.62 289.182 580.455 289.386 580.25 289.566C580.046 289.747 579.804 289.892 579.525 290C579.249 290.113 578.943 290.169 578.606 290.169C578.238 290.169 577.898 290.109 577.585 289.99C577.275 289.868 577.006 289.686 576.778 289.444C576.553 289.199 576.376 288.892 576.247 288.525C576.118 288.157 576.053 287.725 576.053 287.228C576.053 286.894 576.089 286.593 576.16 286.324C576.235 286.052 576.334 285.81 576.456 285.599C576.582 285.384 576.727 285.201 576.89 285.047C577.054 284.891 577.226 284.763 577.406 284.664C577.59 284.562 577.777 284.487 577.968 284.44C578.158 284.389 578.342 284.363 578.519 284.363C578.894 284.363 579.236 284.419 579.546 284.532C579.855 284.644 580.121 284.816 580.342 285.047C580.567 285.275 580.74 285.563 580.863 285.91C580.989 286.254 581.052 286.659 581.052 287.126V287.595H577.054C577.057 287.861 577.095 288.103 577.166 288.32C577.238 288.535 577.34 288.719 577.472 288.872C577.605 289.025 577.765 289.144 577.952 289.229C578.143 289.311 578.358 289.352 578.596 289.352C578.838 289.352 579.042 289.318 579.209 289.25C579.375 289.182 579.515 289.095 579.627 288.989C579.74 288.884 579.83 288.766 579.898 288.637C579.969 288.508 580.029 288.38 580.077 288.254H580.991ZM580.107 286.845C580.1 286.579 580.06 286.343 579.985 286.135C579.913 285.927 579.811 285.754 579.678 285.614C579.549 285.471 579.392 285.364 579.209 285.292C579.025 285.218 578.821 285.18 578.596 285.18C578.381 285.18 578.184 285.223 578.003 285.308C577.823 285.389 577.665 285.505 577.529 285.655C577.392 285.801 577.283 285.977 577.202 286.181C577.12 286.382 577.071 286.603 577.054 286.845H580.107ZM582.26 284.532H583.199V287.177L585.962 284.532H587.192L584.624 286.947L587.233 290H586.023L583.888 287.519L583.199 288.096V290H582.26V284.532Z" fill="#A6ACBE"/>
    <rect x="571.447" y="128" width="4" height="142" rx="2" fill="url(#paint21_linear)"/>
    <rect x="581.157" y="184" width="4" height="86" rx="2" fill="url(#paint22_linear)"/>
    <defs>
        <linearGradient id="paint0_linear" x1="493" y1="24" x2="493" y2="32" gradientUnits="userSpaceOnUse">
            <stop stop-color="#281AC8"/>
            <stop offset="1" stop-color="#339DFA"/>
        </linearGradient>
        <linearGradient id="paint1_linear" x1="65.4932" y1="156" x2="65.4932" y2="270" gradientUnits="userSpaceOnUse">
            <stop stop-color="#281AC8"/>
            <stop offset="1" stop-color="#339DFA"/>
        </linearGradient>
        <linearGradient id="paint2_linear" x1="75.2026" y1="174" x2="75.2026" y2="270" gradientUnits="userSpaceOnUse">
            <stop stop-color="#71F05A"/>
            <stop offset="1" stop-color="#339DFA"/>
        </linearGradient>
        <linearGradient id="paint3_linear" x1="116.288" y1="182" x2="116.288" y2="270" gradientUnits="userSpaceOnUse">
            <stop stop-color="#281AC8"/>
            <stop offset="1" stop-color="#339DFA"/>
        </linearGradient>
        <linearGradient id="paint4_linear" x1="125.998" y1="228" x2="125.998" y2="270" gradientUnits="userSpaceOnUse">
            <stop stop-color="#71F05A"/>
            <stop offset="1" stop-color="#339DFA"/>
        </linearGradient>
        <linearGradient id="paint5_linear" x1="167.085" y1="125" x2="167.085" y2="270" gradientUnits="userSpaceOnUse">
            <stop stop-color="#281AC8"/>
            <stop offset="1" stop-color="#339DFA"/>
        </linearGradient>
        <linearGradient id="paint6_linear" x1="176.794" y1="190" x2="176.794" y2="270" gradientUnits="userSpaceOnUse">
            <stop stop-color="#71F05A"/>
            <stop offset="1" stop-color="#339DFA"/>
        </linearGradient>
        <linearGradient id="paint7_linear" x1="217.879" y1="222" x2="217.879" y2="270" gradientUnits="userSpaceOnUse">
            <stop stop-color="#281AC8"/>
            <stop offset="1" stop-color="#339DFA"/>
        </linearGradient>
        <linearGradient id="paint8_linear" x1="227.59" y1="228" x2="227.59" y2="270" gradientUnits="userSpaceOnUse">
            <stop stop-color="#71F05A"/>
            <stop offset="1" stop-color="#339DFA"/>
        </linearGradient>
        <linearGradient id="paint9_linear" x1="268.675" y1="204" x2="268.675" y2="270" gradientUnits="userSpaceOnUse">
            <stop stop-color="#281AC8"/>
            <stop offset="1" stop-color="#339DFA"/>
        </linearGradient>
        <linearGradient id="paint10_linear" x1="278.384" y1="230" x2="278.384" y2="270" gradientUnits="userSpaceOnUse">
            <stop stop-color="#71F05A"/>
            <stop offset="1" stop-color="#339DFA"/>
        </linearGradient>
        <linearGradient id="paint11_linear" x1="319.472" y1="214" x2="319.472" y2="270" gradientUnits="userSpaceOnUse">
            <stop stop-color="#281AC8"/>
            <stop offset="1" stop-color="#339DFA"/>
        </linearGradient>
        <linearGradient id="paint12_linear" x1="329.181" y1="246" x2="329.181" y2="270" gradientUnits="userSpaceOnUse">
            <stop stop-color="#71F05A"/>
            <stop offset="1" stop-color="#339DFA"/>
        </linearGradient>
        <linearGradient id="paint13_linear" x1="370.265" y1="164" x2="370.265" y2="270" gradientUnits="userSpaceOnUse">
            <stop stop-color="#281AC8"/>
            <stop offset="1" stop-color="#339DFA"/>
        </linearGradient>
        <linearGradient id="paint14_linear" x1="379.976" y1="180" x2="379.976" y2="270" gradientUnits="userSpaceOnUse">
            <stop stop-color="#71F05A"/>
            <stop offset="1" stop-color="#339DFA"/>
        </linearGradient>
        <linearGradient id="paint15_linear" x1="421.061" y1="156" x2="421.061" y2="270" gradientUnits="userSpaceOnUse">
            <stop stop-color="#281AC8"/>
            <stop offset="1" stop-color="#339DFA"/>
        </linearGradient>
        <linearGradient id="paint16_linear" x1="430.77" y1="198" x2="430.77" y2="270" gradientUnits="userSpaceOnUse">
            <stop stop-color="#71F05A"/>
            <stop offset="1" stop-color="#339DFA"/>
        </linearGradient>
        <linearGradient id="paint17_linear" x1="471.854" y1="198" x2="471.854" y2="270" gradientUnits="userSpaceOnUse">
            <stop stop-color="#281AC8"/>
            <stop offset="1" stop-color="#339DFA"/>
        </linearGradient>
        <linearGradient id="paint18_linear" x1="481.564" y1="204" x2="481.564" y2="270" gradientUnits="userSpaceOnUse">
            <stop stop-color="#71F05A"/>
            <stop offset="1" stop-color="#339DFA"/>
        </linearGradient>
        <linearGradient id="paint19_linear" x1="522.65" y1="168" x2="522.65" y2="270" gradientUnits="userSpaceOnUse">
            <stop stop-color="#281AC8"/>
            <stop offset="1" stop-color="#339DFA"/>
        </linearGradient>
        <linearGradient id="paint20_linear" x1="532.36" y1="222" x2="532.36" y2="270" gradientUnits="userSpaceOnUse">
            <stop stop-color="#71F05A"/>
            <stop offset="1" stop-color="#339DFA"/>
        </linearGradient>
        <linearGradient id="paint21_linear" x1="573.447" y1="128" x2="573.447" y2="270" gradientUnits="userSpaceOnUse">
            <stop stop-color="#281AC8"/>
            <stop offset="1" stop-color="#339DFA"/>
        </linearGradient>
        <linearGradient id="paint22_linear" x1="583.157" y1="184" x2="583.157" y2="270" gradientUnits="userSpaceOnUse">
            <stop stop-color="#71F05A"/>
            <stop offset="1" stop-color="#339DFA"/>
        </linearGradient>
    </defs>
</svg>
