<svg width="14" height="14" viewBox="0 0 14 14" fill="none" xmlns="http://www.w3.org/2000/svg">
    <path d="M6.98636 0.0136719C4.75926 0.0136719 2.94738 1.82558 2.94738 4.05264C2.94738 5.43211 3.64271 6.65208 4.70113 7.38103C3.71295 7.72204 2.80722 8.28532 2.0463 9.04624C0.726715 10.3659 0 12.1203 0 13.9864H1.09162C1.09162 10.736 3.73598 8.09164 6.98636 8.09164C9.21345 8.09164 11.0253 6.27974 11.0253 4.05264C11.0253 1.82555 9.21345 0.0136719 6.98636 0.0136719ZM6.98636 7.00003C5.36118 7.00003 4.039 5.67785 4.039 4.05267C4.039 2.4275 5.36118 1.10529 6.98636 1.10529C8.61153 1.10529 9.93371 2.42747 9.93371 4.05267C9.93371 5.67788 8.61153 7.00003 6.98636 7.00003Z" fill="white"/>
    <path d="M11.7063 10.603V8.31055H10.6147V10.603H8.32227V11.6946H10.6147V13.987H11.7063V11.6946H13.9987V10.603H11.7063Z" fill="white"/>
</svg>
