<svg width="20" height="20" viewBox="0 0 20 20" fill="none" xmlns="http://www.w3.org/2000/svg">
    <path d="M17.0622 0.833496C16.0085 0.833496 15.1333 1.61595 14.9812 2.63317L14.3412 3.27639C13.2274 4.3959 11.5872 5.06427 9.95339 5.06427H5.74421C4.82965 5.06427 4.04987 5.6538 3.76028 6.47452H3.63962C2.09232 6.47452 0.833496 7.7398 0.833496 9.29503C0.833496 10.8503 2.09232 12.1155 3.63962 12.1155H3.76028C3.972 12.7156 4.44572 13.1917 5.04268 13.4045V17.0514C5.04268 18.2179 5.98685 19.1668 7.14732 19.1668C8.30774 19.1668 9.25186 18.2179 9.25186 17.0514V13.5258H9.95339C11.5871 13.5258 13.2274 14.1942 14.3412 15.3137L14.9812 15.9569C15.1333 16.9741 16.0085 17.7566 17.0623 17.7566C18.2227 17.7566 19.1668 16.8076 19.1668 15.6412V2.94888C19.1668 1.78246 18.2227 0.833496 17.0622 0.833496ZM3.63962 10.7053C2.86597 10.7053 2.23656 10.0726 2.23656 9.29503C2.23656 8.51742 2.86597 7.88478 3.63962 7.88478V10.7053ZM7.8488 17.0514C7.8488 17.4403 7.53409 17.7566 7.14727 17.7566C6.76045 17.7566 6.44574 17.4403 6.44574 17.0514V13.5258H7.8488V17.0514ZM9.25186 12.1155H5.74421C5.35739 12.1155 5.04268 11.7992 5.04268 11.4104V7.17965C5.04268 6.79084 5.35739 6.47452 5.74421 6.47452H9.25186V12.1155ZM14.9576 13.9651C13.7725 12.9342 12.2487 12.2936 10.6502 12.1475L10.6503 6.44251C12.2487 6.2965 13.7725 5.65591 14.9576 4.62488V13.9651ZM17.7638 15.6412C17.7638 16.03 17.4491 16.3463 17.0623 16.3463H17.0622C16.6754 16.3463 16.3607 16.03 16.3607 15.6412V2.94888C16.3607 2.56007 16.6754 2.24375 17.0623 2.24375C17.4491 2.24375 17.7638 2.56007 17.7638 2.94888V15.6412Z" fill="white"/>
</svg>
