<svg width="20" height="20" viewBox="0 0 20 20" fill="none" xmlns="http://www.w3.org/2000/svg">
    <path d="M15.5555 16.6673H3.33328V4.4451H10.6777L11.7888 3.33398H3.33328C3.03859 3.33398 2.75598 3.45105 2.5476 3.65942C2.33923 3.86779 2.22217 4.15041 2.22217 4.4451V16.6673C2.22217 16.962 2.33923 17.2446 2.5476 17.453C2.75598 17.6614 3.03859 17.7784 3.33328 17.7784H15.5555C15.8502 17.7784 16.1328 17.6614 16.3412 17.453C16.5495 17.2446 16.6666 16.962 16.6666 16.6673V8.33398L15.5555 9.4451V16.6673Z" fill="#1CD1A1"/>
    <path d="M18.6274 3.24444L16.7552 1.37222C16.6721 1.2889 16.5734 1.2228 16.4647 1.1777C16.356 1.13259 16.2395 1.10937 16.1218 1.10938C16.0042 1.10938 15.8876 1.13259 15.779 1.1777C15.6703 1.2228 15.5716 1.2889 15.4885 1.37222L7.87182 9.03333L7.25515 11.7056C7.22888 11.8351 7.23164 11.9688 7.26324 12.0972C7.29484 12.2255 7.35448 12.3452 7.43789 12.4478C7.52129 12.5503 7.62639 12.6331 7.7456 12.6901C7.86482 12.7472 7.99521 12.7771 8.12737 12.7778C8.19569 12.7853 8.26462 12.7853 8.33293 12.7778L11.0274 12.1833L18.6274 4.51111C18.7107 4.42802 18.7768 4.32931 18.8219 4.22063C18.867 4.11195 18.8902 3.99544 18.8902 3.87777C18.8902 3.76011 18.867 3.6436 18.8219 3.53492C18.7768 3.42624 18.7107 3.32753 18.6274 3.24444ZM10.4496 11.1556L8.41626 11.6056L8.88849 9.58889L14.6218 3.81666L16.1885 5.38333L10.4496 11.1556ZM16.8163 4.75555L15.2496 3.18889L16.1107 2.31111L17.6885 3.88889L16.8163 4.75555Z" fill="#1CD1A1"/>
</svg>
