<svg width="14" height="14" viewBox="0 0 14 14" fill="none" xmlns="http://www.w3.org/2000/svg">
    <path d="M10.889 11.6668H2.33344V3.11127H7.47455L8.25233 2.3335H2.33344C2.12716 2.3335 1.92933 2.41544 1.78347 2.5613C1.63761 2.70716 1.55566 2.90499 1.55566 3.11127V11.6668C1.55566 11.8731 1.63761 12.0709 1.78347 12.2168C1.92933 12.3627 2.12716 12.4446 2.33344 12.4446H10.889C11.0953 12.4446 11.2931 12.3627 11.439 12.2168C11.5848 12.0709 11.6668 11.8731 11.6668 11.6668V5.8335L10.889 6.61127V11.6668Z" fill="#339DFA"/>
    <path d="M13.0395 2.27091L11.7289 0.960358C11.6707 0.902036 11.6016 0.855764 11.5256 0.824191C11.4495 0.792619 11.3679 0.776367 11.2856 0.776367C11.2032 0.776367 11.1216 0.792619 11.0456 0.824191C10.9695 0.855764 10.9004 0.902036 10.8422 0.960358L5.51057 6.32314L5.0789 8.19369C5.06051 8.28436 5.06244 8.37799 5.08456 8.46782C5.10668 8.55766 5.14843 8.64148 5.20681 8.71325C5.2652 8.78502 5.33876 8.84296 5.42222 8.8829C5.50567 8.92284 5.59694 8.94379 5.68946 8.94425C5.73727 8.94951 5.78553 8.94951 5.83334 8.94425L7.71946 8.52814L13.0395 3.15758C13.0978 3.09942 13.144 3.03032 13.1756 2.95424C13.2072 2.87817 13.2234 2.79661 13.2234 2.71425C13.2234 2.63188 13.2072 2.55032 13.1756 2.47425C13.144 2.39817 13.0978 2.32908 13.0395 2.27091ZM7.31501 7.80869L5.89168 8.12369L6.22223 6.71202L10.2356 2.67147L11.3322 3.76814L7.31501 7.80869ZM11.7717 3.32869L10.675 2.23202L11.2778 1.61758L12.3822 2.72202L11.7717 3.32869Z" fill="#339DFA"/>
</svg>
