<svg width="16" height="16" viewBox="0 0 16 16" fill="none" xmlns="http://www.w3.org/2000/svg">
    <g clip-path="url(#clip0)">
        <path d="M12 12.0003H1.6V4.80029H3.676C3.676 4.80029 4.2272 4.08349 5.412 3.20029H0.8C0.587827 3.20029 0.384344 3.28458 0.234315 3.43461C0.0842855 3.58464 0 3.78812 0 4.00029L0 12.8003C0 13.0125 0.0842855 13.216 0.234315 13.366C0.384344 13.516 0.587827 13.6003 0.8 13.6003H12.8C13.0122 13.6003 13.2157 13.516 13.3657 13.366C13.5157 13.216 13.6 13.0125 13.6 12.8003V9.80349L12 11.1195V12.0003ZM10.6888 6.44029V9.28109L16 5.12029L10.6888 1.12109V3.62589C4.24 3.62589 4.24 10.0003 4.24 10.0003C6.0656 7.00189 7.1888 6.44029 10.6888 6.44029Z" fill="#3F60F7"/>
    </g>
    <defs>
        <clipPath id="clip0">
            <rect width="16" height="16" fill="white"/>
        </clipPath>
    </defs>
</svg>
