<svg width="16" height="16" viewBox="0 0 16 16" fill="none" xmlns="http://www.w3.org/2000/svg">
    <path d="M6.22222 0H0.888889C0.653141 0 0.427048 0.0936505 0.260349 0.260349C0.0936505 0.427048 0 0.653141 0 0.888889V6.22222C0 6.45797 0.0936505 6.68406 0.260349 6.85076C0.427048 7.01746 0.653141 7.11111 0.888889 7.11111H6.22222C6.45797 7.11111 6.68406 7.01746 6.85076 6.85076C7.01746 6.68406 7.11111 6.45797 7.11111 6.22222V0.888889C7.11111 0.653141 7.01746 0.427048 6.85076 0.260349C6.68406 0.0936505 6.45797 0 6.22222 0ZM5.33333 5.33333H1.77778V1.77778H5.33333V5.33333ZM9.77778 7.11111H15.1111C15.3469 7.11111 15.573 7.01746 15.7397 6.85076C15.9064 6.68406 16 6.45797 16 6.22222V0.888889C16 0.653141 15.9064 0.427048 15.7397 0.260349C15.573 0.0936505 15.3469 0 15.1111 0H9.77778C9.54203 0 9.31594 0.0936505 9.14924 0.260349C8.98254 0.427048 8.88889 0.653141 8.88889 0.888889V6.22222C8.88889 6.45797 8.98254 6.68406 9.14924 6.85076C9.31594 7.01746 9.54203 7.11111 9.77778 7.11111ZM10.6667 1.77778H14.2222V5.33333H10.6667V1.77778ZM0 15.1111C0 15.3469 0.0936505 15.573 0.260349 15.7397C0.427048 15.9064 0.653141 16 0.888889 16H6.22222C6.45797 16 6.68406 15.9064 6.85076 15.7397C7.01746 15.573 7.11111 15.3469 7.11111 15.1111V9.77778C7.11111 9.54203 7.01746 9.31594 6.85076 9.14924C6.68406 8.98254 6.45797 8.88889 6.22222 8.88889H0.888889C0.653141 8.88889 0.427048 8.98254 0.260349 9.14924C0.0936505 9.31594 0 9.54203 0 9.77778V15.1111ZM1.77778 10.6667H5.33333V14.2222H1.77778V10.6667ZM8.88889 15.1111C8.88889 15.3469 8.98254 15.573 9.14924 15.7397C9.31594 15.9064 9.54203 16 9.77778 16H15.1111C15.3469 16 15.573 15.9064 15.7397 15.7397C15.9064 15.573 16 15.3469 16 15.1111V9.77778C16 9.54203 15.9064 9.31594 15.7397 9.14924C15.573 8.98254 15.3469 8.88889 15.1111 8.88889H9.77778C9.54203 8.88889 9.31594 8.98254 9.14924 9.14924C8.98254 9.31594 8.88889 9.54203 8.88889 9.77778V15.1111ZM10.6667 10.6667H14.2222V14.2222H10.6667V10.6667Z" fill="url(#paint0_linear)"/>
    <defs>
        <linearGradient id="paint0_linear" x1="8" y1="0" x2="8" y2="16" gradientUnits="userSpaceOnUse">
            <stop stop-color="#4A27F3"/>
            <stop offset="1" stop-color="#339DFA"/>
        </linearGradient>
    </defs>
</svg>
