<svg width="16" height="16" viewBox="0 0 16 16" fill="none" xmlns="http://www.w3.org/2000/svg">
    <path d="M13.0286 6.66667H6.4C5.76914 6.66667 5.71429 7.26267 5.71429 8C5.71429 8.73733 5.76914 9.33333 6.4 9.33333H13.0286C13.6594 9.33333 13.7143 8.73733 13.7143 8C13.7143 7.26267 13.6594 6.66667 13.0286 6.66667ZM15.3143 13.3333H6.4C5.76914 13.3333 5.71429 13.9293 5.71429 14.6667C5.71429 15.404 5.76914 16 6.4 16H15.3143C15.9451 16 16 15.404 16 14.6667C16 13.9293 15.9451 13.3333 15.3143 13.3333ZM6.4 2.66667H15.3143C15.9451 2.66667 16 2.07067 16 1.33333C16 0.596 15.9451 0 15.3143 0H6.4C5.76914 0 5.71429 0.596 5.71429 1.33333C5.71429 2.07067 5.76914 2.66667 6.4 2.66667ZM2.74286 6.66667H0.685714C0.0548571 6.66667 0 7.26267 0 8C0 8.73733 0.0548571 9.33333 0.685714 9.33333H2.74286C3.37371 9.33333 3.42857 8.73733 3.42857 8C3.42857 7.26267 3.37371 6.66667 2.74286 6.66667ZM2.74286 13.3333H0.685714C0.0548571 13.3333 0 13.9293 0 14.6667C0 15.404 0.0548571 16 0.685714 16H2.74286C3.37371 16 3.42857 15.404 3.42857 14.6667C3.42857 13.9293 3.37371 13.3333 2.74286 13.3333ZM2.74286 0H0.685714C0.0548571 0 0 0.596 0 1.33333C0 2.07067 0.0548571 2.66667 0.685714 2.66667H2.74286C3.37371 2.66667 3.42857 2.07067 3.42857 1.33333C3.42857 0.596 3.37371 0 2.74286 0Z" fill="#858585"/>
</svg>
