<svg width="20" height="20" viewBox="0 0 20 20" fill="none" xmlns="http://www.w3.org/2000/svg">
    <path d="M16.6667 5.83203H3.33341C2.41294 5.83203 1.66675 6.57822 1.66675 7.4987V15.832C1.66675 16.7525 2.41294 17.4987 3.33341 17.4987H16.6667C17.5872 17.4987 18.3334 16.7525 18.3334 15.832V7.4987C18.3334 6.57822 17.5872 5.83203 16.6667 5.83203Z" stroke="white" stroke-width="2" stroke-linecap="round" stroke-linejoin="round"/>
    <path d="M13.3334 17.5V4.16667C13.3334 3.72464 13.1578 3.30072 12.8453 2.98816C12.5327 2.67559 12.1088 2.5 11.6667 2.5H8.33341C7.89139 2.5 7.46746 2.67559 7.1549 2.98816C6.84234 3.30072 6.66675 3.72464 6.66675 4.16667V17.5" stroke="white" stroke-width="2" stroke-linecap="round" stroke-linejoin="round"/>
</svg>
