<svg width="20" height="20" viewBox="0 0 20 20" fill="none" xmlns="http://www.w3.org/2000/svg">
    <path d="M6 12H11V13H6V12Z" fill="white"/>
    <path d="M6 9H14V10H6V9Z" fill="white"/>
    <path d="M6 15H9V16H6V15Z" fill="white"/>
    <path d="M16.6364 2.14286H14.5909V1.42857C14.5909 1.04969 14.4472 0.686328 14.1915 0.418419C13.9358 0.15051 13.5889 0 13.2273 0H7.77273C7.41107 0 7.06422 0.15051 6.80849 0.418419C6.55276 0.686328 6.40909 1.04969 6.40909 1.42857V2.14286H4.36364C4.00198 2.14286 3.65513 2.29337 3.3994 2.56128C3.14367 2.82919 3 3.19255 3 3.57143V18.5714C3 18.9503 3.14367 19.3137 3.3994 19.5816C3.65513 19.8495 4.00198 20 4.36364 20H16.6364C16.998 20 17.3449 19.8495 17.6006 19.5816C17.8563 19.3137 18 18.9503 18 18.5714V3.57143C18 3.19255 17.8563 2.82919 17.6006 2.56128C17.3449 2.29337 16.998 2.14286 16.6364 2.14286ZM7.77273 1.42857H13.2273V4.28571H7.77273V1.42857ZM16.6364 18.5714H4.36364V3.57143H6.40909V5.71429H14.5909V3.57143H16.6364V18.5714Z" fill="white"/>
</svg>
