<svg width="19" height="19" viewBox="0 0 19 19" fill="none" xmlns="http://www.w3.org/2000/svg">
<path d="M11.4 9.5H12.825V12.179L15.143 13.5185L14.4305 14.7535L11.4 13.0055V9.5ZM1.9 0H15.2C15.7039 0 16.1872 0.200178 16.5435 0.556497C16.8998 0.912816 17.1 1.39609 17.1 1.9V7.695C18.278 8.892 19 10.5355 19 12.35C19 14.1137 18.2994 15.8051 17.0523 17.0523C15.8051 18.2994 14.1137 19 12.35 19C10.5355 19 8.892 18.278 7.695 17.1H1.9C1.39609 17.1 0.912816 16.8998 0.556497 16.5435C0.200178 16.1872 0 15.7039 0 15.2V1.9C0 1.39609 0.200178 0.912816 0.556497 0.556497C0.912816 0.200178 1.39609 0 1.9 0ZM1.9 12.35V15.2H6.3365C5.928 14.3355 5.7 13.3665 5.7 12.35H1.9ZM1.9 5.7H7.6V2.85H1.9V5.7ZM15.2 5.7V2.85H9.5V5.7H15.2ZM1.9 10.45H5.9755C6.2985 9.3575 6.897 8.379 7.695 7.6H1.9V10.45ZM12.35 7.7425C11.128 7.7425 9.95608 8.22793 9.092 9.092C8.22793 9.95608 7.7425 11.128 7.7425 12.35C7.7425 14.896 9.804 16.9575 12.35 16.9575C12.9551 16.9575 13.5542 16.8383 14.1132 16.6068C14.6722 16.3752 15.1801 16.0358 15.608 15.608C16.0358 15.1801 16.3752 14.6722 16.6068 14.1132C16.8383 13.5542 16.9575 12.9551 16.9575 12.35C16.9575 9.804 14.896 7.7425 12.35 7.7425Z" fill="white"/>
</svg>
