<svg width="15" height="15" viewBox="0 0 15 15" fill="none" xmlns="http://www.w3.org/2000/svg">
    <path fill-rule="evenodd" clip-rule="evenodd" d="M10.7632 9.51367L14.9038 13.6543L13.6538 14.9043L9.51318 10.7637V10.0996L9.27881 9.86523C8.26318 10.7246 7.09132 11.1543 5.76318 11.1543C4.25276 11.1543 2.97022 10.627 1.91553 9.57227C0.860835 8.51757 0.333496 7.24154 0.333496 5.74414C0.333496 4.24674 0.860835 2.97071 1.91553 1.91602C2.97022 0.861323 4.24625 0.333984 5.74365 0.333984C7.24106 0.333984 8.51708 0.861323 9.57178 1.91602C10.6265 2.97071 11.1538 4.25325 11.1538 5.76367C11.1538 7.0918 10.7241 8.26367 9.86475 9.2793L10.0991 9.51367H10.7632ZM5.76318 9.51367C6.80486 9.51367 7.69026 9.14909 8.41943 8.41992C9.1486 7.69075 9.51318 6.80534 9.51318 5.76367C9.51318 4.722 9.1486 3.83659 8.41943 3.10742C7.69026 2.37825 6.80486 2.01367 5.76318 2.01367C4.72151 2.01367 3.8361 2.37825 3.10693 3.10742C2.37776 3.83659 2.01318 4.722 2.01318 5.76367C2.01318 6.80534 2.37776 7.69075 3.10693 8.41992C3.8361 9.14909 4.72151 9.51367 5.76318 9.51367Z" fill="#333333"/>
    <mask id="mask0" mask-type="alpha" maskUnits="userSpaceOnUse" x="0" y="0" width="15" height="15">
        <path fill-rule="evenodd" clip-rule="evenodd" d="M10.7632 9.51367L14.9038 13.6543L13.6538 14.9043L9.51318 10.7637V10.0996L9.27881 9.86523C8.26318 10.7246 7.09132 11.1543 5.76318 11.1543C4.25276 11.1543 2.97022 10.627 1.91553 9.57227C0.860835 8.51757 0.333496 7.24154 0.333496 5.74414C0.333496 4.24674 0.860835 2.97071 1.91553 1.91602C2.97022 0.861323 4.24625 0.333984 5.74365 0.333984C7.24106 0.333984 8.51708 0.861323 9.57178 1.91602C10.6265 2.97071 11.1538 4.25325 11.1538 5.76367C11.1538 7.0918 10.7241 8.26367 9.86475 9.2793L10.0991 9.51367H10.7632ZM5.76318 9.51367C6.80486 9.51367 7.69026 9.14909 8.41943 8.41992C9.1486 7.69075 9.51318 6.80534 9.51318 5.76367C9.51318 4.722 9.1486 3.83659 8.41943 3.10742C7.69026 2.37825 6.80486 2.01367 5.76318 2.01367C4.72151 2.01367 3.8361 2.37825 3.10693 3.10742C2.37776 3.83659 2.01318 4.722 2.01318 5.76367C2.01318 6.80534 2.37776 7.69075 3.10693 8.41992C3.8361 9.14909 4.72151 9.51367 5.76318 9.51367Z" fill="white"/>
    </mask>
    <g mask="url(#mask0)">
        <rect x="-22.1665" y="-22.166" width="60" height="60" fill="url(#paint0_linear)"/>
    </g>
    <defs>
        <linearGradient id="paint0_linear" x1="7.8335" y1="-22.166" x2="7.8335" y2="37.834" gradientUnits="userSpaceOnUse">
            <stop stop-color="#4A27F3"/>
            <stop offset="1" stop-color="#339DFA"/>
        </linearGradient>
    </defs>
</svg>
