<svg width="51" height="47" viewBox="0 0 51 47" fill="none" xmlns="http://www.w3.org/2000/svg">
<path d="M0.568207 28.7593V21.8634C0.568207 21.1337 0.931349 20.7688 1.65763 20.7688H13.7503L8.41208 29.8539H1.65763C0.931349 29.8539 0.568207 29.489 0.568207 28.7593ZM9.06574 42.77L5.25274 45.397C5.03486 45.47 4.87144 45.5065 4.7625 45.5065C4.65356 45.5065 4.58093 45.4517 4.54461 45.3423C4.5083 45.2328 4.49014 45.0686 4.49014 44.8497L4.92591 40.3619C5.07117 39.6322 5.47063 39.4497 6.12428 39.8146L9.06574 41.5659C9.71939 41.9308 9.71939 42.3322 9.06574 42.77ZM10.0462 40.2524L6.99583 38.5011C6.4148 38.1362 6.30585 37.6254 6.669 36.9687L20.3958 12.9972C20.7589 12.3405 21.2673 12.1945 21.921 12.5594L24.9714 14.3107C25.5524 14.6756 25.6613 15.1864 25.2982 15.8432L11.5714 39.8146C11.2083 40.4714 10.6999 40.6173 10.0462 40.2524ZM20.5047 29.8539L25.734 20.7688H28.7844L33.0331 29.8539H20.5047ZM37.6087 32.5903C36.6646 32.1525 33.7594 26.2052 28.8933 14.7486C28.748 14.3837 28.4757 13.7634 28.0762 12.8878C27.6768 12.0121 27.3318 11.2277 27.0413 10.5344C26.7508 9.84118 26.4058 9.00199 26.0063 8.01687C25.6069 7.03174 25.28 6.2108 25.0258 5.55405C24.7716 4.89729 24.5356 4.18581 24.3177 3.4196C24.0998 2.65339 24.009 2.1061 24.0454 1.77772C24.0817 1.44935 24.1725 1.1757 24.3177 0.956782C24.6082 0.810837 25.1529 1.3034 25.9519 2.43447C26.7508 3.56555 27.8039 5.26216 29.1112 7.5243C30.4185 9.78645 31.399 11.3918 32.0526 12.3405C32.8516 13.654 33.9773 15.6425 35.4299 18.306C36.8824 20.9695 38.2261 23.487 39.4607 25.8586C40.6954 28.2302 41.3854 29.5255 41.5307 29.7444C41.8212 30.3282 41.7667 30.8755 41.3672 31.3863C40.9678 31.8971 40.5139 32.262 40.0055 32.4809C39.1339 32.9917 38.335 33.0282 37.6087 32.5903ZM41.4217 38.9389L39.6786 36.093C39.3155 35.3633 39.4607 34.816 40.1144 34.4511L41.8575 33.5755C42.5838 33.1376 43.1285 33.3201 43.4916 34.1228L44.9079 36.8592C45.3437 37.589 45.1621 38.1727 44.3632 38.6106L43.1648 39.2673C42.5838 39.7781 42.0027 39.6687 41.4217 38.9389ZM48.0672 46.2727C47.922 45.9078 47.232 45.47 45.9973 44.9592C44.7626 44.4484 43.9274 43.8646 43.4916 43.2078C42.6201 41.9673 42.729 40.9092 43.8185 40.0335C45.3437 39.1579 46.4512 39.2491 47.1412 40.3072C47.8312 41.3653 48.1398 42.6241 48.0672 44.0835V46.2727ZM50.6818 28.7593C50.6818 29.489 50.3187 29.8539 49.5924 29.8539H43.6006C43.4553 29.416 43.3101 29.0877 43.1648 28.8687C43.0922 28.6498 42.729 27.9566 42.0754 26.789C41.7849 26.2052 41.2583 25.1836 40.4957 23.7242C39.7331 22.2647 39.2065 21.2796 38.916 20.7688H49.5924C50.3187 20.7688 50.6818 21.1337 50.6818 21.8634V28.7593Z" fill="#F5F5F5"/>
</svg>
