<svg width="148" height="240" viewBox="0 0 148 240" fill="none" xmlns="http://www.w3.org/2000/svg">
<g opacity="0.3">
<path d="M147.711 62.8414C154.656 79.4936 152.345 98.2908 149.828 115.782C147.312 133.273 145.111 152.103 152.109 168.719C155.33 176.578 160.64 183.472 163.752 191.425C166.516 198.408 167.564 205.977 166.783 213.312C166.294 219.224 164.066 224.663 160.442 228.794C154.758 234.756 145.65 235.419 137.982 232.157C130.382 228.487 123.812 222.386 119.147 214.666L125.139 208.794C126.203 211.96 128.145 214.718 130.668 216.647C133.191 218.575 136.156 219.568 139.109 219.473C142.063 219.378 144.843 218.201 147.025 216.122C149.207 214.043 150.67 211.175 151.192 207.958C152.68 198.962 146.736 190.306 142.403 182.071C135.201 168.342 131.855 152.73 132.828 137.395" fill="url(#paint0_linear)"/>
<g opacity="0.3">
<path opacity="0.3" d="M146.472 62.8705C153.793 79.63 151.655 98.348 149.29 115.758C146.925 133.168 144.9 151.921 152.274 168.646C155.671 176.554 161.197 183.54 164.483 191.541C167.401 198.565 168.567 206.141 167.857 213.449C167.428 219.34 165.212 224.725 161.548 228.777C155.796 234.616 146.472 235.098 138.574 231.69C130.742 227.878 123.934 221.657 119.059 213.859L125.127 208.116C126.257 211.298 128.281 214.089 130.889 216.064C133.498 218.039 136.548 219.088 139.574 219.052C142.599 219.016 145.434 217.896 147.644 215.863C149.855 213.831 151.32 210.997 151.815 207.796C153.23 198.845 147.032 190.088 142.492 181.782C134.944 167.935 131.324 152.285 132.133 136.997" fill="black"/>
</g>
<path d="M98.8096 221.564C102.559 222.681 106.416 222.952 110.159 222.362C113.901 221.772 117.452 220.333 120.607 218.128C123.761 215.923 126.456 212.996 128.533 209.518C130.611 206.04 132.03 202.081 132.708 197.87L150.558 87.1299C152.038 77.9139 153.326 67.6127 148.684 59.4336C145.232 53.5404 139.58 50.1022 134.044 47.1502C119.958 39.6463 105.05 33.5031 89.7709 33.3193C74.4918 33.1355 59.1289 39.5734 50.7342 53.3275C40.5234 70.0274 42.274 93.9498 32.3577 110.888C27.9393 118.452 21.4284 124.138 17.1082 131.781C10.1133 144.071 9.70615 159.45 12.2234 174.772C13.2876 181.285 16.0281 187.415 20.0911 192.371C24.1541 197.327 29.3531 200.881 35.0169 202.575L98.8096 221.564Z" fill="url(#paint1_linear)"/>
<path d="M120.086 38.8223C120.668 38.5774 121.298 38.4696 121.937 38.5058C123.802 38.5974 125.624 39.3786 127.101 40.7199C129.495 42.7882 131.114 45.7359 131.617 48.9393C132.209 53.0913 132.2 57.2753 131.59 61.3374C129.951 79.3895 126.814 104.177 122.777 131.393C120.738 144.982 118.815 157.94 117.052 169.766C116.141 175.645 115.305 181.239 114.51 186.487C113.715 191.734 113.055 196.636 112.084 201.142C111.298 205.157 109.866 208.946 107.854 212.342C106.275 214.881 104.178 216.972 101.71 218.469C100.147 219.402 98.4166 219.993 96.6088 220.212C95.9796 220.286 95.3394 220.275 94.7022 220.18C97.1059 220.035 99.413 219.303 101.454 218.038C103.807 216.537 105.811 214.494 107.336 212.041C109.246 208.676 110.587 204.94 111.299 200.995C112.106 196.595 112.766 191.693 113.557 186.471C114.348 181.248 115.124 175.586 115.989 169.694C117.726 157.885 119.626 144.921 121.619 131.319C125.656 104.102 128.925 79.3784 130.768 61.3846C131.42 57.4168 131.494 53.3218 130.987 49.2457C130.552 46.1924 129.072 43.3565 126.849 41.313C125.46 40.0029 123.75 39.1838 121.971 38.9758C120.708 38.6925 120.096 38.9017 120.086 38.8223Z" fill="#263238"/>
<path d="M89.8528 30.8148C89.8528 30.8148 88.3352 21.4089 93.6487 19.8915C98.9623 18.3741 112.999 18.7542 114.755 23.0531C116.51 27.352 115.851 35.4752 115.851 35.4752L111.683 34.1174C111.683 34.1174 111.891 26.4252 109.147 25.6123C106.404 24.7993 95.844 23.0693 94.6573 24.8034C93.8714 26.6666 93.5053 28.7458 93.5899 30.8669L89.8002 31.3636" fill="#263238"/>
<g opacity="0.3">
<path opacity="0.3" d="M23.9382 123.897L103.167 150.136L93.3608 208.971L15.4691 184.735C10.6754 173.508 9.19324 161.226 11.249 149.762C14.4902 129.781 23.9382 123.897 23.9382 123.897Z" fill="black"/>
</g>
<path d="M97.4475 166.717C97.3907 167.012 78.7932 162.193 55.7308 155.885C32.6683 149.578 14.1887 144.257 14.2454 143.961C14.3022 143.665 32.8997 148.485 55.9415 154.787C78.9833 161.089 97.5083 166.4 97.4475 166.717Z" fill="#263238"/>
<path d="M93.8748 166.112C94.0257 166.157 94.1328 167.224 94.4444 168.933C94.5853 169.808 94.8254 170.763 95.118 171.936C95.3307 172.665 95.3227 173.437 95.0954 174.127C94.9447 174.558 94.6585 174.903 94.2888 175.101C94.0911 175.203 93.8741 175.258 93.6512 175.262C93.4283 175.265 93.2041 175.217 92.9922 175.12C92.6353 174.946 92.315 174.68 92.0582 174.345C91.8015 174.009 91.6157 173.614 91.5167 173.193C91.3455 172.512 91.2847 171.809 91.3374 171.119C91.4424 170.021 91.7577 168.977 92.2617 168.059C93.0923 166.562 93.7877 165.833 93.8917 166.016C93.9957 166.198 93.5679 167.082 92.9571 168.618C92.6517 169.497 92.4859 170.439 92.4669 171.403C92.4057 172.396 92.7076 173.773 93.4107 174.032C94.1137 174.291 94.4422 173.327 94.1758 172.263C93.9316 171.228 93.7751 170.175 93.7084 169.119C93.4648 167.152 93.655 166.072 93.8748 166.112Z" fill="#263238"/>
<path d="M92.362 34.9814C92.942 34.9153 93.5315 34.9253 94.1184 35.0112C95.2852 35.0977 96.9759 35.2355 99.1733 35.5214C101.857 35.8819 104.523 36.5075 107.138 37.3907C111.051 38.6324 114.638 41.0738 117.476 44.4275C120.314 47.7812 122.286 51.9074 123.158 56.3199C124.383 61.7931 124.587 67.4156 123.755 72.8287C122.8 78.7275 121.5 84.5263 119.865 90.1891C118.275 96.2733 117.004 102.477 116.058 108.77C114.204 121.738 113.481 134.35 112.688 145.797C112.134 155.973 111.103 166.075 109.598 176.062C108.502 182.779 106.924 189.354 104.879 195.724C104.117 198.046 103.414 199.647 102.973 200.815C102.769 201.413 102.52 201.987 102.226 202.531C102.345 201.898 102.525 201.285 102.761 200.703C103.114 199.508 103.768 197.791 104.447 195.547C106.318 189.136 107.766 182.552 108.778 175.848C110.11 167.357 110.991 157.107 111.714 145.665C112.437 134.223 113.143 121.581 115.023 108.467C115.973 102.124 117.26 95.8739 118.877 89.7479C120.522 84.1401 121.835 78.3962 122.807 72.5519C123.643 67.2997 123.483 61.8388 122.335 56.512C121.548 52.2479 119.694 48.2437 116.991 44.9739C114.289 41.7041 110.852 39.3056 107.087 38.0629C104.525 37.128 101.908 36.4484 99.2675 36.0323C97.0213 35.6304 95.3875 35.433 94.2381 35.2497C93.611 35.1995 92.9847 35.1099 92.362 34.9814Z" fill="#263238"/>
</g>
<defs>
<linearGradient id="paint0_linear" x1="168.824" y1="69.0246" x2="122.338" y2="227.753" gradientUnits="userSpaceOnUse">
<stop stop-color="#4A27F3"/>
<stop offset="1" stop-color="#339DFA"/>
</linearGradient>
<linearGradient id="paint1_linear" x1="96.709" y1="32.7665" x2="45.2555" y2="205.623" gradientUnits="userSpaceOnUse">
<stop stop-color="#4A27F3"/>
<stop offset="1" stop-color="#339DFA"/>
</linearGradient>
</defs>
</svg>
