<svg width="101" height="209" viewBox="0 0 101 209" fill="none" xmlns="http://www.w3.org/2000/svg">
<g opacity="0.3">
<path d="M-38.556 202.151L-33.1762 209C-33.1762 209 -6.55488 166.38 24.337 161.998C25.2104 162.409 26.169 162.605 27.1335 162.572C28.098 162.538 29.0406 162.275 29.8831 161.804L39.8661 156.009C40.9033 155.369 41.723 154.431 42.2179 153.318C42.7127 152.205 42.8596 150.968 42.6392 149.77C42.6392 149.77 57.5305 123.343 89.2821 119.267L100.873 117.077L21.2035 44.0925L-102.835 94.5324L-38.556 202.151Z" fill="url(#paint0_linear)"/>
<path d="M-51.8593 196.48L-42.4707 209C-42.4707 209 -20.8409 160.332 32.9705 156.905L-19.9824 102.295C-19.9824 102.295 -58.2015 181.474 -51.8593 196.48Z" fill="#EBEBEB"/>
<path d="M-124 108.913C-124 108.913 -103.54 42.9065 -35.6437 67.0342L32.9705 156.726C32.9705 156.726 -37.4108 143.972 -53.95 201.945L-124 108.913Z" fill="#F5F5F5"/>
<path d="M33.2298 156.97C33.2298 156.97 54.4773 104.951 100.873 111.35L33.2298 32.6284L-33.1688 70.0778L33.2298 156.97Z" fill="#EBEBEB"/>
<path d="M-35.8195 66.8966C-35.8195 66.8966 -43.5313 27.5292 -13.2093 10.3684L6.66456 -0.000244141L76.1815 78.0691C76.1815 78.0691 28.1692 104.379 32.8682 156.97L-35.8195 66.8966Z" fill="#F5F5F5"/>
<path d="M32.9705 156.97C31.9453 155.937 31.0224 154.807 30.2147 153.595C28.2856 151.16 25.8054 148.061 22.774 144.076C16.4357 135.776 7.92025 124.708 -1.47703 112.533L-25.8108 81.018L-33.2239 71.4997C-34.19 70.3787 -35.0568 69.1752 -35.8143 67.9027C-34.7355 68.9152 -33.723 69.9966 -32.7829 71.1401C-30.909 73.2706 -28.2634 76.4526 -25.0116 80.3816C-18.5354 88.2397 -9.79954 99.3074 -0.347145 111.648C9.10526 123.988 17.5656 135.25 23.6008 143.468L30.6556 153.263C31.5265 154.433 32.3007 155.673 32.9705 156.97Z" fill="#263238"/>
<path d="M8.27849 22.928C5.58235 24.0012 2.95416 25.2427 0.409006 26.6453C-5.52364 30.3816 -10.6761 35.2639 -14.7561 41.0153C-18.9664 46.6833 -22.0056 53.1563 -23.6912 60.046C-24.8662 65.3446 -24.7022 68.7845 -25.0028 68.7845C-25.1833 67.9938 -25.2569 67.1818 -25.2214 66.371C-25.28 64.1748 -25.0967 61.9789 -24.6749 59.824C-23.2362 52.6845 -20.2389 45.9635 -15.9037 40.1554C-11.7316 34.2384 -6.33083 29.3234 -0.0828152 25.7576C1.81735 24.6952 3.83535 23.8664 5.92858 23.2886C6.68948 23.0487 7.48175 22.9272 8.27849 22.928Z" fill="#263238"/>
<path d="M42.6709 55.5568C42.6709 55.8366 39.5446 57.2635 34.9519 60.6212C32.2871 62.58 29.7968 64.7708 27.5095 67.1685C24.7202 70.1304 22.2272 73.3638 20.0671 76.8217C17.9697 80.3079 16.2094 83.9903 14.8104 87.8179C13.7091 90.9577 12.876 94.1872 12.3203 97.471C11.3796 103.067 11.518 106.704 11.2413 106.704C11.0355 105.882 10.9424 105.035 10.9647 104.186C10.9105 103.208 10.9105 102.227 10.9647 101.248C10.9803 99.9372 11.082 98.6286 11.269 97.3311C11.6993 93.9434 12.4592 90.6069 13.5377 87.3702C14.916 83.4666 16.6868 79.7163 18.8221 76.1781C21.0356 72.6475 23.6139 69.3647 26.5134 66.3851C28.9043 63.9726 31.5272 61.8074 34.3432 59.9217C35.4137 59.1824 36.5219 58.5007 37.6632 57.8791C38.5521 57.3724 39.4769 56.9328 40.4299 56.564C41.1248 56.1204 41.8797 55.7811 42.6709 55.5568Z" fill="#263238"/>
<path d="M54.135 65.2571C54.135 65.5342 50.6918 67.086 45.8048 70.7994C42.9159 72.9637 40.2046 75.3545 37.6966 77.949C34.6572 81.1555 31.872 84.5928 29.3664 88.2301C26.9421 91.9119 24.8247 95.786 23.0354 99.8135C21.6092 103.121 20.4938 106.554 19.7033 110.067C18.3705 116.053 18.5649 119.932 18.2872 119.932C18.055 119.028 17.9706 118.092 18.0373 117.161C17.9594 116.1 17.9594 115.035 18.0373 113.974C18.1171 112.567 18.3028 111.169 18.5926 109.79C19.2518 106.174 20.2848 102.635 21.6748 99.2316C23.4344 95.082 25.5722 91.1025 28.0613 87.3433C30.5923 83.6282 33.4448 80.1416 36.5859 76.9237C39.1522 74.34 41.9395 71.9848 44.9162 69.8849C46.0678 69.0714 47.2636 68.3221 48.4982 67.6403C49.39 67.0896 50.3176 66.599 51.2749 66.1716C52.1824 65.7389 53.1446 65.4313 54.135 65.2571Z" fill="#263238"/>
<path d="M61.1899 74.0757C61.1899 74.3247 57.7199 75.8741 52.7946 79.6092C49.9228 81.8363 47.2456 84.2982 44.7912 86.9689C41.8249 90.2777 39.1388 93.8219 36.7597 97.5657C34.4252 101.336 32.4037 105.287 30.7151 109.38C29.3804 112.737 28.332 116.198 27.5809 119.728C26.3216 125.759 26.5175 129.633 26.2096 129.633C26.0179 128.723 25.9427 127.794 25.9858 126.866C25.8923 125.807 25.8923 124.743 25.9858 123.684C26.0469 122.272 26.2153 120.866 26.4895 119.479C27.0764 115.848 28.0135 112.281 29.2879 108.826C30.9495 104.633 32.9718 100.588 35.3325 96.7356C37.8011 92.9252 40.6108 89.3417 43.7277 86.0282C46.2739 83.3321 49.0863 80.8944 52.123 78.7515C53.257 77.89 54.4543 77.1131 55.705 76.4275C56.5976 75.8592 57.5332 75.3596 58.5034 74.9334C59.3451 74.5034 60.2528 74.2137 61.1899 74.0757Z" fill="#263238"/>
<path d="M2.98736 142.308C2.98736 142.554 -0.836193 141.244 -7.1354 140.699C-15.3293 140.021 -23.5697 141.245 -31.2044 144.273C-38.7936 147.415 -45.531 152.284 -50.8722 158.486C-54.9708 163.26 -56.7313 166.671 -56.9789 166.671C-56.7444 165.77 -56.3634 164.913 -55.8511 164.133C-54.651 161.921 -53.2515 159.821 -51.6699 157.859C-46.4375 151.273 -39.5767 146.142 -31.754 142.963C-23.9313 139.784 -15.4126 138.666 -7.02534 139.717C-4.50808 140.015 -2.02262 140.536 0.401657 141.272C1.31108 141.487 2.18274 141.836 2.98736 142.308Z" fill="#263238"/>
</g>
<defs>
<linearGradient id="paint0_linear" x1="-0.981018" y1="44.0925" x2="-0.981018" y2="209" gradientUnits="userSpaceOnUse">
<stop stop-color="#4A27F3"/>
<stop offset="1" stop-color="#339DFA"/>
</linearGradient>
</defs>
</svg>
