<svg width="195" height="86" viewBox="0 0 195 86" fill="none" xmlns="http://www.w3.org/2000/svg">
<g opacity="0.3">
<path d="M55.444 82.2501L60.8238 85.0369C60.8238 85.0369 87.4451 67.6958 118.337 65.9132C119.21 66.0802 120.169 66.1602 121.134 66.1465C122.098 66.1328 123.041 66.0257 123.883 65.8342L133.866 63.4762C134.903 63.216 135.723 62.8344 136.218 62.3814C136.713 61.9284 136.86 61.4252 136.639 60.9376C136.639 60.9376 151.531 50.1855 183.282 48.527L194.873 47.6356L115.203 17.9403L-8.83545 38.463L55.444 82.2501Z" fill="url(#paint0_linear)"/>
<path d="M42.1404 79.943L51.529 85.0369C51.529 85.0369 73.1588 65.235 126.97 63.8407L74.0174 41.6212C74.0174 41.6212 35.7983 73.8372 42.1404 79.943Z" fill="#EBEBEB"/>
<path d="M-30 44.3138C-30 44.3138 -9.54 17.4575 58.3563 27.2745L126.97 63.768C126.97 63.768 56.5892 58.5787 40.05 82.1664L-30 44.3138Z" fill="#F5F5F5"/>
<path d="M127.23 63.8674C127.23 63.8674 148.477 42.7022 194.873 45.3055L127.23 13.2759L60.8311 28.5131L127.23 63.8674Z" fill="#EBEBEB"/>
<path d="M58.1804 27.2186C58.1804 27.2186 50.4685 11.201 80.7906 4.21872L100.664 0L170.181 31.7645C170.181 31.7645 122.169 42.4692 126.868 63.8673L58.1804 27.2186Z" fill="#F5F5F5"/>
<path d="M126.97 63.8673C125.945 63.447 125.022 62.987 124.215 62.4938C122.285 61.5031 119.805 60.2423 116.774 58.6211C110.436 55.2437 101.92 50.7405 92.5228 45.787L68.1891 32.9642L60.776 29.0915C59.8099 28.6354 58.9431 28.1457 58.1855 27.6279C59.2643 28.0399 60.2769 28.4799 61.2169 28.9451C63.0909 29.812 65.7365 31.1067 68.9883 32.7053C75.4645 35.9025 84.2003 40.4057 93.6527 45.4268C103.105 50.4478 111.565 55.0298 117.601 58.3734L124.655 62.3587C125.526 62.835 126.301 63.3396 126.97 63.8673Z" fill="#263238"/>
<path d="M102.279 9.32886C99.5825 9.76551 96.9543 10.2706 94.4091 10.8414C88.4765 12.3615 83.324 14.348 79.244 16.6882C75.0337 18.9943 71.9946 21.628 70.3089 24.4312C69.1339 26.5871 69.2979 27.9868 68.9973 27.9868C68.8168 27.665 68.7433 27.3347 68.7787 27.0047C68.7201 26.1112 68.9034 25.2177 69.3252 24.3409C70.7639 21.4361 73.7612 18.7014 78.0964 16.3383C82.2686 13.9308 87.6693 11.931 93.9173 10.4802C95.8175 10.0479 97.8355 9.71068 99.9287 9.47558C100.69 9.37798 101.482 9.32852 102.279 9.32886Z" fill="#263238"/>
<path d="M136.671 22.6047C136.671 22.7186 133.544 23.2992 128.952 24.6653C126.287 25.4623 123.797 26.3537 121.509 27.3292C118.72 28.5343 116.227 29.8499 114.067 31.2568C111.97 32.6753 110.209 34.1735 108.81 35.7309C107.709 37.0084 106.876 38.3224 106.32 39.6585C105.379 41.9353 105.518 43.4153 105.241 43.4153C105.035 43.0806 104.942 42.7358 104.964 42.3907C104.91 41.9926 104.91 41.5935 104.964 41.1953C104.98 40.6619 105.082 40.1295 105.269 39.6015C105.699 38.2232 106.459 36.8657 107.537 35.5487C108.916 33.9605 110.687 32.4346 112.822 30.995C115.035 29.5585 117.614 28.2228 120.513 27.0105C122.904 26.0289 125.527 25.1479 128.343 24.3807C129.413 24.0799 130.522 23.8025 131.663 23.5496C132.552 23.3435 133.477 23.1646 134.43 23.0146C135.125 22.8341 135.879 22.696 136.671 22.6047Z" fill="#263238"/>
<path d="M148.135 26.5514C148.135 26.6641 144.692 27.2956 139.805 28.8064C136.916 29.687 134.205 30.6598 131.697 31.7154C128.657 33.0201 125.872 34.4186 123.366 35.8985C120.942 37.3966 118.825 38.9729 117.036 40.6116C115.609 41.9573 114.494 43.3539 113.703 44.7834C112.371 47.2188 112.565 48.7974 112.287 48.7974C112.055 48.4294 111.971 48.0487 112.037 47.6698C111.96 47.2382 111.96 46.8048 112.037 46.3732C112.117 45.8008 112.303 45.2317 112.593 44.6706C113.252 43.1993 114.285 41.7597 115.675 40.3748C117.435 38.6864 119.572 37.0673 122.061 35.5377C124.592 34.0261 127.445 32.6076 130.586 31.2983C133.152 30.247 135.94 29.2887 138.916 28.4343C140.068 28.1034 141.264 27.7985 142.498 27.5211C143.39 27.297 144.318 27.0974 145.275 26.9235C146.182 26.7474 147.145 26.6223 148.135 26.5514Z" fill="#263238"/>
<path d="M155.19 30.1394C155.19 30.2407 151.72 30.8711 146.795 32.3909C143.923 33.297 141.245 34.2987 138.791 35.3854C135.825 36.7316 133.139 38.1737 130.76 39.6969C128.425 41.2309 126.404 42.8385 124.715 44.5039C123.38 45.8697 122.332 47.278 121.581 48.7141C120.321 51.1682 120.517 52.7443 120.21 52.7443C120.018 52.3743 119.943 51.9961 119.986 51.6185C119.892 51.1878 119.892 50.7546 119.986 50.3239C120.047 49.7493 120.215 49.1773 120.489 48.6128C121.076 47.1355 122.013 45.6842 123.288 44.2787C124.949 42.5724 126.972 40.9265 129.332 39.3592C131.801 37.8089 134.611 36.3508 137.728 35.0026C140.274 33.9056 143.086 32.9138 146.123 32.0419C147.257 31.6914 148.454 31.3753 149.705 31.0963C150.597 30.8651 151.533 30.6618 152.503 30.4884C153.345 30.3134 154.253 30.1955 155.19 30.1394Z" fill="#263238"/>
<path d="M96.9872 57.9015C96.9872 58.0015 93.1637 57.4686 86.8645 57.2466C78.6705 56.9711 70.4301 57.4689 62.7955 58.7008C55.2062 59.9794 48.4688 61.9605 43.1277 64.484C39.029 66.4266 37.2686 67.8141 37.021 67.8141C37.2555 67.4475 37.6364 67.0989 38.1488 66.7818C39.3489 65.8816 40.7483 65.0271 42.33 64.2287C47.5624 61.5492 54.4232 59.4613 62.2459 58.1679C70.0686 56.8745 78.5873 56.4195 86.9745 56.847C89.4918 56.9686 91.9773 57.1804 94.4015 57.4797C95.311 57.5673 96.1826 57.7094 96.9872 57.9015Z" fill="#263238"/>
<path d="M88.1689 53.237C88.1689 53.3368 84.3454 52.8041 78.0462 52.5821C69.8465 52.2784 61.5863 52.7776 53.9672 54.0374C46.348 55.2972 39.595 57.2804 34.2818 59.8185C30.1832 61.7608 28.4227 63.2036 28.2026 63.1481C28.4372 62.7816 28.8181 62.433 29.3305 62.1159C30.5306 61.2159 31.93 60.3615 33.5116 59.5632C38.744 56.8841 45.6048 54.7965 53.4275 53.5033C61.2503 52.21 69.7689 51.7551 78.1562 52.1826C80.6734 52.3042 83.1589 52.5159 85.5832 52.8152C86.4926 52.9027 87.3643 53.0449 88.1689 53.237Z" fill="#263238"/>
<path d="M79.3501 48.5614C79.3501 48.6724 75.4703 48.1395 69.0785 47.9175C60.7583 47.6137 52.3766 48.113 44.6454 49.3731C36.9142 50.6331 30.0619 52.6166 24.6705 55.1551C20.5116 57.0977 18.7252 58.4852 18.502 58.4852C18.7303 58.1192 19.1074 57.7705 19.6184 57.4529C20.8464 56.5491 22.2756 55.6909 23.889 54.8887C29.2051 52.2128 36.1686 50.1282 44.1052 48.8369C52.0418 47.5456 60.6824 47.0912 69.1901 47.5179C71.7444 47.6395 74.2664 47.8513 76.7263 48.1506C77.6449 48.2381 78.528 48.3764 79.3501 48.5614Z" fill="#263238"/>
<path d="M69.6498 43.9241C69.6498 44.0388 65.8005 43.4882 59.5317 43.2587C51.3352 42.9419 43.0766 43.4565 35.4598 44.7588C27.843 46.0612 21.0938 48.1125 15.7875 50.7381C11.6907 52.7456 9.93105 54.1796 9.68359 54.1796C9.95344 53.8097 10.3321 53.4552 10.8109 53.1242C12.0103 52.1877 13.4188 51.3004 15.0176 50.4743C20.2517 47.7108 27.1067 45.5577 34.9194 44.2233C42.7321 42.8889 51.238 42.4184 59.6142 42.8572C62.1414 42.9775 64.6361 43.1964 67.0653 43.5111C67.9687 43.5979 68.8386 43.7369 69.6498 43.9241Z" fill="#263238"/>
<path d="M60.831 39.3231C60.831 39.4371 57.0074 38.8899 50.7082 38.6619C42.5124 38.3489 34.2555 38.8613 26.6404 40.1555C19.0252 41.4496 12.2774 43.4873 6.9714 46.0949C2.87279 48.0786 1.11231 49.515 0.864746 49.515C1.11884 49.145 1.49857 48.7919 1.99254 48.4662C3.19121 47.5378 4.59067 46.6563 6.17368 45.8327C11.3984 43.0735 18.2527 40.9197 26.0736 39.5796C33.8946 38.2396 42.4175 37.7585 50.8183 38.1831C53.3368 38.3108 55.8224 38.5321 58.2453 38.8443C59.1661 38.9424 60.0403 39.1043 60.831 39.3231Z" fill="#263238"/>
<path d="M52.0126 34.6233C52.0126 34.7262 48.14 34.1885 41.7599 33.9597C33.4407 33.638 25.0556 34.1485 17.3216 35.4475C9.58767 36.7464 2.73499 38.7952 -2.65034 41.4187C-6.8016 43.4093 -8.5847 44.8507 -8.83545 44.8507C-8.59249 44.4737 -8.20703 44.1147 -7.69314 43.7868C-6.47093 42.8607 -5.05393 41.9803 -3.4583 41.1556C1.85354 38.3812 8.82845 36.2205 16.7839 34.8849C24.7394 33.5494 33.403 33.0848 41.927 33.5365C44.4779 33.6646 46.9955 33.8867 49.4495 34.2C50.3518 34.2861 51.2164 34.4288 52.0126 34.6233Z" fill="#263238"/>
</g>
<defs>
<linearGradient id="paint0_linear" x1="93.019" y1="17.9403" x2="93.019" y2="85.0369" gradientUnits="userSpaceOnUse">
<stop stop-color="#4A27F3"/>
<stop offset="1" stop-color="#339DFA"/>
</linearGradient>
</defs>
</svg>
