<svg width="158" height="510" viewBox="0 0 158 510" fill="none" xmlns="http://www.w3.org/2000/svg">
<g opacity="0.3">
<path d="M64.5508 444.649C64.6565 444.269 64.7856 443.899 64.937 443.541C65.2419 442.746 65.6687 441.686 66.1971 440.362C67.7313 436.245 68.9687 431.982 69.8962 427.619C72.3351 416.321 73.1888 399.026 69.571 378.502C67.6304 367.289 65.0638 356.24 61.8883 345.429C58.6364 333.698 54.856 321.34 51.7261 307.851C48.2385 293.825 46.553 279.257 46.7262 264.636C47.1937 249.364 51.0147 234.092 55.2219 218.868C59.4291 203.644 63.7379 188.806 65.0386 173.847C66.4721 159.463 64.032 144.911 58.0673 132.27C52.5187 120.226 45.5271 109.747 40.2833 99.0037C35.4017 89.036 31.7987 78.2629 29.5926 67.0382C26.4502 50.7585 26.2218 33.879 28.9219 17.4882C29.8934 11.5037 31.357 5.64642 33.2917 0C33.2239 0.391538 33.1357 0.777653 33.0275 1.1562L32.1535 4.52865C31.0612 8.9015 30.1657 13.34 29.4707 17.8255C26.9835 34.1291 27.3571 50.8652 30.5682 66.9901C32.7977 78.0879 36.4075 88.731 41.2792 98.5701C46.5026 109.193 53.474 119.527 59.1852 131.788C65.2964 144.676 67.8146 159.523 66.3801 174.208C65.059 189.432 60.6892 204.391 56.5227 219.567C52.3561 234.742 48.5554 249.846 48.0676 264.877C47.8843 279.338 49.5285 293.75 52.9455 307.634C55.9942 321.003 59.7136 333.433 62.9452 345.188C66.0782 356.044 68.604 367.132 70.5059 378.382C74.0221 399.074 73.0262 416.538 70.5059 427.884C69.4825 432.254 68.1218 436.504 66.441 440.578L65.059 443.71C64.9055 444.035 64.7358 444.348 64.5508 444.649Z" fill="#263238"/>
<path d="M47.4385 109.723C47.4385 109.723 36.8087 69.4715 55.8733 45.8889C56.0217 45.6959 56.2127 45.5559 56.4248 45.4851C56.6369 45.4142 56.8615 45.4152 57.0731 45.4879C57.2847 45.5607 57.4749 45.7022 57.6221 45.8966C57.7693 46.0909 57.8675 46.3303 57.9058 46.5875C58.9017 53.2359 60.1821 73.4942 47.4385 109.723Z" fill="url(#paint0_linear)"/>
<path d="M53.7997 59.3064C53.7762 61.8017 53.5379 64.2877 53.0883 66.7256C52.377 71.8564 51.564 77.8545 50.6697 84.5029C49.7754 91.1513 48.9624 97.1252 48.2917 102.256C48.1047 104.743 47.7167 107.204 47.1332 109.603C46.9578 107.105 47.026 104.591 47.3365 102.111C47.682 97.5106 48.373 91.1995 49.3689 84.2379C50.3648 77.2764 51.4014 71.0375 52.1737 66.5329C52.4856 64.0595 53.031 61.6355 53.7997 59.3064Z" fill="#263238"/>
<path d="M59.918 204.704C59.918 204.704 66.4219 163.224 92.5595 152.938C92.7651 152.856 92.9858 152.842 93.1974 152.899C93.409 152.956 93.6033 153.081 93.7588 153.26C93.9144 153.44 94.0251 153.666 94.0789 153.915C94.1326 154.165 94.1273 154.427 94.0635 154.672C92.3562 161.104 85.4865 179.724 59.918 204.704Z" fill="url(#paint1_linear)"/>
<path d="M85.4446 163.657C84.4238 165.845 83.2258 167.911 81.8674 169.824C79.2455 173.967 76.1359 178.809 72.7213 184.277L63.6158 198.73C62.4739 200.823 61.1673 202.783 59.7135 204.583C60.5336 202.275 61.5845 200.091 62.8435 198.08C64.876 194.225 68.067 188.998 71.6644 183.386C75.2619 177.773 78.6155 172.811 81.1357 169.294C82.3873 167.228 83.8328 165.337 85.4446 163.657Z" fill="#263238"/>
<path d="M52.8437 308.742C52.8437 308.742 48.9007 266.828 71.4002 247.991C71.5761 247.84 71.7839 247.75 72.0005 247.73C72.2171 247.71 72.434 247.762 72.6275 247.879C72.8209 247.996 72.9833 248.174 73.0967 248.394C73.2101 248.613 73.2701 248.866 73.27 249.123C73.209 255.892 71.1969 276.054 52.8437 308.742Z" fill="url(#paint2_linear)"/>
<path d="M67.2134 260.686C66.7848 263.162 66.1517 265.583 65.3232 267.912C63.7988 272.73 62.0306 278.487 60.0794 284.774C58.1283 291.061 56.3803 296.818 54.8763 301.636C54.2956 304.025 53.5338 306.347 52.6 308.573C52.8177 306.108 53.2817 303.682 53.9821 301.347C55.0796 296.915 56.7665 290.868 58.8193 284.268C60.8721 277.668 62.8842 271.742 64.4492 267.406C65.1576 265.051 66.0847 262.797 67.2134 260.686Z" fill="#263238"/>
<path d="M72.5384 413.407C72.5384 413.407 69.8759 371.348 92.8631 353.474C93.0446 353.332 93.2558 353.251 93.4734 353.242C93.691 353.233 93.9065 353.296 94.0959 353.423C94.2854 353.55 94.4414 353.737 94.5467 353.963C94.6519 354.189 94.7024 354.445 94.6924 354.703C94.4891 361.448 91.8469 381.562 72.5384 413.407Z" fill="url(#paint3_linear)"/>
<path d="M88.3521 366C87.8738 368.419 87.193 370.776 86.3196 373.034C84.6733 377.852 82.7221 383.465 80.5677 389.704C78.4133 395.942 76.5028 401.555 74.8768 406.349C74.2313 408.727 73.3941 411.026 72.3768 413.214C72.6758 410.737 73.2216 408.311 74.0028 405.987C75.202 401.579 77.0922 395.605 79.3482 389.125C81.6042 382.646 83.7993 376.792 85.4456 372.625C86.207 370.297 87.1816 368.076 88.3521 366Z" fill="#263238"/>
<path d="M32.1744 74.3608C32.1744 74.3608 0.610213 54.8252 0.000472544 22.1854C-0.00563882 21.9297 0.0476278 21.6769 0.154468 21.4545C0.261307 21.2322 0.417611 21.0488 0.606335 20.9246C0.795058 20.8003 1.00895 20.7399 1.22468 20.7498C1.44041 20.7598 1.64969 20.8398 1.82969 20.981C6.48404 24.8111 19.5122 38.0597 32.1744 74.3608Z" fill="url(#paint4_linear)"/>
<path d="M6.48438 33.3862C8.00248 35.1699 9.3644 37.1311 10.5493 39.2398L19.4312 53.8134L28.3537 68.2666C29.7234 70.1662 30.9286 72.224 31.9512 74.4092C30.3373 72.7876 28.8848 70.9531 27.622 68.9411C25.1221 65.4001 21.8295 60.3655 18.354 54.6565C14.8785 48.9475 11.8704 43.648 9.75665 39.7697C8.47779 37.7856 7.38085 35.6457 6.48438 33.3862Z" fill="#263238"/>
<path d="M66.0552 160.815C66.0552 160.815 33.5358 143.591 31.2594 111.072C31.2371 110.815 31.2752 110.556 31.3695 110.324C31.4639 110.091 31.6108 109.894 31.794 109.754C31.9771 109.614 32.1894 109.537 32.4071 109.532C32.6249 109.527 32.8397 109.593 33.0276 109.723C37.9055 113.24 51.5637 125.501 66.0552 160.815Z" fill="url(#paint5_linear)"/>
<path d="M38.3727 121.792C39.9436 123.455 41.3607 125.313 42.6002 127.332C45.3644 131.355 48.6976 136.052 52.2341 141.255L61.8883 155.13C63.3302 156.943 64.6359 158.902 65.7907 160.984C64.0745 159.513 62.524 157.789 61.177 155.853C58.4941 152.504 54.9576 147.711 51.1975 142.243C47.4375 136.775 44.1652 131.74 41.8685 128.03C40.5149 126.108 39.3426 124.016 38.3727 121.792Z" fill="#263238"/>
<path d="M47.3563 257.289C47.3563 257.289 24.9991 224.408 35.507 194.201C35.5941 193.979 35.7289 193.788 35.898 193.647C36.0671 193.506 36.2646 193.42 36.4705 193.398C36.6764 193.376 36.8835 193.419 37.0712 193.522C37.2588 193.625 37.4203 193.784 37.5394 193.984C40.5881 199.718 48.027 218.025 47.3563 257.289Z" fill="url(#paint6_linear)"/>
<path d="M37.7236 207.594C38.4738 209.931 39.0187 212.352 39.3496 214.821C40.2642 219.88 41.3821 225.829 42.5609 232.382C43.7397 238.934 44.8982 244.883 45.8331 249.942C46.4223 252.343 46.8304 254.802 47.0526 257.289C46.1432 255.039 45.461 252.67 45.0202 250.231C43.9226 245.799 42.6219 239.608 41.3617 232.719C40.1016 225.829 39.1464 219.591 38.5163 215.014C38.0195 212.583 37.7536 210.095 37.7236 207.594Z" fill="#263238"/>
<path d="M69.4907 370.794C69.4907 370.794 37.2557 352.921 35.4265 320.353C35.4018 320.094 35.4399 319.831 35.5365 319.597C35.6331 319.362 35.7841 319.165 35.9718 319.028C36.1595 318.892 36.3761 318.822 36.5963 318.826C36.8166 318.83 37.0312 318.909 37.2151 319.052C41.9914 322.641 55.4667 335.191 69.4907 370.794Z" fill="url(#paint7_linear)"/>
<path d="M42.3363 331.193C43.8423 332.911 45.2037 334.799 46.4012 336.829L55.8319 350.945L65.4252 364.989C66.8503 366.829 68.1293 368.82 69.2462 370.938C67.5617 369.43 66.0395 367.683 64.7138 365.735C62.0919 362.315 58.6164 357.449 54.9173 351.909C51.2182 346.368 48.0272 341.286 45.7915 337.456C44.4406 335.532 43.2812 333.431 42.3363 331.193Z" fill="#263238"/>
<path d="M133.676 204.921C133.676 204.921 133.676 205.234 133.676 205.86C133.676 206.487 133.676 207.474 133.676 208.534C133.676 211.088 133.452 214.508 133.31 218.772C132.883 227.757 132.314 240.307 131.603 255.314C129.306 270.586 122.741 287.496 113.92 303.924C107.457 315.969 100.689 327.025 94.8557 337.263C89.5663 346.204 84.8122 355.573 80.6284 365.302C77.8596 371.898 75.6142 378.785 73.9213 385.874C73.3725 388.282 72.9457 390.354 72.7018 391.703C72.5972 392.395 72.4337 393.073 72.214 393.726C72.2381 393.021 72.3129 392.32 72.4376 391.631C72.5798 390.258 72.9457 388.258 73.4335 385.705C74.9077 378.536 76.9915 371.563 79.6528 364.892C83.7908 355.026 88.5465 345.541 93.8801 336.516C99.6726 326.23 106.42 315.198 112.843 303.154C121.603 286.822 128.127 270.152 130.525 255.145C131.42 240.162 132.172 227.636 132.7 218.651C132.985 214.388 133.229 210.967 133.391 208.438C133.391 207.378 133.554 206.487 133.615 205.764C133.607 205.481 133.627 205.198 133.676 204.921Z" fill="#263238"/>
<path d="M114.469 300.865C114.469 300.865 128.127 261.914 110.952 236.38C110.817 236.186 110.639 236.04 110.439 235.956C110.239 235.872 110.023 235.854 109.815 235.904C109.607 235.953 109.414 236.068 109.256 236.237C109.099 236.405 108.983 236.621 108.92 236.862C107.375 243.366 104.55 263.528 114.469 300.865Z" fill="url(#paint8_linear)"/>
<path d="M111.989 249.966C112.586 252.366 112.947 254.839 113.066 257.337C113.554 261.914 114.103 268.249 114.53 275.283C114.956 282.317 115.139 288.676 115.139 293.301C115.263 295.799 115.14 298.305 114.773 300.769C114.376 298.316 114.185 295.823 114.204 293.325C113.92 288.171 113.574 282.1 113.188 275.38C112.802 268.659 112.436 262.613 112.131 257.434C111.869 254.957 111.821 252.455 111.989 249.966Z" fill="#263238"/>
<g opacity="0.3">
<path opacity="0.3" d="M114.469 300.865C114.469 300.865 128.127 261.914 110.952 236.38C110.817 236.186 110.639 236.04 110.439 235.956C110.239 235.872 110.023 235.854 109.815 235.904C109.607 235.953 109.414 236.068 109.256 236.237C109.099 236.405 108.983 236.621 108.92 236.862C107.375 243.366 104.55 263.528 114.469 300.865Z" fill="black"/>
</g>
<path d="M72.1734 394.738C72.1734 394.738 83.1283 354.607 64.2672 330.807C64.1202 330.614 63.9307 330.474 63.72 330.402C63.5094 330.33 63.2859 330.329 63.0747 330.399C62.8636 330.469 62.6731 330.607 62.5247 330.799C62.3763 330.99 62.2759 331.226 62.2347 331.482C61.1575 338.202 59.7348 358.365 72.1734 394.738Z" fill="url(#paint9_linear)"/>
<path d="M66.2179 344.248C66.9722 346.579 67.5039 349.003 67.8032 351.475C68.5958 355.979 69.5714 362.266 70.4657 369.204C71.36 376.141 72.0103 382.501 72.3355 387.102C72.6386 389.583 72.6795 392.1 72.4575 394.593C71.9006 392.192 71.5466 389.731 71.4006 387.246C70.7502 382.115 69.9982 376.093 69.1649 369.445C68.3316 362.796 67.539 356.798 66.8683 351.668C66.4418 349.227 66.224 346.741 66.2179 344.248Z" fill="#263238"/>
<g opacity="0.3">
<path opacity="0.3" d="M72.1734 394.738C72.1734 394.738 83.1283 354.607 64.2672 330.807C64.1202 330.614 63.9307 330.474 63.72 330.402C63.5094 330.33 63.2859 330.329 63.0747 330.399C62.8636 330.469 62.6731 330.607 62.5247 330.799C62.3763 330.99 62.2759 331.226 62.2347 331.482C61.1575 338.202 59.7348 358.365 72.1734 394.738Z" fill="black"/>
</g>
<path d="M131.866 253.242C131.866 253.242 161.032 229.154 158.085 196.586C158.073 196.313 157.994 196.05 157.858 195.829C157.721 195.609 157.533 195.441 157.317 195.346C157.1 195.251 156.865 195.234 156.64 195.296C156.416 195.358 156.211 195.496 156.052 195.695C151.906 200.223 140.463 215.351 131.866 253.242Z" fill="url(#paint10_linear)"/>
<g opacity="0.3">
<path opacity="0.3" d="M131.866 253.242C131.866 253.242 161.032 229.154 158.085 196.586C158.073 196.313 157.994 196.05 157.858 195.829C157.721 195.609 157.533 195.441 157.317 195.346C157.1 195.251 156.865 195.234 156.64 195.296C156.416 195.358 156.211 195.496 156.052 195.695C151.906 200.223 140.463 215.351 131.866 253.242Z" fill="black"/>
</g>
<path d="M152.822 208.727C152.221 211.12 151.403 213.43 150.383 215.616C148.717 219.807 146.318 225.492 143.493 231.683C140.668 237.874 137.944 243.39 135.871 247.292C134.834 249.48 133.586 251.517 132.152 253.363C132.941 251.042 133.914 248.816 135.058 246.714L142.314 230.936C145.017 225.034 147.477 219.687 149.55 215.11C150.441 212.847 151.539 210.707 152.822 208.727Z" fill="#263238"/>
<path d="M83.9406 355.064C83.9406 355.064 119.102 348.56 128.533 317.895C128.613 317.653 128.635 317.388 128.595 317.131C128.556 316.875 128.456 316.636 128.308 316.443C128.16 316.25 127.969 316.11 127.758 316.039C127.546 315.968 127.322 315.968 127.11 316.041C121.622 317.775 105.749 325.387 83.9406 355.064Z" fill="url(#paint11_linear)"/>
<g opacity="0.3">
<path opacity="0.3" d="M83.9406 355.064C83.9406 355.064 119.102 348.56 128.533 317.895C128.613 317.653 128.635 317.388 128.595 317.131C128.556 316.875 128.456 316.636 128.308 316.443C128.16 316.25 127.969 316.11 127.758 316.039C127.546 315.968 127.322 315.968 127.11 316.041C121.622 317.775 105.749 325.387 83.9406 355.064Z" fill="black"/>
</g>
<path d="M119.286 325.893C117.874 327.751 116.285 329.409 114.55 330.831C111.501 333.722 107.213 337.576 102.355 341.647C97.4977 345.718 93.067 349.283 89.815 351.668C88.0818 353.095 86.2126 354.276 84.2461 355.185C85.814 353.525 87.5082 352.042 89.3069 350.752L101.685 340.37L114.062 329.94C115.688 328.393 117.437 327.037 119.286 325.893Z" fill="#263238"/>
<path d="M42.3363 431.666L52.1998 509.867H92.6999L106.278 431.666H42.3363Z" fill="#455A64"/>
<path d="M100.364 461.921C100.364 461.921 100.364 462.041 100.039 462.21C99.7136 462.378 99.4494 462.643 98.9616 462.932C97.5447 463.74 96.0286 464.277 94.4699 464.522C91.9764 464.908 89.4418 464.628 87.0514 463.703C83.8461 462.493 81.058 460.084 79.1044 456.838C77.9955 454.893 77.3495 452.63 77.2346 450.286C77.1264 448.974 77.323 447.652 77.8031 446.464C78.2831 445.275 79.0283 444.264 79.9581 443.541C81.0254 442.908 82.2189 442.633 83.4087 442.748C84.5985 442.863 85.7389 443.362 86.7059 444.192C88.7206 445.932 90.1013 448.516 90.5675 451.418C91.1044 454.327 91.2756 457.314 91.0757 460.283C90.9414 463.387 90.3854 466.445 89.4294 469.34C88.436 472.379 86.8395 475.089 84.775 477.241C82.6081 479.486 79.8819 480.831 77.011 481.071C74.1267 481.146 71.2914 480.18 68.8811 478.301C66.5581 476.569 64.4969 474.387 62.7838 471.845C61.0546 469.403 59.9915 466.396 59.7351 463.222C59.6362 461.671 59.8438 460.115 60.3412 458.677C60.8387 457.238 61.6124 455.957 62.6008 454.935C63.6175 454.034 64.8339 453.503 66.1011 453.409C67.3683 453.315 68.6311 453.661 69.7348 454.405C70.7827 455.03 71.6948 455.934 72.3998 457.045C73.1049 458.157 73.584 459.446 73.7997 460.813C74.0962 463.205 73.7893 465.647 72.9178 467.833C72.0462 470.019 70.6489 471.851 68.9015 473.098C65.932 475 62.4885 475.589 59.1863 474.76C56.7443 474.146 54.4033 473.064 52.2556 471.556C50.9066 470.611 49.6099 469.566 48.3736 468.425C47.9182 468.07 47.5017 467.649 47.1338 467.172C47.6056 467.483 48.0605 467.829 48.4955 468.208C49.3898 468.906 50.6906 469.966 52.5605 471.099C54.6625 472.539 56.9484 473.564 59.3286 474.134C62.4808 474.855 65.7467 474.241 68.556 472.399C70.1734 471.25 71.4683 469.56 72.2783 467.541C73.0882 465.523 73.3771 463.266 73.1087 461.054C72.9013 459.855 72.4633 458.729 71.8288 457.764C71.1942 456.799 70.3803 456.02 69.4502 455.489C68.5096 454.846 67.4305 454.545 66.3467 454.622C65.2628 454.699 64.2219 455.151 63.3529 455.923C62.5056 456.825 61.8449 457.946 61.4219 459.199C60.999 460.452 60.8251 461.804 60.9139 463.149C61.1688 466.055 62.1609 468.802 63.7593 471.026C65.364 473.442 67.3018 475.519 69.4909 477.169C71.7025 478.877 74.2901 479.773 76.9297 479.746C79.5533 479.527 82.0411 478.282 84.0027 476.205C85.9544 474.213 87.4622 471.681 88.3928 468.834C89.3069 466.062 89.8421 463.134 89.9781 460.162C90.1696 457.325 90.019 454.47 89.531 451.683C89.1304 449.08 87.9189 446.75 86.1368 445.155C85.3219 444.43 84.3547 443.983 83.3404 443.864C82.3262 443.745 81.3039 443.958 80.3849 444.481C79.5806 445.086 78.9353 445.946 78.5222 446.963C78.1091 447.981 77.9447 449.115 78.0476 450.238C78.1346 452.409 78.7101 454.513 79.7142 456.332C81.5439 459.454 84.1739 461.794 87.214 463.005C89.5077 463.958 91.9498 464.303 94.3682 464.016C96.4506 463.714 98.4765 463.006 100.364 461.921Z" fill="#263238"/>
</g>
<defs>
<linearGradient id="paint0_linear" x1="51.4896" y1="45.4326" x2="51.4896" y2="109.723" gradientUnits="userSpaceOnUse">
<stop stop-color="#4A27F3"/>
<stop offset="1" stop-color="#339DFA"/>
</linearGradient>
<linearGradient id="paint1_linear" x1="77.0168" y1="152.865" x2="77.0168" y2="204.704" gradientUnits="userSpaceOnUse">
<stop stop-color="#4A27F3"/>
<stop offset="1" stop-color="#339DFA"/>
</linearGradient>
<linearGradient id="paint2_linear" x1="62.9241" y1="247.726" x2="62.9241" y2="308.742" gradientUnits="userSpaceOnUse">
<stop stop-color="#4A27F3"/>
<stop offset="1" stop-color="#339DFA"/>
</linearGradient>
<linearGradient id="paint3_linear" x1="83.5689" y1="353.241" x2="83.5689" y2="413.407" gradientUnits="userSpaceOnUse">
<stop stop-color="#4A27F3"/>
<stop offset="1" stop-color="#339DFA"/>
</linearGradient>
<linearGradient id="paint4_linear" x1="16.0872" y1="20.7488" x2="16.0872" y2="74.3608" gradientUnits="userSpaceOnUse">
<stop stop-color="#4A27F3"/>
<stop offset="1" stop-color="#339DFA"/>
</linearGradient>
<linearGradient id="paint5_linear" x1="48.6542" y1="109.532" x2="48.6542" y2="160.815" gradientUnits="userSpaceOnUse">
<stop stop-color="#4A27F3"/>
<stop offset="1" stop-color="#339DFA"/>
</linearGradient>
<linearGradient id="paint6_linear" x1="40.0484" y1="193.393" x2="40.0484" y2="257.289" gradientUnits="userSpaceOnUse">
<stop stop-color="#4A27F3"/>
<stop offset="1" stop-color="#339DFA"/>
</linearGradient>
<linearGradient id="paint7_linear" x1="52.455" y1="318.826" x2="52.455" y2="370.794" gradientUnits="userSpaceOnUse">
<stop stop-color="#4A27F3"/>
<stop offset="1" stop-color="#339DFA"/>
</linearGradient>
<linearGradient id="paint8_linear" x1="113.475" y1="235.876" x2="113.475" y2="300.865" gradientUnits="userSpaceOnUse">
<stop stop-color="#4A27F3"/>
<stop offset="1" stop-color="#339DFA"/>
</linearGradient>
<linearGradient id="paint9_linear" x1="68.4463" y1="330.347" x2="68.4463" y2="394.738" gradientUnits="userSpaceOnUse">
<stop stop-color="#4A27F3"/>
<stop offset="1" stop-color="#339DFA"/>
</linearGradient>
<linearGradient id="paint10_linear" x1="145.08" y1="195.259" x2="145.08" y2="253.242" gradientUnits="userSpaceOnUse">
<stop stop-color="#4A27F3"/>
<stop offset="1" stop-color="#339DFA"/>
</linearGradient>
<linearGradient id="paint11_linear" x1="106.278" y1="315.986" x2="106.278" y2="355.064" gradientUnits="userSpaceOnUse">
<stop stop-color="#4A27F3"/>
<stop offset="1" stop-color="#339DFA"/>
</linearGradient>
</defs>
</svg>
