<svg width="70" height="286" viewBox="0 0 70 286" fill="none" xmlns="http://www.w3.org/2000/svg">
<g opacity="0.3">
<path d="M32.8436 82.1741C21.0082 60.7187 22.7351 30.0531 36.8632 10.6445C41.3294 4.62786 47.3885 -0.612466 54.0878 0.058014C60.7871 0.728493 66.4592 7.71558 68.5434 15.479C70.6277 23.2425 69.8982 31.6587 68.6774 39.6692C66.9654 50.8909 64.0921 62.3773 57.5119 70.723C50.9317 79.0687 41.2847 87.6262 32.8436 82.1565" fill="url(#paint0_linear)"/>
<path d="M39.3932 185.481C37.2626 179.243 36.8436 172.367 38.1958 165.83C39.5479 159.294 42.6025 153.427 46.9262 149.064C49.6506 146.417 53.2087 144.388 56.603 145.535C59.9973 146.682 62.3941 150.828 62.8705 155.045C63.1431 159.312 62.535 163.594 61.0989 167.52C59.3571 173.113 57.0049 178.724 52.9705 182.323C48.936 185.922 43.3235 189.292 39.3932 185.569" fill="url(#paint1_linear)"/>
<path d="M10.8393 178.105C12.3014 168.519 11.1818 158.63 7.63889 149.839C4.09599 141.049 -1.69056 133.802 -8.90127 129.125C-13.3675 126.355 -18.9651 124.696 -23.5057 127.361C-28.0464 130.025 -30.3986 136.853 -30.0264 143.011C-29.6542 149.169 -27.168 154.85 -24.4139 160.073C-20.5432 167.413 -15.809 174.541 -9.2139 178.229C-2.61882 181.917 6.19448 184.722 10.8393 178.07" fill="url(#paint2_linear)"/>
<path d="M12.9237 126.655C18.5809 104.988 8.97855 78.6982 -7.04022 66.259C-12.0126 62.3949 -18.3099 59.7129 -23.8629 62.2184C-29.4159 64.7239 -32.7953 72.311 -32.9888 79.5099C-33.1824 86.7087 -30.8302 93.6252 -28.1356 100.154C-24.384 109.205 -19.5754 118.151 -12.2657 123.356C-4.95599 128.561 6.81989 133.748 12.9237 126.655Z" fill="url(#paint3_linear)"/>
<path d="M24.2683 232.627C24.1828 232.281 24.123 231.926 24.0897 231.568C23.9854 230.774 23.8663 229.804 23.7026 228.551C23.7026 227.88 23.5388 227.157 23.4495 226.363C23.3602 225.569 23.1815 224.704 23.0327 223.787C22.7349 221.934 22.4223 219.817 21.9161 217.523C21.6779 216.376 21.4397 215.177 21.1866 213.906C20.9335 212.636 20.5465 211.383 20.219 210.042C19.6086 207.36 18.7302 204.572 17.8668 201.608C15.842 195.253 13.4852 189.054 10.8102 183.046C8.0584 177.084 5.00076 171.327 1.65445 165.808C0.0466194 163.338 -1.41234 160.92 -2.97551 158.75C-3.73476 157.692 -4.46425 156.668 -5.16395 155.662L-7.29284 152.945C-8.6327 151.181 -9.94278 149.699 -11.0742 148.375C-11.6399 147.723 -12.1759 147.123 -12.6523 146.611C-13.1287 146.099 -13.6348 145.605 -14.0517 145.146L-15.9721 143.1C-16.209 142.876 -16.4238 142.622 -16.6123 142.341C-16.3441 142.511 -16.0941 142.718 -15.8679 142.959L-13.873 144.882L-12.3843 146.293L-10.7467 148.058C-9.58549 149.346 -8.23074 150.793 -6.87599 152.557L-4.68756 155.257L-2.45446 158.309C-0.861511 160.391 0.627226 162.826 2.26483 165.367C5.63443 170.877 8.69777 176.641 11.4354 182.623C14.1256 188.662 16.4779 194.904 18.4771 201.308C19.3108 204.308 20.1892 207.113 20.7847 209.83C21.0973 211.171 21.4099 212.477 21.6928 213.73C21.9757 214.982 22.1692 216.218 22.3925 217.382C22.8689 219.693 23.1369 221.828 23.4048 223.699C23.5239 224.616 23.643 225.463 23.7621 226.292C23.8812 227.122 23.8961 227.827 23.9557 228.498C24.045 229.751 24.1194 230.756 24.179 231.55C24.2447 231.904 24.2747 232.265 24.2683 232.627Z" fill="#263238"/>
<path d="M23.8507 236.508C23.831 236.368 23.831 236.225 23.8507 236.085C23.8507 235.749 23.8507 235.326 23.9401 234.832C24.0294 233.65 24.1485 232.044 24.3122 230.015C24.4016 228.956 24.4909 227.792 24.5951 226.486C24.6993 225.18 24.7142 223.822 24.7737 222.34C24.8631 219.358 25.1013 215.97 25.0268 212.212C25.0268 210.342 25.0268 208.365 25.0268 206.319C25.0268 204.272 24.8482 202.155 24.7588 199.949C24.6397 195.538 24.1336 190.862 23.6721 185.94C22.459 175.281 20.5881 164.743 18.0744 154.409C15.4271 144.14 12.1481 134.115 8.26369 124.414C6.373 119.985 4.64607 115.733 2.72561 111.957C1.7877 110.052 0.954013 108.164 0.0161114 106.435L-2.66361 101.494C-4.31611 98.283 -6.07281 95.601 -7.53177 93.1661C-8.26125 91.9663 -8.93118 90.8194 -9.58622 89.7961L-11.4174 87.0788L-13.9482 83.2853L-14.6181 82.2973C-14.767 82.0679 -14.8414 81.9444 -14.8266 81.9268L-14.5586 82.2267C-14.3799 82.4913 -14.1417 82.7913 -13.8589 83.1795L-11.2238 86.8671L-9.31825 89.549C-8.64832 90.5548 -7.9635 91.684 -7.20425 92.8838C-5.71552 95.3011 -3.92904 97.9654 -2.23188 101.159C-1.36841 102.729 -0.445399 104.37 0.50739 106.082C1.46018 107.793 2.29387 109.611 3.26155 111.604C5.21179 115.38 6.96849 119.633 8.88896 124.061C12.8272 133.806 16.1319 143.892 18.7741 154.233C21.3123 164.606 23.1786 175.194 24.3569 185.904C24.7886 190.862 25.265 195.556 25.3692 200.02C25.3692 202.225 25.5925 204.36 25.5925 206.425C25.5925 208.489 25.5925 210.447 25.5925 212.318C25.5925 216.094 25.3692 219.481 25.2352 222.463C25.1459 223.963 25.1013 225.357 24.9971 226.627C24.8928 227.898 24.744 229.044 24.6398 230.156C24.4165 232.185 24.2527 233.791 24.1187 234.955C24.1187 235.467 23.9996 235.873 23.9698 236.208C23.94 236.543 23.8656 236.526 23.8507 236.508Z" fill="#263238"/>
<path d="M54.6823 25.9768C54.6414 26.1193 54.5865 26.2555 54.5186 26.3826L54.0124 27.5119L51.9877 31.7994C51.556 32.7169 51.0349 33.7403 50.499 34.8872L48.9209 38.663C48.3403 40.0217 47.7448 41.4685 47.0898 42.9859C46.4347 44.5033 45.8839 46.2148 45.2437 47.9616C44.6036 49.7084 43.889 51.4904 43.234 53.4489C42.5789 55.4075 41.9536 57.4013 41.2688 59.4833C40.9264 60.5243 40.584 61.583 40.2416 62.6769C39.8992 63.7709 39.6014 64.8824 39.2888 66.0117C38.6338 68.2701 37.9787 70.5992 37.2939 73.0694C34.7928 82.6855 32.4109 93.3956 30.4011 104.829C28.3913 116.263 27.0961 127.184 26.0837 137.189C25.0714 147.193 24.595 156.245 24.4164 163.867C24.2526 167.66 24.2228 171.119 24.208 174.136C24.1931 177.153 24.208 179.764 24.208 181.899C24.208 184.034 24.208 185.605 24.208 186.804V188.092C24.2305 188.232 24.2305 188.376 24.208 188.516C24.1983 188.375 24.1983 188.233 24.208 188.092C24.208 187.757 24.208 187.334 24.208 186.822C24.208 185.622 24.0889 183.981 23.9995 181.917C23.9102 179.852 23.8655 177.171 23.8655 174.136C23.8655 171.101 23.8655 167.66 23.9549 163.849C24.0591 156.209 24.6397 147.14 25.4436 137.1C26.2475 127.061 27.7511 116.068 29.7014 104.653C31.6516 93.2368 34.1676 82.5091 36.6835 72.893L38.6933 65.9235C39.0208 64.7942 39.3484 63.665 39.6759 62.5711C40.0034 61.4771 40.3756 60.4361 40.7329 59.3951C41.4177 57.2954 42.1025 55.284 42.7427 53.3431C43.3828 51.4022 44.1421 49.6201 44.7971 47.8734C45.4522 46.1266 46.0774 44.468 46.7027 42.9153L48.5934 38.6101L50.1417 34.6578C50.6776 33.5109 51.2136 32.5228 51.6304 31.6053L53.7742 27.3884C54.0124 26.9649 54.2059 26.612 54.3548 26.3121C54.4519 26.1847 54.5619 26.0721 54.6823 25.9768Z" fill="#263238"/>
<path d="M50.6481 157.674C50.293 158.584 49.8747 159.457 49.3976 160.285C48.5341 161.926 47.3431 164.361 45.9437 167.343C44.5443 170.325 42.9662 174.065 41.4775 178.247C39.8302 182.797 38.3793 187.443 37.1304 192.168C35.9301 196.904 34.9363 201.709 34.1529 206.566C33.4384 211.065 32.9471 215.141 32.6642 218.582C32.3814 222.022 32.2027 224.81 32.1283 226.751C32.1353 227.756 32.0656 228.76 31.9198 229.75C31.8334 228.748 31.8036 227.74 31.8305 226.733C31.8305 224.792 31.8305 221.987 32.1134 218.529C32.3887 214.47 32.8359 210.43 33.4532 206.425C34.9596 196.595 37.4588 187.016 40.8969 177.894C42.2943 174.18 43.8496 170.553 45.5566 167.025C47.0454 164.008 48.281 161.626 49.2338 159.968C49.6549 159.161 50.1277 158.394 50.6481 157.674Z" fill="#263238"/>
<path d="M1.02863 222.958H53.0301L46.7327 285.912H7.50462L1.02863 222.958Z" fill="#455A64"/>
<path d="M2.92004 279.119L7.34158 285.913H46.7335L51.2741 279.331L2.92004 279.119Z" fill="#263238"/>
<path d="M51.006 241.466C51.006 241.731 40.2127 241.943 26.9034 241.943C13.5942 241.943 2.80084 241.731 2.80084 241.466C2.80084 241.201 13.5793 241.007 26.9034 241.007C40.2276 241.007 51.006 241.219 51.006 241.466Z" fill="#FAFAFA"/>
<path d="M51.006 245.665C51.006 245.912 40.2127 246.124 26.9034 246.124C13.5942 246.124 2.80084 245.912 2.80084 245.665C2.80084 245.418 13.5793 245.207 26.9034 245.207C40.2276 245.207 51.006 245.418 51.006 245.665Z" fill="#FAFAFA"/>
<path d="M50.3502 249.724C50.3502 249.971 39.929 250.183 27.0962 250.183C14.2633 250.183 3.82727 249.971 3.82727 249.724C3.82727 249.477 14.2484 249.265 27.0962 249.265C39.9439 249.265 50.3502 249.477 50.3502 249.724Z" fill="#FAFAFA"/>
</g>
<defs>
<linearGradient id="paint0_linear" x1="47.4288" y1="0" x2="47.4288" y2="83.8813" gradientUnits="userSpaceOnUse">
<stop stop-color="#4A27F3"/>
<stop offset="1" stop-color="#339DFA"/>
</linearGradient>
<linearGradient id="paint1_linear" x1="50.1761" y1="145.208" x2="50.1761" y2="187.191" gradientUnits="userSpaceOnUse">
<stop stop-color="#4A27F3"/>
<stop offset="1" stop-color="#339DFA"/>
</linearGradient>
<linearGradient id="paint2_linear" x1="-9.30035" y1="126.014" x2="-9.30035" y2="182.088" gradientUnits="userSpaceOnUse">
<stop stop-color="#4A27F3"/>
<stop offset="1" stop-color="#339DFA"/>
</linearGradient>
<linearGradient id="paint3_linear" x1="-9.22096" y1="61.2446" x2="-9.22096" y2="130.116" gradientUnits="userSpaceOnUse">
<stop stop-color="#4A27F3"/>
<stop offset="1" stop-color="#339DFA"/>
</linearGradient>
</defs>
</svg>
