<svg width="253" height="257" viewBox="0 0 253 257" fill="none" xmlns="http://www.w3.org/2000/svg">
<path d="M199.425 129.692C199.425 129.692 195.417 129.399 195.786 138.528C196.156 147.657 197.072 152.524 197.072 152.524C197.072 152.524 196.95 154.544 195.407 154.149C193.864 153.753 190.959 151.784 189.527 153.254C188.095 154.724 188.571 157.125 190.539 159.885C192.508 162.645 196.611 168.849 196.981 169.414C197.35 169.98 197.487 171.003 196.394 170.9C195.301 170.797 187.918 168.258 186.936 171.892C185.955 175.526 192.7 182.295 193.423 183.051C194.147 183.806 194.182 184.279 193.889 184.737C193.595 185.194 191.197 184.099 189.067 183.467C186.936 182.835 184.356 182.47 183.966 184.613C183.577 186.757 186.542 193.033 197.659 199.622L203.007 202.336L208.067 199.057C218.481 191.347 220.813 184.824 220.211 182.732C219.609 180.64 217.074 181.257 215.05 182.105C213.026 182.953 210.708 184.284 210.369 183.863C210.03 183.441 210.025 182.958 210.673 182.136C211.321 181.313 217.357 173.912 216.026 170.376C214.696 166.839 207.596 170.139 206.519 170.35C205.441 170.561 205.481 169.517 205.785 168.931C206.089 168.345 209.57 161.735 211.26 158.795C212.95 155.855 213.248 153.46 211.619 152.113C209.99 150.766 207.349 153.049 205.856 153.604C204.363 154.159 204.039 152.149 204.039 152.149C204.039 152.149 204.474 147.22 203.943 138.096C203.412 128.973 199.364 129.692 199.364 129.692" fill="#EBEBEB"/>
<path d="M199.738 137.87C199.738 137.87 199.738 137.932 199.738 138.06C199.738 138.189 199.764 138.379 199.784 138.621C199.814 139.135 199.865 139.849 199.925 140.774C200.047 142.65 200.209 145.359 200.391 148.711C200.755 155.393 201.185 164.67 201.626 174.899C202.066 185.127 202.471 194.395 202.8 201.113C202.967 204.459 203.103 207.168 203.194 209.049C203.24 209.979 203.275 210.704 203.3 211.208C203.3 211.449 203.3 211.634 203.326 211.773C203.329 211.837 203.329 211.9 203.326 211.963C203.326 211.963 203.326 211.897 203.326 211.773C203.326 211.65 203.3 211.449 203.28 211.213C203.25 210.699 203.199 209.984 203.139 209.054C203.012 207.183 202.855 204.474 202.673 201.123C202.309 194.441 201.879 185.158 201.438 174.909C200.998 164.66 200.593 155.418 200.264 148.695C200.098 145.354 199.961 142.645 199.865 140.759C199.824 139.829 199.784 139.104 199.764 138.6C199.764 138.364 199.764 138.173 199.738 138.04C199.736 137.983 199.736 137.927 199.738 137.87Z" fill="#E0E0E0"/>
<path d="M193.479 156.179C193.601 156.257 193.714 156.35 193.813 156.457C194.021 156.647 194.319 156.935 194.663 157.284C195.367 157.999 196.318 159.006 197.345 160.137L199.961 163.041L200.755 163.92C200.861 164.02 200.954 164.132 201.034 164.254C200.911 164.176 200.799 164.083 200.7 163.976C200.492 163.786 200.194 163.503 199.855 163.144C199.156 162.424 198.22 161.406 197.193 160.276L194.557 157.387L193.757 156.513C193.652 156.413 193.559 156.301 193.479 156.179Z" fill="#E0E0E0"/>
<path d="M201.565 164.074C201.525 164.033 203.478 161.956 205.932 159.448C208.386 156.94 210.405 154.909 210.445 154.95C210.486 154.992 208.533 157.068 206.079 159.576C203.624 162.085 201.606 164.115 201.565 164.074Z" fill="#E0E0E0"/>
<path d="M201.54 179.818C201.656 179.724 201.781 179.643 201.914 179.576L202.962 178.98C203.842 178.466 205.061 177.777 206.377 176.955C207.693 176.132 208.861 175.356 209.701 174.781L210.713 174.107C210.832 174.017 210.959 173.94 211.093 173.876C211.093 173.876 210.982 173.994 210.759 174.174C210.536 174.354 210.213 174.601 209.798 174.904C208.978 175.51 207.819 176.312 206.498 177.135C205.178 177.957 203.968 178.641 203.042 179.108C202.592 179.345 202.223 179.53 201.965 179.648C201.832 179.726 201.689 179.783 201.54 179.818Z" fill="#E0E0E0"/>
<path d="M192.68 174.308C192.812 174.351 192.937 174.411 193.054 174.488C193.282 174.611 193.616 174.796 194.02 175.032C194.835 175.5 195.953 176.163 197.183 176.903C198.413 177.644 199.516 178.327 200.31 178.831C200.71 179.083 201.029 179.288 201.246 179.437C201.366 179.503 201.476 179.584 201.575 179.679C201.444 179.641 201.319 179.582 201.206 179.504C200.973 179.381 200.644 179.191 200.234 178.959C199.425 178.487 198.306 177.829 197.077 177.083C195.847 176.338 194.744 175.66 193.95 175.161C193.55 174.909 193.231 174.704 193.014 174.554C192.891 174.489 192.778 174.406 192.68 174.308Z" fill="#E0E0E0"/>
<path d="M190.924 188.206C191.09 188.262 191.248 188.339 191.394 188.437L192.639 189.131C193.686 189.728 195.123 190.565 196.687 191.501C198.251 192.436 199.698 193.295 200.735 193.922L201.949 194.677C202.102 194.764 202.247 194.865 202.38 194.981C202.216 194.92 202.058 194.842 201.909 194.749L200.664 194.05C199.617 193.454 198.175 192.616 196.616 191.681C195.058 190.745 193.606 189.887 192.568 189.26L191.354 188.504C191.202 188.419 191.058 188.319 190.924 188.206Z" fill="#E0E0E0"/>
<path d="M202.157 194.739C202.305 194.621 202.46 194.515 202.623 194.421L203.923 193.619C205.021 192.94 206.534 191.994 208.174 190.91C209.813 189.825 211.281 188.803 212.333 188.057L213.583 187.173C213.732 187.057 213.891 186.956 214.058 186.87C213.925 187.005 213.782 187.129 213.628 187.24C213.35 187.466 212.935 187.785 212.419 188.175C211.407 188.952 209.935 189.995 208.285 191.085C206.635 192.174 205.112 193.1 203.999 193.747C203.438 194.066 202.987 194.323 202.663 194.493C202.502 194.59 202.333 194.673 202.157 194.739Z" fill="#E0E0E0"/>
<path d="M210.198 204.115H195.402L200.229 241.246H205.365L210.198 204.115Z" fill="#E0E0E0"/>
<path d="M196.166 208.684C196.166 208.684 196.166 208.735 196.247 208.818C196.345 208.931 196.468 209.019 196.606 209.075C196.863 209.166 197.138 209.195 197.408 209.161C197.678 209.128 197.937 209.031 198.165 208.879C198.767 208.545 199.283 207.887 200.088 207.599C200.974 207.309 201.93 207.327 202.805 207.651C203.694 207.962 204.544 208.382 205.335 208.9C205.997 209.318 206.685 209.693 207.394 210.02C207.877 210.241 208.388 210.392 208.912 210.468C209.054 210.49 209.198 210.501 209.342 210.498C209.443 210.498 209.494 210.498 209.494 210.498C208.794 210.389 208.113 210.182 207.47 209.882C206.773 209.535 206.098 209.147 205.446 208.72C204.643 208.182 203.776 207.751 202.865 207.435C201.94 207.094 200.928 207.083 199.996 207.404C199.6 207.566 199.234 207.796 198.914 208.083C198.647 208.323 198.365 208.545 198.069 208.746C197.861 208.891 197.624 208.99 197.375 209.034C197.126 209.079 196.871 209.068 196.626 209.003C196.456 208.925 196.3 208.817 196.166 208.684Z" fill="#F5F5F5"/>
<path d="M196.707 215.52C196.707 215.52 196.824 215.366 197.057 215.119C197.394 214.783 197.797 214.524 198.241 214.359C198.898 214.116 199.596 214.009 200.295 214.045C201.16 214.108 202.02 214.227 202.87 214.4C203.739 214.568 204.627 214.607 205.507 214.513C206.223 214.416 206.922 214.213 207.581 213.911C208.023 213.708 208.441 213.455 208.826 213.156C208.975 213.058 209.109 212.936 209.221 212.796C208.675 213.158 208.103 213.477 207.511 213.752C206.862 214.016 206.181 214.189 205.487 214.266C204.628 214.346 203.763 214.303 202.916 214.138C202.056 213.965 201.185 213.852 200.31 213.798C199.582 213.772 198.856 213.902 198.18 214.179C197.722 214.365 197.315 214.66 196.991 215.037C196.907 215.14 196.833 215.25 196.768 215.366C196.738 215.413 196.718 215.465 196.707 215.52Z" fill="#F5F5F5"/>
<path d="M208.523 219.18C208.401 219.082 208.262 219.009 208.113 218.964C207.72 218.814 207.307 218.724 206.888 218.697C206.267 218.657 205.644 218.694 205.031 218.805C204.343 218.918 203.604 219.113 202.825 219.278C202.104 219.452 201.365 219.537 200.624 219.529C200.022 219.514 199.428 219.385 198.873 219.149C198.369 218.91 197.918 218.569 197.547 218.147C197.602 218.293 197.686 218.426 197.795 218.537C198.079 218.859 198.423 219.119 198.807 219.303C199.375 219.577 199.991 219.731 200.619 219.756C201.38 219.777 202.14 219.698 202.881 219.519C203.665 219.349 204.399 219.149 205.077 219.005C205.672 218.889 206.277 218.837 206.883 218.851C207.441 218.89 207.992 219.001 208.523 219.18Z" fill="#F5F5F5"/>
<path d="M198.018 224.33C198.468 224.13 198.969 224.078 199.45 224.181C199.976 224.311 200.485 224.503 200.968 224.752C201.833 225.169 202.787 225.361 203.744 225.311C204.7 225.26 205.63 224.969 206.448 224.464C206.767 224.268 207.064 224.037 207.333 223.775C207.433 223.681 207.52 223.574 207.592 223.456C207.201 223.768 206.792 224.054 206.367 224.315C205.317 224.896 204.123 225.154 202.931 225.055C201.53 224.973 200.457 224.125 199.485 224.027C199.107 223.951 198.717 223.978 198.352 224.104C198.114 224.207 198.008 224.32 198.018 224.33Z" fill="#F5F5F5"/>
<path d="M198.858 231.454C199.283 231.468 199.705 231.384 200.093 231.208C200.836 230.956 201.757 230.375 202.835 229.943C203.333 229.734 203.865 229.62 204.404 229.609C204.842 229.606 205.275 229.707 205.669 229.902C206.025 230.1 206.337 230.371 206.585 230.699C206.563 230.584 206.514 230.477 206.443 230.385C206.265 230.12 206.027 229.901 205.75 229.748C205.339 229.517 204.878 229.392 204.409 229.383C203.84 229.382 203.276 229.494 202.749 229.712C201.631 230.164 200.725 230.74 200.032 231.043C199.339 231.346 198.858 231.418 198.858 231.454Z" fill="#F5F5F5"/>
<path d="M199.566 234.769C199.861 234.921 200.176 235.027 200.502 235.083C201.273 235.27 202.056 235.404 202.845 235.484C203.634 235.561 204.427 235.584 205.218 235.551C205.548 235.558 205.876 235.518 206.195 235.433C206.195 235.361 204.677 235.433 202.865 235.237C201.054 235.042 199.581 234.698 199.566 234.769Z" fill="#F5F5F5"/>
<path d="M80.3242 68.8439L36.9243 79.3223L52.0673 144.041L95.4672 133.563L80.3242 68.8439Z" fill="#E0E0E0"/>
<path d="M76.9456 66.9346L33.5457 77.413L48.6887 142.132L92.0886 131.653L76.9456 66.9346Z" fill="#EBEBEB"/>
<path d="M73.4605 66.3575L30.0605 76.8359L44.9145 140.32L88.3145 129.841L73.4605 66.3575Z" fill="#F5F5F5"/>
<path d="M72.9194 133.563C72.9194 133.563 83.0394 126.557 85.5239 118.405C84.4538 119.624 83.1514 120.61 81.6955 121.304C80.2397 121.997 78.6605 122.384 77.0535 122.44C77.0535 122.44 75.9757 131.157 72.9194 133.563Z" fill="#EBEBEB"/>
<path d="M73.1523 83.268C73.1523 83.34 65.4662 85.2572 55.9483 87.5548C46.4305 89.8523 38.6988 91.6668 38.6836 91.5845C38.6684 91.5023 46.3698 89.5953 55.8876 87.2978C65.4055 85.0002 73.1372 83.1909 73.1523 83.268Z" fill="#E0E0E0"/>
<path d="M74.2301 87.894C74.2301 87.966 66.5439 89.8883 57.0261 92.1808C47.5082 94.4732 39.7766 96.2928 39.7614 96.2105C39.7462 96.1283 47.4475 94.2213 56.9654 91.9238C66.4832 89.6262 74.2098 87.7963 74.2301 87.894Z" fill="#E0E0E0"/>
<path d="M75.308 92.4738C75.308 92.5457 67.6218 94.4681 58.104 96.7657C48.5861 99.0632 40.8544 100.878 40.8393 100.795C40.8241 100.713 48.5203 98.8011 58.0433 96.5035C67.5662 94.2059 75.2877 92.4018 75.308 92.4738Z" fill="#E0E0E0"/>
<path d="M76.406 97.0792C76.406 97.1512 68.7199 99.0736 59.202 101.371C49.6841 103.669 41.9525 105.483 41.9373 105.401C41.9221 105.319 49.6184 103.407 59.1413 101.109C68.6642 98.8114 76.3655 97.0073 76.406 97.0792Z" fill="#E0E0E0"/>
<path d="M77.4634 101.685C77.4634 101.757 69.7773 103.679 60.2594 105.976C50.7416 108.274 43.0099 110.078 43.0099 109.996C43.0099 109.914 50.691 108.002 60.2139 105.704C69.7368 103.406 77.4432 101.613 77.4634 101.685Z" fill="#E0E0E0"/>
<path d="M78.5411 106.29C78.5411 106.362 70.8549 108.284 61.3371 110.582C51.8192 112.88 44.0926 114.694 44.0774 114.612C44.0622 114.53 51.7585 112.618 61.2814 110.32C70.8043 108.022 78.5208 106.218 78.5411 106.29Z" fill="#E0E0E0"/>
<path d="M79.619 110.896C79.619 110.967 71.9328 112.89 62.415 115.187C52.8971 117.485 45.1705 119.299 45.1553 119.217C45.1401 119.135 52.8364 117.223 62.3593 114.925C71.8822 112.628 79.5987 110.824 79.619 110.896Z" fill="#E0E0E0"/>
<path d="M80.6967 115.506C80.6967 115.578 73.0106 117.495 63.4927 119.793C53.9749 122.09 46.2482 123.905 46.2331 123.823C46.2179 123.74 53.9141 121.828 63.4371 119.531C72.96 117.233 80.6765 115.434 80.6967 115.506Z" fill="#E0E0E0"/>
<path d="M240.482 241.2C240.482 241.272 189.052 241.333 125.62 241.333C62.1874 241.333 10.7576 241.272 10.7576 241.2C10.7576 241.128 62.1823 241.066 125.62 241.066C189.057 241.066 240.482 241.123 240.482 241.2Z" fill="#263238"/>
<path d="M109.503 223.235L108.324 236.44L104.423 246.612C104.356 246.785 104.326 246.971 104.332 247.157C104.339 247.343 104.384 247.525 104.463 247.693C104.542 247.861 104.655 248.01 104.793 248.132C104.932 248.254 105.093 248.345 105.268 248.401C105.472 248.467 105.688 248.483 105.898 248.446C106.109 248.409 106.308 248.322 106.477 248.19C108.674 246.489 116.719 240.197 116.754 239.226C116.795 238.1 118.91 225.374 118.91 225.374L109.503 223.235Z" fill="url(#paint0_linear)"/>
<g opacity="0.6">
<path opacity="0.6" d="M105.248 248.406L116.835 238.342L116.77 238.897C116.719 239.381 116.498 239.83 116.147 240.161C115.216 241.051 112.605 243.446 106.498 248.2C106.323 248.337 106.117 248.427 105.898 248.463C105.68 248.499 105.457 248.479 105.248 248.406Z" fill="white"/>
</g>
<g opacity="0.6">
<path opacity="0.6" d="M114.67 233.783C114.5 233.883 114.372 234.043 114.31 234.232C114.247 234.421 114.255 234.627 114.331 234.811C114.422 234.991 114.578 235.128 114.767 235.194C114.955 235.26 115.161 235.25 115.343 235.165C115.526 235.058 115.663 234.886 115.728 234.682C115.794 234.478 115.783 234.256 115.697 234.06C115.582 233.883 115.404 233.758 115.2 233.712C114.996 233.666 114.782 233.702 114.604 233.813" fill="white"/>
</g>
<path d="M108.881 242.993C108.62 242.546 108.276 242.153 107.869 241.837C107.415 241.59 106.919 241.433 106.407 241.374C106.407 241.338 106.574 241.256 106.883 241.246C107.288 241.247 107.685 241.366 108.026 241.59C108.367 241.811 108.637 242.127 108.805 242.5C108.917 242.788 108.917 242.983 108.881 242.993Z" fill="#263238"/>
<path d="M107.778 244.664C107.712 244.715 107.343 244.237 106.695 243.965C106.284 243.837 105.867 243.733 105.445 243.651C105.659 243.548 105.894 243.499 106.131 243.507C106.368 243.515 106.599 243.58 106.806 243.698C107.525 243.996 107.828 244.623 107.778 244.664Z" fill="#263238"/>
<path d="M110.855 240.927C110.35 240.489 109.814 240.09 109.25 239.735C108.644 239.46 108.018 239.234 107.378 239.056C108.073 238.999 108.769 239.145 109.385 239.477C110.001 239.808 110.511 240.311 110.855 240.927Z" fill="#263238"/>
<path d="M111.543 236.954C111.502 237.031 110.819 236.64 109.888 236.502C108.957 236.363 108.198 236.502 108.178 236.414C108.734 236.188 109.341 236.119 109.933 236.214C110.526 236.309 111.082 236.565 111.543 236.954Z" fill="#263238"/>
<path d="M111.988 233.078C111.444 232.827 110.869 232.654 110.278 232.564C109.679 232.564 109.084 232.645 108.507 232.806C108.507 232.775 108.648 232.626 108.967 232.487C109.389 232.312 109.845 232.239 110.3 232.276C110.754 232.313 111.194 232.457 111.583 232.698C111.877 232.878 112.013 233.048 111.988 233.078Z" fill="#263238"/>
<path d="M110.384 231.814C110.36 231.642 110.374 231.466 110.424 231.3C110.518 230.848 110.7 230.419 110.961 230.041C111.127 229.747 111.383 229.516 111.689 229.383C111.795 229.349 111.907 229.35 112.012 229.384C112.117 229.418 112.21 229.484 112.276 229.573C112.396 229.756 112.447 229.977 112.418 230.195C112.337 230.634 112.109 231.031 111.772 231.317C111.435 231.604 111.011 231.763 110.571 231.768C110.134 231.765 109.708 231.63 109.348 231.38C108.987 231.13 108.708 230.777 108.547 230.364C108.507 230.26 108.489 230.149 108.495 230.037C108.501 229.925 108.531 229.816 108.582 229.717C108.642 229.622 108.731 229.549 108.835 229.51C108.939 229.471 109.053 229.468 109.159 229.501C109.471 229.608 109.749 229.798 109.964 230.051C110.286 230.376 110.548 230.757 110.738 231.177C110.817 231.325 110.867 231.487 110.885 231.655C110.602 231.121 110.246 230.632 109.827 230.2C109.63 229.989 109.385 229.83 109.114 229.737C109.055 229.719 108.992 229.72 108.935 229.741C108.877 229.763 108.828 229.803 108.795 229.856C108.767 229.922 108.753 229.994 108.753 230.066C108.753 230.139 108.767 230.21 108.795 230.277C108.944 230.627 109.19 230.926 109.502 231.139C109.814 231.351 110.18 231.468 110.556 231.475C110.927 231.47 111.285 231.337 111.572 231.099C111.86 230.862 112.06 230.532 112.14 230.164C112.166 230.013 112.137 229.858 112.059 229.727C112.023 229.676 111.973 229.638 111.915 229.618C111.857 229.597 111.794 229.596 111.735 229.614C111.476 229.729 111.257 229.921 111.107 230.164C110.774 230.667 110.529 231.225 110.384 231.814Z" fill="#263238"/>
<path d="M160.291 94.9512C160.304 95.0087 160.304 95.0685 160.291 95.126C160.073 95.933 158.707 99.3099 158.241 99.2945C157.776 99.2791 156.683 98.5543 156.779 98.0712C156.875 97.588 158.621 93.877 158.621 93.877C158.621 93.877 158.935 93.3116 159.987 93.5634C160.114 93.5994 160.26 95.09 160.291 94.9512Z" fill="#EB996E"/>
<path d="M158.56 92.9364C158.56 92.9364 158.56 93.0083 158.535 93.106C158.312 93.9181 156.951 97.2951 156.486 97.2745C156.02 97.254 154.927 96.5344 155.023 96.0564C155.119 95.5783 156.865 91.8621 156.865 91.8621C156.865 91.8621 157.179 91.2916 158.231 91.5434C158.884 91.6976 158.56 92.9364 158.56 92.9364Z" fill="#EB996E"/>
<path d="M157.032 91.5382C157.032 91.5382 157.032 91.6101 157.032 91.7078C156.814 92.5199 155.448 95.8969 154.983 95.8763C154.517 95.8558 153.424 95.1362 153.52 94.6581C153.616 94.1801 155.342 90.4639 155.342 90.4639C155.276 90.5821 155.19 89.7854 156.708 90.1452C157.366 90.2994 157.032 91.5382 157.032 91.5382Z" fill="#EB996E"/>
<path d="M155.104 90.1915C155.104 90.1915 155.104 90.2635 155.104 90.3611C154.887 91.1733 153.52 94.5451 153.055 94.5297C152.589 94.5143 151.496 93.7895 151.593 93.3115C151.689 92.8335 153.434 89.1173 153.434 89.1173C153.434 89.1173 153.748 88.5467 154.801 88.7986C155.423 88.9528 155.104 90.1915 155.104 90.1915Z" fill="#EB996E"/>
<path d="M157.123 97.0741C157.45 96.5794 157.717 96.0461 157.917 95.4858C158.181 94.9604 158.377 94.4023 158.499 93.8256C158.17 94.3211 157.903 94.8564 157.705 95.419C157.438 95.9413 157.242 96.4981 157.123 97.0741Z" fill="#D1734A"/>
<path d="M155.145 96.2979C155.581 95.576 155.948 94.8135 156.243 94.0209C156.607 93.2607 156.905 92.4696 157.133 91.6565C156.699 92.3797 156.332 93.142 156.035 93.9335C155.671 94.6936 155.373 95.4848 155.145 96.2979Z" fill="#D1734A"/>
<g opacity="0.78">
<path opacity="0.78" d="M153.207 95.3316C153.651 94.6033 154.027 93.834 154.33 93.034C154.696 92.2746 154.994 91.4833 155.22 90.6696C154.789 91.3926 154.422 92.1529 154.122 92.9414C153.749 93.7093 153.442 94.5091 153.207 95.3316Z" fill="#D1734A"/>
</g>
<path d="M157.811 101.772C157.892 101.572 159.218 97.5726 159.218 97.5726L151.628 93.7742C151.243 94.2882 150.075 99.8959 150.075 99.8959L150.343 101.808C150.343 101.808 156.101 105.17 156.258 105.2C156.415 105.231 157.811 101.772 157.811 101.772Z" fill="#EB996E"/>
<path d="M151.881 100.045L151.107 97.146C150.77 95.8727 150.927 94.5165 151.547 93.3578L152.023 92.4738L158.469 95.455C158.469 95.455 156.976 97.6035 155.337 96.4418L156.597 98.9296L151.881 100.045Z" fill="#EB996E"/>
<path d="M156.04 99.166C156.005 99.166 156.04 98.8268 155.949 98.2562C155.793 97.4707 155.359 96.7704 154.73 96.2876L154.133 95.8404L154.851 96.0409L156.511 96.5138H156.475C156.837 96.562 157.204 96.505 157.534 96.3494C157.865 96.1938 158.145 95.946 158.343 95.6348C158.372 95.5867 158.396 95.5348 158.413 95.4806L158.51 95.6862C156.653 94.9204 154.968 94.2059 153.814 93.6302C153.227 93.3372 152.756 93.0854 152.443 92.9055C152.269 92.8251 152.108 92.7176 151.967 92.5868C152.629 92.8271 153.277 93.1033 153.91 93.4143C155.099 93.9283 156.774 94.6222 158.636 95.3881L158.778 95.4446L158.727 95.5937C158.704 95.6669 158.673 95.7375 158.636 95.8044C158.415 96.2004 158.067 96.5071 157.649 96.6731C157.27 96.8187 156.864 96.8766 156.46 96.8427H156.425L154.775 96.3287L154.897 96.082C155.563 96.615 155.997 97.3918 156.106 98.2459C156.165 98.5531 156.142 98.8707 156.04 99.166Z" fill="#D1734A"/>
<path d="M157.589 96.2619C157.655 96.2619 157.543 96.6217 157.644 97.0945C157.665 97.2233 157.725 97.3422 157.816 97.4344C157.907 97.5267 158.024 97.5876 158.15 97.6085C158.31 97.5977 158.464 97.5445 158.597 97.4544C158.731 97.3642 158.838 97.2401 158.909 97.0945C159.299 96.4006 159.699 95.7684 159.921 95.3058C160.144 94.8432 160.286 94.5348 160.331 94.5502C160.377 94.5657 160.331 94.8946 160.134 95.4086C159.853 96.0535 159.53 96.6785 159.168 97.2796C159.068 97.4773 158.917 97.643 158.73 97.7582C158.543 97.8735 158.328 97.9338 158.11 97.9324C157.925 97.8985 157.756 97.8027 157.63 97.6602C157.505 97.5177 157.43 97.3367 157.417 97.1459C157.386 96.9214 157.407 96.6927 157.477 96.4777C157.528 96.3338 157.569 96.2567 157.589 96.2619Z" fill="#D1734A"/>
<path d="M131.302 62.0809L129.08 85.2109C128.994 86.0963 128.57 86.9121 127.898 87.483C127.226 88.0539 126.361 88.3343 125.488 88.2641L120.261 87.8374C119.387 87.7664 118.576 87.3493 118.002 86.6762C117.429 86.0031 117.139 85.1279 117.194 84.2394C117.361 81.4638 117.625 78.0714 117.625 78.0714C117.625 78.0714 112.762 77.3056 112.701 72.366C112.671 70.0016 113 65.17 113.349 60.7548C113.535 58.4104 114.583 56.2232 116.285 54.6286C117.987 53.0341 120.217 52.1493 122.533 52.1504H122.857C124.059 52.222 125.235 52.5379 126.315 53.0794C127.395 53.6209 128.358 54.377 129.145 55.3029C129.932 56.2288 130.529 57.3057 130.899 58.4699C131.27 59.6341 131.407 60.862 131.302 62.0809Z" fill="#EB996E"/>
<path d="M117.615 78.0149C119.865 78.0626 122.079 77.4253 123.97 76.1851C123.97 76.1851 122.452 79.7419 117.62 79.2948L117.615 78.0149Z" fill="#D1734A"/>
<path d="M114.401 64.4196C114.487 64.5121 115.014 64.1163 115.762 64.1215C116.511 64.1266 117.058 64.5018 117.139 64.4093C117.22 64.3168 117.088 64.1986 116.85 64.0238C116.528 63.7971 116.144 63.6768 115.752 63.6794C115.363 63.6753 114.983 63.7998 114.669 64.0341C114.437 64.214 114.356 64.3785 114.401 64.4196Z" fill="#263238"/>
<path d="M121.723 64.4196C121.809 64.5122 122.335 64.1164 123.084 64.1215C123.833 64.1267 124.375 64.5019 124.461 64.4094C124.547 64.3168 124.41 64.1986 124.172 64.0239C123.847 63.7983 123.463 63.6782 123.069 63.6795C122.68 63.6765 122.3 63.8009 121.986 64.0341C121.759 64.214 121.683 64.3785 121.723 64.4196Z" fill="#263238"/>
<path d="M119.036 68.8195C118.643 68.6924 118.235 68.6164 117.822 68.5933C117.63 68.5933 117.453 68.5368 117.417 68.4031C117.401 68.2036 117.447 68.0038 117.549 67.8326C117.726 67.3597 117.913 66.8714 118.11 66.3523C118.895 64.2551 119.461 62.523 119.381 62.4921C119.3 62.4613 118.591 64.1421 117.807 66.2443L117.265 67.7246C117.148 67.9593 117.114 68.2281 117.169 68.4854C117.198 68.5535 117.241 68.6145 117.295 68.6641C117.349 68.7138 117.413 68.751 117.483 68.7732C117.589 68.8005 117.698 68.8143 117.807 68.8143C118.215 68.8661 118.628 68.8679 119.036 68.8195Z" fill="#263238"/>
<path d="M121.238 69.3437C121.116 69.3437 121.111 70.161 120.418 70.7469C119.725 71.3329 118.86 71.2609 118.854 71.3535C118.849 71.446 119.047 71.5128 119.411 71.5231C119.887 71.532 120.35 71.3679 120.717 71.0605C121.071 70.7693 121.298 70.3484 121.349 69.8886C121.379 69.5442 121.293 69.3386 121.238 69.3437Z" fill="#263238"/>
<path d="M121.556 60.2151C121.627 60.4207 122.376 60.323 123.252 60.431C124.127 60.5389 124.835 60.7805 124.952 60.5955C125.007 60.5081 124.881 60.3128 124.598 60.1123C124.216 59.8678 123.784 59.7148 123.335 59.6649C122.886 59.615 122.432 59.6696 122.007 59.8244C121.688 59.953 121.526 60.138 121.556 60.2151Z" fill="#263238"/>
<path d="M114.68 60.8525C114.811 61.0221 115.322 60.8525 115.945 60.8525C116.567 60.8525 117.088 60.9655 117.205 60.7856C117.26 60.6983 117.205 60.5286 116.947 60.3642C116.641 60.1712 116.285 60.0741 115.925 60.0851C115.565 60.096 115.217 60.2146 114.923 60.4258C114.69 60.5903 114.619 60.7651 114.68 60.8525Z" fill="#263238"/>
<path d="M126.019 56.6633H126.05C126.824 57.2842 127.334 58.1844 127.472 59.1768C127.469 59.2093 127.469 59.242 127.472 59.2744C127.664 60.6828 127.628 62.1169 127.831 63.5252C127.962 64.9535 128.562 66.2953 129.536 67.334C129.956 67.7297 130.7 68.0073 131.054 67.5396C131.167 67.3432 131.227 67.1195 131.226 66.8919C131.484 63.4892 132.4 60.4721 132.395 56.9152C132.395 56.4389 132.284 55.9694 132.071 55.5451C131.859 55.1207 131.55 54.7536 131.171 54.4737C130.437 53.9597 129.541 53.3891 128.727 53.7798C127.912 54.1704 126.854 55.7227 126.222 56.3498" fill="#263238"/>
<path d="M129.662 64.3117C129.743 64.2757 133.002 63.2837 132.896 66.6863C132.789 70.089 129.475 69.2563 129.47 69.1638C129.465 69.0713 129.662 64.3117 129.662 64.3117Z" fill="#EB996E"/>
<path d="M130.548 67.9148C130.548 67.9148 130.604 67.9559 130.7 68.0073C130.839 68.0639 130.995 68.0639 131.135 68.0073C131.353 67.8767 131.534 67.6893 131.657 67.4643C131.781 67.2394 131.843 66.985 131.838 66.7274C131.855 66.4379 131.809 66.1482 131.702 65.8793C131.673 65.7729 131.621 65.6749 131.548 65.5935C131.475 65.5122 131.383 65.4498 131.282 65.4116C131.215 65.3916 131.144 65.3955 131.081 65.4227C131.017 65.4499 130.965 65.4986 130.932 65.5607C130.887 65.6532 130.902 65.7251 130.887 65.7303C130.872 65.7354 130.816 65.6686 130.846 65.5298C130.868 65.4479 130.916 65.3756 130.983 65.3242C131.078 65.2589 131.193 65.2314 131.307 65.2471C131.443 65.2786 131.569 65.3453 131.673 65.4408C131.777 65.5362 131.855 65.6571 131.899 65.792C132.029 66.089 132.086 66.4134 132.066 66.7377C132.072 67.039 131.99 67.3354 131.832 67.5902C131.674 67.8451 131.445 68.0473 131.175 68.1718C131.088 68.1907 130.998 68.1908 130.911 68.1723C130.824 68.1537 130.742 68.1167 130.669 68.0638C130.548 67.997 130.512 67.9199 130.548 67.9148Z" fill="#D1734A"/>
<path d="M128.848 54.3194C129.668 52.9728 127.421 51.0298 125.782 50.5056C124.142 49.9813 121.981 50.7934 120.347 51.3434C119.335 51.6878 118.293 52.1761 117.205 52.1298C116.48 52.0555 115.771 51.8719 115.1 51.585C114.426 51.2969 113.701 51.1517 112.97 51.1583C112.605 51.1659 112.25 51.2748 111.942 51.4733C111.634 51.6718 111.386 51.9522 111.224 52.284C111.154 52.4521 111.121 52.6334 111.127 52.8157C111.132 52.9979 111.176 53.1768 111.256 53.3402C111.336 53.5036 111.449 53.6476 111.588 53.7625C111.728 53.8774 111.89 53.9604 112.064 54.0059C111.832 53.8787 111.574 53.8103 111.31 53.8064C111.047 53.8025 110.787 53.8633 110.552 53.9836C110.317 54.1039 110.113 54.2801 109.96 54.4973C109.806 54.7144 109.706 54.9661 109.669 55.2309C109.632 55.4956 109.658 55.7657 109.745 56.0179C109.833 56.2702 109.979 56.4973 110.171 56.6799C110.364 56.8624 110.597 56.995 110.85 57.0664C111.104 57.1378 111.371 57.1459 111.629 57.0899C111.153 56.725 110.429 57.3263 110.49 57.9277C110.553 58.2227 110.691 58.4959 110.89 58.7203C111.089 58.9447 111.342 59.1127 111.624 59.2076C113.01 59.8244 114.629 59.6291 116.061 59.1356C117.493 58.6422 118.829 57.8815 120.251 57.3572C121.673 56.8329 124.056 55.882 125.483 56.396C126.535 56.7712 127.269 58.0562 127.861 57.7735C128.141 57.6223 128.383 57.4062 128.565 57.1428C128.748 56.8794 128.867 56.5761 128.914 56.2572C128.993 55.6153 128.971 54.9646 128.848 54.3297" fill="#263238"/>
<path d="M111.659 53.9135C111.689 53.9135 111.831 54.1653 112.19 54.556C112.7 55.1057 113.334 55.5203 114.037 55.7639C115.069 56.1452 116.207 56.0991 117.205 55.6354C118.338 55.1214 119.305 54.0934 120.418 53.1219C121.452 52.1408 122.757 51.5041 124.157 51.2972C124.736 51.2265 125.323 51.2906 125.874 51.4847C126.424 51.6789 126.924 51.998 127.335 52.4177C127.599 52.7117 127.801 53.0567 127.931 53.432C128.06 53.8074 128.114 54.2053 128.089 54.6022C128.068 54.8131 128.02 55.0204 127.947 55.219C127.887 55.3527 127.846 55.4195 127.836 55.4144C127.9 55.1442 127.942 54.8691 127.962 54.592C127.964 53.8403 127.677 53.1178 127.163 52.5771C126.769 52.2008 126.298 51.9183 125.783 51.7503C125.269 51.5822 124.723 51.5328 124.188 51.6056C122.859 51.8236 121.625 52.4413 120.646 53.3789C119.553 54.3247 118.556 55.3835 117.347 55.9181C116.455 56.3063 115.464 56.3919 114.52 56.1623C113.577 55.9326 112.731 55.4 112.109 54.6434C111.979 54.4826 111.862 54.3106 111.76 54.1294C111.679 53.97 111.649 53.9186 111.659 53.9135Z" fill="#455A64"/>
<path d="M130.507 64.1678C130.507 64.1678 130.366 64.0753 130.239 63.8028C130.073 63.4188 130.015 62.9951 130.072 62.5795C130.148 61.495 131.084 60.3231 131.216 58.8222C131.298 58.128 131.169 57.4247 130.846 56.8073C130.563 56.3184 130.129 55.9374 129.612 55.7228C129.26 55.5739 128.876 55.5208 128.499 55.5686C128.235 55.6097 128.089 55.6765 128.079 55.6508C128.068 55.6251 128.195 55.5274 128.473 55.4401C128.877 55.3378 129.301 55.3592 129.693 55.5017C130.28 55.7064 130.779 56.1115 131.104 56.648C131.48 57.316 131.633 58.0895 131.54 58.853C131.456 59.5957 131.24 60.3168 130.902 60.981C130.627 61.4939 130.426 62.0444 130.305 62.6155C130.215 63.1418 130.286 63.6834 130.507 64.1678Z" fill="#455A64"/>
<path d="M101.858 39.9686C101.681 39.8196 101.053 34.3146 101.053 34.3146L105.607 31.6007L112.691 33.2609L111.269 37.2907L103.993 41.1662L101.858 39.9686Z" fill="#EB996E"/>
<path d="M87.7707 44.3222C87.7707 44.3222 99.2165 38.2776 106.559 37.486C114.71 36.6019 122.928 41.5312 122.928 41.5312L121.303 19.6913C121.303 19.6913 113.637 13.878 103.887 16.3503C95.6188 18.4475 87.3457 22.5183 87.3457 22.5183L87.7707 44.3222Z" fill="#FAFAFA"/>
<path d="M87.7707 44.3222V43.947L87.7403 42.8213C87.715 41.7933 87.6796 40.3541 87.629 38.478C87.543 34.6796 87.4165 29.226 87.2596 22.544V22.4772L87.3204 22.4464C89.5113 21.4184 91.8997 20.3492 94.4701 19.3624C97.1694 18.2771 99.9224 17.3352 102.718 16.5405L103.821 16.2424L104.96 16.0059C105.728 15.8472 106.505 15.7356 107.287 15.6718C108.894 15.5596 110.507 15.6268 112.099 15.8723C113.736 16.139 115.34 16.58 116.886 17.1881C118.479 17.804 119.996 18.6079 121.405 19.5834L121.45 19.6142V19.681C121.45 19.8918 121.485 20.1231 121.501 20.3492C122.052 27.8382 122.584 34.9982 123.064 41.5209V41.7522L122.862 41.6391C120.578 40.3619 118.164 39.3432 115.661 38.6014C113.388 37.9191 111.034 37.556 108.663 37.522C106.561 37.5353 104.47 37.8432 102.45 38.4369C100.557 38.9509 98.847 39.5574 97.3088 40.1382C94.2424 41.3153 91.8693 42.3998 90.2501 43.1606L88.4083 44.0446L87.9377 44.2759L87.7707 44.3479L87.9276 44.2554L88.388 44.0087C88.8029 43.7928 89.4 43.4947 90.2197 43.0835C91.8238 42.3022 94.1918 41.1919 97.2582 39.9995C98.7762 39.4084 100.507 38.7967 102.404 38.2673C104.438 37.6547 106.547 37.3347 108.669 37.3164C111.068 37.3469 113.452 37.7154 115.753 38.4112C118.277 39.1462 120.713 40.1669 123.014 41.4541L122.831 41.5723C122.325 35.0496 121.819 27.8896 121.248 20.4006L121.197 19.7273L121.253 19.825C119.862 18.8667 118.366 18.0766 116.795 17.4708C115.266 16.8682 113.678 16.4306 112.059 16.1653C110.476 15.91 108.871 15.8324 107.272 15.934C106.501 15.9972 105.734 16.1053 104.975 16.2578L103.851 16.4942L102.753 16.7872C99.9685 17.5601 97.2242 18.4762 94.5309 19.532C91.9654 20.5291 89.5721 21.588 87.3912 22.616L87.4469 22.5235C87.5531 29.2055 87.6391 34.623 87.6999 38.4061C87.7252 40.2924 87.7454 41.7676 87.7606 42.7802V43.9316C87.7758 44.204 87.7707 44.3222 87.7707 44.3222Z" fill="#263238"/>
<path d="M116.917 35.5122C116.841 35.5122 116.537 31.8268 116.239 27.2882C115.94 22.7496 115.753 19.0179 115.824 19.0179C115.894 19.0179 116.198 22.6982 116.502 27.2419C116.805 31.7857 116.987 35.5071 116.917 35.5122Z" fill="#E0E0E0"/>
<path d="M114.042 34.366C113.971 34.366 113.668 30.6806 113.369 26.142C113.071 21.6034 112.863 17.918 112.954 17.8872C113.045 17.8563 113.329 21.5674 113.627 26.1112C113.926 30.6549 114.118 34.3609 114.042 34.366Z" fill="#E0E0E0"/>
<path d="M111.274 33.965C111.203 33.965 110.9 30.2797 110.596 25.741C110.293 21.2024 110.09 17.4862 110.186 17.4862C110.282 17.4862 110.561 21.1664 110.859 25.7102C111.158 30.254 111.345 33.9599 111.274 33.965Z" fill="#E0E0E0"/>
<path d="M105.592 34.7721C105.521 34.7721 105.218 31.0867 104.914 26.5481C104.61 22.0095 104.408 18.3241 104.504 18.2933C104.6 18.2624 104.879 21.9735 105.177 26.5173C105.476 31.061 105.663 34.767 105.592 34.7721Z" fill="#E0E0E0"/>
<path d="M102.946 35.5122C102.875 35.5122 102.571 31.832 102.273 27.2882C101.974 22.7444 101.787 19.0179 101.858 19.0179C101.929 19.0179 102.232 22.7033 102.536 27.2419C102.839 31.7806 103.022 35.5071 102.946 35.5122Z" fill="#E0E0E0"/>
<path d="M100.132 36.2421C100.056 36.2421 99.758 32.5568 99.4544 28.0181C99.1508 23.4795 98.9484 19.7633 99.0394 19.7633C99.1305 19.7633 99.4189 23.4435 99.7175 27.9873C100.016 32.5311 100.188 36.237 100.132 36.2421Z" fill="#E0E0E0"/>
<path d="M94.7738 38.4882C94.6979 38.4882 94.3943 34.808 94.0958 30.2642C93.7972 25.7205 93.5897 22.0145 93.6808 22.0094C93.7719 22.0043 94.0553 25.6948 94.3589 30.2334C94.6625 34.772 94.8446 38.4831 94.7738 38.4882Z" fill="#E0E0E0"/>
<path d="M97.3339 37.2701C97.258 37.2701 96.9595 33.5899 96.6559 29.0461C96.3523 24.5024 96.1499 20.7913 96.241 20.7861C96.3321 20.781 96.6205 24.4715 96.919 29.0101C97.2176 33.5488 97.4048 37.2701 97.3339 37.2701Z" fill="#E0E0E0"/>
<path d="M91.7834 39.4649C91.7125 39.4649 91.4089 35.7795 91.1104 31.2409C90.8118 26.7023 90.6044 23.0169 90.6955 22.986C90.7866 22.9552 91.0699 26.6663 91.3735 31.21C91.6771 35.7538 91.8593 39.4597 91.7834 39.4649Z" fill="#E0E0E0"/>
<path d="M108.355 34.0473C108.284 34.0473 107.98 30.3619 107.677 25.8233C107.373 21.2847 107.171 17.5736 107.267 17.5685C107.363 17.5633 107.641 21.2487 107.94 25.7925C108.239 30.3362 108.426 34.0422 108.355 34.0473Z" fill="#E0E0E0"/>
<path d="M118.96 32.6647C118.96 32.6647 119.021 32.7572 119.077 32.9628C119.146 33.2703 119.127 33.5914 119.021 33.888C118.845 34.3568 118.535 34.7614 118.131 35.0496C117.891 35.2359 117.631 35.3945 117.356 35.5225C117.046 35.6626 116.72 35.7644 116.385 35.8258C115.619 35.9737 114.83 35.9527 114.073 35.7641C113.651 35.664 113.238 35.53 112.838 35.3632C112.154 35.1102 111.525 34.7226 110.989 34.2225C110.452 33.7224 110.018 33.1197 109.711 32.4488C109.177 31.4825 108.998 30.3551 109.205 29.2672C109.336 28.6899 109.666 28.1795 110.136 27.828C110.588 27.5133 111.109 27.3157 111.654 27.2523C112.968 27.0782 114.304 27.2565 115.529 27.7696C116.754 28.2827 117.825 29.1127 118.637 30.1769C119.311 31.0837 119.713 32.1688 119.795 33.3021C119.854 33.7086 119.844 34.1223 119.765 34.5254C119.687 34.1296 119.629 33.7298 119.593 33.3277C119.44 32.2603 119.008 31.254 118.343 30.4134C117.348 29.1769 115.984 28.3021 114.457 27.9205C113.568 27.6905 112.644 27.6381 111.735 27.7663C111.273 27.833 110.832 28.0091 110.45 28.2803C110.08 28.5571 109.821 28.9606 109.721 29.4162C109.546 30.3815 109.711 31.3786 110.186 32.2329C110.579 33.0693 111.168 33.7947 111.902 34.3455C113.193 35.2436 114.758 35.6446 116.314 35.4763C116.903 35.3934 117.464 35.1716 117.954 34.8286C118.329 34.5858 118.632 34.2426 118.829 33.8366C118.939 33.5721 118.987 33.2854 118.971 32.9988C118.945 32.8893 118.941 32.7756 118.96 32.6647Z" fill="url(#paint1_linear)"/>
<path d="M107.469 42.0503L109.752 40.1742C110.749 39.3559 111.397 38.177 111.558 36.8846L111.684 35.8977L104.828 34.4894C104.828 34.4894 104.186 36.5968 106.766 37.1211C104.479 38.1491 103.624 40.2051 102.996 42.5129L107.469 42.0503Z" fill="#EB996E"/>
<path d="M104.641 38.8996C104.676 38.8996 104.823 38.6117 105.238 38.2262C105.808 37.6866 106.554 37.3808 107.333 37.3678H108.067L107.378 37.1057L105.779 36.494H105.81C105.49 36.3223 105.224 36.0613 105.045 35.7418C104.866 35.4222 104.78 35.0573 104.798 34.6899C104.803 34.6343 104.813 34.5792 104.828 34.5254L104.636 34.6334C106.559 35.1165 108.299 35.5226 109.574 35.7436C110.212 35.8567 110.728 35.9338 111.092 35.9698C111.277 36.0072 111.466 36.0175 111.654 36.0006C110.989 35.8016 110.313 35.6403 109.63 35.5174C108.375 35.2399 106.645 34.7978 104.722 34.3095L104.575 34.2736L104.53 34.4175C104.507 34.4929 104.492 34.5704 104.484 34.6488C104.432 35.0939 104.536 35.5433 104.778 35.9184C104.996 36.2599 105.289 36.5463 105.633 36.7562L107.242 37.3216L107.287 37.0543C106.449 37.0899 105.658 37.4592 105.086 38.0823C104.869 38.3095 104.715 38.5917 104.641 38.8996Z" fill="#D1734A"/>
<path d="M120.823 228.118L130.664 148.962L128.777 136.966H109.008L106.65 226.674C106.64 227.017 106.75 227.353 106.962 227.622C107.173 227.89 107.471 228.073 107.803 228.139L118.611 229.83C118.868 229.87 119.13 229.857 119.381 229.791C119.632 229.726 119.868 229.61 120.075 229.451C120.281 229.291 120.453 229.091 120.582 228.862C120.711 228.633 120.792 228.38 120.823 228.118Z" fill="#263238"/>
<path d="M130.381 151.63L148.283 169.62L122.528 175.978L124.36 189.152L159.218 184.336C160.693 184.132 162.111 183.625 163.387 182.846C164.663 182.068 165.77 181.034 166.641 179.807C167.957 177.951 168.679 175.728 168.709 173.44C168.739 171.152 168.075 168.911 166.808 167.019L139.656 126.542L127.512 130.556L130.381 151.63Z" fill="#263238"/>
<path d="M129.394 147.035C129.685 147.763 129.894 148.521 130.017 149.296C130.225 150.053 130.347 150.83 130.381 151.615C130.091 150.887 129.882 150.128 129.759 149.353C129.551 148.597 129.429 147.819 129.394 147.035Z" fill="#455A64"/>
<path d="M126.788 177.633C126.788 177.633 126.93 177.577 127.213 177.489L128.463 177.093L133.27 175.608L150.747 170.268L150.702 170.437L129.212 147.199L129.44 147.122C129.01 150.777 128.569 154.585 128.114 158.476C125.898 177.33 123.818 194.39 122.204 206.726C121.404 212.894 120.686 217.874 120.18 221.313C119.892 223.03 119.704 224.366 119.507 225.26L119.294 226.288C119.244 226.515 119.214 226.633 119.214 226.633C119.226 226.514 119.245 226.395 119.269 226.278C119.31 226.042 119.375 225.702 119.456 225.25C119.633 224.356 119.806 223.014 120.079 221.297C120.585 217.854 121.237 212.868 122.017 206.7C123.58 194.364 125.63 177.299 127.846 158.446C128.301 154.555 128.747 150.736 129.177 147.091L129.207 146.809L129.399 147.014L150.844 170.298L150.955 170.422L150.798 170.468L133.295 175.721L128.478 177.15L127.213 177.52L126.788 177.633Z" fill="#455A64"/>
<path d="M120.995 226.628C120.919 226.628 122.963 209.815 125.549 189.106C128.134 168.397 130.3 151.584 130.371 151.615C130.442 151.645 128.403 168.417 125.817 189.137C123.231 209.856 121.066 226.633 120.995 226.628Z" fill="#455A64"/>
<path d="M127.476 138.657C127.661 139.049 127.8 139.461 127.891 139.885C128.109 140.651 128.397 141.725 128.64 142.918C128.883 144.11 129.085 145.2 129.202 146.002C129.291 146.426 129.333 146.858 129.328 147.292C129.183 146.886 129.079 146.465 129.02 146.038C128.837 145.159 128.62 144.126 128.382 142.984L127.709 139.942C127.59 139.522 127.512 139.092 127.476 138.657Z" fill="#455A64"/>
<path d="M128.625 137.104C128.625 137.104 128.878 136.858 129.354 137.027C129.493 137.078 129.616 137.165 129.711 137.279C129.806 137.394 129.87 137.532 129.895 137.68C129.929 137.863 129.909 138.052 129.837 138.223C129.765 138.395 129.644 138.54 129.49 138.641C129.331 138.73 129.149 138.767 128.969 138.749C128.788 138.73 128.617 138.657 128.478 138.538C128.364 138.44 128.281 138.309 128.239 138.163C128.198 138.017 128.2 137.861 128.245 137.716C128.294 137.526 128.414 137.364 128.579 137.264C128.696 137.197 128.772 137.197 128.777 137.212C128.782 137.228 128.503 137.356 128.422 137.762C128.4 137.87 128.407 137.982 128.444 138.085C128.481 138.189 128.545 138.28 128.63 138.348C128.733 138.432 128.858 138.482 128.989 138.494C129.121 138.506 129.253 138.479 129.369 138.415C129.478 138.339 129.565 138.233 129.619 138.109C129.672 137.986 129.691 137.85 129.672 137.716C129.656 137.605 129.612 137.5 129.546 137.41C129.48 137.321 129.393 137.249 129.293 137.202C129.081 137.117 128.852 137.083 128.625 137.104Z" fill="#455A64"/>
<path d="M153.551 172.704C153.5 172.766 152.488 171.825 151.021 170.977C149.553 170.129 148.273 169.692 148.293 169.615C150.315 170.058 152.147 171.137 153.531 172.699L153.551 172.704Z" fill="#455A64"/>
<path d="M108.724 136.724L106.984 105.262C106.984 105.262 104.388 93.9283 102.146 89.3743L113.982 80.5643L117.048 82.0601L123.12 87.6678L129.263 84.0235C129.263 84.0235 136.62 87.1692 138.558 88.3514C140.496 89.5336 140.881 92.6793 140.881 92.6793C140.881 92.6793 134.5 104.1 134.303 108.582C134.105 113.065 140.683 124.516 140.683 124.516C140.683 124.516 144.281 125.601 144.483 128.541C144.66 131.085 143.497 131.995 143.497 131.995C143.497 131.995 142.991 129.23 139.332 130.412C135.674 131.594 128.018 138.477 122.528 138.672C117.038 138.867 108.724 136.724 108.724 136.724Z" fill="url(#paint2_linear)"/>
<path d="M140.556 91.3378L145.222 110.767L150.525 97.917L158.044 102.543C158.044 102.543 150.96 128.145 143.937 125.627C143.937 125.627 139.565 123.381 139.028 121.787C138.492 120.194 130.386 108.582 130.386 108.582L140.556 91.3378Z" fill="url(#paint3_linear)"/>
<path d="M140.668 124.516C140.668 124.516 140.602 124.444 140.506 124.301L140.081 123.668C139.899 123.391 139.671 123.052 139.444 122.64C139.216 122.229 138.938 121.772 138.669 121.232C138.401 120.692 138.098 120.122 137.829 119.474C137.561 118.826 137.273 118.133 137 117.392C136.437 115.773 136.002 114.111 135.699 112.422C135.42 110.723 135.27 109.005 135.249 107.282C135.249 106.49 135.249 105.74 135.304 105.036C135.36 104.332 135.411 103.684 135.466 103.088C135.603 101.9 135.75 100.944 135.891 100.292C135.952 99.9935 136.003 99.7416 136.048 99.5412C136.059 99.4523 136.083 99.3657 136.119 99.2842C136.131 99.3729 136.131 99.4627 136.119 99.5515C136.089 99.7571 136.053 100.009 136.013 100.312C135.907 100.97 135.785 101.926 135.674 103.108C135.628 103.699 135.557 104.347 135.547 105.046C135.537 105.745 135.507 106.49 135.512 107.277C135.548 108.981 135.705 110.68 135.982 112.36C136.279 114.036 136.704 115.686 137.253 117.295C137.516 118.03 137.759 118.734 138.052 119.351C138.346 119.968 138.599 120.574 138.852 121.114C139.105 121.653 139.358 122.111 139.59 122.527C139.823 122.944 140.02 123.293 140.187 123.581L140.567 124.244C140.611 124.331 140.645 124.422 140.668 124.516Z" fill="#263238"/>
<path d="M100.117 38.4009C100.117 38.4009 88.2768 58.6114 87.4672 61.5926C86.6171 64.6766 103.057 91.091 103.057 91.091C103.057 91.091 103.376 91.9391 103.381 91.934L115.13 82.3993L101.281 62.4921L108.724 42.6105L100.117 38.4009Z" fill="url(#paint4_linear)"/>
<path d="M101.762 63.2991C101.721 63.3299 101.473 62.9701 100.952 62.5178C100.27 61.9332 99.4656 61.5149 98.5999 61.2949C97.7343 61.0748 96.8306 61.0589 95.9579 61.2482C95.29 61.3973 94.9004 61.5978 94.8801 61.5515C95.177 61.3079 95.5222 61.1326 95.8921 61.0375C96.2921 60.9195 96.7053 60.8539 97.1217 60.8422C97.6328 60.8311 98.1432 60.8881 98.6397 61.0118C99.1336 61.1435 99.6095 61.3369 100.057 61.5875C100.423 61.7986 100.763 62.054 101.069 62.3482C101.365 62.6099 101.602 62.9344 101.762 63.2991Z" fill="#263238"/>
<path d="M107.141 92.7255C107.09 92.7255 107.115 92.0214 106.928 90.9163C106.813 90.2671 106.644 89.6291 106.422 89.0093C105.894 87.4836 105.064 86.0841 103.983 84.8973C103.542 84.418 103.063 83.9762 102.551 83.5763C101.666 82.8979 101.033 82.5895 101.069 82.5483C101.226 82.5911 101.378 82.655 101.519 82.7385C101.693 82.8186 101.862 82.9096 102.025 83.0109C102.244 83.1384 102.457 83.2774 102.662 83.4273C103.208 83.8121 103.717 84.2493 104.18 84.7328C104.736 85.3311 105.229 85.9856 105.653 86.686C106.066 87.3917 106.405 88.1394 106.665 88.9168C106.873 89.5522 107.023 90.2062 107.11 90.87C107.145 91.124 107.167 91.3796 107.176 91.6359C107.191 91.8292 107.191 92.0234 107.176 92.2167C107.191 92.3871 107.179 92.559 107.141 92.7255Z" fill="#263238"/>
<path d="M139.292 125.102C139.292 125.133 138.922 125.102 138.28 125.144C137.362 125.237 136.464 125.474 135.618 125.848C134.367 126.411 133.189 127.129 132.112 127.986C130.877 128.932 129.582 130.083 128.109 131.121C126.73 132.147 125.149 132.859 123.474 133.208C122.105 133.454 120.705 133.47 119.33 133.255C118.407 133.117 117.498 132.897 116.613 132.597C116.299 132.489 116.061 132.396 115.899 132.329C115.816 132.3 115.737 132.262 115.661 132.216C115.993 132.291 116.321 132.383 116.643 132.494C117.53 132.755 118.435 132.948 119.35 133.069C120.697 133.251 122.063 133.214 123.398 132.962C125.043 132.614 126.596 131.913 127.952 130.906C129.42 129.878 130.705 128.731 131.96 127.791C133.059 126.93 134.263 126.219 135.542 125.673C136.409 125.306 137.332 125.093 138.27 125.041C138.522 125.025 138.776 125.025 139.029 125.041C139.118 125.051 139.207 125.071 139.292 125.102Z" fill="#263238"/>
<path d="M144.746 119.685C144.588 119.27 144.485 118.837 144.438 118.395C144.275 117.334 144.223 116.259 144.281 115.187C144.341 114.115 144.511 113.053 144.787 112.016C144.879 111.581 145.029 111.161 145.232 110.767C145.171 111.204 145.083 111.636 144.969 112.062C144.754 113.097 144.617 114.147 144.559 115.203C144.504 116.259 144.531 117.317 144.64 118.369C144.705 118.805 144.741 119.244 144.746 119.685Z" fill="#263238"/>
<g opacity="0.3">
<path opacity="0.3" d="M116.157 132.098C116.198 130.813 117.706 130.078 118.971 130.155C120.236 130.232 121.435 130.813 122.7 130.859C124.845 130.941 126.748 129.513 128.387 128.125C130.027 126.737 131.848 125.241 133.994 125.154C134.262 125.154 134.601 125.2 134.677 125.467C134.753 125.735 134.545 125.935 134.363 126.1C131.722 128.495 129.02 130.936 125.761 132.34C122.503 133.743 118.53 133.964 115.57 131.995" fill="black"/>
</g>
<g opacity="0.3">
<path opacity="0.3" d="M135.881 100.924C135.525 107.215 137.538 113.408 141.513 118.246C142.176 119.042 142.91 119.829 143.234 120.816C143.557 121.803 143.34 123.077 142.439 123.581C142.047 123.762 141.61 123.822 141.184 123.753C140.759 123.683 140.363 123.488 140.046 123.19C139.42 122.588 138.933 121.853 138.619 121.037C135.633 114.55 134.156 107.061 136.089 100.173" fill="black"/>
</g>
<path d="M77.5192 204.788C78.0252 203.061 79.0625 201.395 80.6867 200.676C82.311 199.956 84.3299 200.357 86.0605 200.995C87.791 201.632 89.4861 202.49 91.3229 202.603C93.1596 202.716 95.2292 201.832 95.7807 200.033C96.2867 198.353 95.3 196.569 94.0553 195.351C92.7398 194.064 91.1265 193.134 89.3642 192.647C87.602 192.16 85.7474 192.132 83.9714 192.565C82.1955 192.997 80.5553 193.877 79.2022 195.123C77.8491 196.369 76.8266 197.941 76.2289 199.694" fill="url(#paint5_linear)"/>
<g opacity="0.5">
<path opacity="0.5" d="M77.5192 204.788C78.0252 203.061 79.0625 201.395 80.6867 200.676C82.311 199.956 84.3299 200.357 86.0605 200.995C87.791 201.632 89.4861 202.49 91.3229 202.603C93.1596 202.716 95.2292 201.832 95.7807 200.033C96.2867 198.353 95.3 196.569 94.0553 195.351C92.7398 194.064 91.1265 193.134 89.3642 192.647C87.602 192.16 85.7474 192.132 83.9714 192.565C82.1955 192.997 80.5553 193.877 79.2022 195.123C77.8491 196.369 76.8266 197.941 76.2289 199.694" fill="black"/>
</g>
<path d="M62.9766 212.282C60.2796 209.686 60.4163 205.158 61.7572 201.642C63.0981 198.126 66.0379 195.423 69.3117 193.639C72.5096 191.934 76.046 190.987 79.6556 190.869C83.2653 190.75 86.8544 191.464 90.1539 192.956C88.5382 193.026 86.9641 193.497 85.5694 194.329C84.1748 195.161 83.0021 196.327 82.154 197.726C80.6816 200.218 80.3527 203.241 79.118 205.867C77.7436 208.829 75.3053 211.144 72.3036 212.337C69.3019 213.53 65.9646 213.51 62.9766 212.282Z" fill="url(#paint6_linear)"/>
<path d="M61.6816 196.662C58.7013 193.089 58.3015 187.348 58.7417 182.681C59.182 178.014 60.2597 173.321 59.521 168.695C59.0909 165.95 58.0435 163.334 57.6893 160.579C57.3351 157.824 57.836 154.714 59.9359 152.936C62.3495 150.88 66.1496 151.394 68.6644 153.295C71.1792 155.197 72.6264 158.225 73.689 161.226C76.0267 167.826 76.8869 175.14 74.9641 181.874C73.0413 188.607 68.543 194.631 61.9397 196.662" fill="url(#paint7_linear)"/>
<path d="M60.2493 226.001C60.2382 225.864 60.2382 225.726 60.2493 225.59C60.2493 225.322 60.2493 224.921 60.2493 224.407C60.2898 223.379 60.3859 221.899 60.6136 220.079C60.8766 217.945 61.2584 215.827 61.7572 213.737C62.3773 211.169 63.3355 208.699 64.606 206.392C65.8811 204.088 67.446 201.963 69.2612 200.069C70.7392 198.525 72.3762 197.146 74.1441 195.957C74.8879 195.443 75.6064 195.037 76.2288 194.667C76.8512 194.297 77.4179 194.05 77.8733 193.829L78.946 193.372C79.0682 193.313 79.1952 193.265 79.3255 193.228C79.21 193.299 79.09 193.363 78.9663 193.418L77.9138 193.932C77.4685 194.169 76.9018 194.446 76.2946 194.806C75.6874 195.166 74.9739 195.592 74.2402 196.122C70.3524 198.811 67.1295 202.377 64.8236 206.541C62.081 211.413 61.3271 216.538 60.7756 220.126C60.5276 221.94 60.4011 223.415 60.3353 224.438C60.305 224.952 60.2847 225.327 60.2696 225.615C60.2723 225.744 60.2656 225.873 60.2493 226.001Z" fill="#263238"/>
<path d="M34.5295 182.557C29.009 185.94 29.0293 189.018 29.9755 191.923C30.9217 194.827 34.2815 196.847 37.0898 195.757C38.6736 195.14 39.8273 193.742 40.8089 192.334C41.7906 190.925 42.7115 189.419 44.0878 188.407C45.4641 187.394 47.4578 187.009 48.8391 188.011" fill="url(#paint8_linear)"/>
<g opacity="0.5">
<path opacity="0.5" d="M34.5295 182.557C29.009 185.94 29.0293 189.018 29.9755 191.923C30.9217 194.827 34.2815 196.847 37.0898 195.757C38.6736 195.14 39.8273 193.742 40.8089 192.334C41.7906 190.925 42.7115 189.419 44.0878 188.407C45.4641 187.394 47.4578 187.009 48.8391 188.011" fill="black"/>
</g>
<path d="M30.3952 186.263C31.8373 184.238 35.4046 183.652 37.6513 184.665C39.8979 185.677 41.5525 187.677 43.0098 189.666C44.4671 191.655 45.9193 193.778 47.9636 195.171C50.0078 196.564 52.8616 197.068 54.9008 195.685C55.5496 195.193 56.0929 194.572 56.4974 193.86C56.902 193.147 57.1593 192.359 57.2537 191.542C57.4343 189.906 57.3246 188.251 56.9299 186.654C56.4239 184.305 55.6497 181.848 53.7977 180.358C51.7333 178.692 48.8693 178.615 46.2381 178.702C43.2021 178.8 40.1661 179.031 37.3123 180.095C34.4584 181.159 31.5793 183.457 30.375 186.263" fill="url(#paint9_linear)"/>
<path d="M55.6601 221.534C55.6536 221.493 55.6536 221.451 55.6601 221.411C55.6601 221.313 55.6601 221.195 55.6601 221.051C55.6601 220.712 55.6601 220.244 55.6146 219.658C55.5792 218.429 55.5286 216.687 55.4678 214.544C55.4071 212.4 55.316 209.81 55.1592 206.962C55.0023 204.115 54.7949 200.974 54.3698 197.71C54.1891 196.123 53.8828 194.554 53.454 193.017C52.6006 190.299 51.2928 187.75 49.5881 185.482C48.8774 184.557 48.0976 183.689 47.2555 182.886C46.0263 181.731 44.6348 180.768 43.1265 180.028C42.8583 179.9 42.6205 179.777 42.413 179.689L41.8716 179.479L41.5427 179.345L41.4314 179.288L41.5528 179.319L41.8919 179.432L42.4383 179.622C42.6559 179.7 42.8937 179.818 43.167 179.936C44.7037 180.651 46.1235 181.601 47.3769 182.753C48.2351 183.556 49.0287 184.427 49.75 185.359C50.5687 186.433 51.2949 187.576 51.9208 188.777C52.618 190.101 53.1938 191.488 53.6412 192.92C54.0768 194.471 54.3865 196.056 54.5672 197.659C54.9973 200.933 55.1997 204.073 55.3413 206.911C55.483 209.748 55.5539 212.339 55.5994 214.502C55.6449 216.666 55.6551 218.414 55.6652 219.642V221.02C55.6652 221.169 55.6652 221.287 55.6652 221.385C55.67 221.435 55.6683 221.485 55.6601 221.534Z" fill="#263238"/>
<path d="M57.6485 224.047C57.3864 223.261 57.1851 222.455 57.0464 221.637C56.6621 219.406 56.5769 217.132 56.7934 214.878C57.1317 211.544 57.8361 208.26 58.8933 205.086C60.0267 201.488 61.5649 197.623 62.8755 193.48C63.5234 191.466 64.0522 189.415 64.4593 187.338C64.8235 185.4 65.0854 183.444 65.2436 181.478C65.4953 178.145 65.5544 174.8 65.4207 171.46C65.3245 168.602 65.1727 166.294 65.0816 164.701L64.9754 162.866C64.9754 162.666 64.9754 162.506 64.9754 162.388C64.9687 162.333 64.9687 162.278 64.9754 162.224C64.9799 162.277 64.9799 162.33 64.9754 162.383C64.9754 162.506 65.0007 162.66 65.0209 162.861C65.058 163.299 65.1086 163.911 65.1727 164.696C65.2942 166.289 65.4713 168.597 65.5876 171.455C65.7475 174.802 65.7069 178.156 65.4662 181.499C65.3138 183.473 65.0553 185.438 64.692 187.384C64.2861 189.47 63.7573 191.53 63.1082 193.552C61.7876 197.71 60.2443 201.56 59.1058 205.153C58.0412 208.319 57.3218 211.594 56.9603 214.919C56.7328 217.16 56.7907 219.421 57.1324 221.647C57.269 222.433 57.3955 223.04 57.5018 223.446C57.5473 223.641 57.5878 223.796 57.6131 223.909C57.63 223.953 57.6419 224 57.6485 224.047Z" fill="#263238"/>
<path d="M71.3259 226.576H45.4187L44.8267 221.514H71.3259V226.576Z" fill="#455A64"/>
<path d="M48.2017 226.001L51.4401 241.2H65.517L68.5479 226.001H48.2017Z" fill="#455A64"/>
<path d="M71.3462 226.576C71.3462 226.648 65.6537 226.689 58.6254 226.669C51.597 226.648 45.9045 226.576 45.9045 226.504C45.9045 226.432 51.6021 226.396 58.6304 226.417C65.6588 226.438 71.3462 226.51 71.3462 226.576Z" fill="#455A64"/>
<path d="M66.883 234.081C66.1781 233.545 65.4118 233.098 64.6009 232.749C63.7148 232.397 62.7745 232.205 61.823 232.184C60.6578 232.188 59.5028 232.404 58.4125 232.821C57.2335 233.227 56.1305 233.7 55.0577 233.957C54.1032 234.168 53.1185 234.198 52.1533 234.045C51.5044 233.952 50.8752 233.75 50.2912 233.448C50.133 233.364 49.9823 233.266 49.8409 233.156C49.7447 233.084 49.6941 233.042 49.6992 233.032C49.7043 233.022 49.9218 233.166 50.3317 233.361C50.919 233.624 51.5414 233.797 52.1786 233.875C53.1222 233.998 54.0796 233.951 55.0071 233.736C56.0444 233.474 57.1475 232.996 58.3366 232.59C59.4541 232.163 60.6393 231.949 61.8331 231.958C62.8074 231.994 63.7673 232.208 64.6667 232.59C65.27 232.846 65.8367 233.183 66.3517 233.592C66.4931 233.701 66.6282 233.818 66.7565 233.942C66.8425 234.024 66.888 234.07 66.883 234.081Z" fill="#263238"/>
<path d="M66.6859 235.093C66.0053 234.576 65.2705 234.136 64.4949 233.783C63.6442 233.43 62.7367 233.24 61.8181 233.222C60.6923 233.226 59.5758 233.429 58.519 233.824C57.3755 234.214 56.3078 234.662 55.2857 234.944C54.3787 235.208 53.4346 235.316 52.4926 235.263C51.8559 235.218 51.2347 235.043 50.6659 234.749C50.5135 234.667 50.368 234.572 50.2307 234.466C50.1346 234.394 50.0891 234.353 50.0941 234.348C50.0992 234.343 50.3117 234.476 50.7064 234.662C51.2773 234.908 51.8879 235.046 52.5077 235.068C53.4254 235.097 54.3416 234.974 55.2199 234.703C56.2319 234.42 57.2844 233.962 58.4431 233.572C59.5255 233.169 60.6704 232.967 61.8232 232.976C62.7667 233.005 63.6959 233.218 64.5607 233.603C65.1412 233.861 65.6856 234.197 66.1799 234.6C66.3154 234.706 66.4439 234.821 66.5644 234.944C66.6505 235.042 66.6909 235.088 66.6859 235.093Z" fill="white"/>
<path d="M67.1362 233.073C66.4105 232.516 65.6245 232.046 64.7934 231.67C63.8917 231.275 62.9298 231.04 61.9497 230.976C60.7398 230.944 59.5356 231.157 58.4077 231.603C57.2712 232.055 56.1106 232.441 54.9315 232.76C53.9383 232.93 52.9241 232.93 51.9309 232.76C51.2629 232.651 50.6148 232.442 50.0081 232.138C49.8455 232.053 49.6898 231.955 49.5426 231.845C49.4414 231.768 49.3908 231.727 49.3959 231.716C49.4009 231.706 49.6236 231.855 50.0486 232.05C50.6615 232.305 51.3044 232.478 51.9613 232.564C52.9328 232.706 53.9204 232.687 54.886 232.508C56.0519 232.179 57.2004 231.79 58.3268 231.341C59.4771 230.887 60.7063 230.676 61.9396 230.719C62.943 230.795 63.9249 231.053 64.839 231.48C65.4567 231.759 66.038 232.114 66.5695 232.539C66.7147 232.652 66.8532 232.774 66.9844 232.904C67.1008 233.017 67.1413 233.063 67.1362 233.073Z" fill="white"/>
<path d="M71.5585 226.602C71.5585 226.669 65.7294 226.725 58.5392 226.725C51.3489 226.725 45.54 226.674 45.54 226.602C45.54 226.53 51.3692 226.474 58.5544 226.474C65.7395 226.474 71.5585 226.53 71.5585 226.602Z" fill="#263238"/>
<path d="M191.774 40.164C191.962 40.0192 192.168 39.9 192.386 39.8093L193.161 39.4187C193.474 39.2747 193.854 39.136 194.279 38.9663C195.337 38.5706 196.43 38.2764 197.543 38.0874C199.071 37.8538 200.624 37.8365 202.157 38.036C204.08 38.3115 205.946 38.9017 207.683 39.7836C209.733 40.8562 211.628 42.2104 213.315 43.8082C215.249 45.6378 216.969 47.6886 218.44 49.9197C218.845 50.5189 219.205 51.1477 219.518 51.8009C219.842 52.4537 220.181 53.1116 220.505 53.785L221.375 55.8924C221.679 56.6017 221.881 57.3521 222.144 58.0974C223.141 61.249 223.762 64.5104 223.996 67.812C224.234 71.3845 224.109 74.9723 223.622 78.5186C223.097 82.3052 222.297 86.0471 221.228 89.7136C220.975 90.6645 220.657 91.5999 220.373 92.556C220.09 93.512 219.705 94.4578 219.361 95.419C218.951 96.3493 218.572 97.3002 218.122 98.2305L217.418 99.6132L217.069 100.307L216.674 100.98C214.545 104.679 211.998 108.111 209.084 111.209C206.057 114.434 202.709 117.333 199.096 119.86C195.383 122.525 191.373 124.735 187.149 126.444C182.751 128.226 178.044 129.091 173.31 128.988C170.905 128.912 168.527 128.438 166.272 127.585C164.028 126.73 161.98 125.42 160.25 123.735C159.397 122.913 158.619 122.014 157.928 121.047C157.24 120.097 156.624 119.095 156.086 118.05C155.025 116.002 154.177 113.847 153.556 111.62C151.283 103.165 150.827 94.3127 152.22 85.6632C152.851 81.6534 153.828 77.7078 155.14 73.8721C155.307 73.4095 155.469 72.9469 155.646 72.4843C155.823 72.0217 155.97 71.5642 156.152 71.117C156.519 70.2227 156.884 69.3335 157.245 68.4494L158.449 65.8794C158.834 65.021 159.309 64.2192 159.729 63.3968C161.406 60.2591 163.323 57.2601 165.462 54.4275L166.221 53.3995L167.016 52.4229C167.552 51.7804 168.058 51.1276 168.599 50.5159L170.224 48.7169C170.73 48.1104 171.337 47.581 171.878 47.0207C172.961 45.8951 174.135 44.9185 175.228 43.9367L176.938 42.5592L177.778 41.8859L178.638 41.2691L180.328 40.0663L182.024 38.9869L182.848 38.4729L183.688 37.9949L185.328 37.0748C186.416 36.4991 187.493 35.9851 188.521 35.4814C189.548 34.9777 190.575 34.5768 191.557 34.181L194.385 33.117L196.986 32.2741C200.295 31.282 202.906 30.6909 204.687 30.3466C205.578 30.1821 206.261 30.0587 206.711 29.9868C206.939 29.9268 207.174 29.9008 207.41 29.9097C207.194 30.0068 206.968 30.0775 206.737 30.1204C206.286 30.2386 205.613 30.4031 204.713 30.6087C202.957 31.0405 200.371 31.7087 197.123 32.7726L194.562 33.667L191.774 34.7515C190.813 35.1627 189.831 35.6253 188.794 36.0879C187.756 36.5505 186.734 37.1159 185.667 37.7122L184.063 38.6477L183.238 39.1257L182.428 39.6397L180.769 40.7242L179.124 41.9527L178.284 42.5695L177.464 43.2377L175.795 44.6101C174.727 45.6072 173.583 46.5787 172.531 47.6941C172 48.2492 171.423 48.7735 170.912 49.3748C170.401 49.9762 169.859 50.557 169.328 51.1636C168.797 51.7701 168.316 52.4229 167.785 53.0551L167.005 54.0265L166.267 55.0545C164.177 57.8585 162.308 60.8248 160.675 63.9262C160.266 64.7383 159.805 65.5299 159.431 66.3728L158.262 68.912L157.204 71.5437C157.017 71.9806 156.855 72.4329 156.698 72.8903L156.228 74.2576C154.966 78.028 154.03 81.9027 153.429 85.838C152.793 89.9766 152.573 94.1701 152.772 98.3539C152.962 102.712 153.641 107.033 154.796 111.235C155.394 113.37 156.208 115.437 157.224 117.403C157.735 118.39 158.319 119.337 158.97 120.235C159.619 121.138 160.347 121.98 161.146 122.748C162.748 124.303 164.641 125.516 166.712 126.315C168.838 127.112 171.076 127.555 173.341 127.626C177.896 127.717 182.424 126.883 186.658 125.174C190.795 123.51 194.725 121.357 198.367 118.76C201.914 116.291 205.201 113.46 208.179 110.31C211.028 107.291 213.522 103.946 215.612 100.343L215.996 99.6852L216.34 99.0118L217.029 97.6703C217.469 96.7708 217.838 95.8456 218.243 94.9461C218.572 94.0106 218.931 93.1008 219.23 92.1653C219.528 91.2299 219.837 90.2995 220.09 89.3589C221.163 85.7545 221.973 82.0745 222.514 78.349C223.016 74.8786 223.164 71.3647 222.954 67.8634C222.754 64.6389 222.177 61.4501 221.233 58.3647C220.986 57.64 220.793 56.8998 220.505 56.2059C220.216 55.512 219.948 54.8181 219.675 54.1499L218.734 52.1967C218.442 51.5654 218.103 50.9572 217.722 50.3771C216.316 48.1807 214.665 46.1559 212.803 44.3428C211.187 42.7666 209.368 41.4213 207.394 40.3439C205.734 39.4631 203.945 38.8575 202.097 38.55C200.609 38.3176 199.097 38.2934 197.603 38.478C196.508 38.629 195.428 38.8766 194.375 39.2182C193.95 39.3673 193.57 39.4803 193.247 39.6037L192.452 39.9327C192.236 40.0378 192.009 40.1155 191.774 40.164Z" fill="url(#paint10_linear)"/>
<path d="M203.124 74.0674C202.759 74.0674 202.147 67.8994 201.762 60.1894C201.378 52.4794 201.353 46.26 201.717 46.26C202.081 46.26 202.688 52.428 203.078 60.138C203.468 67.848 203.483 74.0469 203.124 74.0674Z" fill="url(#paint11_linear)"/>
<path d="M211.331 56.8175C211.468 57.1567 207.491 59.1305 202.355 60.9758C197.219 62.821 192.908 63.849 192.806 63.4995C192.705 63.15 196.814 61.5617 201.914 59.7165C207.015 57.8712 211.194 56.4731 211.331 56.8175Z" fill="url(#paint12_linear)"/>
<path d="M175.751 73.1638C176.176 78.3903 176.553 81.9472 176.881 83.8345C177.793 82.5066 178.795 81.4174 179.888 80.5668C180.981 79.7162 182.176 79.1012 183.472 78.7217C186.042 77.969 188.578 78.149 191.08 79.2616C193.581 80.3742 195.24 82.3679 196.056 85.2426C197.065 88.7988 196.393 92.4321 194.041 96.1423C191.704 99.825 188.655 102.217 184.895 103.318C182.218 104.102 179.761 104.118 177.523 103.366C175.279 102.594 173.873 101.206 173.305 99.2046C173.021 98.2037 173.096 97.3744 173.531 96.7167C173.986 96.0527 174.586 95.6119 175.33 95.3942C175.924 95.22 176.537 95.2712 177.168 95.5478C177.793 95.8031 178.19 96.2289 178.359 96.8251C178.455 97.1658 178.506 97.6699 178.512 98.3372C178.508 99.0533 178.557 99.5923 178.66 99.9543C178.89 100.764 179.488 101.453 180.455 102.023C181.444 102.587 182.798 102.617 184.519 102.114C187.62 101.205 189.698 99.2016 190.751 96.1024C191.798 92.982 191.769 89.4733 190.663 85.5764C189.998 83.234 189.053 81.6078 187.829 80.6979C186.626 79.7817 185.142 79.5818 183.379 80.0981C181.297 80.7077 179.703 81.9818 178.597 83.9203C177.469 85.865 177.028 87.5969 177.275 89.116C177.423 90.0415 177.306 90.5602 176.923 90.6722C176.562 90.778 176.321 90.6179 176.2 90.192C176.164 90.0642 175.758 86.7696 174.983 80.308L174.063 72.9316C173.801 70.9555 173.697 69.6138 173.749 68.9066C177.684 68.423 180.045 68.0662 180.831 67.836C183.741 66.9838 185.796 65.0214 186.995 61.9488C187.217 61.3532 187.466 61.015 187.742 60.9342C188.061 60.8409 188.26 60.9326 188.338 61.2095C188.773 62.7427 188.191 64.7466 186.593 67.2213C184.988 69.6747 182.486 71.3991 179.088 72.3944C178.302 72.6245 177.189 72.881 175.751 73.1638Z" fill="url(#paint13_linear)"/>
<path d="M117.037 32.0962C115.732 32.0219 114.84 31.9931 114.362 32.0098C114.656 32.2816 114.887 32.5677 115.056 32.8681C115.225 33.1685 115.333 33.4859 115.378 33.8204C115.468 34.4839 115.329 35.1069 114.962 35.6892C114.594 36.2715 114.04 36.6145 113.3 36.718C112.385 36.8462 111.513 36.5547 110.685 35.8436C109.863 35.1373 109.387 34.2988 109.255 33.3282C109.161 32.6373 109.249 32.0271 109.518 31.4978C109.792 30.9676 110.187 30.6665 110.702 30.5944C110.959 30.5583 111.161 30.6055 111.307 30.7359C111.454 30.8718 111.541 31.0357 111.567 31.2277C111.588 31.3812 111.552 31.5314 111.46 31.6784C111.374 31.8246 111.254 31.9084 111.101 31.9299C111.013 31.9422 110.887 31.9375 110.722 31.9159C110.545 31.8903 110.41 31.8841 110.317 31.8971C110.109 31.9263 109.917 32.051 109.74 32.2713C109.564 32.4971 109.506 32.8321 109.566 33.2763C109.675 34.0769 110.092 34.6611 110.818 35.0288C111.549 35.3959 112.416 35.5092 113.419 35.3688C114.021 35.2844 114.458 35.1059 114.728 34.8334C114.999 34.5664 115.104 34.2053 115.042 33.7501C114.969 33.2127 114.714 32.7735 114.277 32.4324C113.839 32.0858 113.428 31.917 113.044 31.9261C112.81 31.9309 112.686 31.884 112.673 31.7853C112.66 31.692 112.709 31.6377 112.818 31.6224C112.851 31.6178 113.679 31.6304 115.303 31.6601L117.158 31.6854C117.655 31.6884 117.99 31.7086 118.163 31.7459C118.135 32.7387 118.135 33.3366 118.163 33.5395C118.265 34.2907 118.673 34.8679 119.386 35.2709C119.525 35.3464 119.599 35.4199 119.609 35.4911C119.62 35.5734 119.59 35.6195 119.519 35.6295C119.124 35.6847 118.651 35.4715 118.1 34.9899C117.554 34.5076 117.222 33.8277 117.103 32.9503C117.075 32.7474 117.054 32.4627 117.037 32.0962Z" fill="url(#paint14_linear)"/>
<defs>
<linearGradient id="paint0_linear" x1="111.621" y1="223.235" x2="111.621" y2="248.466" gradientUnits="userSpaceOnUse">
<stop stop-color="#4A27F3"/>
<stop offset="1" stop-color="#339DFA"/>
</linearGradient>
<linearGradient id="paint1_linear" x1="114.477" y1="27.1875" x2="114.477" y2="35.923" gradientUnits="userSpaceOnUse">
<stop stop-color="#4A27F3"/>
<stop offset="1" stop-color="#339DFA"/>
</linearGradient>
<linearGradient id="paint2_linear" x1="123.324" y1="80.5643" x2="123.324" y2="138.685" gradientUnits="userSpaceOnUse">
<stop stop-color="#4A27F3"/>
<stop offset="1" stop-color="#339DFA"/>
</linearGradient>
<linearGradient id="paint3_linear" x1="144.215" y1="91.3378" x2="144.215" y2="125.801" gradientUnits="userSpaceOnUse">
<stop stop-color="#4A27F3"/>
<stop offset="1" stop-color="#339DFA"/>
</linearGradient>
<linearGradient id="paint4_linear" x1="101.283" y1="38.4009" x2="101.283" y2="91.934" gradientUnits="userSpaceOnUse">
<stop stop-color="#4A27F3"/>
<stop offset="1" stop-color="#339DFA"/>
</linearGradient>
<linearGradient id="paint5_linear" x1="86.0725" y1="192.26" x2="86.0725" y2="204.788" gradientUnits="userSpaceOnUse">
<stop stop-color="#4A27F3"/>
<stop offset="1" stop-color="#339DFA"/>
</linearGradient>
<linearGradient id="paint6_linear" x1="75.4894" y1="190.856" x2="75.4894" y2="213.217" gradientUnits="userSpaceOnUse">
<stop stop-color="#4A27F3"/>
<stop offset="1" stop-color="#339DFA"/>
</linearGradient>
<linearGradient id="paint7_linear" x1="66.8036" y1="151.613" x2="66.8036" y2="196.662" gradientUnits="userSpaceOnUse">
<stop stop-color="#4A27F3"/>
<stop offset="1" stop-color="#339DFA"/>
</linearGradient>
<linearGradient id="paint8_linear" x1="39.1687" y1="182.557" x2="39.1687" y2="196.057" gradientUnits="userSpaceOnUse">
<stop stop-color="#4A27F3"/>
<stop offset="1" stop-color="#339DFA"/>
</linearGradient>
<linearGradient id="paint9_linear" x1="43.8566" y1="178.679" x2="43.8566" y2="196.503" gradientUnits="userSpaceOnUse">
<stop stop-color="#4A27F3"/>
<stop offset="1" stop-color="#339DFA"/>
</linearGradient>
<linearGradient id="paint10_linear" x1="187.772" y1="29.908" x2="187.772" y2="128.996" gradientUnits="userSpaceOnUse">
<stop stop-color="#4A27F3"/>
<stop offset="1" stop-color="#339DFA"/>
</linearGradient>
<linearGradient id="paint11_linear" x1="202.42" y1="46.26" x2="202.42" y2="74.0674" gradientUnits="userSpaceOnUse">
<stop stop-color="#4A27F3"/>
<stop offset="1" stop-color="#339DFA"/>
</linearGradient>
<linearGradient id="paint12_linear" x1="202.07" y1="56.7651" x2="202.07" y2="63.5672" gradientUnits="userSpaceOnUse">
<stop stop-color="#4A27F3"/>
<stop offset="1" stop-color="#339DFA"/>
</linearGradient>
<linearGradient id="paint13_linear" x1="172.636" y1="71.8659" x2="180.427" y2="98.4708" gradientUnits="userSpaceOnUse">
<stop stop-color="#4A27F3"/>
<stop offset="1" stop-color="#339DFA"/>
</linearGradient>
<linearGradient id="paint14_linear" x1="129.213" y1="37.9349" x2="102.129" y2="41.6095" gradientUnits="userSpaceOnUse">
<stop stop-color="#4A27F3"/>
<stop offset="1" stop-color="#339DFA"/>
</linearGradient>
</defs>
</svg>
