<svg width="250" height="250" viewBox="0 0 250 250" fill="none" xmlns="http://www.w3.org/2000/svg">
<rect width="250" height="250" rx="20" fill="url(#paint0_linear)"/>
<path d="M101.187 78.1369C101.238 78.3694 101.232 78.3945 101.112 78.4225C101.007 78.4469 100.987 78.4814 101.012 78.5948C101.036 78.7082 101.016 78.7427 100.912 78.767C100.807 78.7914 100.787 78.8258 100.812 78.9393C100.836 79.0527 100.816 79.0872 100.712 79.1115C100.607 79.1359 100.587 79.1703 100.612 79.2838C100.636 79.3972 100.616 79.4316 100.512 79.456C100.391 79.484 100.384 79.5035 100.442 79.77C100.5 80.0366 100.493 80.056 100.373 80.0841C100.268 80.1084 100.248 80.1429 100.273 80.2563C100.297 80.3697 100.277 80.4042 100.173 80.4285C100.068 80.4529 100.048 80.4874 100.073 80.6008C100.097 80.7142 100.077 80.7487 99.9726 80.773C99.868 80.7974 99.848 80.8318 99.8726 80.9453C99.8972 81.0587 99.8771 81.0931 99.7725 81.1175C99.6679 81.1419 99.6478 81.1763 99.6724 81.2897C99.697 81.4032 99.677 81.4376 99.5724 81.462C99.452 81.49 99.4453 81.5095 99.503 81.776C99.5608 82.0426 99.5541 82.062 99.4337 82.09C99.3291 82.1144 99.3091 82.1489 99.3337 82.2623C99.3582 82.3757 99.3382 82.4102 99.2336 82.4345C99.1289 82.4589 99.1089 82.4933 99.1335 82.6068C99.1581 82.7202 99.1381 82.7546 99.0335 82.779C98.9288 82.8034 98.9088 82.8378 98.9334 82.9513C98.958 83.0647 98.938 83.0991 98.8333 83.1235C98.713 83.1515 98.7062 83.171 98.764 83.4375C98.8218 83.7041 98.815 83.7235 98.6947 83.7516C98.59 83.7759 98.57 83.8104 98.5946 83.9238C98.6192 84.0372 98.5992 84.0717 98.4946 84.096C98.4004 84.118 98.3699 84.1548 98.3871 84.2342C98.4031 84.308 98.3711 84.3631 98.3003 84.3915C98.2243 84.4211 98.1882 84.4831 98.195 84.565C98.203 84.6525 98.1709 84.7076 98.1029 84.7234C98.0192 84.7429 98.0121 84.7863 98.065 85.0301C98.1228 85.2967 98.116 85.3161 97.9957 85.3442C97.891 85.3685 97.871 85.403 97.8956 85.5164C97.9202 85.6298 97.9002 85.6643 97.7955 85.6886C97.6909 85.713 97.6709 85.7475 97.6955 85.8609C97.7201 85.9743 97.7001 86.0088 97.5954 86.0331C97.4908 86.0575 97.4708 86.0919 97.4953 86.2054C97.5199 86.3188 97.4999 86.3532 97.3953 86.3776C97.2906 86.402 97.2706 86.4364 97.2952 86.5499C97.3198 86.6633 97.2998 86.6977 97.1952 86.7221C97.0748 86.7501 97.068 86.7696 97.1258 87.0361C97.1836 87.3027 97.1768 87.3221 97.0565 87.3501C96.9519 87.3745 96.9318 87.409 96.9564 87.5224C96.981 87.6358 96.961 87.6703 96.8564 87.6946C96.7517 87.719 96.7317 87.7534 96.7563 87.8669C96.7809 87.9803 96.7609 88.0148 96.6562 88.0391C96.5516 88.0635 96.5316 88.0979 96.555 88.2057C96.5771 88.3078 96.5543 88.3548 96.4743 88.3913C96.3733 88.4327 96.3662 88.476 96.3997 88.7065C96.4369 88.9541 96.4326 88.9848 96.3122 89.0129C96.2128 89.036 96.1928 89.0705 96.2174 89.1839C96.242 89.2973 96.222 89.3318 96.1173 89.3561C96.0127 89.3805 95.9927 89.4149 96.0173 89.5284C96.0419 89.6418 96.0218 89.6763 95.9172 89.7006C95.8126 89.725 95.7926 89.7594 95.8171 89.8729C95.8417 89.9863 95.8217 90.0207 95.7171 90.0451C95.5967 90.0731 95.5912 90.0982 95.6416 90.3308C95.692 90.5633 95.6865 90.5884 95.5661 90.6164C95.4615 90.6408 95.4415 90.6753 95.4661 90.7887C95.4907 90.9021 95.4706 90.9366 95.366 90.9609C95.2614 90.9853 95.2413 91.0197 95.2647 91.1275C95.2868 91.2296 95.2641 91.2766 95.184 91.3131C95.108 91.3427 95.072 91.4047 95.0787 91.4866C95.0855 91.5684 95.0495 91.6304 94.9787 91.6588C94.9079 91.6872 94.8719 91.7492 94.8786 91.831C94.8854 91.9129 94.8493 91.9749 94.7785 92.0033C94.6828 92.0434 94.6757 92.0868 94.7092 92.3173C94.7427 92.5478 94.7368 92.5969 94.6479 92.6176C94.5746 92.6346 94.5571 92.6804 94.5792 92.7825C94.6038 92.8959 94.5838 92.9304 94.4792 92.9547C94.3745 92.9791 94.3545 93.0135 94.3791 93.127C94.4037 93.2404 94.3837 93.2749 94.279 93.2992C94.1744 93.3236 94.1544 93.358 94.179 93.4715C94.2036 93.5849 94.1835 93.6193 94.0789 93.6437C93.9586 93.6717 93.9518 93.6912 94.0096 93.9577C94.0674 94.2243 94.0606 94.2437 93.9402 94.2718C93.8356 94.2961 93.8156 94.3306 93.8402 94.444C93.8648 94.5574 93.8448 94.5919 93.7401 94.6162C93.6355 94.6406 93.6155 94.6751 93.6401 94.7885C93.6646 94.9019 93.6446 94.9364 93.54 94.9607C93.4353 94.9851 93.4153 95.0195 93.4399 95.133C93.4645 95.2464 93.4445 95.2808 93.3399 95.3052C93.2195 95.3332 93.2127 95.3527 93.2705 95.6192C93.3283 95.8858 93.3215 95.9052 93.2012 95.9333C93.0966 95.9576 93.0766 95.9921 93.1011 96.1055C93.1257 96.2189 93.1057 96.2534 93.0011 96.2777C92.8964 96.3021 92.8764 96.3366 92.901 96.45C92.9256 96.5634 92.9056 96.5979 92.801 96.6222C92.7068 96.6442 92.6763 96.681 92.6947 96.7661C92.7132 96.8512 92.6827 96.8881 92.5885 96.91C92.4839 96.9344 92.4639 96.9688 92.4885 97.0822C92.5131 97.1957 92.493 97.2301 92.3832 97.2557C92.3099 97.2728 92.2677 97.3064 92.2948 97.3299C92.3179 97.3603 92.3449 97.485 92.3511 97.6147C92.3627 97.8205 92.3492 97.8594 92.2445 97.8838C92.1451 97.9069 92.1251 97.9414 92.1497 98.0548C92.1743 98.1682 92.1543 98.2027 92.0496 98.227C91.945 98.2514 91.925 98.2858 91.9496 98.3993C91.9741 98.5127 91.9541 98.5471 91.8495 98.5715C91.7448 98.5959 91.7248 98.6303 91.7482 98.7381C91.7703 98.8402 91.7475 98.8872 91.6675 98.9237C91.5666 98.9651 91.5595 99.0084 91.593 99.2389C91.6301 99.4864 91.6258 99.5172 91.5055 99.5453C91.4061 99.5684 91.3861 99.6029 91.4106 99.7163C91.4352 99.8297 91.4152 99.8642 91.3106 99.8885C91.2059 99.9129 91.1859 99.9473 91.2105 100.061C91.2326 100.163 91.2151 100.209 91.1366 100.227C91.0581 100.245 91.0406 100.291 91.0627 100.393C91.0873 100.506 91.0673 100.541 90.9626 100.565C90.8423 100.593 90.8355 100.613 90.8933 100.879C90.9511 101.146 90.9443 101.165 90.824 101.193C90.7193 101.218 90.6993 101.252 90.7239 101.366C90.7485 101.479 90.7285 101.513 90.6239 101.538C90.5192 101.562 90.4992 101.597 90.5238 101.71C90.5484 101.824 90.5284 101.858 90.4237 101.882C90.3191 101.907 90.2991 101.941 90.3237 102.055C90.3483 102.168 90.3282 102.202 90.2236 102.227C90.119 102.251 90.0989 102.286 90.1235 102.399C90.1481 102.512 90.1281 102.547 90.0235 102.571C89.9031 102.599 89.8976 102.624 89.948 102.857C89.9984 103.09 89.9929 103.115 89.8725 103.143C89.7679 103.167 89.7479 103.201 89.7725 103.315C89.7971 103.428 89.777 103.463 89.6724 103.487C89.5678 103.511 89.5477 103.546 89.5723 103.659C89.5969 103.773 89.5769 103.807 89.4723 103.832C89.3676 103.856 89.3476 103.89 89.3722 104.004C89.3968 104.117 89.3768 104.152 89.2721 104.176C89.1518 104.204 89.145 104.224 89.2028 104.49C89.2606 104.757 89.2538 104.776 89.1335 104.804C89.0288 104.829 89.0088 104.863 89.0334 104.976C89.058 105.09 89.038 105.124 88.9334 105.149C88.8235 105.174 88.8087 105.207 88.8394 105.349L88.8763 105.519L89.2687 105.428C89.6507 105.339 89.6624 105.342 89.6919 105.478L89.7226 105.62L90.2458 105.498L90.7691 105.377L90.7998 105.518L90.8305 105.66L91.4845 105.508L92.1386 105.356L92.1693 105.497L92.2 105.639L92.8227 105.494C93.4296 105.353 93.4518 105.354 93.4933 105.469C93.536 105.59 93.5582 105.591 94.1845 105.463L94.8265 105.331L94.856 105.468C94.8867 105.609 94.8867 105.609 95.4361 105.481C95.9384 105.364 95.988 105.365 96.0089 105.461C96.0396 105.603 96.2301 105.594 96.9417 105.429L97.512 105.296L97.5673 105.551C97.614 105.767 97.6069 105.81 97.518 105.831C97.4395 105.849 97.4219 105.895 97.4441 105.997C97.4687 106.11 97.4487 106.145 97.344 106.169C97.2394 106.193 97.2194 106.228 97.244 106.341C97.2685 106.455 97.2485 106.489 97.1439 106.514C97.0235 106.542 97.018 106.567 97.0684 106.799C97.1188 107.032 97.1133 107.057 96.9929 107.085C96.8883 107.109 96.8683 107.144 96.8929 107.257C96.9175 107.371 96.8975 107.405 96.7928 107.429C96.6725 107.457 96.6657 107.477 96.7235 107.743C96.7813 108.01 96.7745 108.029 96.6542 108.057C96.5495 108.082 96.5295 108.116 96.5541 108.23C96.5787 108.343 96.5587 108.378 96.454 108.402C96.3337 108.43 96.3269 108.449 96.3847 108.716C96.4425 108.983 96.4357 109.002 96.3154 109.03C96.2107 109.054 96.1907 109.089 96.2153 109.202C96.2399 109.316 96.2199 109.35 96.1152 109.375C95.9949 109.403 95.9881 109.422 96.0459 109.689C96.1037 109.955 96.0969 109.975 95.9766 110.003C95.8563 110.031 95.8495 110.05 95.9073 110.317C95.9651 110.583 95.9583 110.603 95.8379 110.631C95.7333 110.655 95.7133 110.689 95.7379 110.803C95.76 110.905 95.7425 110.951 95.6692 110.968C95.5907 110.986 95.5769 111.049 95.5947 111.283C95.6174 111.54 95.6038 111.579 95.4939 111.604C95.3788 111.631 95.3733 111.656 95.4298 111.917C95.4876 112.184 95.4809 112.203 95.3605 112.231C95.2402 112.259 95.2334 112.279 95.2912 112.545C95.349 112.812 95.3422 112.831 95.2219 112.859C95.1015 112.887 95.096 112.912 95.1464 113.145C95.1968 113.377 95.1913 113.403 95.0709 113.431C94.9506 113.459 94.9438 113.478 95.0004 113.739C95.0545 113.989 95.0461 114.026 94.9504 114.066C94.8442 114.109 94.8411 114.145 94.9066 114.523C94.977 114.924 94.9754 114.942 94.8551 114.97C94.7348 114.998 94.7292 115.023 94.7858 115.284C94.8436 115.551 94.8368 115.57 94.7164 115.598C94.5909 115.628 94.5881 115.64 94.6779 116.054C94.7615 116.44 94.7596 116.482 94.6654 116.504C94.5765 116.525 94.5694 116.568 94.6223 116.812L94.6837 117.095L93.8989 117.278L93.1141 117.461L93.1448 117.603C93.1731 117.733 93.1599 117.748 92.914 117.805C92.6681 117.863 92.6548 117.878 92.6831 118.008C92.7077 118.121 92.6877 118.156 92.583 118.18C92.4784 118.205 92.4584 118.239 92.483 118.353C92.5076 118.466 92.4876 118.5 92.3829 118.525C92.2783 118.549 92.2583 118.584 92.2828 118.697C92.3074 118.81 92.2874 118.845 92.1828 118.869C92.0781 118.894 92.0581 118.928 92.0827 119.041C92.1073 119.155 92.0873 119.189 91.9827 119.214C91.878 119.238 91.858 119.273 91.8838 119.392C91.9121 119.522 91.9001 119.543 91.7801 119.547C91.6483 119.548 91.6456 119.56 91.7083 119.85C91.7648 120.11 91.759 120.159 91.6753 120.179C91.5602 120.206 91.5561 120.415 91.668 120.931C91.7442 121.283 91.7415 121.296 91.6159 121.325L91.4851 121.355L91.608 121.922L91.731 122.489L91.6002 122.52L91.4694 122.55L91.6231 123.259L91.7768 123.968L91.646 123.999L91.5152 124.029L91.6922 124.846C91.8668 125.651 91.8705 125.668 91.7539 125.713C91.6424 125.757 91.6437 125.763 91.869 126.878C92.0921 127.958 92.0967 128.005 91.9973 128.028C91.8927 128.052 91.9037 128.103 92.7165 131.852C93.5317 135.612 93.5403 135.652 93.6449 135.627C93.7443 135.604 93.7582 135.643 93.9955 136.737L94.2414 137.872L94.3722 137.841L94.503 137.811L94.6653 138.559C94.8718 139.512 94.9524 139.732 95.0832 139.701C95.1774 139.679 95.1949 139.735 95.3363 140.387L95.49 141.096L95.6208 141.065C95.7359 141.039 95.7565 141.058 95.7971 141.245C95.8229 141.364 95.8804 141.553 95.922 141.669L96.0041 141.87L99.6299 141.026L103.261 140.18L103.23 140.038C103.206 139.925 103.173 139.903 103.069 139.927C102.938 139.957 102.937 139.952 102.84 139.504C102.742 139.056 102.741 139.05 102.61 139.081L102.48 139.111L102.347 138.498C102.172 137.693 102.086 137.475 101.961 137.504C101.872 137.525 101.85 137.476 101.738 136.96L101.616 136.393L101.485 136.423L101.354 136.454L101.169 135.603L100.985 134.752L100.854 134.783L100.723 134.813L99.7583 130.361L98.7931 125.909L98.9239 125.879L99.0547 125.848L98.8702 124.998L98.6858 124.147L98.8166 124.116L98.9474 124.086L98.7937 123.377L98.64 122.668L98.7708 122.638L98.9016 122.607L98.7553 121.932C98.6127 121.274 98.613 121.25 98.7244 121.207C98.8358 121.163 98.8346 121.157 98.6019 120.008L98.364 118.86L98.2332 118.89C98.1129 118.918 98.0987 118.904 98.0409 118.637C97.9832 118.371 97.969 118.356 97.8487 118.384C97.7283 118.412 97.7129 118.392 97.6625 118.159C97.6121 117.927 97.5967 117.907 97.4764 117.935C97.3718 117.959 97.3394 117.937 97.3149 117.823C97.2903 117.71 97.258 117.688 97.1533 117.712C97.0487 117.736 97.0164 117.714 96.9918 117.601C96.9672 117.487 96.9349 117.465 96.8302 117.489C96.7047 117.518 96.697 117.508 96.6134 117.123C96.5297 116.737 96.5325 116.724 96.6581 116.695C96.7837 116.666 96.7864 116.653 96.6967 116.239C96.6069 115.825 96.6097 115.813 96.7353 115.784C96.8556 115.756 96.8624 115.736 96.8046 115.47C96.7468 115.203 96.7536 115.184 96.8739 115.156C96.9943 115.128 97.001 115.108 96.9432 114.842C96.8854 114.575 96.8922 114.556 97.0126 114.528C97.1381 114.498 97.1409 114.486 97.0511 114.072C96.9614 113.658 96.9642 113.645 97.0897 113.616C97.1944 113.592 97.2144 113.557 97.191 113.449C97.1689 113.347 97.1917 113.3 97.2769 113.262C97.3727 113.222 97.3798 113.179 97.345 112.943C97.3091 112.701 97.3134 112.67 97.4337 112.642C97.5489 112.615 97.5544 112.59 97.4978 112.329C97.4401 112.063 97.4468 112.043 97.5672 112.015C97.6875 111.987 97.6931 111.962 97.6439 111.735C97.5959 111.514 97.6042 111.476 97.7052 111.435C97.8009 111.395 97.808 111.352 97.7745 111.121C97.7423 110.896 97.7481 110.847 97.8438 110.807C97.9396 110.767 97.9467 110.723 97.9119 110.487C97.8797 110.262 97.8855 110.213 97.9745 110.193C98.0477 110.176 98.0653 110.13 98.0432 110.028C98.0186 109.914 98.0386 109.88 98.1432 109.856C98.2636 109.828 98.2703 109.808 98.2126 109.542C98.1548 109.275 98.1615 109.256 98.2819 109.227C98.3865 109.203 98.4065 109.169 98.3819 109.055C98.3573 108.942 98.3774 108.907 98.482 108.883C98.6023 108.855 98.6091 108.836 98.5513 108.569C98.4935 108.302 98.5003 108.283 98.6207 108.255C98.7253 108.231 98.7453 108.196 98.7207 108.083C98.6961 107.969 98.7161 107.935 98.8208 107.91C98.9411 107.882 98.9479 107.863 98.8901 107.596C98.8323 107.33 98.8391 107.31 98.9594 107.282C99.0641 107.258 99.0841 107.224 99.0595 107.11C99.0374 107.008 99.0549 106.962 99.1334 106.944C99.2224 106.923 99.2467 106.959 99.2995 107.203C99.3573 107.47 99.3715 107.484 99.4918 107.456C99.6174 107.427 99.6251 107.437 99.7148 107.851C99.8046 108.265 99.8123 108.275 99.9378 108.246C100.058 108.218 100.072 108.233 100.13 108.499C100.188 108.766 100.202 108.78 100.322 108.752C100.443 108.724 100.457 108.739 100.515 109.005L100.576 109.289L100.864 109.222L101.152 109.155L101.09 108.871C101.032 108.605 101.039 108.585 101.16 108.557C101.264 108.533 101.284 108.499 101.26 108.385C101.235 108.272 101.255 108.237 101.36 108.213C101.48 108.185 101.487 108.165 101.429 107.899C101.371 107.632 101.378 107.613 101.498 107.585C101.603 107.561 101.623 107.526 101.598 107.413C101.574 107.299 101.594 107.265 101.698 107.24C101.803 107.216 101.823 107.182 101.799 107.068C101.774 106.955 101.794 106.92 101.899 106.896C102.003 106.872 102.023 106.837 101.999 106.724C101.974 106.61 101.994 106.576 102.093 106.553C102.193 106.53 102.204 106.503 102.157 106.389C102.109 106.269 102.121 106.248 102.251 106.212C102.375 106.177 102.379 106.17 102.28 106.17C102.115 106.172 102.059 105.965 102.211 105.929C102.29 105.911 102.307 105.865 102.285 105.763C102.261 105.65 102.281 105.615 102.385 105.591C102.49 105.567 102.51 105.532 102.485 105.419C102.461 105.305 102.481 105.271 102.585 105.247C102.69 105.222 102.71 105.188 102.685 105.074C102.661 104.961 102.681 104.926 102.785 104.902C102.88 104.88 102.91 104.843 102.892 104.758C102.873 104.673 102.904 104.636 102.998 104.614C103.103 104.59 103.123 104.556 103.098 104.442C103.073 104.329 103.093 104.294 103.198 104.27C103.303 104.246 103.323 104.211 103.298 104.098C103.273 103.984 103.293 103.95 103.398 103.925C103.503 103.901 103.523 103.867 103.498 103.753C103.474 103.64 103.494 103.605 103.598 103.581C103.703 103.557 103.723 103.522 103.698 103.409C103.674 103.295 103.694 103.261 103.798 103.236C103.903 103.212 103.923 103.178 103.898 103.064C103.87 102.934 103.883 102.919 104.129 102.861C104.375 102.804 104.388 102.789 104.36 102.659C104.336 102.545 104.356 102.511 104.46 102.487C104.565 102.462 104.585 102.428 104.56 102.314C104.536 102.201 104.556 102.166 104.66 102.142C104.765 102.118 104.785 102.083 104.76 101.97C104.736 101.856 104.756 101.822 104.86 101.798C104.965 101.773 104.985 101.739 104.961 101.625C104.936 101.512 104.956 101.477 105.061 101.453C105.165 101.429 105.185 101.394 105.161 101.281C105.132 101.15 105.146 101.135 105.392 101.078C105.637 101.021 105.651 101.006 105.622 100.875C105.598 100.762 105.618 100.728 105.722 100.703C105.827 100.679 105.847 100.644 105.823 100.531C105.798 100.418 105.818 100.383 105.923 100.359C106.027 100.334 106.047 100.3 106.023 100.186C105.994 100.056 106.013 100.04 106.227 99.9899C106.442 99.9399 106.46 99.9237 106.432 99.7933C106.408 99.6798 106.428 99.6454 106.532 99.621C106.637 99.5967 106.657 99.5622 106.632 99.4488C106.604 99.3183 106.617 99.3033 106.863 99.2461C107.109 99.1888 107.122 99.1738 107.094 99.0434C107.066 98.9129 107.079 98.898 107.325 98.8407C107.571 98.7834 107.584 98.7684 107.556 98.638C107.531 98.5246 107.551 98.4901 107.656 98.4658C107.75 98.4438 107.78 98.4069 107.762 98.3219C107.741 98.2255 107.774 98.1999 107.999 98.1475C108.24 98.0915 108.258 98.0753 108.231 97.9505C108.206 97.8371 108.233 97.8071 108.409 97.7304C108.519 97.6809 108.634 97.6541 108.669 97.6638C108.7 97.6804 108.71 97.6245 108.693 97.5451C108.663 97.409 108.677 97.394 108.922 97.3367C109.163 97.2807 109.182 97.2645 109.155 97.1397C109.126 97.0093 109.15 96.9918 109.371 96.9224C109.577 96.8567 109.61 96.8311 109.602 96.7197C109.594 96.6083 109.633 96.5816 109.833 96.517C110.039 96.4513 110.072 96.4257 110.063 96.3087C110.055 96.1972 110.083 96.1729 110.287 96.1254C110.496 96.0767 110.514 96.0605 110.486 95.93C110.458 95.7996 110.471 95.7846 110.717 95.7273C110.963 95.6701 110.976 95.6551 110.948 95.5246C110.918 95.3885 110.928 95.3804 111.31 95.2915C111.692 95.2025 111.701 95.1944 111.671 95.0583C111.643 94.9279 111.656 94.9129 111.902 94.8556C112.148 94.7984 112.161 94.7834 112.133 94.6529C112.104 94.5168 112.113 94.5087 112.495 94.4198C112.877 94.3308 112.886 94.3227 112.856 94.1866C112.827 94.0505 112.836 94.0424 113.218 93.9535C113.6 93.8645 113.609 93.8564 113.58 93.7203L113.549 93.5785L114.072 93.4567L114.595 93.3349L114.565 93.1931C114.535 93.057 114.544 93.0489 114.9 92.966C115.256 92.8832 115.265 92.8751 115.236 92.7389L115.205 92.5972L115.801 92.4583C116.539 92.2865 116.715 92.2098 116.684 92.0681C116.663 91.9716 116.708 91.9493 117.153 91.8458C117.786 91.6984 117.96 91.616 117.931 91.4799C117.909 91.3778 117.96 91.36 118.692 91.1894L119.477 91.0067L119.446 90.8649L119.416 90.7231L123.183 89.846C126.829 88.9968 126.951 88.9745 126.973 89.0766C127.001 89.207 127.194 89.2097 127.697 89.0928L128.058 89.0087L127.965 88.5834C127.876 88.1694 127.868 88.1592 127.742 88.1885C127.617 88.2177 127.609 88.2076 127.519 87.7936C127.43 87.3796 127.422 87.3694 127.296 87.3987C127.171 87.4279 127.163 87.4178 127.073 87.0038C126.984 86.5898 126.976 86.5796 126.85 86.6089C126.73 86.6369 126.715 86.6167 126.664 86.3841C126.614 86.1516 126.619 86.1265 126.74 86.0984C126.86 86.0704 126.867 86.051 126.809 85.7844C126.751 85.5179 126.758 85.4984 126.878 85.4704C126.983 85.446 127.003 85.4116 126.978 85.2982C126.954 85.1847 126.974 85.1503 127.078 85.1259C127.183 85.1015 127.203 85.0671 127.179 84.9537C127.154 84.8402 127.174 84.8058 127.279 84.7814C127.383 84.7571 127.403 84.7226 127.379 84.6092C127.354 84.4958 127.374 84.4613 127.479 84.4369C127.599 84.4089 127.606 84.3895 127.548 84.1229C127.49 83.8564 127.497 83.8369 127.617 83.8089C127.722 83.7845 127.742 83.7501 127.717 83.6367C127.693 83.5232 127.713 83.4888 127.818 83.4644C127.922 83.44 127.942 83.4056 127.918 83.2922C127.895 83.1901 127.913 83.1443 127.991 83.126C128.07 83.1077 128.088 83.062 128.065 82.9599C128.041 82.8464 128.061 82.812 128.165 82.7876C128.27 82.7633 128.29 82.7288 128.266 82.6154C128.241 82.502 128.261 82.4675 128.366 82.4431C128.486 82.4151 128.491 82.39 128.441 82.1575C128.391 81.9249 128.396 81.8998 128.517 81.8718C128.621 81.8474 128.641 81.813 128.617 81.6996C128.592 81.5861 128.612 81.5517 128.717 81.5273C128.821 81.503 128.841 81.4685 128.817 81.3551C128.792 81.2416 128.812 81.2072 128.917 81.1828C129.021 81.1585 129.041 81.124 129.018 81.0163C128.996 80.9142 129.019 80.8672 129.104 80.8294C129.2 80.7893 129.207 80.7459 129.172 80.5097C129.136 80.2679 129.14 80.2371 129.261 80.2091C129.36 80.1859 129.38 80.1515 129.356 80.0381C129.331 79.9246 129.351 79.8902 129.456 79.8658C129.56 79.8414 129.58 79.807 129.556 79.6936C129.531 79.5801 129.551 79.5457 129.656 79.5213C129.76 79.497 129.78 79.4625 129.756 79.3491C129.731 79.2357 129.751 79.2012 129.856 79.1768C129.976 79.1488 129.983 79.1294 129.925 78.8628C129.867 78.5963 129.874 78.5768 129.995 78.5488C130.099 78.5244 130.119 78.49 130.095 78.3765C130.07 78.2631 130.09 78.2287 130.195 78.2043C130.299 78.1799 130.319 78.1455 130.295 78.0321C130.27 77.9186 130.29 77.8842 130.395 77.8598C130.5 77.8355 130.52 77.801 130.495 77.6876C130.47 77.5742 130.49 77.5397 130.6 77.5141C130.726 77.4849 130.729 77.4723 130.65 77.1867L130.571 76.8955L129.929 77.0271C129.324 77.1558 129.28 77.1542 129.258 77.0522C129.235 76.9444 129.197 76.9473 128.71 77.0606L128.187 77.1824L128.156 77.0406L128.125 76.8988L127.367 77.0755L126.608 77.2521L126.577 77.1103L126.547 76.9685L125.893 77.1208L125.239 77.2731L125.208 77.1313L125.177 76.9895L124.654 77.1114L124.131 77.2332L124.1 77.0914L124.069 76.9496L123.284 77.1324L122.5 77.3151L122.469 77.1733C122.438 77.0315 122.438 77.0315 121.941 77.1473C121.444 77.263 121.444 77.263 121.413 77.1212L121.383 76.9794L120.729 77.1317L120.074 77.284L120.044 77.1422L120.013 77.0004L119.359 77.1527L118.705 77.305L118.674 77.1632L118.643 77.0214L117.989 77.1737L117.335 77.326L117.305 77.1842L117.274 77.0424L116.751 77.1642C116.275 77.2751 116.225 77.2747 116.204 77.1783C116.175 77.0422 115.983 77.0451 115.376 77.1865C114.957 77.2839 114.908 77.2835 114.887 77.1871C114.857 77.051 114.64 77.06 113.87 77.2391L113.279 77.3768L113.249 77.235L113.218 77.0932L112.695 77.215L112.171 77.3369L112.141 77.1951L112.11 77.0533L111.482 77.1995L110.854 77.3457L110.823 77.2039L110.793 77.0621L110.008 77.2449L109.223 77.4276L109.192 77.2858L109.162 77.144L108.638 77.2658L108.115 77.3877L108.084 77.2459L108.054 77.1041L107.53 77.2259C107.054 77.3368 107.005 77.3364 106.984 77.24C106.954 77.1039 106.736 77.1129 105.994 77.2859C105.455 77.4114 105.432 77.4106 105.39 77.2895C105.348 77.174 105.326 77.1732 104.705 77.3C104.101 77.4287 104.056 77.4271 104.034 77.3251C104.011 77.2173 103.968 77.2214 102.571 77.5466L101.132 77.8817L101.187 78.1369Z" fill="white"/>
<path d="M62.6466 223C64.8497 222.998 67.0237 222.5 69.0069 221.54C70.991 220.581 72.7332 219.185 74.1043 217.458C78.3468 212.868 111.136 180.599 131.228 160.926C132.619 159.583 133.73 157.978 134.499 156.202C135.268 154.427 135.678 152.517 135.707 150.582C135.736 148.647 135.382 146.726 134.667 144.928C133.951 143.131 132.888 141.493 131.538 140.109C130.188 138.725 128.578 137.622 126.801 136.864C125.024 136.106 123.115 135.709 121.184 135.693C119.253 135.677 117.337 136.045 115.548 136.774C113.759 137.504 112.132 138.58 110.76 139.943C110.617 140.083 96.1463 154.254 81.7837 168.41L77.2835 172.847V103.939C77.2835 77.1417 98.8647 55.3402 125.393 55.3402C151.921 55.3402 173.502 77.1417 173.502 103.939V208.329C173.502 212.22 175.045 215.951 177.79 218.702C180.536 221.453 184.261 222.998 188.144 222.998C192.027 222.998 195.751 221.453 198.497 218.702C201.243 215.951 202.786 212.22 202.786 208.329V103.939C202.786 60.9631 168.068 26 125.393 26C82.7186 26 48 60.9631 48 103.939V208.329C48.0018 212.22 49.5452 215.951 52.2918 218.703C55.0384 221.454 58.7629 222.999 62.6466 223Z" fill="white"/>
<path d="M125.392 129.776C115.677 129.776 107.802 121.902 107.802 112.187C107.802 102.473 115.677 94.5977 125.392 94.5977C135.106 94.5977 142.981 102.473 142.981 112.187C142.981 121.902 135.106 129.776 125.392 129.776Z" fill="#5DF888"/>
<defs>
<linearGradient id="paint0_linear" x1="125" y1="0" x2="125" y2="250" gradientUnits="userSpaceOnUse">
<stop stop-color="#4A2BF4"/>
<stop offset="1" stop-color="#339DFA"/>
</linearGradient>
</defs>
</svg>
