<svg width="117" height="107" viewBox="0 0 117 107" fill="none" xmlns="http://www.w3.org/2000/svg">
<path d="M12.3714 4.42373C12.3714 4.42373 -0.163172 12.1812 8.53001 27.549C8.60357 27.6818 8.69939 27.7952 8.81147 27.8823C8.92354 27.9694 9.04952 28.0283 9.18158 28.0553L106.068 47.0955C106.068 47.0955 115.928 37.7847 110.896 23.7975L12.3714 4.42373Z" fill="#455A64"/>
<path d="M86.4752 30.2736C86.4568 30.4006 74.394 28.056 59.5305 25.029C44.667 22.002 32.5746 19.4273 32.593 19.3003C32.6114 19.1733 44.6741 21.5179 59.5376 24.5449C74.4012 27.5719 86.4936 30.1466 86.4752 30.2736Z" fill="#E0E0E0"/>
<path d="M70.8254 31.3638C70.807 31.4908 65.1301 30.4281 58.1346 29.0034C51.1391 27.5787 45.4906 26.4284 45.5221 26.2107C45.5537 25.993 51.2201 27.1283 58.2003 28.5499C65.1805 29.9714 70.8438 31.2368 70.8254 31.3638Z" fill="#E0E0E0"/>
<path d="M94.6243 44.3915C94.6243 44.3915 95.0306 43.1107 95.6291 41.0473C97.2288 35.6693 98.0085 29.997 97.9318 24.2953C97.9028 22.1041 97.7834 20.7536 97.8626 20.7511C97.9407 21.0587 97.9899 21.3757 98.0092 21.6962C98.0808 22.2897 98.1561 23.1829 98.2026 24.2757C98.3198 27.1459 98.1827 30.0227 97.7934 32.8589C97.4137 35.6977 96.7778 38.48 95.8968 41.1578C95.5579 42.1908 95.2506 43.0061 95.0133 43.5555C94.9182 43.8548 94.7872 44.1364 94.6243 44.3915Z" fill="#E0E0E0"/>
<path d="M105.248 22.4233C105.369 22.7218 105.472 23.0298 105.556 23.3451C105.639 23.6422 105.742 24.0181 105.835 24.4665C105.927 24.915 106.045 25.4059 106.122 25.9632C106.343 27.2802 106.465 28.6177 106.488 29.9601C106.525 31.6042 106.434 33.2488 106.217 34.8732C105.98 36.4965 105.627 38.093 105.163 39.6455C104.772 40.9003 104.296 42.1151 103.738 43.2777C103.506 43.7907 103.254 44.225 103.058 44.5961C102.887 44.9259 102.699 45.2431 102.495 45.546C102.345 45.8332 102.159 46.0913 101.943 46.3114C101.943 46.3114 102.601 45.1381 103.491 43.134C103.995 41.9559 104.44 40.7428 104.821 39.5012C105.259 37.9655 105.593 36.3908 105.819 34.7922C106.031 33.2003 106.132 31.5906 106.123 29.9791C106.111 28.653 106.018 27.3295 105.846 26.0191C105.554 23.793 105.164 22.4621 105.248 22.4233Z" fill="#E0E0E0"/>
<path d="M24.3415 30.2276C24.2001 29.9615 24.0881 29.6751 24.0081 29.3752C23.8827 29.032 23.7758 28.6796 23.6883 28.3202C23.5904 27.908 23.4546 27.4321 23.3598 26.8898C23.1267 25.6342 22.9903 24.3561 22.9522 23.0712C22.9216 21.4959 23.018 19.9207 23.2402 18.3671C23.494 16.821 23.882 15.3102 24.3981 13.8587C24.8183 12.6607 25.3381 11.5152 25.9498 10.4392C26.171 10.0297 26.4122 9.63603 26.6724 9.26018C26.8586 8.96079 27.0629 8.67779 27.2837 8.41342C27.6482 7.96467 27.8407 7.72372 27.8687 7.74809C27.8967 7.77247 27.134 8.79385 26.1764 10.616C25.6164 11.7145 25.1333 12.8655 24.7318 14.0574C24.2514 15.4899 23.8835 16.9718 23.6329 18.4844C23.4009 20.0032 23.2935 21.5451 23.3121 23.0885C23.327 24.3634 23.4327 25.6345 23.628 26.8884C23.9921 28.9424 24.426 30.1888 24.3415 30.2276Z" fill="#E0E0E0"/>
<path d="M13.5736 30.9109C13.4124 30.6071 13.285 30.2798 13.1947 29.9372C13.0558 29.5559 12.9389 29.1639 12.8447 28.7639C12.6975 28.2371 12.5753 27.7009 12.4787 27.1578C12.198 25.7542 12.0204 24.3245 11.9479 22.8846C11.8805 21.1207 11.9521 19.3531 12.1617 17.605C12.3932 15.8557 12.7638 14.1363 13.2687 12.4699C13.6808 11.1142 14.1975 9.80637 14.8122 8.56306C15.043 8.08232 15.2946 7.61612 15.5663 7.16636C15.7532 6.81238 15.9602 6.47388 16.186 6.15322C16.3562 5.86276 16.5534 5.59593 16.774 5.35778C16.8506 5.37337 16.0436 6.59119 15.054 8.74304C14.4912 9.99516 14.0077 11.2952 13.6076 12.6323C13.1331 14.2771 12.7775 15.9667 12.5444 17.6829C12.3441 19.4057 12.2658 21.1454 12.3104 22.8837C12.3615 24.3076 12.5092 25.7243 12.7521 27.1201C13.0767 29.4462 13.5788 30.8746 13.5736 30.9109Z" fill="#E0E0E0"/>
<path d="M-19.9068 68.9005C-19.9358 69.1001 -19.9647 69.2997 -19.9936 69.4992C-20.2875 72.7506 -19.5166 76.0115 -17.8403 78.6087C-16.164 81.2059 -13.7101 82.941 -10.9855 83.4557L95.784 105.2L96.0155 103.603L70.6051 98.4283C68.1788 97.9097 66.0217 96.2819 64.5988 93.8957C63.176 91.5096 62.6013 88.5562 62.9988 85.6725C63.4185 82.7771 64.7865 80.1956 66.8048 78.4901C68.8231 76.7846 71.3283 76.0934 73.7746 76.567L99.185 81.7419L99.5217 79.4197L-7.3083 58.0929C-8.73623 57.8017 -10.1989 57.8516 -11.6103 58.2399C-13.0217 58.6281 -14.3534 59.3468 -15.5271 60.3536C-16.7008 61.3605 -17.6929 62.6353 -18.445 64.103C-19.1972 65.5708 -19.6942 67.2019 -19.9068 68.9005Z" fill="url(#paint0_linear)"/>
<path d="M95.8189 92.562C95.8005 92.689 88.4065 91.2953 79.3292 89.4466C70.2518 87.598 62.8894 85.9865 62.9078 85.8595C62.9262 85.7325 70.3023 87.1413 79.3949 88.9931C88.4875 90.8448 95.8373 92.435 95.8189 92.562Z" fill="#E0E0E0"/>
<path d="M94.5811 97.409C94.5627 97.536 87.5667 96.2233 78.9792 94.4744C70.3917 92.7256 63.412 91.1921 63.4304 91.0651C63.4488 90.9381 70.4448 92.2508 79.0476 94.0027C87.6504 95.7547 94.5995 97.282 94.5811 97.409Z" fill="#E0E0E0"/>
<path d="M96.4638 88.1174C96.4428 88.2626 89.2045 86.8818 80.3108 85.0706C71.4172 83.2594 64.1921 81.788 64.2263 81.5521C64.2605 81.3163 71.4676 82.8027 80.3766 84.6171C89.2855 86.4314 96.4822 87.9904 96.4638 88.1174Z" fill="#E0E0E0"/>
<path d="M96.5848 83.5847C96.5664 83.7117 90.1241 82.4931 82.2102 80.8814C74.2963 79.2696 67.8651 77.8665 67.8835 77.7395C67.9019 77.6125 74.3468 78.813 82.276 80.4278C90.2052 82.0426 96.6058 83.4395 96.5848 83.5847Z" fill="#E0E0E0"/>
<path d="M63.7675 72.8668C62.8016 73.695 61.8895 74.6081 61.0391 75.5984C59.0425 78.0571 57.7177 81.172 57.2374 84.5367C56.8147 87.9156 57.2526 91.3671 58.4951 94.4492C59.0448 95.705 59.6766 96.9078 60.3847 98.0466C60.1274 97.8064 59.8977 97.5272 59.7014 97.2164C59.1392 96.4054 58.654 95.5236 58.2545 94.587C56.8796 91.4787 56.3884 87.9273 56.854 84.4615C57.3196 80.9956 58.717 77.8006 60.8384 75.3521C61.4755 74.6229 62.172 73.9702 62.9175 73.4034C63.4477 73.0071 63.7575 72.8274 63.7675 72.8668Z" fill="#F5F5F5"/>
<path d="M60.2387 71.6625C59.2606 72.4784 58.3428 73.3912 57.4949 74.391C55.4803 76.8418 54.1554 79.9718 53.7021 83.3509C53.2489 86.7301 53.6895 90.1927 54.9636 93.2631C55.5058 94.5189 56.1326 95.7209 56.8379 96.8574C56.5784 96.627 56.3527 96.3476 56.1698 96.0302C55.602 95.2193 55.1116 94.3365 54.7077 93.3977C53.3506 90.288 52.8596 86.7486 53.3052 83.2876C53.7822 79.8242 55.1839 76.6334 57.3043 74.1841C57.9305 73.4402 58.6234 72.7797 59.3707 72.2141C59.6354 71.9804 59.9279 71.7945 60.2387 71.6625Z" fill="#F5F5F5"/>
<path d="M4.71681 77.1091C5.14818 74.1338 5.50301 71.1429 5.90377 68.1614C6.0542 67.3883 6.07928 66.5885 5.97763 65.8043C5.92261 65.4119 5.77914 65.0443 5.56244 64.7404C5.34574 64.4366 5.06386 64.2077 4.74651 64.0781C4.15808 63.8256 3.51654 63.8051 2.91749 64.0196C2.31844 64.2342 1.79391 64.6723 1.42196 65.2688C0.653476 66.5052 0.175833 67.9614 0.0379405 69.4883C-0.306492 71.8445 -0.550917 74.2196 -0.694417 76.6048C-0.80979 77.7364 -0.729522 78.8839 -0.458484 79.9775C-0.312634 80.5191 -0.0429328 81.0021 0.320625 81.3729C0.684182 81.7436 1.12736 81.9877 1.60092 82.0779C2.0779 82.0759 2.54553 81.9208 2.9541 81.6291C3.36267 81.3374 3.69693 80.92 3.92139 80.4212C4.35998 79.3863 4.62985 78.2626 4.71681 77.1091Z" fill="#F5F5F5"/>
<path d="M46.5424 82.975C46.524 83.102 38.8545 81.6522 29.272 79.7007C19.6895 77.7492 12.0515 76.0816 12.0699 75.9546C12.0883 75.8276 19.7579 77.2775 29.3404 79.229C38.9229 81.1805 46.5608 82.848 46.5424 82.975Z" fill="#F5F5F5"/>
<path d="M-0.011226 58.9628L2.8067 38.1133L12.3584 40.0586L9.67824 60.9362L-0.011226 58.9628Z" fill="#F5F5F5"/>
<path d="M11.2545 43.6439C8.25542 43.3569 5.28402 42.7517 2.37609 41.8358C5.37258 42.1471 8.34222 42.7519 11.2545 43.6439Z" fill="#E0E0E0"/>
<path d="M10.781 46.9095C7.78195 46.6225 4.81059 46.0173 1.9027 45.1014C4.89915 45.4128 7.86875 46.0175 10.781 46.9095Z" fill="#E0E0E0"/>
<path d="M10.3233 50.0663C7.32419 49.7792 4.35283 49.1741 1.44494 48.2581C4.44139 48.5695 7.41099 49.1743 10.3233 50.0663Z" fill="#E0E0E0"/>
<path d="M9.85781 53.2774C6.85873 52.9904 3.88737 52.3853 0.979482 51.4693C3.97594 51.7807 6.94553 52.3855 9.85781 53.2774Z" fill="#E0E0E0"/>
<path d="M9.39224 56.4886C6.39316 56.2016 3.4218 55.5965 0.513906 54.6805C3.51036 54.9919 6.47996 55.5967 9.39224 56.4886Z" fill="#E0E0E0"/>
<path d="M2.38019 37.4659L108.292 59.0354C108.426 66.7121 107.319 74.3482 105.031 81.5317L-0.437487 60.0526L-0.21391 58.5106L6.23051 59.823C7.04247 59.9884 7.8766 59.7647 8.54939 59.2011C9.22219 58.6376 9.67854 57.7804 9.81806 56.818L11.6172 44.4088C11.7567 43.4465 11.568 42.4579 11.0925 41.6605C10.617 40.8631 9.89374 40.3222 9.08178 40.1569L2.19344 38.754L2.38019 37.4659Z" fill="#263238"/>
<path d="M101.009 81.0114C100.902 80.9896 101.559 75.8004 102.483 69.4325C103.406 63.0646 104.247 57.9127 104.355 57.9346C104.462 57.9564 103.804 63.1456 102.881 69.5135C101.957 75.8814 101.116 81.0332 101.009 81.0114Z" fill="#F5F5F5"/>
<path d="M14.3377 63.3604C14.2306 63.3386 14.8884 58.1494 15.8116 51.7815C16.7349 45.4136 17.5763 40.2617 17.6835 40.2836C17.7907 40.3054 17.1329 45.4946 16.2096 51.8625C15.2864 58.2304 14.4449 63.3822 14.3377 63.3604Z" fill="#E0E0E0"/>
<path d="M102.861 81.3885C102.753 81.3667 103.426 76.1806 104.35 69.8127C105.273 63.4448 106.099 58.2899 106.206 58.3117C106.313 58.3335 105.656 63.5227 104.732 69.8906C103.809 76.2585 102.968 81.4103 102.861 81.3885Z" fill="#F5F5F5"/>
<path d="M12.6084 63.0082C12.486 62.9832 13.159 57.7971 14.0823 51.4293C15.0055 45.0614 15.8317 39.9065 15.9541 39.9314C16.0766 39.9563 15.3882 45.1393 14.4649 51.5072C13.5417 57.8751 12.7156 63.03 12.6084 63.0082Z" fill="#E0E0E0"/>
<path d="M72.9703 43.8478L14.7713 31.9954L14.211 35.8596L72.4101 47.7121L72.9703 43.8478Z" fill="#EBEBEB"/>
<path d="M94.5252 55.8395C95.1973 54.2397 95.7018 52.5485 96.0275 50.8036C96.2217 49.0347 96.2379 47.2448 96.0756 45.4715C96.6488 47.1931 96.7707 49.0796 96.4255 50.8846C96.2117 52.72 95.5513 54.4417 94.5252 55.8395Z" fill="#F5F5F5"/>
<path d="M92.5255 55.3949C92.4183 55.3731 93.191 53.1957 93.5808 50.3987C93.9706 47.6016 93.8681 45.2647 93.9959 45.2534C94.2867 46.9791 94.2809 48.7567 93.9788 50.4797C93.7979 52.2229 93.3023 53.8993 92.5255 55.3949Z" fill="#F5F5F5"/>
<path d="M30.3502 51.8155C29.7781 51.7202 29.4624 51.8767 29.4032 52.2851L28.6361 57.5763C28.5769 57.9847 28.8335 58.2577 29.4061 58.3955L29.377 58.5963L26.6432 58.0395L26.6723 57.8388C27.254 57.9361 27.5744 57.7805 27.6337 57.3722L28.3807 52.2199L24.9933 57.7035L24.859 57.6762L23.2281 51.4196L22.5161 56.33C22.4569 56.7383 22.7424 57.0172 23.3725 57.1668L23.3434 57.3675L21.0076 56.8918L21.0368 56.6911C21.676 56.8001 22.0253 56.6504 22.0845 56.2421L22.8516 50.9508C22.9108 50.5425 22.6302 50.2645 22.0097 50.117L22.0388 49.9162L23.986 50.3128L25.483 56.0969L28.4225 51.2163L30.3793 51.6148L30.3502 51.8155Z" fill="#E0E0E0" fill-opacity="0.77"/>
<path d="M35.6722 52.5443L37.2117 58.9201C37.3017 59.2987 37.3787 59.5511 37.4427 59.6772C37.567 59.9321 37.7518 60.0881 37.997 60.1451L37.9679 60.3458L35.4643 59.836L35.4934 59.6352C35.961 59.7022 36.2095 59.6345 36.2388 59.432C36.2597 59.2879 36.2185 58.9933 36.1151 58.5484L35.8901 57.5805L33.3193 57.0569C33.2337 57.2161 33.1516 57.3619 33.0732 57.4943C32.75 58.0432 32.5752 58.4086 32.5489 58.5904C32.5086 58.8684 32.7099 59.0578 33.1529 59.1586L33.1238 59.3593L31.1813 58.9637L31.2104 58.763C31.4375 58.7633 31.6201 58.7069 31.7584 58.5937C31.9599 58.4299 32.2883 57.958 32.7438 57.1782L35.4755 52.5043L35.6722 52.5443ZM33.5451 56.6578L35.8137 57.1198L35.0978 53.9853L33.5451 56.6578Z" fill="#E0E0E0" fill-opacity="0.77"/>
<path d="M44.0485 54.8543L43.2231 60.547C43.1639 60.9554 43.4206 61.2284 43.9932 61.3662L43.9641 61.567L41.235 61.0112L41.2642 60.8105C41.8427 60.9071 42.1615 60.7512 42.2207 60.3429L43.0461 54.6502L42.7248 54.5847C41.9574 54.4284 41.4604 54.4615 41.234 54.6839C41.146 54.7684 41.0606 54.8923 40.9776 55.0556C40.9322 55.1417 40.8627 55.3148 40.769 55.5748L40.534 55.5269L40.8513 53.7475L46.3909 54.8756L46.1935 56.6795L45.9537 56.6307C45.935 56.1923 45.8957 55.8841 45.836 55.7058C45.7581 55.471 45.6152 55.2988 45.4072 55.1893C45.2848 55.1255 45.0685 55.062 44.7583 54.9989L44.0485 54.8543Z" fill="#E0E0E0" fill-opacity="0.77"/>
<path d="M47.2025 62.2265L47.2316 62.0258C47.8101 62.1224 48.1289 61.9665 48.1882 61.5582L48.9553 56.2669C49.0145 55.8586 48.7578 55.5855 48.1853 55.4477L48.2144 55.247L53.4278 56.3087L53.2092 57.8168L52.9933 57.7729C52.9707 57.475 52.9143 57.2392 52.8243 57.0655C52.6573 56.7418 52.3931 56.5431 52.0318 56.4695L50.4491 56.1472C50.1613 56.0886 49.9975 56.1966 49.9577 56.4711L49.6293 58.7358L51.0106 59.0171C51.4007 59.0966 51.6961 59.0914 51.8968 59.0015C52.1462 58.8933 52.3056 58.6449 52.3751 58.2564L52.5814 58.2984L52.2239 60.7638L52.0177 60.7218C52.0616 60.3281 51.9815 60.0291 51.7774 59.825C51.6113 59.6535 51.3349 59.5283 50.948 59.4495L49.5667 59.1682L49.1906 61.7623C49.1508 62.0368 49.2156 62.1913 49.385 62.2259L50.68 62.4896C51.166 62.5886 51.5346 62.6124 51.7856 62.5611C52.1794 62.4788 52.5603 62.1448 52.9283 61.5591L53.2065 61.6157L52.5022 63.3058L47.2025 62.2265Z" fill="#E0E0E0" fill-opacity="0.77"/>
<path d="M64.0904 58.6868C63.5182 58.5915 63.2026 58.748 63.1434 59.1564L62.3762 64.4476C62.317 64.856 62.5737 65.129 63.1462 65.2668L63.1171 65.4676L60.3833 64.9108L60.4124 64.7101C60.9941 64.8074 61.3146 64.6518 61.3738 64.2435L62.1208 59.0912L58.7334 64.5748L58.5991 64.5475L56.9682 58.2909L56.2563 63.2013C56.1971 63.6096 56.4825 63.8885 57.1126 64.0381L57.0835 64.2388L54.7478 63.7631L54.7769 63.5624C55.4162 63.6714 55.7654 63.5217 55.8246 63.1134L56.5918 57.8221C56.651 57.4138 56.3703 57.1358 55.7498 56.9883L55.7789 56.7875L57.7262 57.1841L59.2231 62.9682L62.1626 58.0876L64.1195 58.4861L64.0904 58.6868Z" fill="#E0E0E0" fill-opacity="0.77"/>
<path d="M69.4123 59.4156L70.9519 65.7914C71.0418 66.17 71.1188 66.4224 71.1828 66.5485C71.3072 66.8034 71.4919 66.9594 71.7371 67.0164L71.708 67.2171L69.2044 66.7073L69.2335 66.5065C69.7012 66.5735 69.9496 66.5058 69.979 66.3033C69.9999 66.1592 69.9586 65.8646 69.8553 65.4197L69.6302 64.4518L67.0595 63.9282C66.9738 64.0874 66.8918 64.2332 66.8133 64.3656C66.4902 64.9145 66.3154 65.2799 66.289 65.4617C66.2487 65.7397 66.4501 65.9291 66.893 66.0299L66.8639 66.2306L64.9215 65.835L64.9506 65.6343C65.1776 65.6346 65.3603 65.5782 65.4985 65.465C65.7 65.3012 66.0285 64.8293 66.4839 64.0495L69.2157 59.3756L69.4123 59.4156ZM67.2852 63.5291L69.5538 63.9911L68.838 60.8566L67.2852 63.5291Z" fill="#E0E0E0" fill-opacity="0.77"/>
<path d="M77.7887 61.7256L76.9633 67.4183C76.9041 67.8267 77.1608 68.0997 77.7333 68.2375L77.7042 68.4383L74.9752 67.8825L75.0043 67.6818C75.5828 67.7784 75.9017 67.6225 75.9609 67.2142L76.7863 61.5215L76.4649 61.456C75.6975 61.2997 75.2006 61.3328 74.9741 61.5552C74.8862 61.6397 74.8007 61.7636 74.7178 61.9269C74.6724 62.013 74.6029 62.1861 74.5092 62.4461L74.2742 62.3982L74.5914 60.6188L80.131 61.7469L79.9337 63.5508L79.6939 63.502C79.6751 63.0636 79.6359 62.7554 79.5761 62.5772C79.4983 62.3423 79.3553 62.1701 79.1474 62.0606C79.0249 61.9968 78.8086 61.9333 78.4985 61.8702L77.7887 61.7256Z" fill="#E0E0E0" fill-opacity="0.77"/>
<path d="M83.7484 69.6692L81.0193 69.1134L81.0484 68.9127C81.627 69.0093 81.9458 68.8534 82.005 68.4451L82.7722 63.1539C82.8314 62.7455 82.5747 62.4724 82.0022 62.3346L82.0313 62.1339L84.7603 62.6897L84.7312 62.8904C84.1527 62.7938 83.8338 62.9497 83.7746 63.358L83.156 67.625L86.9257 63.9997C86.9849 63.5914 86.7282 63.3183 86.1556 63.1805L86.1848 62.9798L88.9186 63.5365L88.8895 63.7373C88.3077 63.64 87.9873 63.7955 87.9281 64.2039L87.1609 69.4951C87.1017 69.9035 87.36 70.1769 87.9358 70.3153L87.9067 70.516L85.1728 69.9593L85.2019 69.7586C85.7805 69.8552 86.0993 69.6993 86.1585 69.291L86.8182 64.7409L83.0522 68.3404L83.0074 68.6493C82.9482 69.0576 83.2049 69.3307 83.7775 69.4685L83.7484 69.6692Z" fill="#E0E0E0" fill-opacity="0.77"/>
<path d="M96.4928 72.2646L93.6438 71.6844L93.6729 71.4837C94.1781 71.5866 94.4429 71.554 94.4673 71.3858C94.4807 71.2932 94.4272 71.1516 94.3067 70.961L92.4192 68.0065L92.141 67.9499L91.7806 70.4359C91.7214 70.8443 91.9845 71.1186 92.5698 71.2591L92.5407 71.4598L89.7733 70.8962L89.8024 70.6955C90.3937 70.7947 90.719 70.6401 90.7782 70.2318L91.5454 64.9405C91.6046 64.5322 91.3415 64.2578 90.7561 64.1174L90.7852 63.9167L93.5766 64.4852L93.5475 64.6859C92.9402 64.5834 92.607 64.7363 92.5478 65.1447L92.1843 67.6513L92.3426 67.6836L94.6394 65.9416C94.9651 65.6935 95.1373 65.5043 95.1563 65.3739C95.1886 65.1508 94.9897 64.9902 94.5595 64.892L94.5886 64.6913L97.1402 65.2109L97.1111 65.4116C96.8272 65.3715 96.5877 65.3775 96.3925 65.4296C96.0159 65.5295 95.4885 65.8407 94.8104 66.3632L93.2817 67.541L95.4922 71.1282C95.7003 71.4638 95.8987 71.7074 96.0874 71.8589C96.1464 71.9062 96.2912 71.9745 96.5219 72.0639L96.4928 72.2646Z" fill="#E0E0E0" fill-opacity="0.77"/>
<path d="M58.157 69.0613L59.6966 75.437C59.7865 75.8157 59.8635 76.068 59.9275 76.1941C60.0519 76.4491 60.2366 76.6051 60.4819 76.6621L60.4527 76.8628L57.9491 76.3529L57.9782 76.1522C58.4459 76.2192 58.6943 76.1514 58.7237 75.949C58.7446 75.8048 58.7034 75.5103 58.6 75.0653L58.3749 74.0974L55.8042 73.5739C55.7185 73.7331 55.6365 73.8789 55.558 74.0113C55.2349 74.5602 55.0601 74.9255 55.0337 75.1074C54.9934 75.3854 55.1948 75.5747 55.6377 75.6755L55.6086 75.8763L53.6662 75.4807L53.6953 75.28C53.9224 75.2803 54.105 75.2239 54.2432 75.1107C54.4447 74.9468 54.7732 74.475 55.2286 73.6951L57.9604 69.0212L58.157 69.0613ZM56.0299 73.1747L58.2985 73.6367L57.5827 70.5023L56.0299 73.1747Z" fill="#E0E0E0" fill-opacity="0.77"/>
<defs>
<linearGradient id="paint0_linear" x1="40.7779" y1="67.4563" x2="35.5878" y2="92.9415" gradientUnits="userSpaceOnUse">
<stop stop-color="#4A27F3"/>
<stop offset="1" stop-color="#339DFA"/>
</linearGradient>
</defs>
</svg>
