<svg width="22" height="16" viewBox="0 0 22 16" fill="none" xmlns="http://www.w3.org/2000/svg">
<path fill-rule="evenodd" clip-rule="evenodd" d="M21.7593 7.34923C22.0802 7.72372 22.0802 8.27632 21.7593 8.65081L15.7593 15.6508C15.3998 16.0701 14.7685 16.1187 14.3492 15.7593C13.9299 15.3999 13.8813 14.7686 14.2407 14.3492L19.6829 8.00002L14.2407 1.65081C13.8813 1.23148 13.9299 0.600183 14.3492 0.240761C14.7685 -0.118661 15.3998 -0.0700994 15.7593 0.349226L21.7593 7.34923Z" fill="#3A7CF8"/>
<path fill-rule="evenodd" clip-rule="evenodd" d="M0 8C0 7.44772 0.447715 7 1 7H21C21.5523 7 22 7.44772 22 8C22 8.55228 21.5523 9 21 9H1C0.447715 9 0 8.55228 0 8Z" fill="#3A7CF8"/>
</svg>
