<svg width="179" height="198" viewBox="0 0 179 198" fill="none" xmlns="http://www.w3.org/2000/svg">
<g opacity="0.3">
<path d="M153.334 148.772L48.9969 185.093L5.57942 51.8794L112.513 14.6576C113.073 14.4621 113.679 14.4822 114.196 14.7135C114.713 14.9448 115.1 15.3683 115.271 15.891L156.611 142.745C156.799 143.321 156.864 143.934 156.801 144.549C156.738 145.164 156.549 145.769 156.245 146.328C155.941 146.888 155.527 147.392 155.028 147.811C154.528 148.231 153.953 148.557 153.334 148.772Z" fill="#455A64"/>
<path d="M116.148 38.7517L118.26 45.2316L131.197 40.7288L129.086 34.2489L116.148 38.7517Z" fill="#4A27F3"/>
<path opacity="0.3" d="M116.148 38.7517L118.26 45.2316L131.197 40.7288L129.086 34.2489L116.148 38.7517Z" fill="black"/>
<path d="M112.154 18.7991L11.2511 53.9188L52.5304 180.599L153.433 145.48L112.154 18.7991Z" fill="#E0E0E0"/>
<path d="M107.152 18.8137L6.24951 53.9335L47.5286 180.613L148.431 145.494L107.152 18.8137Z" fill="#FAFAFA"/>
<path d="M13.3368 64.7546L13.4821 65.2006L114.031 30.204L113.886 29.7581L13.3368 64.7546Z" fill="#E0E0E0"/>
<path d="M16.0225 70.8362L16.1678 71.2822L116.717 36.2856L116.571 35.8397L16.0225 70.8362Z" fill="#E0E0E0"/>
<path d="M18.0765 77.1311L18.2218 77.577L118.771 42.5807L118.626 42.1348L18.0765 77.1311Z" fill="#E0E0E0"/>
<path d="M20.8013 83.4969L20.9445 83.9429L121.464 49.3763L121.321 48.9304L20.8013 83.4969Z" fill="#E0E0E0"/>
<path d="M22.8467 89.8266L22.9899 90.2725L123.51 55.7057L123.366 55.2598L22.8467 89.8266Z" fill="#E0E0E0"/>
<path d="M24.8899 96.1517L25.0331 96.5977L125.553 62.0313L125.41 61.5854L24.8899 96.1517Z" fill="#E0E0E0"/>
<path d="M26.94 102.479L27.0832 102.925L127.603 68.3585L127.46 67.9125L26.94 102.479Z" fill="#E0E0E0"/>
<path d="M28.3383 108.627L28.4836 109.073L129.032 74.077L128.887 73.631L28.3383 108.627Z" fill="#E0E0E0"/>
<path d="M30.3945 114.927L30.5398 115.373L131.089 80.3762L130.943 79.9302L30.3945 114.927Z" fill="#E0E0E0"/>
<path d="M33.0844 121.464L33.2275 121.91L133.748 87.3435L133.605 86.8976L33.0844 121.464Z" fill="#E0E0E0"/>
<path d="M35.1278 127.79L35.271 128.235L135.791 93.6688L135.648 93.2229L35.1278 127.79Z" fill="#E0E0E0"/>
<path d="M37.1733 134.119L37.3165 134.565L137.836 99.9983L137.693 99.5524L37.1733 134.119Z" fill="#E0E0E0"/>
<path d="M39.2251 140.451L39.3683 140.897L139.888 106.33L139.745 105.884L39.2251 140.451Z" fill="#E0E0E0"/>
<path d="M43.3183 153.104L43.4615 153.55L143.981 118.983L143.838 118.537L43.3183 153.104Z" fill="#E0E0E0"/>
<path d="M45.3682 159.431L45.5114 159.877L146.031 125.311L145.888 124.865L45.3682 159.431Z" fill="#E0E0E0"/>
<path d="M47.4116 165.756L47.5548 166.202L148.075 131.636L147.932 131.19L47.4116 165.756Z" fill="#E0E0E0"/>
<path d="M48.8696 171.622L49.0149 172.068L149.564 137.072L149.418 136.626L48.8696 171.622Z" fill="#E0E0E0"/>
<path d="M22.3696 49.0552L63.4117 175.331L63.8902 175.165L22.8481 48.889L22.3696 49.0552Z" fill="#4A27F3"/>
<path d="M18.1179 57.2222C18.2409 57.6005 18.2409 58.0121 18.1178 58.405C17.9947 58.798 17.7541 59.1546 17.4264 59.4298C17.0987 59.705 16.6985 59.8865 16.2765 59.9513C15.8545 60.0161 15.4295 59.9614 15.0554 59.794C14.6812 59.6265 14.3746 59.354 14.1743 59.0107C13.974 58.6675 13.889 58.2689 13.9301 57.8654C13.9711 57.462 14.1363 57.0716 14.4049 56.7438C14.6734 56.416 15.0332 56.1653 15.4388 56.0236C15.7086 55.9293 15.9919 55.8855 16.2726 55.8947C16.5533 55.904 16.8259 55.966 17.0748 56.0774C17.3236 56.1887 17.5438 56.3471 17.7228 56.5436C17.9018 56.74 18.0361 56.9706 18.1179 57.2222Z" fill="#455A64"/>
<path d="M22.6956 71.276C22.8196 71.6544 22.8204 72.0664 22.6978 72.4599C22.5752 72.8533 22.3347 73.2106 22.0069 73.4863C21.6791 73.7621 21.2786 73.9439 20.8561 74.0089C20.4337 74.0739 20.0083 74.0191 19.6338 73.8514C19.2593 73.6837 18.9526 73.4107 18.7524 73.0669C18.5522 72.7231 18.4676 72.3239 18.5093 71.9201C18.551 71.5162 18.7171 71.1256 18.9865 70.7979C19.256 70.4703 19.6168 70.2201 20.0231 70.0792C20.5667 69.892 21.1527 69.9127 21.6533 70.1369C22.154 70.3611 22.5286 70.7706 22.6956 71.276Z" fill="#455A64"/>
<path d="M27.2753 85.3342C27.3969 85.7118 27.3958 86.1223 27.2722 86.5139C27.1485 86.9055 26.9079 87.2607 26.5805 87.5345C26.2532 87.8084 25.8539 87.9887 25.433 88.0526C25.0122 88.1166 24.5886 88.0614 24.2157 87.894C23.8429 87.7266 23.5375 87.4545 23.3381 87.112C23.1388 86.7695 23.0544 86.372 23.0955 85.9696C23.1367 85.5673 23.3016 85.1781 23.5695 84.8513C23.8374 84.5245 24.1962 84.2746 24.6006 84.1332C24.8702 84.039 25.1534 83.9953 25.434 84.0047C25.7145 84.0141 25.9868 84.0764 26.2354 84.188C26.4839 84.2996 26.7037 84.4583 26.8822 84.655C27.0606 84.8517 27.1942 85.0826 27.2753 85.3342Z" fill="#455A64"/>
<path d="M31.8579 99.3859C31.9819 99.7641 31.9828 100.176 31.8605 100.569C31.7381 100.962 31.498 101.32 31.1706 101.596C30.8431 101.871 30.4429 102.054 30.0207 102.119C29.5985 102.184 29.1733 102.13 28.7987 101.963C28.4241 101.796 28.1171 101.523 27.9164 101.18C27.7157 100.837 27.6305 100.438 27.6714 100.034C27.7123 99.6305 27.8775 99.24 28.1462 98.9119C28.4149 98.5839 28.775 98.3332 29.1808 98.1914C29.7248 98.0028 30.3117 98.0225 30.8133 98.2464C31.3149 98.4702 31.6905 98.8799 31.8579 99.3859Z" fill="#455A64"/>
<path d="M36.438 113.444C36.562 113.822 36.5627 114.234 36.4401 114.628C36.3175 115.021 36.077 115.378 35.7492 115.654C35.4214 115.93 35.0209 116.112 34.5985 116.177C34.1761 116.242 33.7507 116.187 33.3762 116.019C33.0017 115.851 32.695 115.578 32.4948 115.235C32.2947 114.891 32.2101 114.492 32.2518 114.088C32.2934 113.684 32.4595 113.294 32.729 112.966C32.9985 112.638 33.3592 112.388 33.7655 112.247C34.0347 112.153 34.3174 112.11 34.5974 112.119C34.8775 112.128 35.1494 112.19 35.3977 112.301C35.6459 112.412 35.8655 112.571 36.0441 112.767C36.2226 112.963 36.3564 113.193 36.438 113.444Z" fill="#455A64"/>
<path d="M41.0177 127.502C41.1393 127.88 41.1383 128.29 41.0146 128.682C40.891 129.073 40.6503 129.428 40.323 129.702C39.9957 129.976 39.5964 130.156 39.1755 130.22C38.7547 130.284 38.3311 130.229 37.9583 130.062C37.5854 129.894 37.2801 129.622 37.0807 129.28C36.8813 128.937 36.7969 128.54 36.8381 128.137C36.8792 127.735 37.0442 127.346 37.312 127.019C37.5799 126.692 37.9387 126.442 38.3431 126.301C38.6127 126.207 38.8959 126.163 39.1764 126.172C39.4569 126.182 39.7293 126.244 39.9778 126.356C40.2263 126.467 40.4461 126.626 40.6246 126.823C40.803 127.019 40.9366 127.25 41.0177 127.502Z" fill="#455A64"/>
<path d="M45.5999 141.554C45.7238 141.932 45.7244 142.344 45.6015 142.738C45.4786 143.132 45.2378 143.489 44.9096 143.764C44.5815 144.04 44.1807 144.222 43.758 144.286C43.3353 144.351 42.9099 144.296 42.5355 144.127C42.1611 143.959 41.8546 143.685 41.655 143.341C41.4553 142.997 41.3713 142.597 41.4138 142.193C41.4563 141.789 41.6232 141.399 41.8935 141.072C42.1637 140.744 42.5251 140.495 42.9319 140.355C43.4752 140.167 44.0609 140.189 44.5608 140.413C45.0608 140.638 45.4344 141.048 45.5999 141.554Z" fill="#455A64"/>
<path d="M50.1796 155.612C50.3026 155.99 50.3024 156.402 50.179 156.795C50.0557 157.188 49.8147 157.545 49.4866 157.82C49.1585 158.095 48.7581 158.276 48.3358 158.341C47.9136 158.405 47.4885 158.35 47.1145 158.182C46.7404 158.014 46.4341 157.741 46.2343 157.397C46.0345 157.053 45.9502 156.655 45.992 156.251C46.0338 155.847 46.1999 155.457 46.4692 155.13C46.7386 154.802 47.099 154.552 47.5051 154.411C47.7747 154.317 48.0579 154.273 48.3384 154.283C48.6189 154.292 48.8912 154.354 49.1397 154.466C49.3883 154.577 49.608 154.736 49.7865 154.933C49.9649 155.129 50.0985 155.36 50.1796 155.612Z" fill="#455A64"/>
<path d="M54.7624 169.663C54.8864 170.042 54.8873 170.453 54.765 170.847C54.6427 171.24 54.4026 171.597 54.0751 171.873C53.7476 172.149 53.3475 172.331 52.9253 172.396C52.5031 172.462 52.0778 172.408 51.7032 172.24C51.3286 172.073 51.0216 171.801 50.8209 171.457C50.6202 171.114 50.5349 170.715 50.5758 170.312C50.6167 169.908 50.782 169.517 51.0506 169.189C51.3193 168.861 51.6794 168.61 52.0852 168.469C52.6292 168.28 53.2161 168.3 53.7177 168.524C54.2194 168.748 54.595 169.157 54.7624 169.663Z" fill="#455A64"/>
<path d="M10.965 67.1556C10.9752 67.1767 10.8977 67.2143 10.7506 67.2597C10.5352 67.3269 10.3148 67.3746 10.0924 67.4021C9.73389 67.439 9.37462 67.4388 9.02098 67.4015C8.54822 67.349 8.09082 67.2288 7.66396 67.0449C7.1493 66.8129 6.68421 66.4985 6.28774 66.1144C5.83549 65.674 5.46408 65.1636 5.18732 64.6023C4.85034 63.974 4.68184 63.2684 4.69594 62.5446C4.74702 61.7651 5.00288 60.9981 5.43997 60.3143C5.86588 59.639 6.43318 59.0494 7.10378 58.5851C7.72091 58.1605 8.40057 57.8306 9.11593 57.6084C10.3084 57.2512 11.5498 57.1253 12.7642 57.2382C13.5643 57.3041 14.3506 57.4456 15.1117 57.6608C15.6449 57.8185 15.9251 57.9428 15.9095 57.992C15.8939 58.0412 15.5826 58.0153 15.0299 57.9452C14.255 57.8434 13.4723 57.7818 12.6852 57.7607C11.5474 57.7252 10.3992 57.8923 9.29939 58.2535C8.66707 58.4679 8.06763 58.773 7.52261 59.1576C6.9462 59.5664 6.45817 60.0799 6.0896 60.6654C5.722 61.2413 5.50051 61.8847 5.44392 62.5408C5.43029 63.1508 5.56344 63.7469 5.83318 64.2836C6.06774 64.7905 6.38006 65.2579 6.76053 65.6714C7.09317 66.0296 7.48564 66.3326 7.92387 66.5699C8.29307 66.7599 8.6909 66.8997 9.10641 66.9851C9.42539 67.0509 9.7516 67.0895 10.0813 67.1003C10.353 67.1142 10.5662 67.0888 10.7175 67.0987C10.8689 67.1085 10.9639 67.1301 10.965 67.1556Z" fill="#4A27F3"/>
<path d="M15.5533 81.2199C15.5656 81.2452 15.4712 81.2597 15.3343 81.3262C15.1179 81.3911 14.8969 81.4373 14.6741 81.4644C14.317 81.5037 13.9589 81.5028 13.6072 81.4616C13.134 81.4156 12.6765 81.2966 12.2523 81.1092C11.7352 80.8809 11.2695 80.5661 10.876 80.1788C10.4231 79.7369 10.0511 79.2252 9.7736 78.6625C9.43312 78.0362 9.26294 77.3308 9.27768 76.6071C9.33306 75.8292 9.58938 75.0644 10.0238 74.381C10.4497 73.7032 11.0179 73.1114 11.6901 72.6454C12.3072 72.2207 12.9869 71.8908 13.7023 71.6687C14.8931 71.31 16.1334 71.1848 17.3461 71.3006C18.1461 71.3665 18.9324 71.508 19.6935 71.7232C20.2313 71.8787 20.5115 72.003 20.4959 72.0522C20.4804 72.1014 20.167 72.0713 19.6117 72.0076C18.8373 71.9033 18.0545 71.8417 17.2671 71.8232C16.1288 71.7868 14.9801 71.9524 13.8792 72.3118C13.2453 72.5269 12.6443 72.8327 12.0978 73.2181C11.5291 73.6298 11.0493 74.1446 10.6892 74.7297C10.3215 75.3056 10.1 75.9489 10.0434 76.6051C10.0284 77.2152 10.1616 77.8116 10.4327 78.3478C10.6645 78.8576 10.9761 79.3273 11.3575 79.742C11.6899 80.1014 12.0842 80.404 12.5254 80.6382C12.8908 80.8307 13.2869 80.9698 13.7013 81.0515C14.0201 81.118 14.3464 81.1565 14.6762 81.1666C14.9499 81.1847 15.1677 81.1571 15.3145 81.1692C15.4613 81.1812 15.5415 81.184 15.5533 81.2199Z" fill="#4A27F3"/>
<path d="M20.1267 95.2655C20.1267 95.2655 20.0446 95.3054 19.9077 95.3718C19.6936 95.4377 19.4748 95.4846 19.2541 95.512C18.415 95.6101 17.5779 95.491 16.8317 95.1675C16.3146 94.9366 15.8484 94.6205 15.4535 94.2328C15.0012 93.7925 14.6298 93.2821 14.3531 92.7208C14.0161 92.0925 13.8476 91.3869 13.8617 90.6631C13.9103 89.8856 14.1655 89.1203 14.6032 88.4392C15.0306 87.7624 15.5986 87.1709 16.2696 86.7036C16.8867 86.279 17.5664 85.9491 18.2818 85.7269C19.4749 85.3687 20.7175 85.2441 21.9322 85.3608C22.7309 85.4272 23.5157 85.5694 24.2751 85.7856C24.8108 85.9369 25.091 86.0612 25.0754 86.1104C25.0599 86.1596 24.7485 86.1337 24.1958 86.0636C23.4212 85.9648 22.6393 85.9047 21.8532 85.8834C20.7149 85.844 19.5656 86.0097 18.4652 86.372C17.8329 86.5864 17.2334 86.8914 16.6884 87.2761C16.112 87.6849 15.624 88.1984 15.2554 88.7839C14.8878 89.3598 14.6663 90.0032 14.6097 90.6593C14.596 91.2693 14.7292 91.8654 14.9989 92.4021C15.2291 92.9113 15.5418 93.3793 15.9263 93.7899C16.2571 94.1498 16.6499 94.4531 17.0896 94.6883C17.4573 94.8788 17.8536 95.0192 18.2676 95.1058C18.5872 95.1689 18.9132 95.2074 19.2425 95.2209C19.5187 95.2326 19.734 95.2114 19.8808 95.2235C20.0276 95.2355 20.1256 95.24 20.1267 95.2655Z" fill="#4A27F3"/>
<path d="M24.7068 109.323C24.7171 109.345 24.6395 109.382 24.4924 109.428C24.2761 109.493 24.0551 109.539 23.8322 109.566C23.4751 109.607 23.1167 109.606 22.7654 109.563C22.2912 109.516 21.8324 109.398 21.4058 109.213C20.8912 108.981 20.4261 108.666 20.0296 108.282C19.5803 107.838 19.2086 107.326 18.9272 106.766C18.591 106.138 18.4225 105.432 18.4358 104.708C18.4912 103.931 18.7475 103.166 19.1819 102.482C19.606 101.806 20.1736 101.216 20.8457 100.753C21.4629 100.329 22.1425 99.9987 22.8579 99.7765C24.0498 99.4163 25.2919 99.2903 26.5061 99.4063C27.3062 99.4722 28.0925 99.6137 28.8535 99.8288C29.3867 99.9865 29.667 100.111 29.6559 100.158C29.6449 100.205 29.3244 100.183 28.7717 100.113C27.9971 100.01 27.2144 99.9487 26.4271 99.9288C25.2889 99.8947 24.1406 100.06 23.0393 100.417C22.4063 100.635 21.8057 100.94 21.2579 101.324C20.6835 101.736 20.1965 102.25 19.827 102.836C19.4538 103.383 19.2333 104.005 19.1879 104.64C19.1425 105.275 19.2738 105.899 19.5685 106.45C19.804 106.958 20.117 107.426 20.4979 107.842C20.8305 108.2 21.223 108.503 21.6612 108.74C22.029 108.93 22.4264 109.069 22.8417 109.151C23.1605 109.218 23.4867 109.256 23.8165 109.266C24.0903 109.284 24.3034 109.259 24.4548 109.269C24.6062 109.279 24.7037 109.294 24.7068 109.323Z" fill="#4A27F3"/>
<path d="M29.2895 123.375C29.2895 123.375 29.2074 123.415 29.0705 123.481C28.8535 123.544 28.6328 123.59 28.4103 123.62C28.0532 123.657 27.6953 123.656 27.3434 123.617C26.8702 123.571 26.4126 123.452 25.9884 123.264C25.4706 123.034 25.0043 122.718 24.6102 122.33C24.1579 121.889 23.7865 121.379 23.5097 120.818C23.1735 120.19 23.0036 119.485 23.0138 118.762C23.0675 117.984 23.324 117.219 23.7599 116.536C24.1866 115.859 24.7546 115.267 25.4263 114.8C26.0434 114.376 26.723 114.046 27.4384 113.824C28.6292 113.465 29.8695 113.34 31.0822 113.456C31.8822 113.522 32.6685 113.663 33.4296 113.878C33.9674 114.034 34.2476 114.158 34.23 114.203C34.2124 114.248 33.903 114.226 33.3524 114.16C32.5777 114.058 31.7949 113.996 31.0078 113.976C29.8695 113.94 28.7208 114.105 27.6198 114.465C26.9875 114.679 26.388 114.984 25.843 115.369C25.2666 115.778 24.7786 116.291 24.41 116.877C24.0424 117.452 23.8209 118.096 23.7643 118.752C23.7482 119.362 23.8814 119.959 24.1536 120.495C24.3854 121.004 24.697 121.474 25.0784 121.889C25.4126 122.245 25.8058 122.545 26.2442 122.781C26.6103 122.974 27.007 123.115 27.4222 123.198C27.7415 123.263 28.0676 123.301 28.3971 123.314C28.6688 123.327 28.8886 123.304 29.0354 123.316C29.1822 123.328 29.2838 123.352 29.2895 123.375Z" fill="#4A27F3"/>
<path d="M33.8609 137.416C33.8711 137.437 33.7936 137.475 33.6464 137.52C33.4306 137.585 33.2104 137.633 32.9883 137.663C32.6297 137.702 32.2703 137.701 31.9168 137.662C31.4445 137.613 30.9874 137.494 30.5619 137.31C30.0472 137.078 29.5821 136.764 29.1857 136.379C28.7334 135.939 28.362 135.429 28.0853 134.867C27.7483 134.239 27.5798 133.534 27.5939 132.81C27.645 132.03 27.9009 131.263 28.338 130.58C28.7709 129.906 29.3468 129.321 30.0258 128.865C30.6429 128.44 31.3226 128.11 32.038 127.888C33.2304 127.531 34.4718 127.405 35.6863 127.518C36.4863 127.584 37.2726 127.725 38.0337 127.94C38.5669 128.098 38.8471 128.222 38.8316 128.272C38.816 128.321 38.5046 128.295 37.9519 128.225C37.1771 128.123 36.3944 128.061 35.6073 128.04C34.4694 128.005 33.3212 128.172 32.2214 128.533C31.5886 128.746 30.9885 129.05 30.4426 129.433C29.8681 129.845 29.3811 130.36 29.0116 130.945C28.6364 131.492 28.4149 132.116 28.3698 132.752C28.3247 133.387 28.4577 134.013 28.7551 134.563C28.9874 135.071 29.2999 135.539 29.6824 135.951C30.0132 136.311 30.406 136.614 30.8457 136.849C31.2149 137.039 31.6127 137.179 32.0282 137.265C32.3449 137.33 32.669 137.368 32.9965 137.378C33.2748 137.394 33.488 137.368 33.6394 137.378C33.7907 137.388 33.87 137.412 33.8609 137.416Z" fill="#4A27F3"/>
<path d="M38.4516 151.485C38.4639 151.51 38.3797 151.546 38.2326 151.591C38.0157 151.654 37.7949 151.7 37.5724 151.729C37.2153 151.769 36.8572 151.768 36.5055 151.727C36.0304 151.679 35.5708 151.559 35.1439 151.372C34.6295 151.141 34.1656 150.826 33.7723 150.439C33.3197 149.997 32.9477 149.486 32.6698 148.923C32.3294 148.297 32.1592 147.592 32.1739 146.868C32.2293 146.09 32.4856 145.325 32.92 144.642C33.3459 143.964 33.9142 143.372 34.5864 142.906C35.2035 142.481 35.8832 142.152 36.5986 141.929C37.7893 141.571 39.0297 141.445 40.2423 141.561C41.0424 141.627 41.8287 141.769 42.5898 141.984C43.1275 142.139 43.4078 142.264 43.3922 142.313C43.3766 142.362 43.0586 142.334 42.508 142.268C41.7335 142.164 40.9507 142.102 40.1633 142.084C39.025 142.047 37.8763 142.213 36.7754 142.572C36.1415 142.788 35.5406 143.093 34.994 143.479C34.4189 143.887 33.9323 144.4 33.5656 144.984C33.198 145.56 32.9765 146.204 32.9199 146.86C32.9042 147.47 33.0375 148.067 33.3091 148.602C33.5409 149.112 33.8525 149.582 34.2339 149.997C34.5664 150.356 34.9607 150.659 35.4018 150.893C35.7672 151.085 36.1633 151.225 36.5777 151.306C36.9111 151.376 37.2521 151.418 37.5968 151.431C37.8685 151.445 38.0883 151.422 38.2351 151.434C38.3819 151.446 38.446 151.461 38.4516 151.485Z" fill="#4A27F3"/>
<path d="M43.0311 165.543C43.0413 165.564 42.9592 165.604 42.8121 165.65C42.5981 165.715 42.3793 165.762 42.1585 165.79C41.8 165.827 41.4407 165.826 41.0871 165.789C40.6139 165.738 40.1563 165.618 39.7301 165.433C39.213 165.204 38.7474 164.889 38.3539 164.502C37.9016 164.062 37.5302 163.551 37.2535 162.99C36.9165 162.362 36.748 161.656 36.7621 160.932C36.8118 160.154 37.0661 159.388 37.5016 158.704C37.9298 158.029 38.4985 157.439 39.17 156.973C39.7871 156.548 40.4668 156.218 41.1822 155.996C42.3746 155.639 43.616 155.513 44.8304 155.626C45.6291 155.692 46.4139 155.835 47.1733 156.051C47.7111 156.206 47.9913 156.331 47.9757 156.38C47.9601 156.429 47.6488 156.403 47.0961 156.333C46.321 156.232 45.5384 156.171 44.7514 156.149C43.6136 156.113 42.4654 156.28 41.3656 156.641C40.7333 156.856 40.1338 157.161 39.5888 157.545C39.0124 157.954 38.5244 158.468 38.1558 159.053C37.7882 159.629 37.5667 160.273 37.5101 160.929C37.4965 161.539 37.6296 162.135 37.8993 162.671C38.1295 163.181 38.4422 163.649 38.8267 164.059C39.1575 164.419 39.5503 164.722 39.99 164.958C40.3576 165.148 40.7539 165.289 41.168 165.375C41.4876 165.438 41.8136 165.477 42.1428 165.49C42.4145 165.504 42.6323 165.476 42.7791 165.489C42.9259 165.501 43.03 165.518 43.0311 165.543Z" fill="#4A27F3"/>
<path d="M47.6093 179.597C47.6216 179.622 47.5419 179.656 47.3948 179.701C47.1785 179.766 46.9575 179.813 46.7347 179.839C46.3761 179.88 46.0163 179.88 45.6632 179.839C45.1908 179.789 44.7338 179.671 44.3082 179.486C43.7936 179.254 43.3285 178.94 42.932 178.556C42.4829 178.111 42.1113 177.6 41.8295 177.039C41.4929 176.411 41.3244 175.706 41.3382 174.982C41.3935 174.204 41.6499 173.439 42.0842 172.756C42.5093 172.079 43.0759 171.488 43.746 171.022C44.3631 170.598 45.0428 170.268 45.7582 170.046C46.9502 169.685 48.1923 169.559 49.4065 169.675C50.2066 169.741 50.9929 169.883 51.754 170.098C52.2872 170.256 52.5674 170.38 52.5518 170.429C52.5362 170.478 52.2228 170.448 51.6721 170.382C50.8975 170.279 50.1148 170.218 49.3275 170.198C48.1876 170.162 47.0373 170.328 45.935 170.689C45.3027 170.903 44.7033 171.208 44.1582 171.593C43.5818 172.002 43.0938 172.515 42.7252 173.101C42.3572 173.675 42.1371 174.318 42.0841 174.974C42.0675 175.584 42.1991 176.181 42.4688 176.719C42.7043 177.227 43.0173 177.696 43.3982 178.111C43.7308 178.469 44.1233 178.772 44.5615 179.009C44.9294 179.199 45.3268 179.338 45.742 179.42C46.0608 179.487 46.3871 179.525 46.7169 179.535C46.9906 179.554 47.2038 179.528 47.3552 179.538C47.5066 179.548 47.6082 179.571 47.6093 179.597Z" fill="#4A27F3"/>
<g opacity="0.2">
<path opacity="0.2" d="M10.965 67.1556C10.9752 67.1767 10.8976 67.2144 10.7505 67.2597C10.5351 67.327 10.3147 67.3747 10.0924 67.4022C9.73383 67.4391 9.37456 67.4389 9.02092 67.4016C8.54816 67.349 8.09075 67.2288 7.6639 67.0449C7.14924 66.813 6.68415 66.4985 6.28768 66.1145C5.83543 65.6741 5.46401 65.1637 5.18726 64.6024C4.85028 63.9741 4.68177 63.2685 4.69588 62.5447C4.74696 61.7652 5.00282 60.9982 5.43991 60.3143C5.86582 59.6391 6.43312 59.0495 7.10372 58.5851C7.72085 58.1606 8.40051 57.8307 9.11587 57.6085C10.3083 57.2513 11.5497 57.1253 12.7642 57.2382C13.5642 57.3041 14.3505 57.4457 15.1116 57.6608C15.6448 57.8185 15.925 57.9429 15.9095 57.9921C15.8939 58.0413 15.5825 58.0154 15.0298 57.9452C14.255 57.8434 13.4723 57.7818 12.6852 57.7608C11.5473 57.7252 10.3991 57.8923 9.29933 58.2536C8.66701 58.468 8.06757 58.773 7.52255 59.1577C6.94613 59.5665 6.45811 60.08 6.08954 60.6655C5.72194 61.2414 5.50045 61.8848 5.44386 62.5409C5.43023 63.1508 5.56338 63.747 5.83312 64.2837C6.06768 64.7905 6.38 65.258 6.76047 65.6715C7.09311 66.0296 7.48558 66.3327 7.92381 66.5699C8.29301 66.76 8.69084 66.8997 9.10635 66.9852C9.42533 67.051 9.75154 67.0895 10.0812 67.1004C10.3529 67.1143 10.5661 67.0889 10.7175 67.0987C10.8688 67.1086 10.9639 67.1301 10.965 67.1556Z" fill="black"/>
<path opacity="0.2" d="M15.5536 81.2198C15.5659 81.2451 15.4715 81.2597 15.3346 81.3261C15.1182 81.391 14.8972 81.4373 14.6744 81.4643C14.3173 81.5036 13.9592 81.5027 13.6075 81.4615C13.1343 81.4155 12.6768 81.2965 12.2526 81.1092C11.7355 80.8809 11.2698 80.566 10.8763 80.1787C10.4234 79.7369 10.0514 79.2251 9.7739 78.6624C9.43343 78.0361 9.26325 77.3308 9.27799 76.607C9.33337 75.8291 9.58969 75.0644 10.0241 74.3809C10.45 73.7032 11.0182 73.1113 11.6905 72.6453C12.3076 72.2207 12.9872 71.8908 13.7026 71.6686C14.8934 71.31 16.1338 71.1847 17.3464 71.3006C18.1464 71.3664 18.9327 71.508 19.6938 71.7231C20.2316 71.8786 20.5118 72.0029 20.4962 72.0521C20.4807 72.1013 20.1673 72.0712 19.612 72.0075C18.8376 71.9033 18.0548 71.8417 17.2674 71.8231C16.1291 71.7867 14.9804 71.9524 13.8795 72.3117C13.2456 72.5269 12.6446 72.8326 12.0981 73.218C11.5294 73.6297 11.0496 74.1445 10.6895 74.7296C10.3219 75.3055 10.1003 75.9489 10.0437 76.605C10.0287 77.2152 10.1619 77.8116 10.433 78.3477C10.6648 78.8575 10.9764 79.3273 11.3578 79.742C11.6902 80.1014 12.0845 80.4039 12.5257 80.6381C12.8911 80.8306 13.2872 80.9698 13.7016 81.0514C14.0204 81.1179 14.3467 81.1565 14.6765 81.1666C14.9502 81.1847 15.168 81.1571 15.3148 81.1691C15.4616 81.1812 15.5418 81.1839 15.5536 81.2198Z" fill="black"/>
<path opacity="0.2" d="M20.1269 95.2655C20.1269 95.2655 20.0448 95.3054 19.9079 95.3718C19.6939 95.4377 19.4751 95.4846 19.2543 95.512C18.4153 95.6101 17.5781 95.491 16.832 95.1675C16.3148 94.9366 15.8487 94.6205 15.4537 94.2328C15.0015 93.7925 14.6301 93.2821 14.3533 92.7208C14.0163 92.0925 13.8478 91.3869 13.8619 90.6631C13.9106 89.8856 14.1658 89.1203 14.6035 88.4392C15.0309 87.7624 15.5988 87.1709 16.2698 86.7036C16.887 86.279 17.5667 85.9491 18.282 85.7269C19.4752 85.3687 20.7177 85.2441 21.9324 85.3608C22.7311 85.4272 23.5159 85.5694 24.2753 85.7856C24.811 85.9369 25.0913 86.0612 25.0757 86.1104C25.0601 86.1596 24.7487 86.1337 24.196 86.0636C23.4215 85.9648 22.6396 85.9047 21.8534 85.8834C20.7151 85.844 19.5658 86.0097 18.4655 86.372C17.8331 86.5864 17.2337 86.8914 16.6887 87.2761C16.1122 87.6849 15.6242 88.1984 15.2556 88.7839C14.888 89.3598 14.6665 90.0032 14.6099 90.6593C14.5963 91.2693 14.7294 91.8654 14.9992 92.4021C15.2293 92.9113 15.542 93.3793 15.9265 93.7899C16.2574 94.1498 16.6501 94.4531 17.0899 94.6883C17.4575 94.8788 17.8538 95.0192 18.2678 95.1058C18.5875 95.1689 18.9134 95.2074 19.2427 95.2209C19.519 95.2326 19.7342 95.2114 19.881 95.2235C20.0278 95.2355 20.1258 95.24 20.1269 95.2655Z" fill="black"/>
<path opacity="0.2" d="M24.7068 109.323C24.717 109.345 24.6394 109.382 24.4923 109.428C24.276 109.493 24.055 109.539 23.8322 109.566C23.475 109.607 23.1166 109.606 22.7653 109.563C22.2911 109.516 21.8323 109.398 21.4058 109.213C20.8911 108.981 20.426 108.666 20.0296 108.282C19.5802 107.838 19.2085 107.326 18.9271 106.766C18.5909 106.138 18.4224 105.432 18.4358 104.708C18.4912 103.931 18.7475 103.166 19.1819 102.482C19.6059 101.806 20.1736 101.216 20.8457 100.753C21.4628 100.329 22.1425 99.9987 22.8578 99.7765C24.0498 99.4163 25.2918 99.2903 26.5061 99.4063C27.3061 99.4722 28.0924 99.6137 28.8535 99.8288C29.3867 99.9865 29.6669 100.111 29.6559 100.158C29.6449 100.205 29.3244 100.183 28.7717 100.113C27.997 100.01 27.2143 99.9487 26.4271 99.9288C25.2888 99.8947 24.1405 100.06 23.0392 100.417C22.4063 100.635 21.8057 100.94 21.2579 101.324C20.6834 101.736 20.1965 102.25 19.8269 102.836C19.4537 103.383 19.2332 104.005 19.1878 104.64C19.1424 105.275 19.2737 105.899 19.5684 106.45C19.804 106.958 20.1169 107.426 20.4978 107.842C20.8304 108.2 21.2229 108.503 21.6611 108.74C22.029 108.93 22.4263 109.069 22.8416 109.151C23.1604 109.218 23.4867 109.256 23.8164 109.266C24.0902 109.284 24.3034 109.259 24.4547 109.269C24.6061 109.279 24.7036 109.294 24.7068 109.323Z" fill="black"/>
<path opacity="0.2" d="M29.2894 123.375C29.2894 123.375 29.2073 123.415 29.0704 123.481C28.8535 123.544 28.6327 123.59 28.4102 123.62C28.0531 123.657 27.6952 123.656 27.3433 123.617C26.8701 123.571 26.4126 123.452 25.9884 123.264C25.4706 123.034 25.0042 122.718 24.6101 122.33C24.1578 121.889 23.7864 121.379 23.5097 120.818C23.1735 120.19 23.0035 119.485 23.0138 118.762C23.0675 117.984 23.3239 117.219 23.7599 116.536C24.1865 115.859 24.7546 115.267 25.4262 114.8C26.0433 114.376 26.723 114.046 27.4384 113.824C28.6291 113.465 29.8695 113.34 31.0821 113.456C31.8822 113.522 32.6685 113.663 33.4296 113.878C33.9673 114.034 34.2476 114.158 34.2299 114.203C34.2123 114.248 33.903 114.226 33.3523 114.16C32.5776 114.058 31.7949 113.996 31.0077 113.976C29.8694 113.94 28.7207 114.105 27.6198 114.465C26.9874 114.679 26.388 114.984 25.843 115.369C25.2666 115.778 24.7785 116.291 24.41 116.877C24.0424 117.452 23.8209 118.096 23.7643 118.752C23.7481 119.362 23.8814 119.959 24.1535 120.495C24.3853 121.004 24.6969 121.474 25.0783 121.889C25.4125 122.245 25.8058 122.545 26.2442 122.781C26.6103 122.974 27.007 123.115 27.4222 123.198C27.7415 123.263 28.0675 123.301 28.397 123.314C28.6687 123.327 28.8885 123.304 29.0353 123.316C29.1821 123.328 29.2838 123.352 29.2894 123.375Z" fill="black"/>
<path opacity="0.2" d="M33.861 137.416C33.8712 137.437 33.7936 137.475 33.6465 137.52C33.4306 137.585 33.2104 137.633 32.9884 137.663C32.6298 137.702 32.2703 137.701 31.9169 137.662C31.4445 137.613 30.9875 137.494 30.5619 137.31C30.0473 137.078 29.5822 136.764 29.1857 136.379C28.7334 135.939 28.362 135.429 28.0853 134.867C27.7483 134.239 27.5798 133.534 27.5939 132.81C27.645 132.03 27.9009 131.263 28.338 130.579C28.7708 129.906 29.3467 129.321 30.0257 128.865C30.6429 128.44 31.3225 128.11 32.0379 127.888C33.2304 127.531 34.4718 127.405 35.6862 127.518C36.4863 127.584 37.2726 127.725 38.0337 127.94C38.5669 128.098 38.8471 128.222 38.8316 128.271C38.816 128.321 38.5046 128.295 37.9519 128.225C37.177 128.123 36.3943 128.061 35.6072 128.04C34.4694 128.005 33.3212 128.172 32.2214 128.533C31.5886 128.746 30.9884 129.049 30.4425 129.433C29.868 129.845 29.3811 130.36 29.0115 130.945C28.6363 131.492 28.4148 132.116 28.3698 132.752C28.3247 133.387 28.4577 134.013 28.7551 134.563C28.9874 135.071 29.3 135.539 29.6824 135.951C30.0132 136.311 30.406 136.614 30.8458 136.849C31.215 137.039 31.6128 137.179 32.0283 137.265C32.3449 137.33 32.669 137.368 32.9965 137.378C33.2749 137.394 33.4881 137.368 33.6394 137.378C33.7908 137.388 33.8701 137.412 33.861 137.416Z" fill="black"/>
<path opacity="0.2" d="M38.4516 151.485C38.4638 151.51 38.3797 151.546 38.2325 151.591C38.0156 151.654 37.7949 151.7 37.5724 151.729C37.2152 151.769 36.8571 151.768 36.5055 151.727C36.0303 151.679 35.5708 151.559 35.1439 151.372C34.6294 151.141 34.1655 150.826 33.7722 150.439C33.3197 149.997 32.9476 149.486 32.6698 148.923C32.3293 148.297 32.1591 147.592 32.1739 146.868C32.2292 146.09 32.4856 145.325 32.92 144.642C33.3459 143.964 33.9141 143.372 34.5863 142.906C35.2034 142.481 35.8831 142.152 36.5985 141.929C37.7892 141.571 39.0296 141.445 40.2423 141.561C41.0423 141.627 41.8286 141.769 42.5897 141.984C43.1275 142.139 43.4077 142.264 43.3921 142.313C43.3765 142.362 43.0586 142.334 42.5079 142.268C41.7335 142.164 40.9507 142.102 40.1633 142.084C39.025 142.047 37.8763 142.213 36.7753 142.572C36.1415 142.788 35.5405 143.093 34.994 143.479C34.4188 143.887 33.9323 144.4 33.5655 144.984C33.1979 145.56 32.9764 146.204 32.9198 146.86C32.9042 147.47 33.0374 148.067 33.309 148.602C33.5409 149.112 33.8525 149.582 34.2339 149.997C34.5663 150.356 34.9606 150.659 35.4018 150.893C35.7671 151.085 36.1632 151.225 36.5777 151.306C36.911 151.376 37.252 151.418 37.5968 151.431C37.8685 151.445 38.0883 151.422 38.2351 151.434C38.3819 151.446 38.4459 151.461 38.4516 151.485Z" fill="black"/>
<path opacity="0.2" d="M43.0311 165.543C43.0413 165.564 42.9592 165.604 42.812 165.65C42.598 165.715 42.3792 165.762 42.1585 165.79C41.7999 165.827 41.4407 165.826 41.087 165.789C40.6139 165.738 40.1562 165.618 39.73 165.433C39.213 165.204 38.7473 164.889 38.3538 164.502C37.9016 164.062 37.5302 163.551 37.2534 162.99C36.9164 162.362 36.748 161.656 36.7621 160.932C36.8117 160.154 37.066 159.388 37.5016 158.704C37.9298 158.029 38.4985 157.439 39.1699 156.973C39.7871 156.548 40.4667 156.218 41.1821 155.996C42.3746 155.639 43.616 155.513 44.8304 155.626C45.6291 155.692 46.4139 155.835 47.1732 156.051C47.711 156.206 47.9912 156.331 47.9756 156.38C47.9601 156.429 47.6487 156.403 47.096 156.333C46.3209 156.232 45.5383 156.171 44.7514 156.149C43.6135 156.113 42.4654 156.28 41.3655 156.641C40.7332 156.856 40.1337 157.161 39.5888 157.545C39.0123 157.954 38.5243 158.468 38.1557 159.053C37.7881 159.629 37.5666 160.273 37.51 160.929C37.4964 161.539 37.6295 162.135 37.8993 162.671C38.1294 163.181 38.4421 163.649 38.8266 164.059C39.1574 164.419 39.5502 164.722 39.9899 164.958C40.3575 165.148 40.7538 165.289 41.1679 165.375C41.4875 165.438 41.8135 165.477 42.1428 165.49C42.4145 165.504 42.6322 165.476 42.779 165.489C42.9258 165.501 43.03 165.518 43.0311 165.543Z" fill="black"/>
<path opacity="0.2" d="M47.6094 179.597C47.6217 179.622 47.5421 179.656 47.395 179.701C47.1787 179.766 46.9576 179.813 46.7348 179.839C46.3762 179.881 46.0164 179.88 45.6633 179.839C45.191 179.789 44.7339 179.671 44.3084 179.486C43.7937 179.254 43.3286 178.94 42.9322 178.556C42.4831 178.111 42.1115 177.6 41.8297 177.04C41.4931 176.411 41.3246 175.706 41.3384 174.982C41.3938 174.204 41.6501 173.439 42.0845 172.756C42.5095 172.08 43.0761 171.489 43.7463 171.023C44.3634 170.598 45.043 170.268 45.7584 170.046C46.9504 169.686 48.1925 169.56 49.4067 169.676C50.2068 169.741 50.9931 169.883 51.7542 170.098C52.2874 170.256 52.5676 170.38 52.552 170.429C52.5364 170.479 52.223 170.448 51.6724 170.383C50.8977 170.28 50.115 170.218 49.3277 170.198C48.1878 170.162 47.0375 170.328 45.9353 170.689C45.303 170.903 44.7035 171.208 44.1585 171.593C43.5821 172.002 43.094 172.515 42.7255 173.101C42.3574 173.676 42.1373 174.319 42.0843 174.974C42.0677 175.585 42.1993 176.182 42.469 176.719C42.7045 177.227 43.0175 177.696 43.3983 178.111C43.731 178.469 44.1234 178.772 44.5617 179.009C44.9295 179.2 45.3269 179.338 45.7422 179.42C46.061 179.487 46.3872 179.525 46.717 179.536C46.9908 179.554 47.204 179.528 47.3553 179.538C47.5067 179.548 47.6083 179.571 47.6094 179.597Z" fill="black"/>
</g>
<path d="M114.543 33.8226L116.654 40.3022L128.295 36.2507L126.183 29.771L114.543 33.8226Z" fill="#4A27F3"/>
<path d="M108.108 42.5998C108.05 42.6349 107.989 42.6645 107.926 42.6884L107.369 42.9011L105.215 43.6658L97.2613 46.433L71.0044 55.4655L63.5154 58.0281C61.099 58.8573 58.7561 59.6405 56.5473 60.4211C54.4444 61.1247 52.4288 62.0785 50.5506 63.2589C48.8192 64.3961 47.2497 65.6109 45.5353 66.214C44.7287 66.5065 43.8807 66.6549 43.0359 66.6514C42.2412 66.6518 41.5061 66.5661 40.8184 66.5198C40.1825 66.4601 39.5382 66.4591 38.8943 66.5166C38.3577 66.5837 37.8311 66.7354 37.3364 66.9656C36.6351 67.2658 36.059 67.7958 35.719 68.4535C35.6185 68.6874 35.5471 68.9301 35.5061 69.1765C35.5035 69.112 35.5079 69.0471 35.5191 68.9827C35.525 68.9037 35.5397 68.825 35.563 68.7479C35.5879 68.64 35.6256 68.5344 35.6752 68.4331C36.0021 67.7492 36.5831 67.1935 37.3 66.8791C37.8043 66.636 38.3429 66.4732 38.8929 66.3975C39.5409 66.3213 40.1913 66.3037 40.8351 66.3451C41.5273 66.3892 42.2629 66.4643 43.0444 66.4598C43.8684 66.4545 44.6938 66.3045 45.4793 66.0173C47.1469 65.4109 48.6937 64.2071 50.4326 63.0507C52.3206 61.851 54.35 60.8818 56.4692 60.1674C58.6897 59.376 61.0235 58.5972 63.4403 57.7573L70.9171 55.1695L97.1955 46.2046L105.17 43.5157L107.345 42.7931L107.911 42.6121C107.977 42.601 108.043 42.5969 108.108 42.5998Z" fill="#263238"/>
<path d="M109.154 49.6678L108.985 49.7498L108.463 49.9406L106.449 50.6685L99.0332 53.2892L74.5357 61.8582L50.0101 70.3575L42.579 72.9232L40.5511 73.6003L40.021 73.7743C39.9612 73.7962 39.8999 73.8138 39.8379 73.8267C39.8918 73.7914 39.9501 73.7631 40.0112 73.7426L40.5311 73.5475L42.5411 72.8218L49.9614 70.1989L74.4654 61.632L98.9864 53.1349L106.418 50.5692L108.443 49.8878L108.974 49.7138C109.032 49.6908 109.093 49.6753 109.154 49.6678Z" fill="#263238"/>
<path d="M118.534 88.8296L118.374 88.9071L117.895 89.0822L115.976 89.7743L108.927 92.2688L85.6454 100.415L62.3189 108.504L55.2345 110.901L53.2969 111.555L52.8079 111.709L52.6339 111.757C52.6847 111.727 52.7382 111.701 52.7936 111.68L53.2703 111.501L55.1895 110.809L62.238 108.314L85.5267 100.17L108.837 92.094L115.909 89.6713L117.849 89.0214L118.336 88.8632C118.4 88.8415 118.467 88.8302 118.534 88.8296Z" fill="#263238"/>
<path d="M122.691 101.588L122.532 101.666L122.055 101.845L120.136 102.537L113.087 105.032L89.7986 113.175L66.4883 121.251L59.4162 123.674L57.4766 124.324L56.9896 124.482L56.8156 124.53C56.8671 124.497 56.9222 124.471 56.9799 124.45L57.4587 124.275L59.3778 123.583L66.4218 121.091L89.7105 112.947L113.014 104.869L120.103 102.47L122.041 101.816L122.53 101.662C122.582 101.633 122.636 101.608 122.691 101.588Z" fill="#263238"/>
<path d="M119.202 95.5605C119.151 95.591 119.098 95.6169 119.043 95.638L118.566 95.8174L116.694 96.4915L109.791 98.9364L86.9895 106.911L64.1665 114.818L57.2374 117.187L55.3521 117.821L54.8651 117.979L54.6957 118.025C54.7455 117.993 54.7992 117.967 54.8554 117.948L55.3341 117.773L57.2082 117.092L64.1071 114.649L86.9064 106.67L109.731 98.7674L116.654 96.3966L118.539 95.7626L119.028 95.6085L119.202 95.5605Z" fill="#263238"/>
<path d="M88.2629 119.919C88.1723 119.975 88.0759 120.022 87.9754 120.058L87.1219 120.379L83.9596 121.518L73.5103 125.195L63.0373 128.8L59.8534 129.871L58.984 130.147C58.8836 130.185 58.7798 130.213 58.6745 130.23C58.7646 130.173 58.8611 130.126 58.962 130.09L59.8201 129.768L62.9758 128.626L73.4237 124.982L83.8864 121.356L87.0723 120.288L87.9397 120.008C88.044 119.966 88.1525 119.936 88.2629 119.919Z" fill="#263238"/>
<path d="M51.295 76.0705C51.3236 76.1294 48.8542 77.0469 45.8023 78.1117C42.7505 79.1765 40.2594 79.9795 40.2398 79.9161C40.2203 79.8527 42.674 78.9377 45.7279 77.8771C48.7818 76.8165 51.2688 76.005 51.295 76.0705Z" fill="#263238"/>
<path d="M116.259 81.8429C116.209 81.8751 116.156 81.9012 116.099 81.9204L115.623 82.0997C115.201 82.2525 114.579 82.4814 113.788 82.7923C112.998 83.1031 112.025 83.4919 110.91 83.96C109.796 84.4282 108.526 84.9716 107.126 85.5834C104.333 86.7985 101.025 88.3106 97.306 89.871C95.4318 90.6558 93.4815 91.4463 91.4004 92.1648C89.3193 92.8834 87.1624 93.5503 84.9457 94.2566L62.2838 101.555L55.4053 103.737L53.5335 104.318L53.0404 104.464C52.9866 104.484 52.9303 104.498 52.8735 104.503L53.0286 104.428L53.5115 104.261L55.372 103.634L62.2222 101.381L84.8708 94.0326C87.0793 93.3095 89.2595 92.6209 91.3255 91.9409C93.3915 91.2609 95.3544 90.4382 97.217 89.6643C100.935 88.1145 104.249 86.6257 107.049 85.4127C108.45 84.8157 109.722 84.2765 110.85 83.823C111.977 83.3695 112.942 82.9893 113.746 82.6931C114.549 82.3969 115.184 82.172 115.601 82.0427L116.088 81.8845C116.144 81.8673 116.201 81.8534 116.259 81.8429Z" fill="#263238"/>
</g>
</svg>
