<svg width="346" height="231" viewBox="0 0 346 231" fill="none" xmlns="http://www.w3.org/2000/svg">
<path d="M263.283 153.957C263.283 153.957 256.474 159.15 262.997 166.015C263.052 166.073 263.119 166.119 263.193 166.15C263.266 166.181 263.346 166.197 263.426 166.195L322.933 165.858C322.933 165.858 328.008 160.152 323.796 153.578L263.283 153.957Z" fill="#EBEBEB"/>
<path d="M309.767 159.39C309.767 159.455 302.358 159.51 293.223 159.51C284.089 159.51 276.68 159.455 276.68 159.39C276.68 159.325 284.061 159.27 293.223 159.27C302.385 159.27 309.767 159.311 309.767 159.39Z" fill="#E0E0E0"/>
<path d="M300.513 161.534C300.513 161.598 297.034 161.654 292.735 161.654C288.435 161.654 284.957 161.598 284.957 161.534C284.957 161.469 288.44 161.414 292.735 161.414C297.03 161.414 300.513 161.469 300.513 161.534Z" fill="#E0E0E0"/>
<path d="M315.847 165.659C315.81 165.659 315.981 164.976 316.165 163.871C316.402 162.435 316.516 160.98 316.507 159.524C316.49 158.068 316.348 156.617 316.082 155.186C315.879 154.086 315.695 153.416 315.732 153.402C315.811 153.548 315.87 153.703 315.907 153.864C316.004 154.16 316.124 154.604 316.248 155.153C316.885 158.033 316.913 161.013 316.331 163.904C316.216 164.454 316.105 164.897 316.013 165.197C315.978 165.358 315.923 165.513 315.847 165.659Z" fill="#E0E0E0"/>
<path d="M320.29 153.495C320.394 153.629 320.482 153.774 320.553 153.929C320.653 154.1 320.742 154.278 320.82 154.46C320.912 154.673 321.028 154.922 321.12 155.19C321.363 155.833 321.553 156.494 321.687 157.168C321.849 157.993 321.935 158.831 321.946 159.672C321.948 160.514 321.876 161.355 321.729 162.185C321.603 162.86 321.425 163.525 321.194 164.172C321.106 164.449 320.991 164.689 320.903 164.902C320.828 165.087 320.742 165.267 320.645 165.442C320.579 165.598 320.492 165.744 320.386 165.876C320.345 165.876 320.677 165.216 321.032 164.116C321.231 163.472 321.385 162.814 321.494 162.148C321.622 161.331 321.687 160.504 321.687 159.676C321.675 158.849 321.596 158.024 321.452 157.209C321.33 156.544 321.16 155.887 320.945 155.246C320.589 154.151 320.248 153.513 320.29 153.495Z" fill="#E0E0E0"/>
<path d="M272.648 165.738C272.54 165.617 272.447 165.484 272.371 165.34C272.267 165.181 272.174 165.014 272.094 164.841C271.976 164.62 271.87 164.391 271.776 164.158C271.525 163.55 271.331 162.921 271.195 162.277C271.039 161.488 270.961 160.685 270.964 159.88C270.984 159.074 271.083 158.273 271.259 157.486C271.413 156.852 271.625 156.234 271.891 155.638C271.989 155.405 272.101 155.178 272.228 154.959C272.313 154.789 272.41 154.626 272.519 154.47C272.597 154.328 272.693 154.198 272.805 154.082C272.846 154.082 272.464 154.682 272.048 155.703C271.806 156.302 271.615 156.92 271.476 157.551C271.135 159.097 271.113 160.695 271.412 162.25C271.535 162.879 271.709 163.497 271.933 164.098C272.344 165.128 272.708 165.715 272.648 165.738Z" fill="#E0E0E0"/>
<path d="M266.245 167.193C266.126 167.051 266.024 166.896 265.94 166.731C265.824 166.551 265.719 166.365 265.626 166.172C265.52 165.946 265.382 165.71 265.266 165.405C264.981 164.723 264.754 164.019 264.588 163.298C264.392 162.416 264.279 161.518 264.252 160.614C264.24 159.709 264.313 158.804 264.468 157.912C264.601 157.186 264.797 156.473 265.054 155.782C265.156 155.481 265.28 155.227 265.382 154.996C265.465 154.8 265.561 154.608 265.668 154.423C265.743 154.258 265.839 154.102 265.954 153.961C265.995 153.961 265.612 154.659 265.216 155.837C264.985 156.526 264.808 157.232 264.685 157.948C264.545 158.827 264.48 159.716 264.491 160.605C264.519 161.495 264.624 162.381 264.805 163.252C264.957 163.963 265.164 164.661 265.423 165.34C265.875 166.509 266.286 167.17 266.245 167.193Z" fill="#E0E0E0"/>
<path d="M320.732 183.991V195.394H298.704V183.991H320.732Z" fill="#EBEBEB"/>
<path d="M249.581 189.799V190.099C249.687 191.763 250.425 193.324 251.643 194.461C252.861 195.599 254.467 196.226 256.132 196.216H321.734V195.394H306.187C304.677 195.394 303.229 194.793 302.161 193.724C301.094 192.655 300.494 191.205 300.494 189.693C300.494 188.18 301.094 186.73 302.161 185.661C303.229 184.592 304.677 183.991 306.187 183.991H321.757V182.781L256.137 183.003C255.256 183.003 254.385 183.182 253.575 183.526C252.765 183.871 252.032 184.375 251.421 185.009C250.809 185.643 250.331 186.394 250.015 187.217C249.699 188.04 249.551 188.918 249.581 189.799Z" fill="#E0E0E0"/>
<path d="M320.733 189.845C320.733 189.91 316.202 189.965 310.616 189.965C305.029 189.965 300.503 189.91 300.503 189.845C300.503 189.78 305.029 189.725 310.616 189.725C316.202 189.725 320.733 189.78 320.733 189.845Z" fill="#E0E0E0"/>
<path d="M320.414 192.414C320.414 192.478 316.129 192.534 310.842 192.534C305.555 192.534 301.269 192.478 301.269 192.414C301.269 192.349 305.555 192.294 310.842 192.294C316.129 192.294 320.414 192.349 320.414 192.414Z" fill="#E0E0E0"/>
<path d="M320.733 194.765C320.733 194.83 316.881 194.885 312.129 194.885C307.377 194.885 303.52 194.83 303.52 194.765C303.52 194.701 307.372 194.641 312.129 194.641C316.885 194.641 320.733 194.696 320.733 194.765Z" fill="#E0E0E0"/>
<path d="M320.733 187.535C320.733 187.604 316.295 187.655 310.823 187.655C305.352 187.655 300.914 187.604 300.914 187.535C300.914 187.466 305.352 187.415 310.823 187.415C316.295 187.415 320.733 187.47 320.733 187.535Z" fill="#E0E0E0"/>
<path d="M320.414 185.23C320.414 185.294 316.465 185.35 311.594 185.35C306.722 185.35 302.773 185.294 302.773 185.23C302.773 185.165 306.722 185.11 311.594 185.11C316.465 185.11 320.414 185.16 320.414 185.23Z" fill="#E0E0E0"/>
<path d="M257.539 183.197C257.037 183.714 256.575 184.269 256.155 184.855C255.159 186.294 254.635 188.007 254.656 189.757C254.676 191.507 255.241 193.208 256.271 194.622C256.707 195.198 257.185 195.742 257.701 196.248C257.533 196.153 257.378 196.037 257.239 195.902C256.833 195.549 256.465 195.154 256.141 194.724C255.05 193.298 254.449 191.557 254.428 189.76C254.407 187.964 254.968 186.209 256.026 184.758C256.337 184.321 256.695 183.918 257.092 183.557C257.224 183.417 257.374 183.296 257.539 183.197Z" fill="#F5F5F5"/>
<path d="M255.32 182.952C254.818 183.47 254.356 184.024 253.936 184.611C252.943 186.051 252.421 187.764 252.441 189.515C252.462 191.265 253.025 192.966 254.052 194.382C254.489 194.959 254.968 195.502 255.486 196.008C255.319 195.91 255.164 195.792 255.025 195.657C254.618 195.305 254.25 194.91 253.927 194.479C252.835 193.053 252.234 191.312 252.214 189.515C252.193 187.719 252.753 185.964 253.812 184.514C254.124 184.077 254.481 183.675 254.877 183.312C255.009 183.174 255.158 183.053 255.32 182.952Z" fill="#F5F5F5"/>
<path d="M299.894 183.197C299.394 183.716 298.931 184.27 298.51 184.855C297.517 186.295 296.994 188.008 297.015 189.757C297.036 191.507 297.598 193.207 298.625 194.622C299.063 195.199 299.542 195.742 300.06 196.248C299.891 196.155 299.736 196.038 299.599 195.902C299.193 195.55 298.827 195.155 298.506 194.724C297.413 193.298 296.811 191.557 296.79 189.761C296.768 187.965 297.328 186.209 298.386 184.758C298.697 184.319 299.056 183.917 299.456 183.557C299.585 183.418 299.733 183.297 299.894 183.197Z" fill="#F5F5F5"/>
<path d="M297.68 182.952C297.179 183.47 296.716 184.025 296.296 184.611C295.303 186.051 294.78 187.764 294.801 189.515C294.822 191.265 295.384 192.966 296.411 194.382C296.85 194.957 297.33 195.501 297.846 196.008C297.679 195.91 297.524 195.792 297.385 195.657C296.978 195.306 296.611 194.911 296.291 194.479C295.199 193.054 294.597 191.313 294.575 189.516C294.554 187.72 295.114 185.965 296.171 184.514C296.484 184.076 296.843 183.673 297.242 183.312C297.371 183.173 297.518 183.052 297.68 182.952Z" fill="#F5F5F5"/>
<path d="M265.003 191.402L264.944 186.782C264.963 186.377 264.908 185.971 264.782 185.585C264.715 185.394 264.598 185.224 264.443 185.093C264.288 184.962 264.101 184.876 263.901 184.842C263.32 184.588 262.415 185.068 262.014 185.738C261.659 186.44 261.5 187.226 261.553 188.011C261.543 189.233 261.603 190.455 261.733 191.67C261.757 192.253 261.903 192.824 262.162 193.347C262.295 193.606 262.497 193.823 262.747 193.973C262.996 194.123 263.282 194.201 263.573 194.197C263.858 194.147 264.123 194.019 264.34 193.829C264.557 193.638 264.718 193.392 264.805 193.116C264.978 192.562 265.045 191.981 265.003 191.402Z" fill="#F5F5F5"/>
<path d="M290.483 190.067C290.483 190.136 285.741 190.187 279.872 190.187C274.004 190.187 269.262 190.136 269.262 190.067C269.262 189.997 274.004 189.947 279.872 189.947C285.741 189.947 290.483 190.002 290.483 190.067Z" fill="#F5F5F5"/>
<path d="M260.612 182.74L260.487 171.933H266.365L266.568 182.74H260.612Z" fill="#F5F5F5"/>
<path d="M266.014 173.855C264.198 174.015 262.372 174.015 260.556 173.855C262.372 173.695 264.198 173.695 266.014 173.855Z" fill="#E0E0E0"/>
<path d="M266.014 175.523C264.198 175.683 262.372 175.683 260.556 175.523C262.372 175.363 264.198 175.363 266.014 175.523Z" fill="#E0E0E0"/>
<path d="M266.014 177.191C264.198 177.351 262.372 177.351 260.556 177.191C262.372 177.031 264.198 177.031 266.014 177.191Z" fill="#E0E0E0"/>
<path d="M266.014 178.859C264.198 179.019 262.372 179.019 260.556 178.859C262.372 178.698 264.198 178.698 266.014 178.859Z" fill="#E0E0E0"/>
<path d="M266.014 180.526C264.198 180.687 262.372 180.687 260.556 180.526C262.372 180.366 264.198 180.366 266.014 180.526Z" fill="#E0E0E0"/>
<path d="M260.192 171.647H325.277C326.08 175.227 325.969 179.164 325.277 183.326H260.455V182.532H264.418C264.662 182.535 264.905 182.489 265.131 182.398C265.358 182.306 265.564 182.17 265.738 181.999C265.912 181.827 266.05 181.622 266.144 181.396C266.238 181.17 266.286 180.928 266.286 180.684V174.216C266.287 173.969 266.239 173.726 266.145 173.498C266.052 173.271 265.914 173.064 265.741 172.89C265.567 172.715 265.361 172.577 265.134 172.483C264.907 172.388 264.664 172.34 264.418 172.34H260.192V171.647Z" fill="#EBEBEB"/>
<path d="M275.568 177.496H276.652C276.694 177.495 276.735 177.505 276.772 177.523C276.809 177.543 276.839 177.572 276.86 177.608C276.88 177.644 276.89 177.685 276.888 177.727C276.89 177.75 276.89 177.773 276.888 177.796C276.888 177.888 276.841 177.981 276.814 178.078C276.683 178.534 276.452 178.954 276.136 179.307C276.022 179.443 275.881 179.554 275.722 179.634C275.564 179.713 275.39 179.759 275.213 179.769H275.084C274.929 179.741 274.782 179.678 274.654 179.585C274.526 179.492 274.421 179.372 274.346 179.233C274.116 178.837 274.002 178.383 274.018 177.925C274.019 177.613 274.063 177.302 274.147 177.001C274.264 176.537 274.485 176.106 274.793 175.74C274.908 175.587 275.056 175.461 275.225 175.371C275.393 175.281 275.58 175.228 275.771 175.218C275.913 175.218 276.053 175.249 276.182 175.31C276.489 175.482 276.718 175.767 276.818 176.105C276.825 176.142 276.825 176.179 276.818 176.216C276.819 176.257 276.808 176.297 276.786 176.331C276.767 176.367 276.738 176.397 276.703 176.418C276.668 176.438 276.628 176.448 276.588 176.447H276.514C276.479 176.437 276.447 176.418 276.421 176.392C276.395 176.366 276.376 176.334 276.366 176.299C276.334 176.208 276.29 176.121 276.237 176.04C276.184 175.949 276.108 175.872 276.017 175.818C275.925 175.764 275.822 175.734 275.716 175.731C275.585 175.734 275.459 175.779 275.356 175.86C275.084 176.085 274.88 176.381 274.765 176.715C274.598 177.101 274.51 177.518 274.507 177.939C274.495 178.271 274.558 178.601 274.692 178.905C274.732 179.025 274.808 179.129 274.91 179.205C275.011 179.281 275.133 179.325 275.259 179.33C275.363 179.316 275.464 179.281 275.554 179.227C275.645 179.173 275.723 179.101 275.785 179.016C276.037 178.719 276.227 178.375 276.343 178.004C275.845 178.004 275.582 178.004 275.564 178.004C275.393 177.976 275.305 177.888 275.305 177.741C275.299 177.715 275.299 177.688 275.305 177.662C275.323 177.608 275.359 177.562 275.407 177.532C275.455 177.501 275.512 177.489 275.568 177.496Z" fill="#FAFAFA"/>
<path d="M279.263 175.371C279.274 175.396 279.283 175.422 279.291 175.449C279.337 175.611 279.596 176.955 280.061 179.492C280.064 179.51 280.064 179.529 280.061 179.547C280.062 179.589 280.051 179.631 280.029 179.667C280.011 179.703 279.984 179.734 279.949 179.755C279.915 179.776 279.876 179.787 279.835 179.787H279.799C279.756 179.782 279.715 179.763 279.683 179.735C279.651 179.706 279.629 179.668 279.619 179.626L279.36 178.286H278.022L277.377 179.635C277.378 179.649 277.378 179.663 277.377 179.676C277.354 179.71 277.324 179.739 277.289 179.759C277.254 179.779 277.214 179.79 277.174 179.792C277.129 179.792 277.086 179.779 277.049 179.755C277.015 179.734 276.987 179.705 276.968 179.67C276.948 179.635 276.938 179.596 276.938 179.556C276.934 179.533 276.934 179.51 276.938 179.487C276.975 179.395 277.044 179.247 277.137 179.025C278.059 176.98 278.619 175.772 278.816 175.403C278.827 175.353 278.854 175.308 278.892 175.274C278.931 175.24 278.979 175.219 279.03 175.214C279.081 175.209 279.132 175.22 279.177 175.245C279.221 175.271 279.256 175.31 279.277 175.357L279.263 175.371ZM278.973 176.295L278.248 177.815H279.268L278.973 176.295Z" fill="#FAFAFA"/>
<path d="M282.894 179.787H280.952C280.907 179.787 280.864 179.774 280.827 179.75C280.792 179.719 280.764 179.68 280.744 179.637C280.724 179.595 280.713 179.548 280.712 179.501C280.712 179.422 280.896 178.078 281.256 175.477C281.254 175.449 281.254 175.421 281.256 175.394C281.272 175.35 281.3 175.312 281.338 175.286C281.376 175.259 281.422 175.245 281.468 175.246C281.507 175.246 281.545 175.255 281.579 175.274C281.617 175.293 281.649 175.322 281.67 175.359C281.692 175.396 281.702 175.439 281.699 175.481C281.699 175.662 281.639 176.027 281.565 176.586C281.344 178.3 281.224 179.21 281.215 179.302H282.885C282.926 179.296 282.968 179.296 283.009 179.302C283.054 179.319 283.092 179.349 283.119 179.389C283.146 179.429 283.159 179.476 283.157 179.524C283.159 179.549 283.159 179.573 283.157 179.598C283.138 179.653 283.103 179.701 283.056 179.735C283.009 179.769 282.952 179.787 282.894 179.787Z" fill="#FAFAFA"/>
<path d="M285.565 175.371C285.576 175.396 285.585 175.422 285.593 175.449C285.639 175.611 285.893 176.955 286.359 179.492C286.363 179.51 286.363 179.529 286.359 179.547C286.359 179.589 286.348 179.631 286.326 179.667C286.308 179.703 286.281 179.734 286.246 179.755C286.212 179.776 286.173 179.787 286.133 179.787H286.096C286.053 179.782 286.013 179.763 285.98 179.735C285.948 179.706 285.926 179.668 285.916 179.626L285.657 178.286H284.319L283.72 179.63C283.714 179.645 283.706 179.659 283.697 179.672C283.675 179.706 283.646 179.734 283.612 179.754C283.577 179.774 283.538 179.785 283.498 179.787C283.453 179.786 283.408 179.774 283.369 179.75C283.336 179.729 283.309 179.699 283.291 179.665C283.272 179.63 283.263 179.591 283.263 179.552C283.259 179.529 283.259 179.505 283.263 179.482L283.461 179.02C284.384 176.974 284.961 175.786 285.141 175.398C285.159 175.352 285.189 175.312 285.23 175.284C285.27 175.255 285.317 175.239 285.367 175.237C285.408 175.24 285.448 175.255 285.483 175.278C285.518 175.302 285.546 175.333 285.565 175.371ZM285.27 176.295L284.55 177.815H285.565L285.27 176.295Z" fill="#FAFAFA"/>
<path d="M288.702 177.69L289.058 178.674C289.26 179.231 289.362 179.527 289.362 179.561C289.361 179.591 289.355 179.621 289.343 179.649C289.331 179.677 289.313 179.702 289.291 179.723C289.269 179.744 289.244 179.76 289.215 179.771C289.187 179.783 289.157 179.788 289.127 179.787C289.082 179.784 289.04 179.768 289.005 179.739C288.97 179.711 288.945 179.673 288.933 179.63L288.896 179.529C288.788 179.285 288.613 178.823 288.37 178.143L287.263 179.663C287.24 179.697 287.209 179.727 287.173 179.748C287.137 179.77 287.097 179.783 287.055 179.787C287.012 179.788 286.969 179.776 286.931 179.755C286.896 179.735 286.867 179.706 286.847 179.671C286.828 179.636 286.818 179.596 286.82 179.556C286.82 179.556 286.82 179.524 286.82 179.51C286.845 179.44 286.884 179.375 286.935 179.321C287.307 178.834 287.72 178.26 288.172 177.597C288.121 177.468 288.079 177.343 288.033 177.228C287.618 176.105 287.411 175.528 287.411 175.491C287.41 175.449 287.42 175.408 287.438 175.371C287.455 175.335 287.482 175.305 287.516 175.285C287.549 175.264 287.588 175.254 287.627 175.255C287.673 175.253 287.718 175.265 287.757 175.288C287.796 175.311 287.828 175.344 287.849 175.384L288.504 177.154L289.809 175.366C289.834 175.333 289.865 175.306 289.901 175.287C289.937 175.268 289.976 175.257 290.017 175.255C290.048 175.254 290.078 175.26 290.106 175.272C290.134 175.283 290.159 175.301 290.18 175.323C290.201 175.346 290.217 175.372 290.227 175.401C290.237 175.43 290.241 175.46 290.239 175.491C290.246 175.527 290.246 175.565 290.239 175.602L288.702 177.69Z" fill="#FAFAFA"/>
<path d="M293.56 175.269C293.597 175.269 293.633 175.279 293.666 175.297C293.703 175.315 293.735 175.343 293.757 175.378C293.779 175.413 293.79 175.454 293.791 175.495C293.472 178.036 293.292 179.408 293.26 179.616C293.205 180.001 293.062 180.369 292.84 180.688C292.628 180.984 292.316 181.193 291.962 181.278C291.608 181.363 291.235 181.318 290.912 181.15C290.618 181.035 290.373 180.821 290.22 180.545C290.201 180.509 290.192 180.47 290.192 180.429C290.191 180.389 290.203 180.348 290.224 180.314C290.244 180.278 290.272 180.248 290.307 180.227C290.342 180.205 290.382 180.194 290.423 180.194C290.458 180.195 290.493 180.205 290.524 180.222C290.555 180.239 290.582 180.262 290.603 180.291C290.712 180.46 290.86 180.601 291.035 180.701C291.211 180.801 291.407 180.856 291.608 180.864C291.76 180.862 291.908 180.825 292.044 180.757C292.179 180.689 292.296 180.591 292.388 180.471C292.654 180.112 292.806 179.68 292.822 179.233C292.743 179.352 292.645 179.457 292.531 179.542C292.327 179.693 292.079 179.774 291.825 179.773H291.696C291.539 179.746 291.391 179.683 291.262 179.59C291.132 179.498 291.025 179.377 290.949 179.238C290.72 178.839 290.608 178.384 290.626 177.925C290.626 177.69 290.626 177.463 290.658 177.191C290.695 176.794 290.783 176.23 290.921 175.495C290.917 175.474 290.917 175.452 290.921 175.431C290.93 175.398 290.946 175.368 290.968 175.342C290.991 175.317 291.019 175.297 291.05 175.285C291.081 175.272 291.115 175.267 291.149 175.27C291.183 175.273 291.215 175.284 291.244 175.301C291.279 175.318 291.308 175.344 291.328 175.377C291.349 175.41 291.36 175.447 291.359 175.486C291.359 175.606 291.322 175.906 291.253 176.382C291.174 176.841 291.121 177.304 291.096 177.768C291.085 178.132 291.145 178.495 291.272 178.836C291.405 179.154 291.599 179.298 291.853 179.298C291.879 179.302 291.905 179.302 291.931 179.298C292.177 179.221 292.386 179.057 292.517 178.836C292.751 178.51 292.917 178.141 293.006 177.75L293.302 175.509C293.306 175.476 293.315 175.443 293.329 175.412C293.346 175.366 293.377 175.326 293.419 175.3C293.461 175.274 293.511 175.263 293.56 175.269Z" fill="#FAFAFA"/>
<path d="M322.832 183.479C322.767 183.479 322.712 180.794 322.712 177.473C322.712 174.151 322.767 171.467 322.832 171.467C322.897 171.467 322.953 174.151 322.953 177.473C322.953 180.794 322.897 183.479 322.832 183.479Z" fill="#F5F5F5"/>
<path d="M269.562 183.479C269.493 183.479 269.442 180.794 269.442 177.473C269.442 174.151 269.493 171.467 269.562 171.467C269.632 171.467 269.682 174.151 269.682 177.473C269.682 180.794 269.627 183.479 269.562 183.479Z" fill="#E0E0E0"/>
<path d="M323.972 183.479C323.907 183.479 323.851 180.794 323.851 177.473C323.851 174.151 323.907 171.467 323.972 171.467C324.036 171.467 324.097 174.151 324.097 177.473C324.097 180.794 324.041 183.479 323.972 183.479Z" fill="#F5F5F5"/>
<path d="M268.496 183.479C268.431 183.479 268.376 180.794 268.376 177.473C268.376 174.151 268.431 171.467 268.496 171.467C268.561 171.467 268.617 174.151 268.617 177.473C268.617 180.794 268.561 183.479 268.496 183.479Z" fill="#E0E0E0"/>
<path d="M307.045 173.467L313.928 179.011L313.988 179.062H313.91L312.987 179.302L307.179 180.831H307.156L301.887 178.595L300.397 177.958L300.005 177.787L299.904 177.741H299.871H299.908L300.01 177.782L300.407 177.944L301.906 178.563L307.184 180.771H307.161L312.969 179.256L313.891 179.016V179.085L307.022 173.504" fill="#E0E0E0"/>
<path d="M313.296 178.143L313.67 178.494L314.173 178.387L313.951 178.854L314.214 179.298L313.702 179.233L313.361 179.616L313.264 179.113L312.789 178.905L313.241 178.655L313.296 178.143Z" fill="#E0E0E0"/>
<path d="M306.694 180.332L306.953 180.545L307.271 180.457L307.146 180.767L307.331 181.044L306.999 181.021L306.796 181.284L306.713 180.961L306.399 180.845L306.68 180.665L306.694 180.332Z" fill="#E0E0E0"/>
<path d="M299.405 177.339L299.811 177.362L300.065 177.038L300.166 177.436L300.554 177.579L300.208 177.796L300.189 178.207L299.876 177.948L299.484 178.059L299.631 177.676L299.405 177.339Z" fill="#E0E0E0"/>
<path d="M316.378 173.555L316.788 173.583L317.042 173.259L317.144 173.657L317.526 173.8L317.18 174.017L317.167 174.428L316.853 174.165L316.456 174.28L316.608 173.897L316.378 173.555Z" fill="#E0E0E0"/>
<path d="M306.713 173.287L306.976 173.306L307.133 173.098L307.202 173.352L307.446 173.444L307.225 173.583L307.216 173.841L307.013 173.675L306.764 173.749L306.86 173.504L306.713 173.287Z" fill="#E0E0E0"/>
<path d="M316.936 173.841C316.936 173.869 314.708 173.795 311.963 173.68C309.218 173.564 306.994 173.444 306.999 173.416C307.003 173.389 309.222 173.463 311.967 173.583C314.712 173.703 316.936 173.818 316.936 173.841Z" fill="#E0E0E0"/>
<path d="M319.455 171.545H253.429C252.566 169.582 252.354 167.715 253.429 166.043H319.455C319.863 166.902 320.075 167.842 320.075 168.794C320.075 169.746 319.863 170.686 319.455 171.545Z" fill="#E0E0E0"/>
<path d="M302.87 167.614H267.103V169.619H302.87V167.614Z" fill="#EBEBEB"/>
<path d="M255.961 171.578C255.743 171.393 255.565 171.165 255.44 170.908C255.104 170.307 254.9 169.642 254.84 168.956C254.781 168.27 254.867 167.58 255.094 166.93C255.167 166.653 255.303 166.397 255.491 166.181C255.428 166.452 255.35 166.719 255.256 166.981C255.081 167.616 255.021 168.278 255.08 168.935C255.14 169.591 255.313 170.232 255.592 170.829C255.733 171.07 255.856 171.32 255.961 171.578Z" fill="#E0E0E0"/>
<path d="M257.392 171.578C257.174 171.393 256.996 171.165 256.871 170.908C256.533 170.308 256.327 169.643 256.266 168.957C256.206 168.271 256.292 167.58 256.52 166.93C256.598 166.655 256.733 166.4 256.917 166.181C256.857 166.453 256.778 166.72 256.681 166.981C256.511 167.617 256.452 168.278 256.506 168.935C256.564 169.592 256.739 170.234 257.023 170.829C257.163 171.07 257.287 171.32 257.392 171.578Z" fill="#E0E0E0"/>
<path d="M316.784 171.448C317.389 169.705 317.399 167.81 316.811 166.061C317.299 166.873 317.534 167.813 317.485 168.759C317.518 169.705 317.275 170.64 316.784 171.448Z" fill="#F5F5F5"/>
<path d="M315.552 171.434C315.483 171.434 315.76 170.256 315.75 168.796C315.741 167.336 315.474 166.181 315.548 166.163C316.135 167.871 316.135 169.726 315.548 171.434H315.552Z" fill="#F5F5F5"/>
<path d="M287.749 44.5012L282.48 44.5298L282.622 70.771L287.89 70.7425L287.749 44.5012Z" fill="#E0E0E0"/>
<path d="M250.705 43.4231L237.068 43.5597L237.213 58.048L250.85 57.9114L250.705 43.4231Z" fill="#EBEBEB"/>
<path d="M264.069 44.5003L250.432 44.5742L250.51 59.0623L264.147 58.9884L264.069 44.5003Z" fill="#F5F5F5"/>
<path d="M236.876 48.6624C245.937 48.7363 255.025 48.6624 264.095 48.5377C264.129 48.5316 264.16 48.5136 264.182 48.487C264.204 48.4604 264.216 48.4268 264.216 48.3921C264.216 48.3574 264.204 48.3239 264.182 48.2973C264.16 48.2706 264.129 48.2527 264.095 48.2466C255.028 48.1943 245.955 48.2497 236.876 48.4129C236.843 48.4129 236.811 48.4261 236.788 48.4495C236.765 48.4729 236.751 48.5046 236.751 48.5377C236.751 48.5708 236.765 48.6025 236.788 48.6259C236.811 48.6493 236.843 48.6624 236.876 48.6624Z" fill="#E0E0E0"/>
<path d="M253.134 58.8214L228.357 58.9557L228.42 70.7642L253.198 70.63L253.134 58.8214Z" fill="#EBEBEB"/>
<path d="M277.792 58.6831L253.014 58.8174L253.078 70.6213L277.856 70.487L277.792 58.6831Z" fill="#F5F5F5"/>
<path d="M228.36 62.2499C244.82 62.4347 261.336 62.2499 277.796 62.005C277.83 61.9989 277.861 61.981 277.884 61.9544C277.906 61.9278 277.918 61.8942 277.918 61.8595C277.918 61.8248 277.906 61.7912 277.884 61.7646C277.861 61.738 277.83 61.7201 277.796 61.714C261.336 61.6262 244.816 61.6354 228.36 62.0004C228.327 62.0004 228.295 62.0135 228.272 62.0369C228.248 62.0603 228.235 62.0921 228.235 62.1251C228.235 62.1582 228.248 62.1899 228.272 62.2133C228.295 62.2367 228.327 62.2499 228.36 62.2499Z" fill="#E0E0E0"/>
<path d="M315.095 70.7738H219.101V75.0057H315.095V70.7738Z" fill="#E0E0E0"/>
<path d="M238.717 72.8065H234.819V87.2394H238.717V72.8065Z" fill="#E0E0E0"/>
<path d="M296.891 72.8065H292.993V87.2394H296.891V72.8065Z" fill="#E0E0E0"/>
<path d="M293.054 33.3698L287.785 33.4226L288.146 69.514L293.414 69.4613L293.054 33.3698Z" fill="#EBEBEB"/>
<path d="M301.115 41.4351L292.931 41.4795L293.089 70.7283L301.273 70.6839L301.115 41.4351Z" fill="#F5F5F5"/>
<path d="M301.057 47.0871C301.057 47.1656 299.212 47.2257 296.965 47.2257C294.718 47.2257 292.873 47.1656 292.873 47.0871C292.873 47.0085 294.718 46.9438 296.965 46.9438C299.212 46.9438 301.057 47.0085 301.057 47.0871Z" fill="#E0E0E0"/>
<path d="M301.057 45.8581C301.057 45.9366 299.212 46.0013 296.965 46.0013C294.718 46.0013 292.873 45.9366 292.873 45.8581C292.873 45.7795 294.718 45.7148 296.965 45.7148C299.212 45.7148 301.057 45.7795 301.057 45.8581Z" fill="#E0E0E0"/>
<path d="M301.057 66.2969C301.057 66.3755 299.212 66.4402 296.965 66.4402C294.718 66.4402 292.873 66.3755 292.873 66.2969C292.873 66.2184 294.718 66.1583 296.965 66.1583C299.212 66.1583 301.057 66.2184 301.057 66.2969Z" fill="#E0E0E0"/>
<path d="M301.057 65.068C301.057 65.1466 299.212 65.2113 296.965 65.2113C294.718 65.2113 292.873 65.1466 292.873 65.068C295.598 64.8832 298.332 64.8832 301.057 65.068Z" fill="#E0E0E0"/>
<path d="M297.099 62.3699C297.02 62.3699 296.955 59.4178 296.955 55.7818C296.955 52.1459 297.02 49.1891 297.099 49.1891C297.177 49.1891 297.238 52.1413 297.238 55.7818C297.238 59.4224 297.177 62.3699 297.099 62.3699Z" fill="#E0E0E0"/>
<path d="M310.053 48.6348H301.145V70.7138H310.053V48.6348Z" fill="#EBEBEB"/>
<path d="M291.687 40.8962C291.687 41.1961 291.598 41.4893 291.432 41.7386C291.265 41.9879 291.029 42.1821 290.752 42.2967C290.475 42.4112 290.171 42.441 289.877 42.3821C289.583 42.3233 289.314 42.1785 289.102 41.9661C288.891 41.7537 288.747 41.4833 288.689 41.189C288.631 40.8948 288.662 40.5899 288.777 40.3131C288.892 40.0363 289.087 39.8 289.336 39.634C289.586 39.468 289.879 39.38 290.178 39.3809C290.579 39.3821 290.963 39.5423 291.245 39.8263C291.528 40.1104 291.687 40.4951 291.687 40.8962Z" fill="#E0E0E0"/>
<path d="M290.64 45.0635H289.704V66.5326H290.64V45.0635Z" fill="#E0E0E0"/>
<path d="M141.846 201.132L107.671 208.727L145.615 211.097L174.08 202.666H171.252L141.846 201.132Z" fill="#E0E0E0"/>
<path d="M141.417 199.238L110.259 206.736V208.274L147.636 209.36L170.749 203.211L170.823 200.771L141.417 199.238Z" fill="#FAFAFA"/>
<path d="M110.259 208.274V206.736L147.258 207.503L147.636 209.36L110.259 208.274Z" fill="#EBEBEB"/>
<path d="M147.258 207.503L170.823 200.771L170.749 203.211L147.636 209.36L147.258 207.503Z" fill="#E0E0E0"/>
<path d="M141.417 199.238C141.417 199.238 141.597 199.238 141.952 199.238L143.512 199.302L149.472 199.584L170.841 200.656H170.943V200.758C170.92 201.506 170.897 202.347 170.869 203.197V203.28L170.79 203.303L147.682 209.466H147.627L140.043 209.244L110.259 208.362H110.157V206.653H110.24L132.846 201.261L139.18 199.764L140.854 199.381L141.284 199.284L141.427 199.256L141.284 199.302L140.854 199.413L139.189 199.829L132.864 201.363L110.282 206.837L110.365 206.736V208.274L110.263 208.168L140.056 209.018L147.636 209.24H147.627L170.744 203.104L170.666 203.202C170.694 202.351 170.721 201.515 170.744 200.762L170.841 200.868L149.472 199.718L143.521 199.381L141.957 199.284C141.602 199.261 141.417 199.238 141.417 199.238Z" fill="#263238"/>
<path d="M146.294 206.117C146.208 206.126 146.121 206.126 146.036 206.117H145.293L142.552 206.075L133.52 205.923C129.99 205.863 126.798 205.789 124.487 205.706C123.329 205.664 122.392 205.622 121.746 205.585L121.004 205.539C120.916 205.539 120.83 205.528 120.745 205.507C120.832 205.495 120.921 205.495 121.008 205.507H121.751L124.491 205.549L133.524 205.696C137.053 205.756 140.246 205.835 142.557 205.918C143.715 205.96 144.647 205.997 145.293 206.034L146.036 206.084C146.123 206.081 146.21 206.092 146.294 206.117Z" fill="#263238"/>
<path d="M151.364 205.128C151.278 205.14 151.191 205.14 151.105 205.128H150.358H147.627L138.594 204.98C135.065 204.92 131.868 204.842 129.556 204.758C128.403 204.717 127.467 204.68 126.821 204.643L126.078 204.597C125.991 204.594 125.905 204.583 125.82 204.564C125.905 204.554 125.992 204.554 126.078 204.564H126.825L129.561 204.606L138.599 204.754C142.123 204.814 145.32 204.888 147.632 204.971C148.785 205.013 149.721 205.054 150.367 205.091L151.11 205.137C151.194 205.124 151.279 205.121 151.364 205.128Z" fill="#263238"/>
<path d="M155.054 204.061C154.969 204.072 154.882 204.072 154.796 204.061H154.049L151.313 204.019L142.28 203.871C138.751 203.811 135.554 203.737 133.243 203.654C132.089 203.613 131.153 203.571 130.507 203.534L129.764 203.488C129.677 203.488 129.59 203.477 129.506 203.456C129.591 203.444 129.678 203.444 129.764 203.456H130.511L133.247 203.497L142.285 203.645C145.809 203.705 149.006 203.779 151.318 203.867C152.471 203.908 153.407 203.945 154.053 203.982L154.796 204.028C154.883 204.031 154.969 204.042 155.054 204.061Z" fill="#263238"/>
<path d="M158.846 203.206C158.759 203.218 158.671 203.218 158.583 203.206H157.841L155.1 203.165L146.067 203.017C142.538 202.957 139.346 202.878 137.035 202.795C135.877 202.753 134.945 202.716 134.299 202.679L133.556 202.633C133.469 202.63 133.383 202.62 133.298 202.601C133.383 202.59 133.47 202.59 133.556 202.601H134.299L137.039 202.638L146.072 202.79C149.601 202.85 152.794 202.924 155.105 203.007C156.263 203.049 157.199 203.091 157.845 203.128L158.588 203.174C158.675 203.174 158.762 203.185 158.846 203.206Z" fill="#263238"/>
<path d="M199.269 119.395C199.269 119.395 217.293 114.983 225.777 121.529C232.545 126.754 237.439 135.334 237.439 135.334L222.7 154.16L230.921 195.888H167.215L156.854 167.979L140.624 149.226C140.624 149.226 155.557 132.132 160 130.039C164.443 127.946 199.269 119.395 199.269 119.395Z" fill="url(#paint0_linear)"/>
<path d="M210.908 165.576L210.982 165.636L211.189 165.817L211.978 166.491L214.884 168.995H214.912V169.032C214.746 170.492 214.543 172.266 214.312 174.248L214.169 174.151L218.672 171.467L218.723 171.439L218.774 171.462L223.535 173.661L223.368 173.795L222.224 168.676C222.224 168.626 222.192 168.783 222.252 168.565L222.28 168.533L222.335 168.473L222.45 168.348L222.681 168.103L223.142 167.614L224.042 166.644L225.8 164.749L225.873 164.943L220.656 164.444H220.6L220.573 164.394L218.031 159.801H218.206L216.102 164.611V164.643H216.066L212.296 165.341L211.277 165.526L211.009 165.572H210.912H210.991L211.24 165.516L212.227 165.304L216.038 164.504L215.987 164.546L218.045 159.723L218.123 159.543L218.22 159.714C219.004 161.1 219.862 162.652 220.785 164.292L220.697 164.232L225.915 164.722H226.155L225.989 164.897L224.236 166.796L223.336 167.766L222.875 168.256L222.644 168.501L222.533 168.626L222.473 168.686L222.446 168.718C222.506 168.505 222.446 168.662 222.473 168.612L223.618 173.735L223.668 173.966L223.451 173.869L218.7 171.652H218.801L214.285 174.313L214.114 174.414L214.142 174.22C214.386 172.234 214.603 170.469 214.792 169.009V169.074L211.904 166.463L211.152 165.78L210.963 165.604C210.923 165.586 210.905 165.576 210.908 165.576Z" fill="#FAFAFA"/>
<path d="M142.575 146.985C142.575 146.985 123.199 169.305 115.514 175.68C107.828 182.056 109.258 194.497 113.511 196.147C115.172 196.789 139.535 195.874 139.535 195.874L156.854 167.979L142.575 146.985Z" fill="url(#paint1_linear)"/>
<g opacity="0.2">
<path opacity="0.2" d="M211.568 182.157C211.346 177.792 217.773 174.71 220.937 175.5C220.333 168.903 219.553 157.621 221.399 151.254C223.424 160.674 224.42 170.658 227.95 179.616" fill="black"/>
</g>
<path d="M221.726 154.498L227.839 180.231C227.839 180.231 217.634 173.915 211.619 182.31L216.232 196.004L257.526 196.147C257.526 196.147 260.681 183.761 256.94 173.823C255.367 169.665 237.453 135.334 237.453 135.334L224.568 139.815L221.726 154.498Z" fill="url(#paint2_linear)"/>
<path d="M216.218 196.004C216.176 195.918 216.139 195.83 216.107 195.74L215.83 194.973L214.829 192.095C213.985 189.619 212.809 186.168 211.457 182.194V182.144L211.489 182.097C211.917 181.39 212.44 180.745 213.044 180.18C213.697 179.604 214.439 179.136 215.24 178.794C216.474 178.262 217.792 177.949 219.134 177.87C219.763 177.826 220.395 177.817 221.025 177.842C221.633 177.854 222.239 177.925 222.834 178.055C225.14 178.577 227.11 179.635 228.291 180.989C229.352 181.912 230.253 183.004 230.958 184.223C231.206 184.679 231.37 185.177 231.442 185.692C231.302 185.199 231.112 184.723 230.875 184.269C230.15 183.072 229.237 182 228.171 181.095C226.986 179.769 225.057 178.757 222.787 178.254C222.207 178.128 221.615 178.062 221.02 178.055C220.398 178.031 219.774 178.042 219.152 178.087C217.847 178.159 216.564 178.456 215.36 178.965C214.58 179.298 213.86 179.757 213.229 180.323C212.633 180.865 212.116 181.487 211.692 182.171V182.074C213.012 186.057 214.16 189.517 214.982 192.003C215.378 193.222 215.692 194.202 215.904 194.904L216.149 195.68C216.181 195.786 216.205 195.894 216.218 196.004Z" fill="#263238"/>
<path d="M235.46 181.169C235.428 181.201 235.087 180.808 234.422 180.323C233.556 179.694 232.557 179.273 231.502 179.094C230.923 179.004 230.335 178.992 229.754 179.057C229.28 179.119 228.815 179.237 228.37 179.409C227.604 179.709 227.193 180.028 227.165 179.986C227.138 179.944 227.253 179.889 227.438 179.746C227.708 179.549 227.998 179.384 228.305 179.251C228.758 179.051 229.236 178.913 229.726 178.84C230.575 178.721 231.44 178.779 232.266 179.012C233.092 179.244 233.86 179.645 234.524 180.189C234.785 180.393 235.026 180.622 235.243 180.873C235.396 181.053 235.474 181.16 235.46 181.169Z" fill="#263238"/>
<path d="M227.931 179.616C227.89 179.523 227.854 179.428 227.825 179.33C227.76 179.117 227.673 178.845 227.562 178.508C227.34 177.787 227.031 176.747 226.639 175.454C225.901 172.867 224.932 169.282 223.973 165.29C223.013 161.298 222.243 157.662 221.731 155.02C221.472 153.703 221.269 152.631 221.145 151.892C221.089 151.541 221.043 151.254 221.006 151.037C220.986 150.938 220.974 150.838 220.969 150.737C221.009 150.83 221.037 150.928 221.053 151.028C221.099 151.245 221.163 151.527 221.237 151.873C221.399 152.636 221.625 153.694 221.897 154.987C222.455 157.616 223.248 161.243 224.203 165.234C225.158 169.226 226.099 172.811 226.801 175.398C227.147 176.674 227.428 177.708 227.631 178.471C227.719 178.817 227.793 179.094 227.848 179.312C227.891 179.408 227.919 179.511 227.931 179.616Z" fill="#263238"/>
<path d="M222.414 147.452C222.27 148.125 222.045 148.778 221.745 149.397C221.521 150.046 221.222 150.666 220.854 151.245C221.002 150.572 221.227 149.918 221.523 149.295C221.747 148.648 222.046 148.03 222.414 147.452Z" fill="#263238"/>
<g opacity="0.2">
<path opacity="0.2" d="M152.374 154.498C151.488 162.352 150.598 171.647 149.708 179.506L156.872 167.956" fill="black"/>
</g>
<path d="M152.009 153.731C152.074 153.708 154.108 159.298 156.554 166.205C158.999 173.112 160.936 178.748 160.872 178.771C160.807 178.794 158.777 173.227 156.327 166.297C153.878 159.367 151.949 153.754 152.009 153.731Z" fill="#263238"/>
<path d="M157.209 139.062V139.432C157.209 139.684 157.209 140.031 157.209 140.471C157.209 141.395 157.172 142.679 157.144 144.31V144.347H157.112C155.884 145.156 154.399 146.126 152.724 147.221V147.05L157.665 148.801H157.721V148.856L159.077 153.938L158.869 153.897L162.066 149.739L162.168 149.688H162.334H162.505H162.837L163.506 149.725L164.825 149.799L167.399 149.938L167.298 150.122L164.345 145.784L164.313 145.738V145.682C164.996 143.931 165.632 142.291 166.214 140.795L166.329 140.919L161.296 142.375H161.259L161.231 142.351L158.283 139.986L157.49 139.321L157.282 139.145L157.209 139.08L157.273 139.127L157.476 139.284L158.27 139.912L161.319 142.333H161.254L166.278 140.831L166.463 140.776L166.394 140.961C165.822 142.462 165.19 144.102 164.521 145.863V145.756L167.487 150.085L167.621 150.284H167.386L164.807 150.145L163.487 150.076L162.818 150.039H162.486H162.315H162.149L162.251 149.993L159.049 154.151L158.906 154.34L158.842 154.109C158.38 152.331 157.919 150.621 157.504 149.027L157.573 149.106L152.641 147.327L152.457 147.263L152.618 147.156L157.033 144.324L157.001 144.384C157.066 142.73 157.121 141.414 157.158 140.49C157.158 140.06 157.19 139.723 157.204 139.478V139.219C157.198 139.167 157.2 139.114 157.209 139.062Z" fill="#FAFAFA"/>
<path d="M147.853 158.143C147.837 158.172 147.817 158.198 147.793 158.221L147.609 158.425L146.917 159.196L144.342 162.037L144.315 162.065H144.278L139.088 161.331L139.189 161.187L141.75 165.766L141.777 165.817L141.754 165.867C141.025 167.341 140.246 168.926 139.448 170.575L139.319 170.404L144.462 169.392L144.569 169.425L144.601 169.452L144.661 169.513L144.781 169.633L145.021 169.864L145.482 170.326L146.405 171.25L148.25 173.056L148.052 173.125C148.273 171.31 148.485 169.568 148.688 167.919V167.859H148.739L153.389 165.433V165.604L148.642 163.373H148.61V163.336C148.351 161.719 148.148 160.439 148.01 159.543C147.945 159.104 147.89 158.766 147.853 158.517C147.853 158.406 147.821 158.318 147.812 158.249V158.147C147.812 158.147 147.812 158.17 147.812 158.226C147.812 158.281 147.844 158.378 147.862 158.48C147.904 158.72 147.969 159.053 148.047 159.478C148.213 160.402 148.448 161.677 148.744 163.312L148.707 163.257L153.468 165.442L153.648 165.525L153.472 165.618L148.836 168.066L148.896 167.983C148.697 169.633 148.49 171.374 148.278 173.195L148.245 173.43L148.075 173.264L146.229 171.458L145.284 170.534L144.822 170.072L144.582 169.836L144.458 169.716L144.398 169.66L144.37 169.628L144.476 169.66L139.332 170.672L139.097 170.718L139.203 170.501L141.538 165.803V165.858L139 161.266L138.908 161.095L139.097 161.123L144.282 161.913H144.218L146.898 159.09L147.599 158.355L147.779 158.175C147.835 158.161 147.858 158.143 147.853 158.143Z" fill="#FAFAFA"/>
<path d="M176.889 159.154L176.968 159.219L177.175 159.395L177.964 160.069L180.871 162.573L180.898 162.596V162.624C180.728 164.084 180.525 165.858 180.294 167.84L180.151 167.743C181.535 166.935 183.034 166.024 184.654 165.059L184.704 165.031H184.76L189.511 167.244L189.345 167.378L188.224 162.278C188.224 162.227 188.197 162.384 188.252 162.167L188.284 162.134L188.34 162.074L188.455 161.95L188.686 161.7L189.147 161.21L190.047 160.24L191.8 158.346L191.878 158.54L186.656 158.004H186.596L186.568 157.953C185.645 156.309 184.806 154.77 184.031 153.361H184.201C183.394 155.209 182.693 156.817 182.098 158.17V158.203H182.061L178.273 158.928L177.254 159.113L176.986 159.159H176.889H176.968L177.217 159.104L178.209 158.891L182.019 158.092L181.969 158.138C182.545 156.775 183.237 155.158 184.026 153.31L184.1 153.13L184.197 153.301L186.762 157.879L186.674 157.824L191.915 158.286H192.15L191.989 158.461L190.236 160.36C189.928 160.668 189.628 160.992 189.336 161.33L188.875 161.82L188.649 162.065L188.533 162.19L188.478 162.25L188.45 162.282L188.478 162.171C188.87 163.927 189.248 165.641 189.617 167.295L189.673 167.526L189.456 167.429L184.704 165.216H184.806L180.285 167.877L180.119 167.979L180.142 167.785C180.391 165.798 180.603 164.033 180.792 162.578L180.815 162.638L177.927 160.028L177.152 159.39L176.963 159.215L176.889 159.154Z" fill="#FAFAFA"/>
<path d="M195.144 141.834L195.218 141.894L195.425 142.074L196.205 142.758L199.112 145.262L199.139 145.285V145.322C198.973 146.782 198.77 148.556 198.539 150.538L198.396 150.441L202.899 147.757L202.95 147.729L203.001 147.752L207.762 149.951L207.595 150.085L206.451 144.966C206.451 144.916 206.419 145.073 206.479 144.856L206.507 144.823L206.562 144.759L206.677 144.638L206.908 144.389L207.369 143.899L208.292 142.934L210.05 141.039L210.124 141.234L204.906 140.735H204.832L204.804 140.684C203.882 139.039 203.042 137.496 202.262 136.091H202.433L200.334 140.901V140.933H200.297L196.528 141.599L195.508 141.783L195.241 141.83H195.144H195.222L195.472 141.774L196.459 141.562L200.269 140.762L200.219 140.804L202.276 135.981L202.355 135.8L202.452 135.971L205.012 140.55L204.929 140.49L210.147 140.979H210.386L210.22 141.155L208.467 143.054C208.167 143.373 207.872 143.696 207.568 144.024L207.106 144.514L206.876 144.759L206.765 144.883L206.705 144.943L206.677 144.976C206.737 144.763 206.677 144.92 206.705 144.869L207.849 149.993L207.9 150.224L207.683 150.127L202.931 147.909H202.987L198.489 150.612L198.318 150.709L198.346 150.52C198.59 148.533 198.807 146.768 198.992 145.308L199.019 145.373L196.131 142.758L195.379 142.074L195.19 141.899C195.159 141.856 195.144 141.834 195.144 141.834Z" fill="#FAFAFA"/>
<path d="M195.144 184.407L195.218 184.468L195.425 184.643L196.214 185.318L199.121 187.822H199.148V187.863C198.982 189.323 198.779 191.097 198.549 193.075L198.406 192.982L202.894 190.344L202.945 190.312L202.996 190.34L207.757 192.539L207.6 192.654L206.447 187.526C206.447 187.48 206.414 187.632 206.474 187.42L206.502 187.387L206.557 187.327L206.673 187.203L206.903 186.958L207.365 186.468L208.287 185.498L210.045 183.604L210.119 183.802L204.901 183.299H204.832L204.804 183.248L202.262 178.66H202.433L200.343 183.414V183.451H200.306L196.528 184.158L195.508 184.343L195.241 184.394H195.144C195.144 184.394 195.144 184.394 195.222 184.394L195.472 184.343L196.459 184.13L200.269 183.331L200.219 183.373C200.8 182.014 201.487 180.393 202.276 178.545L202.355 178.365L202.452 178.535L205.012 183.114L204.929 183.058L210.147 183.544L210.386 183.567L210.22 183.742L208.467 185.636C208.167 185.96 207.872 186.283 207.568 186.607L207.106 187.096L206.876 187.346L206.765 187.466L206.705 187.531L206.677 187.572C206.737 187.355 206.677 187.512 206.705 187.466L207.849 192.585L207.9 192.821L207.683 192.719L202.931 190.506H202.987L198.47 193.167L198.3 193.264L198.327 193.07C198.572 191.083 198.789 189.323 198.973 187.863L199.001 187.923L196.113 185.313L195.361 184.629L195.172 184.458C195.161 184.442 195.152 184.425 195.144 184.407Z" fill="#FAFAFA"/>
<path d="M163.663 182.412L163.741 182.472L163.949 182.647L164.738 183.322L167.644 185.826L167.672 185.853V185.89C167.501 187.35 167.298 189.124 167.067 191.102L166.924 191.009L171.427 188.325L171.478 188.297L171.529 188.321L176.29 190.52L176.123 190.654L174.979 185.53C174.979 185.484 174.952 185.641 175.007 185.424L175.035 185.396L175.095 185.331L175.21 185.211L175.436 184.962L175.897 184.472C176.205 184.149 176.505 183.825 176.797 183.502C177.392 182.86 177.983 182.231 178.555 181.608L178.633 181.806L173.415 181.307H173.355L173.328 181.261L170.79 176.669H170.961C170.154 178.517 169.448 180.12 168.857 181.474V181.511H168.821L165.047 182.204L164.027 182.388L163.76 182.439H163.663H163.741L163.99 182.384L164.982 182.171L168.793 181.372L168.738 181.414C169.319 180.055 170.011 178.438 170.8 176.586L170.873 176.41L170.97 176.581L173.535 181.155L173.448 181.099L178.665 181.585L178.905 181.608L178.744 181.783L176.986 183.682L176.091 184.652L175.63 185.142L175.404 185.387L175.288 185.512L175.233 185.572L175.201 185.604C175.261 185.391 175.201 185.544 175.233 185.498C175.621 187.253 176.004 188.967 176.373 190.621L176.423 190.852L176.206 190.751L171.455 188.538H171.561L167.003 191.176L166.837 191.273L166.86 191.079C167.109 189.097 167.321 187.332 167.51 185.872L167.533 185.937L164.645 183.326L163.894 182.643L163.709 182.467L163.663 182.412Z" fill="#FAFAFA"/>
<path d="M230.667 126.126C230.677 126.204 230.677 126.283 230.667 126.362L230.575 127.05V127.022L234.265 130.746L234.385 130.866L234.214 130.889L229.015 131.527L229.094 131.471C228.351 132.894 227.525 134.465 226.662 136.124L226.552 136.332L226.455 136.114C225.758 134.608 225.015 133.005 224.254 131.351L224.342 131.421L224.097 131.379L219.18 130.524L218.944 130.487L219.12 130.326L222.976 126.768L222.939 126.861C222.672 124.943 222.427 123.192 222.211 121.663L222.188 121.492L222.34 121.575L226.889 124.181H226.847L227.77 123.654C227.872 123.593 227.979 123.537 228.088 123.488C227.995 123.565 227.894 123.633 227.788 123.691L226.865 124.25L222.252 121.728L222.377 121.64C222.603 123.165 222.861 124.911 223.147 126.833V126.888L223.106 126.925L219.263 130.497L219.203 130.293L224.121 131.139L224.37 131.185H224.434V131.24C225.195 132.894 225.934 134.498 226.626 136.008H226.418L228.872 131.388L228.895 131.337H228.951L234.173 130.746L234.122 130.885L230.501 127.092C230.556 126.805 230.598 126.579 230.625 126.408C230.631 126.313 230.645 126.219 230.667 126.126Z" fill="#FAFAFA"/>
<path d="M229.777 147.29C229.78 147.323 229.78 147.355 229.777 147.387C229.777 147.461 229.804 147.549 229.823 147.66C229.86 147.905 229.915 148.247 229.984 148.686C230.127 149.582 230.325 150.862 230.579 152.474V152.511L230.552 152.539L226.722 156.119L226.672 155.957L231.839 156.831H231.894L231.922 156.886L234.122 161.649H233.91L236.351 157.001L236.443 156.937H236.526H236.609H236.775L237.112 156.895L237.771 156.817L239.086 156.664L241.647 156.359L241.577 156.558L237.928 152.793L237.887 152.751V152.696C238.256 150.848 238.602 149.124 238.92 147.549L239.059 147.655L234.344 149.965H234.311H234.279L230.953 148.048L230.058 147.526L229.823 147.392L229.74 147.336L229.813 147.373L230.039 147.494L230.93 147.956L234.348 149.804H234.284L238.971 147.466L239.146 147.378L239.109 147.567C238.8 149.148 238.463 150.875 238.099 152.719L238.071 152.622C239.234 153.809 240.456 155.07 241.734 156.378L241.9 156.549L241.66 156.576L239.1 156.881L237.785 157.038L237.126 157.117L236.793 157.159H236.623H236.54H236.457L236.549 157.099C235.714 158.688 234.897 160.24 234.104 161.719L233.993 161.931L233.896 161.714L231.705 156.946L231.788 157.006L226.663 156.156L226.469 156.119L226.612 155.99L230.478 152.442V152.506C230.261 150.862 230.09 149.559 229.97 148.644C229.915 148.214 229.869 147.882 229.836 147.637C229.836 147.535 229.836 147.452 229.809 147.383C229.795 147.353 229.785 147.322 229.777 147.29Z" fill="#FAFAFA"/>
<path d="M243.146 173.019L243.095 173.102L242.952 173.338L242.408 174.22L240.378 177.454V177.487H240.341L235.1 177.685L235.174 177.528L238.509 181.575L238.542 181.622V181.677C238.08 183.257 237.619 184.957 237.093 186.722L236.941 186.579L241.817 184.666C241.868 184.666 241.707 184.666 241.933 184.666L241.965 184.694L242.039 184.74L242.177 184.832L242.454 185.022L243.007 185.396L244.101 186.14L246.237 187.591L246.052 187.697C245.946 185.849 245.849 184.116 245.752 182.453V182.398L245.799 182.361L249.951 179.15L249.983 179.316L244.908 177.967H244.871V177.93C244.332 176.387 243.907 175.158 243.607 174.303C243.464 173.888 243.353 173.56 243.27 173.324L243.183 173.065L243.155 172.973L243.187 173.047C243.187 173.112 243.243 173.19 243.28 173.282L243.635 174.234C243.962 175.093 244.424 176.327 245.019 177.884L244.968 177.87L250.043 179.173L250.232 179.224L250.075 179.344L245.951 182.578L245.992 182.486C246.089 184.144 246.195 185.895 246.306 187.725V187.96L246.108 187.826L243.972 186.38L242.874 185.636L242.325 185.262L242.043 185.073L241.905 184.98L241.836 184.934L241.803 184.911H241.914L237.033 186.824L236.812 186.907L236.876 186.68L238.339 181.64L238.362 181.737C237.167 180.277 236.055 178.9 235.049 177.671L234.925 177.519H235.119L240.359 177.371L240.299 177.403C241.222 176.017 241.933 174.918 242.435 174.146L242.998 173.301L243.141 173.088C243.123 173.038 243.146 173.014 243.146 173.019Z" fill="#FAFAFA"/>
<path d="M116.69 177.713C116.69 177.713 116.69 177.75 116.69 177.81C116.69 177.87 116.69 177.972 116.653 178.083L116.501 179.108C116.362 180.009 116.169 181.289 115.924 182.906V182.952H115.887L111.154 185.207V185.036L115.813 187.433L115.869 187.461V187.521C116.076 189.148 116.302 190.903 116.533 192.723L116.335 192.654L120.058 188.958L120.168 188.926H120.205H120.247H120.33L120.496 188.958L120.824 189.023L121.483 189.148L122.78 189.397L125.312 189.859L125.188 190.03L122.844 185.336L122.817 185.281L122.844 185.23C123.767 183.585 124.607 182.047 125.382 180.637L125.483 180.781L120.298 181.548H120.261L120.233 181.52L117.64 178.757L116.944 177.99L116.764 177.787L116.699 177.713C116.699 177.713 116.699 177.713 116.759 177.768L116.935 177.953L117.64 178.679L120.339 181.492H120.275L125.442 180.642L125.635 180.61L125.543 180.785L123.029 185.405V185.304L125.391 189.993L125.497 190.205L125.262 190.159L122.724 189.697L121.428 189.448L120.773 189.323L120.441 189.258L120.279 189.231H120.196H120.155H120.113L120.219 189.198L116.492 192.894L116.321 193.061L116.289 192.825L115.643 187.572L115.703 187.66L111.053 185.234L110.877 185.147L111.057 185.063L115.809 182.85L115.767 182.906C116.058 181.27 116.284 179.977 116.446 179.067C116.525 178.642 116.585 178.309 116.625 178.069L116.672 177.815C116.672 177.78 116.678 177.746 116.69 177.713Z" fill="#FAFAFA"/>
<path d="M207.001 108.039C208.667 107.145 209.986 105.717 210.747 103.985C211.509 102.252 211.67 100.314 211.203 98.48C210.742 96.8445 209.778 95.3615 209.492 93.6844C209.03 91.0787 210.285 88.5331 211.093 86.0152C211.9 83.4973 212.126 80.3649 210.17 78.5862C208.901 77.4359 207.051 77.2002 205.621 76.2762C204.191 75.3522 203.314 73.8692 202.392 72.4832C201.469 71.0972 200.311 69.7112 198.701 69.1984C197.091 68.6856 195.01 69.5264 194.757 71.185" fill="#263238"/>
<path d="M182.605 69.5172C184.792 67.3551 184.603 63.4789 182.652 61.0996C180.7 58.7203 177.429 57.727 174.348 57.8656C172.118 58.0008 169.953 58.6628 168.028 59.7975C166.104 60.9322 164.475 62.5072 163.276 64.3936C162.002 66.4357 161.149 68.9259 159.096 70.1779C157.292 71.2774 154.999 71.1296 153.006 71.8411C150.335 72.7651 148.393 75.2553 147.507 77.9487C146.621 80.6422 146.631 83.5528 146.898 86.3756C147.143 88.9674 147.544 91.7856 146.192 94.0078C144.841 96.2301 142.253 97.1402 140.407 98.8819C136.929 102.153 136.915 108.399 140.384 111.684C141.487 112.728 142.935 113.597 143.355 115.061C143.738 116.396 143.12 117.796 142.991 119.178C142.654 122.744 146.22 126.108 149.768 125.567C151.553 125.29 153.292 124.181 155.041 124.643C156.789 125.105 157.767 126.856 159.082 128.08C160.411 129.25 162.101 129.927 163.868 129.998C165.636 130.07 167.374 129.531 168.793 128.473C169.956 127.549 170.952 126.242 172.41 126.024C173.868 125.807 175.266 126.796 176.742 126.768C178.67 126.727 180.133 124.98 180.894 123.211C181.655 121.441 182.043 119.464 183.201 117.907C184.691 115.865 187.196 114.899 189.359 113.592C191.75 112.141 193.802 110.193 195.377 107.88C196.952 105.567 198.013 102.942 198.488 100.183C198.963 97.4242 198.842 94.5953 198.132 91.8874C197.423 89.1795 196.141 86.6555 194.374 84.486" fill="#263238"/>
<path d="M188.898 71.6517C189.931 71.5437 190.967 71.8273 191.801 72.4465C192.635 73.0657 193.208 73.9756 193.405 74.9966L202.793 130.381C204.09 136.881 195.412 142.564 188.455 143.899C181.424 145.244 180.46 141.857 179.044 135.713C176.682 125.447 175.861 121.575 175.87 121.635C175.879 121.696 166.712 122.056 162.417 110.889C160.286 105.345 158.565 95.8559 157.412 88.0527C156.369 81.0257 159.147 71.5408 166.2 70.797L188.898 71.6517Z" fill="#B78876"/>
<path d="M161.559 94.978C161.637 95.3651 161.863 95.7062 162.189 95.9289C162.515 96.1515 162.914 96.238 163.303 96.17C163.495 96.1452 163.679 96.0821 163.846 95.9844C164.013 95.8867 164.159 95.7565 164.275 95.6014C164.39 95.4462 164.474 95.2694 164.52 95.0814C164.566 94.8934 164.574 94.698 164.544 94.5068C164.466 94.1197 164.239 93.7785 163.914 93.5559C163.588 93.3332 163.188 93.2467 162.8 93.3148C162.608 93.3402 162.424 93.4037 162.257 93.5015C162.091 93.5994 161.945 93.7296 161.83 93.8846C161.714 94.0396 161.63 94.2161 161.584 94.4039C161.537 94.5917 161.529 94.7869 161.559 94.978Z" fill="#263238"/>
<path d="M160.493 93.4858C160.719 93.6429 161.665 92.5618 163.261 92.2338C164.858 91.9058 166.191 92.4463 166.325 92.2338C166.389 92.1275 166.126 91.8226 165.54 91.5593C164.75 91.2288 163.876 91.1513 163.04 91.3375C162.211 91.5104 161.458 91.9424 160.89 92.571C160.48 93.0377 160.387 93.4211 160.493 93.4858Z" fill="#263238"/>
<path d="M177.424 91.5546C177.503 91.9417 177.729 92.2829 178.055 92.5055C178.38 92.7282 178.78 92.8147 179.168 92.7466C179.36 92.7212 179.544 92.6577 179.711 92.5599C179.878 92.462 180.023 92.3318 180.139 92.1768C180.254 92.0218 180.338 91.8453 180.384 91.6575C180.431 91.4697 180.439 91.2745 180.409 91.0834C180.331 90.6963 180.105 90.3552 179.779 90.1325C179.454 89.9099 179.054 89.8234 178.665 89.8915C178.474 89.9162 178.289 89.9793 178.122 90.077C177.955 90.1747 177.809 90.3049 177.694 90.46C177.578 90.6152 177.494 90.792 177.448 90.98C177.402 91.168 177.394 91.3634 177.424 91.5546Z" fill="#263238"/>
<path d="M176.23 89.9191C176.456 90.0762 177.401 88.9951 178.998 88.6671C180.594 88.3391 181.927 88.8796 182.056 88.6671C182.125 88.5654 181.863 88.2559 181.277 87.9926C180.485 87.6611 179.609 87.5836 178.772 87.7708C177.943 87.9444 177.192 88.3781 176.626 89.009C176.193 89.4709 176.1 89.8544 176.23 89.9191Z" fill="#263238"/>
<path d="M172.95 102.532C172.95 102.439 171.912 102.481 170.265 102.615C169.849 102.661 169.448 102.661 169.319 102.398C169.191 101.986 169.191 101.544 169.319 101.132C169.494 100.069 169.674 98.9466 169.863 97.7778C170.592 93.0053 171.026 89.1153 170.837 89.0876C170.648 89.0598 169.914 92.9083 169.167 97.6761C168.996 98.8542 168.835 99.9862 168.678 101.044C168.622 101.538 168.47 102.121 168.807 102.684C168.896 102.817 169.014 102.928 169.152 103.008C169.291 103.088 169.445 103.136 169.605 103.146C169.843 103.162 170.082 103.145 170.315 103.095C171.962 102.832 172.963 102.624 172.95 102.532Z" fill="#263238"/>
<path d="M175.87 121.635C181.321 120.559 186.366 117.987 190.443 114.206C190.443 114.206 188.279 123.197 176.502 124.583L175.87 121.635Z" fill="#AA6550"/>
<path d="M174.444 106.232C174.665 105.785 174.996 105.402 175.406 105.119C175.816 104.836 176.292 104.662 176.788 104.615C177.145 104.572 177.508 104.601 177.855 104.701C178.201 104.801 178.524 104.97 178.804 105.198C179.073 105.418 179.268 105.717 179.363 106.052C179.458 106.387 179.448 106.744 179.334 107.073C179.034 107.771 178.167 108.103 177.36 108.048C176.547 107.943 175.763 107.678 175.053 107.267C174.845 107.179 174.656 107.052 174.495 106.893C174.418 106.817 174.366 106.72 174.344 106.614C174.321 106.508 174.331 106.398 174.37 106.297" fill="#AA6550"/>
<path d="M177.872 102.633C177.609 102.675 177.973 104.403 176.755 105.951C175.537 107.498 173.66 107.697 173.697 107.942C173.697 108.057 174.158 108.191 174.961 108.043C175.976 107.844 176.888 107.291 177.535 106.482C178.16 105.701 178.456 104.706 178.361 103.71C178.273 102.985 177.987 102.596 177.872 102.633Z" fill="#263238"/>
<path d="M174.901 86.856C175.15 87.2534 176.695 86.7082 178.591 86.5373C180.487 86.3663 182.13 86.5373 182.282 86.1076C182.351 85.8997 182.001 85.5486 181.304 85.2575C180.382 84.9154 179.394 84.7888 178.415 84.8873C177.436 84.9858 176.493 85.3067 175.657 85.8258C175.062 86.2277 174.79 86.6389 174.901 86.856Z" fill="#263238"/>
<path d="M160.083 90.6122C160.442 90.9171 161.467 90.3072 162.772 90.0069C164.078 89.7066 165.259 89.7297 165.439 89.2954C165.513 89.0875 165.259 88.7595 164.696 88.5239C163.953 88.2536 163.146 88.2104 162.378 88.3995C161.61 88.5887 160.916 89.0018 160.382 89.5865C160.009 90.0578 159.935 90.4643 160.083 90.6122Z" fill="#263238"/>
<path d="M180.515 69.5265C182.776 67.1795 186.023 65.6179 189.28 65.8305C192.537 66.043 195.693 68.2791 196.473 71.3745C196.98 73.4027 196.569 75.7589 197.857 77.3805C199.093 78.9467 201.367 79.2008 203.143 80.1525C204.517 80.9159 205.596 82.1172 206.21 83.5653C206.823 85.0135 206.936 86.6255 206.53 88.1451C205.768 90.7323 203.485 93.0007 203.826 95.6618C204.149 98.1659 206.663 99.7921 207.688 102.102C208.818 104.652 207.937 107.729 206.207 109.956C204.477 112.183 202.013 113.735 199.605 115.237C197.727 116.41 195.707 117.63 193.492 117.602C190.854 117.574 188.468 115.643 187.583 113.213C186.697 110.783 187.177 107.983 188.482 105.72C189.613 103.77 191.393 101.931 191.283 99.7136C191.117 96.2347 186.526 94.3359 186.042 90.8894C185.788 89.1107 186.711 87.3966 187.426 85.7381C188.141 84.0795 188.648 82.0744 187.666 80.5683C186.388 78.6094 183.463 78.6556 181.433 77.4544C180.594 76.9469 179.911 76.2162 179.462 75.3435C179.012 74.4707 178.813 73.4902 178.887 72.511C178.998 71.5253 179.374 70.5885 179.976 69.8001C180.577 69.0117 181.38 68.4014 182.3 68.0342" fill="#263238"/>
<path d="M181.198 66.6575C181.451 67.8171 181.447 69.0183 181.184 70.1758C180.922 71.3333 180.408 72.4188 179.68 73.3553C178.952 74.2918 178.027 75.0563 176.97 75.5947C175.914 76.1331 174.752 76.432 173.568 76.4704C171.722 76.5258 169.614 76.05 168.29 77.3205C166.906 78.6557 167.367 81.0904 166.196 82.6335C164.544 84.8418 160.955 83.8809 158.538 85.2068C156.692 86.2278 155.839 88.4038 154.847 90.2888C153.855 92.1738 152.213 94.1373 150.091 93.9848C149.763 92.1718 149.644 90.3272 149.735 88.487C149.837 86.6332 150.573 84.8711 151.821 83.4974C152.531 82.7813 153.421 82.2454 154.053 81.46C155.437 79.7645 155.299 77.3528 155.922 75.2646C156.334 73.9186 157.061 72.6905 158.043 71.6821C159.024 70.6738 160.231 69.9142 161.564 69.4665C163.783 68.7458 166.269 68.9213 168.359 67.8864C169.905 67.1195 171.104 65.752 172.691 65.0775C175.787 63.7654 179.284 65.4378 182.121 67.2396" fill="#263238"/>
<path d="M180.654 104.163C180.608 104.209 180.469 104.163 180.345 104.024C180.22 103.885 180.16 103.765 180.206 103.714C180.252 103.664 180.391 103.714 180.515 103.853C180.64 103.992 180.7 104.116 180.654 104.163Z" fill="#263238"/>
<path d="M141.837 116.918H142.026L142.589 116.955C143.305 116.978 144.022 116.949 144.734 116.868C145.861 116.726 146.964 116.442 148.019 116.022C149.417 115.471 150.708 114.68 151.834 113.684C153.194 112.472 154.277 110.979 155.008 109.309C155.851 107.395 156.226 105.308 156.102 103.22C155.959 101.012 155.138 98.8126 154.381 96.5257C153.971 95.3609 153.663 94.163 153.458 92.9452C153.266 91.6772 153.301 90.3851 153.56 89.1291C153.808 87.8552 154.437 86.687 155.364 85.7796C155.829 85.351 156.362 85.0028 156.941 84.7493C157.508 84.5093 158.095 84.3192 158.694 84.1811C159.871 83.8946 161.047 83.719 162.131 83.3541C162.666 83.1733 163.176 82.9265 163.649 82.6195C164.101 82.3045 164.498 81.9174 164.826 81.4737C165.428 80.5905 165.871 79.6086 166.136 78.5724C166.436 77.5698 166.675 76.5719 166.998 75.6341C167.576 73.8649 168.67 72.31 170.14 71.1711C171.35 70.231 172.779 69.6156 174.292 69.3832C175.428 69.2158 176.586 69.2597 177.706 69.5126C178.412 69.6716 179.095 69.9184 179.74 70.2471C179.966 70.3553 180.184 70.4804 180.391 70.6213C180.391 70.6213 180.165 70.4966 179.717 70.2887C179.069 69.9843 178.388 69.7549 177.688 69.6049C176.578 69.3708 175.435 69.341 174.315 69.5172C172.832 69.7585 171.434 70.3756 170.255 71.3097C168.818 72.4318 167.75 73.9611 167.192 75.6987C166.878 76.6227 166.648 77.6206 166.348 78.6324C166.078 79.6945 165.625 80.7013 165.01 81.6077C164.671 82.0715 164.258 82.4758 163.788 82.8043C163.298 83.1256 162.769 83.3833 162.214 83.5712C161.103 83.95 159.908 84.1256 158.759 84.4121C158.173 84.5458 157.6 84.7313 157.047 84.9664C156.492 85.2095 155.98 85.5436 155.534 85.9551C154.643 86.8321 154.039 87.9601 153.804 89.1891C153.55 90.4144 153.515 91.6754 153.703 92.9128C153.914 94.1172 154.222 95.3023 154.625 96.4564C155.377 98.7387 156.208 100.961 156.346 103.211C156.467 105.334 156.078 107.455 155.211 109.397C154.466 111.088 153.365 112.598 151.982 113.823C150.707 114.944 149.223 115.803 147.616 116.35C146.009 116.897 144.311 117.122 142.617 117.011L142.059 116.951C141.984 116.948 141.91 116.937 141.837 116.918Z" fill="#455A64"/>
<path d="M164.336 62.4163C164.383 62.3584 164.437 62.3071 164.498 62.2638C164.654 62.1213 164.819 61.9886 164.992 61.8665C165.623 61.4041 166.309 61.0223 167.035 60.73C169.446 59.7229 172.147 59.6593 174.602 60.5517C177.058 61.4441 179.089 63.2275 180.294 65.5486C180.662 66.2396 180.942 66.9736 181.129 67.7339C181.184 67.9375 181.227 68.1443 181.258 68.353C181.277 68.4253 181.285 68.5001 181.281 68.5747C181.014 67.5523 180.632 66.5634 180.142 65.6272C179.593 64.6249 178.887 63.7171 178.052 62.9383C177.044 61.9683 175.844 61.2205 174.53 60.7431C173.216 60.2657 171.816 60.0692 170.421 60.1663C169.281 60.2282 168.159 60.4715 167.095 60.8871C166.12 61.2893 165.194 61.8024 164.336 62.4163Z" fill="#455A64"/>
<path d="M197.589 115.911L197.728 115.837L198.147 115.639C198.674 115.377 199.182 115.081 199.67 114.752C201.475 113.536 202.936 111.872 203.909 109.924C204.221 109.282 204.482 108.616 204.689 107.933C204.899 107.187 205.038 106.422 205.104 105.65C205.241 103.941 205.026 102.223 204.472 100.601C203.867 98.8063 202.849 97.1795 201.501 95.8513C200.805 95.1583 200.03 94.5114 199.287 93.8046C198.509 93.0999 197.844 92.2785 197.317 91.3699C196.279 89.4849 196.076 87.3551 195.965 85.3916C195.91 84.3983 195.891 83.4281 195.827 82.481C195.767 81.5565 195.639 80.6376 195.444 79.7321C195.255 78.8744 194.959 78.044 194.563 77.2604C194.185 76.5266 193.668 75.8737 193.04 75.3385C191.818 74.299 190.309 73.9201 188.995 73.5921C187.774 73.3623 186.579 73.0173 185.424 72.5618C184.553 72.1943 183.768 71.65 183.117 70.9633C182.711 70.5237 182.412 69.9954 182.245 69.4202C182.201 69.2694 182.17 69.1147 182.153 68.9582C182.147 68.906 182.147 68.8533 182.153 68.8011C182.153 68.8011 182.181 69.0137 182.305 69.3971C182.489 69.9563 182.795 70.4676 183.2 70.894C183.857 71.5564 184.642 72.0782 185.507 72.4279C186.659 72.8676 187.85 73.1986 189.064 73.4165C190.388 73.7353 191.924 74.1095 193.216 75.1767C193.843 75.7319 194.357 76.4034 194.729 77.1541C195.14 77.9515 195.45 78.7974 195.652 79.672C195.851 80.5849 195.982 81.5115 196.044 82.444C196.113 83.4003 196.136 84.3705 196.191 85.3592C196.302 87.3181 196.51 89.4063 197.515 91.2359C198.521 93.0654 200.26 94.262 201.667 95.6665C203.039 97.0214 204.071 98.6821 204.68 100.513C205.235 102.171 205.444 103.926 205.293 105.669C205.21 106.451 205.055 107.224 204.832 107.979C204.618 108.672 204.348 109.348 204.025 109.998C203.032 111.957 201.543 113.622 199.707 114.826C199.211 115.15 198.691 115.436 198.152 115.68L197.728 115.856C197.684 115.88 197.637 115.898 197.589 115.911Z" fill="#455A64"/>
<path d="M210.105 87.3781C210.105 87.3781 210.077 87.3781 210.018 87.4197C209.958 87.4613 209.87 87.4751 209.75 87.5075C209.398 87.597 209.033 87.6313 208.67 87.6091C208.002 87.5431 207.354 87.346 206.761 87.0289C206.169 86.7118 205.645 86.281 205.22 85.7611C204.635 85.0468 204.168 84.2436 203.836 83.3818C203.46 82.4004 203.143 81.3977 202.885 80.3788C202.605 79.2623 202.231 78.1713 201.769 77.1171C201.263 75.9967 200.482 75.0225 199.499 74.285C198.5 73.5677 197.379 73.0371 196.191 72.7189C195.081 72.4151 193.949 72.1988 192.805 72.0721C190.851 71.9235 188.907 71.6737 186.979 71.3236C185.677 71.0797 184.428 70.6107 183.288 69.9376C182.872 69.6853 182.487 69.3861 182.139 69.046C182.139 69.0229 182.536 69.3832 183.339 69.8545C184.486 70.4988 185.734 70.9455 187.029 71.1758C188.658 71.5223 190.642 71.6378 192.847 71.8688C194.003 71.9928 195.147 72.2075 196.27 72.511C197.486 72.8339 198.633 73.3755 199.656 74.1095C200.669 74.8718 201.473 75.8777 201.995 77.0339C202.462 78.1005 202.836 79.2057 203.111 80.3372C203.363 81.3501 203.671 82.3481 204.034 83.3264C204.354 84.1717 204.804 84.962 205.367 85.6687C206.196 86.6943 207.39 87.357 208.698 87.5167C209.172 87.5501 209.647 87.5032 210.105 87.3781Z" fill="#455A64"/>
<path d="M211.568 182.157L201.104 186.029C201.104 186.029 197.137 184.463 196.33 184.357C195.287 184.218 187.467 186.838 181.83 188.792C178.139 190.072 175.27 192.423 174.08 196.147L216.218 196.004L211.568 182.157Z" fill="#B78876"/>
<path d="M120.657 168.117L124.006 165.78L141.712 196.678L142.893 201.889L137.754 199.307L120.657 168.117Z" fill="#455A64"/>
<path d="M141.238 201.058L142.488 200.088L142.894 201.889L141.238 201.058Z" fill="#263238"/>
<path d="M141.712 196.678C141.712 196.711 141.528 196.637 141.251 196.632C141.171 196.627 141.092 196.641 141.018 196.673C140.944 196.704 140.879 196.752 140.827 196.812C140.706 196.985 140.646 197.193 140.656 197.404V197.551L140.513 197.514C140.366 197.466 140.209 197.451 140.055 197.47C139.902 197.489 139.754 197.542 139.623 197.625C139.389 197.818 139.227 198.083 139.161 198.378L139.138 198.475H139.046C138.824 198.451 138.599 198.481 138.391 198.563C138.23 198.628 138.092 198.739 137.994 198.882C137.828 199.127 137.805 199.344 137.777 199.316C137.75 199.289 137.722 199.113 137.879 198.808C137.976 198.628 138.126 198.481 138.308 198.388C138.543 198.28 138.802 198.234 139.06 198.254L138.94 198.346C139.003 197.98 139.2 197.65 139.493 197.422C139.653 197.318 139.834 197.253 140.023 197.23C140.212 197.208 140.403 197.229 140.582 197.293L140.444 197.399C140.438 197.136 140.529 196.88 140.698 196.678C140.77 196.603 140.859 196.547 140.958 196.513C141.057 196.479 141.162 196.469 141.265 196.484C141.431 196.499 141.588 196.567 141.712 196.678Z" fill="#263238"/>
<path d="M120.657 168.117C120.471 167.696 120.436 167.223 120.559 166.779C120.682 166.335 120.955 165.948 121.331 165.683C122.927 164.532 124.007 165.78 124.007 165.78L120.657 168.117Z" fill="#263238"/>
<path d="M121.363 166.657L139.028 198.355C139.028 198.355 139.078 196.941 140.532 197.431L122.254 165.78L121.363 166.657Z" fill="#263238"/>
<path d="M137.099 180.818C136.33 180.393 135.485 180.122 134.613 180.018C134.176 179.974 133.736 180.055 133.344 180.252C132.951 180.449 132.623 180.754 132.398 181.132C132.282 181.402 132.219 181.692 132.216 181.987C132.212 182.281 132.266 182.573 132.375 182.846C132.595 183.392 132.898 183.9 133.275 184.352C133.76 185.056 134.377 185.659 135.093 186.126C135.481 186.409 135.946 186.568 136.427 186.582C136.907 186.596 137.381 186.463 137.785 186.202C138.189 185.941 138.504 185.564 138.69 185.12C138.875 184.676 138.922 184.186 138.825 183.714C138.635 182.566 138.018 181.531 137.099 180.818Z" fill="#B78876"/>
<path d="M125.173 176.586C125.173 176.586 122.405 175.819 121.437 178.314C121.437 178.314 117.414 180.624 117.414 184.26C116.404 185.621 115.838 187.262 115.795 188.958V190.344C115.796 191.151 115.989 191.946 116.358 192.664C116.727 193.381 117.261 194 117.917 194.47C118.951 195.269 120.103 195.903 121.331 196.35C122.101 196.55 122.897 196.634 123.693 196.6C123.891 196.593 124.085 196.535 124.254 196.43C124.423 196.325 124.561 196.177 124.655 196.001C124.748 195.825 124.794 195.628 124.787 195.429C124.78 195.23 124.721 195.036 124.615 194.867L124.237 194.377C124.237 194.377 126.424 195.888 128.048 195.763C128.048 195.763 130.271 195.689 130.908 194.327C131.143 193.818 135.314 195.477 135.789 193.269C135.789 193.269 138.183 193.463 138.663 192.312C139.143 191.162 138.566 189.434 137.611 188.376C136.656 187.318 125.173 176.586 125.173 176.586Z" fill="#B78876"/>
<path d="M124.048 182.287C124.214 182.415 124.368 182.557 124.509 182.712C124.828 183.031 125.238 183.437 125.722 183.927C126.751 184.948 128.186 186.343 129.815 187.835C131.443 189.328 132.97 190.631 134.077 191.559L135.392 192.663C135.56 192.788 135.715 192.931 135.853 193.088C135.667 192.99 135.49 192.872 135.327 192.737C135 192.497 134.534 192.141 133.943 191.693C132.804 190.792 131.263 189.508 129.625 187.997C127.988 186.486 126.571 185.087 125.575 184.029C125.077 183.502 124.68 183.068 124.412 182.763C124.276 182.616 124.154 182.457 124.048 182.287Z" fill="#AA6550"/>
<path d="M130.908 194.23C130.871 194.28 128.832 192.784 126.359 190.889C123.887 188.995 121.908 187.41 121.949 187.36C121.991 187.309 124.03 188.801 126.502 190.7C128.975 192.599 130.95 194.174 130.908 194.23Z" fill="#AA6550"/>
<path d="M124.869 194.756C124.556 194.595 124.259 194.403 123.983 194.183C123.448 193.809 122.719 193.282 121.94 192.668C121.267 192.147 120.626 191.585 120.021 190.986C119.753 190.753 119.518 190.484 119.324 190.187C119.614 190.387 119.886 190.613 120.136 190.862C120.597 191.291 121.308 191.869 122.087 192.479C123.062 193.178 123.991 193.939 124.869 194.756Z" fill="#AA6550"/>
<path d="M174.186 129.249C176.552 133.407 181.673 135.546 186.457 135.223C191.298 134.811 195.844 132.727 199.319 129.328C201.377 127.346 202.036 122.906 203.854 123.322C205.547 123.701 206.857 129.328 207.037 131.069C207.309 133.684 206.322 136.318 204.758 138.429C203.194 140.54 201.068 142.185 198.904 143.641C194.775 146.389 190.111 148.598 185.156 148.829C180.202 149.06 174.942 146.981 172.331 142.781C169.72 138.582 170.62 132.206 174.864 129.642" fill="url(#paint3_linear)"/>
<path d="M186.748 145.068C186.84 144.988 186.938 144.917 187.043 144.856L187.92 144.287L191.149 142.245V142.407L186.245 140.559H186.19V140.504C185.812 138.924 185.392 137.2 184.958 135.422L185.166 135.468L185.138 135.5L185.083 135.569L184.977 135.703L184.76 135.967L184.331 136.498L183.491 137.533L181.886 139.51L181.849 139.556H181.766L176.543 139.122L176.626 138.988L178.679 142.222L179.228 143.109C179.296 143.212 179.356 143.32 179.408 143.433C179.326 143.343 179.251 143.245 179.187 143.142C179.039 142.92 178.841 142.633 178.596 142.278L176.497 139.062L176.396 138.91H176.576L181.803 139.293L181.706 139.335L183.302 137.353L184.142 136.313L184.566 135.787L184.783 135.519L184.894 135.385L184.944 135.315L184.972 135.283C184.926 135.283 185.369 135.375 185.184 135.329C185.613 137.131 186.024 138.854 186.402 140.434L186.333 140.356L191.218 142.259L191.389 142.324L191.232 142.416L187.943 144.394L187.043 144.92C186.95 144.978 186.851 145.028 186.748 145.068Z" fill="#FAFAFA"/>
<path d="M177.78 147.346C177.748 147.045 177.693 146.746 177.614 146.454C177.328 145.667 176.842 144.969 176.202 144.431C175.422 143.705 174.287 143.137 173.046 142.458C172.388 142.106 171.77 141.685 171.201 141.201C170.313 140.409 169.649 139.397 169.275 138.267C168.901 137.136 168.83 135.927 169.07 134.761C169.357 133.527 169.853 132.352 170.537 131.287C170.973 130.56 171.525 129.909 172.17 129.36C172.352 129.215 172.546 129.086 172.751 128.977C172.819 128.934 172.892 128.902 172.968 128.88C172.968 128.903 172.682 129.046 172.23 129.434C171.613 130 171.084 130.656 170.661 131.379C170.015 132.438 169.547 133.596 169.277 134.807C168.981 136.299 169.207 137.848 169.919 139.191C170.282 139.886 170.765 140.512 171.344 141.039C171.902 141.513 172.506 141.928 173.148 142.278C174.375 142.961 175.528 143.562 176.313 144.32C176.962 144.884 177.442 145.618 177.697 146.44C177.784 146.734 177.812 147.041 177.78 147.346Z" fill="#263238"/>
<path d="M202.138 119.977C202.177 119.979 202.216 119.987 202.253 120L202.585 120.102C203.013 120.234 203.427 120.407 203.822 120.619C204.441 120.962 205.014 121.384 205.524 121.876C206.209 122.521 206.787 123.271 207.236 124.098C208.443 126.258 208.879 128.766 208.472 131.208C208.204 132.632 207.697 134.001 206.973 135.255C206.196 136.598 205.233 137.824 204.112 138.896C202.99 139.966 201.753 140.906 200.422 141.7C199.185 142.437 197.887 143.064 196.542 143.576C194.265 144.441 191.875 144.975 189.447 145.161C187.812 145.287 186.17 145.25 184.543 145.05C183.966 144.98 183.523 144.902 183.223 144.842L182.886 144.772C182.847 144.769 182.808 144.76 182.771 144.745C182.811 144.738 182.851 144.738 182.891 144.745L183.232 144.791C183.532 144.837 183.98 144.897 184.552 144.953C186.174 145.114 187.808 145.127 189.433 144.99C191.84 144.777 194.207 144.23 196.463 143.363C199.237 142.327 201.778 140.749 203.937 138.72C205.041 137.663 205.991 136.456 206.76 135.135C207.476 133.906 207.976 132.564 208.241 131.167C208.649 128.776 208.239 126.319 207.079 124.19C206.65 123.367 206.094 122.617 205.432 121.968C204.935 121.476 204.378 121.047 203.776 120.693C203.391 120.476 202.988 120.292 202.572 120.143L202.249 120.019L202.138 119.977Z" fill="#263238"/>
<path d="M187.532 147.757C187.649 147.347 187.706 146.922 187.703 146.496C187.627 146.075 187.489 145.669 187.292 145.29C187.292 145.29 187.449 145.355 187.601 145.558C187.791 145.828 187.907 146.143 187.938 146.472C187.97 146.801 187.916 147.132 187.781 147.434C187.675 147.665 187.56 147.771 187.532 147.757Z" fill="#263238"/>
<path d="M203.909 144.352C203.65 144.386 203.387 144.342 203.153 144.227C202.557 144.008 202.052 143.596 201.717 143.056C201.383 142.516 201.239 141.879 201.307 141.247C201.313 140.988 201.391 140.735 201.533 140.517C201.57 140.517 201.483 140.809 201.478 141.261C201.458 141.849 201.612 142.429 201.92 142.929C202.229 143.429 202.679 143.826 203.213 144.07C203.646 144.269 203.932 144.315 203.909 144.352Z" fill="#263238"/>
<path d="M202.138 125.452C202.1 125.547 202.055 125.64 202.004 125.729C201.903 125.904 201.778 126.191 201.571 126.5C201.006 127.429 200.357 128.305 199.633 129.115C197.233 131.82 194.106 133.776 190.626 134.749C187.146 135.722 183.46 135.672 180.008 134.604C178.968 134.287 177.959 133.874 176.995 133.37C176.649 133.199 176.4 133.033 176.225 132.936C176.133 132.888 176.047 132.83 175.967 132.765C176.064 132.799 176.159 132.842 176.248 132.894C176.433 132.978 176.686 133.13 177.037 133.287C178.01 133.752 179.019 134.137 180.054 134.437C184.011 135.574 188.227 135.412 192.085 133.975C195.943 132.537 199.24 129.9 201.492 126.449C201.709 126.135 201.847 125.872 201.954 125.706C202.004 125.613 202.066 125.528 202.138 125.452Z" fill="#263238"/>
<g opacity="0.2">
<path opacity="0.2" d="M185.885 145.322C185.708 145.474 185.597 145.689 185.577 145.922C185.557 146.154 185.63 146.386 185.779 146.565C186.096 146.911 186.509 147.156 186.965 147.267C191.245 148.698 195.885 148.618 200.113 147.042C204.342 145.465 207.904 142.486 210.207 138.6C211.983 135.593 212.938 131.836 211.651 128.589C211.323 127.752 210.539 126.842 209.695 127.147C208.85 127.452 208.823 128.556 208.814 129.429C208.777 134.461 205.354 139.021 201.022 141.575C196.69 144.13 191.569 144.976 186.554 145.313" fill="black"/>
</g>
<path d="M332.621 196.633C332.621 196.436 274.273 196.267 202.314 196.267C130.356 196.267 72 196.436 72 196.633C72 196.831 130.333 197 202.318 197C274.303 197 332.621 196.831 332.621 196.633Z" fill="#263238"/>
<path d="M262.254 206.232C262.762 209.466 265.673 211.952 268.833 212.848C271.993 213.744 275.361 213.347 278.59 212.76C280.435 212.428 282.539 211.809 283.203 210.062C283.72 208.718 283.12 207.156 282.11 206.135C281.1 205.114 279.748 204.518 278.419 203.945" fill="#F5F5F5"/>
<path d="M295.027 181.303C295.053 181.222 295.086 181.143 295.124 181.067L295.443 180.393C295.825 179.522 296.133 178.621 296.365 177.699C296.979 175.301 297.191 171.638 296.282 167.29C295.794 164.926 295.153 162.596 294.363 160.314C293.547 157.833 292.596 155.2 291.821 152.354C290.948 149.383 290.527 146.298 290.571 143.202C290.686 139.968 291.646 136.734 292.698 133.5C293.75 130.266 294.834 127.129 295.161 123.964C295.52 120.914 294.907 117.828 293.408 115.149C292.024 112.576 290.262 110.376 288.952 108.099C287.725 105.988 286.821 103.705 286.271 101.326C285.481 97.8791 285.423 94.3045 286.101 90.8338C286.343 89.5689 286.709 88.3309 287.194 87.1378C287.182 87.2231 287.16 87.3067 287.129 87.3873L286.908 88.0942C286.633 89.0053 286.406 89.9307 286.23 90.8662C285.601 94.3152 285.689 97.8569 286.488 101.27C287.047 103.621 287.952 105.876 289.173 107.96C290.483 110.21 292.246 112.4 293.667 115.001C295.198 117.733 295.828 120.88 295.466 123.992C295.138 127.226 294.045 130.381 292.998 133.601C291.95 136.821 291 140.014 290.88 143.197C290.831 146.261 291.244 149.315 292.103 152.257C292.864 155.089 293.8 157.722 294.608 160.208C295.398 162.509 296.038 164.859 296.522 167.244C297.403 171.628 297.15 175.324 296.495 177.731C296.248 178.658 295.916 179.56 295.503 180.425C295.355 180.702 295.24 180.919 295.157 181.086C295.122 181.163 295.079 181.235 295.027 181.303Z" fill="#263238"/>
<path d="M290.737 110.349C290.737 110.349 288.075 101.816 292.85 96.8213C292.887 96.7809 292.935 96.7517 292.988 96.737C293.041 96.7223 293.096 96.7226 293.149 96.738C293.202 96.7533 293.249 96.7831 293.286 96.8239C293.323 96.8648 293.347 96.9151 293.357 96.9692C293.611 98.3783 293.929 102.67 290.737 110.349Z" fill="url(#paint4_linear)"/>
<path d="M292.333 99.6626C292.326 100.192 292.266 100.72 292.153 101.238C291.978 102.324 291.771 103.594 291.544 104.999C291.318 106.403 291.12 107.678 290.949 108.764C290.9 109.29 290.806 109.811 290.668 110.321C290.616 109.793 290.632 109.26 290.714 108.736C290.802 107.761 290.972 106.426 291.217 104.948C291.461 103.469 291.711 102.148 291.923 101.196C292.002 100.671 292.14 100.157 292.333 99.6626Z" fill="#263238"/>
<path d="M293.87 130.469C293.87 130.469 295.498 121.691 302.054 119.501C302.105 119.483 302.161 119.481 302.215 119.493C302.268 119.505 302.317 119.531 302.357 119.569C302.396 119.608 302.425 119.656 302.439 119.709C302.453 119.762 302.452 119.818 302.436 119.87C301.998 121.233 300.277 125.174 293.87 130.469Z" fill="url(#paint5_linear)"/>
<path d="M300.263 121.769C300.014 122.236 299.716 122.674 299.373 123.077L297.099 126.126L294.792 129.171C294.508 129.615 294.182 130.031 293.819 130.413C294.022 129.921 294.283 129.456 294.598 129.027C295.133 128.205 295.908 127.101 296.813 125.913C297.717 124.726 298.557 123.673 299.189 122.929C299.504 122.505 299.865 122.116 300.263 121.769Z" fill="#263238"/>
<path d="M292.093 152.511C292.093 152.511 291.106 143.631 296.748 139.639C296.792 139.609 296.844 139.592 296.897 139.589C296.95 139.586 297.003 139.597 297.051 139.622C297.098 139.646 297.138 139.683 297.166 139.729C297.194 139.774 297.209 139.826 297.21 139.88C297.196 141.312 296.693 145.585 292.093 152.511Z" fill="url(#paint6_linear)"/>
<path d="M295.715 142.333C295.61 142.849 295.456 143.353 295.253 143.839C294.875 144.874 294.428 146.08 293.939 147.42C293.45 148.759 293.016 149.965 292.638 151C292.481 151.505 292.275 151.994 292.024 152.46C292.078 151.932 292.195 151.412 292.375 150.912C292.647 149.988 293.071 148.69 293.588 147.29C294.105 145.89 294.608 144.638 294.995 143.742C295.181 143.247 295.423 142.774 295.715 142.333Z" fill="#263238"/>
<path d="M297.034 174.687C297.034 174.687 296.361 165.775 302.141 161.991C302.186 161.96 302.239 161.943 302.293 161.94C302.348 161.937 302.402 161.95 302.45 161.976C302.497 162.003 302.537 162.042 302.564 162.089C302.591 162.137 302.604 162.191 302.603 162.245C302.533 163.677 301.878 167.928 297.034 174.687Z" fill="url(#paint7_linear)"/>
<path d="M300.997 164.643C300.872 165.157 300.694 165.657 300.466 166.135C300.051 167.152 299.544 168.344 299.027 169.66L297.597 173.19C297.432 173.693 297.222 174.18 296.969 174.645C297.043 174.119 297.179 173.605 297.375 173.111C297.68 172.187 298.151 170.912 298.718 169.536C299.285 168.159 299.83 166.921 300.25 166.038C300.447 165.547 300.697 165.079 300.997 164.643Z" fill="#263238"/>
<path d="M286.908 102.85C286.908 102.85 278.996 98.6924 278.844 91.7993C278.842 91.7447 278.855 91.6908 278.882 91.6433C278.909 91.5959 278.949 91.5568 278.996 91.5305C279.044 91.5042 279.098 91.4916 279.153 91.4942C279.207 91.4968 279.26 91.5145 279.305 91.5452C280.49 92.3583 283.72 95.1719 286.908 102.85Z" fill="url(#paint8_linear)"/>
<path d="M280.491 94.1741C280.857 94.5543 281.186 94.969 281.473 95.4122L283.706 98.503L285.944 101.585C286.291 101.987 286.6 102.422 286.866 102.883C286.46 102.543 286.096 102.155 285.782 101.728C285.155 100.979 284.329 99.9075 283.475 98.6971C282.622 97.4866 281.852 96.3871 281.321 95.5462C280.992 95.1228 280.713 94.6623 280.491 94.1741Z" fill="#263238"/>
<path d="M295.405 121.173C295.405 121.173 287.254 117.524 286.682 110.631C286.674 110.574 286.683 110.516 286.708 110.464C286.732 110.412 286.772 110.369 286.82 110.339C286.869 110.309 286.926 110.294 286.983 110.296C287.04 110.298 287.096 110.316 287.143 110.349C288.333 111.088 291.77 113.689 295.405 121.173Z" fill="url(#paint9_linear)"/>
<path d="M288.467 112.904C288.858 113.258 289.212 113.651 289.523 114.077L291.936 117.025L294.358 119.963C294.721 120.347 295.048 120.763 295.336 121.206C294.909 120.893 294.521 120.528 294.183 120.12C293.509 119.409 292.619 118.392 291.678 117.237C290.737 116.082 289.916 115.01 289.339 114.225C289 113.818 288.708 113.375 288.467 112.904Z" fill="#263238"/>
<path d="M290.714 141.608C290.714 141.608 285.122 134.645 287.743 128.247C287.762 128.195 287.796 128.15 287.84 128.117C287.883 128.084 287.935 128.064 287.99 128.058C288.045 128.053 288.1 128.063 288.149 128.087C288.198 128.112 288.239 128.149 288.269 128.196C289.021 129.415 290.884 133.292 290.714 141.608Z" fill="url(#paint10_linear)"/>
<path d="M288.301 131.079C288.488 131.575 288.624 132.089 288.707 132.612C288.942 133.684 289.214 134.922 289.514 136.336C289.814 137.75 290.1 138.983 290.336 140.032C290.485 140.539 290.587 141.059 290.64 141.585C290.403 141.11 290.223 140.609 290.105 140.092C289.833 139.168 289.501 137.842 289.182 136.396C288.864 134.95 288.619 133.624 288.467 132.645C288.352 132.131 288.297 131.605 288.301 131.079Z" fill="#263238"/>
<path d="M296.254 165.655C296.254 165.655 288.172 161.871 287.715 154.969C287.709 154.912 287.718 154.855 287.744 154.804C287.769 154.753 287.808 154.71 287.856 154.681C287.905 154.652 287.961 154.637 288.018 154.639C288.075 154.641 288.13 154.659 288.176 154.691C289.371 155.454 292.753 158.115 296.254 165.655Z" fill="url(#paint11_linear)"/>
<path d="M289.459 157.269C289.844 157.631 290.192 158.03 290.497 158.461L292.859 161.451C293.749 162.564 294.548 163.571 295.23 164.43C295.588 164.819 295.909 165.239 296.19 165.687C295.768 165.367 295.387 164.996 295.055 164.583C294.395 163.862 293.523 162.827 292.601 161.658C291.678 160.49 290.871 159.404 290.294 158.605C289.966 158.193 289.686 157.745 289.459 157.269Z" fill="#263238"/>
<path d="M312.36 130.515C312.373 130.581 312.373 130.648 312.36 130.714C312.36 130.865 312.36 131.054 312.36 131.282C312.337 131.818 312.304 132.543 312.267 133.449C312.161 135.357 312.018 138.013 311.843 141.187C311.266 144.421 309.624 148.006 307.414 151.49C305.795 154.054 304.092 156.382 302.63 158.549C301.297 160.444 300.098 162.429 299.041 164.49C298.349 165.888 297.787 167.347 297.362 168.847C297.223 169.383 297.113 169.799 297.053 170.081C297.031 170.229 296.991 170.373 296.933 170.51C296.939 170.363 296.957 170.216 296.988 170.071C297.029 169.78 297.113 169.355 297.237 168.815C297.614 167.287 298.148 165.802 298.829 164.384C299.862 162.298 301.046 160.291 302.372 158.378C303.83 156.198 305.518 153.86 307.133 151.31C309.329 147.849 310.966 144.315 311.561 141.146C311.783 137.967 311.972 135.315 312.106 133.412C312.175 132.511 312.235 131.786 312.277 131.25C312.277 131.023 312.318 130.834 312.337 130.681C312.338 130.625 312.346 130.57 312.36 130.515Z" fill="#263238"/>
<path d="M307.548 150.843C307.548 150.843 310.971 142.587 306.662 137.182C306.629 137.139 306.584 137.106 306.533 137.086C306.483 137.067 306.427 137.062 306.374 137.072C306.321 137.082 306.271 137.107 306.231 137.143C306.19 137.18 306.161 137.227 306.145 137.279C305.762 138.66 305.061 142.906 307.548 150.843Z" fill="url(#paint12_linear)"/>
<path d="M306.925 140.06C307.072 140.569 307.161 141.093 307.193 141.622C307.317 142.592 307.451 143.932 307.557 145.419C307.663 146.907 307.714 148.26 307.714 149.24C307.749 149.769 307.716 150.299 307.617 150.82C307.526 150.3 307.48 149.773 307.479 149.245C307.405 148.15 307.317 146.865 307.225 145.442C307.133 144.019 307.036 142.74 306.957 141.64C306.892 141.116 306.881 140.586 306.925 140.06Z" fill="#263238"/>
<g opacity="0.3">
<path opacity="0.3" d="M307.548 150.843C307.548 150.843 310.971 142.587 306.662 137.182C306.629 137.139 306.584 137.106 306.533 137.086C306.483 137.067 306.427 137.062 306.374 137.072C306.321 137.082 306.271 137.107 306.231 137.143C306.19 137.18 306.161 137.227 306.145 137.279C305.762 138.66 305.061 142.906 307.548 150.843Z" fill="black"/>
</g>
<path d="M296.942 170.732C296.942 170.732 299.71 162.227 294.954 157.186C294.917 157.146 294.869 157.117 294.817 157.102C294.764 157.087 294.708 157.087 294.656 157.101C294.603 157.116 294.556 157.145 294.519 157.186C294.482 157.226 294.457 157.276 294.446 157.329C294.178 158.734 293.819 163.021 296.942 170.732Z" fill="url(#paint13_linear)"/>
<path d="M295.447 160.037C295.637 160.531 295.77 161.046 295.844 161.571C296.042 162.527 296.305 163.853 296.512 165.327C296.72 166.801 296.9 168.145 296.974 169.12C297.048 169.645 297.059 170.177 297.006 170.704C296.868 170.195 296.779 169.674 296.739 169.147C296.577 168.062 296.388 166.787 296.18 165.378C295.973 163.968 295.77 162.698 295.608 161.612C295.5 161.094 295.445 160.566 295.447 160.037Z" fill="#263238"/>
<g opacity="0.3">
<path opacity="0.3" d="M296.942 170.732C296.942 170.732 299.71 162.227 294.954 157.186C294.917 157.146 294.869 157.117 294.817 157.102C294.764 157.087 294.708 157.087 294.656 157.101C294.603 157.116 294.556 157.145 294.519 157.186C294.482 157.226 294.457 157.276 294.446 157.329C294.178 158.734 293.819 163.021 296.942 170.732Z" fill="black"/>
</g>
<path d="M311.908 140.753C311.908 140.753 319.22 135.629 318.482 128.741C318.476 128.687 318.456 128.635 318.424 128.591C318.391 128.548 318.347 128.514 318.296 128.494C318.246 128.474 318.191 128.468 318.137 128.478C318.083 128.487 318.033 128.511 317.993 128.547C316.936 129.517 314.062 132.719 311.908 140.753Z" fill="url(#paint14_linear)"/>
<g opacity="0.3">
<path opacity="0.3" d="M311.908 140.753C311.908 140.753 319.22 135.629 318.482 128.741C318.476 128.687 318.456 128.635 318.424 128.591C318.391 128.548 318.347 128.514 318.296 128.494C318.246 128.474 318.191 128.468 318.137 128.478C318.083 128.487 318.033 128.511 317.993 128.547C316.936 129.517 314.062 132.719 311.908 140.753Z" fill="black"/>
</g>
<path d="M317.158 131.319C317.012 131.828 316.809 132.32 316.553 132.783C316.133 133.666 315.529 134.872 314.823 136.184C314.117 137.496 313.439 138.665 312.909 139.492C312.651 139.953 312.341 140.384 311.986 140.776C312.184 140.293 312.427 139.829 312.71 139.39C313.236 138.424 313.85 137.293 314.533 136.045L316.346 132.696C316.57 132.211 316.842 131.75 317.158 131.319Z" fill="#263238"/>
<path d="M299.89 162.301C299.89 162.301 308.706 160.915 311.068 154.424C311.088 154.373 311.094 154.318 311.084 154.264C311.075 154.21 311.05 154.16 311.014 154.12C310.977 154.079 310.93 154.05 310.878 154.035C310.825 154.02 310.77 154.02 310.717 154.035C309.343 154.428 305.357 156.036 299.89 162.301Z" fill="url(#paint15_linear)"/>
<g opacity="0.3">
<path opacity="0.3" d="M299.89 162.301C299.89 162.301 308.706 160.915 311.068 154.424C311.088 154.373 311.094 154.318 311.084 154.264C311.075 154.21 311.05 154.16 311.014 154.12C310.977 154.079 310.93 154.05 310.878 154.035C310.825 154.02 310.77 154.02 310.717 154.035C309.343 154.428 305.357 156.036 299.89 162.301Z" fill="black"/>
</g>
<path d="M308.752 156.156C308.395 156.547 307.996 156.897 307.562 157.2C306.801 157.81 305.716 158.628 304.517 159.51C303.317 160.393 302.178 161.127 301.343 161.635C300.913 161.937 300.448 162.187 299.959 162.379C300.353 162.033 300.777 161.723 301.228 161.455L304.337 159.256L307.437 157.048C307.844 156.706 308.285 156.408 308.752 156.156Z" fill="#263238"/>
<path d="M291.475 178.554L288.905 195.893H304.937L302.856 178.554H291.475Z" fill="#455A64"/>
<path d="M303.497 183.927C303.497 184.019 300.605 184.093 297.038 184.093C293.472 184.093 290.58 184.019 290.58 183.927C290.58 183.834 293.472 183.76 297.038 183.76C300.605 183.76 303.497 183.834 303.497 183.927Z" fill="#263238"/>
<path d="M303.816 185.304C303.816 185.396 300.826 185.47 297.14 185.47C293.454 185.47 290.465 185.396 290.465 185.304C290.465 185.211 293.449 185.137 297.14 185.137C300.831 185.137 303.816 185.211 303.816 185.304Z" fill="#263238"/>
<path d="M274.147 208.034C271.407 208.31 268.645 208.298 265.908 207.997C265.02 207.9 264.199 207.478 263.603 206.812C263.007 206.146 262.678 205.283 262.678 204.389H277.413C277.416 205.293 277.084 206.167 276.48 206.84C275.877 207.514 275.046 207.939 274.147 208.034Z" fill="#E0E0E0"/>
<path d="M276.542 207.073C272.254 208.026 267.811 208.037 263.518 207.105C262.709 206.924 261.985 206.472 261.467 205.824C260.948 205.175 260.666 204.369 260.667 203.539V181.039C260.667 180.072 261.051 179.145 261.733 178.462C262.416 177.778 263.342 177.394 264.307 177.394H275.767C276.732 177.394 277.658 177.778 278.34 178.462C279.023 179.145 279.407 180.072 279.407 181.039V203.506C279.408 204.339 279.124 205.147 278.603 205.796C278.082 206.445 277.354 206.896 276.542 207.073Z" fill="url(#paint16_linear)"/>
<path d="M278.743 179.006C279.033 179.931 278.327 181.132 276.763 182.134C274.718 183.286 272.413 183.898 270.066 183.913C267.72 183.927 265.408 183.344 263.348 182.217C261.77 181.233 261.041 180.055 261.332 179.113C261.622 178.17 262.78 177.574 264.34 177.219C266.212 176.855 268.116 176.685 270.023 176.71C271.93 176.666 273.837 176.821 275.712 177.172C277.262 177.487 278.447 178.046 278.743 179.006Z" fill="url(#paint17_linear)"/>
<g opacity="0.5">
<path opacity="0.5" d="M278.743 179.006C279.033 179.931 278.327 181.132 276.763 182.134C274.718 183.286 272.413 183.898 270.066 183.913C267.72 183.927 265.408 183.344 263.348 182.217C261.77 181.233 261.041 180.055 261.332 179.113C261.622 178.17 262.78 177.574 264.34 177.219C266.212 176.855 268.116 176.685 270.023 176.71C271.93 176.666 273.837 176.821 275.712 177.172C277.262 177.487 278.447 178.046 278.743 179.006Z" fill="black"/>
</g>
<path d="M275.292 178.692C274.43 178.563 273.55 178.637 272.722 178.909C272.353 179.03 271.933 179.284 271.956 179.672C271.979 180.06 272.307 180.212 272.607 180.337C273.272 180.609 273.986 180.74 274.705 180.723C275.423 180.705 276.13 180.539 276.782 180.235C277.082 180.097 277.414 179.82 277.322 179.501C277.257 179.337 277.131 179.205 276.971 179.131C276.411 178.8 275.776 178.619 275.126 178.604" fill="#263238"/>
<path d="M279.406 189.882C279.274 190.046 279.119 190.189 278.945 190.307C278.437 190.655 277.85 190.87 277.238 190.935C276.259 191.05 275.27 190.823 274.438 190.293C273.917 189.955 273.494 189.487 273.211 188.935C273.044 188.619 272.988 188.256 273.049 187.905C273.088 187.711 273.181 187.533 273.318 187.391C273.454 187.248 273.628 187.148 273.82 187.101C274.018 187.087 274.217 187.116 274.404 187.186C274.59 187.256 274.759 187.366 274.899 187.507C275.195 187.76 275.461 188.045 275.693 188.357C276.18 189.022 276.509 189.79 276.652 190.603C276.818 191.474 276.754 192.374 276.468 193.213C276.147 194.104 275.565 194.877 274.798 195.431C273.994 196.03 273.03 196.376 272.03 196.424C270.983 196.483 269.952 196.154 269.132 195.5C268.289 194.827 267.689 193.895 267.426 192.848C267.293 192.312 267.267 191.754 267.347 191.208C267.361 190.91 267.446 190.621 267.595 190.363C267.745 190.106 267.954 189.888 268.205 189.729C268.375 189.653 268.564 189.627 268.749 189.654C268.933 189.681 269.106 189.76 269.248 189.882C269.495 190.105 269.685 190.384 269.801 190.695C270.006 191.272 270.145 191.87 270.217 192.478C270.366 193.653 270.309 194.844 270.046 195.999C269.796 197.105 269.36 198.159 268.754 199.117C268.196 200.072 267.316 200.796 266.272 201.159C265.764 201.282 265.234 201.276 264.729 201.142C264.224 201.008 263.76 200.751 263.38 200.392C262.669 199.761 262.155 198.938 261.899 198.022C261.67 197.243 261.601 196.425 261.697 195.618C261.793 194.811 262.052 194.032 262.457 193.328L262.577 193.134L262.66 193.342C263.047 194.286 263.219 195.304 263.163 196.322C263.127 197.075 262.971 197.818 262.701 198.521C262.487 199.114 262.165 199.663 261.751 200.138C262.082 199.612 262.362 199.055 262.586 198.475C262.837 197.782 262.977 197.054 263.001 196.318C263.035 195.328 262.852 194.342 262.466 193.43H262.669C262.289 194.108 262.051 194.855 261.967 195.628C261.884 196.401 261.958 197.182 262.185 197.925C262.431 198.786 262.919 199.558 263.592 200.148C263.934 200.468 264.351 200.699 264.804 200.818C265.258 200.937 265.734 200.942 266.189 200.831C267.162 200.491 267.98 199.812 268.496 198.919C269.079 197.994 269.497 196.975 269.732 195.906C269.981 194.791 270.034 193.64 269.889 192.506C269.82 191.93 269.688 191.363 269.497 190.815C269.4 190.559 269.241 190.33 269.036 190.15C268.948 190.069 268.839 190.016 268.722 189.997C268.604 189.978 268.484 189.994 268.376 190.044C268.176 190.181 268.012 190.363 267.897 190.576C267.781 190.789 267.718 191.026 267.712 191.268C267.637 191.768 267.662 192.279 267.785 192.769C268.025 193.741 268.58 194.605 269.363 195.227C270.117 195.827 271.064 196.13 272.025 196.077C272.951 196.029 273.842 195.707 274.585 195.153C275.303 194.642 275.85 193.925 276.154 193.097C276.431 192.31 276.496 191.464 276.343 190.644C276.214 189.874 275.909 189.143 275.453 188.51C275.239 188.213 274.991 187.941 274.715 187.701C274.604 187.583 274.47 187.489 274.32 187.427C274.17 187.365 274.009 187.336 273.847 187.341C273.704 187.379 273.575 187.457 273.473 187.564C273.371 187.672 273.301 187.806 273.271 187.951C273.22 188.25 273.267 188.558 273.404 188.829C273.663 189.348 274.053 189.79 274.535 190.113C275.322 190.636 276.265 190.874 277.206 190.787C277.803 190.74 278.381 190.55 278.89 190.233C279.24 190.007 279.393 189.84 279.406 189.882Z" fill="#FAFAFA"/>
<path d="M277.616 177.796C277.682 177.842 277.742 177.894 277.796 177.953C278.008 178.168 278.165 178.43 278.255 178.717C278.345 179.005 278.365 179.31 278.313 179.607C278.231 180.088 278.027 180.539 277.723 180.919C276.903 181.877 275.822 182.575 274.613 182.929C273.166 183.418 271.646 183.652 270.12 183.622C268.597 183.592 267.088 183.321 265.649 182.818C265.015 182.611 264.406 182.335 263.832 181.996C263.324 181.699 262.886 181.297 262.545 180.818C262.296 180.467 262.137 180.062 262.081 179.636C262.024 179.21 262.073 178.776 262.222 178.374C262.309 178.16 262.438 177.965 262.6 177.801C262.652 177.741 262.715 177.691 262.785 177.653C262.585 177.874 262.428 178.131 262.323 178.411C262.2 178.798 262.169 179.209 262.234 179.61C262.299 180.012 262.457 180.392 262.697 180.721C263.287 181.575 264.427 182.18 265.733 182.61C267.154 183.089 268.639 183.35 270.138 183.382C271.637 183.412 273.129 183.189 274.553 182.721C275.729 182.388 276.786 181.728 277.603 180.818C277.9 180.461 278.105 180.038 278.202 179.584C278.267 179.24 278.237 178.886 278.115 178.558C277.984 178.283 277.816 178.027 277.616 177.796Z" fill="#263238"/>
<defs>
<linearGradient id="paint0_linear" x1="189.032" y1="117.941" x2="189.032" y2="195.888" gradientUnits="userSpaceOnUse">
<stop stop-color="#4A27F3"/>
<stop offset="1" stop-color="#339DFA"/>
</linearGradient>
<linearGradient id="paint1_linear" x1="133.443" y1="146.985" x2="133.443" y2="196.375" gradientUnits="userSpaceOnUse">
<stop stop-color="#4A27F3"/>
<stop offset="1" stop-color="#339DFA"/>
</linearGradient>
<linearGradient id="paint2_linear" x1="235.194" y1="135.334" x2="235.194" y2="196.147" gradientUnits="userSpaceOnUse">
<stop stop-color="#4A27F3"/>
<stop offset="1" stop-color="#339DFA"/>
</linearGradient>
<linearGradient id="paint3_linear" x1="188.974" y1="123.294" x2="188.974" y2="148.846" gradientUnits="userSpaceOnUse">
<stop stop-color="#4A27F3"/>
<stop offset="1" stop-color="#339DFA"/>
</linearGradient>
<linearGradient id="paint4_linear" x1="291.752" y1="96.7262" x2="291.752" y2="110.349" gradientUnits="userSpaceOnUse">
<stop stop-color="#4A27F3"/>
<stop offset="1" stop-color="#339DFA"/>
</linearGradient>
<linearGradient id="paint5_linear" x1="298.159" y1="119.485" x2="298.159" y2="130.469" gradientUnits="userSpaceOnUse">
<stop stop-color="#4A27F3"/>
<stop offset="1" stop-color="#339DFA"/>
</linearGradient>
<linearGradient id="paint6_linear" x1="294.618" y1="139.588" x2="294.618" y2="152.511" gradientUnits="userSpaceOnUse">
<stop stop-color="#4A27F3"/>
<stop offset="1" stop-color="#339DFA"/>
</linearGradient>
<linearGradient id="paint7_linear" x1="299.806" y1="161.94" x2="299.806" y2="174.687" gradientUnits="userSpaceOnUse">
<stop stop-color="#4A27F3"/>
<stop offset="1" stop-color="#339DFA"/>
</linearGradient>
<linearGradient id="paint8_linear" x1="282.875" y1="91.4939" x2="282.875" y2="102.85" gradientUnits="userSpaceOnUse">
<stop stop-color="#4A27F3"/>
<stop offset="1" stop-color="#339DFA"/>
</linearGradient>
<linearGradient id="paint9_linear" x1="291.042" y1="110.296" x2="291.042" y2="121.173" gradientUnits="userSpaceOnUse">
<stop stop-color="#4A27F3"/>
<stop offset="1" stop-color="#339DFA"/>
</linearGradient>
<linearGradient id="paint10_linear" x1="288.884" y1="128.057" x2="288.884" y2="141.608" gradientUnits="userSpaceOnUse">
<stop stop-color="#4A27F3"/>
<stop offset="1" stop-color="#339DFA"/>
</linearGradient>
<linearGradient id="paint11_linear" x1="291.984" y1="154.639" x2="291.984" y2="165.655" gradientUnits="userSpaceOnUse">
<stop stop-color="#4A27F3"/>
<stop offset="1" stop-color="#339DFA"/>
</linearGradient>
<linearGradient id="paint12_linear" x1="307.295" y1="137.067" x2="307.295" y2="150.843" gradientUnits="userSpaceOnUse">
<stop stop-color="#4A27F3"/>
<stop offset="1" stop-color="#339DFA"/>
</linearGradient>
<linearGradient id="paint13_linear" x1="296.01" y1="157.09" x2="296.01" y2="170.732" gradientUnits="userSpaceOnUse">
<stop stop-color="#4A27F3"/>
<stop offset="1" stop-color="#339DFA"/>
</linearGradient>
<linearGradient id="paint14_linear" x1="315.221" y1="128.473" x2="315.221" y2="140.753" gradientUnits="userSpaceOnUse">
<stop stop-color="#4A27F3"/>
<stop offset="1" stop-color="#339DFA"/>
</linearGradient>
<linearGradient id="paint15_linear" x1="305.489" y1="154.024" x2="305.489" y2="162.301" gradientUnits="userSpaceOnUse">
<stop stop-color="#4A27F3"/>
<stop offset="1" stop-color="#339DFA"/>
</linearGradient>
<linearGradient id="paint16_linear" x1="270.037" y1="177.394" x2="270.037" y2="207.796" gradientUnits="userSpaceOnUse">
<stop stop-color="#4A27F3"/>
<stop offset="1" stop-color="#339DFA"/>
</linearGradient>
<linearGradient id="paint17_linear" x1="270.038" y1="176.703" x2="270.038" y2="183.913" gradientUnits="userSpaceOnUse">
<stop stop-color="#4A27F3"/>
<stop offset="1" stop-color="#339DFA"/>
</linearGradient>
</defs>
</svg>
